<?xml version="1.0" encoding="utf-8"?>
<svg xmlns="http://www.w3.org/2000/svg" viewBox="0 0 200 80" width="200px" height="80px" xmlns:bx="https://boxy-svg.com"><defs><bx:export><bx:file format="svg"/></bx:export></defs><path stroke="rgb(255,0,0)" stroke-width="0" opacity="0.9921568627450981" d="M 50.481 3.524 C 53.807 3.208 63.138 5.542 67.809 5.449 C 71.378 5.379 73.648 4.201 76.58 3.952 C 79.495 3.704 82.38 3.615 85.351 3.952 C 88.438 4.302 91.569 5.627 94.764 6.091 C 97.986 6.559 102.37 6.993 104.605 6.733 C 106.026 6.568 106.164 5.968 107.6 5.663 C 109.9 5.175 114.508 4.769 117.868 4.594 C 121.136 4.423 123.637 4.237 127.495 4.594 C 132.524 5.058 141.587 7.387 145.893 7.803 C 148.625 8.066 149.777 8.022 151.883 7.803 C 154.178 7.564 155.561 6.651 159.156 6.305 C 165.364 5.707 183.546 4.874 188.251 5.877 C 190.354 6.326 190.738 6.916 191.566 7.91 C 192.453 8.973 192.92 10.245 193.278 12.188 C 193.799 15.016 193.569 20.811 193.492 23.954 C 193.457 25.367 193.429 26.441 193.342 27.502 C 193.932 35.159 193.904 51.703 193.92 59.038 C 193.93 63.916 194.343 67.314 193.706 69.735 C 193.28 71.35 192.53 72.278 191.673 73.051 C 190.895 73.753 189.838 74.124 188.892 74.334 C 188.178 74.493 187.609 74.453 186.819 74.389 C 186.181 74.822 185.469 75.012 184.614 75.19 C 183.258 75.473 181.257 75.38 179.693 75.19 C 178.197 75.008 176.892 74.301 175.415 74.12 C 173.899 73.935 172.632 73.961 170.708 74.12 C 168.135 74.334 164.254 75.371 161.082 75.618 C 157.981 75.859 154.701 75.329 151.883 75.618 C 149.325 75.879 147.511 76.845 144.823 77.115 C 141.652 77.434 137.772 76.773 133.913 77.115 C 129.687 77.49 123.614 79.162 120.435 79.468 C 118.399 79.665 117.699 79.78 115.943 79.468 C 113.667 79.065 110.917 77.384 107.814 76.687 C 104.209 75.878 99.927 75.424 95.406 75.19 C 90.33 74.927 84.031 75.486 78.719 75.404 C 73.719 75.326 69.024 75.168 64.386 74.762 C 59.906 74.37 55.583 73.33 51.337 73.051 C 47.247 72.781 43.619 72.833 39.357 73.051 C 34.687 73.289 28.918 74.315 24.382 74.548 C 20.393 74.753 16.588 75.227 13.471 74.548 C 10.76 73.957 7.764 72.404 6.519 71.232 C 5.714 70.475 5.63 69.721 5.449 68.879 C 5.263 68.013 5.273 67.296 5.449 66.098 C 5.709 64.333 7.037 61.099 7.374 59.038 C 7.652 57.342 7.757 56.517 7.588 54.546 C 7.337 51.606 5.833 46.829 5.235 42.566 C 4.589 37.96 4.156 32.401 3.952 27.805 C 3.765 23.613 3.769 19.48 3.952 16.039 C 4.106 13.127 4.171 10.089 4.807 8.337 C 5.246 7.13 5.798 6.58 6.626 5.877 C 7.557 5.086 9.148 4.243 10.262 3.952 C 11.185 3.711 11.438 3.894 12.83 3.952 C 15.666 4.069 22.975 4.916 28.018 5.022 C 33.029 5.127 39.645 4.574 42.993 4.594 C 45.023 4.605 45.982 5.017 47.272 4.808 C 48.456 4.616 48.74 3.689 50.481 3.524 Z" style="fill-opacity: 1; fill-rule: nonzero; stroke: rgb(5, 14, 26); stroke-dasharray: none; stroke-dashoffset: 0px; stroke-linecap: butt; stroke-linejoin: miter; stroke-miterlimit: 4; stroke-opacity: 1; stroke-width: 5px; paint-order: normal; vector-effect: none; opacity: 1; mix-blend-mode: normal; isolation: auto; fill: rgb(148, 191, 48);"/></svg>