<?xml version="1.0" encoding="utf-8"?>
<svg xmlns="http://www.w3.org/2000/svg" viewBox="0 0 1000 500" xmlns:bx="https://boxy-svg.com" width="1000px" height="500px"><defs><bx:guide x="10" y="10" angle="0"/><bx:export><bx:file format="svg"/></bx:export></defs><path stroke="rgb(255,0,0)" stroke-width="0" opacity="0.9803921568627451" d="M 728.575 164.364 C 736.546 163.618 743.477 163.819 750.304 165.352 C 756.954 166.844 760.69 167.791 769.07 173.253 C 783.943 182.947 815.621 207.363 833.764 229.058 C 852.059 250.934 870.585 286.265 878.211 304.123 C 882.865 315.023 880.071 317.812 884.137 328.815 C 890.64 346.415 910.12 377.567 919.694 402.892 C 929.168 427.953 938.496 464.171 941.423 479.932 C 942.991 488.376 943.83 491.064 942.411 496.723 C 940.82 503.065 936.216 512.16 931.052 515.983 C 926.295 519.504 919.09 520.965 913.274 519.934 C 910.287 519.404 907.21 518.661 904.214 517.119 C 901.074 519.861 901.025 519.955 893.52 520.921 C 871.036 523.815 762.797 519.414 721.661 520.921 C 694.577 521.914 679.652 523.135 661.412 525.86 C 645.127 528.292 630.374 534.211 616.966 535.737 C 605.379 537.056 597.759 537.106 585.359 535.737 C 569.603 533.997 558.571 526.89 529.061 523.884 C 473.284 518.203 289.389 520.64 246.581 516.971 C 229.815 515.534 229.209 512.875 219.913 512.032 C 210.155 511.147 197.531 510.63 189.294 512.032 C 182.804 513.137 180.356 516.412 173.491 517.958 C 164.02 520.092 145.754 523.96 135.959 521.909 C 130.75 520.818 126.038 518.708 122.364 515.713 C 121.148 516.942 119.784 517.98 118.18 518.946 C 113.569 521.724 106.218 523.928 100.402 522.897 C 94.185 521.794 85.839 517.006 82.13 511.538 C 78.381 506.013 77.793 498.746 78.179 489.809 C 78.7 477.749 84.215 460.045 89.044 444.375 C 94.234 427.533 100.027 412.535 108.797 392.027 C 120.028 365.766 134.708 328.683 153.244 298.196 C 172.689 266.214 198.841 223.249 223.864 204.859 C 243.676 190.299 268.199 188.492 286.088 185.106 C 300.433 182.391 309.666 181.946 323.621 183.13 C 340.055 184.525 362.113 192.336 378.932 194.983 C 393.673 197.302 404.598 196.008 419.427 198.933 C 436.714 202.344 459.153 212.914 476.713 215.724 C 492.039 218.176 508.245 217.621 519.184 216.712 C 527.142 216.05 529.395 213.557 537.95 212.761 C 551.02 211.545 575.112 217.034 593.261 212.761 C 612.346 208.268 637.46 192.568 649.56 185.106 C 657.059 180.48 657.681 175.686 664.375 173.253 C 672.793 170.194 687.118 172.804 697.956 171.278 C 708.499 169.794 719.345 165.227 728.575 164.364 Z" style="fill-opacity: 1; fill-rule: nonzero; stroke: rgb(5, 14, 26); stroke-dasharray: none; stroke-dashoffset: 0px; stroke-linecap: butt; stroke-linejoin: miter; stroke-miterlimit: 4; stroke-opacity: 1; stroke-width: 5px; paint-order: normal; vector-effect: none; opacity: 1; mix-blend-mode: normal; isolation: auto; fill: rgb(71, 46, 62);"/><path stroke="rgb(255,0,0)" stroke-width="0" opacity="0.9254901960784314" d="M 130.5 399.903 C 132.671 399.127 138.015 400.559 139.884 402.372 C 141.585 404.022 140.43 409.361 141.859 409.78 C 143.415 410.236 146.609 404.805 149.267 403.853 C 151.737 402.969 155.294 402.404 157.168 403.853 C 159.339 405.532 157.609 412.816 160.625 414.718 C 164.421 417.113 177.115 411.632 180.873 413.73 C 183.598 415.252 184.712 419.407 184.33 422.126 C 183.923 425.015 180.379 428.617 177.91 430.521 C 175.703 432.223 171.662 431.493 170.502 433.484 C 169.211 435.699 172.649 440.24 171.49 443.855 C 170.038 448.381 164.158 454.731 160.131 458.177 C 156.686 461.124 153.514 463.055 149.267 464.103 C 144.468 465.287 137.762 465.605 132.476 464.103 C 127.045 462.56 120.258 459.556 117.167 454.72 C 113.818 449.481 112.916 439.342 114.204 432.99 C 115.392 427.127 120.418 420.17 123.587 417.681 C 125.708 416.015 129.178 417.778 130.007 416.2 C 131.033 414.244 126.682 408.202 127.044 405.335 C 127.333 403.042 128.658 400.561 130.5 399.903 Z M 378.411 389.038 C 386.174 390.467 391.837 393.247 398.165 396.94 C 404.873 400.853 411.444 405.622 417.425 412.249 C 424.252 419.812 431.712 431.17 436.192 440.892 C 440.37 449.959 442.393 457.404 444.093 468.547 C 446.237 482.604 447.711 511.817 446.068 519.907 C 445.353 523.432 444.467 524.559 442.612 525.34 C 440.492 526.232 435.311 525.278 433.356 523.949 C 432.455 526.441 431.066 528.672 427.636 530.118 C 419.634 533.492 393.03 532.04 381.215 531.106 C 372.754 530.437 371.22 528.129 361.461 527.155 C 344.599 525.473 294.908 528.69 282.445 525.18 C 277.993 523.926 276.351 522.669 275.028 520.544 C 274.381 521.378 273.639 521.999 272.728 522.377 C 269.605 523.672 263.474 522.313 260.382 518.92 C 259.595 518.057 258.86 516.933 258.185 515.616 C 255.539 515.981 250.537 514.875 248.53 512.006 C 245.468 507.629 246.01 496.52 246.554 487.314 C 247.194 476.482 247.863 462.249 253.468 450.769 C 258.343 440.783 268.151 429.856 277.066 421.51 C 272.864 421.62 268.586 421.398 265.814 420.644 C 262.005 419.608 259.12 417.196 257.419 415.212 C 256.098 413.67 255.272 411.935 255.444 410.273 C 255.629 408.48 256.653 406.057 258.901 404.841 C 262.242 403.033 274.462 406.109 276.185 403.36 C 277.813 400.763 270.136 392.934 270.259 389.532 C 270.347 387.109 271.953 385.042 273.716 384.1 C 275.63 383.077 278.592 383.102 281.618 384.1 C 285.805 385.481 293.303 395.246 296.433 393.977 C 299.591 392.695 297.544 378.194 300.384 376.198 C 302.591 374.646 307.492 376.517 309.767 378.667 C 312.334 381.093 311.931 390.957 314.211 391.013 C 316.983 391.082 321.702 376.54 326.064 373.235 C 329.439 370.677 334.42 369.426 336.928 370.272 C 339.017 370.976 338.746 375.567 340.879 376.198 C 343.55 376.988 349.873 371.984 352.731 372.247 C 354.766 372.434 355.62 375.54 357.176 375.21 C 359.191 374.784 360.597 368.355 363.596 367.309 C 366.96 366.135 374.561 367.164 376.93 369.778 C 379.251 372.339 379.02 378.25 377.918 382.618 C 377.464 384.415 376.695 386.509 375.69 388.596 C 376.623 388.729 377.531 388.876 378.411 389.038 Z M 267.37 454.027 C 268.27 453.559 269.187 452.956 270.099 451.94 C 270.094 451.198 270.147 450.466 270.259 449.781 C 270.275 449.682 270.292 449.583 270.31 449.483 C 269.281 450.95 268.29 452.467 267.37 454.027 Z M 302.444 419.568 C 303.149 419.352 303.857 419.139 304.566 418.929 C 304.487 418.847 304.407 418.765 304.328 418.683 C 303.676 418.985 303.047 419.281 302.444 419.568 Z M 273.222 479.906 C 273.061 479.876 272.109 481.605 272.234 481.881 C 272.325 482.082 273.035 482.096 273.222 481.881 C 273.469 481.597 273.376 479.935 273.222 479.906 Z M 277.667 200.389 C 281.64 199.566 285.465 201.355 287.05 202.858 C 288.221 203.968 286.706 206.236 288.038 207.302 C 290.093 208.949 297.469 207.3 301.371 209.278 C 305.408 211.323 309.361 215.169 311.742 219.649 C 314.393 224.636 317.066 231.664 315.693 238.415 C 315.561 239.063 315.381 239.74 315.159 240.442 C 323.245 240.055 337.429 241.472 340.385 243.353 C 341.991 244.376 341.629 245.901 341.373 247.304 C 341.065 248.99 340.217 251.263 337.916 252.736 C 334.313 255.045 321.106 253.864 318.656 257.181 C 316.648 259.899 321.174 265.997 320.631 269.033 C 320.208 271.399 318.822 273.561 317.174 274.466 C 315.529 275.369 311.882 273.276 310.754 274.466 C 309.499 275.79 311.374 279.934 310.754 282.861 C 310.057 286.155 308.807 292.101 306.31 293.232 C 303.844 294.348 297.273 290.875 295.939 289.775 C 295.327 289.27 295.787 288.275 295.445 288.293 C 294.903 288.323 294.117 291.387 292.482 292.244 C 290.321 293.377 285.115 293.798 282.605 293.232 C 280.647 292.79 279.158 290.061 278.161 290.269 C 277.337 290.441 277.752 292.783 276.679 293.232 C 275.114 293.886 270.027 293.494 268.284 291.75 C 266.42 289.886 266.019 285.655 266.308 281.873 C 266.476 279.681 266.971 276.404 267.782 273.335 C 266.394 273.14 265.065 272.862 263.839 272.49 C 258.003 270.722 252.093 266.383 248.53 262.119 C 245.249 258.194 243.544 252.763 242.604 248.292 C 241.749 244.227 241.445 240.934 242.604 236.439 C 244.108 230.606 247.628 221.997 252.974 216.192 C 258.891 209.767 271.484 201.669 277.667 200.389 Z M 401.128 284.343 C 401.153 284.336 401.178 284.33 401.204 284.324 C 400.282 280.363 398.201 273.944 398.659 271.009 C 399.059 268.444 400.211 266.27 402.116 265.576 C 404.447 264.728 410.376 266.284 412.487 268.046 C 414.258 269.524 413.83 274.578 414.956 274.466 C 416.42 274.32 417.97 264.034 420.882 262.613 C 423.552 261.311 429.243 262.514 431.253 265.083 C 433.666 268.165 433.344 276.65 432.241 281.873 C 431.634 284.745 430.496 287.964 428.992 290.758 C 434.101 293.196 438.958 296.235 441.13 299.652 C 444.525 304.993 443.568 314.161 442.118 319.406 C 440.901 323.805 438.156 327.108 434.71 329.776 C 430.94 332.696 426.105 334.476 419.895 335.703 C 411.832 337.294 395.874 338.772 389.276 336.69 C 384.865 335.299 382.665 332.92 380.881 329.283 C 378.682 324.801 377.061 316.725 378.905 310.516 C 378.911 310.495 378.918 310.473 378.924 310.452 C 375.39 310.007 372.343 309.327 371.004 308.541 C 369.026 307.381 368.857 305.264 369.028 303.603 C 369.214 301.809 370.455 299.248 372.485 298.17 C 375.121 296.771 383.64 300.046 384.831 297.676 C 386.298 294.761 375.951 283.097 375.942 278.91 C 375.937 276.289 377.494 274.172 379.399 273.478 C 381.73 272.629 387.025 273.843 389.77 275.947 C 392.746 278.228 393.922 285.194 396.19 287.306 C 396.327 287.433 396.47 287.556 396.619 287.674 C 398.051 285.985 398.899 284.925 401.128 284.343 Z M 593.729 320.887 C 596.655 320.243 600.097 319.865 603.581 319.85 C 607.085 315.547 611.273 310.75 612.989 306.566 C 615.72 299.906 613.53 288.552 616.446 286.318 C 618.606 284.663 623.382 285.978 625.829 288.787 C 629.51 293.014 630.673 313.661 632.249 314.961 C 632.816 315.429 632.818 314.191 633.73 313.48 C 635.655 311.978 641.106 307.273 645.089 306.072 C 648.863 304.933 654.385 304.109 656.941 306.072 C 659.579 308.097 660.318 316.378 660.398 318.418 C 660.432 319.297 659.409 319.541 659.904 319.9 C 661.214 320.848 673.951 318.781 677.683 319.9 C 680.039 320.606 681.218 321.823 682.127 323.356 C 683.06 324.93 683.574 327.33 683.115 329.283 C 682.605 331.451 680.559 334.305 678.67 335.703 C 676.892 337.019 673.259 336.054 672.25 337.678 C 671.095 339.539 673.994 344.251 673.238 347.061 C 672.49 349.841 670.25 353.468 667.806 354.469 C 666.184 355.133 663.457 354.883 661.248 354.245 C 661.131 354.322 661.012 354.396 660.892 354.469 C 659.605 355.247 657.705 356.07 655.54 356.827 C 655.855 357.19 656.158 357.556 656.447 357.926 C 662 365.029 667.429 376.248 669.287 383.606 C 670.713 389.253 669.628 393.594 669.287 398.421 C 668.954 403.136 669.063 407.236 667.312 412.249 C 665.166 418.392 661.717 426.845 655.953 432.497 C 649.524 438.801 640.025 444.388 629.286 447.312 C 616.687 450.743 595.316 449.836 583.852 449.287 C 575.766 448.9 571.09 448.714 565.085 446.324 C 558.712 443.788 551.661 440.133 546.813 433.978 C 541.192 426.842 537.089 414.475 534.961 404.347 C 532.867 394.384 533.396 382.023 533.973 373.729 C 534.419 367.32 534.717 362.615 536.936 357.926 C 539.158 353.231 542.446 348.892 547.307 345.58 C 553.07 341.652 565.525 340.44 570.518 337.184 C 573.969 334.934 573.862 332.161 576.938 329.776 C 580.946 326.669 587.433 322.274 593.729 320.887 Z M 598.173 333.727 C 598.084 333.802 598.006 333.883 597.937 333.969 C 598.254 333.881 598.586 333.809 598.934 333.749 C 598.847 333.605 598.764 333.457 598.687 333.303 C 598.524 333.43 598.357 333.572 598.173 333.727 Z M 715.215 221.13 C 723.088 220.787 738.843 218.6 750.772 221.13 C 763.525 223.835 781.024 232.523 789.292 237.921 C 794.719 241.464 796.278 243.907 799.663 248.292 C 803.717 253.545 809.6 261.246 811.515 268.046 C 813.315 274.44 812.684 281.016 811.515 287.8 C 810.25 295.139 807.57 302.841 803.613 310.516 C 799.182 319.112 792.184 330.215 785.341 336.69 C 779.336 342.374 773.208 346.481 765.587 348.543 C 757.273 350.792 746.966 350.776 736.944 348.543 C 725.541 346.002 709.472 340.009 700.893 332.246 C 693.162 325.249 689.049 315.201 686.078 305.578 C 683.314 296.625 682.327 286.343 682.913 276.638 C 677.397 277.863 660.2 275.354 656.447 272.984 C 654.407 271.696 654.3 269.707 654.472 268.046 C 654.657 266.252 656.378 263.671 657.929 262.613 C 659.387 261.618 662.745 262.519 663.361 261.626 C 663.88 260.873 662.062 259.543 662.373 258.169 C 662.827 256.169 665.216 252.411 667.806 250.761 C 670.651 248.949 679.269 249.5 679.164 248.292 C 679.04 246.859 665.169 244.77 662.373 242.366 C 660.649 240.883 660.226 239.088 660.398 237.427 C 660.583 235.634 661.559 232.841 663.855 231.995 C 667.394 230.69 681.265 235.673 682.621 234.958 C 683.12 234.695 682.457 234.516 682.127 233.476 C 681.099 230.232 673.872 212.935 674.226 207.796 C 674.425 204.894 675.851 203.328 677.683 202.364 C 679.766 201.268 684.146 201.376 686.572 202.364 C 688.86 203.296 690.415 204.745 692.004 207.796 C 694.452 212.497 695.014 226.98 697.614 231.508 C 700.121 227.337 702.812 223.796 705.338 222.118 C 708.555 219.98 710.489 221.336 715.215 221.13 Z M 777.933 325.826 C 778.963 324.697 780.031 323.344 781.114 321.824 C 779.655 323.695 778.194 325.453 776.752 327.056 C 777.151 326.661 777.545 326.251 777.933 325.826 Z M 580.889 211.253 C 587.063 207.689 597.603 209.55 602.618 211.253 C 606.266 212.492 607.806 214.289 610.026 217.673 C 613.155 222.444 618.705 232.352 617.927 239.403 C 617.123 246.686 610.4 257.107 604.593 260.638 C 603.29 261.43 601.847 261.988 600.318 262.355 C 600.274 262.594 600.218 262.845 600.149 263.107 C 599.005 267.468 588.984 280.556 586.815 283.355 C 586 284.406 586.293 284.315 585.333 284.836 C 583.413 285.879 576.449 289.703 573.975 288.293 C 571.386 286.818 572.523 277.914 570.518 275.453 C 569.019 273.614 565.909 274.441 564.592 272.984 C 563.251 271.501 564.59 267.969 562.616 266.564 C 559.765 264.535 548.693 267.181 545.825 265.083 C 543.786 263.59 543.557 260.263 543.85 258.169 C 544.131 256.165 545.311 253.529 547.307 252.736 C 548.014 252.455 549.003 252.56 550.127 252.836 C 550.492 252.453 550.875 252.088 551.258 251.749 C 553.187 250.039 556.25 248.114 559.159 247.798 C 560.57 247.645 562.469 247.828 564.285 248.212 C 564.415 248.117 564.551 248.033 564.694 247.96 C 562.97 245.096 562.664 242.339 563.604 238.415 C 565.266 231.478 573.663 215.425 580.889 211.253 Z M 585.827 261.626 C 585.675 261.586 585.522 261.545 585.366 261.501 C 585.452 262.148 585.578 262.589 585.827 262.613 C 586.04 262.634 586.257 262.311 586.49 261.793 C 586.268 261.739 586.047 261.683 585.827 261.626 Z M 577.432 240.884 C 577.623 241.279 578.075 241.75 578.715 242.266 C 578.471 240.999 578.284 239.638 578.15 238.256 C 577.484 239.066 577 239.992 577.432 240.884 Z M 477.181 219.155 C 481.458 218.99 485.661 217.511 490.021 219.155 C 495.335 221.158 502.099 227.225 506.318 232.489 C 510.44 237.633 513.812 244.538 515.207 250.267 C 516.132 254.066 516.475 257.651 515.995 261.307 C 518.707 261.352 522.551 262.392 525.578 263.601 C 530.233 265.46 537.703 269.932 539.899 272.984 C 541.344 274.992 541.273 277.04 540.887 278.91 C 540.49 280.833 539.354 283.351 537.43 284.343 C 535.102 285.542 528.498 283.128 527.059 284.343 C 526.034 285.208 527.519 287.269 527.059 288.787 C 526.526 290.548 525.683 293.183 523.602 294.22 C 520.819 295.606 512.168 292.578 510.269 294.22 C 508.85 295.445 510.844 298.665 510.269 300.64 C 509.693 302.616 508.774 305.347 506.812 306.072 C 504.326 306.99 498.143 306.23 495.453 303.603 C 492.975 301.182 491.127 294.639 490.616 290.055 C 486.228 290.85 481.09 290.94 476.193 289.281 C 468.56 286.696 456.707 277.025 451.995 271.996 C 448.927 268.723 447.98 266.919 447.056 263.107 C 445.876 258.237 445.45 250.061 447.056 244.341 C 448.634 238.721 454.69 231.369 456.439 229.032 C 457.18 228.042 457.195 228.338 457.921 227.55 C 459.265 226.09 461.398 221.584 464.341 220.143 C 467.623 218.535 472.898 219.319 477.181 219.155 Z M 479.156 349.53 C 479.896 349.399 480.749 349.46 481.644 349.634 C 481.977 344.189 484.963 335.498 488.045 333.727 C 490.539 332.295 495.646 333.99 497.429 336.196 C 499.394 338.63 496.111 346.052 498.416 348.543 C 500.84 351.162 510.057 349.049 512.244 351.012 C 513.801 352.409 513.472 355.221 513.232 356.938 C 513.019 358.457 510.848 359.389 511.256 360.889 C 511.863 363.118 518.644 366.339 520.145 368.79 C 521.21 370.528 521.457 372.085 521.133 373.729 C 520.776 375.542 520.123 378.641 517.676 379.161 C 514.642 379.806 505.13 376.095 498.565 373.009 C 498.521 373.255 498.471 373.495 498.416 373.729 C 497.188 378.929 493.335 385.702 489.033 388.05 C 484.867 390.325 477.592 389.351 473.23 388.05 C 469.406 386.91 465.747 384.623 463.847 381.63 C 461.905 378.571 460.9 373.886 461.872 369.778 C 463.027 364.897 468.965 357.923 472.242 354.469 C 474.643 351.938 476.53 349.995 479.156 349.53 Z M 779.909 469.535 C 782.594 472.58 783.11 474.008 783.86 477.437 C 784.852 481.972 785.206 488.96 783.86 495.215 C 782.322 502.358 778.35 511.483 773.983 517.932 C 769.845 524.043 761.015 530.899 758.673 533.241 C 757.753 534.161 758.214 533.969 757.192 534.723 C 754.663 536.588 746.917 543.232 739.907 545.094 C 731.729 547.265 718.999 545.303 710.276 545.094 C 702.856 544.916 694.509 545.669 690.523 544.106 C 688.002 543.118 687.725 542.165 686.078 539.661 C 683.268 535.391 677.801 525.211 676.201 517.932 C 674.688 511.05 675.555 503.133 676.201 497.191 C 676.74 492.234 676.545 489.191 679.164 484.35 C 682.908 477.43 694.398 465.911 700.399 460.152 C 700.556 460.002 700.712 459.855 700.869 459.712 C 698.743 451.234 697.425 439.076 697.93 434.966 C 698.315 431.836 699.545 430.192 701.387 429.533 C 703.557 428.757 708.495 429.853 710.77 432.003 C 712.909 434.024 713.349 441.29 714.453 443.623 C 714.657 443.121 714.9 442.694 715.215 442.374 C 715.677 441.904 716.226 441.704 716.806 441.589 C 718.156 437.423 719.615 429.873 722.129 428.546 C 725.175 426.937 731.355 431.877 733.981 431.509 C 735.702 431.268 736.259 430.159 737.438 429.04 C 738.879 427.671 739.676 424.301 741.883 423.607 C 744.583 422.758 750.067 425.367 753.241 426.077 C 755.77 426.642 757.866 425.899 759.661 427.558 C 762.116 429.826 765.378 437.095 765.093 440.892 C 764.848 444.174 762.79 446.951 759.661 449.287 C 758.775 449.949 757.554 450.699 756.143 451.457 C 764.43 455.251 775.588 464.634 779.909 469.535 Z M 688.979 510.633 C 688.981 510.614 688.982 510.596 688.984 510.577 C 688.98 510.574 688.977 510.571 688.973 510.568 C 688.975 510.589 688.977 510.611 688.979 510.633 Z M 881.147 389.038 C 882.871 388.742 885.203 389.131 887.169 389.788 C 887.468 389.517 887.768 389.266 888.061 389.038 C 890.134 387.431 893.084 386.235 895.963 386.075 C 899.124 385.9 904.646 387.059 906.334 388.544 C 907.482 389.555 907.632 391.033 907.321 392.495 C 907.105 393.51 906.574 394.836 905.738 396.086 C 908.36 396.117 910.609 396.767 913.087 398.755 C 919.535 403.927 925.682 422.029 929.878 432.83 C 933.633 442.495 936.069 449.048 937.78 460.486 C 940.018 475.452 942.51 506.44 939.755 516.784 C 938.273 522.349 936.833 523.446 932.347 526.167 C 925.235 530.482 906.391 534.566 895.803 536.044 C 887.171 537.25 879.163 538.005 873.086 536.044 C 872.566 535.876 872.058 535.698 871.561 535.509 C 868.628 536.546 863.566 536.274 860.406 535.217 C 857.131 534.122 854.81 532.477 852.01 528.797 C 848.799 524.576 844.724 517.749 841.728 509.621 C 839.193 512.103 836.346 514.481 833.738 515.463 C 830.204 516.793 825.624 516.827 822.874 515.463 C 820.301 514.187 818.341 510.793 817.441 508.055 C 816.553 505.353 817.181 501.457 817.441 499.166 C 817.631 497.489 818.466 496.417 818.429 495.215 C 818.396 494.134 817.178 493.482 817.441 492.252 C 817.847 490.358 821.395 486.43 822.874 484.844 C 823.838 483.809 825.502 483.724 825.343 482.869 C 825.095 481.536 819.07 479.537 817.441 477.437 C 816.069 475.667 815.271 473.346 815.466 471.51 C 815.654 469.733 818.829 468.194 818.429 466.572 C 817.932 464.559 812.156 462.696 810.527 460.646 C 809.256 459.045 808.38 457.369 808.552 455.707 C 808.737 453.914 810.555 451.217 812.009 450.275 C 813.265 449.461 816.065 450.35 816.454 449.781 C 816.746 449.352 815.369 448.67 815.466 447.806 C 815.615 446.48 817.159 443.316 818.923 442.374 C 820.837 441.351 823.859 441.069 826.824 442.374 C 829.332 443.476 832.645 446.152 835.787 449.302 C 835.882 446.509 836.024 443.996 836.207 441.88 C 836.965 433.137 838.759 428.021 841.146 423.113 C 843.112 419.071 846.732 415.418 848.554 413.73 C 849.584 412.775 849.629 413.197 851.023 412.249 C 854.239 410.06 866.607 401.482 869.789 398.421 C 871.399 396.872 870.934 396.204 872.258 394.964 C 874.173 393.172 878.038 389.571 881.147 389.038 Z M 852.075 496.155 C 853.11 500.509 854.407 504.446 855.961 508.055 C 856.075 508.32 856.191 508.587 856.309 508.855 C 855.647 504.608 854.956 500.639 853.826 498.018 C 853.458 497.165 853.042 496.461 852.597 495.849 C 852.419 495.933 852.245 496.034 852.075 496.155 Z M 811.021 370.272 C 813.716 371.141 814.712 372.386 816.453 374.717 C 818.895 377.985 822.047 384.297 823.367 389.532 C 824.703 394.826 825.749 401.521 824.355 406.323 C 823.055 410.8 820.429 415.225 815.96 417.681 C 810.356 420.761 797.648 421.567 791.267 420.644 C 786.408 419.942 782.363 418.797 779.909 415.212 C 776.845 410.735 775.658 399.834 776.946 393.483 C 777.092 392.765 777.3 392.043 777.558 391.323 C 776.978 391.098 776.433 390.831 775.958 390.52 C 773.047 388.617 771.134 382.486 768.55 380.149 C 766.484 378.28 763.532 378.513 762.13 376.692 C 760.665 374.789 759.806 371.087 760.155 368.79 C 760.473 366.7 761.628 364.045 763.612 363.358 C 766.175 362.47 771.513 366.321 775.464 366.321 C 779.415 366.321 783.701 362.023 787.317 363.358 C 789.591 364.197 792.529 366.975 794.852 370.053 C 798.391 369.015 807.436 369.117 811.021 370.272 Z M 733.981 164.832 C 736.151 164.056 740.226 165.249 743.364 167.301 C 744.304 167.915 745.233 168.842 746.16 169.941 C 746.896 168.26 747.925 166.744 749.13 165.659 C 751.016 163.963 753.383 163.05 756.538 162.696 C 760.749 162.225 769.474 161.815 772.835 164.672 C 775.6 167.022 777.037 172.961 776.956 177.092 C 778.63 177.645 780.167 178.439 780.897 179.153 C 782.129 180.359 782.385 181.911 781.884 184.092 C 781.052 187.717 777.186 197.258 772.501 199.401 C 767.612 201.637 758.108 198.775 752.747 196.438 C 748.001 194.368 744.902 191.039 741.389 187.055 C 740.868 186.464 740.302 185.806 739.71 185.101 C 738.399 187.733 735.565 190.739 732.993 192.487 C 729.58 194.807 722.854 197.5 720.153 196.438 C 717.94 195.567 716.542 191.303 716.696 189.03 C 716.843 186.879 721.316 184.669 720.647 183.104 C 719.81 181.144 710.992 181.204 708.795 179.153 C 707.129 177.599 706.585 175.11 706.82 173.227 C 707.057 171.321 708.254 169.251 710.276 167.795 C 712.99 165.84 718.62 163.72 723.116 163.844 C 725.669 163.915 729.158 164.829 732.215 165.988 C 732.75 165.456 733.364 165.053 733.981 164.832 Z M 856.455 284.343 C 859.929 282.931 865.138 285.327 866.826 286.812 C 867.974 287.822 868.338 288.815 867.814 290.763 C 867.584 291.618 866.921 292.709 865.999 293.961 C 869.341 293.847 874.082 294.083 876.543 296.035 C 879.625 298.48 880.68 306.792 881.975 308.875 C 882.582 309.851 882.945 309.27 883.457 310.356 C 884.329 312.209 886.49 318.131 887.277 323.071 C 887.383 323.164 887.48 323.259 887.567 323.356 C 889.126 325.091 889.408 328.097 888.555 331.258 C 887.306 335.888 882.359 345.367 877.197 348.543 C 872.22 351.604 864.027 351.853 858.43 350.518 C 856.463 350.049 854.456 349.125 852.542 347.976 C 851.894 348.647 851.217 349.186 850.529 349.53 C 846.907 351.341 838.808 350.215 836.207 348.049 C 834.042 346.245 834.011 341.434 834.232 339.16 C 834.397 337.457 836.969 336.254 836.207 335.209 C 834.931 333.457 823.145 334.504 820.404 332.246 C 818.418 330.609 817.993 327.605 818.429 325.332 C 818.909 322.825 821.057 319.766 823.861 317.924 C 827.303 315.663 833.99 314.143 838.677 313.973 C 838.859 313.966 839.043 313.963 839.229 313.963 C 839.724 309.749 840.048 306.735 842.134 302.615 C 844.936 297.079 851.713 286.269 856.455 284.343 Z M 222.356 311.998 C 225.967 310.857 231.057 310.888 234.208 311.998 C 236.956 312.965 238.785 313.991 240.628 317.43 C 243.825 323.396 248.766 342.603 247.542 350.024 C 246.709 355.077 242.774 357.959 240.134 360.395 C 237.947 362.413 236.545 363.557 233.221 364.346 C 231.598 364.731 229.367 365.027 226.886 365.198 C 228.081 368.488 229.013 372.533 228.776 374.717 C 228.509 377.171 227.175 378.978 225.319 380.149 C 223.151 381.516 218.959 381.125 215.936 381.63 C 213.041 382.114 209.564 384.514 207.541 383.112 C 205.046 381.384 206.736 370.819 203.59 369.284 C 200.163 367.612 190.072 376.197 186.799 375.21 C 184.509 374.52 182.886 371.385 183.342 368.79 C 184.01 364.991 191.591 357.73 195.688 354.469 C 196.014 354.209 196.337 353.958 196.658 353.714 C 195.556 350.153 195.55 345.706 196.182 342.123 C 197.053 337.188 200.947 331.206 203.59 327.801 C 205.627 325.177 208.471 324.011 210.01 322.369 C 211.181 321.119 211.121 320.21 212.479 318.912 C 214.54 316.942 218.72 313.146 222.356 311.998 Z M 518.664 470.029 C 522.269 469.424 524.635 471.854 528.047 472.498 C 531.815 473.21 536.805 473.541 540.393 473.98 C 543.396 474.347 545.174 473.581 548.295 474.967 C 551.641 476.454 557.234 479.536 561.448 483.398 C 561.916 482.845 562.472 482.328 563.11 481.881 C 565.969 479.88 571.341 478.384 576.938 477.93 C 584.062 477.354 599.619 477.812 603.112 480.4 C 605.047 481.833 604.62 484.301 604.099 486.326 C 603.482 488.726 601.257 492.084 598.667 493.734 C 595.822 495.546 588.07 493.7 587.309 496.203 C 586.337 499.396 598.801 509.908 599.161 513.981 C 599.384 516.502 597.138 518.267 595.704 519.414 C 594.441 520.423 591.766 519.804 591.259 520.895 C 590.691 522.119 593.469 524.939 593.235 526.821 C 592.997 528.727 592.191 531.39 589.778 532.254 C 585.799 533.678 570.97 531.088 567.555 528.797 C 566.213 527.897 565.758 526.727 565.622 525.484 C 563.666 529.739 561.292 533.628 559.159 536.204 C 555.965 540.061 552.657 541.756 548.295 543.118 C 543.329 544.669 536.989 545.562 530.516 544.106 C 522.608 542.327 510.481 536.09 504.342 530.772 C 499.318 526.419 496.323 521.734 494.465 515.957 C 492.453 509.698 491.99 500.456 493.478 494.227 C 494.813 488.637 497.888 483.864 501.873 479.906 C 506.122 475.686 513.9 470.828 518.664 470.029 Z M 178.897 264.589 C 181.068 263.813 186.228 264.194 188.281 267.058 C 191.359 271.354 192.379 285.688 190.256 293.726 C 188.169 301.626 182.236 311.356 175.934 314.961 C 170.032 318.338 159.033 317.159 154.205 315.949 C 151.001 315.146 149.186 313.221 147.785 311.504 C 146.583 310.031 145.638 308.227 145.81 306.566 C 145.972 304.997 146.83 302.62 148.499 301.521 C 147.944 299.165 147.994 296.451 148.613 293.566 C 149.789 288.087 155.337 277.39 158.49 274.306 C 160.349 272.487 161.598 272.505 163.922 272.33 C 167.074 272.093 173.489 271.687 176.236 274.275 C 175.871 272.579 175.142 271.466 175.44 270.021 C 175.837 268.099 177.055 265.247 178.897 264.589 Z M 548.629 370.606 C 548.675 370.332 548.695 370.047 548.693 369.753 C 548.59 370.301 548.494 370.857 548.4 371.424 C 548.5 371.173 548.579 370.904 548.629 370.606 Z M 403.438 465.424 C 404.221 467.42 405.489 469.713 407.074 472.194 C 405.395 467.696 403.723 463.445 402.088 459.777 C 402.26 461.545 402.648 463.411 403.438 465.424 Z" style="fill-opacity: 1; fill-rule: nonzero; stroke: rgb(5, 14, 26); stroke-dasharray: none; stroke-dashoffset: 0px; stroke-linecap: butt; stroke-linejoin: miter; stroke-miterlimit: 4; stroke-opacity: 1; stroke-width: 0px; paint-order: normal; vector-effect: none; opacity: 1; mix-blend-mode: normal; isolation: auto; fill: rgb(110, 66, 80);"/><path stroke="rgb(255,0,0)" stroke-width="0" opacity="0.9411764705882353" d="M 614.47 130.262 C 616.64 129.486 621.599 129.596 623.853 132.732 C 626.603 136.557 628.009 150.146 628.165 159.77 C 640.707 156.444 659.428 153.148 672.744 151.992 C 691.661 150.35 713.869 152.33 730.03 153.967 C 743.16 155.297 753.546 156.095 763.612 159.893 C 773.194 163.509 780.045 168.397 789.292 175.696 C 800.887 184.849 813.765 195.481 827.318 212.735 C 845.773 236.229 873.723 280.167 887.567 310.516 C 899.261 336.151 901.629 361.633 909.297 382.618 C 915.896 400.679 923.503 408.864 930.038 430.027 C 939.371 460.25 956.625 539.326 955.718 553.489 C 955.442 557.798 954.05 558.174 952.261 558.921 C 950.26 559.758 946.706 561.316 943.866 557.44 C 935.652 546.228 927.715 470.369 918.186 438.917 C 910.857 414.727 901.51 400.688 894.481 380.643 C 887.319 360.217 886.061 340.469 875.715 317.43 C 867.502 299.143 849.144 268.536 835.379 247.187 C 833.984 247.624 832.618 247.86 831.763 247.798 C 830.223 247.685 829.187 246.553 828.306 245.329 C 827.725 244.521 827.094 243.334 826.698 242.115 C 826.038 241.428 825.316 240.532 824.355 239.403 C 819.736 233.978 811.228 215.94 804.107 208.29 C 798.266 202.015 788.961 197.949 785.835 194.956 C 784.234 193.423 784.754 192.849 783.366 191.499 C 781.165 189.361 778.031 186.399 772.501 183.598 C 765.495 180.049 750.653 174.185 739.255 170.841 C 738.636 171.598 737.873 172.266 736.944 172.733 C 733.125 174.654 721.719 175.442 718.178 173.721 C 717.162 173.227 716.368 172.391 715.798 171.43 C 706.954 172.418 693.444 172.326 684.596 174.709 C 673.589 177.673 661.626 183.074 653.323 187.776 C 652.814 189.703 651.578 191.972 649.039 194.462 C 644.287 199.125 630.253 208.406 623.359 211.253 C 619.288 212.935 615.342 214.106 612.697 213.611 C 604.699 219.075 574.89 239.141 558.172 243.847 C 545.913 247.298 537.48 247.334 524.635 246.05 C 520.107 246.179 515.548 245.705 508.787 244.835 C 504.814 244.324 500.26 243.552 495.313 242.566 C 492.966 242.465 490.556 242.246 488.045 241.872 C 480.58 240.76 470.697 237.975 461.875 234.865 C 433.963 228.444 404.628 220.653 390.264 216.192 C 380.656 213.208 375.294 211.18 370.436 208.673 C 361.056 205.357 346.715 198.137 335.941 196.438 C 320.798 194.049 305.206 194.162 288.531 196.438 C 272.547 198.619 246.091 210.415 234.412 212.184 C 219.705 228.227 203.034 256.979 197.664 262.613 C 195.643 264.734 195.301 264.023 194.207 265.083 C 192.982 266.268 191.652 268.493 190.75 269.527 C 190.142 270.224 190.273 269.908 189.268 271.009 C 186.027 274.562 170.157 291.342 163.588 300.64 C 158.065 308.457 153.329 319.889 151.242 322.863 C 150.473 323.958 150.725 322.724 149.76 324.344 C 144.793 332.685 108.167 408.156 97.413 438.917 C 89.593 461.282 86.525 477.916 84.573 494.227 C 82.936 507.903 86.112 524.297 84.573 530.772 C 83.804 534.006 82.905 535.457 81.116 536.204 C 79.114 537.041 74.67 537.591 72.72 534.723 C 69.048 529.32 69.253 508.435 70.745 493.24 C 72.472 475.648 76.626 458.065 84.573 434.966 C 95.137 404.257 120.919 348.571 133.957 323.356 C 142.259 307.304 146.805 300.469 154.699 289.775 C 155.853 288.212 157.166 286.532 158.579 284.79 C 158.47 283.932 158.486 282.964 158.65 281.873 C 159.543 275.921 165.966 264.563 172.477 254.218 C 180.759 241.061 194.277 221.362 206.553 209.278 C 217.655 198.35 231.281 188.539 242.11 183.598 C 250.648 179.702 258.894 178.874 265.814 178.659 C 266.367 178.642 266.933 178.635 267.507 178.638 C 270.757 177.703 274.13 176.758 277.667 175.696 C 296.533 170.03 327.708 164.507 342.855 162.856 C 352.362 161.82 357.609 161.924 363.596 162.856 C 365.507 163.154 367.567 163.583 369.503 164.103 C 367.805 156.036 368.035 140.573 369.028 135.695 C 369.667 132.558 370.643 130.921 372.485 130.262 C 374.656 129.486 379.863 129.703 381.868 132.732 C 382.004 132.937 382.132 133.171 382.254 133.431 C 390.86 136.568 402.383 141.974 409.03 143.102 C 416.525 144.374 419.588 141.881 427.796 143.102 C 440.158 144.942 462.232 154.354 478.169 156.93 C 492.708 159.281 504.086 159.32 519.652 158.906 C 537.983 158.418 566.421 158.352 581.876 152.979 C 593.689 148.873 604.083 138.372 608.05 134.707 C 609.821 133.071 609.101 131.673 610.519 131.25 C 611.091 131.079 611.987 131.095 613.01 131.237 C 613.422 130.796 613.902 130.465 614.47 130.262 Z" style="fill-opacity: 1; fill-rule: nonzero; stroke: rgb(5, 14, 26); stroke-dasharray: none; stroke-dashoffset: 0px; stroke-linecap: butt; stroke-linejoin: miter; stroke-miterlimit: 4; stroke-opacity: 1; stroke-width: 5px; paint-order: normal; vector-effect: none; opacity: 1; mix-blend-mode: normal; isolation: auto; fill: rgb(158, 119, 103);"/><path fill="rgb(255,0,0)" stroke="rgb(255,0,0)" stroke-width="0" opacity="0.9450980392156862" d="M 394.477 150.928 C 400.11 148.726 439.96 160.825 445.332 159.029 C 447.235 158.393 444.753 156.371 446.683 155.429 C 452.16 152.752 480.791 152.768 498.888 153.629 C 518.059 154.54 552.643 157.731 558.743 161.279 C 559.394 161.658 559.623 162.154 559.675 162.669 C 560.827 161.897 560.242 161.221 561.079 160.481 C 562.331 159.374 566.556 157.832 566.943 157.105 C 567.107 156.796 566.54 156.717 566.588 156.394 C 566.666 155.859 567.285 154.387 568.187 154.084 C 569.379 153.683 572.83 154.489 573.695 155.328 C 574.321 155.935 574.134 157.075 574.051 157.816 C 573.978 158.459 573.347 158.943 573.339 159.538 C 577.174 157.5 581.162 155.483 584.396 154.529 C 592.164 152.236 602.777 153.056 607.798 150.928 C 611.1 149.529 611.664 146.078 614.099 145.528 C 616.597 144.963 620.9 145.805 622.65 147.778 C 622.797 147.944 622.946 148.133 623.094 148.343 C 624.022 148.483 624.943 148.877 625.582 149.642 C 627.208 151.589 628.383 159.085 628.07 161.369 C 628.044 161.558 628.009 161.735 627.966 161.902 C 628.548 162.831 628.524 164.038 628.05 164.88 C 626.981 166.778 621.196 168.942 616.799 169.83 C 611.676 170.865 607.623 168.675 598.797 169.83 C 583.115 171.883 542.133 184.739 524.99 186.932 C 514.275 188.302 512.674 187.479 501.588 186.932 C 483.262 186.027 442.283 184.208 419.68 179.731 C 406.979 177.215 391.481 172.893 382.149 169.174 C 380.976 169.426 379.186 169.201 377.637 168.745 C 377.551 168.822 377.464 168.885 377.376 168.93 C 376.33 169.467 372.969 168.55 372.425 167.58 C 372.245 167.26 372.241 166.718 372.355 166.131 C 371.478 165.555 370.761 164.994 370.414 164.568 C 369.885 163.919 369.919 163.408 370.058 162.791 C 370.225 162.056 370.451 161.41 371.657 160.481 C 374.245 158.489 383.708 153.431 388.716 152.307 C 390.669 151.869 391.875 151.706 393.282 151.771 C 393.572 151.421 393.964 151.129 394.477 150.928 Z M 595.197 164.43 C 600.932 163.403 606.847 162.275 612.037 161.46 C 607.101 161.805 601.402 162.158 596.097 163.53 C 593.716 164.146 591.143 164.949 588.426 165.881 C 590.791 165.306 593.053 164.814 595.197 164.43 Z M 611.849 156.329 C 611.933 156.388 612.154 156.394 612.461 156.357 C 612.335 155.994 612.226 155.637 612.135 155.298 C 611.835 155.758 611.665 156.2 611.849 156.329 Z M 484.936 159.029 C 484.811 159.084 489.297 159.765 494.755 160.525 C 494.781 160.475 494.808 160.426 494.837 160.379 C 494.929 160.229 495.054 160.079 495.208 159.931 C 489.502 159.381 485.044 158.982 484.936 159.029 Z M 522.74 163.53 C 523.178 163.861 526.326 163.677 526.34 163.53 C 526.35 163.432 524.992 162.979 523.931 162.742 C 523.502 162.85 523.042 162.956 522.553 163.06 C 522.553 163.244 522.615 163.435 522.74 163.53 Z" style="fill: rgb(5, 14, 26); fill-opacity: 1; fill-rule: nonzero; stroke: rgb(5, 14, 26); stroke-dasharray: none; stroke-dashoffset: 0px; stroke-linecap: butt; stroke-linejoin: miter; stroke-miterlimit: 4; stroke-opacity: 1; stroke-width: 0px; paint-order: normal; vector-effect: none; opacity: 1; mix-blend-mode: normal; isolation: auto;"/><path stroke="rgb(255,0,0)" stroke-width="0" opacity="0.9764705882352941" d="M 564.618 83.373 C 572.387 82.381 579.662 82.854 587.335 85.349 C 595.934 88.145 608.664 94.121 613.509 100.658 C 617.623 106.209 618.719 113.875 617.459 120.412 C 616.085 127.547 608.854 137.616 604.126 141.647 C 600.657 144.604 597.639 144.869 593.261 145.598 C 587.837 146.501 579.485 146.545 573.507 145.598 C 568.066 144.736 562.749 140.673 558.692 140.659 C 555.52 140.649 554.99 142.981 550.79 143.622 C 543.004 144.812 522.483 144.934 511.282 143.622 C 502.04 142.54 495.015 136.677 487.578 137.696 C 480.208 138.706 473.085 147.333 466.836 149.549 C 461.794 151.336 457.931 152.444 453.009 151.524 C 447.191 150.436 440.406 142.481 434.242 141.647 C 428.568 140.88 423.038 146.567 417.452 145.598 C 411.349 144.539 402.898 139.79 399.179 134.239 C 395.356 128.532 393.785 118.737 395.228 111.522 C 396.721 104.062 402.219 94.484 408.562 90.287 C 414.899 86.095 426.245 86.052 433.255 86.336 C 439.019 86.57 442.544 90.36 448.07 90.287 C 454.514 90.202 463.789 84.521 469.799 84.361 C 474.506 84.236 477.032 86.905 481.652 87.324 C 487.253 87.831 495.322 85.41 501.406 86.336 C 507.115 87.206 511.334 91.225 517.209 92.262 C 523.708 93.41 531.416 93.557 538.938 92.262 C 547.164 90.847 556.284 84.437 564.618 83.373 Z" style="fill-opacity: 1; fill-rule: nonzero; stroke: rgb(5, 14, 26); stroke-dasharray: none; stroke-dashoffset: 0px; stroke-linecap: butt; stroke-linejoin: miter; stroke-miterlimit: 4; stroke-opacity: 1; stroke-width: 5px; paint-order: normal; vector-effect: none; opacity: 1; mix-blend-mode: normal; isolation: auto; fill: rgb(5, 14, 26);"/><path stroke="rgb(255,0,0)" stroke-width="0" opacity="0.9294117647058824" d="M 428.784 68.999 C 431.917 68.313 437.391 68.837 440.142 71.258 C 443.429 74.147 441.589 86.019 445.575 87.063 C 450.352 88.314 462.221 74.929 469.279 72.612 C 474.718 70.827 480.416 69.749 484.095 71.708 C 487.938 73.757 486.135 83.165 491.502 85.257 C 499.33 88.306 526.831 76.078 533.479 78.934 C 537.552 80.685 534.09 89.046 537.43 89.772 C 542.317 90.835 556.833 77.317 565.086 74.418 C 571.616 72.125 579.186 69.744 582.864 71.708 C 586.238 73.511 584.18 83.033 587.309 84.353 C 590.595 85.739 597.715 79.793 602.618 78.934 C 607.062 78.156 612.742 77.051 615.458 78.934 C 618.172 80.816 619.218 87.439 618.915 90.224 C 618.695 92.246 614.857 93.724 615.952 94.74 C 618.046 96.682 637.637 93.289 645.089 95.191 C 650.916 96.679 656.189 99.729 658.423 102.869 C 660.279 105.478 660.004 109.455 659.41 111.9 C 658.911 113.956 658.197 115.404 655.953 116.868 C 653.673 118.355 647.686 118.576 643.072 119.634 C 642.537 120.423 641.888 121.059 641.138 121.373 C 640.454 121.659 639.424 121.712 638.307 121.611 C 638.064 121.819 637.854 122.044 637.681 122.286 C 634.95 126.125 640.523 134.982 639.656 139.898 C 638.927 144.037 637.466 148.476 634.224 150.285 C 630.673 152.267 622.318 151.214 618.421 150.285 C 615.523 149.594 613.159 145.975 612.001 146.672 C 610.637 147.495 613.028 154.12 612.001 157.059 C 611.057 159.759 609.916 162.316 606.569 163.833 C 601.513 166.124 587.847 166.793 580.889 165.639 C 575.215 164.699 570.637 158.775 567.061 159.317 C 563.998 159.781 563.373 165.01 560.147 166.542 C 556.431 168.307 549.36 169.841 545.332 168.349 C 541.285 166.849 537.885 158.062 535.949 157.51 C 535.011 157.243 534.981 158.002 533.973 158.865 C 531.805 160.723 527.177 167.671 522.615 170.155 C 518.106 172.609 511.637 175.434 506.812 173.768 C 501.085 171.79 496.788 156.503 491.502 155.704 C 486.869 155.004 481.624 164.181 477.181 165.639 C 473.684 166.787 469.702 166.907 467.304 165.639 C 464.987 164.414 464.744 158.998 462.859 158.414 C 461.197 157.898 458.512 159.884 456.933 161.123 C 455.413 162.317 455.851 164.625 453.476 165.639 C 449.438 167.362 435.031 168.978 430.759 166.542 C 427.398 164.625 429.381 156.66 426.809 155.704 C 424.174 154.726 419.195 160.212 414.956 161.123 C 410.645 162.049 404.177 162.864 401.129 161.123 C 398.364 159.544 400.004 153.329 396.684 152.091 C 391.98 150.338 375.979 159.572 371.498 157.51 C 368.114 155.953 368.002 149.124 368.041 146.221 C 368.069 144.11 371.169 142.526 370.016 141.254 C 368.049 139.082 351.867 140.914 348.287 138.092 C 345.668 136.028 345.654 131.932 346.312 129.061 C 347.002 126.047 351.044 122.023 352.732 120.48 C 353.706 119.59 355.036 119.728 355.201 119.125 C 355.365 118.524 354.629 117.826 353.719 116.868 C 352.153 115.218 346.764 112.244 345.324 110.093 C 344.278 108.532 344.012 107.081 344.336 105.578 C 344.693 103.919 345.216 101.494 347.793 100.611 C 352.42 99.024 370.042 106.935 375.448 103.32 C 380.723 99.793 377.132 82.832 380.387 79.838 C 382.403 77.982 385.772 78.838 388.289 79.838 C 391.25 81.013 395.567 86.023 396.684 87.514 C 397.18 88.176 396.723 88.919 397.178 88.87 C 398.152 88.763 401.346 82.644 404.092 81.644 C 406.667 80.706 410.511 83.119 412.981 82.547 C 415.184 82.037 416.913 80.326 418.413 78.934 C 419.85 77.601 420.35 75.936 421.87 74.418 C 423.663 72.628 425.942 69.622 428.784 68.999 Z M 474.712 84.353 C 470.645 84.667 456.781 98.144 450.019 100.611 C 445.376 102.304 441.193 103.381 438.167 101.513 C 434.512 99.258 434.806 86.184 431.253 85.257 C 427.814 84.359 421.288 93.841 417.425 95.191 C 414.767 96.121 412.632 94.185 410.512 95.191 C 409.02 95.9 407.966 98.15 406.748 100.129 C 409.218 100.556 411.466 101.244 412.487 102.113 C 413.673 103.122 413.731 104.66 413.475 106.064 C 413.167 107.75 412.04 110.252 410.018 111.496 C 408.488 112.437 405.296 112.224 402.469 112.301 C 400.868 114.27 398.183 116.355 398.659 118.41 C 399.508 122.075 408.972 127.508 412.487 129.768 C 414.752 131.225 415.706 132.307 417.919 132.238 C 420.84 132.146 424.505 128.317 428.784 127.299 C 433.805 126.105 442.792 123.973 446.562 126.311 C 449.963 128.421 448.579 138.266 451.501 139.152 C 454.639 140.103 460.444 131.713 465.329 130.262 C 470.014 128.871 476.463 129.718 480.144 130.262 C 482.75 130.648 483.18 131.903 486.07 132.238 C 490.831 132.788 502.532 129.963 507.799 131.25 C 511.659 132.193 514.355 136.879 516.195 136.682 C 517.501 136.542 516.654 134.111 518.664 133.225 C 523.097 131.272 543.288 131.475 549.282 131.25 C 552.388 131.134 552.915 131.25 555.209 131.25 C 558.022 131.25 561.394 130.076 565.086 131.25 C 569.981 132.807 576.578 142.209 581.876 142.115 C 586.92 142.025 593.264 134.962 596.198 131.744 C 598.256 129.486 597.483 126.751 599.655 125.324 C 602.432 123.499 610.557 126.046 612.989 123.348 C 615.55 120.507 612.371 111.782 613.976 108.039 C 613.985 108.019 613.993 107.999 614.002 107.98 C 604.389 109.001 594.871 109.819 591.259 108.739 C 587.681 107.668 586.604 104.62 586.321 103.32 C 586.149 102.532 587.658 102.029 587.309 101.513 C 586.749 100.688 582.418 101.464 580.395 99.707 C 577.524 97.215 578.042 86.305 573.481 85.257 C 567.493 83.88 552.308 97.726 543.85 100.611 C 537.437 102.797 530.483 105.145 527.059 103.32 C 523.947 101.661 527.245 93.423 523.109 91.579 C 516.702 88.722 490.624 100.503 483.601 97.9 C 479.091 96.23 479.399 89.338 477.675 87.063 C 476.587 85.627 476.552 84.211 474.712 84.353 Z" style="fill-opacity: 1; fill-rule: nonzero; stroke: rgb(5, 14, 26); stroke-dasharray: none; stroke-dashoffset: 0px; stroke-linecap: butt; stroke-linejoin: miter; stroke-miterlimit: 4; stroke-opacity: 1; stroke-width: 5px; opacity: 1; mix-blend-mode: normal; isolation: auto; transform-box: fill-box; transform-origin: 50% 50%; paint-order: fill; fill: rgb(158, 119, 103);" transform="matrix(0.999694, -0.024721, 0.024721, 0.999694, 0, 0)"/></svg>