<?xml version="1.0" encoding="utf-8"?>
<svg xmlns="http://www.w3.org/2000/svg" viewBox="0 0 280 400" width="280px" height="400px" xmlns:bx="https://boxy-svg.com"><defs><bx:export><bx:file format="svg"/></bx:export></defs><path fill="rgb(255,0,0)" stroke="rgb(255,0,0)" stroke-width="0" opacity="0.9803921568627451" d="M 58.036 379.847 C 75.387 379.578 94.746 380.644 110.92 380.613 C 111.599 380.612 112.279 380.608 112.96 380.603 C 112.845 379.829 112.8 379.16 112.836 378.697 C 112.941 377.359 113.598 377.24 114.752 376.015 C 116.91 373.723 124.474 367.959 126.632 365.668 C 127.786 364.442 127.814 363.7 128.548 362.985 C 129.231 362.319 129.651 361.571 130.847 361.452 C 132.843 361.254 138.368 362.832 140.427 364.135 C 141.909 365.073 142.094 366.742 143.11 367.584 C 144.032 368.348 144.661 368.25 146.175 369.117 C 148.97 370.716 157.494 374.452 159.588 377.547 C 160.248 378.523 160.595 379.663 160.729 380.792 C 162.92 381.073 165.236 381.32 168.402 381.38 C 178.696 381.576 198.759 379.578 208.256 379.847 C 214.483 380.023 216.559 381.182 222.052 381.38 C 229.036 381.631 238.744 380.135 247.344 380.613 C 256.232 381.107 270.917 381.38 274.552 384.445 C 276.694 386.251 275.932 389.88 275.319 391.726 C 274.797 393.296 274.059 394.428 271.87 395.175 C 267.799 396.565 256.293 395.582 248.877 395.175 C 241.75 394.784 235.238 393.141 228.183 392.876 C 220.94 392.603 213.285 393.776 205.957 393.642 C 198.725 393.51 192.72 392.198 184.497 392.11 C 174.562 392.003 161.348 393.652 150.008 393.642 C 138.871 393.633 125.559 391.913 117.051 392.11 C 110.904 392.251 108.931 393.476 102.489 393.642 C 92.945 393.888 77.65 392.274 63.401 392.11 C 47.325 391.924 17.936 396.682 10.518 392.876 C 6.79 390.963 7.169 385.858 7.069 384.062 C 7.014 383.086 6.618 382.692 7.835 382.146 C 12.2 380.188 41.036 380.11 58.036 379.847 Z" style="fill: rgb(250, 160, 50); fill-opacity: 1; fill-rule: nonzero; stroke: rgb(5, 14, 26); stroke-dasharray: none; stroke-dashoffset: 0px; stroke-linecap: butt; stroke-linejoin: miter; stroke-miterlimit: 4; stroke-opacity: 1; stroke-width: 5px; paint-order: normal; vector-effect: none; opacity: 1; mix-blend-mode: normal; isolation: auto;"/></svg>