<?xml version="1.0" encoding="utf-8"?>
<svg xmlns="http://www.w3.org/2000/svg" viewBox="0 0 280 400" width="280px" height="400px" xmlns:bx="https://boxy-svg.com"><defs><bx:export><bx:file format="svg"/></bx:export></defs><path fill="rgb(255,0,0)" stroke="rgb(255,0,0)" stroke-width="0" opacity="0.9529411764705882" d="M 21.814 70.092 C 21.82 83.157 18.496 90.515 18.073 103.419 C 17.555 119.192 21.147 149.741 20.21 158.784 C 19.806 162.691 18.53 161.913 18.073 165.234 C 17.257 171.17 17.759 185.367 18.073 194.261 C 18.354 202.235 19.559 208.55 19.677 216.299 C 19.801 224.615 18.47 232.543 18.608 242.638 C 18.774 254.864 21.281 266.972 21.279 285.103 C 21.276 308.807 16.14 365.594 15.896 382.407 C 22.054 382.167 29.866 382.519 35.975 382.664 C 46.335 382.911 55.727 384.861 68.04 385.352 C 82.94 385.946 103.844 386.075 119.877 385.352 C 134.444 384.695 142.797 382.079 160.492 381.589 C 184.584 380.922 244.268 384.575 260.958 384.368 C 260.391 374.47 260.985 359.781 261.228 352.831 C 261.453 346.349 262.788 344.467 262.831 338.318 C 262.892 329.753 259.695 312.018 260.159 304.992 C 260.425 300.959 261.83 300.361 262.297 296.929 C 262.936 292.231 263.037 285.266 262.831 278.653 C 262.601 271.244 260.818 266.03 260.694 254.464 C 260.485 235.178 265.002 186.528 264.969 167.384 C 264.949 156.014 263.385 152.73 263.365 143.733 C 263.341 132.965 266.099 115.094 265.503 106.644 C 265.128 101.339 263.341 100.078 262.831 95.356 C 262.146 89.02 261.914 75.632 262.831 71.167 C 262.851 71.07 262.871 70.975 262.892 70.883 C 261.678 61.239 262.306 42.054 262.831 33.54 C 263.262 26.536 267.529 20.021 265.503 17.683 C 264.277 16.267 260.355 17.459 256.934 18.258 C 256.692 18.433 256.433 18.6 256.151 18.758 C 252.34 20.895 243.099 21.406 235.309 21.983 C 226.286 22.652 211.983 22.971 204.848 21.983 C 200.161 21.334 199.191 19.391 194.694 18.758 C 188.25 17.85 176.012 18.519 168.508 18.758 C 164.742 18.878 162.032 19.328 159.011 19.614 C 157.616 22.084 154.728 24.567 153.545 25.746 C 152.735 26.552 152.509 26.134 151.675 27.09 C 149.884 29.141 145.912 38.427 143.391 40.259 C 141.88 41.357 140.521 41.132 139.116 40.797 C 137.577 40.429 136.591 39.662 134.573 37.84 C 130.899 34.522 121.098 24.103 118.541 19.564 C 117.764 18.184 117.311 17.009 117.08 15.944 C 112.964 15.833 109.841 15.959 106.517 16.608 C 102.75 17.343 100.214 19.703 96.364 20.371 C 91.979 21.131 83.772 20.673 81.4 20.371 C 80.409 20.244 80.646 19.796 79.796 19.833 C 78.142 19.906 75.05 21.991 71.246 22.521 C 65.753 23.285 53.512 22.923 48.801 22.521 C 46.127 22.292 45.859 21.613 43.458 21.446 C 39.86 21.195 33.77 22.208 28.494 21.983 C 25.553 21.858 21.846 21.628 18.416 21.262 C 20.702 34.728 21.808 57.658 21.814 70.092 Z M 249.738 5.857 C 250.69 5.09 251.192 5.02 252.944 4.782 C 256.378 4.317 267.421 4.079 271.114 4.782 C 273.214 5.182 273.984 5.558 275.123 6.664 C 276.467 7.968 277.744 10.152 278.329 12.577 C 279.033 15.5 278.733 19.609 278.329 23.327 C 277.898 27.295 276.196 30.025 275.656 35.69 C 274.855 44.112 277.091 64.932 275.803 72.09 C 276.357 76.786 275.21 86.624 275.656 93.206 C 276.113 99.924 278.048 104.565 278.329 112.557 C 278.705 123.24 276.184 140.928 276.191 152.871 C 276.197 163.108 277.822 167.718 277.794 180.285 C 277.751 199.987 273.413 244.724 273.519 264.677 C 273.589 277.608 276.003 285.477 275.656 293.166 C 275.391 299.069 273.309 300.957 272.985 307.679 C 272.475 318.25 276.505 347.141 275.656 353.369 C 275.35 355.623 274.433 354.495 274.054 356.594 C 273.124 361.737 275.57 384.433 274.054 390.458 C 273.285 393.511 271.934 394.677 270.58 395.565 C 269.297 396.57 268.424 396.82 265.77 397.178 C 260.489 397.889 249.904 397.423 237.447 397.178 C 219.07 396.816 183.352 393.995 162.63 394.49 C 146.292 394.88 136.443 397.59 121.481 398.253 C 104.7 398.996 78.531 399.005 66.436 398.253 C 59.225 397.804 58.17 396.58 51.473 396.102 C 41.426 395.385 16.425 397.167 9.789 395.565 C 7 394.891 6.245 393.983 5.379 392.792 C 5.131 392.553 4.906 392.31 4.713 392.071 C 3.754 390.885 3.463 390.14 3.109 387.771 C 2.415 383.126 2.58 370.548 3.109 363.045 C 3.581 356.367 5.03 353.874 5.782 344.769 C 7.107 328.705 8.958 286.233 8.453 268.44 C 8.132 257.08 6.224 251.911 5.782 243.713 C 5.343 235.607 5.551 226.569 5.782 219.525 C 5.976 213.61 7.084 208.162 6.85 203.936 C 6.67 200.668 5.585 199.84 5.247 195.873 C 4.668 189.067 4.424 170.629 5.247 164.159 C 5.705 160.562 6.98 160.083 7.384 157.171 C 7.917 153.341 7.55 149.491 7.384 142.658 C 7.114 131.497 4.799 107.875 5.247 93.206 C 5.634 80.572 9.193 70.454 8.988 59.341 C 8.786 48.422 4.826 35.054 4.178 27.09 C 3.739 21.686 3.388 17.681 4.178 14.727 C 4.309 14.237 4.479 13.779 4.676 13.353 C 4.647 12.892 4.659 12.445 4.713 12.039 C 4.905 10.588 5.292 8.913 6.85 8.008 C 9.235 6.623 14.907 6.864 19.943 6.932 C 26.074 7.016 36.756 9.213 41.319 9.083 C 43.956 9.007 44.949 7.903 46.664 8.008 C 48.329 8.109 49.072 9.281 51.473 9.62 C 55.567 10.198 68.106 9.993 70.711 9.62 C 71.635 9.488 71.689 9.358 72.048 9.083 C 72.397 8.815 72.204 8.305 72.85 8.008 C 74.306 7.337 79.464 7.034 83.004 6.932 C 86.749 6.824 92 7.951 94.76 7.47 C 96.626 7.145 97.986 6.112 98.769 5.589 C 99.222 5.285 98.861 5.028 99.57 4.782 C 101.798 4.012 111.139 3.086 119.342 3.17 C 130.457 3.283 148.225 6.528 161.561 6.932 C 173.954 7.308 188.687 4.979 196.832 5.857 C 202.063 6.422 203.287 8.463 208.054 9.083 C 214.531 9.924 225.271 9.581 233.172 9.083 C 238.141 8.77 244.145 7.568 248.708 6.878 C 249.055 6.473 249.41 6.122 249.738 5.857 Z" style="fill: rgb(250, 160, 50); fill-opacity: 1; fill-rule: nonzero; stroke: rgb(5, 14, 26); stroke-dasharray: none; stroke-dashoffset: 0px; stroke-linecap: butt; stroke-linejoin: miter; stroke-miterlimit: 4; stroke-opacity: 1; stroke-width: 5px; paint-order: normal; vector-effect: none; opacity: 1; mix-blend-mode: normal; isolation: auto;"/></svg>