<?xml version="1.0" encoding="utf-8"?>
<svg xmlns="http://www.w3.org/2000/svg" viewBox="0 0 1800 1080" xmlns:bx="https://boxy-svg.com" width="1800px" height="1080px"><defs><bx:export><bx:file format="svg"/></bx:export></defs><path stroke="rgb(255,0,0)" opacity="0.9333333333333333" d="M 862.483 37.679 C 893.971 35.103 958.382 50.247 983.459 49.123 C 997.51 48.493 1004.407 39.655 1011.251 42.583 C 1017.881 45.42 1017.41 59.196 1024.33 65.471 C 1032.342 72.736 1044.201 78.387 1058.661 81.819 C 1077.158 86.21 1103.885 88.569 1128.959 85.089 C 1157.368 81.146 1189.855 60.501 1220.509 55.662 C 1250.35 50.952 1289.538 52.165 1310.424 55.662 C 1324.166 57.963 1329.661 64.788 1339.851 67.106 C 1350.092 69.435 1366.359 68.105 1371.73 69.558 C 1374.239 70.237 1373.052 71.838 1375.817 72.01 C 1382.917 72.452 1407.797 62.511 1424.862 60.567 C 1442.614 58.543 1465.075 58.327 1480.446 60.567 C 1492.858 62.375 1500.434 68.694 1511.507 70.375 C 1523.235 72.157 1535.959 72.489 1549.108 70.375 C 1563.617 68.044 1580.78 57.949 1594.883 55.662 C 1607.209 53.663 1617.113 54.021 1629.215 55.662 C 1642.581 57.475 1658.677 60.361 1671.72 67.106 C 1685.18 74.066 1698.905 84.723 1708.504 97.35 C 1718.443 110.424 1725.665 125.59 1729.756 144.76 C 1734.739 168.104 1734.658 210.046 1731.391 229.771 C 1729.236 242.783 1721.847 247.983 1719.947 257.563 C 1718.064 267.061 1717.191 274.75 1719.947 286.99 C 1723.948 304.756 1743.663 328.869 1749.374 355.652 C 1756.031 386.871 1755.836 440.054 1752.644 465.185 C 1750.594 481.319 1743.183 487.042 1741.2 499.517 C 1739.053 513.022 1738.629 528.959 1741.2 543.657 C 1743.872 558.932 1754.415 571.998 1757.548 589.432 C 1761.147 609.451 1762.084 638.517 1759.183 658.094 C 1756.734 674.622 1747.11 687.182 1744.47 700.6 C 1742.099 712.649 1740.652 719.76 1742.835 734.931 C 1746.192 758.265 1766.585 799.463 1772.262 831.386 C 1777.726 862.115 1779.537 899.641 1777.166 922.936 C 1775.45 939.798 1767.808 946.835 1765.722 962.172 C 1763.205 980.68 1762.445 1006.297 1765.722 1027.564 C 1768.994 1048.8 1787.919 1080.979 1785.34 1089.688 C 1784.057 1094.022 1778.32 1096.175 1774.714 1093.775 C 1774.18 1093.42 1773.624 1092.913 1773.049 1092.27 C 1770.727 1094.451 1766.421 1095.89 1763.27 1093.775 C 1756.623 1089.311 1747.064 1067.075 1742.835 1047.182 C 1737.261 1020.969 1735.247 966.531 1739.565 945.823 C 1742.084 933.743 1749.891 931.688 1752.644 922.936 C 1755.65 913.377 1756.313 902.838 1755.913 890.239 C 1755.424 874.807 1752.783 855.514 1747.739 836.29 C 1742.011 814.458 1726.231 792.737 1721.582 765.993 C 1716.271 735.439 1717.741 682.053 1721.582 661.364 C 1723.692 649.998 1729.177 649.176 1731.391 640.111 C 1734.29 628.246 1736.869 606.457 1734.661 594.336 C 1732.913 584.741 1725.882 583.659 1723.217 571.449 C 1718.448 549.602 1715.115 480.636 1719.947 461.916 C 1722.326 452.698 1728.997 455.34 1731.391 447.202 C 1735.424 433.492 1736.451 401.774 1731.391 378.54 C 1725.902 353.335 1702.869 323.86 1697.06 301.703 C 1692.501 284.318 1693.234 269.229 1693.79 255.928 C 1694.258 244.732 1695.679 234.984 1698.695 226.501 C 1701.399 218.895 1708.287 213.626 1710.138 206.883 C 1711.884 200.524 1710.699 195.048 1710.138 187.265 C 1709.421 177.311 1709.914 163.394 1705.234 151.299 C 1699.91 137.54 1682.952 115.073 1677.442 109.611 C 1675.168 107.357 1674.202 108.915 1672.537 107.159 C 1669.887 104.362 1670.86 95.775 1664.363 91.628 C 1654.806 85.527 1617.915 86.572 1602.866 82.149 C 1596.794 87.938 1576.458 93.555 1562.187 96.533 C 1545.742 99.963 1522.957 102.272 1508.238 99.802 C 1496.272 97.795 1490.987 89.153 1478.811 86.724 C 1463.487 83.666 1436.624 83.582 1421.592 86.724 C 1412.476 88.629 1406.998 94.111 1400.136 97.52 C 1399.707 98.576 1399.225 99.379 1398.705 99.802 C 1397.428 100.84 1394.774 100.812 1392.388 100.096 C 1381.674 102.212 1371.445 101.624 1356.199 99.802 C 1333.593 97.101 1293.064 83.098 1267.919 80.184 C 1247.717 77.844 1232.43 76.688 1215.604 80.184 C 1198.633 83.711 1185.808 96.544 1166.56 101.437 C 1148.441 106.043 1114.223 111.439 1096.336 111.079 C 1095.692 112.674 1094.51 113.959 1092.993 114.516 C 1091.207 115.172 1087.314 114.633 1082.463 113.419 C 1070.163 123.825 1034.883 142.875 1004.712 150.482 C 965.616 160.34 897.412 159.461 862.483 158.656 C 838.727 158.109 827.623 157.944 808.533 152.117 C 788.038 145.86 750.615 129.788 739.601 119.433 C 729.312 118.06 716.408 114.778 711.34 111.758 C 696.126 112.01 681.172 111.302 672.843 109.611 C 672.309 109.503 671.808 109.382 671.338 109.25 C 655.111 109.006 628.533 105.565 610.415 102.263 C 606.878 102.208 603.642 101.969 600.911 101.437 C 589.817 99.277 586.018 92.699 574.754 89.993 C 559.689 86.375 535.217 83.195 515.9 85.089 C 496.524 86.988 478.226 98.164 458.681 101.437 C 438.997 104.734 413.811 107.482 398.193 104.707 C 386.289 102.592 385.519 94.772 370.401 91.628 C 342.229 85.771 259.965 84.448 224.901 86.724 C 201.456 88.245 186.146 90.803 172.587 96.533 C 161.587 101.181 155.357 105.776 147.247 115.333 C 136.583 127.9 125.577 164.834 117.003 170.1 C 116.293 170.536 115.541 170.862 114.771 171.089 C 114.344 194.418 117.934 238.592 112.916 255.928 C 108.699 270.5 97.66 274.243 93.298 285.355 C 88.726 297.002 87.266 308.657 86.759 324.59 C 86.098 345.354 92.129 372.848 93.298 401.427 C 94.652 434.508 99.45 490.404 93.298 512.595 C 89.691 525.607 79.896 532.585 76.133 536.3 C 74.312 538.098 73.492 537.063 72.046 538.752 C 69.569 541.645 65.653 547.342 63.871 555.101 C 61.192 566.77 58.144 592.717 62.237 605.78 C 65.615 616.565 77.755 617.505 81.854 630.302 C 88.144 649.937 84.282 694.987 83.489 721.853 C 82.817 744.643 82.902 766.765 78.585 782.341 C 75.266 794.316 67.159 799.097 63.871 810.133 C 60.043 822.987 56.978 841.35 58.967 855.908 C 60.92 870.207 72.289 882.311 75.315 896.779 C 78.433 911.686 79.266 927.641 76.95 944.188 C 74.918 958.713 66.577 973.957 61.768 989.569 C 61.494 992.09 61.035 994.109 60.2 995.23 C 59.701 997.284 59.283 999.343 58.967 1001.407 C 55.906 1021.428 57.815 1046.315 58.967 1063.531 C 59.879 1077.165 66.693 1092.644 63.871 1097.862 C 62.095 1101.147 56.03 1102.34 53.245 1100.314 C 52.157 1099.522 51.23 1098.11 50.428 1096.228 C 49.862 1103.29 48.507 1110.027 46.706 1111.758 C 44.34 1114.032 38.04 1112.578 36.079 1109.306 C 33.878 1105.631 34.184 1091.866 35.897 1083.035 C 34.682 1082.322 33.587 1081.257 32.81 1079.879 C 27.273 1070.066 29.893 1021.58 32.81 996.503 C 35.405 974.191 44.962 953.272 47.523 936.014 C 49.58 922.151 50.899 913.543 49.158 900.048 C 47.053 883.724 35.07 858.897 32.81 844.464 C 31.207 834.232 31.133 831.545 32.81 819.942 C 35.645 800.32 51.699 760.238 55.697 731.661 C 59.462 704.75 60.1 673.256 57.332 653.19 C 55.301 638.468 48.161 632.088 45.888 618.859 C 43.221 603.335 41.785 585.523 44.254 564.909 C 47.298 539.484 63.441 505.207 67.141 476.629 C 70.625 449.719 67.362 427.142 67.141 398.158 C 66.888 364.838 60.211 315.05 65.506 286.99 C 69.413 266.291 82.817 257.327 86.759 239.58 C 91.082 220.119 84.127 195.102 88.394 174.187 C 92.629 153.427 108.22 121.24 112.099 114.516 C 113.306 112.423 113.35 113.367 114.551 112.063 C 116.776 109.647 118.084 104.587 125.177 99.802 C 139.527 90.123 177.162 69.05 211.823 62.201 C 253.573 53.952 322.217 58.116 362.227 62.201 C 392.574 65.3 412.027 79.288 435.794 78.55 C 458.848 77.833 479.199 62.532 502.821 58.932 C 527.573 55.16 561.633 53.651 581.293 57.297 C 595.663 59.962 597.008 67.984 613.989 72.01 C 643.775 79.072 738.341 87.883 759.489 85.089 C 767.741 83.998 768.289 82.704 771.75 78.55 C 776.443 72.916 776.108 54.61 782.376 50.758 C 788.198 47.179 796.642 55.002 806.899 54.027 C 821.314 52.657 839.068 39.595 862.483 37.679 Z M 1750.83 972.915 C 1751.175 967.857 1751.604 963.053 1752.089 958.666 C 1751.389 963.02 1750.999 967.861 1750.83 972.915 Z" style="fill-opacity: 1; fill-rule: nonzero; stroke: rgb(5, 14, 26); stroke-dasharray: none; stroke-dashoffset: 0px; stroke-linecap: butt; stroke-linejoin: miter; stroke-miterlimit: 4; stroke-opacity: 1; paint-order: normal; vector-effect: none; opacity: 1; mix-blend-mode: normal; isolation: auto; stroke-width: 5px; fill: rgb(158, 119, 103);"><title>edge</title></path><path stroke="rgb(255,0,0)" stroke-width="0" opacity="0.9686274509803922" d="M 803.629 34.409 C 813.013 29.41 849.499 33.666 884.674 37.264 C 884.283 34.344 884.27 31.644 884.553 30.322 C 884.883 28.777 885.636 28.171 887.005 27.87 C 889.169 27.395 895.157 28.504 897.631 30.322 C 899.862 31.961 898.445 35.887 901.718 37.679 C 902.905 38.329 904.605 38.895 906.659 39.375 C 916.874 40.254 926.398 40.874 934.415 40.949 C 935.489 40.959 936.577 40.959 937.675 40.95 C 937.678 40.95 937.681 40.949 937.684 40.949 C 949.373 39.851 960.65 32.746 972.016 31.14 C 982.988 29.589 999.669 27.798 1004.712 31.14 C 1006.195 32.123 1007.424 33.787 1008.053 35.595 C 1018.484 35.067 1026.715 35.414 1030.869 37.679 C 1036.931 40.984 1035.831 48.538 1034.956 53.21 C 1034.101 57.78 1031.683 61.345 1025.965 65.471 C 1016.3 72.444 991.613 83.203 973.65 86.724 C 955.906 90.201 926.414 81.827 918.884 86.724 C 914.608 89.504 919.397 97.798 916.432 99.802 C 913.016 102.111 900.301 100.017 897.631 97.35 C 895.651 95.371 899.324 89.95 897.631 88.359 C 895.714 86.557 890.77 88.654 885.37 88.359 C 882.944 88.226 879.766 88.114 876.279 87.949 C 876.652 91.425 874.57 95.05 872.291 96.533 C 868.251 99.161 853.008 95.382 848.587 94.08 C 846.264 93.397 847.368 92.728 844.499 91.628 C 838.379 89.281 810.515 86.224 795.483 81.119 C 791.093 81.661 784.85 80.479 783.194 77.732 C 780.571 73.382 784.988 56.844 788.915 52.392 C 791.864 49.05 798.696 51.91 801.177 49.123 C 803.823 46.15 797.651 37.595 803.629 34.409 Z" style="fill-opacity: 1; fill-rule: nonzero; stroke: rgb(5, 14, 26); stroke-dasharray: none; stroke-dashoffset: 0px; stroke-linecap: butt; stroke-linejoin: miter; stroke-miterlimit: 4; stroke-opacity: 1; stroke-width: 5px; paint-order: normal; vector-effect: none; opacity: 1; mix-blend-mode: normal; isolation: auto; fill: rgb(5, 14, 26);"><title>underrim</title></path><path stroke="rgb(255,0,0)" stroke-width="0" opacity="0.9137254901960784" d="M 996.538 9.887 C 1000.155 8.584 1009.194 9.933 1012.069 12.339 C 1014.401 14.291 1011.371 19.847 1014.521 21.331 C 1020.151 23.982 1047.908 11.649 1053.757 14.791 C 1057.439 16.77 1056.452 24.396 1056.209 27.053 C 1056.061 28.677 1054.099 29.048 1054.574 30.322 C 1055.39 32.506 1064.45 34.683 1066.018 38.496 C 1067.657 42.483 1066.455 51.355 1063.566 54.027 C 1060.814 56.572 1051.436 52.189 1049.67 54.845 C 1047.685 57.829 1056.756 69.447 1054.574 72.828 C 1052.455 76.112 1042.601 76.527 1037.409 75.28 C 1032.256 74.043 1026.343 63.902 1023.513 65.471 C 1020.144 67.338 1025.375 88.105 1021.06 91.628 C 1017.138 94.831 1004.971 86.318 1000.625 88.359 C 997.04 90.042 998.489 98.463 994.903 99.802 C 990.43 101.474 977.954 92.19 973.651 93.263 C 970.767 93.982 971.732 98.203 968.746 99.802 C 964.22 102.226 950.134 104.701 945.859 103.072 C 943.103 102.022 943.407 97.048 941.771 96.533 C 940.345 96.083 938.546 97.463 936.867 98.985 C 934.502 101.129 933.151 108.499 929.51 109.611 C 925.345 110.884 915.163 106.72 912.345 103.889 C 910.359 101.895 911.73 97.024 910.71 96.533 C 909.911 96.148 908.648 97.772 907.44 98.985 C 905.761 100.672 904.746 105.243 901.718 106.342 C 897.837 107.749 888.055 105.838 884.553 103.889 C 882.112 102.531 883.361 99.08 880.466 98.167 C 875.194 96.506 854.994 105.157 849.404 103.072 C 845.936 101.779 847.473 95.793 844.499 94.898 C 840.447 93.678 828.942 103.444 824.882 101.437 C 821.121 99.578 823.999 86.798 819.977 85.089 C 815.188 83.054 799.48 96.429 795.455 94.898 C 792.713 93.855 796.221 87.315 793.003 85.089 C 787.652 81.387 761.09 87.051 757.036 82.637 C 754.177 79.522 762.779 71.231 760.306 67.923 C 757.202 63.771 736.843 66.838 734.149 63.019 C 732.131 60.158 735.01 53.063 738.236 50.758 C 741.985 48.079 756.261 52.199 757.036 49.94 C 757.825 47.64 743.908 41.292 742.323 36.862 C 741.071 33.364 741.427 27.613 744.775 26.235 C 750.411 23.917 776.999 41.132 783.194 37.679 C 788.012 34.993 782.662 18.887 785.646 16.426 C 787.924 14.547 793.826 16.392 796.272 18.879 C 799.128 21.781 798.902 33.569 800.359 34.409 C 801.149 34.864 801.864 33.529 802.811 31.957 C 804.729 28.777 805.809 15.064 810.168 13.157 C 814.528 11.249 825.962 17.353 828.969 20.513 C 830.996 22.644 828.862 26.12 830.603 27.87 C 832.694 29.972 839.216 32.528 842.047 31.14 C 845.092 29.647 844.305 20.805 847.769 18.061 C 851.455 15.142 861.016 12.703 864.117 14.791 C 867.083 16.789 862.767 28.045 866.57 29.505 C 872.226 31.677 896.022 10.948 903.353 13.157 C 908.867 14.818 907.982 30.602 911.527 31.14 C 915.068 31.677 919.951 18.122 924.606 16.426 C 928.488 15.012 934.142 16.464 936.867 18.879 C 939.628 21.325 937.96 30.654 940.954 31.14 C 945.024 31.8 956.087 15.626 962.207 13.157 C 966.495 11.426 971.294 11.068 973.651 13.157 C 976.27 15.479 973.5 26.895 976.103 27.87 C 978.918 28.925 987.279 20.593 990.816 17.244 C 993.526 14.678 993.604 10.944 996.538 9.887 Z M 998.99 31.14 C 996.81 30.548 993.79 39.151 989.181 40.949 C 983.551 43.145 970.284 42.728 966.294 40.949 C 963.975 39.915 964.874 36.266 963.024 36.044 C 960.306 35.718 954.924 42.814 949.946 44.218 C 944.651 45.711 935.817 45.64 931.963 44.218 C 929.329 43.247 928.956 39.217 927.058 39.314 C 924.73 39.433 922.638 46.413 918.884 47.488 C 914.375 48.779 903.645 45.954 900.901 44.218 C 899.459 43.307 900.042 42.349 899.266 40.949 C 898.128 38.893 896.461 33.708 894.362 32.775 C 892.534 31.962 890.082 32.932 887.822 34.409 C 884.705 36.448 882.263 43.654 878.013 45.853 C 873.614 48.129 865.242 48.894 861.665 47.488 C 858.959 46.424 858.725 41.432 856.761 40.949 C 854.882 40.487 853.297 43.567 850.221 44.218 C 845.656 45.185 835.98 45.878 830.603 44.218 C 825.898 42.765 822.147 35.288 819.16 36.044 C 816.126 36.812 816.8 46.519 812.62 49.123 C 807.476 52.328 790.62 48.901 788.098 50.758 C 786.973 51.586 788.203 52.375 788.098 54.027 C 787.905 57.05 788.345 65.808 786.463 68.741 C 785.044 70.952 779.659 71.417 779.924 72.01 C 780.24 72.72 789.328 73.311 791.368 72.01 C 792.852 71.064 791.46 68.643 793.003 67.106 C 795.432 64.684 805.094 59.263 807.716 60.567 C 810.012 61.709 806.567 70.366 809.351 72.01 C 813.043 74.191 828.052 64.67 832.238 67.106 C 835.749 69.148 833.858 81.227 835.508 81.819 C 836.8 82.283 837.743 77.049 840.412 75.28 C 843.997 72.905 853.708 68.216 856.761 70.375 C 859.992 72.662 855.31 87.822 858.395 89.993 C 861.2 91.968 869.047 88.027 873.109 85.089 C 877.257 82.088 879.289 73.277 882.918 72.01 C 885.939 70.956 890.545 72.967 892.727 75.28 C 895.034 77.726 894.832 86.561 895.996 86.724 C 897.028 86.868 896.925 80.644 899.266 78.55 C 902.202 75.923 910.427 72.195 913.979 73.645 C 917.449 75.062 918.159 84.493 920.519 86.724 C 922.075 88.195 923.886 89.234 925.423 88.359 C 927.845 86.979 928.336 76.632 931.963 73.645 C 935.495 70.736 943.155 68.457 946.676 70.375 C 950.423 72.418 950.732 84.102 953.215 86.724 C 954.736 88.329 956.563 89.174 958.12 88.359 C 960.479 87.123 961.093 78.515 964.659 75.28 C 968.5 71.795 977.459 67.565 981.007 68.741 C 983.944 69.713 984.242 76.754 985.912 78.55 C 986.987 79.707 988.154 80.824 989.181 80.184 C 991.013 79.044 990.681 67.199 994.086 65.471 C 997.624 63.676 1007.79 72.262 1010.434 70.375 C 1012.925 68.598 1008.137 58.646 1010.434 55.662 C 1012.652 52.781 1022.379 54.433 1023.513 52.392 C 1024.4 50.795 1021.295 48.201 1020.243 45.853 C 1019.109 43.324 1018.049 38.599 1016.973 37.679 C 1016.425 37.21 1015.924 37.312 1015.339 37.679 C 1014.361 38.291 1013.859 41.483 1012.069 42.583 C 1009.863 43.94 1004.447 45.742 1002.26 44.218 C 999.789 42.497 1001.145 31.725 998.99 31.14 Z" style="fill-opacity: 1; fill-rule: nonzero; stroke: rgb(5, 14, 26); stroke-dasharray: none; stroke-dashoffset: 0px; stroke-linecap: butt; stroke-linejoin: miter; stroke-miterlimit: 4; stroke-opacity: 1; stroke-width: 5px; paint-order: normal; vector-effect: none; opacity: 1; mix-blend-mode: normal; isolation: auto; fill: rgb(181, 140, 127);"><title>rim</title></path></svg>