<?xml version="1.0" encoding="utf-8"?>
<svg xmlns="http://www.w3.org/2000/svg" viewBox="0 0 1800 1080" xmlns:bx="https://boxy-svg.com" width="1800px" height="1080px"><defs><bx:export><bx:file format="svg"/></bx:export></defs><g><title>background</title><path d="M 151.635 86.815 L 1191.163 86.815 C 1191.585 83.836 1193.572 80.445 1195.986 78.55 C 1200.976 74.633 1213.364 74.523 1223.778 73.645 C 1235.855 72.627 1253.476 71.937 1264.649 73.645 C 1273.567 75.009 1284.231 77.201 1286.719 81.002 C 1287.711 82.517 1288.055 84.699 1287.547 86.815 L 1651.635 86.815 L 1651.635 1166.815 L 151.635 1166.815 Z" style="stroke: rgb(0, 0, 0); fill: rgb(110, 66, 80); transform-box: fill-box; transform-origin: 50% 50%;"/></g><g style=""><title>foreground</title><path stroke="rgb(255,0,0)" opacity="0.9333333333333333" d="M 862.483 37.679 C 893.971 35.103 958.382 50.247 983.459 49.123 C 997.51 48.493 1004.407 39.655 1011.251 42.583 C 1017.881 45.42 1017.41 59.196 1024.33 65.471 C 1032.342 72.736 1044.201 78.387 1058.661 81.819 C 1077.158 86.21 1103.885 88.569 1128.959 85.089 C 1157.368 81.146 1189.855 60.501 1220.509 55.662 C 1250.35 50.952 1289.538 52.165 1310.424 55.662 C 1324.166 57.963 1329.661 64.788 1339.851 67.106 C 1350.092 69.435 1366.359 68.105 1371.73 69.558 C 1374.239 70.237 1373.052 71.838 1375.817 72.01 C 1382.917 72.452 1407.797 62.511 1424.862 60.567 C 1442.614 58.543 1465.075 58.327 1480.446 60.567 C 1492.858 62.375 1500.434 68.694 1511.507 70.375 C 1523.235 72.157 1535.959 72.489 1549.108 70.375 C 1563.617 68.044 1580.78 57.949 1594.883 55.662 C 1607.209 53.663 1617.113 54.021 1629.215 55.662 C 1642.581 57.475 1658.677 60.361 1671.72 67.106 C 1685.18 74.066 1698.905 84.723 1708.504 97.35 C 1718.443 110.424 1725.665 125.59 1729.756 144.76 C 1734.739 168.104 1734.658 210.046 1731.391 229.771 C 1729.236 242.783 1721.847 247.983 1719.947 257.563 C 1718.064 267.061 1717.191 274.75 1719.947 286.99 C 1723.948 304.756 1743.663 328.869 1749.374 355.652 C 1756.031 386.871 1755.836 440.054 1752.644 465.185 C 1750.594 481.319 1743.183 487.042 1741.2 499.517 C 1739.053 513.022 1738.629 528.959 1741.2 543.657 C 1743.872 558.932 1754.415 571.998 1757.548 589.432 C 1761.147 609.451 1762.084 638.517 1759.183 658.094 C 1756.734 674.622 1747.11 687.182 1744.47 700.6 C 1742.099 712.649 1740.652 719.76 1742.835 734.931 C 1746.192 758.265 1766.585 799.463 1772.262 831.386 C 1777.726 862.115 1779.537 899.641 1777.166 922.936 C 1775.45 939.798 1767.808 946.835 1765.722 962.172 C 1763.205 980.68 1762.445 1006.297 1765.722 1027.564 C 1768.994 1048.8 1787.919 1080.979 1785.34 1089.688 C 1784.057 1094.022 1778.32 1096.175 1774.714 1093.775 C 1774.18 1093.42 1773.624 1092.913 1773.049 1092.27 C 1771.4 1093.819 1768.751 1094.993 1766.226 1094.787 C 1755.493 1098.86 1734.311 1101.895 1719.13 1103.584 C 1702.769 1105.404 1677.488 1107.966 1661.517 1106.252 C 1660.691 1106.262 1659.82 1106.16 1658.969 1105.929 C 1655.498 1105.416 1652.586 1104.656 1650.467 1103.584 C 1643.407 1100.014 1643.196 1094.008 1641.476 1086.418 C 1639.157 1076.188 1640.583 1060.507 1641.476 1045.548 C 1642.494 1028.485 1650.391 995.941 1648.015 989.146 C 1647.082 986.478 1644.567 989.607 1643.111 986.694 C 1638.879 978.229 1634.425 931.071 1634.936 908.222 C 1635.367 888.983 1643.821 868.442 1643.111 857.543 C 1642.688 851.067 1639.292 851.709 1638.206 844.464 C 1636.059 830.136 1636.03 791.37 1638.206 767.628 C 1640.198 745.899 1650.635 722.558 1649.65 707.139 C 1648.931 695.899 1641.788 692.907 1639.841 680.982 C 1636.972 663.416 1637.173 629.179 1639.841 607.415 C 1642.169 588.421 1653.714 572.057 1652.919 556.735 C 1652.203 542.925 1640.829 533.555 1638.206 519.134 C 1635.191 502.556 1636.219 481.681 1638.206 461.916 C 1639.107 452.953 1641.125 443.627 1643.354 434.22 C 1641.361 412.14 1650.653 350.917 1649.65 329.495 C 1649.475 325.751 1648.995 322.242 1648.398 319.026 C 1645.072 312.641 1641.419 306.474 1639.841 298.433 C 1636.523 281.527 1635.499 255.763 1638.206 239.58 C 1640.41 226.404 1649.324 216.555 1651.285 206.883 C 1652.886 198.98 1653.397 192.856 1651.285 185.631 C 1648.87 177.368 1639.348 164.181 1635.754 160.291 C 1634.025 158.42 1632.757 158.928 1631.667 157.839 C 1630.577 156.749 1630.304 154.841 1629.215 153.751 C 1628.125 152.662 1626.259 152.176 1625.127 151.299 C 1624.131 150.528 1624.49 150.337 1622.675 148.847 C 1617.29 144.423 1592.281 122.553 1580.17 117.785 C 1571.482 114.365 1566.41 118.278 1557.282 116.151 C 1545.98 113.517 1521.091 106.41 1513.798 100.486 C 1511.847 100.321 1509.986 100.095 1508.238 99.802 C 1496.272 97.795 1490.987 89.153 1478.811 86.724 C 1463.487 83.666 1436.624 83.582 1421.592 86.724 C 1412.476 88.629 1406.998 94.111 1400.136 97.52 C 1399.707 98.576 1399.225 99.379 1398.705 99.802 C 1397.428 100.84 1394.774 100.812 1392.388 100.096 C 1381.674 102.212 1371.445 101.624 1356.199 99.802 C 1333.593 97.101 1293.064 83.098 1267.919 80.184 C 1247.717 77.844 1232.43 76.688 1215.604 80.184 C 1198.633 83.711 1185.808 96.544 1166.56 101.437 C 1148.441 106.043 1114.223 111.439 1096.336 111.079 C 1095.692 112.674 1094.51 113.959 1092.993 114.516 C 1091.207 115.172 1087.314 114.633 1082.463 113.419 C 1070.163 123.825 1034.883 142.875 1004.712 150.482 C 965.616 160.34 897.412 159.461 862.483 158.656 C 838.727 158.109 827.623 157.944 808.533 152.117 C 788.038 145.86 750.615 129.788 739.601 119.433 C 729.312 118.06 716.408 114.778 711.34 111.758 C 696.126 112.01 681.172 111.302 672.843 109.611 C 672.309 109.503 671.808 109.382 671.338 109.25 C 655.111 109.006 628.533 105.565 610.415 102.263 C 606.878 102.208 603.642 101.969 600.911 101.437 C 589.817 99.277 586.018 92.699 574.754 89.993 C 559.689 86.375 535.217 83.195 515.9 85.089 C 496.524 86.988 478.226 98.164 458.681 101.437 C 438.997 104.734 413.811 107.482 398.193 104.707 C 386.289 102.592 385.519 94.772 370.401 91.628 C 361.41 89.759 346.91 88.351 330.193 87.375 C 329.165 88.937 327.861 90.397 326.261 91.628 C 312.977 101.85 255.105 103.058 231.441 112.881 C 213.55 120.307 196.654 134.841 191.388 139.855 C 189.302 141.842 190.586 142.98 188.935 143.943 C 188.187 144.379 186.933 144.857 185.476 145.266 C 183.103 149.797 181.052 154.722 179.944 159.473 C 179.853 159.863 179.772 160.257 179.702 160.654 C 179.914 164.239 179.874 168.552 179.616 172.812 C 180.215 179.359 181.231 186.097 179.944 192.17 C 177.757 202.489 169.149 210.561 166.865 221.597 C 164.353 233.736 166.463 246.726 166.865 262.467 C 167.356 281.661 172.58 308.538 170.135 329.495 C 167.829 349.255 156.011 370.97 153.787 385.079 C 152.253 394.81 151.267 398.757 153.787 407.966 C 157.381 421.1 175.38 438.288 179.944 457.011 C 184.958 477.578 182.558 501.444 179.944 527.309 C 176.915 557.283 163.006 601.834 160.326 627.033 C 158.464 644.537 158.885 652.439 160.326 667.903 C 162.058 686.496 171.979 709.207 171.77 731.661 C 171.544 755.876 159.296 785.882 157.056 808.498 C 155.741 821.783 155.363 832.96 155.884 844.281 C 156.987 851.768 157.808 859.633 158.156 866.426 C 160.958 881.107 166.787 895.277 168.5 911.492 C 170.68 932.128 170.707 955.189 168.5 978.52 C 166.134 1003.541 154.839 1034.796 153.787 1056.991 C 152.948 1074.664 161.997 1096.016 158.768 1102.616 C 159.995 1105.845 160.381 1110.068 158.691 1112.575 C 155.654 1117.079 145.956 1119.767 134.986 1121.567 C 118.491 1124.274 80.651 1125.684 64.689 1121.567 C 57.068 1119.601 50.336 1115.872 46.226 1112.136 C 43.581 1113.846 37.919 1112.377 36.079 1109.306 C 33.878 1105.631 34.184 1091.866 35.897 1083.035 C 34.682 1082.322 33.587 1081.257 32.81 1079.879 C 27.273 1070.066 29.893 1021.58 32.81 996.503 C 35.405 974.191 44.962 953.272 47.523 936.014 C 49.58 922.151 50.899 913.543 49.158 900.048 C 47.053 883.724 35.07 858.897 32.81 844.464 C 31.207 834.232 31.133 831.545 32.81 819.942 C 35.645 800.32 51.699 760.238 55.697 731.661 C 59.462 704.75 60.1 673.256 57.332 653.19 C 55.301 638.468 48.161 632.088 45.888 618.859 C 43.221 603.335 41.785 585.523 44.254 564.909 C 47.298 539.484 63.441 505.207 67.141 476.629 C 70.625 449.719 67.362 427.142 67.141 398.158 C 67.058 387.257 66.288 374.593 65.474 361.504 C 64.733 359.501 64.138 357.522 63.759 355.54 C 61.991 346.302 62.174 338.225 63.759 331.017 C 63.772 330.956 63.786 330.895 63.8 330.833 C 63.171 314.28 63.29 298.732 65.506 286.99 C 69.413 266.291 82.817 257.327 86.759 239.58 C 91.082 220.119 84.127 195.102 88.394 174.187 C 92.629 153.427 108.22 121.24 112.099 114.516 C 113.306 112.423 113.35 113.367 114.551 112.063 C 116.776 109.647 118.084 104.587 125.177 99.802 C 139.527 90.123 177.162 69.05 211.823 62.201 C 253.573 53.952 322.217 58.116 362.227 62.201 C 392.574 65.3 412.027 79.288 435.794 78.55 C 458.848 77.833 479.199 62.532 502.821 58.932 C 527.573 55.16 561.633 53.651 581.293 57.297 C 595.663 59.962 597.008 67.984 613.989 72.01 C 643.775 79.072 738.341 87.883 759.489 85.089 C 767.741 83.998 768.289 82.704 771.75 78.55 C 776.443 72.916 776.108 54.61 782.376 50.758 C 788.198 47.179 796.642 55.002 806.899 54.027 C 821.314 52.657 839.068 39.595 862.483 37.679 Z M 145.502 644.825 C 145.504 644.698 145.505 644.57 145.507 644.443 C 145.498 644.423 145.489 644.404 145.48 644.385 C 145.487 644.532 145.494 644.678 145.502 644.825 Z" style="fill-opacity: 1; fill-rule: nonzero; stroke: rgb(5, 14, 26); stroke-dasharray: none; stroke-dashoffset: 0px; stroke-linecap: butt; stroke-linejoin: miter; stroke-miterlimit: 4; stroke-opacity: 1; paint-order: normal; vector-effect: none; opacity: 1; mix-blend-mode: normal; isolation: auto; stroke-width: 5px; fill: rgb(158, 119, 103);"><title>edge</title></path><path stroke="rgb(255,0,0)" stroke-width="0" opacity="0.9686274509803922" d="M 803.629 34.409 C 813.013 29.41 849.499 33.666 884.674 37.264 C 884.283 34.344 884.27 31.644 884.553 30.322 C 884.883 28.777 885.636 28.171 887.005 27.87 C 889.169 27.395 895.157 28.504 897.631 30.322 C 899.862 31.961 898.445 35.887 901.718 37.679 C 902.905 38.329 904.605 38.895 906.659 39.375 C 916.874 40.254 926.398 40.874 934.415 40.949 C 935.489 40.959 936.577 40.959 937.675 40.95 C 937.678 40.95 937.681 40.949 937.684 40.949 C 949.373 39.851 960.65 32.746 972.016 31.14 C 982.988 29.589 999.669 27.798 1004.712 31.14 C 1006.195 32.123 1007.424 33.787 1008.053 35.595 C 1018.484 35.067 1026.715 35.414 1030.869 37.679 C 1036.931 40.984 1035.831 48.538 1034.956 53.21 C 1034.101 57.78 1031.683 61.345 1025.965 65.471 C 1016.3 72.444 991.613 83.203 973.65 86.724 C 955.906 90.201 926.414 81.827 918.884 86.724 C 914.608 89.504 919.397 97.798 916.432 99.802 C 913.016 102.111 900.301 100.017 897.631 97.35 C 895.651 95.371 899.324 89.95 897.631 88.359 C 895.714 86.557 890.77 88.654 885.37 88.359 C 882.944 88.226 879.766 88.114 876.279 87.949 C 876.652 91.425 874.57 95.05 872.291 96.533 C 868.251 99.161 853.008 95.382 848.587 94.08 C 846.264 93.397 847.368 92.728 844.499 91.628 C 838.379 89.281 810.515 86.224 795.483 81.119 C 791.093 81.661 784.85 80.479 783.194 77.732 C 780.571 73.382 784.988 56.844 788.915 52.392 C 791.864 49.05 798.696 51.91 801.177 49.123 C 803.823 46.15 797.651 37.595 803.629 34.409 Z" style="fill-opacity: 1; fill-rule: nonzero; stroke: rgb(5, 14, 26); stroke-dasharray: none; stroke-dashoffset: 0px; stroke-linecap: butt; stroke-linejoin: miter; stroke-miterlimit: 4; stroke-opacity: 1; stroke-width: 5px; paint-order: normal; vector-effect: none; opacity: 1; mix-blend-mode: normal; isolation: auto; fill: rgb(5, 14, 26);"><title>underrim</title></path><path stroke="rgb(255,0,0)" stroke-width="0" opacity="0.9137254901960784" d="M 996.538 9.887 C 1000.155 8.584 1009.194 9.933 1012.069 12.339 C 1014.401 14.291 1011.371 19.847 1014.521 21.331 C 1020.151 23.982 1047.908 11.649 1053.757 14.791 C 1057.439 16.77 1056.452 24.396 1056.209 27.053 C 1056.061 28.677 1054.099 29.048 1054.574 30.322 C 1055.39 32.506 1064.45 34.683 1066.018 38.496 C 1067.657 42.483 1066.455 51.355 1063.566 54.027 C 1060.814 56.572 1051.436 52.189 1049.67 54.845 C 1047.685 57.829 1056.756 69.447 1054.574 72.828 C 1052.455 76.112 1042.601 76.527 1037.409 75.28 C 1032.256 74.043 1026.343 63.902 1023.513 65.471 C 1020.144 67.338 1025.375 88.105 1021.06 91.628 C 1017.138 94.831 1004.971 86.318 1000.625 88.359 C 997.04 90.042 998.489 98.463 994.903 99.802 C 990.43 101.474 977.954 92.19 973.651 93.263 C 970.767 93.982 971.732 98.203 968.746 99.802 C 964.22 102.226 950.134 104.701 945.859 103.072 C 943.103 102.022 943.407 97.048 941.771 96.533 C 940.345 96.083 938.546 97.463 936.867 98.985 C 934.502 101.129 933.151 108.499 929.51 109.611 C 925.345 110.884 915.163 106.72 912.345 103.889 C 910.359 101.895 911.73 97.024 910.71 96.533 C 909.911 96.148 908.648 97.772 907.44 98.985 C 905.761 100.672 904.746 105.243 901.718 106.342 C 897.837 107.749 888.055 105.838 884.553 103.889 C 882.112 102.531 883.361 99.08 880.466 98.167 C 875.194 96.506 854.994 105.157 849.404 103.072 C 845.936 101.779 847.473 95.793 844.499 94.898 C 840.447 93.678 828.942 103.444 824.882 101.437 C 821.121 99.578 823.999 86.798 819.977 85.089 C 815.188 83.054 799.48 96.429 795.455 94.898 C 792.713 93.855 796.221 87.315 793.003 85.089 C 787.652 81.387 761.09 87.051 757.036 82.637 C 754.177 79.522 762.779 71.231 760.306 67.923 C 757.202 63.771 736.843 66.838 734.149 63.019 C 732.131 60.158 735.01 53.063 738.236 50.758 C 741.985 48.079 756.261 52.199 757.036 49.94 C 757.825 47.64 743.908 41.292 742.323 36.862 C 741.071 33.364 741.427 27.613 744.775 26.235 C 750.411 23.917 776.999 41.132 783.194 37.679 C 788.012 34.993 782.662 18.887 785.646 16.426 C 787.924 14.547 793.826 16.392 796.272 18.879 C 799.128 21.781 798.902 33.569 800.359 34.409 C 801.149 34.864 801.864 33.529 802.811 31.957 C 804.729 28.777 805.809 15.064 810.168 13.157 C 814.528 11.249 825.962 17.353 828.969 20.513 C 830.996 22.644 828.862 26.12 830.603 27.87 C 832.694 29.972 839.216 32.528 842.047 31.14 C 845.092 29.647 844.305 20.805 847.769 18.061 C 851.455 15.142 861.016 12.703 864.117 14.791 C 867.083 16.789 862.767 28.045 866.57 29.505 C 872.226 31.677 896.022 10.948 903.353 13.157 C 908.867 14.818 907.982 30.602 911.527 31.14 C 915.068 31.677 919.951 18.122 924.606 16.426 C 928.488 15.012 934.142 16.464 936.867 18.879 C 939.628 21.325 937.96 30.654 940.954 31.14 C 945.024 31.8 956.087 15.626 962.207 13.157 C 966.495 11.426 971.294 11.068 973.651 13.157 C 976.27 15.479 973.5 26.895 976.103 27.87 C 978.918 28.925 987.279 20.593 990.816 17.244 C 993.526 14.678 993.604 10.944 996.538 9.887 Z M 998.99 31.14 C 996.81 30.548 993.79 39.151 989.181 40.949 C 983.551 43.145 970.284 42.728 966.294 40.949 C 963.975 39.915 964.874 36.266 963.024 36.044 C 960.306 35.718 954.924 42.814 949.946 44.218 C 944.651 45.711 935.817 45.64 931.963 44.218 C 929.329 43.247 928.956 39.217 927.058 39.314 C 924.73 39.433 922.638 46.413 918.884 47.488 C 914.375 48.779 903.645 45.954 900.901 44.218 C 899.459 43.307 900.042 42.349 899.266 40.949 C 898.128 38.893 896.461 33.708 894.362 32.775 C 892.534 31.962 890.082 32.932 887.822 34.409 C 884.705 36.448 882.263 43.654 878.013 45.853 C 873.614 48.129 865.242 48.894 861.665 47.488 C 858.959 46.424 858.725 41.432 856.761 40.949 C 854.882 40.487 853.297 43.567 850.221 44.218 C 845.656 45.185 835.98 45.878 830.603 44.218 C 825.898 42.765 822.147 35.288 819.16 36.044 C 816.126 36.812 816.8 46.519 812.62 49.123 C 807.476 52.328 790.62 48.901 788.098 50.758 C 786.973 51.586 788.203 52.375 788.098 54.027 C 787.905 57.05 788.345 65.808 786.463 68.741 C 785.044 70.952 779.659 71.417 779.924 72.01 C 780.24 72.72 789.328 73.311 791.368 72.01 C 792.852 71.064 791.46 68.643 793.003 67.106 C 795.432 64.684 805.094 59.263 807.716 60.567 C 810.012 61.709 806.567 70.366 809.351 72.01 C 813.043 74.191 828.052 64.67 832.238 67.106 C 835.749 69.148 833.858 81.227 835.508 81.819 C 836.8 82.283 837.743 77.049 840.412 75.28 C 843.997 72.905 853.708 68.216 856.761 70.375 C 859.992 72.662 855.31 87.822 858.395 89.993 C 861.2 91.968 869.047 88.027 873.109 85.089 C 877.257 82.088 879.289 73.277 882.918 72.01 C 885.939 70.956 890.545 72.967 892.727 75.28 C 895.034 77.726 894.832 86.561 895.996 86.724 C 897.028 86.868 896.925 80.644 899.266 78.55 C 902.202 75.923 910.427 72.195 913.979 73.645 C 917.449 75.062 918.159 84.493 920.519 86.724 C 922.075 88.195 923.886 89.234 925.423 88.359 C 927.845 86.979 928.336 76.632 931.963 73.645 C 935.495 70.736 943.155 68.457 946.676 70.375 C 950.423 72.418 950.732 84.102 953.215 86.724 C 954.736 88.329 956.563 89.174 958.12 88.359 C 960.479 87.123 961.093 78.515 964.659 75.28 C 968.5 71.795 977.459 67.565 981.007 68.741 C 983.944 69.713 984.242 76.754 985.912 78.55 C 986.987 79.707 988.154 80.824 989.181 80.184 C 991.013 79.044 990.681 67.199 994.086 65.471 C 997.624 63.676 1007.79 72.262 1010.434 70.375 C 1012.925 68.598 1008.137 58.646 1010.434 55.662 C 1012.652 52.781 1022.379 54.433 1023.513 52.392 C 1024.4 50.795 1021.295 48.201 1020.243 45.853 C 1019.109 43.324 1018.049 38.599 1016.973 37.679 C 1016.425 37.21 1015.924 37.312 1015.339 37.679 C 1014.361 38.291 1013.859 41.483 1012.069 42.583 C 1009.863 43.94 1004.447 45.742 1002.26 44.218 C 999.789 42.497 1001.145 31.725 998.99 31.14 Z" style="fill-opacity: 1; fill-rule: nonzero; stroke: rgb(5, 14, 26); stroke-dasharray: none; stroke-dashoffset: 0px; stroke-linecap: butt; stroke-linejoin: miter; stroke-miterlimit: 4; stroke-opacity: 1; stroke-width: 5px; paint-order: normal; vector-effect: none; opacity: 1; mix-blend-mode: normal; isolation: auto; fill: rgb(181, 140, 127);"><title>rim</title></path><path stroke="rgb(255,0,0)" stroke-width="0" opacity="0.9568627450980393" d="M 155.161 84.034 C 158.124 83.642 162.144 85.031 163.892 85.621 C 164.881 85.955 164.777 86.211 165.745 86.68 C 167.501 87.531 173.167 89.465 174.476 90.384 C 175.072 90.802 174.703 90.93 175.27 91.442 C 176.576 92.623 182.69 96.234 184.002 97.528 C 184.608 98.126 184.512 98.485 184.796 98.851 C 185.046 99.174 185.227 99.188 185.59 99.645 C 186.286 100.523 188.216 102.559 188.765 104.408 C 189.355 106.398 189.636 109.041 188.765 111.287 C 187.747 113.909 185.666 115.805 182.15 118.961 C 176.437 124.087 160.638 136.314 154.631 139.07 C 151.45 140.53 150.981 141.21 147.752 140.129 C 141.403 138.002 121.242 122.166 117.852 117.109 C 116.304 114.799 116.923 113.844 117.323 111.817 C 117.844 109.176 120.627 104.056 121.821 102.556 C 122.43 101.791 122.383 102.037 123.409 101.497 C 125.94 100.166 138.078 95.475 140.078 94.088 C 140.779 93.603 140.497 93.355 140.872 93.03 C 141.201 92.746 141.788 92.563 142.257 92.308 C 142.345 91.968 142.474 91.669 142.724 91.442 C 142.86 91.319 143.009 91.209 143.168 91.111 C 143.255 90.866 143.349 90.616 143.518 90.384 C 143.97 89.766 144.305 89.234 145.37 88.532 C 147.246 87.295 151.959 84.457 155.161 84.034 Z" style="fill-opacity: 1; fill-rule: nonzero; stroke: rgb(5, 14, 26); stroke-dasharray: none; stroke-dashoffset: 0px; stroke-linecap: butt; stroke-linejoin: miter; stroke-miterlimit: 4; stroke-opacity: 1; stroke-width: 5px; paint-order: normal; vector-effect: none; opacity: 1; mix-blend-mode: normal; isolation: auto; fill: rgb(61, 161, 126);"><title>patch</title></path><path stroke="rgb(255,0,0)" stroke-width="0" opacity="0.9607843137254902" d="M 69.43 290.421 C 74.496 290.038 93.16 291.858 102.77 293.067 C 110.783 294.074 120.181 293.783 123.673 296.771 C 126.205 298.937 125.606 301.278 125.79 306.032 C 126.127 314.734 123.778 342.165 121.556 348.897 C 120.57 351.887 119.805 352.523 118.117 353.395 C 116.182 354.395 112.489 354.272 110.179 353.924 C 108.157 353.62 107.689 352.4 104.887 351.808 C 99.742 350.72 86.037 350.759 78.956 349.691 C 73.411 348.855 67.922 347.903 65.197 346.516 C 63.532 345.668 62.898 345.065 62.286 343.605 C 61.47 341.656 61.728 339.362 61.757 335.138 C 61.809 327.603 64.015 304.473 63.874 299.152 C 63.82 297.128 63.086 297.11 63.345 295.977 C 63.661 294.589 65.117 292.391 66.255 291.479 C 67.198 290.723 67.413 290.573 69.43 290.421 Z" style="fill-opacity: 1; fill-rule: nonzero; stroke: rgb(5, 14, 26); stroke-dasharray: none; stroke-dashoffset: 0px; stroke-linecap: butt; stroke-linejoin: miter; stroke-miterlimit: 4; stroke-opacity: 1; stroke-width: 5px; paint-order: normal; vector-effect: none; opacity: 1; mix-blend-mode: normal; isolation: auto; fill: rgb(28, 117, 189);"><title>patch</title></path><path stroke="rgb(255,0,0)" stroke-width="0" opacity="0.9607843137254902" d="M 125.017 520.053 C 126.312 519.773 128.53 519.401 130.263 520.053 C 132.296 520.817 134.906 523.474 136.295 525.036 C 137.358 526.231 137.787 527.752 138.394 528.446 C 138.782 528.89 139.002 528.806 139.443 529.233 C 140.162 529.93 141.542 531.95 142.328 532.642 C 142.84 533.093 143.258 533.062 143.639 533.429 C 144.055 533.829 144.008 534.132 144.688 535.003 C 146.256 537.01 152.977 543.116 154.655 546.543 C 155.877 549.039 156.044 551.484 155.704 553.363 C 155.415 554.958 154.747 555.69 153.344 557.297 C 151.053 559.92 144.687 564.491 141.541 567.526 C 139.027 569.951 136.766 573.005 135.509 574.083 C 134.887 574.616 134.547 574.52 134.197 574.87 C 133.847 575.219 134.004 575.509 133.41 576.181 C 132.013 577.764 125.367 583.055 123.706 584.836 C 122.881 585.72 123.203 586.167 122.394 586.672 C 121.161 587.444 119.116 589.179 116.1 588.246 C 109.989 586.357 89.393 567.808 86.462 564.641 C 85.603 563.713 86.203 563.647 85.675 563.067 C 84.845 562.155 82.298 561.418 81.216 559.92 C 80.029 558.275 78.985 555.208 79.118 553.363 C 79.23 551.811 79.643 550.866 81.216 549.428 C 84.025 546.86 95.601 542.519 98.002 540.511 C 99.065 539.623 98.373 539.221 99.314 538.413 C 101.094 536.881 108.571 533.807 110.067 532.642 C 110.68 532.165 110.275 532.052 110.854 531.593 C 112.151 530.566 117.464 528.807 119.509 526.872 C 121.262 525.214 121.826 522.186 122.919 521.102 C 123.637 520.39 124.079 520.256 125.017 520.053 Z" style="fill-opacity: 1; fill-rule: nonzero; stroke: rgb(5, 14, 26); stroke-dasharray: none; stroke-dashoffset: 0px; stroke-linecap: butt; stroke-linejoin: miter; stroke-miterlimit: 4; stroke-opacity: 1; stroke-width: 5px; paint-order: normal; vector-effect: none; opacity: 1; mix-blend-mode: normal; isolation: auto; fill: rgb(61, 161, 126);"><title>patch</title></path><path stroke="rgb(255,0,0)" stroke-width="0" opacity="0.9647058823529412" d="M 104.464 564.424 C 110.35 563.613 114.676 563.634 117.331 564.424 C 118.97 564.912 119.694 565.272 120.378 566.794 C 121.509 569.31 120.117 574.085 121.055 580.338 C 122.574 590.458 131.83 618.386 131.213 624.357 C 130.983 626.589 130.627 626.409 128.843 627.404 C 125.031 629.531 112.513 632.357 103.786 633.499 C 94.71 634.687 79.464 635.114 75.344 634.177 C 73.688 633.8 73.838 633.89 72.973 632.483 C 70.914 629.134 67.315 616.918 65.524 608.104 C 63.579 598.531 61.4 581.321 62.138 576.952 C 62.423 575.263 62.217 575.468 63.831 574.582 C 68.519 572.008 95.026 565.725 104.464 564.424 Z" style="fill-opacity: 1; fill-rule: nonzero; stroke: rgb(5, 14, 26); stroke-dasharray: none; stroke-dashoffset: 0px; stroke-linecap: butt; stroke-linejoin: miter; stroke-miterlimit: 4; stroke-opacity: 1; stroke-width: 5px; paint-order: normal; vector-effect: none; opacity: 1; mix-blend-mode: normal; isolation: auto; fill: rgb(196, 12, 46);"><title>patch</title></path><path stroke="rgb(255,0,0)" stroke-width="0" opacity="0.984313725490196" d="M 38.191 807.694 C 44.19 804.9 62.658 810.356 70.243 810.113 C 75.189 809.954 78.723 807.532 81.129 808.298 C 82.902 808.863 83.824 810.363 84.455 812.229 C 85.286 814.69 84.504 817.782 84.455 822.51 C 84.376 829.962 85.546 849.544 83.85 854.562 C 83.063 856.891 82.917 856.77 80.524 857.888 C 75.02 860.459 49.75 866.748 43.634 865.75 C 40.702 865.271 40.647 863.939 39.098 861.819 C 36.763 858.621 33.093 852.302 31.841 846.7 C 30.499 840.694 31.675 831.829 31.841 826.743 C 31.959 823.131 31.564 821.213 32.446 818.277 C 33.461 814.9 34.14 809.58 38.191 807.694 Z" style="fill-opacity: 1; fill-rule: nonzero; stroke: rgb(5, 14, 26); stroke-dasharray: none; stroke-dashoffset: 0px; stroke-linecap: butt; stroke-linejoin: miter; stroke-miterlimit: 4; stroke-opacity: 1; stroke-width: 5px; paint-order: normal; vector-effect: none; opacity: 1; mix-blend-mode: normal; isolation: auto; fill: rgb(204, 128, 41);"><title>patch</title></path><path stroke="rgb(255,0,0)" stroke-width="0" opacity="0.9803921568627451" d="M 90.804 984.562 C 92.139 984.064 95.342 983.97 96.852 984.562 C 98.112 985.057 98.149 985.524 99.573 987.284 C 102.9 991.396 115.83 1010.835 118.018 1013.59 C 118.622 1014.35 118.555 1014.014 118.925 1014.497 C 119.543 1015.304 120.471 1017.383 121.344 1018.428 C 122.1 1019.333 122.877 1019.511 123.763 1020.545 C 125.015 1022.006 127.006 1025.788 127.996 1026.895 C 128.515 1027.474 128.654 1027.244 129.206 1027.802 C 130.268 1028.874 133.278 1031.724 134.044 1033.85 C 134.738 1035.775 134.702 1038.131 134.044 1039.897 C 133.388 1041.657 132.544 1042.209 130.113 1044.433 C 125.032 1049.082 104.65 1063.558 100.178 1067.716 C 98.306 1069.456 98.864 1070.281 97.457 1071.042 C 95.655 1072.015 91.937 1072.963 89.595 1072.251 C 87.183 1071.519 86.334 1069.78 83.245 1066.506 C 77.242 1060.145 57.587 1038.934 54.217 1032.035 C 52.646 1028.821 52.94 1027.639 53.612 1025.383 C 54.406 1022.715 58.21 1018.533 59.659 1017.219 C 60.42 1016.529 61.001 1016.647 61.474 1016.312 C 61.867 1016.032 62.026 1015.819 62.381 1015.405 C 62.881 1014.821 63.424 1013.783 64.195 1012.986 C 65.083 1012.067 66.278 1011.519 67.521 1010.264 C 69.193 1008.576 71.974 1004.485 73.266 1003.31 C 73.939 1002.698 74.056 1003.049 74.778 1002.402 C 76.312 1001.03 80.804 995.006 82.338 993.634 C 83.06 992.987 83.446 993.13 83.85 992.726 C 84.253 992.323 84.433 991.633 84.757 991.215 C 85.042 990.846 85.368 990.754 85.664 990.307 C 86.079 989.682 86.282 988.249 86.873 987.586 C 87.419 986.974 88.34 986.873 88.99 986.376 C 89.653 985.869 89.857 984.916 90.804 984.562 Z M 92.921 1056.528 L 92.921 1057.132 Z" style="fill-opacity: 1; fill-rule: nonzero; stroke: rgb(5, 14, 26); stroke-dasharray: none; stroke-dashoffset: 0px; stroke-linecap: butt; stroke-linejoin: miter; stroke-miterlimit: 4; stroke-opacity: 1; stroke-width: 5px; paint-order: normal; vector-effect: none; opacity: 1; mix-blend-mode: normal; isolation: auto; fill: rgb(196, 12, 46);"><title>patch</title></path><path stroke="rgb(255,0,0)" stroke-width="0" opacity="0.9764705882352941" d="M 1736.56 960.437 C 1738.917 959.931 1742.472 959.921 1745.091 960.886 C 1747.8 961.885 1750.248 962.935 1752.5 966.499 C 1756.248 972.433 1760.396 990.403 1761.929 998.379 C 1762.969 1003.79 1763.557 1008.141 1762.827 1010.951 C 1762.33 1012.861 1761.201 1013.98 1759.908 1014.767 C 1758.593 1015.569 1756.302 1015.917 1754.969 1015.665 C 1753.851 1015.454 1753.505 1014.212 1752.275 1013.869 C 1750.627 1013.41 1747.784 1013.795 1745.54 1013.869 C 1743.294 1013.944 1741.604 1014.754 1738.805 1014.318 C 1734.833 1013.7 1728.352 1011.571 1723.539 1008.93 C 1718.526 1006.18 1711.602 1001.54 1709.395 997.93 C 1707.822 995.356 1708.248 992.157 1708.497 990.296 C 1708.673 988.983 1708.897 988.328 1709.844 987.378 C 1711.237 985.981 1714.602 984.012 1717.253 983.337 C 1719.914 982.659 1723.498 983.115 1725.784 983.337 C 1727.531 983.506 1729.651 984.867 1730.049 984.235 C 1730.536 983.461 1727.429 980.01 1726.906 977.724 C 1726.384 975.444 1726.21 972.879 1726.906 970.54 C 1727.66 968.005 1729.834 964.841 1731.621 963.131 C 1733.116 961.701 1734.565 960.866 1736.56 960.437 Z M 1730.498 984.235 L 1730.498 984.684 Z" style="fill-opacity: 1; fill-rule: nonzero; stroke: rgb(5, 14, 26); stroke-dasharray: none; stroke-dashoffset: 0px; stroke-linecap: butt; stroke-linejoin: miter; stroke-miterlimit: 4; stroke-opacity: 1; stroke-width: 5px; paint-order: normal; vector-effect: none; opacity: 1; mix-blend-mode: normal; isolation: auto; fill: rgb(196, 12, 46);"><title>patch</title></path><path stroke="rgb(255,0,0)" stroke-width="0" opacity="0.9803921568627451" d="M 1761.255 807.568 C 1764.734 807.182 1765.889 807.145 1767.766 809.364 C 1771.066 813.264 1773.292 827.694 1774.95 836.08 C 1776.455 843.692 1778.477 853.589 1777.644 857.632 C 1777.189 859.844 1776.307 860.53 1774.726 861.449 C 1772.64 862.662 1768.991 862.915 1765.296 863.245 C 1760.745 863.652 1754.278 863.49 1749.132 863.245 C 1744.276 863.014 1738.225 862.978 1735.213 861.898 C 1733.248 861.194 1732.715 861.229 1731.396 858.979 C 1728.48 854.003 1721.998 830.249 1721.967 825.304 C 1721.955 823.401 1721.767 823.575 1723.314 822.385 C 1727.587 819.1 1754.117 808.36 1761.255 807.568 Z" style="fill-opacity: 1; fill-rule: nonzero; stroke: rgb(5, 14, 26); stroke-dasharray: none; stroke-dashoffset: 0px; stroke-linecap: butt; stroke-linejoin: miter; stroke-miterlimit: 4; stroke-opacity: 1; stroke-width: 5px; paint-order: normal; vector-effect: none; opacity: 1; mix-blend-mode: normal; isolation: auto; fill: rgb(61, 161, 126);"><title>patch</title></path><path stroke="rgb(255,0,0)" stroke-width="0" opacity="0.984313725490196" d="M 1718.219 641.034 C 1721.55 640.604 1735.675 641.924 1742.553 642.772 C 1748.15 643.463 1753.967 644.222 1756.892 645.38 C 1758.644 646.073 1759.453 646.581 1760.151 647.77 C 1760.953 649.135 1760.922 650.876 1761.021 653.419 C 1761.169 657.267 1761.745 663.665 1760.151 669.496 C 1758.223 676.554 1752.223 689.664 1748.636 692.744 C 1746.678 694.426 1744.531 693.968 1742.987 693.613 C 1741.644 693.305 1740.415 692.256 1739.728 691.223 C 1739.544 690.945 1739.5 690.632 1739.504 690.299 C 1736.42 689.003 1732.058 686.426 1729.342 684.228 C 1724.434 683.011 1718.893 681.745 1715.612 680.143 C 1710.579 677.685 1705.568 674.591 1703.662 671.669 C 1702.278 669.548 1702.037 668.133 1702.793 665.151 C 1704.122 659.906 1714.07 644.524 1716.481 641.903 C 1717.322 640.989 1717.008 641.191 1718.219 641.034 Z" style="fill-opacity: 1; fill-rule: nonzero; stroke: rgb(5, 14, 26); stroke-dasharray: none; stroke-dashoffset: 0px; stroke-linecap: butt; stroke-linejoin: miter; stroke-miterlimit: 4; stroke-opacity: 1; stroke-width: 5px; paint-order: normal; vector-effect: none; opacity: 1; mix-blend-mode: normal; isolation: auto; fill: rgb(204, 128, 41);"><title>patch</title></path><path stroke="rgb(255,0,0)" stroke-width="0" opacity="0.9803921568627451" d="M 1687.758 443.88 C 1690.102 443.976 1696.096 445.987 1697.532 447.05 C 1698.243 447.577 1697.738 448.026 1698.324 448.635 C 1699.355 449.706 1703.372 451.603 1704.4 452.597 C 1704.953 453.132 1704.726 453.553 1705.192 453.918 C 1705.808 454.401 1707.478 454.539 1708.098 454.975 C 1708.539 455.285 1708.278 455.565 1708.89 456.031 C 1710.349 457.143 1717.231 460.261 1719.192 461.314 C 1720.189 461.849 1720.035 461.877 1721.042 462.371 C 1722.999 463.332 1729.316 464.627 1731.344 466.862 C 1733.086 468.782 1734.211 470.326 1733.457 474.258 C 1731.835 482.712 1713.891 515.283 1708.362 519.956 C 1706.145 521.831 1705.794 521.278 1703.079 520.485 C 1697.255 518.783 1679.699 507.148 1672.437 501.994 C 1667.415 498.429 1663.19 495.448 1661.607 492.749 C 1660.584 491.004 1660.509 490.455 1661.079 487.994 C 1662.262 482.881 1672.352 464.014 1674.286 461.314 C 1674.843 460.538 1674.935 460.772 1675.343 460.522 C 1675.801 460.24 1676.26 460.503 1676.928 459.73 C 1678.56 457.84 1682.09 447.092 1684.324 444.937 C 1685.537 443.767 1686.219 443.818 1687.758 443.88 Z" style="fill-opacity: 1; fill-rule: nonzero; stroke: rgb(5, 14, 26); stroke-dasharray: none; stroke-dashoffset: 0px; stroke-linecap: butt; stroke-linejoin: miter; stroke-miterlimit: 4; stroke-opacity: 1; stroke-width: 5px; paint-order: normal; vector-effect: none; opacity: 1; mix-blend-mode: normal; isolation: auto; fill: rgb(28, 117, 189);"><title>patch</title></path><path stroke="rgb(255,0,0)" stroke-width="0" opacity="0.9568627450980393" d="M 1676.664 71.955 C 1678.303 71.811 1681.978 72.495 1683.268 73.011 C 1684.011 73.309 1683.718 73.388 1684.588 74.068 C 1687.002 75.952 1698.798 84.227 1701.758 87.275 C 1703.322 88.886 1703.556 90.233 1704.136 90.974 C 1704.471 91.403 1704.523 91.421 1704.928 91.766 C 1705.599 92.337 1706.717 92.571 1708.098 94.143 C 1710.856 97.284 1718.457 107.897 1720.249 112.898 C 1721.464 116.291 1721.552 118.717 1720.777 121.351 C 1719.967 124.105 1718.257 125.998 1715.23 129.012 C 1710.515 133.706 1698.743 143.017 1692.513 146.446 C 1688.159 148.842 1684.255 150.448 1681.418 150.144 C 1679.235 149.91 1678.178 148.414 1676.4 146.71 C 1674.033 144.443 1672.085 139.842 1668.739 136.936 C 1664.983 133.675 1658.581 131.657 1654.475 128.483 C 1650.657 125.533 1646.127 121.351 1644.701 118.71 C 1643.811 117.06 1643.921 115.835 1644.173 114.483 C 1644.43 113.103 1645.375 111.233 1646.286 110.521 C 1647.029 109.94 1648.305 110.431 1648.928 109.993 C 1649.494 109.594 1649.461 109.041 1649.984 108.144 C 1650.885 106.599 1653.258 102.154 1654.211 101.011 C 1654.668 100.463 1654.642 100.967 1655.267 100.219 C 1657.481 97.57 1669.394 77.057 1672.173 74.068 C 1673.123 73.046 1673.327 73.345 1674.022 73.011 C 1674.803 72.636 1675.499 72.057 1676.664 71.955 Z" style="fill-opacity: 1; fill-rule: nonzero; stroke: rgb(5, 14, 26); stroke-dasharray: none; stroke-dashoffset: 0px; stroke-linecap: butt; stroke-linejoin: miter; stroke-miterlimit: 4; stroke-opacity: 1; stroke-width: 5px; paint-order: normal; vector-effect: none; opacity: 1; mix-blend-mode: normal; isolation: auto; fill: rgb(28, 117, 189);"><title>patch</title></path><path stroke="rgb(255,0,0)" stroke-width="0" opacity="0.984313725490196" d="M 1685.252 238.943 C 1688.175 238.931 1699.228 241.652 1704.288 243.422 C 1708.248 244.808 1711.86 247.319 1713.806 248.088 C 1714.829 248.492 1715.085 248.279 1715.859 248.648 C 1716.884 249.136 1718.627 250.018 1719.405 251.074 C 1720.152 252.089 1720.658 253.223 1720.524 254.806 C 1720.332 257.088 1717.458 260.308 1716.792 263.765 C 1716.025 267.745 1716.083 272.585 1716.792 277.575 C 1717.604 283.289 1722.292 292.179 1722.017 296.238 C 1721.848 298.737 1720.707 300.183 1719.218 301.277 C 1717.619 302.45 1715.263 301.703 1712.499 302.77 C 1708.497 304.314 1701.775 309.417 1697.196 310.981 C 1693.496 312.245 1689.56 312.986 1687.118 312.474 C 1685.308 312.095 1684.394 311.426 1683.199 309.675 C 1681.3 306.89 1679.568 300.514 1678.347 295.118 C 1676.98 289.08 1676.153 281.33 1675.734 274.962 C 1675.346 269.062 1675.191 262.691 1675.734 258.166 C 1676.154 254.66 1676.802 252.506 1677.973 249.581 C 1679.263 246.361 1681.957 241.121 1683.385 239.69 C 1684.102 238.971 1684.075 238.948 1685.252 238.943 Z" style="fill-opacity: 1; fill-rule: nonzero; stroke: rgb(5, 14, 26); stroke-dasharray: none; stroke-dashoffset: 0px; stroke-linecap: butt; stroke-linejoin: miter; stroke-miterlimit: 4; stroke-opacity: 1; stroke-width: 5px; paint-order: normal; vector-effect: none; opacity: 1; mix-blend-mode: normal; isolation: auto; fill: rgb(196, 12, 46);"><title>patch</title></path><path stroke="rgb(255,0,0)" stroke-width="0" opacity="0.9764705882352941" d="M 1267.731 51.984 C 1272.724 51.151 1296.72 53.476 1304.033 54.405 C 1307.989 54.907 1309.52 55.036 1311.696 56.018 C 1313.696 56.92 1315.864 58.3 1316.738 59.85 C 1317.525 61.243 1317.577 63.246 1317.142 64.69 C 1316.706 66.137 1315.527 67.797 1314.117 68.522 C 1312.578 69.313 1310.275 69.174 1308.066 68.925 C 1305.502 68.636 1303.722 67.191 1299.596 66.505 C 1292.723 65.363 1273.335 65.788 1268.134 64.085 C 1265.669 63.278 1265.008 62.373 1264.303 61.06 C 1263.599 59.75 1263.685 57.536 1263.899 56.22 C 1264.073 55.15 1264.485 54.299 1265.109 53.598 C 1265.75 52.878 1265.872 52.295 1267.731 51.984 Z" style="fill-opacity: 1; fill-rule: nonzero; stroke: rgb(5, 14, 26); stroke-dasharray: none; stroke-dashoffset: 0px; stroke-linecap: butt; stroke-linejoin: miter; stroke-miterlimit: 4; stroke-opacity: 1; stroke-width: 5px; paint-order: normal; vector-effect: none; opacity: 1; mix-blend-mode: normal; isolation: auto; fill: rgb(61, 161, 126);"><title>patch</title></path><path stroke="rgb(255,0,0)" stroke-width="0" opacity="0.9607843137254902" d="M 354.775 61.393 C 358.731 61.08 368.421 63.166 376.167 65.168 C 385.071 67.47 401.311 71.554 405.319 75.025 C 407.361 76.795 407.086 78.897 406.996 80.478 C 406.919 81.842 406.385 83.184 405.319 84.044 C 404.031 85.082 402.778 85.928 399.237 85.721 C 391.141 85.249 356.913 76.743 351.21 72.299 C 348.78 70.406 349.434 68.259 349.532 66.636 C 349.616 65.256 350.336 63.945 351.21 63.071 C 352.084 62.197 352.776 61.551 354.775 61.393 Z" style="fill-opacity: 1; fill-rule: nonzero; stroke: rgb(5, 14, 26); stroke-dasharray: none; stroke-dashoffset: 0px; stroke-linecap: butt; stroke-linejoin: miter; stroke-miterlimit: 4; stroke-opacity: 1; stroke-width: 5px; paint-order: normal; vector-effect: none; opacity: 1; mix-blend-mode: normal; isolation: auto; fill: rgb(196, 12, 46);"><title>patch</title></path><path stroke="rgb(255,0,0)" stroke-width="0" opacity="0.9803921568627451" d="M 668.766 80.062 C 671.845 79.781 680.38 80.527 684.228 81.053 C 686.912 81.421 687.414 82.047 690.373 82.441 C 695.274 83.093 706.604 83.679 712.574 83.828 C 717.095 83.942 721.203 83.324 723.674 83.63 C 725.2 83.819 725.983 84.105 726.846 84.621 C 727.636 85.094 728.261 85.655 728.729 86.504 C 729.284 87.513 729.924 89.114 729.72 90.469 C 729.493 91.98 728.243 94.199 727.044 95.127 C 725.969 95.959 724.793 95.945 723.08 96.118 C 720.678 96.361 716.31 95.906 713.565 95.92 C 711.29 95.931 710.92 96.263 707.618 96.118 C 700.611 95.812 674.349 93.338 668.766 92.352 C 666.683 91.984 666.4 91.836 665.595 91.361 C 664.924 90.966 664.519 90.603 664.108 89.874 C 663.56 88.902 662.904 86.961 662.919 85.712 C 662.932 84.614 663.423 83.537 663.91 82.738 C 664.346 82.022 664.863 81.488 665.595 81.053 C 666.43 80.557 667.104 80.214 668.766 80.062 Z" style="fill-opacity: 1; fill-rule: nonzero; stroke: rgb(5, 14, 26); stroke-dasharray: none; stroke-dashoffset: 0px; stroke-linecap: butt; stroke-linejoin: miter; stroke-miterlimit: 4; stroke-opacity: 1; stroke-width: 5px; paint-order: normal; vector-effect: none; opacity: 1; mix-blend-mode: normal; isolation: auto; fill: rgb(204, 128, 41);"><title>patch</title></path><path stroke="rgb(255,0,0)" opacity="0.9372549019607843" d="M 159.865 125.965 C 160.458 125.903 161.212 125.926 162.262 126.445 C 164.095 127.35 169.118 131.425 170.054 132.439 C 170.398 132.811 170.281 132.97 170.414 133.158 C 170.525 133.314 170.588 133.268 170.774 133.517 C 171.239 134.142 173.373 136.697 173.411 137.833 C 173.439 138.68 172.638 139.456 172.092 139.871 C 171.614 140.234 171.048 140.495 170.414 140.35 C 169.552 140.154 168.28 138.866 167.417 138.073 C 166.623 137.343 166.316 136.625 165.379 135.795 C 164.124 134.683 161.063 132.873 160.225 132.079 C 159.819 131.695 159.897 131.526 159.625 131.24 C 159.293 130.89 158.606 130.638 158.307 130.161 C 157.989 129.654 157.734 128.856 157.827 128.243 C 157.922 127.616 158.513 126.823 158.906 126.445 C 159.206 126.156 159.439 126.01 159.865 125.965 Z M 169.935 116.375 C 171 116.375 173.701 117.156 175.689 118.293 C 178.103 119.675 181.735 122.669 183.241 124.647 C 184.331 126.079 184.98 127.732 184.919 128.722 C 184.875 129.429 184.372 129.939 183.84 130.281 C 183.252 130.659 182.192 130.974 181.443 130.76 C 180.623 130.527 179.646 129.306 179.165 128.722 C 178.83 128.316 179.092 128.167 178.566 127.644 C 177.24 126.325 169.702 122.236 168.376 120.571 C 167.74 119.772 167.804 119.266 167.897 118.653 C 167.992 118.026 168.583 117.233 168.976 116.855 C 169.276 116.566 169.402 116.375 169.935 116.375 Z M 180.723 107.504 C 181.73 107.493 184.384 108.329 185.998 109.183 C 187.623 110.043 189.797 112.112 190.433 112.659 C 190.676 112.868 190.652 112.854 190.793 113.019 C 190.991 113.25 191.314 113.746 191.512 113.978 C 191.653 114.142 191.693 114.074 191.872 114.337 C 192.342 115.028 194.504 118.224 194.509 119.372 C 194.512 120.112 193.979 120.588 193.43 120.931 C 192.8 121.324 191.577 121.597 190.793 121.41 C 190.022 121.226 189.467 120.603 188.755 119.852 C 187.813 118.858 187.159 116.928 185.758 115.656 C 184.114 114.163 180.146 112.881 179.165 111.7 C 178.595 111.014 178.593 110.395 178.685 109.782 C 178.78 109.155 179.372 108.362 179.764 107.984 C 180.065 107.695 180.201 107.511 180.723 107.504 Z M 183.361 87.605 C 184.439 87.393 185.586 88.063 186.118 88.684 C 186.61 89.259 186.847 90.238 186.597 91.082 C 186.276 92.167 184.783 93.392 183.6 94.558 C 182.273 95.867 180.218 97.233 178.925 98.514 C 177.808 99.621 177.13 101.16 176.168 101.75 C 175.397 102.224 174.414 102.379 173.771 102.23 C 173.214 102.101 172.751 101.647 172.452 101.151 C 172.12 100.6 171.839 99.725 171.972 98.993 C 172.122 98.17 173.116 96.914 173.531 96.476 C 173.764 96.23 173.828 96.384 174.13 96.116 C 174.826 95.5 176.396 93.28 177.846 91.921 C 179.432 90.435 181.839 87.905 183.361 87.605 Z M 174.01 81.372 C 174.703 81.363 176.445 81.837 177.007 82.451 C 177.493 82.98 177.63 83.901 177.487 84.608 C 177.33 85.381 176.517 86.273 175.928 86.886 C 175.387 87.449 174.541 87.799 174.13 88.205 C 173.829 88.503 173.836 88.713 173.531 89.044 C 173.081 89.532 172.125 90.173 171.493 90.842 C 170.844 91.528 170.427 92.664 169.695 93.119 C 169.011 93.544 167.94 93.748 167.297 93.599 C 166.741 93.47 166.278 93.016 165.979 92.52 C 165.646 91.969 165.243 91.256 165.499 90.362 C 165.91 88.931 169.297 85.468 169.935 84.728 C 170.156 84.471 170.089 84.539 170.294 84.369 C 170.692 84.038 171.989 83.289 172.452 82.81 C 172.781 82.47 172.787 82.092 173.051 81.851 C 173.31 81.616 173.562 81.377 174.01 81.372 Z M 126.54 119.252 C 127.195 119.252 128.751 119.631 129.297 120.331 C 129.873 121.07 130.125 122.514 129.776 123.688 C 129.338 125.16 127.432 127.342 126.06 128.363 C 124.88 129.24 123.119 129.903 122.224 129.801 C 121.594 129.73 121.205 129.2 120.905 128.722 C 120.588 128.216 120.413 127.403 120.426 126.804 C 120.438 126.25 120.575 125.675 120.905 125.246 C 121.264 124.781 122.247 124.43 122.584 124.167 C 122.778 124.015 122.755 124.052 122.943 123.808 C 123.407 123.205 124.892 120.401 125.581 119.732 C 125.957 119.366 126.103 119.252 126.54 119.252 Z M 135.001 124.527 C 135.657 124.527 137.216 124.923 137.758 125.606 C 138.314 126.305 138.629 127.482 138.238 128.722 C 137.641 130.613 134.083 134.669 132.604 135.795 C 131.752 136.443 131.157 136.621 130.446 136.514 C 129.677 136.399 128.558 135.531 128.168 134.956 C 127.866 134.51 127.895 134.005 127.928 133.517 C 127.964 133.007 128.135 132.324 128.408 131.959 C 128.643 131.644 129.041 131.671 129.367 131.36 C 129.795 130.952 130.39 129.914 130.686 129.562 C 130.849 129.366 130.889 129.313 131.045 129.202 C 131.233 129.069 131.55 129.067 131.764 128.842 C 132.048 128.546 132.258 127.762 132.484 127.404 C 132.651 127.137 132.771 127.085 132.963 126.804 C 133.251 126.385 133.649 125.384 134.042 125.006 C 134.342 124.717 134.564 124.527 135.001 124.527 Z M 131.095 95.996 C 131.647 95.943 132.422 96.023 133.253 96.476 C 134.486 97.148 136.945 99.218 137.688 100.432 C 138.209 101.283 138.301 102.148 138.168 102.829 C 138.047 103.445 137.62 104.046 137.089 104.388 C 136.5 104.766 135.627 105.163 134.691 104.867 C 133.282 104.422 130.359 101.696 129.536 100.432 C 129.012 99.625 128.95 98.939 129.057 98.274 C 129.161 97.623 129.743 96.854 130.136 96.476 C 130.436 96.187 130.682 96.037 131.095 95.996 Z M 141.884 90.003 C 142.575 89.98 144.156 90.372 144.881 90.962 C 145.566 91.519 145.709 92.759 146.199 93.359 C 146.604 93.855 147.218 93.924 147.518 94.438 C 147.864 95.032 148.131 96.154 147.997 96.836 C 147.877 97.451 147.45 98.052 146.918 98.394 C 146.33 98.772 145.23 99.027 144.521 98.873 C 143.838 98.725 143.076 97.851 142.723 97.555 C 142.527 97.391 142.54 97.457 142.363 97.195 C 141.905 96.515 139.87 93.469 139.846 92.28 C 139.83 91.474 140.532 90.86 140.925 90.482 C 141.225 90.193 141.434 90.018 141.884 90.003 Z M 95.899 232.966 C 95.171 238.666 93.335 244.526 90.675 249.29 C 88.105 253.894 82.333 259.867 80.391 261.206 C 79.601 261.751 79.314 261.577 78.759 261.533 C 78.172 261.486 77.372 261.36 76.963 260.88 C 76.484 260.316 75.939 259.362 76.31 258.105 C 76.992 255.796 83.276 249.033 84.309 247.821 C 84.628 247.446 84.553 247.758 84.799 247.331 C 85.619 245.908 89.083 238.269 90.022 234.272 C 90.825 230.856 90.675 227.96 90.675 224.804 C 90.675 223.906 90.611 222.865 90.522 221.802 C 90.417 221.717 90.326 221.629 90.253 221.539 C 89.659 220.805 89.903 219.203 89.927 218.274 C 89.935 217.96 90.023 217.728 90.11 217.5 C 90.037 216.681 89.992 215.995 90.008 215.544 C 89.296 213.82 87.404 211.228 86.662 208.806 C 85.713 205.705 84.962 199.836 85.03 198.359 C 85.055 197.813 85.148 197.775 85.356 197.543 C 85.6 197.27 85.959 196.96 86.499 196.89 C 87.296 196.786 88.843 196.404 89.927 197.543 C 91.988 199.708 94.74 209.962 95.477 214.03 C 95.714 215.337 95.828 216.481 95.831 217.485 C 96.52 221.619 96.466 228.529 95.899 232.966 Z M 364.287 71.408 C 364.992 71.315 366.698 71.52 367.29 72.03 C 367.795 72.465 367.974 73.048 367.911 73.997 C 367.805 75.623 366.112 79.803 365.219 81.453 C 364.63 82.541 364.168 83.241 363.459 83.628 C 362.804 83.984 361.828 84.04 361.18 83.835 C 360.56 83.638 359.914 83.016 359.627 82.489 C 359.363 82.003 359.256 81.684 359.42 80.832 C 359.751 79.115 362.313 73.251 363.251 72.03 C 363.661 71.497 363.801 71.473 364.287 71.408 Z M 374.642 73.272 C 375.371 73.187 377.041 73.29 377.645 73.894 C 378.249 74.498 378.384 75.591 378.267 76.897 C 378.091 78.843 376.434 83.109 375.574 84.767 C 375.042 85.793 374.676 86.376 374.021 86.734 C 373.389 87.08 372.39 87.147 371.743 86.941 C 371.122 86.745 370.477 86.123 370.189 85.595 C 369.925 85.11 369.849 84.828 369.982 83.938 C 370.263 82.073 372.534 75.238 373.503 73.894 C 373.921 73.314 374.126 73.333 374.642 73.272 Z M 384.077 75.804 C 384.806 75.719 386.478 75.837 387.08 76.425 C 387.665 76.997 387.774 77.975 387.701 79.221 C 387.591 81.117 386.244 85.274 385.423 87.091 C 384.865 88.327 384.395 89.234 383.663 89.68 C 383.017 90.073 382.032 90.092 381.385 89.887 C 380.764 89.69 380.118 89.068 379.831 88.541 C 379.567 88.055 379.504 87.785 379.624 86.884 C 379.878 84.97 381.982 77.807 382.938 76.425 C 383.345 75.837 383.56 75.864 384.077 75.804 Z M 64.263 308.662 C 65.376 308.456 69.891 308.319 71.202 308.662 C 71.918 308.849 72.178 309.064 72.455 309.53 C 72.795 310.1 72.998 311.351 72.841 312.036 C 72.704 312.632 72.516 313.16 71.781 313.481 C 70.476 314.052 65.646 314.01 64.263 313.674 C 63.532 313.497 63.287 313.272 63.01 312.807 C 62.67 312.236 62.487 310.958 62.624 310.301 C 62.736 309.765 63.184 309.323 63.492 309.048 C 63.737 308.829 63.78 308.752 64.263 308.662 Z M 63.492 321.385 C 64.564 321.185 68.783 321.052 70.046 321.385 C 70.75 321.571 71.022 321.787 71.299 322.252 C 71.639 322.823 71.842 324.074 71.684 324.758 C 71.548 325.354 71.348 325.885 70.624 326.204 C 69.366 326.759 64.828 326.723 63.492 326.397 C 62.771 326.221 62.516 325.995 62.239 325.529 C 61.899 324.959 61.716 323.681 61.853 323.023 C 61.965 322.487 62.413 322.045 62.721 321.77 C 62.966 321.551 63.015 321.474 63.492 321.385 Z M 63.877 331.216 C 64.778 331.042 67.172 330.942 68.889 331.216 C 70.731 331.511 73.674 332.078 74.576 333.047 C 75.235 333.755 75.129 335.025 74.961 335.746 C 74.82 336.356 74.487 336.898 73.901 337.192 C 73.138 337.575 71.88 337.548 70.431 337.385 C 68.402 337.156 63.755 336.436 62.624 335.361 C 61.913 334.684 62.101 333.512 62.239 332.855 C 62.351 332.318 62.798 331.877 63.106 331.602 C 63.351 331.383 63.432 331.302 63.877 331.216 Z M 84.118 283.795 C 84.759 283.769 86.54 283.989 87.106 284.663 C 87.685 285.352 87.486 286.505 87.491 287.94 C 87.498 290.036 87.239 294.85 86.72 296.422 C 86.442 297.264 86.176 297.586 85.66 297.867 C 85.088 298.179 83.968 298.216 83.347 298.06 C 82.822 297.928 82.388 297.814 82.094 297.193 C 81.567 296.078 81.623 292.672 81.708 290.639 C 81.786 288.777 82.087 286.517 82.479 285.434 C 82.718 284.774 83.039 284.456 83.347 284.181 C 83.592 283.962 83.734 283.811 84.118 283.795 Z M 94.335 284.374 C 94.976 284.348 96.708 284.377 97.322 285.241 C 98.16 286.42 97.724 289.934 97.708 291.988 C 97.694 293.812 97.695 295.896 97.322 297 C 97.076 297.73 96.778 298.165 96.262 298.446 C 95.691 298.757 94.57 298.794 93.949 298.638 C 93.424 298.507 92.987 298.365 92.696 297.771 C 92.207 296.771 92.315 294.1 92.311 292.181 C 92.305 290.185 92.327 287.225 92.696 286.012 C 92.907 285.319 93.256 285.034 93.563 284.759 C 93.809 284.54 93.951 284.389 94.335 284.374 Z M 104.551 286.88 C 105.193 286.853 106.977 287.088 107.539 287.747 C 108.101 288.406 107.944 289.514 107.925 290.831 C 107.898 292.694 107.502 296.419 106.961 298.156 C 106.585 299.364 106.191 300.309 105.515 300.759 C 104.903 301.166 103.823 301.108 103.202 300.952 C 102.677 300.82 102.228 300.571 101.949 300.084 C 101.587 299.453 101.551 298.459 101.563 297.193 C 101.582 295.337 102.02 291.402 102.527 289.675 C 102.863 288.529 103.369 287.701 103.78 287.265 C 104.04 286.99 104.167 286.895 104.551 286.88 Z M 118.816 310.397 C 120.137 310.178 125.275 310.209 127.876 310.59 C 130.07 310.911 132.669 311.317 133.563 312.228 C 134.2 312.878 134.105 314.05 133.948 314.734 C 133.811 315.331 133.441 315.892 132.888 316.18 C 132.218 316.529 131.403 316.401 129.997 316.373 C 127.578 316.325 120.613 315.952 118.816 315.409 C 118.008 315.165 117.84 315.007 117.563 314.542 C 117.223 313.971 117.04 312.693 117.177 312.036 C 117.29 311.5 117.737 311.058 118.045 310.783 C 118.29 310.564 118.3 310.483 118.816 310.397 Z M 121.515 321.77 C 123.731 321.578 129.694 321.357 131.346 321.77 C 132.129 321.967 132.322 322.173 132.599 322.638 C 132.939 323.208 133.142 324.459 132.984 325.144 C 132.848 325.74 132.77 326.241 131.924 326.59 C 130.082 327.349 121.329 327.406 119.394 326.975 C 118.561 326.79 118.418 326.573 118.141 326.108 C 117.802 325.537 117.618 324.259 117.756 323.602 C 117.868 323.066 118.138 322.649 118.623 322.349 C 119.255 321.957 120.146 321.89 121.515 321.77 Z M 118.43 334.108 C 119.788 333.866 125.758 333.707 127.876 334.108 C 129.226 334.363 130.151 334.692 130.671 335.361 C 131.154 335.98 131.214 337.182 131.057 337.867 C 130.92 338.463 130.525 339.029 129.997 339.312 C 129.391 339.637 128.69 339.494 127.491 339.505 C 125.487 339.524 119.996 339.558 118.43 339.12 C 117.664 338.905 117.455 338.717 117.178 338.252 C 116.838 337.682 116.654 336.403 116.792 335.746 C 116.904 335.21 117.352 334.768 117.659 334.493 C 117.905 334.274 117.91 334.2 118.43 334.108 Z M 98.768 344.324 C 99.41 344.298 101.183 344.491 101.756 345.192 C 102.369 345.941 102.244 347.403 102.142 348.854 C 102.01 350.722 101.172 354.251 100.6 355.601 C 100.266 356.388 100.055 356.766 99.539 357.047 C 98.968 357.358 97.847 357.396 97.226 357.24 C 96.701 357.108 96.257 356.912 95.973 356.372 C 95.552 355.573 95.395 353.928 95.588 352.324 C 95.84 350.223 97.319 345.67 97.997 344.71 C 98.275 344.315 98.384 344.34 98.768 344.324 Z M 89.708 343.553 C 90.35 343.527 92.138 343.777 92.696 344.421 C 93.24 345.048 93.159 345.935 93.082 347.312 C 92.953 349.621 91.677 355.921 90.961 357.722 C 90.61 358.605 90.416 358.886 89.901 359.167 C 89.329 359.479 88.209 359.516 87.588 359.36 C 87.063 359.228 86.618 359.025 86.335 358.493 C 85.923 357.72 85.853 356.191 85.949 354.637 C 86.075 352.595 86.893 349.016 87.491 347.119 C 87.928 345.735 88.476 344.467 88.937 343.939 C 89.201 343.637 89.324 343.569 89.708 343.553 Z M 78.335 342.011 C 78.976 341.985 80.75 342.178 81.323 342.878 C 81.936 343.628 81.793 345.022 81.708 346.541 C 81.593 348.618 80.796 352.819 80.166 354.445 C 79.79 355.415 79.499 355.937 78.913 356.276 C 78.317 356.621 77.221 356.625 76.6 356.469 C 76.075 356.337 75.626 356.088 75.347 355.601 C 74.985 354.97 74.899 354.038 74.961 352.71 C 75.06 350.605 76.107 345.215 76.696 343.65 C 76.983 342.888 77.256 342.672 77.564 342.397 C 77.809 342.178 77.951 342.027 78.335 342.011 Z M 86.999 535.545 C 87.731 535.532 88.772 535.825 89.288 536.353 C 89.815 536.891 89.803 538.333 90.096 538.777 C 90.268 539.037 90.369 538.894 90.635 539.181 C 91.25 539.845 93.251 542.96 93.867 543.625 C 94.132 543.912 94.206 543.801 94.405 544.029 C 94.717 544.385 95.082 545.366 95.483 545.779 C 95.813 546.12 96.246 546.039 96.56 546.453 C 97.012 547.048 97.749 548.558 97.637 549.415 C 97.535 550.197 96.787 551.059 96.156 551.435 C 95.56 551.79 94.672 551.915 94.001 551.705 C 93.272 551.476 92.868 550.899 91.981 549.954 C 90.457 548.329 86.708 544.171 85.517 541.874 C 84.668 540.236 84.397 538.518 84.44 537.565 C 84.466 536.977 84.631 536.674 84.979 536.353 C 85.402 535.961 86.297 535.556 86.999 535.545 Z M 97.503 529.888 C 98.36 529.947 99.752 530.889 100.331 531.37 C 100.717 531.69 100.744 532.007 101.004 532.312 C 101.279 532.636 101.695 532.927 101.947 533.255 C 102.179 533.557 102.214 533.906 102.485 534.198 C 102.806 534.543 103.53 534.892 103.832 535.141 C 104.03 535.303 104.049 535.305 104.236 535.545 C 104.61 536.023 105.488 537.761 105.987 538.238 C 106.287 538.525 106.567 538.311 106.795 538.642 C 107.19 539.217 107.749 541.326 107.603 542.143 C 107.499 542.725 107.152 543.099 106.66 543.355 C 106.043 543.677 104.723 543.854 103.967 543.625 C 103.259 543.41 103.02 542.96 102.216 542.143 C 100.772 540.674 96.841 536.476 95.752 534.602 C 95.094 533.471 94.919 532.604 94.944 531.908 C 94.962 531.394 95.135 531.018 95.483 530.696 C 95.906 530.305 96.767 529.838 97.503 529.888 Z M 106.121 525.848 C 106.854 525.836 107.914 526.276 108.411 526.656 C 108.794 526.95 108.787 527.407 109.084 527.734 C 109.404 528.086 110.014 528.43 110.296 528.676 C 110.486 528.842 110.505 528.86 110.7 529.08 C 111.068 529.495 111.966 530.827 112.451 531.235 C 112.76 531.496 113.055 531.452 113.259 531.639 C 113.452 531.816 113.518 532.126 113.663 532.312 C 113.79 532.477 113.886 532.448 114.067 532.716 C 114.468 533.313 116.006 535.466 115.952 536.487 C 115.908 537.316 115.102 538.131 114.471 538.507 C 113.875 538.862 113.01 539.002 112.316 538.777 C 111.521 538.518 110.955 537.683 110.027 536.757 C 108.702 535.433 105.759 531.997 105.044 531.235 C 104.788 530.962 104.79 531.088 104.64 530.831 C 104.342 530.323 103.563 528.612 103.563 527.868 C 103.563 527.342 103.754 526.978 104.101 526.656 C 104.525 526.265 105.42 525.86 106.121 525.848 Z M 146.253 523.155 C 147.549 522.914 148.299 523.419 148.811 523.963 C 149.297 524.479 149.515 525.518 149.35 526.252 C 149.171 527.049 148.756 527.638 147.599 528.542 C 145.387 530.271 136.891 535.251 134.671 535.275 C 133.612 535.287 133.251 534.383 132.92 533.794 C 132.613 533.247 132.581 532.45 132.651 531.908 C 132.711 531.44 132.608 531.25 133.19 530.696 C 134.729 529.231 143.665 523.636 146.253 523.155 Z M 152.986 532.313 C 154.25 532.075 155.032 532.577 155.545 533.121 C 156.031 533.637 156.264 534.654 156.083 535.41 C 155.878 536.272 155.307 536.999 154.063 537.969 C 151.876 539.673 144.309 544.15 142.212 544.163 C 141.177 544.17 140.793 543.271 140.462 542.682 C 140.154 542.135 140.072 541.365 140.192 540.797 C 140.309 540.246 140.388 539.971 141.135 539.315 C 142.838 537.821 150.555 532.77 152.986 532.313 Z M 137.903 557.091 C 138.924 557.188 140.957 558.697 141.539 559.111 C 141.802 559.299 141.728 559.351 141.943 559.515 C 142.302 559.791 143.338 560.282 143.694 560.593 C 143.922 560.792 143.914 560.886 144.098 561.131 C 144.383 561.512 144.89 562.355 145.31 562.748 C 145.658 563.073 145.991 562.962 146.387 563.421 C 147.082 564.226 148.843 566.831 148.811 568 C 148.787 568.873 147.933 569.649 147.33 570.02 C 146.789 570.352 146.153 570.546 145.445 570.289 C 144.405 569.912 142.609 567.873 141.808 566.922 C 141.246 566.254 141.364 565.866 140.731 565.172 C 139.722 564.063 136.351 562.166 135.614 560.997 C 135.166 560.286 135.275 559.653 135.344 559.111 C 135.405 558.643 135.536 558.221 135.883 557.899 C 136.307 557.508 137.116 557.017 137.903 557.091 Z M 131.978 563.286 C 132.768 563.263 134.076 563.798 134.536 564.094 C 134.801 564.265 134.75 564.366 134.94 564.633 C 135.268 565.092 135.949 566.248 136.422 566.788 C 136.794 567.212 137.136 567.435 137.499 567.73 C 137.854 568.018 138.316 568.315 138.576 568.538 C 138.761 568.696 138.856 568.767 138.98 568.942 C 139.13 569.153 139.142 569.471 139.384 569.75 C 139.719 570.135 140.659 570.671 141 570.962 C 141.207 571.138 141.22 571.096 141.404 571.366 C 141.822 571.977 143.469 574.225 143.425 575.272 C 143.389 576.107 142.546 576.921 141.943 577.292 C 141.403 577.624 140.925 577.93 140.058 577.561 C 138.258 576.796 133.346 571.627 131.574 569.346 C 130.361 567.785 129.508 566.228 129.419 565.306 C 129.365 564.745 129.61 564.416 129.958 564.094 C 130.381 563.702 131.251 563.308 131.978 563.286 Z M 126.86 571.905 C 127.658 571.939 128.957 572.81 129.419 573.117 C 129.662 573.279 129.63 573.366 129.823 573.521 C 130.104 573.747 130.758 574.074 131.035 574.329 C 131.238 574.516 131.274 574.648 131.439 574.868 C 131.656 575.157 131.958 575.668 132.247 575.945 C 132.501 576.188 132.818 576.236 133.055 576.484 C 133.319 576.759 133.459 577.311 133.728 577.561 C 133.963 577.779 134.332 577.778 134.536 577.965 C 134.729 578.142 134.761 578.459 134.94 578.638 C 135.12 578.818 135.434 578.863 135.614 579.042 C 135.793 579.222 135.821 579.506 136.018 579.716 C 136.247 579.96 136.723 580.021 136.96 580.389 C 137.269 580.866 137.637 581.863 137.499 582.544 C 137.355 583.258 136.649 584.188 136.018 584.564 C 135.422 584.919 134.584 585.048 133.863 584.833 C 133.014 584.581 131.848 583.367 131.304 582.813 C 130.945 582.447 131.066 582.354 130.631 581.87 C 130.375 581.585 129.898 581.158 129.32 580.657 C 129.472 581.136 129.518 581.684 129.419 582.122 C 129.24 582.919 128.894 583.831 127.668 584.412 C 125.393 585.49 116.477 586.284 114.202 585.758 C 113.083 585.5 112.782 584.866 112.451 584.277 C 112.143 583.73 112.112 582.934 112.182 582.392 C 112.242 581.923 112.087 581.549 112.72 581.18 C 114.348 580.231 124.029 578.9 126.591 579.025 C 126.97 579.044 127.285 579.076 127.553 579.127 C 126.398 578.112 125.278 577.064 124.84 576.349 C 124.264 575.408 124.25 574.571 124.302 573.925 C 124.341 573.423 124.493 573.034 124.84 572.713 C 125.264 572.321 126.142 571.874 126.86 571.905 Z M 94.271 559.094 C 95.003 559.082 95.898 559.008 96.56 559.902 C 97.827 561.612 99.552 569.673 99.253 571.888 C 99.095 573.06 98.375 573.537 97.772 573.908 C 97.231 574.24 96.473 574.351 95.887 574.177 C 95.255 573.989 94.687 573.572 94.136 572.696 C 93.243 571.276 92.07 567.504 91.712 565.423 C 91.428 563.771 91.535 562.065 91.712 561.114 C 91.822 560.521 91.903 560.224 92.251 559.902 C 92.674 559.51 93.569 559.106 94.271 559.094 Z M 84.844 558.825 C 85.577 558.813 86.505 558.688 87.133 559.633 C 88.41 561.554 89.711 571.303 89.288 573.773 C 89.077 575.003 88.41 575.422 87.807 575.793 C 87.266 576.126 86.508 576.236 85.921 576.062 C 85.289 575.875 84.663 575.643 84.171 574.581 C 83.159 572.4 82.132 562.875 82.285 560.845 C 82.345 560.051 82.476 559.954 82.824 559.633 C 83.248 559.241 84.143 558.836 84.844 558.825 Z M 75.417 562.057 C 76.15 562.045 77.19 562.326 77.706 562.865 C 78.244 563.426 78.348 564.195 78.514 565.423 C 78.783 567.407 79.026 572.5 78.514 574.312 C 78.206 575.403 77.636 575.961 77.033 576.332 C 76.493 576.664 75.734 576.775 75.148 576.601 C 74.516 576.413 73.811 576.124 73.397 575.12 C 72.62 573.235 72.619 565.841 72.858 564.077 C 72.961 563.321 73.049 563.186 73.397 562.865 C 73.821 562.473 74.716 562.068 75.417 562.057 Z M 125.783 587.105 C 127.465 586.967 128.983 587.272 129.688 587.913 C 130.259 588.432 130.374 589.492 130.227 590.202 C 130.076 590.931 129.783 591.615 128.746 592.222 C 126.83 593.345 119.461 595.229 117.434 594.916 C 116.374 594.752 116.014 594.023 115.683 593.434 C 115.375 592.888 115.344 592.091 115.414 591.549 C 115.474 591.08 115.388 590.762 115.952 590.337 C 117.237 589.37 123.321 587.308 125.783 587.105 Z M 131.978 597.34 C 133.42 597.261 134.253 597.583 134.806 598.148 C 135.311 598.664 135.491 599.727 135.344 600.437 C 135.194 601.166 134.959 601.801 133.863 602.457 C 131.65 603.783 122.193 606.52 119.858 606.228 C 118.741 606.088 118.438 605.335 118.107 604.747 C 117.8 604.2 117.717 603.43 117.838 602.861 C 117.954 602.311 117.974 601.903 118.78 601.38 C 120.619 600.186 129.3 597.487 131.978 597.34 Z M 110.7 623.463 C 111.433 623.451 112.286 623.352 112.99 624.271 C 114.398 626.111 116.748 635.226 116.491 637.603 C 116.361 638.805 115.613 639.252 115.01 639.623 C 114.469 639.956 113.711 640.066 113.124 639.892 C 112.492 639.705 111.965 639.343 111.373 638.411 C 110.32 636.75 108.579 631.583 108.141 629.254 C 107.841 627.658 107.977 626.352 108.141 625.483 C 108.25 624.911 108.333 624.592 108.68 624.271 C 109.104 623.879 109.999 623.474 110.7 623.463 Z M 97.772 625.348 C 98.505 625.336 99.433 625.228 100.061 626.156 C 101.31 628 102.615 637.113 102.216 639.488 C 102.013 640.699 101.338 641.137 100.735 641.508 C 100.194 641.841 99.498 641.994 98.849 641.778 C 98.029 641.504 96.904 640.88 96.291 639.488 C 95.273 637.179 95.01 629.241 95.213 627.368 C 95.297 626.596 95.404 626.478 95.752 626.156 C 96.176 625.764 97.071 625.36 97.772 625.348 Z M 85.652 626.156 C 86.385 626.144 87.312 626.042 87.941 626.964 C 89.181 628.782 90.487 637.683 90.096 640.027 C 89.895 641.231 89.218 641.676 88.615 642.047 C 88.074 642.38 87.316 642.49 86.729 642.316 C 86.097 642.129 85.473 641.873 84.979 640.835 C 83.996 638.77 82.957 630.103 83.093 628.176 C 83.148 627.398 83.284 627.286 83.632 626.964 C 84.056 626.572 84.951 626.168 85.652 626.156 Z M 72.185 611.881 C 73.342 611.842 74.001 612.145 74.474 612.689 C 74.962 613.25 75.177 614.48 75.013 615.248 C 74.852 616.003 74.532 616.672 73.532 617.268 C 71.774 618.315 65.43 619.986 63.566 619.692 C 62.543 619.531 62.147 618.8 61.816 618.211 C 61.508 617.664 61.477 616.867 61.546 616.325 C 61.607 615.857 61.515 615.537 62.085 615.113 C 63.393 614.14 70.099 611.953 72.185 611.881 Z M 69.222 602.185 C 70.658 602.174 71.727 602.409 72.32 602.993 C 72.843 603.51 73.005 604.572 72.858 605.283 C 72.708 606.011 72.399 606.763 71.377 607.303 C 69.555 608.265 62.802 609.321 60.873 608.919 C 59.828 608.701 59.453 608.026 59.122 607.437 C 58.815 606.891 58.783 606.094 58.853 605.552 C 58.913 605.083 58.819 604.718 59.392 604.34 C 60.68 603.49 66.953 602.203 69.222 602.185 Z M 68.414 590.604 C 69.605 590.579 70.231 590.867 70.704 591.412 C 71.191 591.973 71.407 593.202 71.242 593.97 C 71.081 594.726 70.793 595.399 69.761 595.991 C 67.876 597.071 60.713 598.747 58.718 598.415 C 57.664 598.239 57.299 597.522 56.968 596.933 C 56.66 596.387 56.629 595.59 56.698 595.048 C 56.758 594.579 56.648 594.254 57.237 593.836 C 58.64 592.839 66.186 590.65 68.414 590.604 Z M 68.509 438.437 C 69.118 438.465 70.854 438.315 71.643 439.78 C 73.379 443.005 73.776 457.215 73.135 464.251 C 72.596 470.166 70.504 477.937 69.106 479.619 C 68.519 480.325 67.906 480.056 67.316 479.918 C 66.661 479.764 65.765 479.279 65.376 478.575 C 64.916 477.741 64.934 476.671 65.078 474.994 C 65.314 472.229 67.386 465.979 67.763 462.758 C 68.038 460.413 67.865 459.656 67.763 457.088 C 67.607 453.129 65.979 442.942 66.57 440.377 C 66.828 439.255 67.546 439.044 67.913 438.736 C 68.144 438.541 68.192 438.423 68.509 438.437 Z M 49.863 800.743 C 50.483 800.721 51.465 800.629 51.959 801.185 C 52.63 801.939 52.766 804.461 52.841 805.707 C 52.899 806.673 52.644 807.076 52.621 808.134 C 52.588 809.669 53.23 812.931 52.841 814.312 C 52.577 815.251 51.955 815.853 51.407 816.187 C 50.943 816.47 50.405 816.545 49.863 816.408 C 49.204 816.241 48.243 815.992 47.767 814.974 C 46.932 813.185 47.044 807.025 47.326 804.604 C 47.51 803.021 47.879 801.778 48.429 801.185 C 48.816 800.766 49.325 800.763 49.863 800.743 Z M 56.923 800.964 C 57.543 800.942 58.52 801.035 59.019 801.405 C 59.492 801.756 59.679 802.065 59.901 803.06 C 60.374 805.175 60.904 813.214 60.343 815.415 C 60.053 816.55 59.457 816.957 58.908 817.29 C 58.444 817.573 57.906 817.648 57.364 817.511 C 56.706 817.344 55.767 817.163 55.268 816.077 C 54.308 813.988 54.238 805.248 54.606 803.06 C 54.776 802.052 55.075 801.753 55.489 801.405 C 55.867 801.087 56.385 800.984 56.923 800.964 Z M 68.175 801.405 C 68.794 801.383 69.771 801.476 70.271 801.847 C 70.744 802.198 70.955 802.52 71.153 803.501 C 71.566 805.541 71.747 813.072 71.153 815.194 C 70.84 816.313 70.267 816.736 69.719 817.07 C 69.255 817.352 68.717 817.427 68.175 817.29 C 67.516 817.123 66.549 816.927 66.079 815.856 C 65.194 813.84 65.456 805.616 65.858 803.501 C 66.047 802.506 66.327 802.194 66.741 801.847 C 67.119 801.529 67.637 801.425 68.175 801.405 Z M 84.722 818.393 C 87.663 818.083 92.411 817.884 93.877 818.835 C 94.802 819.434 94.889 820.799 94.76 821.592 C 94.641 822.324 94.243 823.064 93.326 823.468 C 91.836 824.125 87.972 823.352 85.383 823.688 C 82.826 824.02 79.523 825.677 77.882 825.453 C 76.83 825.31 76.156 824.605 75.786 824.019 C 75.465 823.512 75.46 822.819 75.566 822.254 C 75.673 821.678 75.728 821.098 76.448 820.6 C 77.77 819.685 81.859 818.695 84.722 818.393 Z M 79.206 829.204 C 81.337 828.921 89.845 828.534 91.671 829.645 C 92.689 830.265 92.683 831.609 92.554 832.403 C 92.435 833.135 92.152 833.841 91.12 834.278 C 89.131 835.121 81.246 835.251 78.985 834.72 C 77.776 834.436 77.259 833.871 76.889 833.286 C 76.569 832.778 76.563 832.085 76.669 831.521 C 76.776 830.944 77.121 830.253 77.551 829.866 C 77.972 829.487 78.228 829.334 79.206 829.204 Z M 79.647 840.897 C 81.674 840.701 90.286 840.227 92.112 841.338 C 93.131 841.958 93.124 843.302 92.995 844.096 C 92.876 844.828 92.589 845.548 91.561 845.971 C 89.597 846.781 81.88 846.743 79.647 846.192 C 78.444 845.895 77.921 845.343 77.551 844.758 C 77.23 844.25 77.225 843.557 77.331 842.993 C 77.438 842.417 77.8 841.686 78.213 841.338 C 78.591 841.021 78.778 840.981 79.647 840.897 Z M 64.645 852.297 C 65.264 852.274 66.018 851.956 66.741 852.738 C 68.319 854.448 71.95 864.549 71.815 866.969 C 71.751 868.12 70.955 868.505 70.381 868.844 C 69.869 869.146 69.212 869.218 68.616 869.064 C 67.928 868.888 67.235 868.607 66.52 867.63 C 65.249 865.895 63.131 860.06 62.549 857.702 C 62.184 856.226 62.155 855.268 62.328 854.393 C 62.466 853.697 62.797 853.086 63.211 852.738 C 63.589 852.42 64.107 852.317 64.645 852.297 Z M 55.158 856.048 C 55.778 856.025 56.601 855.705 57.254 856.489 C 58.637 858.15 61.051 867.714 60.784 870.057 C 60.653 871.206 59.923 871.594 59.35 871.933 C 58.838 872.235 58.181 872.306 57.585 872.153 C 56.897 871.977 56.125 871.668 55.489 870.719 C 54.434 869.146 53.211 864.383 52.841 862.115 C 52.575 860.48 52.613 859.135 52.841 858.144 C 53.01 857.409 53.31 856.836 53.724 856.489 C 54.102 856.171 54.62 856.067 55.158 856.048 Z M 35.964 843.913 C 37.246 843.842 39.044 843.738 39.824 844.355 C 40.519 844.903 40.836 846.318 40.707 847.112 C 40.588 847.844 40.104 848.556 39.273 848.988 C 38.084 849.605 34.901 849.943 33.537 849.649 C 32.554 849.438 31.811 848.801 31.441 848.215 C 31.12 847.708 31.115 847.015 31.22 846.45 C 31.328 845.874 31.527 845.205 32.103 844.796 C 32.878 844.243 34.672 843.985 35.964 843.913 Z M 36.405 832.661 C 37.545 832.583 38.925 832.54 39.604 833.103 C 40.253 833.641 40.615 835.067 40.486 835.86 C 40.368 836.592 39.857 837.24 39.052 837.736 C 37.927 838.429 35.052 839.246 33.757 839.06 C 32.804 838.922 32.041 838.257 31.661 837.625 C 31.302 837.028 31.314 836.079 31.441 835.419 C 31.56 834.802 31.74 834.196 32.323 833.765 C 33.13 833.167 35.135 832.749 36.405 832.661 Z M 33.978 823.836 C 35.184 823.734 38.573 823.534 39.604 824.278 C 40.393 824.847 40.615 826.242 40.486 827.035 C 40.368 827.767 39.855 828.528 39.052 828.911 C 37.961 829.431 35.232 829.459 33.978 829.131 C 33.028 828.883 32.252 828.283 31.882 827.697 C 31.561 827.19 31.556 826.497 31.661 825.932 C 31.769 825.356 32.13 824.625 32.544 824.278 C 32.922 823.96 33.268 823.897 33.978 823.836 Z M 112.436 990.265 C 113.332 990.012 114.124 990.032 114.709 990.265 C 115.218 990.467 115.605 990.86 115.845 991.401 C 116.145 992.075 116.657 993.125 116.098 994.179 C 115.137 995.99 109.315 999.038 107.512 1000.744 C 106.376 1001.819 106.175 1002.935 105.366 1003.395 C 104.677 1003.787 103.752 1003.846 103.094 1003.647 C 102.452 1003.454 101.673 1002.966 101.452 1002.259 C 101.17 1001.354 101.816 998.954 102.21 998.345 C 102.422 998.017 102.688 998.22 102.967 997.966 C 103.406 997.567 103.858 996.427 104.482 995.82 C 105.117 995.203 106.169 994.853 106.755 994.305 C 107.261 993.832 107.259 993.318 107.891 992.79 C 108.838 991.999 111.189 990.617 112.436 990.265 Z M 117.991 1001.196 C 119.252 1000.949 120.12 1001.493 120.643 1002.08 C 121.149 1002.648 121.324 1003.895 121.148 1004.605 C 120.983 1005.266 120.601 1005.513 119.759 1006.247 C 118.136 1007.659 112.65 1011.725 110.669 1012.559 C 109.614 1013.003 109.054 1013.01 108.396 1012.812 C 107.754 1012.618 106.991 1012.102 106.755 1011.423 C 106.47 1010.602 106.364 1009.229 107.26 1008.014 C 108.77 1005.966 115.681 1001.649 117.991 1001.196 Z M 123.799 1010.718 C 124.811 1010.304 125.694 1010.47 126.324 1010.718 C 126.85 1010.924 127.222 1011.329 127.46 1011.854 C 127.747 1012.485 128.243 1013.333 127.713 1014.379 C 126.703 1016.372 120.077 1021.558 117.991 1022.585 C 116.941 1023.102 116.377 1023.036 115.719 1022.838 C 115.077 1022.644 114.32 1022.144 114.078 1021.449 C 113.776 1020.586 113.999 1018.678 114.583 1017.788 C 115.136 1016.945 116.883 1016.5 117.36 1016.147 C 117.593 1015.974 117.47 1016.008 117.739 1015.768 C 118.529 1015.064 122.203 1011.371 123.799 1010.718 Z M 73.803 990.265 C 74.417 989.982 75.3 989.983 76.076 990.265 C 77.017 990.607 77.875 991.364 78.979 992.537 C 80.616 994.276 83.636 998.151 84.787 1000.491 C 85.662 1002.27 86.53 1004.26 86.05 1005.289 C 85.623 1006.201 83.524 1006.789 82.641 1006.678 C 81.929 1006.588 81.754 1006.143 80.999 1005.289 C 79.502 1003.592 75.553 997.264 74.056 995.567 C 73.301 994.713 72.691 994.779 72.414 994.179 C 72.132 993.565 72.175 992.563 72.414 991.906 C 72.648 991.263 73.203 990.541 73.803 990.265 Z M 65.47 997.587 C 66.084 997.305 67.158 997.355 67.743 997.587 C 68.252 997.79 68.612 998.456 68.879 998.724 C 69.052 998.896 69.01 998.807 69.258 999.102 C 70.077 1000.078 74.53 1005.203 75.697 1007.561 C 76.518 1009.22 77.198 1010.907 76.707 1011.854 C 76.239 1012.757 73.972 1013.368 73.046 1013.243 C 72.317 1013.144 71.911 1012.476 71.404 1011.854 C 70.8 1011.112 70.118 1009.442 69.763 1008.95 C 69.592 1008.714 69.62 1008.849 69.384 1008.571 C 68.679 1007.74 65.074 1003.735 64.334 1002.006 C 63.855 1000.888 63.851 999.987 64.082 999.229 C 64.289 998.545 64.87 997.864 65.47 997.587 Z M 57.643 1006.425 C 58.305 1006.124 59.35 1006.141 60.168 1006.425 C 61.082 1006.743 61.846 1007.453 62.819 1008.445 C 64.163 1009.815 66.454 1012.447 67.364 1014.379 C 68.133 1016.011 68.889 1018.148 68.374 1019.177 C 67.915 1020.093 65.848 1020.676 64.965 1020.565 C 64.253 1020.476 63.983 1019.959 63.324 1019.177 C 62.212 1017.856 60.336 1013.937 59.032 1012.485 C 58.13 1011.482 56.957 1011.373 56.506 1010.591 C 56.094 1009.876 56.039 1008.775 56.254 1008.066 C 56.455 1007.403 57.022 1006.707 57.643 1006.425 Z M 116.729 1044.301 C 117.364 1043.834 118.242 1043.833 119.254 1044.301 C 120.932 1045.077 123.945 1048.47 125.693 1050.487 C 127.217 1052.247 128.416 1054.623 129.354 1055.664 C 129.92 1056.292 130.459 1056.24 130.743 1056.8 C 131.082 1057.468 131.431 1058.893 130.995 1059.577 C 130.508 1060.342 128.689 1061.129 127.587 1060.966 C 126.412 1060.793 125.421 1059.595 124.178 1058.315 C 122.483 1056.569 120.127 1052.679 118.496 1050.866 C 117.303 1049.539 115.612 1049.082 115.34 1047.962 C 115.078 1046.883 115.972 1044.858 116.729 1044.301 Z M 107.639 1049.351 C 108.301 1049.05 109.462 1049.063 110.164 1049.351 C 110.842 1049.629 111.333 1050.428 111.805 1050.992 C 112.25 1051.524 112.575 1052.191 112.941 1052.633 C 113.245 1053 113.49 1053.14 113.825 1053.517 C 114.262 1054.009 114.972 1055.042 115.34 1055.411 C 115.555 1055.626 115.569 1055.524 115.845 1055.79 C 116.529 1056.448 119.001 1058.735 119.885 1060.335 C 120.684 1061.78 121.627 1063.892 121.148 1064.88 C 120.703 1065.797 118.453 1066.414 117.486 1066.269 C 116.678 1066.147 116.515 1065.605 115.593 1064.627 C 113.739 1062.663 107.625 1055.874 106.502 1053.517 C 105.941 1052.339 106.035 1051.701 106.25 1050.992 C 106.451 1050.329 107.018 1049.633 107.639 1049.351 Z M 98.296 1056.926 C 98.91 1056.643 99.581 1056.493 100.569 1056.926 C 102.37 1057.716 107.16 1062.458 108.27 1063.617 C 108.723 1064.091 108.615 1064.2 108.901 1064.501 C 109.251 1064.87 109.822 1065.125 110.29 1065.637 C 110.871 1066.273 111.788 1067.345 112.058 1068.163 C 112.285 1068.853 112.464 1069.647 112.058 1070.183 C 111.528 1070.88 109.363 1071.717 108.396 1071.571 C 107.587 1071.45 107.021 1070.504 106.502 1069.93 C 106.029 1069.406 106.078 1069.054 105.366 1068.289 C 103.979 1066.8 98.576 1063.191 97.412 1061.345 C 96.726 1060.256 96.715 1059.327 96.907 1058.567 C 97.08 1057.886 97.696 1057.203 98.296 1056.926 Z M 65.723 1037.988 C 66.664 1037.656 67.41 1037.756 67.995 1037.988 C 68.505 1038.191 68.891 1038.584 69.132 1039.124 C 69.431 1039.799 69.933 1040.92 69.384 1041.902 C 68.5 1043.483 63.151 1045.86 61.809 1047.078 C 61.095 1047.727 61.207 1048.294 60.673 1048.593 C 60.096 1048.916 59.058 1049.044 58.4 1048.846 C 57.758 1048.652 56.96 1048.175 56.759 1047.457 C 56.494 1046.511 57.157 1044.076 57.769 1043.291 C 58.213 1042.721 59.186 1042.792 59.537 1042.533 C 59.761 1042.368 59.621 1042.291 59.915 1042.028 C 60.689 1041.337 64.241 1038.511 65.723 1037.988 Z M 71.783 1045.311 C 72.799 1044.906 73.47 1045.078 74.056 1045.311 C 74.565 1045.513 74.952 1045.906 75.192 1046.447 C 75.491 1047.121 75.979 1048.168 75.444 1049.225 C 74.545 1051.002 69.452 1054.684 67.49 1055.664 C 66.318 1056.248 65.472 1056.361 64.713 1056.169 C 64.032 1055.996 63.301 1055.443 63.072 1054.78 C 62.803 1054.003 62.816 1052.777 63.577 1051.623 C 64.794 1049.778 69.919 1046.053 71.783 1045.311 Z M 76.328 1051.623 C 77.31 1051.173 78.016 1051.391 78.601 1051.623 C 79.11 1051.826 79.497 1052.219 79.737 1052.76 C 80.036 1053.434 80.505 1054.392 79.989 1055.537 C 79.071 1057.576 73.455 1062.702 71.531 1063.744 C 70.532 1064.284 69.916 1064.195 69.258 1063.996 C 68.616 1063.802 67.81 1063.311 67.617 1062.607 C 67.368 1061.702 67.714 1060.123 68.627 1058.694 C 69.962 1056.603 74.521 1052.453 76.328 1051.623 Z M 681.66 87.865 C 682.051 87.78 682.711 87.699 683.193 87.865 C 683.709 88.043 684.322 88.315 684.641 88.972 C 685.109 89.939 685.02 92.226 684.982 93.742 C 684.946 95.171 684.863 96.838 684.47 97.831 C 684.173 98.583 683.747 99.151 683.193 99.449 C 682.64 99.746 681.74 99.79 681.149 99.619 C 680.584 99.457 680.01 99.096 679.701 98.512 C 679.311 97.775 679.362 96.543 679.36 95.275 C 679.357 93.695 679.45 90.846 679.871 89.654 C 680.139 88.895 680.637 88.5 680.978 88.206 C 681.219 87.998 681.364 87.93 681.66 87.865 Z M 693.414 89.398 C 693.805 89.313 694.465 89.232 694.947 89.398 C 695.463 89.577 696.058 89.716 696.395 90.506 C 697.034 92.003 697.19 97.835 696.736 99.534 C 696.484 100.475 696.013 100.855 695.458 101.153 C 694.905 101.45 694.006 101.493 693.414 101.323 C 692.85 101.16 692.303 101.005 691.966 100.216 C 691.327 98.718 691.206 92.825 691.625 91.187 C 691.846 90.323 692.391 90.033 692.732 89.739 C 692.973 89.532 693.118 89.463 693.414 89.398 Z M 704.146 89.058 C 704.537 88.972 705.197 88.891 705.679 89.058 C 706.195 89.236 706.785 89.334 707.127 90.165 C 707.828 91.865 707.977 99.14 707.468 101.067 C 707.206 102.057 706.745 102.388 706.19 102.686 C 705.637 102.983 704.738 103.026 704.146 102.856 C 703.582 102.694 703.04 102.58 702.698 101.749 C 701.998 100.048 701.888 92.703 702.357 90.846 C 702.587 89.939 703.123 89.692 703.465 89.398 C 703.705 89.191 703.85 89.122 704.146 89.058 Z" style="fill-opacity: 1; fill-rule: nonzero; stroke: rgb(5, 14, 26); stroke-dasharray: none; stroke-dashoffset: 0px; stroke-linecap: butt; stroke-linejoin: miter; stroke-miterlimit: 4; stroke-opacity: 1; paint-order: normal; vector-effect: none; opacity: 1; mix-blend-mode: normal; isolation: auto; stroke-width: 0px; fill: rgb(5, 14, 26);"><title>patchmarks1</title></path></g></svg>