<?xml version="1.0" encoding="utf-8"?>
<svg xmlns="http://www.w3.org/2000/svg" viewBox="0 0 420 520" xmlns:bx="https://boxy-svg.com" width="420px" height="520px"><defs><bx:guide x="10" y="10" angle="0"/><bx:guide x="10" y="10" angle="90"/><bx:guide x="250" y="370" angle="0"/><bx:guide x="250" y="370" angle="90"/><bx:export><bx:file format="svg"/></bx:export><bx:guide x="158.55" y="89.294" angle="90"/></defs><path stroke="rgb(255,0,0)" opacity="0.9607843137254902" d="M 126.507 59.939 C 133.809 58.333 142.8 59.171 148.82 59.939 C 149.924 60.08 150.838 60.289 151.663 60.537 C 162.095 59.948 172.288 60.491 180.173 62.602 C 181.346 62.916 182.421 63.313 183.426 63.77 C 189.444 63.796 195.62 63.902 201.098 64.402 C 215.025 65.673 228.026 69.204 243.176 70.777 C 253.071 71.805 266.434 73.045 277.952 73.701 C 277.87 72.626 277.86 71.535 277.921 70.458 C 278.15 66.4 279.83 59.71 281.746 57.389 C 283.046 55.816 284.868 55.504 286.528 55.476 C 288.262 55.448 290.788 55.826 291.947 57.389 C 293.428 59.385 293.648 65.148 293.222 67.908 C 292.89 70.063 290.496 72.041 290.672 73.009 C 290.785 73.626 291.398 73.919 292.266 73.965 C 293.873 74.05 298.232 71.362 300.554 71.415 C 301.724 71.441 302.893 71.697 303.855 72.182 C 305.121 71.612 306.474 71.062 308.842 70.777 C 317.505 69.736 336.952 69.813 347.094 70.777 C 354.74 71.504 360.236 72.099 365.582 74.602 C 370.682 76.991 375.215 80.776 378.652 85.122 C 382.161 89.559 384.766 94.032 386.302 101.06 C 388.395 110.63 385.657 128.757 386.94 139.312 C 387.961 147.717 391.097 151.986 392.04 160.351 C 393.217 170.785 392.257 185.558 392.04 197.966 C 391.826 210.206 390.346 218.644 390.765 234.305 C 391.366 256.762 397.823 304.122 397.778 323.56 C 397.751 334.988 395.711 337.523 395.228 347.149 C 394.592 359.82 396.651 377.819 395.228 394.327 C 393.694 412.12 388.895 437.329 385.665 450.43 C 383.558 458.975 382.776 462.504 379.289 468.918 C 375.151 476.533 369.446 487.081 361.12 492.826 C 352.097 499.05 339.996 501.206 326.055 503.664 C 308.866 506.695 282.024 508.837 264.214 507.489 C 249.279 506.359 236.184 500.327 225.325 498.564 C 216.804 497.18 211.149 496.205 203.648 496.651 C 195.672 497.125 186.544 500.944 178.784 501.751 C 171.764 502.482 166.883 501.971 159.021 501.751 C 148.984 501.471 134.555 501.349 122.681 499.839 C 110.973 498.349 98.855 497.156 88.254 492.826 C 77.722 488.524 66.543 482.233 59.247 474.018 C 52.053 465.921 48.517 455.307 44.583 444.054 C 40.223 431.582 37.458 424.339 35.02 401.977 C 30.327 358.923 29.502 216.557 29.282 180.115 C 29.189 164.623 28.961 162.591 29.92 153.976 C 30.877 145.378 32.421 136.87 35.02 128.474 C 37.687 119.863 41.474 110.17 45.858 102.973 C 49.803 96.499 54.687 91.014 59.565 86.716 C 63.986 82.82 67.511 80.328 73.591 77.79 C 81.447 74.511 95.03 73.325 104.193 70.14 C 112.479 67.259 118.922 61.607 126.507 59.939 Z" style="fill-opacity: 1; fill-rule: nonzero; stroke: rgb(5, 14, 26); stroke-dasharray: none; stroke-dashoffset: 0px; stroke-linecap: butt; stroke-linejoin: miter; stroke-miterlimit: 4; stroke-opacity: 1; paint-order: normal; vector-effect: none; opacity: 1; mix-blend-mode: normal; isolation: auto; fill: rgb(158, 119, 103); stroke-width: 5px;"/><path stroke="rgb(255,0,0)" stroke-width="0" opacity="0.9803921568627451" d="M 175.06 29.367 C 179.093 29.361 183.405 30.845 184.941 31.917 C 185.764 32.491 184.588 33.305 185.898 33.83 C 190.625 35.724 222.284 35.143 238.813 35.105 C 253.986 35.07 274.348 32.681 281.528 33.83 C 284.8 34.353 285.714 34.642 286.947 36.38 C 288.538 38.621 289.545 44.275 288.86 47.537 C 288.217 50.595 286.77 52.658 283.441 55.506 C 278.063 60.106 268.536 67.248 255.389 70.807 C 236.241 75.99 192.337 78.467 173.784 76.544 C 162.017 75.325 155.211 71.658 148.921 68.256 C 143.958 65.573 139.743 62.455 137.764 59.012 C 136.082 56.086 135.946 52.325 136.489 49.449 C 137.002 46.726 138.25 44.41 140.633 42.118 C 143.777 39.092 149.816 35.927 155.296 33.83 C 161.197 31.571 169.752 29.374 175.06 29.367 Z" style="fill-opacity: 1; fill-rule: nonzero; stroke: rgb(5, 14, 26); stroke-dasharray: none; stroke-dashoffset: 0px; stroke-linecap: butt; stroke-linejoin: miter; stroke-miterlimit: 4; stroke-opacity: 1; stroke-width: 5px; paint-order: normal; vector-effect: none; opacity: 1; mix-blend-mode: normal; isolation: auto; fill: rgb(5, 14, 26);"/><path stroke="rgb(255,0,0)" stroke-width="0" opacity="0.9333333333333333" d="M 392.678 354.728 C 393.878 355.938 394.328 358.053 393.953 359.829 C 393.887 360.142 393.782 360.463 393.646 360.79 C 394.911 369.777 394.673 384.804 393.953 389.155 C 393.857 389.736 393.755 390.219 393.64 390.631 C 393.89 392.211 394.017 393.771 394.011 394.995 C 395.26 397.222 395.414 398.448 395.228 399.993 C 395.046 401.495 394.307 403.224 392.996 404.137 C 391.449 405.215 388.051 405.99 385.984 405.412 C 383.904 404.832 381.761 401.928 380.564 400.631 C 379.752 399.751 379.55 398.943 378.971 398.4 C 378.475 397.934 377.818 397.785 377.377 397.443 C 376.988 397.142 377.01 397.155 376.421 396.487 C 374.755 394.6 366.984 384.367 364.945 382.461 C 364.125 381.695 363.817 382.241 363.351 381.505 C 362.494 380.152 360.993 375.66 361.438 373.217 C 361.858 370.914 363.61 369.131 365.582 367.16 C 367.993 364.751 373.675 361.943 375.464 360.147 C 376.489 359.119 376.067 358.529 377.058 357.597 C 378.362 356.372 381.283 353.972 383.794 352.945 C 384.229 352.679 384.716 352.518 385.346 352.497 C 385.827 352.43 386.345 352.42 386.879 352.458 C 388.212 352.468 389.84 352.657 391.058 353.616 C 391.718 353.948 392.281 354.328 392.678 354.728 Z" style="fill-opacity: 1; fill-rule: nonzero; stroke: rgb(5, 14, 26); stroke-dasharray: none; stroke-dashoffset: 0px; stroke-linecap: butt; stroke-linejoin: miter; stroke-miterlimit: 4; stroke-opacity: 1; stroke-width: 5px; paint-order: normal; vector-effect: none; opacity: 1; mix-blend-mode: normal; isolation: auto; fill: rgb(28, 117, 189);"/><path stroke="rgb(255,0,0)" stroke-width="0" opacity="0.9725490196078431" d="M 312.667 175.9 C 314.514 175.951 318.467 177.834 320.636 179.406 C 322.65 180.865 324.253 183.814 325.418 184.825 C 326.094 185.412 326.464 185.284 327.012 185.781 C 327.727 186.432 327.854 187.34 329.243 188.65 C 331.967 191.22 342.841 198.749 344.862 200.445 C 345.557 201.027 345.347 200.979 345.819 201.401 C 346.584 202.086 348.528 202.904 349.325 204.27 C 350.246 205.848 351.082 208.454 350.6 210.645 C 350.036 213.211 346.227 217.302 345.181 218.615 C 344.704 219.213 344.792 218.979 344.225 219.571 C 342.839 221.018 337.004 227.368 335.618 228.815 C 335.051 229.407 335.33 229.182 334.662 229.771 C 332.775 231.437 323.181 237.761 320.636 241.247 C 318.891 243.638 319.988 246.604 318.405 247.941 C 316.76 249.33 312.896 249.701 310.754 249.216 C 308.831 248.781 307.11 246.987 305.973 245.71 C 305.002 244.62 304.8 242.945 304.06 242.203 C 303.484 241.626 302.631 241.691 302.148 241.247 C 301.691 240.828 301.616 240.078 301.191 239.653 C 300.766 239.228 300.023 239.122 299.597 238.697 C 299.172 238.272 299.066 237.528 298.641 237.103 C 298.216 236.678 297.489 236.489 297.047 236.147 C 296.659 235.846 296.667 235.874 296.091 235.19 C 294.453 233.248 287.099 222.509 284.934 220.527 C 284.019 219.69 283.847 220.414 283.022 219.571 C 281.187 217.697 275.015 209.803 274.734 206.183 C 274.523 203.483 277.427 200.657 278.24 199.489 C 278.649 198.901 278.377 199.154 279.196 198.532 C 282.208 196.248 304.849 182.611 308.523 179.406 C 309.85 178.249 309.434 177.757 310.117 177.175 C 310.81 176.583 311.485 175.867 312.667 175.9 Z" style="fill-opacity: 1; fill-rule: nonzero; stroke: rgb(5, 14, 26); stroke-dasharray: none; stroke-dashoffset: 0px; stroke-linecap: butt; stroke-linejoin: miter; stroke-miterlimit: 4; stroke-opacity: 1; stroke-width: 5px; paint-order: normal; vector-effect: none; opacity: 1; mix-blend-mode: normal; isolation: auto; fill: rgb(61, 161, 126);"/><path stroke="rgb(255,0,0)" stroke-width="0" opacity="0.9411764705882353" d="M 84.429 393.299 C 87.94 392.411 88.785 392.665 90.805 393.299 C 92.941 393.971 95.765 396.562 96.861 397.443 C 97.418 397.891 97.216 397.662 97.817 398.4 C 99.733 400.747 109.626 415.745 112.162 418.163 C 113.12 419.076 113.039 417.911 114.075 419.119 C 117.979 423.677 141.698 461.414 142.764 470.76 C 143.265 475.16 140.216 476.953 138.62 478.729 C 137.37 480.118 135.311 480.408 134.476 481.279 C 133.874 481.906 134.171 482.436 133.519 483.192 C 132.43 484.455 128.75 486.662 127.463 487.973 C 126.612 488.84 126.339 489.644 125.869 490.205 C 125.515 490.627 125.35 490.787 124.913 491.161 C 124.297 491.688 123.188 492.203 122.363 493.074 C 121.371 494.119 120.994 496.304 119.494 497.218 C 119.206 497.394 118.858 497.556 118.47 497.703 C 118.39 497.756 118.306 497.806 118.219 497.855 C 115.37 499.442 106.474 499.474 101.643 499.13 C 97.527 498.838 95.261 498.458 90.805 496.58 C 84.241 493.815 68.435 484.044 65.622 481.598 C 64.689 480.786 65.214 480.626 64.666 480.004 C 63.824 479.049 62.345 478.982 60.522 476.498 C 56.403 470.885 45.886 449.879 41.396 439.521 C 37.944 431.557 34.32 423.16 34.383 419.119 C 34.417 416.922 35.708 415.883 36.614 414.976 C 37.136 414.452 37.624 414.052 38.265 413.848 C 38.51 413.604 38.806 413.344 39.164 413.063 C 44.771 408.669 76.467 395.315 84.429 393.299 Z" style="fill-opacity: 1; fill-rule: nonzero; stroke: rgb(5, 14, 26); stroke-dasharray: none; stroke-dashoffset: 0px; stroke-linecap: butt; stroke-linejoin: miter; stroke-miterlimit: 4; stroke-opacity: 1; stroke-width: 5px; paint-order: normal; vector-effect: none; opacity: 1; mix-blend-mode: normal; isolation: auto; fill: rgb(23, 156, 67);"/><path stroke="rgb(255,0,0)" stroke-width="0" opacity="0.984313725490196" d="M 170.497 272.168 C 176.278 271.45 209.59 275.407 217.037 275.355 C 220.118 275.334 220.66 274.397 222.137 274.718 C 223.494 275.012 224.681 274.665 225.643 276.949 C 228.395 283.48 230.025 326.439 228.831 334.327 C 228.392 337.227 228.432 337.332 226.6 338.471 C 223.242 340.559 213.605 341.603 205.561 342.296 C 195.975 343.123 177.278 343.571 172.409 342.296 C 170.398 341.77 170.37 341.929 169.54 340.065 C 167.51 335.505 166.331 317.008 165.715 306.276 C 165.14 296.249 164.683 282.628 165.715 277.587 C 166.216 275.14 167.04 274.35 167.946 273.443 C 168.688 272.7 168.606 272.402 170.497 272.168 Z" style="fill-opacity: 1; fill-rule: nonzero; stroke: rgb(5, 14, 26); stroke-dasharray: none; stroke-dashoffset: 0px; stroke-linecap: butt; stroke-linejoin: miter; stroke-miterlimit: 4; stroke-opacity: 1; stroke-width: 5px; paint-order: normal; vector-effect: none; opacity: 1; mix-blend-mode: normal; isolation: auto; fill: rgb(204, 128, 41);"/><path stroke="rgb(255,0,0)" stroke-width="0" opacity="0.984313725490196" d="M 40.439 119.159 C 45.654 118.312 69.42 118.827 79.966 119.797 C 87.958 120.531 95.719 119.014 99.411 123.303 C 103.545 128.105 101.218 140.726 101.324 149.442 C 101.43 158.152 101.174 170.838 100.049 175.581 C 99.482 177.969 100.077 178.695 97.817 179.725 C 92.325 182.228 65.875 181.639 54.465 181 C 45.985 180.525 37.851 179.323 34.064 177.812 C 32 176.989 31.354 176.213 30.557 174.943 C 29.713 173.596 29.235 171.395 29.282 169.843 C 29.325 168.448 30.471 167.553 30.557 166.018 C 30.666 164.09 29.08 162.731 29.282 159.005 C 29.683 151.613 35.343 124.665 37.889 120.434 C 38.779 118.956 38.618 119.455 40.439 119.159 Z" style="fill-opacity: 1; fill-rule: nonzero; stroke: rgb(5, 14, 26); stroke-dasharray: none; stroke-dashoffset: 0px; stroke-linecap: butt; stroke-linejoin: miter; stroke-miterlimit: 4; stroke-opacity: 1; stroke-width: 5px; paint-order: normal; vector-effect: none; opacity: 1; mix-blend-mode: normal; isolation: auto; fill: rgb(196, 12, 46);"/><path fill="rgb(255,0,0)" stroke="rgb(255,0,0)" stroke-width="0" opacity="0.9764705882352941" d="M 114.364 65.388 C 115.015 65.365 116.445 65.566 117.49 66.307 C 118.894 67.302 119.997 70.379 121.719 71.64 C 123.388 72.861 127.172 73.985 127.604 73.846 C 127.77 73.793 127.417 73.61 127.42 73.295 C 127.427 72.616 127.364 70.187 128.339 69.433 C 129.537 68.507 132.132 68.44 134.959 69.065 C 139.275 70.02 144.672 74.955 152.244 77.156 C 162.593 80.165 191.616 83.949 193.435 83.408 C 193.764 83.311 193.244 83.163 193.251 82.857 C 193.265 82.221 193.001 80.175 194.17 79.363 C 196.139 77.996 203.397 77.504 207.41 78.26 C 211.2 78.974 215.034 82.606 217.708 83.408 C 219.532 83.956 219.623 83.763 222.121 83.776 C 227.556 83.805 247.84 81.787 253.014 82.305 C 255.313 82.535 255.66 83.282 256.875 83.592 C 257.976 83.873 258.317 84.203 260.001 84.144 C 263.301 84.029 272.009 82.662 277.547 80.981 C 277.34 80.789 277.187 80.556 277.103 80.282 C 276.835 79.408 276.978 77.562 278.022 76.421 C 279.536 74.766 285.025 72.607 287.217 72.375 C 288.613 72.228 289.767 72.626 290.343 73.295 C 290.686 73.693 290.948 74.343 290.972 75.017 C 291.462 74.719 291.872 74.448 292.181 74.214 C 292.982 73.609 292.889 73.017 293.193 72.614 C 291.836 69.793 290.496 64.913 290.415 63.593 C 290.376 62.962 290.511 62.862 290.818 62.585 C 291.236 62.207 292.255 61.795 293.034 61.779 C 293.862 61.762 294.841 61.769 295.654 62.585 C 296.948 63.884 298.097 69.301 299.079 70.645 C 299.593 71.348 300.186 71.176 300.49 71.653 C 300.815 72.163 301.025 72.997 300.893 73.668 C 300.859 73.84 300.795 74.029 300.71 74.224 C 300.757 74.841 300.74 75.48 300.64 75.992 C 300.422 77.114 300.586 77.835 298.985 79.118 C 298.644 79.391 298.179 79.704 297.608 80.049 C 297.131 80.654 296.437 81.214 295.308 81.937 C 292.136 83.968 283.435 87.425 276.859 89.564 C 273.042 91.116 269.687 92.409 267.725 93.093 C 264.403 94.252 263.938 94.279 261.105 94.564 C 257.167 94.961 251.405 94.613 245.658 94.564 C 238.986 94.508 228.553 93.795 223.224 94.197 C 219.721 94.46 219.02 95.339 215.501 95.668 C 210.114 96.17 198.669 96.732 192.699 96.035 C 188.23 95.514 186.675 93.631 182.034 93.093 C 175.49 92.335 162.825 94.061 155.922 93.461 C 150.738 93.01 148.03 92.292 143.418 90.887 C 137.92 89.212 130.727 86.652 125.029 83.531 C 119.397 80.446 110.89 75.293 109.399 72.314 C 108.578 70.674 109.9 68.721 110.318 68.085 C 110.534 67.757 110.667 67.736 111.054 67.717 C 111.392 67.701 111.982 67.757 112.615 67.896 C 112.621 67.574 112.654 67.282 112.709 67.043 C 112.846 66.447 113.315 66.032 113.628 65.755 C 113.87 65.543 113.989 65.401 114.364 65.388 Z M 55.703 110.676 C 56.342 110.7 57.612 111.155 58.102 111.622 C 58.504 112.004 58.568 112.406 58.684 113.076 C 58.856 114.072 58.702 115.665 58.684 117.294 C 58.662 119.287 58.876 122.777 58.538 124.274 C 58.332 125.191 58.084 125.692 57.593 126.092 C 57.095 126.498 56.17 126.732 55.557 126.674 C 54.992 126.621 54.405 126.272 54.03 125.874 C 53.652 125.474 53.457 125.103 53.303 124.274 C 53.036 122.836 53.271 119.308 53.303 117.294 C 53.329 115.624 53.15 114.016 53.448 112.931 C 53.672 112.118 54.111 111.483 54.539 111.113 C 54.885 110.814 55.225 110.659 55.703 110.676 Z M 67.773 110.676 C 68.413 110.7 69.683 111.155 70.173 111.622 C 70.575 112.004 70.625 112.254 70.755 113.076 C 71.018 114.743 70.959 119.697 70.755 122.238 C 70.593 124.259 70.266 126.265 69.882 127.328 C 69.65 127.972 69.497 128.266 69.082 128.565 C 68.602 128.91 67.659 129.204 67.046 129.146 C 66.482 129.093 65.888 128.84 65.519 128.346 C 65.059 127.73 64.808 126.463 64.792 125.438 C 64.775 124.339 65.376 123.483 65.519 121.947 C 65.727 119.723 65.103 114.703 65.519 112.931 C 65.752 111.937 66.182 111.483 66.61 111.113 C 66.956 110.814 67.296 110.659 67.773 110.676 Z M 79.408 111.694 C 80.047 111.718 81.317 112.173 81.808 112.64 C 82.209 113.022 82.276 113.451 82.389 114.094 C 82.548 114.995 82.521 116.469 82.389 117.73 C 82.249 119.079 81.652 120.669 81.517 121.947 C 81.399 123.062 81.716 124.149 81.517 125.002 C 81.347 125.728 81.063 126.419 80.571 126.819 C 80.074 127.225 79.149 127.459 78.535 127.401 C 77.971 127.348 77.384 126.999 77.008 126.601 C 76.63 126.201 76.421 125.702 76.281 125.002 C 76.092 124.05 76.147 122.517 76.281 121.22 C 76.423 119.854 77.018 118.282 77.154 117.003 C 77.272 115.888 76.928 114.797 77.154 113.949 C 77.349 113.216 77.816 112.501 78.245 112.131 C 78.59 111.832 78.931 111.677 79.408 111.694 Z M 97.054 137.727 C 98.735 137.488 105.622 137.315 107.525 137.727 C 108.491 137.936 108.822 138.191 109.198 138.672 C 109.588 139.172 109.844 140.062 109.78 140.708 C 109.716 141.346 109.326 142.126 108.834 142.526 C 108.336 142.931 107.859 142.991 106.798 143.108 C 104.845 143.322 98.816 143.334 97.054 142.962 C 96.173 142.777 95.898 142.609 95.527 142.162 C 95.111 141.662 94.728 140.657 94.8 139.981 C 94.869 139.327 95.463 138.533 95.891 138.163 C 96.236 137.864 96.338 137.829 97.054 137.727 Z M 97.345 147.034 C 99.129 146.868 106.811 147.378 108.834 147.907 C 109.823 148.165 110.131 148.384 110.507 148.852 C 110.887 149.326 111.145 150.129 111.088 150.743 C 111.031 151.366 110.559 152.16 110.143 152.561 C 109.783 152.909 109.419 153.029 108.834 153.143 C 108.013 153.302 106.926 153.226 105.489 153.143 C 103.433 153.023 98.911 152.695 97.345 152.27 C 96.506 152.042 96.189 151.916 95.818 151.47 C 95.402 150.969 95.019 149.964 95.091 149.289 C 95.16 148.635 95.754 147.841 96.182 147.471 C 96.527 147.172 96.613 147.103 97.345 147.034 Z M 97.636 159.978 C 98.334 159.922 99.201 160.357 100.399 160.414 C 102.112 160.497 105.8 159.833 107.234 160.123 C 108.098 160.298 108.531 160.601 108.907 161.069 C 109.287 161.542 109.545 162.345 109.489 162.959 C 109.431 163.582 108.959 164.376 108.543 164.777 C 108.183 165.125 108.014 165.212 107.234 165.359 C 105.547 165.677 99.124 165.976 97.345 165.65 C 96.461 165.488 96.189 165.296 95.818 164.85 C 95.402 164.349 95.004 163.388 95.091 162.668 C 95.183 161.908 95.975 160.847 96.472 160.414 C 96.84 160.094 97.132 160.018 97.636 159.978 Z M 74.221 174.521 C 74.861 174.544 76.131 174.999 76.621 175.466 C 77.023 175.849 77.081 176.195 77.203 176.921 C 77.406 178.136 77.256 180.796 77.203 182.593 C 77.153 184.275 77.211 186.229 76.912 187.392 C 76.699 188.219 76.458 188.81 75.967 189.21 C 75.469 189.615 74.544 189.849 73.93 189.792 C 73.366 189.738 72.779 189.389 72.403 188.992 C 72.025 188.591 71.813 188.068 71.676 187.392 C 71.499 186.517 71.646 185.442 71.676 184.047 C 71.717 182.144 71.561 178.31 71.967 176.775 C 72.215 175.838 72.63 175.328 73.058 174.957 C 73.404 174.658 73.744 174.504 74.221 174.521 Z M 64.041 174.957 C 64.68 174.981 65.95 175.436 66.441 175.903 C 66.842 176.285 66.905 176.674 67.022 177.357 C 67.201 178.399 67.099 180.41 67.022 181.866 C 66.948 183.266 66.571 185.163 66.586 185.938 C 66.594 186.329 66.786 186.358 66.732 186.665 C 66.649 187.125 66.278 188.083 65.786 188.483 C 65.288 188.888 64.378 189.136 63.75 189.064 C 63.146 188.995 62.479 188.555 62.078 188.119 C 61.69 187.698 61.489 187.212 61.351 186.519 C 61.165 185.593 61.295 184.263 61.351 182.884 C 61.417 181.233 61.406 178.51 61.787 177.212 C 62.044 176.337 62.449 175.764 62.878 175.394 C 63.223 175.095 63.564 174.94 64.041 174.957 Z M 52.697 174.376 C 53.337 174.399 54.607 174.854 55.097 175.321 C 55.499 175.704 55.566 176.139 55.679 176.775 C 55.834 177.652 55.742 178.845 55.679 180.266 C 55.595 182.143 55.49 185.749 55.097 187.247 C 54.856 188.163 54.643 188.664 54.152 189.064 C 53.654 189.47 52.729 189.704 52.116 189.646 C 51.551 189.593 50.964 189.244 50.589 188.846 C 50.21 188.446 49.999 187.931 49.861 187.247 C 49.68 186.345 49.799 185.185 49.861 183.756 C 49.945 181.852 50.003 178.145 50.443 176.63 C 50.714 175.699 51.106 175.182 51.534 174.812 C 51.88 174.513 52.22 174.358 52.697 174.376 Z M 31.61 152.997 C 32.379 152.871 33.954 152.784 34.809 152.997 C 35.507 153.171 36.106 153.474 36.482 153.942 C 36.862 154.416 37.12 155.219 37.063 155.833 C 37.006 156.456 36.534 157.25 36.118 157.651 C 35.758 157.999 35.387 158.12 34.809 158.233 C 34.012 158.388 32.443 158.424 31.61 158.233 C 30.959 158.083 30.454 157.879 30.083 157.433 C 29.666 156.932 29.284 155.927 29.355 155.251 C 29.425 154.597 30.018 153.804 30.446 153.433 C 30.792 153.134 31.082 153.083 31.61 152.997 Z M 32.628 144.853 C 33.136 144.786 33.885 144.82 34.373 144.998 C 34.813 145.159 35.191 145.405 35.464 145.798 C 35.781 146.256 36.102 147.075 36.045 147.689 C 35.988 148.312 35.626 149.106 35.1 149.507 C 34.527 149.944 33.328 150.167 32.628 150.089 C 32.028 150.022 31.472 149.735 31.101 149.289 C 30.684 148.788 30.302 147.783 30.373 147.107 C 30.443 146.453 31.036 145.66 31.464 145.289 C 31.81 144.99 32.184 144.911 32.628 144.853 Z M 34.955 136.854 C 35.748 136.783 37.533 137.004 38.3 137.29 C 38.831 137.489 39.118 137.697 39.39 138.09 C 39.708 138.549 40.029 139.367 39.972 139.981 C 39.915 140.604 39.573 141.397 39.027 141.799 C 38.405 142.256 37.183 142.456 36.263 142.381 C 35.317 142.303 34.017 141.891 33.428 141.29 C 32.9 140.752 32.629 139.784 32.7 139.108 C 32.77 138.454 33.363 137.661 33.791 137.29 C 34.137 136.991 34.422 136.902 34.955 136.854 Z M 44.117 398.615 C 44.756 398.638 45.814 398.852 46.516 399.56 C 47.474 400.526 47.935 403.136 48.843 404.65 C 49.696 406.071 50.939 407.017 51.752 408.431 C 52.603 409.911 53.788 412.179 53.788 413.376 C 53.788 414.192 53.334 414.794 52.843 415.194 C 52.345 415.599 51.449 415.86 50.807 415.776 C 50.164 415.691 49.742 415.505 48.989 414.685 C 47.462 413.022 43.639 406.521 42.59 404.068 C 41.973 402.627 41.738 401.748 41.863 400.869 C 41.967 400.131 42.525 399.421 42.953 399.051 C 43.299 398.752 43.639 398.597 44.117 398.615 Z M 54.443 393.379 C 55.158 393.406 56.672 393.975 57.278 394.47 C 57.747 394.852 57.802 395.527 58.078 395.852 C 58.291 396.102 58.417 396.016 58.733 396.361 C 59.426 397.117 61.302 399.603 62.223 401.16 C 63.047 402.552 63.812 404.148 64.114 405.232 C 64.327 406 64.418 406.552 64.259 407.123 C 64.101 407.691 63.675 408.345 63.168 408.65 C 62.643 408.966 61.739 409.064 61.132 408.94 C 60.558 408.823 60.117 408.61 59.605 407.995 C 58.788 407.014 58.002 404.174 57.133 402.76 C 56.413 401.587 55.4 400.458 54.879 399.924 C 54.59 399.628 54.444 399.663 54.224 399.415 C 53.936 399.089 53.609 398.282 53.352 398.033 C 53.193 397.88 53.056 397.999 52.915 397.815 C 52.655 397.473 52.117 396.309 52.188 395.633 C 52.258 394.979 52.851 394.186 53.279 393.815 C 53.625 393.516 53.942 393.36 54.443 393.379 Z M 68.259 390.18 C 68.898 390.203 69.792 390.218 70.658 391.125 C 72.309 392.853 75.691 400.798 76.33 402.76 C 76.597 403.579 76.578 403.708 76.476 404.214 C 76.358 404.793 76.022 405.632 75.53 406.032 C 75.032 406.437 74.107 406.671 73.494 406.614 C 72.93 406.56 72.59 406.521 71.967 405.814 C 70.587 404.246 66.858 396.833 66.15 394.615 C 65.799 393.515 65.843 393.104 66.004 392.434 C 66.164 391.772 66.667 390.986 67.095 390.616 C 67.441 390.317 67.781 390.162 68.259 390.18 Z M 117.334 410.374 C 118.545 410.178 119.24 410.787 119.734 411.32 C 120.189 411.812 120.38 412.71 120.315 413.356 C 120.252 413.993 119.913 414.661 119.37 415.174 C 118.711 415.795 116.811 416.26 116.389 416.628 C 116.193 416.799 116.311 416.935 116.17 417.064 C 115.98 417.239 115.416 417.326 115.225 417.501 C 115.085 417.63 115.234 417.723 115.007 417.937 C 114.362 418.546 110.873 420.705 109.335 421.427 C 108.233 421.945 107.331 422.351 106.572 422.3 C 105.956 422.259 105.416 421.946 105.045 421.5 C 104.629 420.999 104.234 420.008 104.318 419.319 C 104.402 418.626 104.642 418.171 105.554 417.355 C 107.41 415.696 114.972 410.757 117.334 410.374 Z M 122.86 418.955 C 123.91 418.843 124.767 419.367 125.26 419.9 C 125.716 420.393 125.906 421.29 125.842 421.936 C 125.778 422.574 125.566 423.119 124.896 423.754 C 123.804 424.791 120.717 426.342 118.788 427.099 C 117.107 427.759 115.091 428.354 113.989 428.263 C 113.266 428.203 112.833 427.909 112.462 427.463 C 112.046 426.962 111.663 425.957 111.735 425.281 C 111.804 424.627 112.206 423.921 112.826 423.463 C 113.595 422.896 114.948 423.014 116.316 422.445 C 118.135 421.688 121.259 419.125 122.86 418.955 Z M 130.714 429.281 C 131.971 429.165 132.744 429.698 133.259 430.226 C 133.712 430.691 133.897 431.503 133.841 432.117 C 133.783 432.739 133.595 433.291 132.895 433.934 C 131.697 435.037 128.02 436.734 125.914 437.57 C 124.162 438.267 122.218 438.953 121.115 438.879 C 120.393 438.831 119.959 438.526 119.588 438.079 C 119.172 437.578 118.789 436.574 118.861 435.898 C 118.93 435.244 119.105 434.753 119.952 434.08 C 121.633 432.744 128.451 429.488 130.714 429.281 Z M 117.77 487.454 C 118.31 487.425 119.152 487.612 119.661 487.89 C 120.125 488.143 120.232 488.396 120.752 488.981 C 121.705 490.054 124.063 493.327 125.187 494.434 C 125.878 495.115 126.484 495.142 126.86 495.67 C 127.228 496.189 127.498 496.947 127.442 497.561 C 127.384 498.184 127 498.979 126.496 499.379 C 125.973 499.795 125.125 500.121 124.315 499.961 C 123.266 499.753 121.954 498.69 120.752 497.561 C 119.27 496.17 117.06 493.327 116.243 491.889 C 115.727 490.981 115.444 490.384 115.516 489.708 C 115.585 489.054 116.179 488.26 116.607 487.89 C 116.953 487.591 117.319 487.477 117.77 487.454 Z M 123.151 483.236 C 124.302 483.289 127.492 484.394 128.969 485.272 C 130.173 485.988 130.887 486.804 131.659 487.817 C 132.478 488.892 133.649 490.594 133.695 491.598 C 133.73 492.346 133.253 493.016 132.75 493.416 C 132.226 493.832 131.211 494.063 130.568 493.998 C 129.991 493.94 129.617 493.67 129.041 493.198 C 128.193 492.504 127.269 490.694 126.06 489.78 C 124.811 488.837 122.441 488.537 121.624 487.672 C 121.021 487.033 120.825 486.166 120.897 485.49 C 120.966 484.836 121.56 484.043 121.988 483.672 C 122.334 483.373 122.545 483.208 123.151 483.236 Z M 111.517 492.253 C 112.113 492.235 112.989 492.432 113.698 492.835 C 114.523 493.303 115.608 494.326 116.098 495.089 C 116.498 495.711 116.736 496.365 116.68 496.979 C 116.622 497.602 116.249 498.397 115.734 498.797 C 115.186 499.224 114.112 499.48 113.407 499.379 C 112.737 499.283 111.942 498.598 111.589 498.288 C 111.373 498.098 111.415 497.969 111.226 497.779 C 110.954 497.506 110.306 497.301 109.99 496.834 C 109.611 496.275 109.183 495.213 109.263 494.507 C 109.338 493.839 109.925 493.059 110.353 492.689 C 110.699 492.39 111.047 492.267 111.517 492.253 Z M 187.836 334.582 C 188.475 334.605 189.745 335.06 190.236 335.527 C 190.637 335.91 190.627 336.075 190.817 336.982 C 191.272 339.143 192.447 348.317 192.126 350.652 C 191.977 351.743 191.685 352.07 191.181 352.47 C 190.658 352.886 189.642 353.117 189 353.052 C 188.423 352.994 187.877 352.732 187.473 352.252 C 186.972 351.658 186.73 350.922 186.455 349.489 C 185.96 346.919 185.178 339.054 185.582 336.836 C 185.779 335.752 186.245 335.389 186.673 335.018 C 187.018 334.719 187.359 334.565 187.836 334.582 Z M 197.871 333.128 C 198.51 333.151 199.78 333.606 200.271 334.073 C 200.672 334.456 200.72 334.674 200.852 335.527 C 201.137 337.362 200.662 344.128 200.852 346.144 C 200.949 347.165 201.368 347.423 201.289 348.035 C 201.208 348.66 200.835 349.453 200.343 349.853 C 199.846 350.258 198.935 350.506 198.307 350.434 C 197.703 350.365 197.072 349.983 196.635 349.489 C 196.146 348.937 195.837 348.412 195.617 347.162 C 195.21 344.853 195.137 337.497 195.617 335.382 C 195.859 334.317 196.279 333.934 196.707 333.564 C 197.053 333.265 197.394 333.111 197.871 333.128 Z M 208.051 332.255 C 208.691 332.278 209.804 332.392 210.451 333.201 C 211.436 334.432 211.836 337.87 212.341 340.327 C 212.862 342.858 213.705 346.559 213.505 348.18 C 213.389 349.123 213.051 349.598 212.56 349.998 C 212.062 350.403 211.137 350.637 210.524 350.58 C 209.959 350.527 209.489 350.541 208.997 349.78 C 207.896 348.079 206.358 339.841 205.942 337.273 C 205.718 335.884 205.607 335.3 205.797 334.509 C 205.968 333.798 206.46 333.062 206.888 332.692 C 207.234 332.392 207.574 332.238 208.051 332.255 Z M 234.665 296.706 C 235.918 296.815 236.696 297.123 237.21 297.651 C 237.664 298.116 237.861 298.915 237.792 299.542 C 237.72 300.201 237.721 300.926 236.701 301.505 C 234.405 302.809 222.347 304.482 219.831 304.268 C 218.826 304.183 218.675 303.915 218.304 303.468 C 217.888 302.968 217.494 301.977 217.577 301.287 C 217.661 300.595 218.011 299.845 218.813 299.324 C 220.018 298.539 222.692 298.283 225.067 297.869 C 227.864 297.382 232.583 296.524 234.665 296.706 Z M 235.392 306.741 C 236.157 306.68 237.004 306.687 237.574 306.886 C 238.044 307.05 238.392 307.292 238.665 307.686 C 238.982 308.144 239.303 308.963 239.246 309.577 C 239.189 310.199 238.963 310.927 238.301 311.394 C 237.338 312.074 235.307 312.322 233.211 312.558 C 230.458 312.868 224.715 313.054 222.885 312.703 C 221.991 312.532 221.729 312.35 221.358 311.903 C 220.942 311.403 220.559 310.398 220.631 309.722 C 220.7 309.068 221.132 308.306 221.722 307.904 C 222.396 307.444 223.323 307.439 224.631 307.322 C 226.588 307.148 230.885 307.507 232.775 307.322 C 233.987 307.204 234.563 306.806 235.392 306.741 Z M 223.176 316.048 C 225.29 315.8 235.75 315.942 238.156 316.485 C 239.213 316.723 239.453 316.962 239.828 317.43 C 240.208 317.903 240.467 318.707 240.41 319.321 C 240.352 319.943 239.881 320.737 239.465 321.138 C 239.104 321.486 238.796 321.601 238.156 321.72 C 237.129 321.911 234.668 321.841 233.502 321.72 C 232.68 321.635 232.574 321.377 231.611 321.284 C 229.878 321.116 224.778 321.613 223.176 321.284 C 222.327 321.11 222.02 320.93 221.649 320.484 C 221.233 319.983 220.85 318.978 220.922 318.302 C 220.991 317.648 221.585 316.855 222.013 316.485 C 222.358 316.185 222.395 316.14 223.176 316.048 Z M 169.657 298.596 C 171.02 298.497 171.647 298.401 172.42 298.596 C 173.089 298.765 173.717 299.074 174.093 299.542 C 174.473 300.015 174.731 300.818 174.675 301.432 C 174.617 302.055 174.506 302.755 173.729 303.25 C 172.342 304.135 167.676 304.606 165.149 304.85 C 163.022 305.055 160.707 305.115 159.477 304.85 C 158.713 304.686 158.321 304.496 157.95 304.05 C 157.534 303.549 157.151 302.544 157.223 301.869 C 157.292 301.214 157.422 300.536 158.313 300.051 C 160.062 299.099 167.252 298.772 169.657 298.596 Z M 172.275 308.195 C 173.472 308.167 173.886 308.141 174.456 308.34 C 174.927 308.505 175.275 308.747 175.547 309.14 C 175.864 309.598 176.185 310.417 176.129 311.031 C 176.071 311.654 175.905 312.371 175.184 312.849 C 174.017 313.621 170.904 313.929 168.494 314.158 C 165.851 314.408 161.533 314.49 159.913 314.158 C 159.061 313.983 158.757 313.804 158.386 313.358 C 157.97 312.857 157.587 311.852 157.659 311.176 C 157.728 310.522 157.812 309.828 158.75 309.358 C 160.721 308.37 169.79 308.253 172.275 308.195 Z M 173.293 317.939 C 174.29 317.959 174.55 317.906 175.038 318.084 C 175.478 318.245 175.856 318.491 176.129 318.884 C 176.446 319.342 176.767 320.161 176.711 320.775 C 176.653 321.398 176.296 322.15 175.765 322.593 C 175.167 323.091 174.516 323.277 173.147 323.465 C 170.642 323.81 162.713 323.871 160.64 323.465 C 159.702 323.282 159.484 323.112 159.113 322.665 C 158.697 322.165 158.314 321.16 158.386 320.484 C 158.455 319.83 159.049 319.036 159.477 318.666 C 159.823 318.367 159.89 318.345 160.64 318.23 C 162.538 317.939 171.094 317.896 173.293 317.939 Z M 186.964 263.464 C 187.603 263.487 188.873 263.942 189.363 264.41 C 189.765 264.792 189.825 265.153 189.945 265.864 C 190.139 267.016 189.781 269.628 189.945 271.099 C 190.078 272.299 190.535 272.909 190.672 274.154 C 190.849 275.762 190.964 278.769 190.672 280.116 C 190.481 280.995 190.218 281.534 189.727 281.934 C 189.229 282.34 188.304 282.574 187.691 282.516 C 187.126 282.463 186.539 282.113 186.164 281.716 C 185.785 281.316 185.637 281.112 185.436 280.116 C 184.97 277.806 184.252 268.131 184.709 265.719 C 184.922 264.598 185.372 264.271 185.8 263.901 C 186.146 263.601 186.486 263.447 186.964 263.464 Z M 195.253 265.5 C 195.892 265.524 197.107 265.784 197.653 266.446 C 198.296 267.225 198.312 268.57 198.525 270.227 C 198.832 272.608 199.291 277.974 198.962 279.825 C 198.784 280.823 198.508 281.243 198.016 281.643 C 197.519 282.049 196.593 282.283 195.98 282.225 C 195.416 282.172 194.829 281.823 194.453 281.425 C 194.075 281.025 193.927 280.778 193.726 279.825 C 193.291 277.765 192.593 269.904 192.999 267.755 C 193.201 266.683 193.662 266.307 194.09 265.937 C 194.435 265.638 194.776 265.483 195.253 265.5 Z M 203.979 265.064 C 204.618 265.087 205.888 265.542 206.379 266.009 C 206.78 266.392 206.806 266.596 206.96 267.464 C 207.301 269.379 207.764 276.741 207.397 278.807 C 207.212 279.849 206.943 280.225 206.451 280.625 C 205.954 281.031 205.044 281.279 204.415 281.207 C 203.811 281.138 203.145 280.698 202.743 280.262 C 202.355 279.841 202.195 279.601 202.016 278.662 C 201.638 276.683 201.287 269.382 201.725 267.318 C 201.949 266.263 202.388 265.871 202.816 265.5 C 203.161 265.201 203.502 265.047 203.979 265.064 Z M 288.285 213.173 C 288.92 213.181 290.178 213.511 290.671 214.046 C 291.143 214.559 291.333 215.577 291.252 216.258 C 291.175 216.911 290.457 217.786 290.263 218.062 C 290.18 218.18 290.23 218.114 290.089 218.236 C 289.579 218.678 286.078 221.352 285.317 222.077 C 284.975 222.402 285.168 222.4 284.793 222.717 C 283.893 223.478 280.025 226.168 278.625 226.79 C 277.833 227.142 277.431 227.226 276.879 227.14 C 276.325 227.053 275.666 226.754 275.308 226.267 C 274.898 225.709 274.615 224.549 274.726 223.823 C 274.829 223.144 275.134 222.673 275.832 222.019 C 276.948 220.971 280.908 219.122 281.709 218.469 C 282.023 218.213 281.923 218.111 282.116 217.945 C 282.357 217.738 282.921 217.519 283.106 217.363 C 283.212 217.273 283.167 217.245 283.28 217.131 C 283.519 216.888 284.418 216.23 284.735 215.909 C 284.943 215.697 284.941 215.549 285.142 215.385 C 285.402 215.173 285.925 215.08 286.248 214.803 C 286.591 214.509 286.768 213.912 287.121 213.639 C 287.454 213.382 287.806 213.168 288.285 213.173 Z M 295.384 220.738 C 296.124 220.675 297.278 221.087 297.77 221.611 C 298.232 222.104 298.452 223.043 298.352 223.706 C 298.25 224.382 297.539 225.141 297.13 225.627 C 296.801 226.017 296.502 226.145 296.141 226.499 C 295.702 226.93 295.485 227.303 294.686 228.071 C 293.173 229.524 288.679 233.99 286.772 235.054 C 285.678 235.663 284.933 235.728 284.211 235.636 C 283.591 235.556 282.998 235.234 282.64 234.763 C 282.246 234.244 281.964 233.201 282.058 232.551 C 282.144 231.954 282.355 231.735 283.047 230.98 C 284.523 229.372 290.941 224.407 292.416 223.008 C 293.049 222.408 292.973 222.251 293.406 221.902 C 293.92 221.487 294.674 220.799 295.384 220.738 Z M 300.039 227.256 C 300.474 227.192 301.016 227.224 301.436 227.372 C 301.848 227.518 302.267 227.731 302.542 228.129 C 302.875 228.612 303.223 229.436 303.124 230.224 C 303 231.209 302.163 232.4 301.378 233.599 C 300.443 235.027 298.238 237.687 297.712 238.196 C 297.544 238.359 297.528 238.275 297.421 238.371 C 297.267 238.507 297.067 238.849 296.897 239.011 C 296.758 239.143 296.606 239.185 296.49 239.302 C 296.373 239.418 296.384 239.525 296.199 239.709 C 295.837 240.068 294.765 241.07 294.104 241.338 C 293.575 241.553 293.088 241.566 292.591 241.455 C 292.059 241.336 291.378 241.053 291.02 240.582 C 290.625 240.063 290.344 239.02 290.438 238.371 C 290.524 237.773 290.931 237.362 291.427 236.799 C 292.085 236.053 293.252 235.515 294.278 234.355 C 295.672 232.78 297.828 228.655 298.876 227.721 C 299.373 227.278 299.623 227.317 300.039 227.256 Z M 285.026 184.194 C 285.435 184.134 285.882 184.141 286.306 184.31 C 286.794 184.506 287.498 185.103 287.761 185.416 C 287.926 185.613 287.856 185.768 287.994 185.94 C 288.168 186.157 288.429 186.152 288.808 186.58 C 289.617 187.49 291.424 190.787 292.707 192.224 C 293.746 193.388 295.201 193.958 295.791 194.843 C 296.252 195.534 296.443 196.309 296.373 196.938 C 296.309 197.521 295.972 198.151 295.5 198.509 C 294.982 198.904 293.989 199.208 293.289 199.091 C 292.571 198.972 291.712 198.149 291.252 197.753 C 290.932 197.476 290.946 197.307 290.612 196.996 C 290.082 196.503 288.967 196.022 288.11 195.076 C 286.968 193.815 285.151 190.339 284.56 189.664 C 284.348 189.421 284.319 189.553 284.153 189.373 C 283.859 189.053 283.192 188.19 282.989 187.627 C 282.816 187.148 282.754 186.697 282.873 186.231 C 283.005 185.708 283.465 184.999 283.862 184.659 C 284.201 184.37 284.621 184.253 285.026 184.194 Z M 292.824 179.189 C 293.233 179.13 293.643 179.13 294.104 179.306 C 294.689 179.53 295.247 179.902 296.024 180.644 C 297.265 181.829 299.603 184.737 300.796 186.463 C 301.747 187.84 302.585 189.287 302.891 190.188 C 303.08 190.745 303.105 191.027 303.007 191.468 C 302.895 191.973 302.597 192.681 302.134 193.039 C 301.635 193.426 300.706 193.706 300.039 193.621 C 299.367 193.536 298.801 193.218 298.119 192.515 C 297.058 191.423 295.77 188.311 294.628 186.813 C 293.702 185.598 292.47 184.505 291.893 183.961 C 291.584 183.67 291.432 183.738 291.252 183.437 C 290.983 182.985 290.577 181.876 290.671 181.226 C 290.757 180.628 291.263 179.994 291.66 179.655 C 291.999 179.365 292.418 179.248 292.824 179.189 Z M 301.203 175.232 C 301.839 175.24 302.675 175.313 303.589 176.105 C 305.226 177.524 308.699 183.195 309.641 185.183 C 310.155 186.268 310.304 186.834 310.223 187.511 C 310.151 188.114 309.821 188.724 309.35 189.082 C 308.831 189.477 307.792 189.74 307.139 189.664 C 306.546 189.595 306.229 189.44 305.568 188.791 C 304.273 187.522 301.11 182.547 300.098 180.877 C 299.549 179.972 299.338 179.637 299.167 179.015 C 299.007 178.434 298.911 177.816 299.05 177.269 C 299.193 176.709 299.643 176.037 300.039 175.698 C 300.378 175.408 300.724 175.227 301.203 175.232 Z M 330.299 179.073 C 331.097 178.994 332.193 179.411 332.685 179.946 C 333.157 180.459 333.354 181.491 333.267 182.157 C 333.185 182.783 332.746 183.315 332.278 183.845 C 331.742 184.45 330.855 184.867 330.125 185.532 C 329.307 186.277 328.79 187.185 327.622 188.151 C 326.009 189.486 322.357 192.018 320.872 192.69 C 320.063 193.056 319.678 193.125 319.126 193.039 C 318.572 192.952 317.914 192.654 317.555 192.166 C 317.145 191.609 316.867 190.418 316.973 189.722 C 317.067 189.105 317.293 188.801 317.963 188.151 C 319.209 186.94 323.538 184.616 325.236 183.205 C 326.428 182.215 326.858 181.289 327.739 180.586 C 328.553 179.936 329.449 179.157 330.299 179.073 Z M 336.817 183.961 C 337.539 183.716 337.793 183.929 338.213 184.078 C 338.626 184.224 339.045 184.436 339.319 184.834 C 339.652 185.317 339.975 186.273 339.901 186.929 C 339.828 187.571 339.619 187.998 338.912 188.733 C 337.61 190.085 332.021 193.383 331.172 194.145 C 330.91 194.38 330.967 194.45 330.881 194.552 C 330.816 194.629 330.837 194.653 330.707 194.727 C 330.376 194.915 329.012 195.643 328.321 195.6 C 327.718 195.562 327.108 195.206 326.749 194.727 C 326.347 194.188 326.068 193.072 326.168 192.399 C 326.258 191.792 326.867 191.16 327.157 190.828 C 327.349 190.608 327.525 190.576 327.681 190.42 C 327.836 190.265 327.747 190.19 328.088 189.897 C 329.119 189.008 335.197 184.511 336.817 183.961 Z M 342.752 189.431 C 343.627 189.34 344.646 189.769 345.138 190.304 C 345.61 190.817 345.796 191.862 345.72 192.515 C 345.651 193.108 345.35 193.566 344.847 194.087 C 344.167 194.791 342.458 195.494 341.647 196.181 C 340.998 196.731 340.707 197.329 340.192 197.811 C 339.696 198.275 339.024 198.631 338.621 199.033 C 338.286 199.366 338.083 199.805 337.864 200.022 C 337.712 200.173 337.573 200.197 337.457 200.313 C 337.34 200.429 337.37 200.595 337.166 200.72 C 336.791 200.95 335.608 201.378 334.955 201.302 C 334.361 201.234 333.742 200.901 333.383 200.429 C 332.989 199.911 332.679 198.904 332.801 198.218 C 332.925 197.526 333.82 196.639 334.14 196.298 C 334.312 196.114 334.389 196.162 334.547 196.007 C 334.787 195.772 334.998 195.335 335.42 194.901 C 336.024 194.279 337.568 193.112 338.039 192.632 C 338.282 192.384 338.296 192.213 338.446 192.108 C 338.572 192.02 338.729 192.084 338.853 191.992 C 339.006 191.878 338.976 191.649 339.261 191.41 C 339.83 190.931 341.702 189.54 342.752 189.431 Z M 322.385 227.605 C 323.02 227.613 324.209 228.039 324.771 228.478 C 325.253 228.854 325.366 229.551 325.702 229.933 C 325.993 230.262 326.216 230.292 326.633 230.689 C 327.337 231.361 328.657 232.679 329.659 233.948 C 330.792 235.382 332.409 237.631 333.034 238.952 C 333.458 239.849 333.692 240.511 333.616 241.164 C 333.548 241.757 333.206 242.377 332.743 242.735 C 332.244 243.122 331.322 243.426 330.648 243.317 C 329.943 243.203 329.316 242.716 328.612 241.978 C 327.615 240.934 326.589 238.534 325.469 237.09 C 324.427 235.746 322.763 234.116 322.152 233.541 C 321.877 233.281 321.834 233.367 321.629 233.133 C 321.287 232.745 320.568 231.783 320.348 231.155 C 320.164 230.628 320.106 230.136 320.232 229.642 C 320.368 229.106 320.825 228.41 321.221 228.071 C 321.56 227.781 321.906 227.599 322.385 227.605 Z M 328.903 222.484 C 329.538 222.492 330.309 222.628 331.288 223.357 C 333.02 224.646 336.935 230 338.213 231.329 C 338.796 231.935 339.045 231.849 339.319 232.319 C 339.651 232.888 339.982 233.97 339.901 234.646 C 339.828 235.249 339.49 235.859 339.028 236.217 C 338.529 236.604 337.678 236.953 336.933 236.799 C 336.015 236.61 335.145 235.765 333.965 234.646 C 332.187 232.959 328.347 228.67 327.331 226.849 C 326.763 225.829 326.649 225.194 326.749 224.521 C 326.84 223.913 327.342 223.289 327.739 222.95 C 328.078 222.66 328.424 222.478 328.903 222.484 Z M 336.7 217.014 C 337.11 216.955 337.533 216.975 337.981 217.131 C 338.513 217.315 339.404 217.953 339.668 218.178 C 339.79 218.282 339.681 218.255 339.843 218.411 C 340.458 219.004 344.848 222.191 346.186 223.59 C 347.062 224.506 347.555 225.251 347.815 225.918 C 348.004 226.402 348.029 226.756 347.931 227.198 C 347.819 227.702 347.53 228.411 347.058 228.769 C 346.54 229.163 345.5 229.426 344.847 229.351 C 344.254 229.282 343.735 228.873 343.276 228.478 C 342.798 228.067 342.765 227.611 342.054 226.907 C 340.757 225.624 336.188 222.757 335.129 221.262 C 334.515 220.395 334.453 219.701 334.547 219.051 C 334.633 218.453 335.14 217.819 335.536 217.48 C 335.875 217.19 336.295 217.073 336.7 217.014 Z M 363.241 358.621 C 363.612 358.553 364.15 358.481 364.59 358.621 C 365.076 358.776 365.358 358.849 366.014 359.596 C 367.537 361.326 372.568 369.296 373.51 371.589 C 373.951 372.662 373.946 373.084 373.81 373.688 C 373.685 374.244 373.333 374.798 372.836 375.112 C 372.264 375.473 371.101 375.692 370.437 375.562 C 369.859 375.449 369.669 375.333 369.013 374.587 C 367.49 372.857 362.385 364.888 361.517 362.594 C 361.112 361.523 361.194 361.115 361.367 360.495 C 361.534 359.896 362.128 359.221 362.491 358.921 C 362.747 358.709 362.939 358.676 363.241 358.621 Z M 370.287 355.323 C 370.789 355.276 371.597 355.231 372.386 355.623 C 373.524 356.189 375.277 358.008 376.359 359.146 C 377.287 360.123 377.946 360.931 378.607 361.994 C 379.306 363.117 380.115 364.733 380.406 365.742 C 380.615 366.465 380.698 367 380.556 367.541 C 380.417 368.073 380.079 368.651 379.582 368.965 C 379.01 369.327 377.847 369.545 377.183 369.415 C 376.605 369.302 376.32 369.068 375.759 368.441 C 374.759 367.325 373.224 363.753 371.936 362.219 C 370.92 361.008 369.424 360.527 368.863 359.596 C 368.404 358.834 368.269 357.879 368.413 357.197 C 368.544 356.575 369.175 355.923 369.537 355.623 C 369.793 355.411 369.946 355.355 370.287 355.323 Z M 375.684 348.577 C 376.186 348.53 377.206 348.615 377.783 348.876 C 378.311 349.116 378.473 349.407 379.057 350.001 C 380.074 351.035 382.825 353.728 383.555 355.098 C 384.027 355.985 384.126 356.712 384.004 357.347 C 383.896 357.913 383.528 358.456 383.03 358.771 C 382.458 359.132 381.377 359.41 380.631 359.221 C 379.847 359.022 379.124 358.159 378.457 357.497 C 377.771 356.815 377.11 355.721 376.583 355.173 C 376.209 354.783 375.97 354.728 375.609 354.348 C 375.124 353.838 374.245 352.95 373.96 352.25 C 373.716 351.651 373.656 351.006 373.81 350.451 C 373.969 349.879 374.572 349.177 374.934 348.876 C 375.19 348.665 375.343 348.609 375.684 348.577 Z M 373.285 380.059 C 373.656 379.992 374.194 379.919 374.635 380.059 C 375.121 380.214 375.743 380.517 376.059 381.034 C 376.438 381.655 376.66 382.968 376.509 383.732 C 376.374 384.415 376.018 384.924 375.384 385.456 C 374.518 386.184 372.639 386.533 371.336 387.405 C 369.933 388.346 368.561 390.298 367.289 391.003 C 366.292 391.556 365.19 391.864 364.44 391.753 C 363.835 391.663 363.331 391.276 363.016 390.778 C 362.655 390.207 362.422 389.062 362.566 388.38 C 362.697 387.758 363.073 387.443 363.691 386.806 C 364.674 385.791 367.016 383.878 368.488 382.908 C 369.698 382.11 371.205 381.685 371.861 381.184 C 372.256 380.882 372.282 380.548 372.536 380.359 C 372.763 380.19 372.983 380.114 373.285 380.059 Z M 376.584 386.506 C 377.253 386.24 377.492 386.366 377.933 386.506 C 378.419 386.66 379.042 386.983 379.357 387.48 C 379.718 388.052 379.975 389.163 379.807 389.879 C 379.641 390.585 379.144 391.013 378.383 391.753 C 377.2 392.9 373.803 394.934 372.761 396.026 C 372.151 396.664 372.285 397.26 371.786 397.6 C 371.243 397.969 370.172 398.171 369.537 398.049 C 368.971 397.941 368.428 397.582 368.113 397.075 C 367.743 396.478 367.504 395.361 367.663 394.526 C 367.834 393.634 368.298 392.89 369.238 391.903 C 370.692 390.374 375.147 387.077 376.584 386.506 Z M 381.831 391.453 C 382.202 391.385 382.739 391.313 383.18 391.453 C 383.666 391.607 384.29 391.93 384.604 392.428 C 384.965 392.999 385.239 394.035 385.054 394.826 C 384.847 395.711 384.02 396.487 383.18 397.45 C 382.107 398.679 379.929 400.449 378.907 401.572 C 378.177 402.375 378.005 403.185 377.333 403.596 C 376.675 404 375.598 404.176 374.934 404.046 C 374.357 403.933 373.824 403.559 373.51 403.072 C 373.158 402.526 372.807 401.694 373.06 400.823 C 373.43 399.555 375.688 397.384 376.733 396.25 C 377.506 395.412 378.288 394.869 378.757 394.376 C 379.078 394.04 379.271 393.732 379.432 393.552 C 379.531 393.441 379.535 393.456 379.657 393.327 C 379.917 393.051 380.67 392.053 381.081 391.753 C 381.36 391.549 381.528 391.508 381.831 391.453 Z" style="fill: rgb(5, 14, 26); fill-opacity: 1; fill-rule: nonzero; stroke: rgb(5, 14, 26); stroke-dasharray: none; stroke-dashoffset: 0px; stroke-linecap: butt; stroke-linejoin: miter; stroke-miterlimit: 4; stroke-opacity: 1; stroke-width: 0px; paint-order: normal; vector-effect: none; opacity: 1; mix-blend-mode: normal; isolation: auto;"/><path stroke="rgb(255,0,0)" opacity="0.9529411764705882" d="M 96.211 124.636 C 95.463 126.027 93.144 126.593 92.067 125.592 C 90.615 124.243 89.49 115.959 89.196 110.955 C 88.581 108.894 88.238 106.458 88.56 105.51 C 88.932 104.419 89.805 104.135 91.429 103.916 C 94.568 103.493 106.623 104.347 108.324 106.148 C 109.3 107.181 108.614 109.458 107.368 110.292 C 105.52 111.526 97.257 109.321 95.385 110.217 C 96.572 114.761 97.237 122.727 96.211 124.636 Z M 92.067 139.618 C 92.911 139.433 95.229 139.09 96.211 140.574 C 98.073 143.391 99.055 158.796 97.486 161.613 C 96.659 163.098 94.383 163.652 93.342 162.569 C 91.328 160.476 90.559 143.116 91.11 140.574 C 91.291 139.743 91.533 139.735 92.067 139.618 Z M 90.154 179.783 C 91.137 178.619 93.415 179.145 94.298 180.739 C 96.133 184.052 95.383 204.779 93.342 207.197 C 92.359 208.36 90.081 207.835 89.198 206.241 C 87.363 202.928 88.113 182.201 90.154 179.783 Z M 90.154 235.248 C 90.998 235.063 93.319 234.734 94.298 236.205 C 96.134 238.961 97.113 253.85 95.573 256.606 C 94.751 258.077 92.47 258.633 91.429 257.562 C 89.441 255.517 88.659 238.699 89.198 236.205 C 89.376 235.38 89.62 235.366 90.154 235.248 Z M 88.879 281.789 C 89.723 281.603 91.962 281.237 93.023 282.745 C 95.087 285.68 97.06 302.124 95.573 305.059 C 94.809 306.567 92.595 306.688 91.429 306.015 C 89.877 305.118 88.573 301.33 87.923 298.046 C 87.108 293.931 87.313 284.757 87.923 282.745 C 88.154 281.983 88.345 281.906 88.879 281.789 Z M 90.154 330.241 C 91.123 329.143 93.44 329.678 94.298 331.198 C 95.974 334.164 95.233 351.686 93.342 353.83 C 92.373 354.928 90.056 354.393 89.198 352.874 C 87.522 349.907 88.263 332.385 90.154 330.241 Z M 90.792 368.493 C 91.774 367.33 94.053 367.856 94.936 369.45 C 96.77 372.762 96.021 393.489 93.979 395.907 C 92.997 397.071 90.718 396.545 89.835 394.951 C 88.001 391.639 88.75 370.911 90.792 368.493 Z M 90.792 415.034 C 91.76 413.936 94.078 414.47 94.936 415.99 C 96.611 418.957 95.871 436.479 93.979 438.622 C 93.011 439.72 90.694 439.186 89.835 437.666 C 88.16 434.699 88.9 417.177 90.792 415.034 Z M 91.429 456.473 C 92.273 456.288 94.751 456.216 95.573 457.43 C 96.783 459.214 93.556 466.651 95.573 468.587 C 97.764 470.689 107.208 467.23 109.28 468.587 C 110.578 469.436 111.247 471.611 110.237 472.73 C 108.393 474.773 94.715 478.819 91.429 476.237 C 88.164 473.671 89.878 459.728 90.473 457.43 C 90.681 456.628 90.896 456.591 91.429 456.473 Z M 136.057 467.311 C 138.964 465.664 155.955 466.403 158.052 468.268 C 159.138 469.234 158.602 471.558 157.095 472.412 C 154.188 474.059 137.197 473.321 135.1 471.455 C 134.014 470.489 134.551 468.165 136.057 467.311 Z M 197.898 467.311 C 201.287 467.019 205.514 467.083 206.504 468.268 C 207.249 469.159 207.053 471.314 205.548 472.412 C 202.615 474.551 186.167 477.018 183.234 475.599 C 181.729 474.871 181.351 472.626 182.278 471.455 C 183.86 469.46 193.548 467.686 197.898 467.311 Z M 239.975 467.311 C 243.511 467.263 249.327 466.964 250.494 468.268 C 251.305 469.174 251.096 471.314 249.538 472.412 C 246.371 474.645 228.038 477.473 224.674 475.599 C 222.759 474.532 223.008 470.676 223.718 469.543 C 224.331 468.563 226.909 468.708 227.862 468.587 C 228.45 468.511 228.383 468.64 229.137 468.587 C 230.917 468.46 236.393 467.36 239.975 467.311 Z M 275.039 467.311 C 277.947 465.664 293.626 466.14 297.034 468.268 C 299.067 469.537 299.502 472.92 298.947 474.006 C 298.465 474.948 295.94 475.277 294.803 474.962 C 293.739 474.667 293.9 473.027 292.253 472.412 C 289.106 471.236 275.889 473.154 274.083 471.455 C 273.073 470.506 273.533 468.165 275.039 467.311 Z M 331.143 448.823 C 331.987 448.638 334.515 448.711 335.287 449.779 C 336.262 451.13 334.708 454.476 335.287 457.43 C 336.031 461.226 342.023 468.382 340.387 470.818 C 338.664 473.382 326.473 473.148 324.13 471.774 C 322.76 470.971 322.375 468.565 323.173 467.63 C 324.31 466.3 332.584 467.711 333.374 466.355 C 334.011 465.261 330.786 463.501 330.186 461.255 C 329.41 458.346 329.66 451.446 330.186 449.779 C 330.41 449.07 330.609 448.94 331.143 448.823 Z M 333.055 410.571 C 334.008 409.547 336.371 410.093 337.199 411.527 C 338.7 414.128 337.971 428.479 336.243 430.334 C 335.29 431.358 332.927 430.812 332.099 429.378 C 330.598 426.777 331.327 412.427 333.055 410.571 Z M 332.418 366.581 C 333.262 366.396 335.628 366.095 336.562 367.537 C 338.265 370.17 338.753 384.031 337.199 386.663 C 336.348 388.106 334.054 388.667 333.055 387.619 C 331.195 385.668 330.895 369.935 331.461 367.537 C 331.654 366.723 331.884 366.698 332.418 366.581 Z M 329.868 320.678 C 330.711 320.493 332.95 320.113 334.011 321.635 C 336.1 324.628 338.077 341.592 336.562 344.586 C 335.791 346.108 333.533 346.654 332.418 345.542 C 330.182 343.315 328.424 324.314 328.911 321.635 C 329.065 320.789 329.334 320.795 329.868 320.678 Z M 331.143 266.488 C 331.987 266.302 334.332 265.905 335.287 267.444 C 337.181 270.499 337.676 287.978 335.924 291.033 C 335.041 292.572 332.791 293.12 331.78 291.989 C 329.74 289.708 329.539 270.171 330.186 267.444 C 330.389 266.59 330.609 266.605 331.143 266.488 Z M 331.78 211.022 C 332.758 209.88 335.049 210.408 335.924 211.978 C 337.707 215.178 336.961 234.833 334.968 237.161 C 333.99 238.304 331.699 237.775 330.824 236.205 C 329.041 233.006 329.787 213.35 331.78 211.022 Z M 331.143 153.644 C 332.074 153.502 335.074 153.351 335.924 155.238 C 337.579 158.913 334.743 179.286 332.418 181.696 C 331.302 182.851 329.031 182.234 328.274 180.739 C 326.816 177.864 330.789 163.397 330.824 159.063 C 330.842 156.757 329.948 155.487 330.186 154.6 C 330.333 154.052 330.592 153.728 331.143 153.644 Z M 329.868 103.279 C 331.497 102.827 334.247 102.602 335.287 104.235 C 336.964 106.87 336.029 120.598 334.33 122.405 C 333.38 123.415 331.024 122.613 330.186 121.448 C 329.012 119.816 331.669 113.166 329.868 111.567 C 327.954 109.868 320.213 113.348 318.392 112.204 C 317.168 111.435 316.715 108.946 317.436 108.06 C 318.365 106.918 323.264 108.02 325.405 107.104 C 327.294 106.295 328.194 103.742 329.868 103.279 Z M 291.615 104.554 C 294.814 104.473 299.81 104.285 300.86 105.51 C 301.628 106.406 301.315 108.727 299.903 109.654 C 297.397 111.299 284.558 111.784 282.052 110.292 C 280.641 109.451 280.29 107.114 281.096 106.148 C 282.26 104.753 288.239 104.639 291.615 104.554 Z M 243.163 103.279 C 245.939 101.895 261.303 104.693 263.245 106.785 C 264.283 107.903 263.65 110.106 262.289 110.929 C 259.978 112.325 249.766 111.123 246.35 110.292 C 244.254 109.781 242.746 109.215 242.206 108.06 C 241.659 106.889 241.596 104.06 243.163 103.279 Z M 201.085 104.554 C 203.686 103.053 218.037 103.782 219.893 105.51 C 220.916 106.463 220.371 108.826 218.936 109.654 C 216.335 111.155 201.985 110.426 200.129 108.698 C 199.106 107.745 199.651 105.382 201.085 104.554 Z M 165.383 105.829 C 167.984 104.328 182.335 105.057 184.191 106.785 C 185.214 107.738 184.669 110.101 183.234 110.929 C 180.633 112.43 166.283 111.701 164.427 109.973 C 163.404 109.02 163.949 106.657 165.383 105.829 Z M 130.319 105.829 C 132.662 104.455 144.921 105.176 146.576 106.785 C 147.543 107.726 146.989 110.126 145.62 110.929 C 143.277 112.303 131.017 111.582 129.363 109.973 C 128.395 109.032 128.949 106.632 130.319 105.829 Z" style="fill-opacity: 1; fill-rule: nonzero; stroke: rgb(5, 14, 26); stroke-dasharray: none; stroke-dashoffset: 0px; stroke-linecap: butt; stroke-linejoin: miter; stroke-miterlimit: 4; stroke-opacity: 1; paint-order: normal; vector-effect: none; opacity: 1; mix-blend-mode: normal; isolation: auto; fill: rgb(5, 14, 26); stroke-width: 0px;"/><path stroke="rgb(255,0,0)" stroke-width="0" opacity="0.9529411764705882" d="M 180.697 15.31 C 182.555 15.251 184.846 15.627 186.116 17.068 C 187.766 18.942 187.349 26.239 188.347 27.029 C 188.821 27.403 189.524 26.801 189.941 26.442 C 190.396 26.051 190.544 25.143 190.898 24.685 C 191.192 24.304 191.194 24.253 191.854 23.806 C 193.486 22.7 200.126 17.989 203.011 17.654 C 205.002 17.423 206.522 18.214 207.792 19.412 C 209.329 20.86 209.896 25.899 210.98 26.442 C 211.61 26.758 212.467 25.982 212.893 25.564 C 213.283 25.18 213.046 24.655 213.53 24.099 C 214.311 23.202 216.909 22.037 217.993 20.877 C 218.935 19.868 218.757 18.459 219.905 17.654 C 221.34 16.649 224.598 15.821 226.6 15.897 C 228.374 15.963 230.231 16.337 231.381 17.654 C 232.869 19.359 231.076 25.645 233.612 26.442 C 237.287 27.597 251.39 16.921 255.926 16.482 C 258.345 16.249 259.68 17.01 260.708 18.24 C 261.918 19.689 260.089 24.201 261.983 25.27 C 264.461 26.671 273.51 22.686 276.965 22.927 C 279.206 23.083 280.883 23.778 281.746 24.685 C 282.465 25.44 281.452 27.076 282.384 27.614 C 283.801 28.433 289.142 26.7 291.628 27.029 C 293.594 27.288 295.398 27.697 296.41 28.786 C 297.454 29.91 297.957 31.987 297.685 33.767 C 297.366 35.85 293.39 38.977 293.86 40.504 C 294.264 41.82 297.42 41.222 298.96 42.847 C 301.218 45.231 304.912 52.476 304.698 55.444 C 304.549 57.499 303.002 58.966 301.191 59.838 C 299.027 60.88 293.178 58.926 291.947 60.424 C 290.707 61.934 294.339 66.671 293.86 68.92 C 293.461 70.786 291.961 72.476 290.353 73.313 C 288.695 74.177 285.616 74.112 283.978 73.9 C 282.746 73.74 281.675 72.273 281.109 72.728 C 280.287 73.388 281.867 77.958 281.109 80.051 C 280.397 82.018 279.57 83.965 276.965 85.031 C 272.827 86.724 259.394 85.811 255.289 85.617 C 253.226 85.52 252.847 84.973 251.463 85.031 C 249.901 85.098 247.896 86.533 246.363 86.203 C 244.81 85.869 243.151 83.845 242.219 82.98 C 241.589 82.397 241.509 81.446 240.944 81.516 C 240.093 81.62 239.114 84.729 237.438 85.617 C 235.539 86.623 231.825 87.271 229.787 86.789 C 228.021 86.371 226.552 84.652 225.643 83.567 C 224.913 82.694 225.299 81.021 224.368 80.93 C 222.848 80.781 218.488 85.78 215.761 86.789 C 213.542 87.61 211.176 87.873 209.386 87.375 C 207.711 86.908 206.383 85.529 205.242 84.153 C 204.001 82.655 204.147 78.895 202.373 78.587 C 200.005 78.175 193.949 84.676 190.898 85.617 C 188.848 86.25 187.323 86.134 185.797 85.617 C 184.233 85.087 182.488 83.489 181.653 82.395 C 180.992 81.529 181.742 79.942 180.697 79.758 C 178.636 79.395 169.257 86.896 166.034 86.789 C 163.97 86.721 162.731 84.812 161.89 83.567 C 161.127 82.437 162.104 80.067 160.933 79.758 C 159.065 79.265 151.781 85.787 148.82 85.617 C 146.646 85.493 145.061 83.571 144.039 81.809 C 142.877 79.808 144.655 75.156 142.764 73.9 C 140.578 72.447 134.268 75.71 130.332 75.071 C 126.407 74.435 120.854 71.985 119.175 70.091 C 118.055 68.828 118.388 67.21 118.537 65.99 C 118.671 64.895 120.22 64.078 119.812 63.06 C 119.222 61.585 113.991 60.137 112.799 58.373 C 111.833 56.943 111.907 55.306 112.162 53.687 C 112.443 51.9 113.081 49.582 114.712 48.12 C 116.619 46.411 121.671 46.47 123.638 44.605 C 125.473 42.865 125.179 38.872 126.506 37.574 C 127.477 36.626 129.797 37.367 130.013 36.402 C 130.344 34.923 124.694 30.149 124.275 27.907 C 123.985 26.356 124.482 25.013 125.55 24.099 C 126.842 22.994 130.04 22.168 132.244 22.342 C 134.504 22.519 137.857 24.17 138.938 25.27 C 139.653 25.997 139.195 27.066 139.576 27.614 C 139.888 28.063 140.359 28.216 140.851 28.493 C 141.404 28.806 142.193 28.822 142.764 29.372 C 143.517 30.097 143.652 31.935 144.676 32.887 C 145.802 33.934 148.119 35.304 149.458 35.23 C 150.599 35.168 151.63 34.54 152.327 33.18 C 153.534 30.821 151.887 22.296 153.602 19.997 C 154.789 18.407 157.237 18.114 159.021 18.24 C 160.851 18.369 163.092 19.325 164.44 20.877 C 166.057 22.739 166.029 29.238 167.309 29.372 C 168.582 29.506 171.02 23.233 172.09 21.755 C 172.667 20.959 172.971 20.894 173.365 20.29 C 173.834 19.574 173.756 18.406 174.64 17.654 C 175.829 16.644 178.736 15.373 180.697 15.31 Z M 246.682 32.887 C 244.649 32.938 237.026 39.083 233.294 39.918 C 230.566 40.528 228.09 40.319 226.281 39.332 C 224.486 38.353 224.216 34.141 222.456 34.059 C 220.245 33.956 216.537 40.895 213.53 41.675 C 211.003 42.332 207.982 41.231 205.88 39.918 C 203.696 38.554 203.112 33.661 200.779 33.473 C 197.911 33.243 192.503 40.725 189.304 41.675 C 187.092 42.332 185.292 41.933 183.566 41.09 C 181.631 40.145 180.022 35.646 178.466 35.817 C 176.817 35.998 175.704 40.936 174.003 42.847 C 172.475 44.564 171.009 46.687 168.903 46.949 C 166.47 47.251 162.919 43.271 159.977 43.433 C 156.967 43.6 151.911 46.694 151.052 48.12 C 150.553 48.947 151.672 49.627 151.689 50.464 C 151.708 51.374 151.659 52.487 151.052 53.393 C 150.332 54.469 148.1 55.449 147.226 56.323 C 146.585 56.964 145.701 57.566 145.951 58.08 C 146.305 58.808 149.733 58.505 151.052 59.838 C 152.738 61.544 153.268 68 154.239 68.627 C 154.683 68.912 154.873 68.354 155.514 68.04 C 156.695 67.464 159.088 65.223 161.252 65.111 C 163.694 64.986 168.274 66.881 169.54 68.04 C 170.318 68.752 169.704 69.9 170.178 70.384 C 170.604 70.819 171.464 71.209 172.09 70.97 C 172.962 70.638 173.227 68.555 174.64 67.455 C 176.568 65.954 180.681 63.668 183.566 63.353 C 186.191 63.068 189.509 63.89 191.216 65.111 C 192.716 66.184 192.942 69.658 193.766 69.798 C 194.42 69.909 194.654 68.297 195.679 67.455 C 197.183 66.219 200.232 63.636 202.692 63.353 C 205.122 63.075 208.437 64.17 210.342 65.697 C 212.293 67.26 212.993 72.757 214.168 72.728 C 215.328 72.699 215.779 67.146 217.355 65.697 C 218.688 64.472 220.463 63.854 222.456 63.94 C 224.966 64.046 229.619 66.127 231.381 67.455 C 232.581 68.359 232.662 70.548 233.294 70.384 C 234.155 70.16 234.355 65.029 235.844 63.353 C 237.215 61.81 239.387 60.273 241.582 60.424 C 244.328 60.613 249.497 65.378 251.145 66.283 C 251.71 66.593 251.93 66.469 252.193 66.648 C 252.665 64.138 253.529 61.129 254.97 59.838 C 256.821 58.179 260.775 58.053 262.939 58.08 C 264.616 58.102 266.146 59.96 267.083 59.252 C 268.438 58.229 266.941 51.159 268.358 49.292 C 269.408 47.91 271.145 47.673 273.14 47.535 C 274.612 47.433 277.01 47.549 279.136 47.927 C 278.592 47.419 278.062 46.946 277.921 46.363 C 277.647 45.228 278.461 43.885 278.559 42.847 C 278.641 41.97 279.092 40.769 278.559 40.504 C 277.837 40.143 275.242 42.059 273.458 42.262 C 271.633 42.468 269.296 42.511 267.721 41.675 C 266.081 40.806 264.98 37.26 263.895 36.989 C 263.174 36.808 263.076 37.943 261.983 38.16 C 259.948 38.565 253.51 38.581 251.145 37.574 C 249.413 36.838 248.765 34.879 247.957 34.059 C 247.419 33.513 247.543 32.866 246.682 32.887 Z" style="fill-opacity: 1; fill-rule: nonzero; stroke: rgb(5, 14, 26); stroke-dasharray: none; stroke-dashoffset: 0px; stroke-linecap: butt; stroke-linejoin: miter; stroke-miterlimit: 4; stroke-opacity: 1; stroke-width: 5px; paint-order: normal; vector-effect: none; opacity: 1; mix-blend-mode: normal; isolation: auto; fill: rgb(181, 140, 127);"/><path fill="rgb(255,0,0)" stroke="rgb(255,0,0)" stroke-width="0" opacity="0.9568627450980393" d="M 129.466 34.988 C 130.035 34.929 130.989 34.758 132.004 35.287 C 133.666 36.152 137.464 39.78 138.349 41.333 C 138.865 42.236 138.805 42.924 138.648 43.573 C 138.501 44.182 138.048 44.828 137.528 45.141 C 136.989 45.466 136.219 45.696 135.438 45.439 C 134.337 45.077 132.577 43.13 131.631 42.229 C 130.933 41.565 130.663 41.047 130.063 40.512 C 129.428 39.947 128.299 39.594 127.898 38.945 C 127.533 38.353 127.451 37.472 127.599 36.854 C 127.742 36.259 128.358 35.585 128.719 35.287 C 128.974 35.076 129.107 35.025 129.466 34.988 Z M 131.407 58.28 C 132.293 58.162 132.543 58.122 133.049 58.28 C 133.565 58.44 134.155 58.765 134.467 59.25 C 134.818 59.794 135.05 60.84 134.915 61.49 C 134.79 62.097 134.337 62.637 133.796 63.058 C 133.172 63.542 132.49 63.793 131.257 64.103 C 129.273 64.601 123.975 65.608 122.299 65.297 C 121.396 65.13 121.044 64.697 120.731 64.177 C 120.406 63.638 120.284 62.705 120.433 62.087 C 120.576 61.491 120.73 60.995 121.552 60.519 C 123.148 59.596 129.573 58.523 131.407 58.28 Z M 145.143 67.985 C 145.618 67.922 146.559 67.92 147.084 68.134 C 147.555 68.326 147.964 68.65 148.204 69.104 C 148.48 69.628 148.728 70.386 148.502 71.195 C 148.183 72.339 146.595 74.646 145.591 75.301 C 144.862 75.776 144 75.756 143.351 75.599 C 142.743 75.452 142.097 74.999 141.784 74.479 C 141.459 73.94 141.259 73.198 141.485 72.389 C 141.804 71.245 143.731 68.867 144.396 68.283 C 144.716 68.003 144.809 68.029 145.143 67.985 Z M 181.391 73.36 C 181.841 73.301 182.706 73.318 183.183 73.509 C 183.598 73.675 183.92 73.908 184.153 74.33 C 184.455 74.877 184.61 75.869 184.601 76.719 C 184.592 77.65 184.336 78.994 184.004 79.705 C 183.755 80.238 183.488 80.585 183.033 80.825 C 182.51 81.101 181.561 81.272 180.943 81.124 C 180.347 80.981 179.704 80.629 179.375 80.004 C 178.946 79.188 178.829 77.36 179.077 76.271 C 179.305 75.268 180.184 74.087 180.645 73.658 C 180.915 73.406 181.065 73.402 181.391 73.36 Z M 200.801 71.717 C 201.251 71.659 202.096 71.661 202.593 71.867 C 203.052 72.057 203.423 72.214 203.712 72.837 C 204.224 73.94 204.728 77.66 204.459 78.959 C 204.29 79.774 203.859 80.213 203.339 80.526 C 202.8 80.851 201.867 80.973 201.249 80.825 C 200.653 80.682 200.062 80.429 199.681 79.705 C 199.074 78.553 198.665 74.882 198.935 73.584 C 199.104 72.768 199.693 72.315 200.054 72.016 C 200.309 71.805 200.475 71.76 200.801 71.717 Z M 239.173 73.957 C 239.623 73.898 240.468 73.901 240.964 74.106 C 241.424 74.296 241.775 74.451 242.084 75.077 C 242.638 76.197 243.367 80.027 243.129 81.348 C 242.982 82.166 242.529 82.602 242.009 82.915 C 241.47 83.24 240.537 83.362 239.919 83.214 C 239.323 83.071 238.766 82.677 238.351 82.094 C 237.837 81.371 237.479 80.015 237.306 78.959 C 237.138 77.924 237.058 76.643 237.306 75.823 C 237.511 75.148 238.065 74.554 238.426 74.255 C 238.681 74.045 238.846 73.999 239.173 73.957 Z M 275.603 65.148 C 276.173 65.089 277.164 64.97 278.142 65.446 C 279.611 66.162 282.606 68.791 283.442 70.15 C 283.987 71.035 284.033 71.859 283.89 72.538 C 283.759 73.158 283.29 73.793 282.77 74.106 C 282.706 74.144 282.641 74.182 282.574 74.219 C 282.575 74.447 282.569 74.693 282.569 74.957 C 282.57 76.345 281.878 78.924 281.812 80.45 C 281.76 81.648 282.239 82.548 282.001 83.48 C 281.764 84.41 281.407 85.5 280.391 86.037 C 278.953 86.796 275.207 86.655 273.195 86.415 C 272.522 86.335 271.946 86.239 271.401 86.097 C 271.296 86.289 271.174 86.467 271.048 86.601 C 270.791 86.876 270.504 87.036 270.116 87.15 C 269.645 87.288 269.082 87.398 268.361 87.26 C 267.337 87.063 265.068 86.05 264.467 85.614 C 264.18 85.406 264.324 85.093 264.083 85.066 C 263.676 85.02 262.821 86.022 261.89 86.272 C 260.711 86.589 258.41 86.668 257.393 86.492 C 256.733 86.377 256.361 86.161 256.022 85.834 C 255.691 85.515 255.47 84.997 255.363 84.572 C 255.264 84.174 255.264 83.764 255.363 83.366 C 255.47 82.941 255.691 82.423 256.022 82.104 C 256.361 81.777 256.819 81.582 257.393 81.446 C 258.119 81.275 259.58 81.488 260.135 81.337 C 260.458 81.248 260.595 81.23 260.738 80.953 C 260.983 80.477 261.091 79.208 260.957 78.211 C 260.801 77.045 259.818 75.339 259.641 74.372 C 259.521 73.716 259.526 73.308 259.641 72.836 C 259.752 72.378 259.969 71.893 260.299 71.575 C 260.639 71.248 261.198 71.006 261.67 70.917 C 262.131 70.829 262.645 70.852 263.096 71.026 C 263.582 71.214 264.126 71.726 264.467 72.068 C 264.744 72.346 264.935 72.729 265.07 72.891 C 265.145 72.98 265.139 72.919 265.235 73.055 C 265.506 73.442 266.593 75.063 267.246 76.435 C 268.291 76.999 269.514 77.941 270.259 78.556 C 271.069 79.224 271.186 80.11 272.058 80.544 C 273.13 81.078 275.636 81.875 276.509 81.112 C 277.525 80.225 276.629 76.216 277.077 74.578 C 277.273 73.861 277.565 73.199 277.871 72.678 C 276.263 71.468 274.58 69.945 274.036 69.104 C 273.51 68.293 273.589 67.632 273.737 67.014 C 273.88 66.418 274.495 65.745 274.857 65.446 C 275.112 65.236 275.245 65.185 275.603 65.148 Z M 284.562 56.189 C 285.609 56.105 289.34 56.409 290.982 56.936 C 292.249 57.343 293.352 57.918 293.893 58.653 C 294.356 59.281 294.476 60.243 294.341 60.893 C 294.216 61.5 293.753 62.145 293.222 62.46 C 292.655 62.796 291.984 62.827 290.982 62.759 C 289.444 62.655 285.904 61.834 284.562 61.266 C 283.741 60.919 283.307 60.666 282.994 60.146 C 282.669 59.607 282.547 58.674 282.695 58.056 C 282.838 57.46 283.454 56.787 283.815 56.488 C 284.07 56.277 284.107 56.226 284.562 56.189 Z M 291.819 38.019 C 292.552 37.866 293.012 37.848 293.533 38.019 C 294.061 38.193 294.66 38.605 294.962 39.067 C 295.262 39.527 295.466 40.157 295.343 40.781 C 295.19 41.557 294.678 42.74 293.724 43.352 C 292.471 44.157 288.989 44.724 287.819 44.495 C 287.127 44.36 286.851 43.88 286.581 43.448 C 286.315 43.021 286.115 42.476 286.2 41.924 C 286.303 41.258 286.708 40.339 287.438 39.733 C 288.375 38.956 290.721 38.248 291.819 38.019 Z M 381.124 459.965 C 381.887 459.941 383.747 460.567 384.283 461.252 C 384.745 461.842 384.738 462.856 384.517 463.592 C 384.279 464.385 383.346 465.207 382.762 465.816 C 382.254 466.344 381.965 466.269 381.241 467.103 C 379.695 468.884 376.808 474.473 373.635 477.986 C 372.465 479.281 371.108 480.626 369.664 481.954 C 369.704 481.996 369.741 482.038 369.773 482.081 C 370.283 482.758 370.389 483.82 370.007 484.89 C 369.453 486.442 367.407 488.708 365.443 490.389 C 363.208 492.303 359.998 494.289 357.018 495.538 C 354.066 496.776 350.296 496.965 347.657 497.879 C 345.448 498.643 344.618 499.602 342.04 500.453 C 338.213 501.716 329.497 503.027 325.891 504.198 C 323.635 504.93 322.824 505.956 321.21 506.304 C 319.624 506.646 317.71 505.939 316.296 506.304 C 315.023 506.632 314.389 507.775 313.019 508.176 C 311.333 508.67 308.008 509.002 306.7 508.644 C 305.877 508.419 305.473 507.913 305.179 507.357 C 304.877 506.788 304.867 505.81 304.945 505.251 C 304.99 504.924 304.981 504.667 305.156 504.433 C 305.163 504.392 305.171 504.353 305.179 504.315 C 305.292 503.798 305.326 503.47 305.998 503.027 C 307.034 502.344 310.483 501.066 313.187 500.405 C 313.241 500.283 313.358 500.153 313.604 499.985 C 315.723 498.544 329.757 494.609 335.955 492.964 C 340.766 491.687 344.416 491.805 348.125 490.389 C 351.683 489.031 356.785 485.601 357.837 484.773 C 358.16 484.518 358.012 484.467 358.188 484.305 C 358.429 484.083 359.005 483.863 359.241 483.602 C 359.437 483.387 359.43 483.078 359.592 482.9 C 359.746 482.733 360.016 482.675 360.178 482.549 C 360.32 482.439 360.272 482.43 360.529 482.198 C 361.326 481.477 366.167 477.42 366.965 476.698 C 367.221 476.466 367.208 476.5 367.316 476.347 C 367.446 476.164 367.41 475.91 367.667 475.645 C 368.109 475.19 369.798 474.462 370.241 474.007 C 370.498 473.742 370.462 473.488 370.592 473.305 C 370.7 473.152 370.784 473.16 370.943 472.954 C 371.253 472.552 371.998 471.131 372.347 470.73 C 372.539 470.511 372.543 470.686 372.816 470.379 C 373.688 469.398 378.061 462.597 379.018 461.603 C 379.335 461.273 379.447 461.408 379.603 461.252 C 379.759 461.096 379.76 460.854 379.954 460.667 C 380.21 460.419 380.595 459.981 381.124 459.965 Z" style="fill: rgb(5, 14, 26); fill-opacity: 1; fill-rule: nonzero; stroke: rgb(5, 14, 26); stroke-dasharray: none; stroke-dashoffset: 0px; stroke-linecap: butt; stroke-linejoin: miter; stroke-miterlimit: 4; stroke-opacity: 1; stroke-width: 0px; paint-order: normal; vector-effect: none; opacity: 1; mix-blend-mode: normal; isolation: auto;"/></svg>