<?xml version="1.0" encoding="utf-8"?>
<svg xmlns="http://www.w3.org/2000/svg" viewBox="0 0 380 380" xmlns:bx="https://boxy-svg.com" width="380px" height="380px"><defs><bx:export><bx:file format="svg"/></bx:export></defs><path stroke="rgb(255,0,0)" opacity="0.9607843137254902" d="M 275.024 84.502 C 286.22 89.801 299.044 100.919 305.39 108.438 C 310.02 113.922 311.709 118.725 313.25 124.157 C 314.44 128.351 313.825 132.303 314.164 136.86 C 316.969 143.419 318.946 150.405 320.375 157.053 C 321.483 160.151 322.517 163.451 323.253 167.027 C 325.811 179.45 325.893 196.743 327.865 212.067 C 329.586 219.576 331.223 227.264 331.974 234.337 C 331.995 234.532 332.015 234.727 332.035 234.924 C 334.366 245.904 336.813 256.604 337.543 263.485 C 338.279 270.42 338.667 272.874 337.543 278.49 C 336.157 285.416 332.69 294.211 328.255 302.069 C 323.346 310.765 316.3 321.008 308.606 328.148 C 301.116 335.098 293.086 340.203 282.883 344.582 C 271.204 349.595 253.948 351.114 241.442 355.299 C 230.131 359.085 220.28 365.289 210.718 368.16 C 202.336 370.678 194.472 371.769 187.14 372.448 C 180.517 373.06 174.432 372.969 168.563 372.448 C 163.037 371.957 158.601 371.379 152.844 369.589 C 145.962 367.451 138.927 365.394 129.979 359.586 C 117.119 351.239 95.167 332.005 83.179 319.217 C 73.384 308.768 67.423 301.057 61.03 289.208 C 53.816 275.839 46.855 253.195 43.167 242.05 C 40.82 234.958 39.678 232.667 38.88 226.331 C 37.871 218.319 37.394 209.316 38.88 197.036 C 40.963 179.826 47.623 146.311 53.885 130.588 C 58.269 119.578 63.241 114.063 68.889 107.009 C 74.357 100.181 80.948 94.311 87.109 88.789 C 92.984 83.524 97.68 78.675 104.972 74.499 C 112.219 70.349 123.223 66.437 131.714 63.643 C 134.131 62.101 137.019 60.402 138.911 58.422 C 141.743 55.458 144.256 49.494 145.698 48.062 C 146.334 47.431 145.805 47.515 147.127 47.348 C 153.151 46.587 208.982 47.027 217.863 49.491 C 220.959 50.35 220.614 51.104 221.793 52.706 C 223.324 54.788 222.43 58.512 225.723 61.638 C 231.509 67.131 250.938 72.922 261.448 79.5 C 262.344 80.061 263.26 80.644 264.187 81.243 C 268.194 82.041 272 83.071 275.024 84.502 Z" style="fill-opacity: 1; fill-rule: nonzero; stroke: rgb(5, 14, 26); stroke-dasharray: none; stroke-dashoffset: 0px; stroke-linecap: butt; stroke-linejoin: miter; stroke-miterlimit: 4; stroke-opacity: 1; paint-order: normal; vector-effect: none; opacity: 1; mix-blend-mode: normal; isolation: auto; fill: rgb(158, 119, 103); stroke-width: 5px;"/><path fill="rgb(255,0,0)" stroke="rgb(255,0,0)" stroke-width="0" opacity="0.9647058823529412" d="M 192.856 20.196 C 199.511 19.546 204.858 19.261 210.718 20.196 C 216.65 21.143 225.253 22.496 228.224 25.912 C 230.717 28.778 230.679 34.239 229.653 37.701 C 228.634 41.139 225.962 44.638 222.151 46.633 C 217.336 49.153 210.888 48.973 201.43 49.491 C 186.807 50.292 147.929 50.865 139.268 48.776 C 135.95 47.976 135.508 46.976 134.624 45.561 C 133.778 44.208 133.447 42.116 133.909 40.559 C 134.407 38.883 135.26 37.575 137.839 35.915 C 142.755 32.75 157.025 27.838 166.419 25.198 C 175.351 22.687 185.016 20.961 192.856 20.196 Z" style="fill: rgb(5, 14, 26); fill-opacity: 1; fill-rule: nonzero; stroke: rgb(5, 14, 26); stroke-dasharray: none; stroke-dashoffset: 0px; stroke-linecap: butt; stroke-linejoin: miter; stroke-miterlimit: 4; stroke-opacity: 1; stroke-width: 0px; paint-order: normal; vector-effect: none; opacity: 1; mix-blend-mode: normal; isolation: auto;"><title>backundertop</title></path><path fill="rgb(255,0,0)" stroke="rgb(255,0,0)" stroke-width="0" opacity="0.9607843137254902" d="M 211.288 55.062 C 215.642 54.73 218.593 54.331 220.576 55.062 C 221.924 55.558 222.521 56.28 223.077 57.562 C 223.843 59.33 225.448 63.122 223.792 65.422 C 221.298 68.886 211.575 71.959 203.428 73.639 C 193.527 75.68 178.436 76.449 167.703 75.068 C 158.062 73.827 144.568 68.371 141.624 66.851 C 140.698 66.373 141.189 66.303 140.552 65.779 C 139.239 64.7 133.648 62.2 133.05 60.42 C 132.608 59.107 132.757 57.328 134.836 56.491 C 140.149 54.352 166.419 59.786 179.85 59.349 C 191.517 58.969 204.17 55.604 211.288 55.062 Z" style="fill: rgb(5, 14, 26); fill-opacity: 1; fill-rule: nonzero; stroke: rgb(5, 14, 26); stroke-dasharray: none; stroke-dashoffset: 0px; stroke-linecap: butt; stroke-linejoin: miter; stroke-miterlimit: 4; stroke-opacity: 1; stroke-width: 0px; paint-order: normal; vector-effect: none; opacity: 1; mix-blend-mode: normal; isolation: auto;"><title>undertop</title></path><path stroke="rgb(255,0,0)" opacity="0.9490196078431372" d="M 202.144 8.05 C 204.738 7.241 208.097 7.31 210.003 8.05 C 211.535 8.644 212.122 9.979 213.219 11.265 C 214.495 12.762 215.646 15.5 217.148 16.624 C 218.436 17.587 219.453 18.111 221.436 18.053 C 224.574 17.962 232.054 13.089 235.011 13.766 C 237.116 14.247 238.258 16.502 238.941 18.41 C 239.683 20.485 237.984 24.105 238.941 25.913 C 239.813 27.56 242.993 27.624 243.942 29.128 C 244.88 30.612 245.081 33.112 244.657 34.844 C 244.237 36.562 242.262 37.688 241.442 39.488 C 240.547 41.451 240.55 44.313 239.655 46.276 C 238.835 48.076 238.17 49.981 236.44 50.92 C 234.327 52.067 229.361 51.758 227.152 51.635 C 225.694 51.554 225.111 50.442 223.936 50.92 C 222.151 51.647 220.604 56.721 217.863 58.065 C 214.893 59.521 209.323 59.39 206.431 58.78 C 204.234 58.316 202.944 55.642 201.429 55.922 C 199.831 56.217 199 59.962 197.142 60.923 C 195.22 61.918 192.347 61.974 189.997 61.638 C 187.582 61.292 185.894 59.095 182.852 58.78 C 178.79 58.358 171.581 61.859 167.133 60.923 C 163.17 60.09 160.231 54.548 157.13 54.493 C 154.318 54.442 152.374 58.616 149.27 59.494 C 145.82 60.47 140.313 60.383 137.124 59.494 C 134.532 58.772 133.219 56.397 131.051 55.564 C 128.926 54.749 126.94 55.568 124.263 54.493 C 120.457 52.965 112.462 48.742 110.33 45.561 C 108.804 43.284 109.356 40.252 109.615 38.416 C 109.811 37.036 109.765 36.08 111.044 35.201 C 113.304 33.649 123.441 34.598 125.335 32.343 C 126.789 30.611 123.99 26.917 124.62 24.841 C 125.198 22.935 126.605 20.587 128.55 20.196 C 131.063 19.692 136.487 25.245 139.267 24.484 C 141.863 23.773 142.279 18.193 144.983 16.624 C 147.878 14.944 154.688 15.114 156.416 15.195 C 157.098 15.227 157.208 15.732 157.487 15.552 C 157.877 15.301 157.341 13.779 158.202 13.051 C 159.719 11.768 166.05 9.51 168.562 10.193 C 170.628 10.755 170.944 15.043 172.849 15.195 C 175.213 15.384 179.17 9.738 182.138 8.764 C 184.608 7.954 187.361 7.889 189.283 8.764 C 191.143 9.612 191.703 13.583 193.57 13.766 C 195.802 13.984 199.253 8.951 202.144 8.05 Z M 204.645 22.34 C 201.469 22.111 198.324 27.797 195.356 28.771 C 192.885 29.581 190.278 29.422 188.211 28.771 C 186.265 28.157 185.19 25.228 183.209 25.198 C 180.811 25.162 177.493 29.673 174.635 30.2 C 172.015 30.682 167.975 28.34 166.776 28.771 C 166.146 28.997 166.57 29.643 166.061 30.2 C 165.189 31.154 163.074 33.591 161.06 33.772 C 158.684 33.986 154.264 29.363 152.486 30.2 C 150.799 30.994 151.665 36.119 150.342 38.059 C 149.161 39.792 147.222 41.146 145.341 41.632 C 143.42 42.128 140.789 41.322 138.91 40.917 C 137.283 40.566 134.713 39.672 134.623 39.488 C 134.566 39.372 135.437 39.123 136.052 39.488 C 137.345 40.256 139.576 45.81 141.768 46.633 C 143.691 47.355 147.169 45.699 148.199 45.204 C 148.685 44.97 148.499 44.868 148.913 44.49 C 149.791 43.689 151.819 40.955 153.915 40.203 C 156.244 39.367 160.261 39.435 162.489 40.203 C 164.365 40.849 165.979 42.562 166.776 43.775 C 167.393 44.715 166.732 45.936 167.49 46.633 C 168.491 47.554 171.649 48.565 173.206 48.062 C 174.73 47.57 174.892 44.295 176.779 43.775 C 179.324 43.074 184.54 47.089 188.211 46.633 C 191.927 46.171 195.811 41.749 198.929 40.917 C 201.346 40.272 203.308 40.195 205.359 40.917 C 207.614 41.711 209.962 46.408 211.79 45.919 C 213.864 45.363 214.262 37.389 216.791 35.916 C 219.142 34.546 224.58 37.645 226.08 36.63 C 227.185 35.882 226.692 33.498 226.794 32.343 C 226.871 31.473 227.263 30.422 226.794 30.2 C 226.114 29.877 223.621 32.081 221.793 32.343 C 219.834 32.624 217.703 32.721 215.362 31.629 C 212.159 30.133 208.122 22.591 204.645 22.34 Z" style="fill-opacity: 1; fill-rule: nonzero; stroke: rgb(5, 14, 26); stroke-dasharray: none; stroke-dashoffset: 0px; stroke-linecap: butt; stroke-linejoin: miter; stroke-miterlimit: 4; stroke-opacity: 1; paint-order: normal; vector-effect: none; opacity: 1; mix-blend-mode: normal; isolation: auto; fill: rgb(181, 140, 127); stroke-width: 5px;"><title>top</title></path><path stroke="rgb(255,0,0)" stroke-width="0" opacity="0.9450980392156862" d="M 96.398 83.072 C 99.004 83.195 102.085 84.316 105.329 87.002 C 110.204 91.039 119.057 102.089 121.763 108.437 C 123.778 113.167 124.106 117.891 123.192 121.298 C 122.413 124.198 121.048 125.485 117.833 128.086 C 112.3 132.562 94.598 142.349 88.538 144.52 C 85.402 145.643 83.99 145.7 82.107 145.234 C 80.325 144.794 79.166 144.388 77.463 142.019 C 74.04 137.257 65.677 116.771 65.317 112.01 C 65.168 110.05 65.82 109.886 66.746 108.795 C 68.027 107.284 71.99 105.134 73.176 104.15 C 73.788 103.643 73.531 103.834 74.248 103.079 C 76.421 100.787 86.58 88.179 90.682 85.216 C 93.043 83.51 94.237 82.971 96.398 83.072 Z" style="fill-opacity: 1; fill-rule: nonzero; stroke: rgb(5, 14, 26); stroke-dasharray: none; stroke-dashoffset: 0px; stroke-linecap: butt; stroke-linejoin: miter; stroke-miterlimit: 4; stroke-opacity: 1; stroke-width: 5px; paint-order: normal; vector-effect: none; opacity: 1; mix-blend-mode: normal; isolation: auto; fill: rgb(61, 161, 126);"/><path stroke="rgb(255,0,0)" stroke-width="0" opacity="0.9411764705882353" d="M 278.596 89.503 C 282.405 88.646 286.166 91.441 287.528 92.718 C 287.638 92.822 287.716 92.924 287.771 93.026 C 287.809 93.043 287.847 93.059 287.885 93.076 C 290.815 94.364 295.356 98.062 296.816 100.578 C 296.907 100.735 296.991 100.893 297.068 101.053 C 298.567 102.03 299.991 103.066 301.103 104.15 C 304.987 107.936 309.118 113.257 311.106 117.726 C 312.821 121.578 313.762 126.344 313.25 129.158 C 312.866 131.266 312.143 131.868 310.035 133.802 C 306.073 137.438 293.603 146.132 287.17 148.807 C 282.493 150.752 277.956 151.494 275.024 150.95 C 272.878 150.552 272.29 149.905 270.38 147.735 C 266.712 143.568 259.573 127.267 255.375 123.085 C 252.967 120.686 250.088 121.395 248.944 119.869 C 247.952 118.545 247.69 116.539 248.23 114.868 C 248.882 112.849 250.682 111.446 253.589 108.795 C 258.598 104.226 272.436 90.889 278.596 89.503 Z" style="fill-opacity: 1; fill-rule: nonzero; stroke: rgb(5, 14, 26); stroke-dasharray: none; stroke-dashoffset: 0px; stroke-linecap: butt; stroke-linejoin: miter; stroke-miterlimit: 4; stroke-opacity: 1; stroke-width: 5px; paint-order: normal; vector-effect: none; opacity: 1; mix-blend-mode: normal; isolation: auto; fill: rgb(204, 128, 41);"/><path stroke="rgb(255,0,0)" stroke-width="0" opacity="0.9411764705882353" d="M 271.213 132.374 C 274.068 131.865 276.13 132.607 279.429 135.589 C 285.869 141.41 301.955 166.74 305.152 174.887 C 306.773 179.019 306.517 181.064 305.866 183.461 C 305.279 185.622 304.194 186.944 301.936 188.82 C 298.463 191.705 292.444 194.835 284.788 198.108 C 273.926 202.753 248.123 213.632 240.489 213.113 C 236.79 212.861 236.497 211.661 234.416 208.468 C 230.455 202.394 224.983 177.323 221.912 172.386 C 220.657 170.369 219.36 171.052 218.697 169.885 C 217.973 168.614 217.52 166.44 217.982 164.884 C 218.48 163.207 219.17 162.223 221.912 160.239 C 227.913 155.897 252.052 146.207 260.495 140.948 C 265.835 137.621 267.806 132.981 271.213 132.374 Z" style="fill-opacity: 1; fill-rule: nonzero; stroke: rgb(5, 14, 26); stroke-dasharray: none; stroke-dashoffset: 0px; stroke-linecap: butt; stroke-linejoin: miter; stroke-miterlimit: 4; stroke-opacity: 1; stroke-width: 5px; paint-order: normal; vector-effect: none; opacity: 1; mix-blend-mode: normal; isolation: auto; fill: rgb(196, 12, 46);"/><path stroke="rgb(255,0,0)" stroke-width="0" opacity="0.9450980392156862" d="M 99.731 263.128 C 101.771 262.438 104.662 263.887 107.948 266.343 C 113.443 270.451 126.49 287.526 129.026 290.279 C 129.776 291.093 129.633 291.021 130.098 291.351 C 130.657 291.748 131.658 291.865 132.241 292.423 C 132.869 293.024 133.1 293.692 133.67 294.924 C 134.607 296.946 137.463 301.758 137.243 304.212 C 137.068 306.169 134.989 307.916 134.028 308.856 C 133.383 309.487 132.971 309.291 132.241 309.928 C 131.051 310.968 130.166 313.279 127.597 315.287 C 123.459 318.522 110.906 322.984 107.234 326.719 C 104.861 329.132 105.665 332.603 104.018 333.864 C 102.563 334.979 100.918 335.608 98.302 334.579 C 93.116 332.537 79.315 318.793 74.367 313.501 C 71.29 310.211 70.055 308.867 68.65 305.641 C 67.031 301.922 65.131 295.211 65.792 292.066 C 66.268 289.804 67.32 289.474 69.722 287.421 C 74.354 283.463 91.182 274.548 95.802 269.916 C 98.454 267.257 97.785 263.787 99.731 263.128 Z" style="fill-opacity: 1; fill-rule: nonzero; stroke: rgb(5, 14, 26); stroke-dasharray: none; stroke-dashoffset: 0px; stroke-linecap: butt; stroke-linejoin: miter; stroke-miterlimit: 4; stroke-opacity: 1; stroke-width: 5px; paint-order: normal; vector-effect: none; opacity: 1; mix-blend-mode: normal; isolation: auto; fill: rgb(204, 128, 41);"/><path stroke="rgb(255,0,0)" stroke-width="0" opacity="0.9725490196078431" d="M 222.627 311 C 226.18 309.298 229.929 308.882 234.773 308.856 C 239.144 308.833 243.885 307.184 246.92 308.142 C 249.364 308.914 250.543 309.725 252.278 312.786 C 255.558 318.573 262.055 340.561 261.567 346.368 C 261.331 349.173 260.456 349.888 258.352 351.012 C 255.007 352.799 246.656 351.366 240.489 353.156 C 233.609 355.152 223.386 363.172 219.054 363.159 C 216.611 363.152 215.294 361.359 214.41 359.944 C 213.564 358.59 213.64 355.953 213.695 354.942 C 213.726 354.387 214.263 354.322 214.052 353.87 C 213.625 352.952 210.182 352.539 208.693 349.94 C 206.173 345.539 202.833 330.317 203.692 325.647 C 204.181 322.986 206.055 322.487 207.622 321.003 C 209.338 319.377 211.864 318.349 213.695 316.359 C 215.718 314.16 219.685 312.409 222.627 311 Z" style="fill-opacity: 1; fill-rule: nonzero; stroke: rgb(5, 14, 26); stroke-dasharray: none; stroke-dashoffset: 0px; stroke-linecap: butt; stroke-linejoin: miter; stroke-miterlimit: 4; stroke-opacity: 1; stroke-width: 5px; paint-order: normal; vector-effect: none; opacity: 1; mix-blend-mode: normal; isolation: auto; fill: rgb(28, 117, 189);"/><path fill="rgb(255,0,0)" stroke="rgb(255,0,0)" stroke-width="0" opacity="0.9215686274509803" d="M 113.475 84.248 C 114.533 84.028 116.769 84.188 117.459 84.885 C 118.075 85.508 118.225 86.894 117.777 87.913 C 117.178 89.277 114.066 90.975 112.997 92.055 C 112.289 92.772 112.254 93.15 111.563 93.808 C 110.598 94.727 108.707 96.451 107.42 96.995 C 106.406 97.423 105.256 97.782 104.552 97.313 C 103.732 96.767 103.152 94.118 103.118 93.33 C 103.101 92.914 103.234 92.76 103.437 92.533 C 103.675 92.267 104.139 92.183 104.552 91.896 C 105.071 91.536 105.922 90.804 106.305 90.462 C 106.541 90.251 106.548 90.14 106.783 89.984 C 107.112 89.765 107.868 89.658 108.217 89.347 C 108.539 89.059 108.552 88.544 108.854 88.231 C 109.177 87.898 109.784 87.78 110.129 87.435 C 110.474 87.089 110.687 86.466 110.926 86.16 C 111.099 85.938 111.152 85.887 111.404 85.682 C 111.83 85.335 112.599 84.43 113.475 84.248 Z M 122.717 94.22 C 124.269 93.888 125.486 94.682 126.063 95.335 C 126.545 95.882 126.663 96.76 126.381 97.566 C 125.995 98.671 124.601 99.9 123.035 101.231 C 120.899 103.046 116.237 106.538 114.113 107.286 C 112.862 107.726 111.95 107.79 111.244 107.286 C 110.444 106.713 109.852 104.368 109.81 103.621 C 109.788 103.215 109.729 103.244 110.129 102.824 C 111.393 101.497 119.929 94.817 122.717 94.22 Z M 90.531 130.774 C 91.308 130.673 93.239 130.998 93.877 131.411 C 94.308 131.691 94.251 132.084 94.514 132.527 C 94.854 133.099 95.421 134.177 95.789 134.598 C 96.024 134.868 96.185 134.824 96.426 135.076 C 96.786 135.453 97.341 136.452 97.701 136.829 C 97.942 137.081 98.047 136.938 98.338 137.307 C 99.044 138.201 101.355 141.932 101.844 143.68 C 102.195 144.937 102.381 146.103 101.844 146.867 C 101.259 147.698 99.579 148.92 98.179 148.301 C 95.707 147.208 90.073 137.423 89.097 134.758 C 88.632 133.489 88.997 132.791 89.097 132.208 C 89.161 131.831 89.213 131.638 89.415 131.411 C 89.654 131.145 90.004 130.843 90.531 130.774 Z M 98.816 125.357 C 99.643 125.244 101.266 124.961 102.481 125.994 C 104.518 127.725 107.353 136.707 108.536 138.104 C 108.964 138.609 109.271 138.216 109.492 138.582 C 109.834 139.148 110.294 141.004 109.81 141.768 C 109.285 142.598 107.326 143.507 106.146 143.202 C 104.761 142.845 103.419 140.966 102.162 138.9 C 100.434 136.059 97.548 128.398 97.382 126.791 C 97.326 126.249 97.498 126.221 97.701 125.994 C 97.939 125.728 98.276 125.43 98.816 125.357 Z M 106.783 124.082 C 107.561 123.981 108.953 123.808 110.129 124.719 C 112.086 126.236 115.762 132.839 116.503 135.076 C 116.899 136.274 116.972 136.98 116.503 137.626 C 115.945 138.393 114.189 139.594 112.838 139.06 C 110.674 138.204 106.259 131.138 105.349 128.703 C 104.827 127.306 105.236 126.193 105.349 125.516 C 105.416 125.116 105.465 124.946 105.668 124.719 C 105.906 124.453 106.257 124.151 106.783 124.082 Z M 72.048 118.346 C 73.401 118.031 75.342 118.286 76.031 118.983 C 76.647 119.606 76.97 120.838 76.35 122.011 C 75.247 124.096 68.045 128.019 66.152 129.818 C 65.118 130.802 65.235 131.835 64.399 132.049 C 63.418 132.3 60.972 131.452 60.416 130.615 C 59.929 129.881 60.466 128.132 60.735 127.587 C 60.892 127.269 61.176 127.336 61.372 127.109 C 61.609 126.836 61.663 126.333 62.009 125.994 C 62.44 125.572 63.525 125.253 63.921 124.879 C 64.201 124.614 64.229 124.303 64.399 124.082 C 64.55 123.888 64.637 123.821 64.877 123.604 C 65.283 123.238 66.384 122.377 66.79 122.011 C 67.03 121.793 66.954 121.779 67.268 121.533 C 68.006 120.953 70.488 118.708 72.048 118.346 Z M 74.916 125.994 C 76.055 125.742 78.486 125.909 79.218 126.631 C 79.852 127.257 80.114 128.462 79.536 129.659 C 78.531 131.744 71.956 135.97 70.295 137.626 C 69.448 138.47 69.562 139.225 68.861 139.378 C 67.986 139.57 65.756 138.842 65.196 137.944 C 64.633 137.041 65.064 134.813 65.515 133.961 C 65.852 133.322 66.751 133.14 67.108 132.846 C 67.342 132.653 67.324 132.611 67.586 132.368 C 68.098 131.892 69.627 130.679 70.295 129.977 C 70.802 129.445 71.052 128.869 71.41 128.543 C 71.684 128.295 71.986 128.236 72.207 128.065 C 72.401 127.915 72.429 127.799 72.685 127.587 C 73.133 127.217 73.968 126.204 74.916 125.994 Z M 76.439 98.446 C 77.216 98.345 78.976 98.313 79.785 99.084 C 80.765 100.017 81.875 103.233 81.378 104.342 C 80.944 105.313 78.763 106.061 77.713 105.776 C 76.626 105.48 75.409 103.508 75.005 102.43 C 74.677 101.556 74.905 100.464 75.005 99.88 C 75.069 99.503 75.121 99.31 75.323 99.084 C 75.562 98.818 75.912 98.515 76.439 98.446 Z M 83.768 90.798 C 84.546 90.697 86.383 90.637 87.114 91.436 C 88.01 92.414 88.68 95.854 88.07 97.012 C 87.543 98.014 85.288 98.592 84.406 98.446 C 83.728 98.335 83.314 97.759 82.972 97.012 C 82.488 95.956 82.264 93.117 82.334 92.232 C 82.369 91.789 82.45 91.662 82.653 91.436 C 82.891 91.169 83.242 90.867 83.768 90.798 Z M 252.701 97.951 C 253.479 97.849 255.464 98.268 256.047 98.588 C 256.373 98.767 256.3 98.91 256.525 99.225 C 256.913 99.769 257.347 100.859 258.278 101.775 C 259.599 103.075 263.391 104.562 264.333 106.077 C 265.031 107.201 265.168 108.762 264.651 109.582 C 264.111 110.441 262.469 111.386 260.987 111.016 C 258.691 110.445 253.669 105.429 252.223 103.209 C 251.288 101.774 251.253 100.15 251.267 99.385 C 251.275 98.969 251.383 98.815 251.586 98.588 C 251.824 98.322 252.175 98.019 252.701 97.951 Z M 260.987 91.577 C 261.764 91.476 263.438 91.511 264.333 92.215 C 265.375 93.035 265.855 95.842 266.563 96.676 C 267.002 97.192 267.489 97.146 267.838 97.473 C 268.174 97.788 268.4 98.308 268.635 98.588 C 268.812 98.799 268.905 98.919 269.113 99.066 C 269.362 99.243 269.849 99.185 270.069 99.544 C 270.403 100.091 270.643 101.804 270.387 102.572 C 270.171 103.224 269.596 103.75 268.953 104.006 C 268.215 104.299 267.187 104.564 266.085 104.006 C 264.293 103.096 260.441 98.906 259.553 96.835 C 258.94 95.409 259.428 93.775 259.553 93.011 C 259.621 92.591 259.668 92.441 259.871 92.215 C 260.11 91.948 260.46 91.646 260.987 91.577 Z M 259.712 118.983 C 261.055 118.665 262.456 118.977 263.058 119.621 C 263.633 120.236 263.973 121.513 263.377 122.648 C 262.366 124.571 256.27 128.717 254.294 129.499 C 253.265 129.907 252.644 129.948 252.064 129.499 C 251.314 128.92 250.561 126.389 250.63 125.516 C 250.673 124.96 251.121 124.698 251.426 124.401 C 251.711 124.124 251.828 124.128 252.382 123.763 C 253.631 122.942 257.753 119.447 259.712 118.983 Z M 264.811 125.675 C 265.451 125.526 267.54 125.622 268.157 126.313 C 268.793 127.025 269.178 128.754 268.475 129.977 C 267.411 131.831 261.63 134.902 259.712 135.554 C 258.675 135.907 258.099 135.807 257.481 135.554 C 256.887 135.311 256.303 134.763 256.047 134.12 C 255.754 133.382 255.941 131.883 256.047 131.252 C 256.113 130.863 256.003 130.782 256.366 130.455 C 257.258 129.654 262.714 127.666 263.695 126.95 C 264.083 126.667 263.993 126.52 264.173 126.313 C 264.363 126.095 264.434 125.763 264.811 125.675 Z M 231.031 146.389 C 231.809 146.288 233.495 146.242 234.377 147.026 C 235.495 148.02 236.046 151.927 236.608 152.763 C 236.856 153.132 237.015 152.956 237.245 153.241 C 237.622 153.705 238.144 155.167 238.52 155.631 C 238.751 155.915 239.001 155.795 239.157 156.109 C 239.42 156.633 239.926 158.271 239.476 158.977 C 238.967 159.776 236.807 160.554 235.811 160.411 C 234.953 160.288 234.514 159.587 233.74 158.658 C 232.555 157.236 230.2 153.945 229.597 151.966 C 229.131 150.435 229.467 148.628 229.597 147.823 C 229.667 147.394 229.713 147.253 229.916 147.026 C 230.154 146.76 230.505 146.458 231.031 146.389 Z M 241.548 141.928 C 242.325 141.826 243.9 141.718 244.894 142.565 C 246.31 143.772 247.895 147.942 248.399 150.054 C 248.781 151.656 249.029 153.267 248.399 154.197 C 247.782 155.108 245.887 156.108 244.734 155.631 C 243.175 154.986 241.15 150.675 240.432 148.46 C 239.843 146.642 240.003 144.284 240.113 143.362 C 240.168 142.91 240.229 142.792 240.432 142.565 C 240.671 142.299 241.021 141.996 241.548 141.928 Z M 252.701 137.466 C 253.479 137.365 254.949 137.271 256.047 138.104 C 257.678 139.339 260.088 143.838 260.827 145.911 C 261.331 147.326 261.663 148.596 261.146 149.417 C 260.606 150.275 258.736 151.32 257.481 150.851 C 255.689 150.18 252.854 145.25 251.904 143.043 C 251.223 141.458 251.21 139.706 251.267 138.9 C 251.297 138.473 251.383 138.33 251.586 138.104 C 251.824 137.837 252.175 137.535 252.701 137.466 Z M 296.678 136.192 C 297.507 136.138 299.1 136.448 300.343 137.307 C 302.004 138.455 304.654 141.634 305.442 143.362 C 305.99 144.565 306.244 145.784 305.76 146.548 C 305.235 147.378 303.432 148.404 302.095 147.982 C 300.159 147.373 296.496 142.413 295.563 140.494 C 294.994 139.323 295.178 138.257 295.244 137.626 C 295.285 137.237 295.36 137.055 295.563 136.829 C 295.801 136.563 296.142 136.226 296.678 136.192 Z M 302.733 129.499 C 303.56 129.387 305.216 129.283 306.398 130.137 C 308.071 131.346 310.576 135.811 311.178 137.626 C 311.543 138.727 311.647 139.53 311.178 140.175 C 310.62 140.943 308.773 141.998 307.513 141.609 C 305.828 141.089 303.254 137.357 302.255 135.395 C 301.462 133.839 301.27 131.78 301.299 130.933 C 301.314 130.5 301.415 130.363 301.617 130.137 C 301.856 129.87 302.192 129.573 302.733 129.499 Z M 293.173 146.07 C 294.812 145.84 296.191 146.037 296.837 146.708 C 297.434 147.327 297.794 148.686 297.156 149.735 C 296.092 151.484 290.293 154.368 287.755 155.312 C 285.975 155.975 284.301 156.241 283.294 155.949 C 282.562 155.737 282.12 155.179 281.86 154.515 C 281.548 153.72 281.747 152.005 281.86 151.329 C 281.926 150.928 281.768 150.863 282.178 150.532 C 283.353 149.584 290.565 146.437 293.173 146.07 Z M 299.227 158.499 C 300.862 158.247 302.798 158.414 303.529 159.136 C 304.164 159.762 304.555 161.216 303.848 162.163 C 302.645 163.776 295.028 167.076 293.173 166.466 C 291.929 166.056 291.772 163.27 291.739 162.482 C 291.721 162.066 291.694 162.001 292.057 161.685 C 292.938 160.92 297.158 158.817 299.227 158.499 Z M 286.48 188.454 C 287.258 188.353 288.856 188.012 289.827 189.091 C 291.568 191.028 294.478 201.008 293.651 203.272 C 293.162 204.609 291.103 205.115 289.986 204.706 C 288.605 204.201 287.146 201.378 286.321 199.13 C 285.378 196.558 284.965 191.242 285.046 189.888 C 285.078 189.367 285.162 189.318 285.365 189.091 C 285.603 188.825 285.954 188.523 286.48 188.454 Z M 276.283 193.871 C 277.061 193.77 278.649 193.485 279.629 194.509 C 281.296 196.251 284.216 204.726 283.453 206.778 C 282.964 208.094 280.654 208.77 279.47 208.212 C 277.885 207.465 276.225 202.731 275.486 200.404 C 274.89 198.525 274.773 196.228 274.849 195.305 C 274.886 194.854 274.965 194.735 275.168 194.509 C 275.406 194.243 275.756 193.94 276.283 193.871 Z M 261.624 199.608 C 262.402 199.506 263.952 199.2 264.97 200.245 C 266.759 202.081 270.137 211.317 269.431 213.47 C 269.006 214.767 266.824 215.158 265.767 214.904 C 264.696 214.646 263.855 213.444 263.058 211.876 C 261.862 209.523 260.223 202.54 260.19 201.042 C 260.178 200.506 260.306 200.471 260.509 200.245 C 260.747 199.979 261.097 199.676 261.624 199.608 Z M 232.943 193.553 C 235.051 193.242 237.348 193.396 238.201 194.19 C 238.885 194.826 239.138 196.289 238.52 197.218 C 237.583 198.625 233.341 200.002 230.713 200.882 C 228.187 201.729 224.523 203.159 223.064 202.476 C 221.956 201.956 221.575 199.637 221.63 198.811 C 221.667 198.269 221.788 198.134 222.427 197.696 C 223.913 196.676 230.089 193.974 232.943 193.553 Z M 231.669 184.63 C 233.363 184.423 234.687 184.597 235.333 185.267 C 235.93 185.886 236.084 187.367 235.652 188.295 C 235.125 189.426 233.561 190.511 231.669 191.322 C 229.04 192.448 222.427 194.388 220.515 193.553 C 219.265 193.007 219.123 190.635 219.081 189.888 C 219.058 189.482 218.974 189.416 219.4 189.091 C 220.666 188.127 228.869 184.972 231.669 184.63 Z M 228.163 173.795 C 229.943 173.559 231.457 173.736 232.147 174.432 C 232.763 175.055 232.801 176.614 232.465 177.46 C 232.124 178.319 231.46 178.854 230.075 179.531 C 227.6 180.742 219.147 183.837 217.01 183.037 C 215.706 182.548 215.52 180.198 215.576 179.372 C 215.612 178.83 215.712 178.698 216.372 178.256 C 217.975 177.183 225.356 174.167 228.163 173.795 Z M 211.274 306.258 C 212.051 306.156 213.612 305.806 214.62 306.895 C 216.467 308.891 219.875 319.38 219.081 321.713 C 218.622 323.063 216.534 323.556 215.416 323.147 C 214.036 322.642 212.661 319.859 211.752 317.571 C 210.68 314.874 209.806 309.105 209.84 307.692 C 209.852 307.164 209.955 307.122 210.158 306.895 C 210.397 306.629 210.747 306.326 211.274 306.258 Z M 222.427 301.796 C 223.205 301.695 224.782 301.358 225.773 302.434 C 227.556 304.368 230.709 314.352 229.916 316.615 C 229.449 317.948 227.418 318.635 226.251 318.049 C 224.479 317.158 222.084 310.709 221.312 308.01 C 220.762 306.088 220.888 304.115 220.993 303.23 C 221.046 302.786 221.109 302.66 221.312 302.434 C 221.55 302.167 221.901 301.865 222.427 301.796 Z M 233.899 300.203 C 234.677 300.101 236.404 299.77 237.246 300.84 C 238.7 302.689 240.2 311.895 239.158 314.065 C 238.499 315.435 236.202 315.784 235.174 315.499 C 234.231 315.238 233.579 314.234 233.103 312.79 C 232.337 310.47 232.303 303.163 232.465 301.637 C 232.524 301.09 232.581 301.067 232.784 300.84 C 233.023 300.574 233.373 300.271 233.899 300.203 Z M 209.043 337.169 C 210.82 336.83 212.337 337.11 213.026 337.806 C 213.642 338.429 214.005 339.757 213.345 340.834 C 212.2 342.702 205.821 346.013 202.988 347.048 C 200.976 347.783 198.974 348.3 197.889 347.685 C 196.915 347.132 196.497 344.767 196.455 344.02 C 196.433 343.614 196.359 343.589 196.774 343.224 C 198.031 342.118 206.147 337.722 209.043 337.169 Z M 257.8 316.137 C 259.858 315.722 262.484 315.958 263.377 316.774 C 264.075 317.413 264.476 318.785 263.695 319.801 C 262.205 321.742 251.771 326.308 249.514 325.697 C 248.205 325.342 247.991 322.925 248.08 322.032 C 248.146 321.377 248.453 321.172 249.196 320.598 C 250.647 319.477 255.24 316.653 257.8 316.137 Z M 263.536 324.422 C 265.622 323.909 267.662 324.289 268.476 325.059 C 269.144 325.692 269.379 327.201 268.794 328.087 C 267.962 329.346 263.027 330.454 262.102 331.114 C 261.722 331.386 261.959 331.435 261.624 331.751 C 260.854 332.478 258.258 334.723 256.525 335.576 C 254.959 336.346 252.779 337.373 251.745 336.85 C 250.773 336.359 250.345 333.655 250.311 332.867 C 250.293 332.451 250.218 332.468 250.63 332.07 C 251.922 330.822 260.295 325.219 263.536 324.422 Z M 227.207 347.685 C 227.985 347.584 229.714 347.406 230.553 348.323 C 231.773 349.653 233.165 355.201 232.465 356.767 C 231.955 357.91 229.847 358.634 228.801 358.201 C 227.534 357.677 226.218 354.273 225.773 352.625 C 225.422 351.325 225.654 349.84 225.773 349.119 C 225.841 348.709 225.889 348.549 226.092 348.323 C 226.33 348.056 226.681 347.754 227.207 347.685 Z M 234.856 344.817 C 235.633 344.716 237.411 344.75 238.202 345.454 C 239.077 346.234 239.254 348.925 239.636 349.597 C 239.816 349.915 239.99 349.757 240.114 350.075 C 240.362 350.713 240.742 352.882 240.432 353.899 C 240.163 354.785 239.481 355.79 238.68 355.971 C 237.75 356.18 235.884 355.676 235.015 354.537 C 233.835 352.991 233.384 347.514 233.421 346.251 C 233.436 345.745 233.537 345.681 233.74 345.454 C 233.979 345.188 234.329 344.886 234.856 344.817 Z M 118.221 265.879 C 119.095 265.81 120.99 266.341 121.567 266.995 C 122.05 267.541 122.277 268.128 121.886 269.226 C 121.045 271.58 114.964 280.228 112.485 281.176 C 111.041 281.727 109.374 280.627 108.82 279.742 C 108.272 278.866 108.511 277.416 109.139 275.918 C 110.068 273.699 114.278 268.842 115.353 267.792 C 115.765 267.389 115.929 267.484 116.15 267.313 C 116.344 267.163 116.39 267.016 116.628 266.835 C 116.983 266.565 117.545 265.934 118.221 265.879 Z M 123.32 274.072 C 124.103 273.944 126.338 274.038 126.985 274.709 C 127.581 275.328 127.747 276.563 127.303 277.736 C 126.624 279.53 123.087 282.758 121.408 284.269 C 120.197 285.36 119.293 286.151 118.221 286.5 C 117.272 286.809 116.059 287.004 115.353 286.5 C 114.552 285.928 113.961 283.582 113.919 282.835 C 113.896 282.429 113.942 282.345 114.238 282.038 C 114.808 281.447 117.421 280.436 118.062 279.808 C 118.425 279.452 118.296 279.133 118.54 278.852 C 118.809 278.541 119.375 278.29 119.655 278.055 C 119.866 277.878 119.965 277.818 120.133 277.577 C 120.38 277.222 120.595 276.33 120.93 275.984 C 121.203 275.701 121.644 275.727 121.886 275.506 C 122.114 275.296 122.141 274.941 122.364 274.709 C 122.607 274.457 122.83 274.151 123.32 274.072 Z M 130.012 282.038 C 131.218 281.688 133.031 282.005 133.677 282.676 C 134.273 283.295 134.548 284.489 133.995 285.703 C 133.041 287.801 127.366 292.73 125.232 293.829 C 124.023 294.452 123.068 294.617 122.364 294.148 C 121.543 293.602 120.963 290.953 120.93 290.165 C 120.912 289.749 121.054 289.576 121.248 289.368 C 121.461 289.14 121.955 289.067 122.205 288.89 C 122.412 288.743 122.443 288.613 122.683 288.412 C 123.064 288.092 124.064 287.561 124.435 287.137 C 124.715 286.818 124.68 286.445 124.913 286.181 C 125.153 285.91 125.403 285.902 125.869 285.544 C 126.738 284.878 128.61 282.446 130.012 282.038 Z M 72.651 273.753 C 73.429 273.652 75.359 273.977 75.997 274.39 C 76.428 274.67 76.298 274.834 76.634 275.506 C 77.41 277.051 79.685 283.576 80.936 284.907 C 81.567 285.577 82.326 285.036 82.689 285.544 C 83.149 286.186 83.271 287.917 83.008 288.89 C 82.757 289.815 82.103 291.046 81.255 291.28 C 80.277 291.55 78.576 291.118 77.272 289.846 C 75.195 287.821 71.901 280.2 71.217 277.736 C 70.866 276.473 71.117 275.77 71.217 275.187 C 71.281 274.81 71.333 274.617 71.535 274.39 C 71.774 274.124 72.124 273.822 72.651 273.753 Z M 79.662 270.566 C 80.439 270.465 82.359 270.639 83.008 271.204 C 83.564 271.688 83.364 272.993 83.645 273.434 C 83.828 273.722 84.052 273.628 84.282 273.912 C 84.659 274.376 85.181 275.838 85.557 276.302 C 85.788 276.587 85.903 276.486 86.194 276.78 C 86.754 277.345 88.359 278.925 88.744 279.967 C 89.063 280.831 89.213 281.871 88.744 282.516 C 88.186 283.284 86.414 284.429 85.079 283.951 C 83.056 283.226 79.09 277.38 78.228 275.187 C 77.705 273.857 78.115 272.677 78.228 272 C 78.294 271.6 78.343 271.43 78.546 271.204 C 78.785 270.937 79.135 270.635 79.662 270.566 Z M 88.584 265.786 C 89.362 265.685 90.762 265.546 91.931 266.423 C 93.811 267.835 97.224 273.549 97.985 275.824 C 98.446 277.201 98.523 278.247 97.985 279.011 C 97.4 279.842 95.65 280.988 94.321 280.445 C 92.204 279.581 88.002 272.43 87.15 270.088 C 86.679 268.792 87.044 267.851 87.15 267.22 C 87.216 266.831 87.266 266.65 87.469 266.423 C 87.707 266.157 88.058 265.855 88.584 265.786 Z M 102.925 320.279 C 103.801 320.214 105.939 320.695 106.908 321.395 C 107.786 322.028 108.138 323.551 108.661 324.103 C 109.007 324.469 109.336 324.448 109.617 324.741 C 109.93 325.066 110.028 325.603 110.414 326.015 C 110.877 326.512 111.756 326.696 112.326 327.449 C 113.082 328.45 114.31 330.889 114.238 331.911 C 114.189 332.601 113.665 333.046 113.122 333.345 C 112.499 333.688 111.367 333.913 110.573 333.664 C 109.71 333.393 109.016 332.411 108.183 331.592 C 107.222 330.648 106.029 329.085 105.155 328.246 C 104.493 327.609 103.931 327.587 103.403 326.812 C 102.652 325.711 101.546 322.639 101.491 321.713 C 101.464 321.271 101.607 321.143 101.809 320.917 C 102.048 320.65 102.376 320.32 102.925 320.279 Z M 113.76 314.862 C 114.589 314.808 116.213 315.017 117.424 315.977 C 119.144 317.34 121.752 321.637 122.523 323.625 C 123.029 324.929 123.326 326.048 122.842 326.812 C 122.316 327.642 120.489 328.734 119.177 328.246 C 117.203 327.512 113.579 321.668 112.644 319.483 C 112.072 318.145 112.252 316.973 112.326 316.296 C 112.369 315.896 112.441 315.726 112.644 315.499 C 112.883 315.233 113.224 314.897 113.76 314.862 Z M 120.77 308.17 C 121.548 308.068 123.271 308.016 124.117 308.807 C 125.181 309.803 125.502 313.707 126.029 314.543 C 126.263 314.915 126.342 314.783 126.666 315.021 C 127.254 315.453 128.896 316.129 129.534 317.093 C 130.21 318.114 130.958 320.173 130.49 321.076 C 130.03 321.965 128.101 322.772 126.825 322.51 C 125.261 322.189 123.16 319.749 121.886 318.208 C 120.73 316.809 119.743 315.243 119.336 313.746 C 118.963 312.373 119.206 310.409 119.336 309.604 C 119.406 309.175 119.452 309.034 119.655 308.807 C 119.893 308.541 120.244 308.238 120.77 308.17 Z M 74.882 302.434 C 76.203 302.105 78.176 302.374 78.865 303.071 C 79.481 303.693 79.615 305.113 79.184 306.098 C 78.631 307.36 76.341 309.065 74.882 309.763 C 73.626 310.363 71.934 310.899 71.057 310.4 C 70.176 309.899 69.568 307.562 69.623 306.736 C 69.66 306.194 69.94 306.079 70.42 305.62 C 71.256 304.822 73.387 302.805 74.882 302.434 Z M 80.936 307.214 C 81.577 307.064 83.673 307.183 84.282 307.851 C 84.889 308.516 84.934 310.132 84.601 311.197 C 84.233 312.373 83.192 313.653 81.892 314.543 C 80.336 315.609 76.795 317.282 75.519 316.774 C 74.49 316.365 73.995 314.002 74.085 313.109 C 74.151 312.454 74.616 312.207 75.2 311.675 C 76.064 310.89 78.311 309.673 79.184 308.966 C 79.742 308.514 79.986 308.164 80.299 307.851 C 80.549 307.601 80.56 307.301 80.936 307.214 Z M 86.354 314.543 C 87.434 314.307 89.648 314.484 90.337 315.18 C 90.953 315.803 91.07 317.26 90.656 318.208 C 90.152 319.361 87.748 320.484 86.832 321.395 C 86.163 322.059 86.119 322.982 85.398 323.147 C 84.471 323.36 81.911 322.628 81.414 321.713 C 80.924 320.811 81.862 318.5 82.37 317.73 C 82.71 317.214 83.347 317.23 83.645 316.933 C 83.891 316.689 83.837 316.433 84.123 316.136 C 84.565 315.679 85.428 314.745 86.354 314.543 Z M 215.231 349.306 C 216.648 349.133 217.889 350.062 218.41 350.731 C 218.826 351.265 218.833 352.048 218.629 352.703 C 218.39 353.473 217.793 354.14 216.766 355.005 C 215.146 356.369 210.712 359.155 208.874 359.828 C 207.799 360.221 207.179 360.253 206.463 360.047 C 205.756 359.844 204.936 359.192 204.6 358.622 C 204.3 358.113 204.219 357.439 204.381 356.868 C 204.562 356.23 204.904 355.767 205.806 355.005 C 207.479 353.591 212.986 349.579 215.231 349.306 Z M 324.177 192.889 C 324.729 192.928 326.644 193.081 327.355 194.314 C 328.542 196.37 327.323 201.542 328.013 206.808 C 328.983 214.207 334.16 231.719 333.712 235.524 C 333.549 236.911 332.857 237.051 332.287 237.388 C 331.778 237.688 331.104 237.768 330.534 237.607 C 329.895 237.426 329.245 237.133 328.67 236.182 C 327.645 234.484 326.906 230.436 326.04 226.537 C 324.927 221.528 323.351 213.677 322.752 208.124 C 322.231 203.299 321.732 197.26 322.313 194.971 C 322.605 193.823 323.395 193.413 323.738 193.108 C 323.922 192.945 323.925 192.871 324.177 192.889 Z M 255.187 74.292 C 255.85 74.294 256.86 74.672 257.591 75.239 C 258.438 75.896 259.009 77.47 259.848 78.225 C 260.604 78.905 261.22 79.326 262.325 79.682 C 263.81 80.16 266.359 80.064 268.297 80.41 C 270.193 80.749 272.399 81.223 273.833 81.721 C 274.918 82.099 275.867 82.378 276.382 82.959 C 276.828 83.464 277.021 84.238 276.965 84.853 C 276.907 85.477 276.534 86.273 276.018 86.674 C 275.468 87.101 274.937 87.268 273.687 87.257 C 271.215 87.234 263.684 85.776 260.722 84.78 C 258.775 84.126 257.673 83.345 256.644 82.595 C 255.83 82.002 255.124 81.075 254.823 80.774 C 254.694 80.645 254.717 80.704 254.604 80.556 C 254.33 80.197 253.332 78.859 253.075 78.152 C 252.878 77.611 252.827 77.202 252.929 76.696 C 253.047 76.116 253.459 75.277 253.876 74.875 C 254.237 74.527 254.663 74.291 255.187 74.292 Z M 139.552 22.154 C 139.97 22.063 140.677 21.976 141.192 22.154 C 141.745 22.345 142.238 22.72 142.742 23.339 C 143.434 24.191 144.476 26.171 144.747 27.167 C 144.93 27.843 144.911 28.309 144.747 28.807 C 144.581 29.313 144.243 29.882 143.744 30.174 C 143.171 30.511 142.066 30.719 141.375 30.539 C 140.706 30.365 140.164 29.81 139.643 29.172 C 139.015 28.404 138.29 27.022 138.003 26.073 C 137.764 25.286 137.654 24.497 137.82 23.886 C 137.97 23.334 138.493 22.807 138.823 22.519 C 139.068 22.304 139.235 22.223 139.552 22.154 Z M 156.868 55.328 C 157.287 55.237 158.01 55.165 158.508 55.328 C 159.014 55.494 159.506 55.711 159.876 56.331 C 160.447 57.289 161.14 60.18 160.969 61.252 C 160.859 61.946 160.465 62.327 159.967 62.619 C 159.394 62.956 158.245 63.133 157.597 62.984 C 157.033 62.854 156.618 62.467 156.23 61.981 C 155.769 61.405 155.318 60.436 155.136 59.612 C 154.957 58.795 154.924 57.741 155.136 57.06 C 155.317 56.482 155.81 55.981 156.139 55.693 C 156.385 55.478 156.552 55.398 156.868 55.328 Z M 199.703 50.771 C 200.121 50.68 200.845 50.608 201.343 50.771 C 201.848 50.937 202.251 51.178 202.71 51.774 C 203.43 52.709 204.602 55.29 204.898 56.513 C 205.099 57.347 205.082 57.943 204.898 58.518 C 204.725 59.056 204.394 59.592 203.895 59.885 C 203.322 60.222 202.173 60.398 201.525 60.25 C 200.962 60.12 200.623 59.827 200.158 59.247 C 199.449 58.362 198.283 56.101 197.971 54.873 C 197.738 53.954 197.767 53.15 197.971 52.503 C 198.149 51.938 198.644 51.424 198.974 51.136 C 199.219 50.921 199.386 50.841 199.703 50.771 Z M 234.882 35.46 C 235.362 35.358 235.972 35.249 236.887 35.46 C 238.416 35.813 242.546 37.137 243.54 38.286 C 244.198 39.046 244.059 40.078 243.904 40.837 C 243.758 41.557 243.365 42.36 242.72 42.751 C 241.967 43.208 240.693 43.422 239.439 43.116 C 237.754 42.704 234.408 40.759 233.515 39.562 C 232.93 38.777 233.002 37.839 233.15 37.192 C 233.28 36.628 233.823 36.113 234.153 35.825 C 234.398 35.61 234.547 35.532 234.882 35.46 Z" style="fill: rgb(5, 14, 26); fill-opacity: 1; fill-rule: nonzero; stroke: rgb(5, 14, 26); stroke-dasharray: none; stroke-dashoffset: 0px; stroke-linecap: butt; stroke-linejoin: miter; stroke-miterlimit: 4; stroke-opacity: 1; stroke-width: 0px; paint-order: normal; vector-effect: none; opacity: 1; mix-blend-mode: normal; isolation: auto;"/></svg>