<?xml version="1.0" encoding="utf-8"?>
<svg xmlns="http://www.w3.org/2000/svg" viewBox="0 0 120 80" xmlns:bx="https://boxy-svg.com" width="120px" height="80px"><defs><bx:export><bx:file format="svg"/><bx:file format="svg" href="#object-0" path="Untitled 2.svg"/></bx:export></defs><path stroke="rgb(255,0,0)" stroke-width="0" opacity="0.9882352941176471" d="M 77.385 3.979 C 82.122 3.638 87.238 3.722 91.071 3.979 C 94.148 4.186 96.137 4.615 98.892 5.096 C 101.883 5.619 106.313 6.224 108.389 7.052 C 109.724 7.584 110.339 7.998 111.042 8.867 C 111.828 9.84 112.272 10.084 112.718 12.778 C 113.955 20.246 115.086 58.825 113.835 67.243 C 113.32 70.713 112.527 71.56 111.461 72.69 C 110.611 73.591 109.512 73.847 108.389 74.087 C 107.197 74.341 107.246 74.135 104.478 74.087 C 95.625 73.931 49.09 71.533 32.974 72.131 C 23.085 72.499 15.995 75.216 12.026 74.645 C 9.923 74.343 9.116 73.739 8.255 72.55 C 7.253 71.167 7.032 68.374 6.859 66.405 C 6.697 64.567 7.254 63.801 7.138 61.099 C 6.923 56.099 4.95 44.578 4.345 36.519 C 3.756 28.664 2.654 18.461 3.507 13.336 C 4.041 10.129 4.993 8.016 6.44 6.772 C 7.678 5.707 9.564 5.549 11.188 5.655 C 12.911 5.768 14.176 7.175 16.495 7.61 C 19.716 8.215 23.764 8.243 29.343 8.169 C 37.424 8.062 53.142 7.061 61.743 6.214 C 68.193 5.579 72.368 4.341 77.385 3.979 Z" style="fill-opacity: 1; fill-rule: nonzero; stroke: rgb(5, 14, 26); stroke-dasharray: none; stroke-dashoffset: 0px; stroke-linecap: butt; stroke-linejoin: miter; stroke-miterlimit: 4; stroke-opacity: 1; stroke-width: 5px; paint-order: normal; vector-effect: none; opacity: 1; mix-blend-mode: normal; isolation: auto; fill: rgb(226, 155, 250);" id="object-0"/></svg>