<?xml version="1.0" encoding="utf-8"?>
<svg xmlns="http://www.w3.org/2000/svg" viewBox="0 0 360 80" xmlns:bx="https://boxy-svg.com" width="360px" height="80px"><defs><bx:export><bx:file format="svg"/></bx:export></defs><path fill="rgb(255,0,0)" stroke="rgb(255,0,0)" stroke-width="0" opacity="0.9137254901960784" d="M 107.344 4.172 C 127.691 3.847 150.529 8.586 169.454 9.208 C 186.241 9.759 198.194 8.196 215.617 8.368 C 216.351 8.375 217.103 8.387 217.869 8.403 C 219.659 7.322 221.595 6.845 226.155 6.315 C 237.983 4.94 281.5 5.111 301.537 6.954 C 303.159 6.486 304.941 6.091 307.104 5.85 C 317.719 4.668 339.373 4.047 345.714 5.85 C 348.718 6.704 349.134 6.475 350.33 9.627 C 353.334 17.545 354.743 60.297 352.848 69.22 C 352.061 72.927 351.125 73.27 349.071 74.675 C 346.449 76.469 342.585 77.367 337.32 78.033 C 329.593 79.01 318.009 78.619 305.426 78.033 C 289.52 77.291 266.302 73.803 248.351 72.997 C 231.767 72.252 213.032 72.756 201.349 72.997 C 193.305 73.162 190.359 73.863 182.884 73.836 C 173.11 73.801 163.772 72.048 146.792 72.157 C 119.105 72.336 46.341 80.323 24.25 78.033 C 13.577 76.926 9.263 78.036 5.365 71.738 C -0.678 61.972 2.468 21.068 4.526 12.145 C 5.381 8.437 6.135 7.817 8.303 6.69 C 11.179 5.193 17.311 5.184 21.732 5.85 C 25.032 6.347 28.238 8.348 31.487 9.721 C 38.745 8.429 47.56 7.732 54.092 7.155 C 62.731 6.391 73.163 5.84 79.855 6.674 C 89.146 5.401 98.854 4.307 107.344 4.172 Z" style="fill: rgb(128, 121, 128); fill-opacity: 1; fill-rule: nonzero; stroke: rgb(5, 14, 26); stroke-dasharray: none; stroke-dashoffset: 0px; stroke-linecap: butt; stroke-linejoin: miter; stroke-miterlimit: 4; stroke-opacity: 1; stroke-width: 5px; paint-order: normal; vector-effect: none; opacity: 1; mix-blend-mode: normal; isolation: auto;"/></svg>