<?xml version="1.0" encoding="utf-8"?>
<svg xmlns="http://www.w3.org/2000/svg" viewBox="0 0 240 240" width="240px" height="240px" xmlns:bx="https://boxy-svg.com"><defs><bx:export><bx:file format="svg"/></bx:export></defs><path stroke="rgb(255,0,0)" opacity="0.9882352941176471" d="M 163.354 12.919 C 167.676 12.334 171.517 12.47 175.016 12.919 C 178.131 13.319 180.029 13.812 183.438 15.187 C 188.202 17.108 197.211 21.686 201.254 24.581 C 204.051 26.583 204.768 27.616 206.923 30.249 C 209.959 33.958 214.837 40.832 217.613 45.798 C 220.061 50.178 221.879 53.845 223.12 58.432 C 224.437 63.299 224.739 68.973 225.063 74.304 C 225.39 79.663 225.55 84.11 225.063 90.501 C 224.445 98.619 224.088 109.96 220.852 119.655 C 217.365 130.102 205.825 148.431 204.008 150.914 C 203.607 151.462 203.672 151.084 203.36 151.4 C 202.704 152.066 200.776 154.784 200.121 155.45 C 199.809 155.766 199.755 155.637 199.473 155.935 C 198.947 156.49 197.855 158.407 197.205 159.013 C 196.782 159.407 196.611 159.197 196.071 159.661 C 194.943 160.63 192.034 164.507 190.565 165.815 C 190.188 166.15 189.815 166.39 189.47 166.588 C 189.396 166.661 189.329 166.728 189.269 166.787 C 188.698 167.355 188.708 167.053 188.135 167.597 C 188.081 167.648 188.022 167.706 187.958 167.772 C 187.924 167.978 187.957 168.181 187.487 168.569 C 187.332 168.697 187.104 168.857 186.814 169.044 C 185.03 171.111 182.349 174.439 181.494 175.209 C 181.06 175.601 180.956 175.421 180.685 175.695 C 180.31 176.074 180.088 176.859 179.551 177.477 C 178.881 178.249 177.362 179.279 176.797 179.906 C 176.44 180.303 176.514 180.423 176.15 180.878 C 175.495 181.696 174.075 183.411 172.748 184.604 C 171.303 185.903 168.494 187.688 167.727 188.329 C 167.41 188.593 167.72 188.451 167.241 188.815 C 164.949 190.557 142.097 204.698 138.573 207.927 C 137.302 209.092 137.605 209.667 137.116 210.194 C 136.74 210.599 136.385 210.596 135.982 211.004 C 135.434 211.559 134.6 212.957 134.2 213.434 C 133.979 213.698 133.954 213.623 133.714 213.919 C 133.359 214.359 132.57 215.688 131.895 216.667 C 131.929 218.76 132.098 220.737 131.771 222.018 C 131.388 223.516 131.195 224.267 130.151 225.095 C 128.745 226.21 125.089 227.411 123.187 227.363 C 122.167 227.337 121.324 227.205 120.543 226.713 C 120.338 226.722 120.139 226.723 119.947 226.715 C 118.566 226.656 117.248 225.906 116.222 225.095 C 115.197 224.285 114.28 222.433 113.792 221.856 C 113.553 221.572 113.645 221.819 113.307 221.37 C 111.885 219.482 101.591 202.464 99.701 200.476 C 99.162 199.908 99.194 200.444 98.73 199.99 C 97.564 198.853 94.215 192.915 92.575 191.082 C 91.55 189.937 90.565 189.581 89.983 188.977 C 89.972 188.966 89.962 188.955 89.951 188.944 C 88.728 188.12 87.489 187.318 86.258 186.547 C 81.26 183.419 72.202 179.732 70.224 178.125 C 69.488 177.527 69.809 177.277 69.414 176.829 C 68.913 176.261 67.736 175.533 67.308 175.047 C 67.03 174.731 67.204 174.65 66.822 174.238 C 65.898 173.238 61.713 170.358 60.182 168.731 C 59.06 167.54 58.596 166.164 57.914 165.491 C 57.448 165.031 57.041 165.059 56.618 164.682 C 56.12 164.237 55.508 163.289 55.161 162.9 C 54.946 162.66 54.938 162.62 54.675 162.414 C 54.22 162.059 52.855 161.431 52.407 160.956 C 52.096 160.627 52.147 160.23 51.921 159.985 C 51.708 159.753 51.336 159.672 51.111 159.499 C 50.914 159.346 50.972 159.333 50.626 159.013 C 49.573 158.041 43.632 153.065 42.365 151.724 C 41.811 151.138 41.794 150.876 41.555 150.591 C 41.376 150.376 41.28 150.254 41.07 150.105 C 40.816 149.925 40.581 150.081 40.098 149.619 C 38.826 148.403 35.24 143.951 32.971 139.739 C 30.1 134.408 27.009 127.937 24.873 119.331 C 22.059 107.992 20.241 87.717 19.366 75.924 C 18.697 66.91 18.379 59.581 19.042 53.573 C 19.554 48.934 20.593 45.468 21.958 42.235 C 23.163 39.379 25.414 36.116 26.493 34.947 C 27.033 34.36 27.477 34.379 27.788 34.137 C 28.014 33.96 28.001 33.907 28.274 33.651 C 28.834 33.127 30.792 31.421 31.352 30.897 C 31.625 30.642 31.483 30.697 31.837 30.411 C 32.852 29.593 36.134 26.644 39.612 24.905 C 44.279 22.571 51.814 19.677 58.4 18.426 C 65.184 17.138 72.224 16.693 79.78 17.454 C 88.112 18.294 99.513 20.827 106.342 23.933 C 111.786 26.409 116.07 30.347 118.813 33.165 C 120.784 35.188 121.188 38.871 122.539 38.834 C 124.026 38.793 126.639 32.667 127.398 31.707 C 127.673 31.358 127.697 31.453 127.884 31.221 C 128.155 30.884 128.494 30.091 128.855 29.764 C 129.154 29.493 129.458 29.6 129.827 29.278 C 130.414 28.765 131.386 27.037 131.933 26.524 C 132.258 26.219 132.491 26.275 132.743 26.038 C 133.037 25.762 132.897 25.448 133.552 24.905 C 135.232 23.511 141.45 19.417 146.186 17.454 C 151.298 15.335 158.24 13.611 163.354 12.919 Z" style="fill-opacity: 1; fill-rule: nonzero; stroke: rgb(5, 14, 26); stroke-dasharray: none; stroke-dashoffset: 0px; stroke-linecap: butt; stroke-linejoin: miter; stroke-miterlimit: 4; stroke-opacity: 1; paint-order: normal; vector-effect: none; opacity: 1; mix-blend-mode: normal; isolation: auto; fill: rgb(245, 49, 65); stroke-width: 5px;"/></svg>