<?xml version="1.0" encoding="utf-8"?>
<svg xmlns="http://www.w3.org/2000/svg" viewBox="0 0 200 80" xmlns:bx="https://boxy-svg.com" width="200px" height="80px"><defs><bx:export><bx:file format="svg"/></bx:export></defs><path stroke-width="0" opacity="0.9882352941176471" d="M 114.465 3.854 C 130.357 4.208 150.985 7.359 164.825 7.451 C 175.606 7.523 187.341 4.366 191.804 5.653 C 194.013 6.289 194.33 6.506 195.101 8.95 C 196.915 14.699 195.355 36.87 195.101 48.518 C 194.885 58.427 195.501 66.904 193.902 71.3 C 193.103 73.497 192.989 73.862 190.605 74.598 C 185.205 76.263 167.149 75.184 154.633 73.998 C 152.659 73.811 150.671 73.551 148.668 73.24 C 120.708 74.293 73.661 73.61 53.914 72.199 C 50.423 71.95 47.079 71.639 43.922 71.283 C 33.397 72.222 15.678 72.577 10.748 71 C 8.364 70.238 8.039 69.181 7.451 67.703 C 6.776 66.005 7.397 64.034 7.451 61.108 C 7.531 56.737 8.511 51.731 8.051 46.72 C 7.68 42.684 6.13 41.101 5.653 36.528 C 4.943 29.732 4.135 12.944 5.653 8.35 C 6.392 6.113 7.561 5.619 8.95 5.053 C 10.423 4.453 11.164 4.95 14.346 5.053 C 21.781 5.293 49.179 7.95 59.31 7.451 C 65.549 7.144 66.371 5.641 72.499 5.053 C 82.173 4.125 99.704 3.525 114.465 3.854 Z" style="fill: rgb(128, 121, 128); fill-opacity: 1; fill-rule: nonzero; stroke-dasharray: none; stroke-dashoffset: 0px; stroke-linecap: butt; stroke-linejoin: miter; stroke-miterlimit: 4; stroke-opacity: 1; stroke-width: 5px; paint-order: normal; vector-effect: none; opacity: 1; mix-blend-mode: normal; isolation: auto; stroke: rgb(71, 46, 62);" fill="rgb(255,0,0)"/></svg>