<?xml version="1.0" encoding="utf-8"?>
<svg xmlns="http://www.w3.org/2000/svg" viewBox="0 0 600 80" xmlns:bx="https://boxy-svg.com" width="600px" height="80px"><defs><bx:export><bx:file format="svg"/></bx:export></defs><path stroke="rgb(255,0,0)" stroke-width="0" opacity="0.8823529411764706" d="M 10.821 6.69 C 11.647 6.761 13.228 6.809 14.76 7.445 C 23.591 6.271 40.924 7.47 50.269 7.529 C 59.15 7.584 62.79 8.421 72.931 8.368 C 88.273 8.289 111.581 5.826 136.72 5.85 C 168.353 5.881 213.673 10.119 250.03 10.047 C 284.601 9.978 319.651 5.664 349.91 5.85 C 376.614 6.015 405.54 9.754 422.932 10.047 C 434.287 10.238 438.597 9.144 448.112 9.208 C 459.403 9.283 474.124 11.336 486.721 10.886 C 499.011 10.448 509.03 7.452 522.812 6.69 C 539.323 5.776 568.366 5.367 579.887 6.69 C 586.188 7.413 589.903 8.13 592.057 10.047 C 593.622 11.439 594.021 13.725 593.738 15.491 C 594.77 20.609 593.709 29.286 593.736 36.486 C 593.772 46.173 594.532 62.459 592.896 68.38 C 592.024 71.54 590.487 72.839 589.119 73.836 C 588.065 74.604 587.004 74.94 585.762 74.675 C 585.664 74.654 585.563 74.633 585.458 74.61 C 566.623 78.602 495.099 78.32 464.899 78.033 C 441.635 77.812 432.943 75.326 409.503 74.675 C 376.888 73.769 308.637 74.342 282.764 74.675 C 268.679 74.856 269.072 75.769 255.066 75.515 C 229.528 75.051 158.957 67.424 130.845 68.8 C 113.437 69.652 109.025 74.245 93.915 75.515 C 74.106 77.179 34.304 77.447 20.053 75.515 C 16.979 75.098 14.422 74.55 12.338 73.922 C 12.118 73.914 11.892 73.885 11.66 73.836 C 10.342 73.555 8.408 73.398 7.029 71.557 C 6.718 71.339 6.444 71.119 6.205 70.898 C 5.091 69.871 5.101 68.783 5.365 67.541 C 5.388 67.435 5.415 67.324 5.446 67.209 C 3.16 55.243 3.537 20.879 5.365 12.985 C 6.215 9.316 8.09 8.502 9.142 7.529 C 9.777 6.941 9.987 6.618 10.821 6.69 Z" style="fill-opacity: 1; fill-rule: nonzero; stroke: rgb(5, 14, 26); stroke-dasharray: none; stroke-dashoffset: 0px; stroke-linecap: butt; stroke-linejoin: miter; stroke-miterlimit: 4; stroke-opacity: 1; stroke-width: 5px; paint-order: normal; vector-effect: none; opacity: 1; mix-blend-mode: normal; isolation: auto; fill: rgb(160, 235, 168);"/></svg>