<?xml version="1.0" encoding="utf-8"?>
<svg xmlns="http://www.w3.org/2000/svg" viewBox="0 0 80 80" width="50px" height="50px" xmlns:bx="https://boxy-svg.com"><defs><bx:export><bx:file format="svg"/><bx:file format="svg" href="#object-0" path="Untitled 2.svg"/></bx:export></defs><path stroke="rgb(255,0,0)" stroke-width="0" opacity="0.996078431372549" d="M 22.242 3.738 C 28.085 3.055 46.342 4.194 52.834 4.166 C 56.532 4.15 57.443 3.938 60.322 3.952 C 63.821 3.969 69.819 3.628 72.515 4.38 C 74.273 4.87 75.234 5.745 76.045 6.626 C 76.743 7.384 77.043 7.71 77.329 9.193 C 77.908 12.191 77.616 21.594 77.329 25.879 C 77.122 28.967 76.462 30.169 76.259 33.153 C 75.991 37.096 76.515 43.862 76.259 47.914 C 76.059 51.084 75.411 52.783 75.19 55.829 C 74.921 59.512 75.677 65.927 74.976 68.665 C 74.541 70.363 74.013 71.217 72.943 71.981 C 72.676 72.172 72.353 72.343 71.995 72.494 C 71.821 72.694 71.637 72.878 71.446 73.051 C 70.667 73.753 70.43 74.033 68.665 74.334 C 65.73 74.836 56.061 75.146 48.89 74.934 C 44.446 75.473 39.285 75.869 35.72 76.046 C 32.361 76.212 30.587 76.229 27.377 76.046 C 23.454 75.821 16.97 75.5 13.685 74.548 C 11.378 73.88 9.647 72.872 8.658 71.874 C 7.937 71.146 7.774 70.399 7.588 69.521 C 7.465 68.938 7.431 68.454 7.46 67.812 C 6.999 66.605 6.637 65.141 6.305 63.317 C 5.343 58.032 5.803 46.385 5.235 39.999 C 4.793 35.02 3.855 32.115 3.524 27.591 C 3.152 22.517 2.557 14.168 3.31 10.905 C 3.73 9.082 4.511 8.364 5.342 7.589 C 6.009 6.967 6.681 6.636 7.611 6.382 C 7.639 6.356 7.667 6.33 7.695 6.305 C 8.493 5.586 9.289 5.246 10.262 5.022 C 11.332 4.775 12.784 4.938 13.899 5.022 C 14.905 5.096 15.557 5.55 16.68 5.449 C 18.183 5.314 19.234 4.09 22.242 3.738 Z" style="fill-opacity: 1; fill-rule: nonzero; stroke: rgb(5, 14, 26); stroke-dasharray: none; stroke-dashoffset: 0px; stroke-linecap: butt; stroke-linejoin: miter; stroke-miterlimit: 4; stroke-opacity: 1; stroke-width: 5px; paint-order: normal; vector-effect: none; opacity: 1; mix-blend-mode: normal; isolation: auto; fill: rgb(245, 49, 65);" id="object-0"/><path stroke="rgb(255,0,0)" opacity="0.9529411764705882" d="M 27.531 26.355 C 27.923 26.276 28.899 26.152 29.456 26.355 C 30.001 26.553 30.343 26.953 30.847 27.531 C 31.553 28.342 32.031 29.946 33.2 31.061 C 34.645 32.439 36.999 33.132 39.297 34.912 C 40.034 35.483 40.905 36.19 41.831 36.97 C 42.812 36.268 43.678 35.629 44.11 35.233 C 44.704 34.688 44.699 34.435 45.073 34.056 C 45.475 33.649 45.799 33.619 46.464 32.879 C 47.843 31.345 51.936 25.04 53.202 23.788 C 53.727 23.269 53.832 23.262 54.272 23.146 C 54.796 23.008 55.64 22.943 56.197 23.146 C 56.742 23.344 57.314 23.781 57.588 24.322 C 57.892 24.923 57.985 26.001 57.802 26.676 C 57.631 27.306 56.881 27.9 56.625 28.28 C 56.464 28.519 56.571 28.445 56.304 28.815 C 55.399 30.069 51.125 36.214 48.068 39.19 C 47.51 39.733 46.865 40.284 46.175 40.828 C 47.591 42.159 48.854 43.438 49.673 44.432 C 51.115 46.181 51.895 47.752 52.24 48.924 C 52.472 49.713 52.413 50.286 52.24 50.849 C 52.075 51.384 51.766 51.934 51.277 52.24 C 50.715 52.591 49.645 52.85 48.924 52.668 C 48.179 52.479 47.569 51.847 46.891 51.063 C 46 50.032 44.903 47.488 44.217 46.678 C 43.831 46.222 43.54 46.214 43.255 45.929 C 42.969 45.644 42.948 45.416 42.506 44.966 C 42.303 44.76 41.966 44.462 41.563 44.12 C 40.112 45.103 38.892 45.928 38.334 46.464 C 37.771 47.006 38.083 47.018 37.586 47.534 C 36.54 48.616 32.781 52.062 31.168 52.882 C 30.19 53.379 29.491 53.46 28.815 53.31 C 28.186 53.17 27.522 52.705 27.21 52.133 C 26.864 51.499 26.788 50.249 26.996 49.566 C 27.177 48.971 27.511 48.789 28.173 48.175 C 29.351 47.083 33.17 44.537 34.27 43.469 C 34.857 42.898 34.863 42.529 35.232 42.185 C 35.581 41.86 36.057 41.75 36.409 41.437 C 36.77 41.115 36.778 40.809 37.357 40.274 C 35.983 39.157 31.094 36.099 29.349 34.591 C 28.092 33.504 27.353 32.903 26.782 31.81 C 26.202 30.698 25.739 28.867 25.927 27.959 C 26.064 27.293 26.805 26.817 27.103 26.569 C 27.278 26.423 27.306 26.4 27.531 26.355 Z" style="fill-opacity: 1; fill-rule: nonzero; stroke: rgb(5, 14, 26); stroke-dasharray: none; stroke-dashoffset: 0px; stroke-linecap: butt; stroke-linejoin: miter; stroke-miterlimit: 4; stroke-opacity: 1; paint-order: normal; vector-effect: none; opacity: 1; mix-blend-mode: normal; isolation: auto; fill: rgb(5, 14, 26); stroke-width: 0px;"/></svg>