<?xml version="1.0" encoding="utf-8"?>
<svg xmlns="http://www.w3.org/2000/svg" viewBox="0 0 1000 500" xmlns:bx="https://boxy-svg.com" width="1000px" height="500px"><defs><bx:guide x="10" y="10" angle="0"/><bx:export><bx:file format="svg"/></bx:export></defs><path stroke="rgb(255,0,0)" stroke-width="0" opacity="0.9803921568627451" d="M 69.396 39.763 C 72.15 39.454 76.015 41.659 80.881 41.851 C 87.602 42.116 97.893 38.614 106.982 39.763 C 116.954 41.023 127.451 47.939 138.303 50.203 C 147.492 52.12 150.88 52.329 163.663 52.914 C 165.751 52.638 168.227 52.565 170.326 53.22 C 171.108 53.257 171.917 53.295 172.757 53.335 C 222.621 55.722 445.551 62.577 482.84 59.6 C 494.291 58.685 492.32 56.191 498.501 55.423 C 506.098 54.48 515.591 54.201 525.646 55.423 C 537.478 56.862 551.24 63.202 565.32 64.82 C 580.354 66.547 595.156 65.946 613.346 64.82 C 635.108 63.473 679.879 59.509 687.996 55.945 C 690.626 54.791 688.16 53.251 690.606 52.291 C 697.289 49.669 722.558 49.876 745.941 50.203 C 778.485 50.658 841.428 57.458 872.271 57.511 C 893.041 57.548 910.612 52.392 919.253 54.379 C 923.848 55.436 924.747 56.415 927.084 60.122 C 930.973 66.291 934.805 83.26 936.48 93.531 C 937.951 102.551 937.438 105.992 937.524 118.588 C 937.68 141.315 935.546 195.373 935.436 228.214 C 935.341 256.764 934.616 284.06 936.48 305.473 C 937.96 322.479 941.842 330.376 943.788 348.28 C 946.429 372.565 951.715 427.079 949.009 441.2 C 947.875 447.115 947.566 447.25 943.266 450.074 C 935.122 455.425 909.778 462.113 893.152 464.691 C 877.07 467.185 856.556 466.858 845.126 465.735 C 837.543 464.99 836.047 462.58 828.421 461.559 C 816.823 460.006 795.381 459.272 779.35 459.471 C 763.728 459.665 755.838 463.485 733.412 462.603 C 694.557 461.076 592.246 443.381 552.792 440.678 C 529.633 439.091 523.991 439.389 504.765 440.678 C 479.878 442.346 440.946 452.337 413.933 452.163 C 413.103 452.158 412.285 452.14 411.475 452.111 C 408.002 452.728 404.485 453.313 401.065 453.911 C 385.531 456.629 356.941 459.255 348.862 459.132 C 345.627 459.082 346.368 458.125 343.642 458.088 C 338.479 458.017 328.238 463.051 317.541 461.22 C 311.078 460.114 302.714 457.091 293.951 453.263 C 290.548 454.086 287.176 454.905 283.868 455.695 C 279.967 457.251 275.805 458.453 271.717 459.246 C 268.632 459.845 265.338 460.291 261.964 460.521 C 254.752 461.88 248.491 462.702 243.753 462.603 C 231.503 462.347 232.736 456.965 219.739 455.295 C 194.447 452.045 111.048 456.583 87.145 454.251 C 75.731 453.137 70.649 453.543 66.786 449.552 C 63.145 445.791 63.413 440.159 63.654 431.804 C 64.047 418.14 72.847 396.152 75.138 371.249 C 78.161 338.395 78.905 280.904 76.182 248.051 C 74.119 223.147 67.554 213.129 64.698 187.496 C 60.768 152.222 54.485 68.861 58.434 50.725 C 59.883 44.069 63.127 43.653 65.22 41.851 C 66.696 40.579 67.488 39.976 69.396 39.763 Z" style="fill-opacity: 1; fill-rule: nonzero; stroke: rgb(5, 14, 26); stroke-dasharray: none; stroke-dashoffset: 0px; stroke-linecap: butt; stroke-linejoin: miter; stroke-miterlimit: 4; stroke-opacity: 1; stroke-width: 5px; paint-order: normal; vector-effect: none; opacity: 1; mix-blend-mode: normal; isolation: auto; fill: rgb(128, 121, 128);"/><path stroke="rgb(255,0,0)" stroke-width="0" opacity="0.9647058823529412" d="M 373.221 326.02 C 374.984 325.707 376.036 325.573 377.392 326.02 C 378.893 326.515 380.911 327.809 381.772 329.148 C 382.584 330.413 382.875 332.359 382.605 333.736 C 382.346 335.058 381.181 336.563 380.311 337.281 C 379.615 337.858 378.363 337.075 378.018 338.115 C 377.215 340.533 378.576 351.626 382.397 357.718 C 386.929 364.944 400.843 372.499 405.962 377.529 C 409.236 380.744 410.304 383.007 412.426 385.244 C 414.329 387.252 417.018 388.595 418.057 390.458 C 418.937 392.037 419.183 394 418.891 395.463 C 418.619 396.822 418.897 397.757 416.597 399.008 C 409.981 402.607 365.807 412.176 358.624 411.52 C 356.211 411.3 356.168 410.394 355.496 409.226 C 354.7 407.845 354.143 406.699 354.661 403.387 C 355.857 395.758 369.922 370.201 370.927 358.76 C 371.632 350.751 368.778 342.949 366.549 339.783 C 365.222 337.901 362.681 338.689 361.752 337.489 C 360.87 336.352 360.648 334.278 360.918 332.902 C 361.177 331.579 361.813 330.37 363.212 329.356 C 365.229 327.894 370.667 326.474 373.221 326.02 Z" style="fill-opacity: 1; fill-rule: nonzero; stroke: rgb(5, 14, 26); stroke-dasharray: none; stroke-dashoffset: 0px; stroke-linecap: butt; stroke-linejoin: miter; stroke-miterlimit: 4; stroke-opacity: 1; stroke-width: 5px; paint-order: normal; vector-effect: none; opacity: 1; mix-blend-mode: normal; isolation: auto; fill: rgb(250, 217, 55); transform-box: fill-box; transform-origin: 50% 50%;" transform="matrix(0.976721, 0.214512, -0.214512, 0.976721, 0.000001, 0.000009)"/><path stroke="rgb(255,0,0)" stroke-width="0" opacity="0.9764705882352941" d="M 625.947 328.884 C 627.241 328.721 629.597 328.794 631.786 329.719 C 634.748 330.969 640.388 334.68 642.005 337.017 C 643.093 338.59 643.108 340.229 642.839 341.605 C 642.58 342.928 641.656 344.417 640.545 345.15 C 639.39 345.913 637.058 346.108 635.957 345.984 C 635.195 345.899 635.146 344.744 634.289 345.15 C 631.924 346.27 620.508 358.879 620.317 364.127 C 620.167 368.276 626.678 371.228 628.241 374.554 C 629.531 377.297 630.46 379.559 629.91 382.478 C 629.22 386.143 625.734 391.796 622.611 394.782 C 619.725 397.542 615.833 399.308 612.184 400.204 C 608.597 401.084 604.716 401.189 600.923 400.204 C 596.731 399.114 591.596 396.739 588.203 393.322 C 584.616 389.711 581.476 383.22 580.278 378.725 C 579.283 374.994 579.41 371.384 580.278 368.298 C 581.1 365.377 582.508 362.979 585.074 360.582 C 588.357 357.515 595.951 353.341 599.672 352.24 C 602.109 351.52 603.492 351.775 605.511 352.24 C 607.782 352.764 610.099 356.439 612.601 355.577 C 616.265 354.315 623.775 343.124 624.488 339.103 C 624.935 336.576 621.882 334.91 621.985 333.264 C 622.074 331.865 623.511 330.438 624.279 329.719 C 624.833 329.2 625.132 328.987 625.947 328.884 Z" style="fill-opacity: 1; fill-rule: nonzero; stroke: rgb(5, 14, 26); stroke-dasharray: none; stroke-dashoffset: 0px; stroke-linecap: butt; stroke-linejoin: miter; stroke-miterlimit: 4; stroke-opacity: 1; stroke-width: 5px; paint-order: normal; vector-effect: none; opacity: 1; mix-blend-mode: normal; isolation: auto; fill: rgb(148, 191, 48); transform-box: fill-box; transform-origin: 50% 50%;" transform="matrix(0.770389, -0.637574, 0.637574, 0.770389, -0.000011, 0.000015)"/><path stroke="rgb(255,0,0)" stroke-width="0" opacity="0.9764705882352941" d="M 427.679 336.011 C 429.005 335.958 432.521 336.384 433.855 337.803 C 435.279 339.322 433.532 342.59 435.647 345.175 C 439.161 349.469 453.732 358.94 458.756 359.119 C 461.796 359.229 463.289 356.526 464.931 354.537 C 466.65 352.454 466.74 348.174 468.715 346.768 C 470.594 345.433 472.92 344.993 476.286 345.972 C 482.085 347.657 497.987 357.782 501.186 362.108 C 502.878 364.394 502.837 365.384 501.983 368.084 C 500.432 372.987 488.316 387.648 486.246 389.797 C 485.656 390.409 485.823 389.885 485.25 390.395 C 483.599 391.865 477.616 400.783 474.294 402.546 C 472.013 403.757 470.336 403.766 467.919 402.945 C 464.514 401.787 460.372 396.545 455.967 393.781 C 451.321 390.867 442.851 388.717 440.628 386.012 C 439.245 384.331 439.148 382.981 439.831 380.833 C 440.935 377.357 451.516 371.13 450.588 367.088 C 449.549 362.559 434.107 355.503 430.468 355.534 C 428.579 355.549 428.62 358.113 427.281 358.721 C 425.864 359.364 423.458 359.461 422.101 359.119 C 420.99 358.84 420.086 358.311 419.512 357.326 C 418.787 356.083 418.25 354.146 418.715 351.749 C 419.432 348.05 424.45 338.715 426.086 336.808 C 426.754 336.027 426.885 336.043 427.679 336.011 Z" style="fill-opacity: 1; fill-rule: nonzero; stroke: rgb(5, 14, 26); stroke-dasharray: none; stroke-dashoffset: 0px; stroke-linecap: butt; stroke-linejoin: miter; stroke-miterlimit: 4; stroke-opacity: 1; stroke-width: 5px; paint-order: normal; vector-effect: none; opacity: 1; mix-blend-mode: normal; isolation: auto; fill: rgb(242, 98, 31); transform-box: fill-box; transform-origin: 50% 50%;" transform="matrix(0.503226, 0.864155, -0.864155, 0.503226, 0.000018, 0.000008)"/><path stroke="rgb(255,0,0)" stroke-width="0" opacity="0.9647058823529412" d="M 539.104 326.328 C 540.612 325.97 542.485 325.52 544.968 326.328 C 548.923 327.616 558.38 333.499 560.85 336.346 C 562.261 337.972 562.51 339.243 562.316 340.744 C 562.099 342.41 560.658 344.94 559.139 345.874 C 557.635 346.799 554.359 346.519 553.275 346.362 C 552.724 346.283 552.73 345.61 552.298 345.874 C 551.16 346.57 546.927 351.788 546.678 356.868 C 546.308 364.459 556.764 383.258 556.451 389.12 C 556.295 392.065 555.119 392.902 553.275 394.251 C 550.868 396.009 546.772 396.758 542.036 397.671 C 535.676 398.895 521.935 401.164 517.604 400.114 C 515.341 399.565 514.992 399.218 513.939 396.937 C 511.738 392.173 509.22 371.655 509.542 366.641 C 509.683 364.432 509.571 364.254 511.007 362.977 C 513.793 360.499 527.97 356.159 530.065 354.913 C 530.697 354.538 530.371 354.525 530.798 354.181 C 531.638 353.506 533.956 352.782 535.44 351.004 C 537.521 348.511 541.815 342.038 541.304 339.277 C 540.898 337.09 536.397 336.388 535.44 334.879 C 534.731 333.762 534.809 332.608 534.951 331.458 C 535.101 330.247 535.663 328.658 536.417 327.794 C 537.097 327.013 537.943 326.605 539.104 326.328 Z" style="fill-opacity: 1; fill-rule: nonzero; stroke: rgb(5, 14, 26); stroke-dasharray: none; stroke-dashoffset: 0px; stroke-linecap: butt; stroke-linejoin: miter; stroke-miterlimit: 4; stroke-opacity: 1; stroke-width: 5px; paint-order: normal; vector-effect: none; opacity: 1; mix-blend-mode: normal; isolation: auto; fill: rgb(73, 194, 242); transform-box: fill-box; transform-origin: 50% 50%;" transform="matrix(0.881673, -0.471861, 0.471861, 0.881673, 0.00002, 0.000025)"/><path stroke="rgb(255,0,0)" stroke-width="0" opacity="0.9372549019607843" d="M 64.457 48.899 C 64.38 53.31 61.399 62.139 61.576 69.785 C 61.724 76.182 63.689 82.213 65.224 89.739 C 74.094 88.144 90.535 87.481 97.946 84.549 C 104.723 81.868 109.522 77.824 112.71 74.106 C 115.257 71.136 116.295 68.135 117.032 64.743 C 117.801 61.198 117.225 56.183 117.032 53.22 C 117.032 53.213 117.031 53.206 117.031 53.2 C 111.288 52.07 105.759 49.342 98.666 48.539 C 89.017 47.446 71.421 47.909 64.466 48.506 C 64.462 48.634 64.459 48.764 64.457 48.899 Z M 69.498 161.25 C 71.889 183.678 79.262 209.986 81.022 230.39 C 82.51 247.644 79.437 266.902 81.022 276.483 C 81.935 282.006 84.56 283.028 85.343 287.286 C 86.275 292.356 85.843 298.184 85.343 305.291 C 84.708 314.313 81.625 326.806 81.022 337.7 C 80.415 348.651 82.815 358.874 81.742 370.829 C 80.986 379.245 78.365 389.538 76.153 399.04 C 80.605 399.03 86.274 399.263 90.744 399.997 C 98.584 401.285 107.412 403.811 115.231 407.199 C 123.145 410.629 132.296 413.647 137.917 420.523 C 142.694 426.366 147.068 438.659 148.734 446.571 C 151.397 445.691 153.922 444.979 156.283 444.649 C 163.14 443.69 165.014 443.968 173.567 444.649 C 188.763 445.86 227.265 453.143 245.587 454.732 C 258.489 455.851 268.029 456.638 275.836 455.452 C 281.666 454.567 285.316 451.189 289.52 450.411 C 293.147 449.74 295.868 449.58 299.603 450.411 C 302.326 451.017 306.501 452.464 309.9 454.042 C 314.797 453.468 322.675 453.986 327.69 454.012 C 333.236 454.041 337.591 455.156 342.815 454.732 C 348.37 454.282 353.103 451.807 360.099 451.131 C 369.099 450.263 382.292 452.095 393.229 451.131 C 404.137 450.17 415.513 446.284 425.638 445.37 C 434.84 444.538 441.179 446.483 451.565 445.37 C 465.147 443.913 483.084 437.061 501.259 435.287 C 521.574 433.304 547.473 433.381 568.238 435.287 C 587.322 437.038 606.575 443.715 621.532 445.37 C 633.375 446.68 638.501 445.031 651.781 446.09 C 671.43 447.657 710.526 454.741 731.723 456.173 C 747.445 457.234 755.909 456.272 769.894 456.173 C 785.79 456.06 806.597 454.554 822.468 455.452 C 836.48 456.246 846.301 460.887 860.639 460.494 C 870.037 460.237 882.229 458.471 893.721 456.224 C 892.349 447.493 892.291 431.355 894.129 421.963 C 896.168 411.538 903.831 397.426 906.372 394.235 C 907.296 393.075 907.969 393.555 908.533 393.155 C 909.001 392.822 909.291 392.592 909.613 392.075 C 910.039 391.39 909.895 390.118 910.693 389.194 C 911.789 387.925 915.034 386.917 916.455 385.593 C 917.648 384.48 917.307 383.51 918.975 381.992 C 921.872 379.356 930.616 372.171 936.1 370.189 C 936.108 366.449 936.412 362.936 936.62 360.026 C 936.891 356.242 938.1 355.068 938.061 350.663 C 937.996 343.498 934.413 328.576 933.74 318.974 C 933.149 310.552 933.505 301.237 933.74 295.928 C 933.887 292.588 934.384 291.884 934.46 288.726 C 934.571 284.106 933.573 275.76 933.74 270.001 C 933.889 264.807 935.314 260.893 935.18 255.597 C 935.027 249.525 932.95 244.971 932.299 235.431 C 931.237 219.877 930.887 188.006 931.579 166.292 C 932.043 151.744 935.13 135.797 936.055 122.786 C 934.82 123.039 933.452 123.25 931.939 123.44 C 925.076 124.303 911.863 124.689 903.131 123.44 C 895.213 122.307 887.731 120.198 881.525 116.958 C 875.737 113.936 871.574 111.69 866.761 105.075 C 860.095 95.912 847.894 68.889 846.098 59.458 C 844.789 59.602 843.62 59.801 842.634 60.062 C 839.284 60.948 839.202 63.544 836.152 64.383 C 831.889 65.557 824.562 65.195 818.147 64.383 C 810.981 63.476 806.774 59.948 795.101 58.622 C 774.347 56.264 717.148 54.446 694.993 57.181 C 681.424 58.856 674.311 64.617 666.905 65.824 C 661.567 66.694 658.699 66.02 653.941 65.824 C 648.509 65.6 643.563 64.024 635.936 64.383 C 625.22 64.888 606.108 69.896 594.165 70.865 C 584.453 71.653 577.193 72.28 568.958 70.865 C 560.624 69.433 553.685 63.851 544.471 62.223 C 534.053 60.382 516.129 59.728 509.181 61.502 C 505.197 62.52 505.027 65.63 501.979 66.544 C 498.341 67.635 492.612 66.939 488.295 66.544 C 484.238 66.173 482.271 64.343 476.772 64.383 C 467.65 64.45 450.94 69.614 435.721 70.865 C 418.29 72.298 393.846 73.558 377.384 71.585 C 363.841 69.962 351.89 63.147 342.815 62.223 C 336.254 61.555 332.512 63.847 326.97 63.663 C 321.028 63.466 315.814 61.324 308.245 60.782 C 298.46 60.082 282.797 60.323 272.235 60.782 C 263.276 61.172 256.011 62.728 248.468 62.943 C 241.415 63.144 236.225 63.189 228.303 62.223 C 218.237 60.995 205.927 56.599 192.293 55.021 C 176.293 53.168 150.39 52.913 137.557 52.86 C 134.739 52.848 132.47 53.003 130.455 53.187 C 131.179 57.966 131.152 63.971 129.995 68.344 C 128.087 75.556 121.921 83.931 116.671 88.87 C 112.024 93.243 107.852 95.253 100.827 97.513 C 92.896 100.064 76.083 103.04 67.03 103.398 C 68.157 119.574 67.425 141.805 69.498 161.25 Z M 926.538 87.07 C 925.588 82.718 927.244 80.774 926.538 76.267 C 926.06 73.213 924.26 68.473 922.576 63.877 C 916.834 66.002 908.31 67.368 900.97 67.264 C 890.802 67.121 878.046 61.191 867.841 60.062 C 865.383 59.79 862.798 59.561 860.229 59.401 C 864.659 67.788 870.067 85.602 873.963 92.111 C 876.765 96.792 877.614 98.414 881.525 101.114 C 886.86 104.795 897.327 108.948 905.292 110.476 C 912.935 111.943 922.158 111.011 928.338 110.476 C 931.111 110.236 933.626 109.353 935.804 108.771 C 934.22 99.187 927.82 92.953 926.538 87.07 Z M 918.255 450.411 C 929.009 447.289 938.602 446.631 943.102 439.608 C 948.205 431.645 945.209 413.331 943.822 402.518 C 942.978 395.932 940.284 390.158 938.384 384.694 C 936.68 385.285 934.929 385.989 933.379 387.033 C 928.762 390.147 923.467 394.559 919.336 400.357 C 914.501 407.142 909.183 416.84 907.092 426.284 C 905.4 433.931 907.175 445.671 907.416 453.253 C 911.422 452.294 915.103 451.326 918.255 450.411 Z M 73.099 414.761 C 71.987 424.19 71.329 432.912 72.379 438.528 C 73.097 442.366 72.685 444.61 76.34 446.81 C 83.421 451.074 109.839 454.07 123.873 453.292 C 127.646 453.083 131.337 452.292 134.9 451.264 C 132.162 444.478 129.319 431.348 125.314 426.644 C 121.803 422.52 118.256 422.184 113.07 420.163 C 106.307 417.526 94.824 414.211 87.143 412.961 C 82.377 412.185 77.24 412.777 73.378 412.682 C 73.272 413.393 73.179 414.086 73.099 414.761 Z M 932.299 51.06 C 935.495 55.13 938.479 66.812 939.501 72.666 C 940.26 77.009 938.584 79.032 939.501 83.469 C 940.796 89.728 947.335 99.271 948.864 107.235 C 950.33 114.879 949.483 122.767 948.864 130.282 C 948.258 137.645 946.031 142.778 945.263 151.888 C 944.209 164.383 944.168 182.596 944.543 200.141 C 944.964 219.896 948.152 250.044 948.144 264.959 C 948.139 274.313 946.758 279.358 946.703 285.125 C 946.658 289.847 947.386 292.744 947.423 297.368 C 947.468 302.847 946.419 308.128 946.703 316.094 C 947.103 327.316 950.919 349.737 951.024 360.026 C 951.092 366.612 948.987 368.922 949.584 374.43 C 950.325 381.265 955.611 390.354 956.786 398.197 C 957.912 405.712 956.896 412.742 956.786 420.523 C 956.67 428.784 957.589 441.315 956.066 446.45 C 955.18 449.438 954.832 449.966 952.105 451.851 C 946.983 455.392 934.845 460.114 921.856 463.375 C 904.187 467.81 867.47 473.801 852.717 473.458 C 844.176 473.259 843.782 470.089 835.432 469.136 C 821.624 467.561 791.515 468.379 772.775 468.416 C 756.515 468.448 746.105 470.181 728.842 469.136 C 707.077 467.819 670.649 460.636 651.061 459.053 C 637.427 457.952 631.617 459.677 619.372 458.333 C 604.192 456.668 584.789 449.979 566.077 448.25 C 546.254 446.419 522.816 446.344 503.419 448.25 C 485.597 450.002 467.308 456.877 453.726 458.333 C 443.339 459.447 436.939 457.491 427.798 458.333 C 417.829 459.252 406.987 463.121 396.109 464.095 C 384.919 465.097 369.101 463.103 361.54 464.095 C 356.974 464.694 356.402 466.338 352.177 466.976 C 345.94 467.918 333.883 467.738 326.25 467.696 C 319.904 467.661 313.016 468.077 309.221 467.049 C 308.711 467.047 308.151 467.018 307.525 466.976 C 303.956 466.736 297.339 463.123 292.401 463.375 C 287.498 463.625 283.683 467.497 277.997 468.416 C 271.126 469.527 263.495 469.264 253.51 468.416 C 240.19 467.285 219.965 462.298 203.816 460.494 C 188.309 458.762 172.017 456.338 158.443 457.613 C 146.424 458.742 134.974 465.005 126.034 466.256 C 119.176 467.215 115.645 466.823 108.749 466.256 C 99.84 465.522 84.474 464.322 76.34 461.214 C 70.075 458.82 65.05 455.196 62.296 451.491 C 60.031 448.444 59.971 445.717 59.415 441.409 C 58.655 435.505 58.462 427.947 59.415 418.362 C 60.728 405.164 67.429 381.657 68.778 367.948 C 69.805 357.512 68.953 349.111 68.778 342.021 C 68.643 336.527 67.822 334.437 68.058 328.337 C 68.414 319.124 73.261 298.621 72.379 290.166 C 71.832 284.923 68.967 284.841 68.058 279.363 C 66.501 269.983 69.499 251.68 68.058 234.711 C 66.318 214.224 58.924 186.88 56.535 164.131 C 54.267 142.545 55.16 119.903 53.654 101.474 C 52.37 85.765 48.556 69.3 48.612 59.702 C 48.648 53.676 49.481 49.946 50.773 46.738 C 51.132 45.848 51.595 45.015 52.097 44.27 C 51.971 43.367 52.004 42.447 52.213 41.697 C 52.633 40.195 53.976 38.736 55.454 37.736 C 57.114 36.613 58.343 36.056 61.936 35.575 C 69.141 34.612 90.176 34.384 100.827 35.575 C 109.228 36.515 115.672 39.861 121.713 40.617 C 126.649 41.234 129.129 40.687 134.676 40.617 C 142.537 40.517 154.492 39.513 165.645 39.896 C 178.06 40.324 194.825 41.627 205.976 43.497 C 214.879 44.991 220.161 48.148 228.303 49.259 C 237.292 50.486 246.188 50.098 257.831 49.979 C 272.499 49.829 296.603 47.377 310.406 47.819 C 320.598 48.145 329.032 50.966 334.892 50.699 C 338.793 50.522 339.4 48.304 343.535 48.539 C 350.52 48.935 364.876 56.254 375.224 57.901 C 385.02 59.462 394.288 58.617 404.032 58.622 C 413.968 58.626 422.548 58.815 434.28 57.901 C 448.799 56.772 474.437 51.424 485.414 51.42 C 491.769 51.417 495.596 54.462 498.378 53.58 C 500.359 52.952 499.926 50.18 501.979 49.259 C 504.97 47.916 510.432 48.6 516.383 48.539 C 524.387 48.456 537.273 47.565 546.632 49.259 C 555.435 50.853 563.252 56.524 571.118 57.901 C 578.329 59.164 583.479 58.595 592.004 57.901 C 603.383 56.976 623.652 52.314 634.496 51.42 C 642.153 50.788 647.173 51.119 652.501 51.42 C 657.08 51.678 659.615 53.421 664.744 52.86 C 672.006 52.066 680.931 45.871 692.832 44.218 C 708.869 41.99 736.275 43.921 754.77 44.218 C 770.787 44.475 787.23 44.06 797.982 45.658 C 805.555 46.784 809.533 49.747 815.267 50.699 C 820.814 51.621 827.965 52.491 831.831 51.42 C 834.601 50.652 834.277 48.026 837.593 47.098 C 843.59 45.421 858.42 45.987 869.282 47.098 C 880.714 48.268 895.633 54.392 904.571 54.3 C 910.916 54.236 916.614 51.979 919.336 50.339 C 920.944 49.37 920.68 47.767 921.856 47.098 C 923.138 46.37 925.309 45.996 926.898 46.378 C 928.559 46.778 930.699 48.266 931.579 49.619 C 931.859 50.05 932.089 50.509 932.248 50.996 C 932.265 51.017 932.282 51.039 932.299 51.06 Z" style="fill-opacity: 1; fill-rule: nonzero; stroke: rgb(5, 14, 26); stroke-dasharray: none; stroke-dashoffset: 0px; stroke-linecap: butt; stroke-linejoin: miter; stroke-miterlimit: 4; stroke-opacity: 1; stroke-width: 5px; paint-order: normal; vector-effect: none; opacity: 1; mix-blend-mode: normal; isolation: auto; fill: rgb(196, 187, 179);"/></svg>