<?xml version="1.0" encoding="utf-8"?>
<svg xmlns="http://www.w3.org/2000/svg" viewBox="0 0 260 380" xmlns:bx="https://boxy-svg.com" width="260px" height="380px"><defs><bx:guide x="10" y="10" angle="0"/><bx:guide x="10" y="10" angle="90"/><bx:guide x="250" y="370" angle="0"/><bx:guide x="250" y="370" angle="90"/><bx:export><bx:file format="svg"/></bx:export><bx:guide x="158.55" y="89.294" angle="90"/></defs><rect x="10" y="10" width="240" height="360" style="stroke: rgb(0, 0, 0); fill: rgb(73, 81, 105);"/><path stroke="rgb(255,0,0)" opacity="0.9764705882352941" d="M 34.095 5.314 C 36.888 4.737 39.74 7.307 40.702 8.276 C 41.235 8.813 40.375 9.031 41.157 9.871 C 43.829 12.737 67.74 25.051 71.229 29.235 C 72.711 31.011 72.634 31.559 72.141 33.336 C 71.307 36.341 66.919 41.991 62.8 45.866 C 58.106 50.282 48.527 54.681 44.803 57.94 C 42.46 59.989 42.187 62.085 40.474 63.18 C 38.884 64.196 36.926 64.989 35.006 64.547 C 32.647 64.004 28.983 60.278 27.488 58.851 C 26.596 58 27.056 57.883 25.894 56.801 C 22.971 54.081 7.948 45.115 5.162 41.082 C 3.661 38.909 3.971 37.526 4.251 35.614 C 4.567 33.451 5.77 31.119 7.44 28.779 C 9.489 25.91 12.62 23.232 16.325 19.894 C 21.043 15.644 29.661 6.231 34.095 5.314 Z M 85.582 4.403 C 86.96 4.346 89.596 5.896 91.05 5.77 C 92.187 5.671 91.766 4.745 93.783 4.403 C 99.892 3.366 132.958 3.644 142.536 4.403 C 147.566 4.801 149.957 5.263 152.105 6.225 C 153.591 6.891 154.415 7.55 155.066 8.731 C 155.817 10.094 156.385 12.416 155.978 14.199 C 155.533 16.144 153.563 18.417 152.105 19.894 C 150.797 21.22 149.231 21.532 147.776 22.856 C 146.047 24.43 145.427 26.342 142.536 29.007 C 137.534 33.62 120.878 45.037 117.249 48.372 C 115.794 49.708 116.205 50.307 115.198 50.878 C 113.992 51.562 111.789 52.099 110.186 51.789 C 108.518 51.466 107.625 51.077 105.402 48.827 C 100.459 43.827 84.173 21.201 81.253 15.11 C 79.991 12.478 80.032 11.701 80.342 10.098 C 80.665 8.43 82.275 6.227 83.304 5.314 C 84.042 4.659 84.594 4.443 85.582 4.403 Z M 70.09 56.801 C 73.052 56.53 78.777 59.055 83.759 59.535 C 89.306 60.069 97.734 59.824 101.985 59.535 C 104.709 59.35 106.166 58.237 107.908 58.623 C 109.56 58.99 111.059 58.69 112.237 61.585 C 115.563 69.761 117.544 122.299 115.882 131.753 C 115.276 135.197 114.666 135.537 112.92 136.537 C 110.678 137.822 106.995 137.398 102.44 137.448 C 95.853 137.522 81.959 135.649 76.014 136.082 C 72.337 136.349 70.449 138.228 68.268 137.904 C 66.369 137.622 64.462 136.557 63.484 134.942 C 62.343 133.061 62.493 129.784 62.572 126.741 C 62.664 123.208 64.057 119.571 64.395 114.894 C 64.817 109.046 64.516 101.739 64.395 93.935 C 64.254 84.864 62.298 68.917 63.484 63.408 C 64.086 60.607 65.248 59.737 66.445 58.623 C 67.498 57.644 68.279 56.967 70.09 56.801 Z M 10.402 73.204 C 12.048 73.294 16.186 75.223 17.464 76.165 C 18.206 76.712 18.087 77.216 18.603 77.76 C 19.235 78.425 20.574 79.21 21.109 79.811 C 21.484 80.231 21.34 80.422 21.793 80.95 C 22.679 81.98 25.669 84.328 27.033 85.734 C 28.104 86.838 28.671 87.839 29.539 88.695 C 30.346 89.492 30.782 89.415 32.045 90.746 C 34.828 93.678 44.47 104.361 46.625 108.971 C 47.949 111.802 48.37 112.004 47.536 115.806 C 45.603 124.622 29.466 156.663 23.388 166.837 C 19.946 172.599 17.386 175.873 14.958 177.544 C 13.442 178.588 12.249 178.708 10.858 178.456 C 9.294 178.172 7.027 176.944 6.074 175.494 C 5.095 174.007 5.184 172.595 5.162 169.571 C 5.121 164.009 8.141 147.636 7.896 142.233 C 7.766 139.365 6.864 139.935 6.529 136.765 C 5.792 129.784 6.866 105.565 6.074 96.213 C 5.571 90.288 3.33 87.27 3.795 83.456 C 4.22 79.977 6.742 75.582 8.124 74.115 C 8.903 73.289 9.358 73.147 10.402 73.204 Z M 56.877 157.952 C 58.453 158.056 62.26 159.782 63.484 160.914 C 64.315 161.682 63.706 162.298 64.623 163.42 C 66.469 165.678 74.644 171.607 76.697 173.671 C 77.693 174.673 77.201 174.769 78.292 175.722 C 80.662 177.792 87.951 181.398 93.328 185.746 C 99.853 191.022 111.728 201.384 114.515 206.022 C 115.946 208.403 116.362 208.706 115.426 211.489 C 113.335 217.706 92.938 241.681 90.594 244.523 C 90.072 245.156 90.505 244.695 89.91 245.206 C 87.464 247.311 67.634 262.34 63.939 265.938 C 62.452 267.386 63.198 267.383 61.889 268.671 C 59.23 271.29 48.83 278.673 46.169 281.201 C 44.888 282.419 45.148 283.081 44.119 283.707 C 42.835 284.489 40.541 285.492 38.651 285.074 C 36.393 284.575 34.685 282.955 31.589 279.835 C 25.977 274.176 11.14 259.058 7.44 249.307 C 4.454 241.436 6.963 233.395 6.985 226.525 C 7.003 220.501 6.307 213.96 7.44 210.122 C 8.241 207.41 9.806 206.165 11.313 204.427 C 12.839 202.668 14.466 201.691 16.553 199.643 C 19.356 196.892 25.438 190.34 26.805 188.935 C 27.264 188.464 27.011 188.717 27.488 188.252 C 28.949 186.829 36.118 180.263 38.879 177.317 C 40.85 175.214 42.119 173.125 43.208 172.077 C 43.87 171.439 43.999 171.736 44.803 170.938 C 46.642 169.109 52.467 160.595 54.599 158.863 C 55.617 158.036 55.854 157.884 56.877 157.952 Z M 128.412 147.928 C 131.472 147.707 132.596 147.397 134.335 147.928 C 135.991 148.434 137.524 148.808 138.663 150.89 C 140.655 154.53 142.516 167.554 141.853 171.849 C 141.463 174.375 141.318 175.317 138.891 176.633 C 133.987 179.292 112.267 182.021 106.541 181.189 C 103.708 180.778 103.152 180.381 101.757 178.228 C 99.327 174.477 95.861 160.781 96.289 156.357 C 96.535 153.818 96.891 152.838 99.251 151.573 C 103.822 149.122 122.603 148.347 128.412 147.928 Z M 172.608 75.026 C 173.821 74.874 175.355 74.826 177.165 75.482 C 179.757 76.422 182.462 78.314 186.733 81.405 C 193.674 86.429 212.675 100.465 216.121 105.326 C 217.61 107.426 217.733 107.854 217.033 109.882 C 215.729 113.659 206.832 122.257 202.68 126.513 C 199.499 129.775 197.65 130.512 194.251 134.031 C 189.333 139.124 180.067 152.859 175.798 155.674 C 173.652 157.089 172.844 157.245 170.786 156.585 C 167.466 155.522 162.195 150.004 157.8 145.878 C 152.945 141.318 147.162 133.983 142.992 130.158 C 139.918 127.339 136.382 126.069 135.018 124.007 C 134.018 122.494 134.075 120.483 134.107 119.451 C 134.127 118.805 134.547 118.583 134.563 118.084 C 134.58 117.53 133.823 117.197 134.107 116.261 C 134.742 114.174 139.206 108.499 142.536 105.098 C 145.998 101.563 150.458 99.704 154.611 95.53 C 159.661 90.455 167.467 78.337 170.33 75.938 C 171.459 74.991 171.663 75.145 172.608 75.026 Z M 135.246 50.878 C 138.346 50.543 150.09 51.048 153.927 52.245 C 156.233 52.964 157.241 53.091 158.256 55.206 C 160.054 58.954 160.531 72.661 159.623 77.077 C 159.095 79.64 158.814 80.792 156.661 81.861 C 153.016 83.671 139.993 83.71 135.702 82.772 C 133.167 82.218 131.998 82.029 130.918 79.811 C 129.012 75.897 129.005 61.171 130.006 56.573 C 130.574 53.967 131.939 52.702 132.968 51.789 C 133.706 51.134 133.872 51.026 135.246 50.878 Z M 186.733 5.314 C 190.255 5.008 203.647 7.761 209.515 7.592 C 213.759 7.47 217.024 5.305 219.539 5.77 C 221.467 6.126 222.544 6.208 223.867 8.731 C 226.938 14.586 231.954 44.275 231.157 51.106 C 230.804 54.134 229.646 54.936 228.196 55.89 C 226.708 56.868 224.742 56.721 222.273 56.801 C 218.928 56.909 214.255 55.577 209.515 55.89 C 203.958 56.257 194.812 60.068 190.834 59.535 C 188.391 59.207 187.365 58.99 186.05 56.573 C 183.405 51.716 182.124 32.847 181.493 24.679 C 181.046 18.882 180.665 14.225 181.493 11.01 C 182.073 8.755 183.426 7.138 184.455 6.225 C 185.193 5.571 185.291 5.439 186.733 5.314 Z M 245.054 63.18 C 246.631 63.284 250.441 64.606 251.661 66.141 C 252.758 67.521 252.822 69.914 252.572 71.609 C 252.555 71.727 252.528 71.843 252.493 71.958 C 252.52 71.994 252.547 72.029 252.572 72.065 C 253.948 74.005 253.984 78.373 253.484 80.722 C 253.416 81.043 253.325 81.361 253.216 81.673 C 254.03 86.572 254.008 97.676 253.028 101.681 C 252.407 104.217 251.392 105.528 250.066 106.465 C 248.838 107.333 247.118 107.703 245.51 107.376 C 243.587 106.986 241.511 105.431 239.359 103.504 C 236.568 101.004 233.523 95.449 230.474 92.796 C 227.879 90.538 223.861 89.771 222.5 88.012 C 221.51 86.732 221.189 85.466 221.589 83.911 C 222.143 81.763 224.635 78.783 227.285 76.393 C 230.504 73.488 237.783 70.583 240.27 68.192 C 241.833 66.69 241.851 64.909 242.776 64.091 C 243.483 63.466 244.032 63.112 245.054 63.18 Z M 158.484 180.734 C 160.06 180.838 164.051 182.867 165.09 183.695 C 165.618 184.116 164.867 184.323 165.774 184.835 C 169.707 187.055 208.544 195.849 215.894 198.959 C 218.828 200.201 219.346 200.54 220.222 201.921 C 221.118 203.332 221.446 204.245 221.133 207.388 C 220.418 214.587 214.321 239.194 209.287 249.763 C 205.44 257.839 199.615 265.211 195.846 267.76 C 193.624 269.263 193.144 269.084 189.922 268.671 C 183.085 267.796 162.155 260.29 152.56 256.369 C 145.443 253.461 138.287 250.647 135.93 247.94 C 134.577 246.387 134.759 246.102 135.018 243.384 C 135.648 236.784 142.884 213.357 146.865 202.376 C 149.959 193.841 153.988 184.181 156.205 181.645 C 157.116 180.604 157.461 180.666 158.484 180.734 Z M 199.035 145.65 C 202.557 145.3 215.333 147.608 221.817 147.472 C 227.114 147.361 232.378 145.03 235.486 145.65 C 237.597 146.071 238.894 146.91 239.814 148.611 C 241.03 150.859 240.782 154.698 240.726 159.091 C 240.648 165.134 239.836 177.73 238.448 182.329 C 237.662 184.931 237.156 186.125 235.486 187.113 C 233.457 188.313 230.422 188.125 226.373 188.024 C 220.297 187.872 206.103 184.608 201.313 184.835 C 198.857 184.951 198.262 186.412 196.757 186.201 C 195.147 185.976 192.956 184.883 191.973 183.24 C 190.802 181.284 190.861 177.77 191.062 174.583 C 191.294 170.887 193.353 166.256 193.795 162.281 C 194.214 158.524 193.066 154.105 193.795 151.345 C 194.354 149.23 195.728 147.474 196.757 146.561 C 197.495 145.906 197.593 145.793 199.035 145.65 Z M 119.299 260.47 C 122.357 259.864 124.301 261.253 126.133 262.293 C 127.788 263.231 128.723 264.229 130.006 266.165 C 131.845 268.94 132.468 273.188 135.474 278.468 C 140.106 286.603 154.478 304.287 157.8 311.273 C 159.547 314.947 159.991 316.783 159.623 319.019 C 159.288 321.051 158.822 322.012 156.205 324.259 C 150.492 329.165 127.757 341.716 117.932 346.129 C 111.266 349.124 105.57 351.412 101.985 351.141 C 99.666 350.967 99.351 350.767 97.201 348.18 C 91.776 341.654 74.921 308.194 70.318 298.06 C 67.924 292.789 66.463 290.279 66.673 287.58 C 66.833 285.524 67.351 284.383 69.635 282.796 C 74.051 279.728 88.97 277.549 97.428 273.683 C 105.442 270.022 114.187 261.483 119.299 260.47 Z M 215.438 278.24 C 218.323 278.376 220.449 278.606 222.5 281.201 C 225.924 285.532 228.479 299.787 230.246 307.628 C 231.736 314.24 233.593 321.554 232.98 325.398 C 232.595 327.814 232.022 328.798 230.018 330.182 C 226.826 332.387 219.731 333.685 212.704 335.194 C 203.685 337.131 185.274 341.013 179.443 340.206 C 176.591 339.812 176.086 339.935 174.659 337.245 C 171.297 330.905 166.46 297.203 167.368 289.858 C 167.754 286.741 169.004 286.011 170.33 285.074 C 171.558 284.206 173.99 284.09 174.886 284.163 C 175.375 284.203 175.174 284.597 175.798 284.619 C 177.504 284.679 183.847 282.348 188.1 281.885 C 192.494 281.407 197.243 282.48 201.769 281.885 C 206.357 281.282 211.75 278.065 215.438 278.24 Z M 37.74 300.566 C 40.386 300.175 41.384 300.462 42.752 301.022 C 43.985 301.526 44.466 301.97 45.714 303.528 C 48.101 306.506 52.628 314.024 55.738 320.386 C 59.217 327.505 63.978 339.238 65.306 344.535 C 66.064 347.558 66.263 348.97 65.762 350.914 C 65.265 352.84 64.397 354.488 62.344 356.153 C 59.318 358.609 52.213 361.639 47.309 362.988 C 42.813 364.224 39.131 363.382 34.095 364.355 C 27.909 365.549 17.044 370.64 12.68 370.278 C 10.161 370.069 8.828 368.594 7.896 367.317 C 7.067 366.18 7.059 364.588 6.985 363.216 C 6.911 361.854 7.366 361.298 7.44 359.115 C 7.587 354.825 6.699 343.615 6.985 336.789 C 7.241 330.675 9.265 323.833 8.807 319.93 C 8.507 317.368 6.396 316.187 6.529 314.463 C 6.66 312.774 7.195 311.262 9.491 309.679 C 13.956 306.599 32.359 301.36 37.74 300.566 Z M 82.848 361.165 C 86.602 360.698 100.151 361.622 110.844 361.96 C 110.852 361.906 110.86 361.852 110.87 361.798 C 111.154 360.234 112.086 358.014 113.831 357.014 C 116.073 355.73 119.651 356.244 124.311 356.103 C 131.274 355.892 144.044 356.744 153.016 356.558 C 161.266 356.388 170.386 355.379 176.253 355.192 C 180.365 355.06 183.319 354.432 185.822 355.192 C 187.881 355.816 189.636 356.919 190.606 358.609 C 191.692 360.501 191.974 364.18 191.517 366.355 C 191.116 368.263 189.833 370.207 188.556 371.139 C 187.419 371.968 185.846 372.303 184.455 372.05 C 182.891 371.766 180.504 369.877 179.671 369.088 C 179.203 368.646 179.936 368.241 178.987 367.949 C 176.679 367.241 163.318 367.799 150.024 368.405 C 149.778 369.941 149.833 371.846 147.093 373.012 C 139.883 376.08 99.778 375.318 89.683 374.835 C 85.023 374.611 83.412 374.313 81.481 373.468 C 80.058 372.844 79.166 372.037 78.52 370.962 C 77.852 369.851 77.356 368.252 77.608 366.861 C 77.892 365.297 79.541 362.989 80.57 362.077 C 81.308 361.422 81.253 361.364 82.848 361.165 Z M 246.877 338.839 C 250.226 338.305 252.591 339.959 253.939 341.801 C 255.358 343.74 254.733 347.007 254.85 350.458 C 255.001 354.856 255.358 362.835 254.395 366.405 C 253.76 368.758 253.977 370.034 251.433 371.189 C 245.98 373.665 220.656 371.591 213.615 372.556 C 210.107 373.037 209.144 374.63 207.237 374.379 C 205.45 374.144 203.384 372.695 202.452 371.417 C 201.624 370.28 201.288 368.708 201.541 367.317 C 201.825 365.753 202.613 364.046 204.503 362.532 C 207.397 360.215 213.697 359.258 219.539 356.153 C 227.218 352.072 240.916 339.791 246.877 338.839 Z M 246.421 224.93 C 248.067 225.021 252.231 226.485 253.484 227.892 C 254.469 228.999 254.575 230.607 254.395 231.993 C 254.2 233.49 252.486 233.881 252.117 236.549 C 251.35 242.084 255.966 262.197 254.85 267.988 C 254.267 271.019 252.875 272.225 251.433 273.228 C 250.153 274.118 248.376 274.421 246.877 274.139 C 245.259 273.835 243.923 272.992 242.093 271.177 C 239.137 268.247 234.451 258.84 231.385 255.914 C 229.435 254.052 227.144 254.256 226.145 252.952 C 225.281 251.823 224.941 250.343 225.234 248.851 C 225.599 246.994 227.345 244.82 229.107 242.7 C 231.232 240.144 235.012 237.566 237.536 234.727 C 240.014 231.94 242.467 227.248 244.143 225.842 C 245.06 225.072 245.377 224.873 246.421 224.93 Z" style="fill-opacity: 1; fill-rule: nonzero; stroke: rgb(5, 14, 26); stroke-dasharray: none; stroke-dashoffset: 0px; stroke-linecap: butt; stroke-linejoin: miter; stroke-miterlimit: 4; stroke-opacity: 1; paint-order: normal; vector-effect: none; opacity: 1; mix-blend-mode: normal; isolation: auto; fill: rgb(105, 101, 112); stroke-width: 0px;"/><path stroke="rgb(255,0,0)" opacity="0.9568627450980393" d="M 18.376 20.578 C 18.953 26.093 18.614 33.136 18.4 39.845 C 21.942 35.02 28.568 25.788 34.294 18.097 C 28.09 18.616 22.443 18.99 18.19 18.781 C 18.253 19.382 18.314 19.983 18.376 20.578 Z M 17.009 63.408 C 17.23 65.636 18.057 65.018 18.376 67.508 C 19.115 73.293 18.436 89.802 18.376 103.048 C 18.305 118.466 17.166 145.176 17.92 154.99 C 18.299 159.921 19.341 160.133 19.743 164.103 C 20.317 169.786 20.54 178.997 20.198 186.885 C 19.837 195.215 17.66 205.537 17.464 212.856 C 17.307 218.729 18.277 221.258 18.376 227.892 C 18.521 237.707 16.653 260.009 17.464 267.988 C 17.901 272.28 19.255 272.001 19.743 276.189 C 20.614 283.683 20.046 304.356 19.743 312.64 C 19.555 317.765 19.621 320.895 18.831 323.576 C 18.807 323.656 18.783 323.736 18.759 323.814 C 18.793 324.065 18.824 324.321 18.851 324.579 C 19.763 325.583 20.646 326.718 21.565 327.676 C 23.327 329.514 24.423 331.18 26.805 333.372 C 30.082 336.387 36.003 339.664 40.246 344.079 C 44.942 348.966 51.554 357.936 53.46 361.849 C 53.766 362.477 53.995 363.003 54.16 363.473 C 62.569 363.408 89.184 361.631 100.618 361.621 C 109.64 361.613 115.341 362.559 122.033 362.532 C 127.929 362.509 135.088 360.895 138.88 361.527 C 142.365 361.442 148.938 362.08 153.472 362.077 C 158.573 362.073 163.408 361.551 168.508 361.621 C 173.731 361.692 177.596 362.442 184.455 362.532 C 190.38 362.611 199.063 362.277 207.583 361.992 C 208.448 360.736 209.602 359.393 210.882 357.976 C 214.167 354.339 220.252 350.724 225.234 345.446 C 230.835 339.514 239.619 326.263 243.393 322.255 C 243.419 321.476 243.442 320.701 243.46 319.93 C 243.85 303.317 242.843 279.657 243.004 264.799 C 243.127 253.499 243.908 249.06 243.915 237.005 C 243.926 219.591 241.343 177.164 242.093 167.293 C 242.367 163.684 243.125 164.987 243.46 161.825 C 244.193 154.894 244.292 129.054 243.915 121.729 C 243.734 118.204 243.124 118.725 243.004 115.35 C 242.77 108.806 244.424 91.957 244.371 81.633 C 244.323 72.396 243.153 66.219 243.004 56.118 C 242.994 55.408 242.982 54.657 242.969 53.87 C 242.33 53.408 241.721 52.928 241.181 52.472 C 239.297 50.883 238.32 48.741 236.397 46.777 C 234.177 44.51 230.826 42.4 228.424 39.715 C 225.951 36.952 223.716 32.369 221.817 30.374 C 220.541 29.033 219.817 29.209 218.4 27.868 C 216.143 25.733 211.53 19.624 209.515 17.616 C 209.495 17.596 209.475 17.576 209.455 17.557 C 202.895 17.365 198.699 16.764 189.467 16.705 C 172.265 16.594 138.41 18.221 116.109 18.072 C 96.346 17.94 79.137 16.128 61.889 16.249 C 59.017 16.269 56.001 16.397 52.93 16.585 C 52.708 17.096 52.433 17.66 52.093 18.3 C 49.391 23.386 41.101 34.387 35.234 41.537 C 29.614 48.387 21.503 57.968 17.692 60.446 C 17.423 60.621 17.174 60.77 16.942 60.896 C 16.923 61.874 16.941 62.725 17.009 63.408 Z M 241.172 361.329 C 241.179 360.765 241.183 360.179 241.181 359.571 C 241.171 355.859 241.508 350.869 241.928 345.255 C 236.722 351.448 231.09 357.664 227.74 361.165 C 227.61 361.301 227.48 361.436 227.351 361.569 C 232.038 361.482 236.925 361.319 241.172 361.329 Z M 17.92 354.103 C 17.867 356.34 17.414 356.737 17.464 358.204 C 17.52 359.828 16.463 362.293 18.376 363.444 C 20.685 364.832 29.992 364.319 38.088 363.726 C 34.905 359.38 31.162 353.838 27.716 350.23 C 25.026 347.413 21.512 344.556 18.379 342.064 C 18.312 346.986 17.973 351.883 17.92 354.103 Z M 243.076 17.703 C 238.406 17.927 232.808 17.899 227.433 17.818 C 228.152 18.734 228.831 19.596 229.563 20.35 C 230.894 21.722 231.806 22.045 233.436 23.767 C 235.759 26.223 239.746 31.773 242.752 35.251 C 242.735 28.92 242.805 22.624 243.076 17.703 Z M 255.762 7.365 C 257.554 10.2 256.581 15.645 256.673 21.945 C 256.805 30.981 255.725 45.036 255.762 57.94 C 255.803 72.177 257.253 93.419 257.129 103.959 C 257.051 110.535 256.342 112.275 256.217 118.084 C 256.05 125.841 256.833 136.396 256.673 147.245 C 256.487 159.847 254.977 172.866 254.85 189.619 C 254.69 210.786 256.583 243.14 256.673 265.71 C 256.75 285.082 255.732 305.639 255.762 317.652 C 255.781 325.228 256.391 327.509 256.217 334.055 C 256.009 341.908 253.97 357.361 253.919 363.453 C 254.498 363.925 254.906 364.458 255.306 365.038 C 256.096 366.184 256.47 367.748 256.217 369.139 C 255.933 370.703 255.673 372.811 253.256 373.923 C 248.443 376.138 232.342 374.757 221.817 374.835 C 211.232 374.912 199.395 374.259 189.922 374.379 C 181.775 374.482 174.154 375.368 168.052 375.29 C 163.2 375.228 159.709 374.446 155.75 374.379 C 151.976 374.315 148.207 374.936 144.815 374.835 C 142.535 374.767 140.004 374.737 138.028 374.407 C 129.474 375.8 111.554 375.444 105.63 375.29 C 102.02 375.197 102.708 374.502 98.795 374.379 C 90.175 374.108 59.579 376.155 49.131 376.201 C 43.242 376.228 42.236 375.74 37.285 375.746 C 30.507 375.754 16.264 377.731 11.313 376.657 C 8.629 376.075 7.665 375.846 6.529 373.695 C 4.604 370.051 4.932 359.681 4.707 352.736 C 4.484 345.861 4.068 336.461 5.162 332.233 C 5.285 331.756 5.431 331.321 5.594 330.923 C 5.441 328.245 5.459 324.837 6.074 322.664 C 6.135 322.449 6.201 322.238 6.273 322.032 C 6.2 320.928 6.156 319.642 6.074 318.108 C 5.638 309.964 7.824 285.834 6.985 278.012 C 6.543 273.892 5.196 274.26 4.707 270.266 C 3.822 263.041 4.475 244.199 4.707 234.727 C 4.88 227.618 5.657 222.67 5.618 217.412 C 5.583 212.757 4.625 210.16 4.707 204.655 C 4.824 196.754 7.598 181.776 7.44 173.216 C 7.319 166.602 5.632 164.531 5.162 156.813 C 4.403 144.326 5.057 117.206 5.162 101.681 C 5.246 89.208 6.234 75.388 5.618 69.787 C 5.33 67.17 4.544 67.569 4.251 65.23 C 3.726 61.035 4.032 51.692 4.251 44.727 C 4.476 37.574 5.752 28.808 5.618 22.856 C 5.522 18.61 4.019 14.837 4.177 12.113 C 4.079 11.445 4.131 10.76 4.251 10.098 C 4.535 8.534 5.726 6.273 7.213 5.314 C 8.782 4.302 11.747 4.254 13.591 4.403 C 15.163 4.53 15.645 5.483 17.692 5.77 C 21.182 6.259 27.845 6.056 34.095 5.77 C 41.618 5.425 47.401 3.841 60.066 3.492 C 81.813 2.891 133.577 5.391 160.762 5.314 C 181.477 5.256 198.654 3.892 211.793 3.947 C 221.234 3.987 227.344 4.807 234.119 4.859 C 240.107 4.904 247.007 3.508 250.522 4.403 C 251.122 4.556 251.65 4.75 252.118 4.977 C 253.544 5.427 255.011 6.176 255.762 7.365 Z M 127.044 64.546 C 128.899 64.698 132.193 65.363 135.474 68.419 C 141.386 73.926 152.203 91.36 157.8 102.136 C 162.718 111.606 163.924 120.656 168.279 129.474 C 169.296 131.533 170.423 133.464 171.617 135.344 C 172.131 135.872 172.549 136.353 172.836 136.765 C 173.289 137.414 173.566 137.986 173.719 138.529 C 177.21 143.665 181.024 148.749 184.227 155.446 C 190.289 168.119 201.073 194.254 201.085 201.465 C 201.09 204.498 199.401 205.317 198.124 206.249 C 196.987 207.078 195.446 207.443 194.023 207.16 C 192.354 206.828 190.749 206.537 188.783 203.743 C 184.405 197.521 178.259 172.4 172.38 160.458 C 169.299 154.197 165.633 149.445 162.276 144.638 C 157.96 142.057 152.298 137.685 150.584 135.494 C 148.883 134.468 146.977 133.435 144.814 132.892 C 138.288 131.253 126.244 129.374 119.299 131.069 C 113.383 132.513 108.594 137.046 104.946 140.41 C 101.848 143.267 99.312 146.194 98.112 149.522 C 96.95 152.743 97.365 155.67 97.656 160.002 C 98.052 165.893 98.837 175.936 101.301 182.328 C 103.537 188.13 107.847 194.337 111.097 197.136 C 113.383 199.104 115.337 199.386 117.932 199.87 C 118.984 200.066 120.105 200.292 121.276 200.439 C 120.231 194.654 119.006 189.978 118.615 185.062 C 118.342 181.622 118.181 178.488 118.187 175.54 C 116.937 174.66 115.838 173.567 114.97 172.304 C 112.979 169.406 111.137 164.228 111.781 160.458 C 112.449 156.545 116.862 151.465 119.299 149.295 C 121.003 147.777 122.419 147.034 124.311 147.016 C 126.066 147 129.101 148.187 130.815 149.228 C 130.923 149.241 131.033 149.263 131.145 149.295 C 132.699 149.735 135.267 151.247 136.385 153.167 C 136.75 153.793 137.054 154.602 137.293 155.494 C 138.457 156.865 139.484 158.638 140.03 160.458 C 140.683 162.63 141.212 165.271 140.486 167.748 C 139.636 170.645 137.244 174.98 134.335 176.633 C 133.421 177.152 132.282 177.52 131.045 177.757 C 131.101 179.431 131.215 181.231 131.373 183.239 C 131.694 187.321 132.651 191.585 133.585 196.632 C 137.348 193.922 141.279 190.288 143.675 187.796 C 146.491 184.868 147.368 180.793 149.371 179.366 C 150.834 178.324 152.478 178.152 153.927 178.455 C 155.447 178.774 157.384 180.076 158.255 181.417 C 159.117 182.742 159.732 184.32 159.167 186.429 C 158.265 189.793 153.899 195.809 149.826 199.87 C 145.979 203.706 140.636 208.185 135.45 210.679 C 135.458 210.797 135.466 210.915 135.474 211.033 C 136.676 229.181 135.665 270.691 135.474 285.302 C 135.374 292.921 135.938 296.523 135.018 299.882 C 134.389 302.177 133.334 303.735 132.056 304.666 C 130.92 305.495 129.347 305.83 127.956 305.577 C 126.392 305.293 124.226 304.682 123.172 302.616 C 121.483 299.307 122.421 293.33 122.26 284.39 C 121.987 269.194 123.785 231.212 122.783 213.067 C 120.139 213.042 117.64 212.822 115.654 212.628 C 112.229 212.293 109.982 211.588 107.452 210.35 C 104.889 209.095 102.86 207.913 100.39 205.11 C 96.833 201.074 91.319 192.038 88.999 186.429 C 87.138 181.931 86.932 179.168 86.265 174.127 C 85.838 170.906 85.328 166.381 85.002 161.901 C 84.062 163.155 83.112 164.597 82.164 166.381 C 76.868 176.353 69.253 205.734 65.078 210.35 C 63.491 212.104 62.369 211.514 60.977 211.261 C 59.413 210.977 57.13 209.625 56.193 208.299 C 55.325 207.071 54.897 206.48 55.282 203.743 C 56.248 196.862 63.508 176.308 71.229 160.002 C 80.77 139.855 102.768 107.41 110.869 91.657 C 115.802 82.065 117.247 75.103 119.982 70.697 C 121.695 67.938 123.434 66.429 124.766 65.458 C 125.638 64.822 125.955 64.457 127.044 64.546 Z M 146.865 109.426 C 142.281 100.177 131.646 82.925 129.778 81.86 C 129.32 81.599 129.585 81.816 129.095 82.544 C 127.142 85.443 114.931 106.945 106.532 122.417 C 106.535 122.415 106.538 122.414 106.541 122.412 C 109.799 120.596 112.134 118.937 117.02 118.311 C 124.44 117.361 142.062 119.341 148.915 120.589 C 149.846 120.759 150.658 120.922 151.384 121.089 C 150.113 117.181 148.764 113.26 146.865 109.426 Z" style="fill-opacity: 1; fill-rule: nonzero; stroke: rgb(5, 14, 26); stroke-dasharray: none; stroke-dashoffset: 0px; stroke-linecap: butt; stroke-linejoin: miter; stroke-miterlimit: 4; stroke-opacity: 1; paint-order: normal; vector-effect: none; opacity: 1; mix-blend-mode: normal; isolation: auto; stroke-width: 5px; fill: rgb(196, 187, 179);"/></svg>