<?xml version="1.0" encoding="utf-8"?>
<svg xmlns="http://www.w3.org/2000/svg" viewBox="0 0 260 380" xmlns:bx="https://boxy-svg.com" width="260px" height="380px"><defs><bx:guide x="10" y="10" angle="0"/><bx:guide x="10" y="10" angle="90"/><bx:guide x="250" y="370" angle="0"/><bx:guide x="250" y="370" angle="90"/><bx:export><bx:file format="svg"/></bx:export><bx:guide x="158.55" y="89.294" angle="90"/><bx:guide x="129.602" y="319.401" angle="90"/><bx:guide x="131.881" y="291.86" angle="90"/></defs><path fill="rgb(255,0,0)" stroke="rgb(255,0,0)" stroke-width="0" opacity="0.9568627450980393" d="M 244.042 299.908 C 244.23 299.917 244.419 299.932 244.609 299.951 C 244.844 299.903 245.104 299.888 245.409 299.908 C 246.985 300.013 250.684 301.176 252.015 302.87 C 253.359 304.58 253.086 306.384 253.382 310.16 C 253.934 317.19 254.617 351.105 253.382 358.457 C 252.663 362.741 252.326 364.893 249.965 366.886 C 247.148 369.264 242.067 369.833 236.296 370.531 C 228.493 371.476 213.789 370.023 206.224 370.531 C 200.91 370.888 196.917 372.882 193.922 372.354 C 193.917 372.353 193.912 372.352 193.907 372.351 C 190.78 372.654 186.657 372.374 182.531 372.354 C 174.614 372.314 158.997 369.976 153.37 370.531 C 150.431 370.821 150.161 372.011 147.903 372.354 C 144.985 372.796 140.247 372.447 136.967 372.354 C 134.108 372.273 132.428 371.89 129.222 371.898 C 124.893 371.91 120.584 372.725 112.819 372.809 C 100.048 372.948 66.272 370.34 55.864 371.443 C 50.778 371.982 50.748 373.642 46.752 374.176 C 42.636 374.727 35.789 374.592 29.946 374.394 C 29.525 374.725 29.093 375.001 28.639 375.2 C 25.893 376.406 23.235 376.635 20.893 376.112 C 19.33 375.763 17.676 375.045 16.339 373.959 C 14.562 373.855 12.979 373.663 11.668 373.265 C 9.482 372.601 7.815 371.581 6.884 370.303 C 6.055 369.167 5.72 367.594 5.972 366.203 C 5.981 366.155 5.99 366.107 5.999 366.057 C 5.984 365.338 5.987 364.495 5.972 363.469 C 5.899 358.409 6.501 344.459 7.51 335.072 C 7.452 334.972 7.395 334.87 7.339 334.764 C 6.203 332.603 5.163 314.251 5.465 311.454 C 4.674 310.323 4.358 308.788 4.605 307.426 C 4.889 305.862 5.634 303.674 7.567 302.642 C 10.398 301.131 16.853 301.513 22.147 301.731 C 26.038 301.891 30.184 302.91 34.545 303.661 C 32.823 298.193 32.054 285.241 32.855 280.544 C 33.391 277.396 35.122 275.485 36.272 274.393 C 37.027 273.676 37.024 273.702 38.55 273.481 C 42.632 272.89 62.147 272.188 67.255 273.481 C 69.843 274.137 70.694 274.957 71.584 276.443 C 72.576 278.101 72.467 280.181 72.495 283.278 C 72.536 287.764 71.994 297.93 70.878 302.561 C 75.842 302.521 81.773 302.641 87.393 302.743 C 86.782 298.088 86.913 291.566 87.531 288.745 C 88.066 286.305 89.006 284.92 90.493 283.961 C 92.062 282.949 94.1 283.185 96.872 283.05 C 100.855 282.855 109.521 283.798 112.819 283.505 C 113.429 283.451 113.876 283.317 114.252 283.168 C 114.271 279.14 114.484 275.577 114.869 273.709 C 115.437 270.954 115.9 269.999 117.831 268.925 C 120.662 267.35 126.571 267.814 132.411 267.558 C 139.908 267.229 154.804 266.298 159.749 267.558 C 162.304 268.209 163.18 268.973 164.078 270.52 C 165.13 272.333 164.888 274.81 164.989 278.266 C 165.14 283.443 165.253 295.327 164.078 299.68 C 163.934 300.214 163.778 300.693 163.61 301.125 C 168.274 301.186 172.318 301.242 175.241 301.275 C 179.5 301.323 182.847 301.487 185.678 301.614 C 185.467 298.949 185.569 296.07 185.92 294.345 C 184.396 294.548 183.007 294.644 182.075 294.441 C 179.878 293.961 178.36 293.632 177.291 291.479 C 175.481 287.834 175.442 274.811 176.38 270.52 C 176.934 267.985 177.28 266.9 179.342 265.736 C 182.65 263.867 193.101 263.763 197.567 263.457 C 200.575 263.252 202.478 262.88 204.402 263.457 C 206.132 263.977 207.84 264.933 208.73 266.419 C 209.722 268.077 209.691 270.161 209.641 273.254 C 209.577 277.269 208.65 285.823 207.538 290.898 C 214.577 290.953 225.001 289.759 229.006 290.796 C 231.479 291.435 232.436 292.21 233.334 293.757 C 234.387 295.57 234.661 299.038 234.246 301.503 C 234.182 301.883 234.106 302.28 234.015 302.685 C 238.091 301.758 241.077 299.761 244.042 299.908 Z" style="fill: rgb(128, 121, 128); fill-opacity: 1; fill-rule: nonzero; stroke: rgb(5, 14, 26); stroke-dasharray: none; stroke-dashoffset: 0px; stroke-linecap: butt; stroke-linejoin: miter; stroke-miterlimit: 4; stroke-opacity: 1; stroke-width: 5px; paint-order: normal; vector-effect: none; opacity: 1; mix-blend-mode: normal; isolation: auto;"/></svg>