<?xml version="1.0" encoding="utf-8"?>
<svg xmlns="http://www.w3.org/2000/svg" viewBox="0 0 260 380" xmlns:bx="https://boxy-svg.com" width="260px" height="380px"><defs><bx:guide x="10" y="10" angle="0"/><bx:guide x="10" y="10" angle="90"/><bx:guide x="250" y="370" angle="0"/><bx:guide x="250" y="370" angle="90"/><bx:guide x="125.517" y="273.529" angle="90"/><bx:guide x="124.06" y="232.004" angle="90"/><bx:export><bx:file format="svg" path="Untitled 2.svg"/></bx:export></defs><path d="M 223.455 230.751 C 227.945 230.002 244.305 231.613 248.399 231.485 C 250.143 231.431 250.295 230.939 251.334 231.118 C 252.536 231.326 254.301 231.872 255.185 232.952 C 256.02 233.973 256.696 235.918 256.708 237.491 C 257.448 241.96 258.133 256.521 257.09 261.44 C 257.119 261.943 257.099 262.424 257.019 262.848 C 256.676 264.67 255.349 266.811 253.534 267.8 C 251.39 268.969 248.261 268.428 244.364 268.534 C 242.359 268.588 239.528 268.711 236.537 268.787 C 236.513 273.541 236.286 277.959 235.744 280.088 C 235.062 282.766 234.029 283.792 232.626 284.674 C 231.259 285.532 228.857 285.564 227.49 285.407 C 226.424 285.285 226.562 284.582 224.923 284.307 C 220.918 283.636 204.25 285.222 198.879 283.94 C 195.706 283.183 194.212 283.151 192.826 280.455 C 190.402 275.738 190.713 256.731 191.359 252.21 C 191.637 250.263 192.007 249.903 192.826 249.092 C 193.718 248.21 194.99 247.46 196.678 247.258 C 198.982 246.983 201.786 248.568 205.848 248.726 C 208.511 248.829 212.775 248.422 217.083 247.994 C 217.146 243.056 217.428 238.496 217.77 236.437 C 218.15 234.144 218.656 233.533 219.604 232.586 C 220.551 231.638 221.241 231.121 223.455 230.751 Z" style="stroke: rgb(5, 14, 26); stroke-width: 5px; fill: rgb(128, 121, 128);"/></svg>