<?xml version="1.0" encoding="utf-8"?>
<svg xmlns="http://www.w3.org/2000/svg" viewBox="0 0 260 380" xmlns:bx="https://boxy-svg.com" width="260px" height="380px"><defs><bx:guide x="10" y="10" angle="0"/><bx:guide x="10" y="10" angle="90"/><bx:guide x="250" y="370" angle="0"/><bx:guide x="250" y="370" angle="90"/><bx:export><bx:file format="svg"/></bx:export><bx:guide x="158.55" y="89.294" angle="90"/></defs><path d="M 8.138 3.962 C 9.792 3.768 13.411 3.635 15.069 5.184 C 18.491 4.901 23.991 5.036 27.447 5.447 C 31.156 5.888 31.964 7.568 37.35 7.923 C 48.069 8.63 78.53 4.495 94.289 4.457 C 106.677 4.427 117.91 6.321 125.481 6.437 C 130.538 6.515 132.473 5.912 136.869 5.942 C 142.243 5.98 149.044 6.835 155.683 6.933 C 162.847 7.038 171.808 6.09 178.459 6.437 C 184.083 6.731 187.18 8.509 193.313 8.418 C 201.569 8.295 214.452 4.596 224.505 3.962 C 234.058 3.359 247.976 3.569 252.232 4.457 C 254.004 4.827 254.273 5.081 254.955 5.942 C 255.777 6.979 256.653 9.067 256.44 10.646 C 256.411 10.863 256.389 11.085 256.366 11.311 C 256.388 11.568 256.412 11.841 256.44 12.131 C 257.196 20.081 255.762 47.785 255.945 60.653 C 256.082 70.247 257.03 77.545 256.935 83.924 C 256.862 88.883 256.024 89.696 255.945 96.302 C 255.789 109.371 258.307 146.092 258.421 164.628 C 258.508 178.836 257.26 191.355 257.431 199.782 C 257.543 205.339 258.773 207.381 258.421 212.16 C 257.984 218.087 253.801 229.105 253.965 232.955 C 254.047 234.882 255.031 233.571 255.45 236.421 C 257.038 247.224 257.108 318.95 256.935 341.881 C 256.835 355.323 257.332 364.291 255.945 369.608 C 255.188 372.512 254.222 373.871 252.727 374.807 C 251.297 375.701 248.829 375.793 247.281 375.302 C 246.855 375.167 246.435 375.016 246.034 374.82 C 240.171 374.882 229.679 374.149 218.564 374.312 C 203.03 374.538 174.521 376.886 160.139 376.787 C 150.355 376.72 149.195 375.464 137.859 375.302 C 117.043 375.004 56.681 378.075 35.864 377.778 C 24.528 377.615 18.914 377.793 13.584 376.292 C 11.623 375.74 9.83 374.939 8.385 374.065 C 7.464 373.733 6.617 373.28 5.95 372.206 C 5.744 371.997 5.565 371.791 5.414 371.589 C 4.706 370.644 4.74 369.647 4.854 368.656 C 3.943 362.316 4.831 349.552 4.919 341.386 C 5.015 332.551 5.875 326.617 5.91 316.135 C 5.957 301.935 4.344 280.205 4.424 262.167 C 4.505 244.061 6.627 223.712 6.405 207.704 C 6.216 194.108 4.352 184.084 3.929 171.56 C 3.484 158.388 3.361 145.184 3.929 130.465 C 4.557 114.215 8.184 92.079 7.89 77.982 C 7.666 67.274 5.171 61.051 4.424 51.741 C 3.616 41.672 3.041 27.84 3.434 19.558 C 3.718 13.581 4.1 7.694 5.414 5.447 C 6.129 4.226 6.903 4.106 8.138 3.962 Z M 16.802 19.063 C 16.969 23.654 16.083 26.272 16.307 32.926 C 16.685 44.145 20.846 69.169 20.763 83.924 C 20.694 96.207 17.995 103.579 17.297 116.107 C 16.438 131.532 16.062 159.631 16.802 170.57 C 17.2 176.454 18.333 176.489 18.783 181.958 C 19.529 191.041 19.414 206.749 19.278 223.052 C 19.104 243.768 17.239 277.023 17.297 297.816 C 17.343 314.262 18.756 326.96 18.783 339.406 C 18.801 347.656 19.043 357.129 18.523 363.598 C 21.109 364.217 23.935 365.083 26.952 365.4 C 32.621 365.995 38.996 366.062 46.262 365.895 C 54.843 365.698 62.568 364.353 75.474 363.914 C 94.595 363.264 140.068 362.725 153.703 363.419 C 159.922 363.736 159.053 364.744 164.596 364.904 C 174.72 365.197 198.984 362.818 214.108 362.429 C 223.328 362.192 234.764 361.671 242.814 361.782 C 242.906 358.61 243.074 355.031 243.072 351.289 C 243.067 338.288 244.302 318.205 244.062 299.301 C 243.793 278.025 240.144 246.24 241.092 229.489 C 241.721 218.358 244.874 214.099 245.548 204.733 C 246.339 193.728 244.396 176.261 244.557 167.104 C 244.666 160.957 245.497 160.234 245.548 153.241 C 245.64 140.567 243.149 107.63 243.072 91.846 C 243.059 89.084 243.106 86.728 243.186 84.586 C 235.772 85.721 221.628 85.343 217.573 84.171 C 215.173 83.478 214.754 83.051 213.86 80.953 C 213.175 79.344 212.718 75.965 212.456 72.308 C 208.868 72.735 202.743 72.995 196.921 73.137 C 197.121 76.11 197.108 79.732 196.531 81.943 C 195.845 84.57 195.746 86.73 192.817 88.132 C 187.394 90.729 164.528 90.602 159.149 89.122 C 156.659 88.438 156.27 88.044 155.436 85.904 C 153.895 81.952 154.333 67.311 154.941 63.129 C 155.244 61.043 155.663 60.291 156.426 59.415 C 157.115 58.624 157.598 58.257 159.149 57.93 C 161.038 57.531 165.791 57.383 169.819 57.484 C 169.337 51.821 169.107 45.635 169.176 41.846 C 166.388 42.236 163.723 42.545 162.12 42.086 C 160.162 41.526 159.23 40.94 158.407 38.868 C 156.953 35.212 157.345 22.446 157.911 18.568 C 157.918 18.523 157.924 18.479 157.931 18.436 C 154.665 18.599 151.424 18.854 147.761 18.815 C 142.317 18.758 136.408 17.93 129.937 17.825 C 122.681 17.707 113.298 18.546 106.171 18.32 C 99.954 18.123 97.327 16.916 89.337 16.835 C 76.164 16.701 40.315 20.781 30.418 19.806 C 26.006 19.371 25.719 17.762 22.991 17.33 C 21.206 17.047 18.868 17.389 16.772 17.54 C 16.776 18.066 16.784 18.577 16.802 19.063 Z M 69.532 29.708 C 71.928 29.391 76.586 30.004 78.197 31.193 C 79.373 32.061 79.314 32.608 79.682 34.907 C 80.062 37.277 80.465 42.905 80.683 48.98 C 84.265 48.479 91.649 48.45 94.289 49.018 C 95.775 49.337 96.322 49.712 97.012 50.503 C 97.775 51.379 98.167 52.131 98.497 54.216 C 99.16 58.399 99.592 71.67 98.497 76.992 C 97.758 80.584 97.605 83.045 94.784 84.666 C 90.566 87.09 75.723 86.842 71.513 85.657 C 69.254 85.02 68.601 84.371 67.8 82.438 C 67.277 81.177 67.018 78.852 66.927 76.318 C 59.853 77.066 43.734 77.766 38.835 76.249 C 36.207 75.435 35.582 75.079 34.627 72.536 C 32.765 67.584 33.815 46.791 34.131 42.829 C 34.24 41.471 34.678 41.677 34.627 40.848 C 34.554 39.691 33.108 37.792 33.141 36.392 C 33.172 35.079 33.864 33.554 34.627 32.679 C 35.316 31.888 35.85 31.515 37.35 31.193 C 39.549 30.723 44.393 30.889 48.613 31.065 C 49.085 30.674 49.647 30.429 50.718 30.203 C 53.733 29.568 64.042 29.568 67.057 30.203 C 67.356 30.266 67.615 30.328 67.844 30.393 C 68.334 30.064 68.861 29.797 69.532 29.708 Z" style="stroke-width: 5px; stroke: rgb(5, 14, 26); fill: rgb(128, 121, 128);"/></svg>