<?xml version="1.0" encoding="utf-8"?>
<svg xmlns="http://www.w3.org/2000/svg" viewBox="0 0 260 380" xmlns:bx="https://boxy-svg.com" width="260px" height="380px"><defs><bx:guide x="10" y="10" angle="0"/><bx:guide x="10" y="10" angle="90"/><bx:guide x="250" y="370" angle="0"/><bx:guide x="250" y="370" angle="90"/><bx:guide x="125.517" y="273.529" angle="90"/><bx:guide x="124.06" y="232.004" angle="90"/><bx:export><bx:file format="svg" path="Untitled 2.svg"/></bx:export></defs><path d="M 4.282 268.717 C 2.232 264.061 2.812 244.005 3.548 239.372 C 3.861 237.405 4.197 237.064 5.016 236.254 C 5.074 236.197 5.134 236.14 5.196 236.083 C 5.256 236.016 5.319 235.951 5.383 235.887 C 6.275 235.004 6.988 234.542 9.234 234.053 C 12.371 233.37 20.629 232.737 27.458 232.534 C 27.196 229.681 27.083 226.807 27.392 225.066 C 27.658 223.567 27.91 222.743 28.859 221.948 C 30.041 220.957 33.432 220.168 34.545 220.114 C 35.122 220.086 34.868 220.459 35.645 220.481 C 37.998 220.547 50.117 218.083 53.986 217.913 C 56.166 217.817 57.157 217.83 58.388 218.28 C 59.497 218.686 60.433 219.463 61.139 220.297 C 61.833 221.119 62.254 221.467 62.606 223.232 C 63.365 227.036 64.083 241.194 62.973 245.608 C 62.337 248.133 62.139 249.158 59.855 250.193 C 57.5 251.26 51.359 251.719 45.606 251.711 C 45.921 257.75 45.97 263.884 45.366 266.516 C 44.744 269.221 44.707 269.938 42.248 271.101 C 37.244 273.469 15.272 274.805 9.601 273.669 C 6.814 273.111 5.886 271.883 5.016 270.551 C 4.711 270.084 4.507 269.521 4.381 268.93 C 4.347 268.861 4.314 268.79 4.282 268.717 Z" style="fill: rgb(128, 121, 128); stroke-width: 5px; stroke: rgb(5, 14, 26);"/></svg>