<?xml version="1.0" encoding="utf-8"?>
<svg xmlns="http://www.w3.org/2000/svg" viewBox="0 0 260 380" xmlns:bx="https://boxy-svg.com" width="260px" height="380px"><defs><bx:guide x="10" y="10" angle="0"/><bx:guide x="10" y="10" angle="90"/><bx:guide x="250" y="370" angle="0"/><bx:guide x="250" y="370" angle="90"/><bx:export><bx:file format="svg"/></bx:export><bx:guide x="158.55" y="89.294" angle="90"/></defs><rect x="10" y="10" width="240" height="360" style="stroke: rgb(0, 0, 0); fill: rgb(5, 14, 26);"/><path stroke="rgb(255,0,0)" d="M 42.796 13.864 C 44.538 13.661 48.57 14.248 49.975 15.35 C 51.078 16.214 51.092 16.764 51.461 19.063 C 52.324 24.453 53.31 46.686 51.956 52.731 C 51.271 55.786 51.299 56.761 48.737 57.93 C 43.822 60.173 22.66 59.892 17.545 58.425 C 15.103 57.724 14.509 56.413 13.831 55.207 C 13.24 54.153 13.193 52.905 13.336 51.741 C 13.47 50.654 13.933 49.269 14.566 48.357 C 14.487 48.179 14.408 47.988 14.327 47.78 C 12.803 43.886 13.307 31.553 13.831 25.5 C 14.239 20.79 15.022 15.829 16.307 13.864 C 17.058 12.716 17.691 12.68 19.03 12.379 C 21.118 11.909 25.749 11.862 28.438 12.379 C 30.748 12.823 32.421 14.546 34.379 14.854 C 36.214 15.143 38.386 14.087 39.825 14.359 C 40.186 14.427 40.521 14.514 40.833 14.628 C 41.361 14.229 41.984 13.959 42.796 13.864 Z M 97.259 154.478 C 101.174 154.227 104.614 154.087 107.758 154.11 C 107.797 146.69 108.058 139.988 108.399 137.397 C 108.721 134.957 108.699 134.65 109.885 133.683 C 111.56 132.317 114.705 131.755 119.045 131.208 C 125.986 130.332 142.273 131.503 149.742 130.713 C 154.811 130.176 157.631 128.334 161.13 128.237 C 164.255 128.151 167.97 127.725 169.794 129.722 C 171.977 132.111 171.391 137.561 171.775 143.338 C 171.994 146.638 172.262 151.533 172.407 156.551 C 179.314 155.666 186.878 154.935 190.342 154.973 C 194.155 155.016 196.49 154.932 198.016 156.459 C 199.543 157.985 199.276 160.534 199.502 164.133 C 199.862 169.888 199.838 184.388 198.511 189.384 C 197.759 192.217 197.854 193.414 195.293 194.583 C 190.378 196.826 171.657 194.425 164.1 195.078 C 159.021 195.518 155.308 197.668 152.713 197.059 C 150.869 196.626 149.883 196.13 148.999 193.84 C 148.184 191.729 147.77 186.564 147.622 181.083 C 141.122 180.994 134.641 180.85 130.432 181.215 C 129.946 181.257 129.462 181.308 128.983 181.367 C 130.099 199.022 130.873 222.255 129.69 228.499 C 129.002 232.125 129.373 232.468 126.471 233.698 C 119.8 236.525 89.224 234.278 77.454 234.193 C 69.689 234.137 64.114 234.831 60.125 233.698 C 57.382 232.918 55.824 233.423 54.431 229.984 C 50.956 221.405 52.368 171.481 53.441 163.143 C 53.789 160.44 53.774 160.296 54.926 159.43 C 56.47 158.269 61.535 157.899 63.096 157.944 C 63.897 157.967 63.464 158.401 64.581 158.439 C 68.359 158.569 88.298 155.054 97.259 154.478 Z M 185.638 183.195 C 185.9 182.978 186.115 182.716 186.288 182.417 C 185.851 182.872 185.405 183.285 184.955 183.644 C 185.218 183.502 185.448 183.353 185.638 183.195 Z M 162.863 13.864 C 165.891 16.913 166.595 26.39 167.319 32.431 C 168.007 38.176 167.386 43.054 167.319 49.265 C 167.242 56.396 166.694 64.569 166.824 73.031 C 166.966 82.287 169.456 97.172 168.309 102.738 C 167.7 105.694 166.585 107.002 165.091 107.937 C 163.661 108.832 161.205 108.664 159.644 108.432 C 158.3 108.232 158.121 107.304 156.179 106.947 C 152.333 106.24 143.12 106.475 135.383 106.452 C 133.647 106.447 131.64 106.516 129.497 106.62 C 129.389 110.449 129.14 113.726 128.699 115.611 C 127.988 118.655 128.2 119.612 125.481 120.81 C 119.799 123.314 96.59 120.685 86.862 121.305 C 80.029 121.741 74.268 124.09 71.018 123.286 C 68.989 122.784 68.277 122.564 67.304 120.067 C 65.04 114.254 64.165 85.546 64.829 79.468 C 65.091 77.064 65.551 76.63 66.314 75.754 C 67.003 74.963 67.661 74.575 69.037 74.269 C 71.27 73.772 75.478 74.206 79.435 74.269 C 84.176 74.344 89.736 75.007 95.774 74.764 C 97.348 74.701 99.126 74.531 100.997 74.309 C 101.165 67.651 101.843 63.102 101.963 55.702 C 102.123 45.793 100.678 25.645 101.468 20.053 C 101.797 17.722 101.85 17.204 102.953 16.34 C 104.359 15.238 108.883 15.008 110.132 14.854 C 110.693 14.786 110.584 14.881 111.123 14.854 C 111.341 14.843 111.624 14.805 111.954 14.752 C 112.575 14.04 112.833 13.779 114.588 13.369 C 119.273 12.276 139.725 11.113 146.771 11.389 C 150.067 11.518 152.533 11.546 154.227 12.194 C 156.8 11.816 160.841 11.828 162.863 13.864 Z M 231.932 75.754 C 236.165 75.394 242.66 75.184 245.3 75.754 C 246.772 76.072 247.341 76.378 248.023 77.24 C 248.845 78.277 249.722 80.365 249.509 81.943 C 249.336 83.224 249.063 84.767 247.871 86.003 C 247.915 86.268 247.963 86.563 248.023 86.894 C 248.974 92.182 250.864 112.959 249.509 119.572 C 249.464 119.792 249.42 120.006 249.376 120.213 C 250.334 120.192 251.139 120.219 251.737 120.315 C 253.385 120.579 253.78 120.908 254.46 121.8 C 255.31 122.914 256.19 125.307 255.945 126.999 C 255.689 128.777 255.554 130.935 252.727 132.198 C 246.469 134.995 215.884 135.252 208.166 133.683 C 204.441 132.926 203.405 133.197 201.977 129.97 C 198.943 123.111 200.555 89.159 201.482 82.438 C 201.826 79.941 201.749 79.596 202.967 78.725 C 204.709 77.48 209.586 77.383 212.622 77.24 C 215.417 77.107 217.614 77.909 220.544 77.735 C 223.949 77.532 227.938 76.094 231.932 75.754 Z M 17.05 92.588 C 19.625 92.03 27.348 92.03 29.923 92.588 C 31.38 92.904 31.969 93.038 32.646 94.074 C 33.649 95.609 33.926 97.717 34.131 102.243 C 34.557 111.639 33.667 145.755 31.656 153.736 C 30.799 157.137 30.129 157.952 28.438 158.934 C 26.56 160.025 22.8 159.463 20.516 159.43 C 18.62 159.401 17.011 159.557 15.564 158.934 C 14.125 158.315 12.769 157.463 11.851 155.716 C 10.558 153.257 10.227 148.638 9.871 144.328 C 9.451 139.262 9.439 133.616 9.871 126.999 C 10.393 118.989 13.456 102.682 13.336 99.272 C 13.298 98.196 12.8 98.427 12.841 97.787 C 12.901 96.856 13.564 94.949 14.327 94.074 C 15.016 93.283 15.592 92.904 17.05 92.588 Z M 17.545 315.392 C 20.037 314.941 27.571 314.723 35.37 314.767 C 35.631 305.268 35.97 295.806 35.617 290.884 C 35.164 284.571 33.401 280.882 33.636 278.011 C 33.783 276.221 34.359 275.173 35.122 274.297 C 35.811 273.507 36.073 273.162 37.845 272.812 C 42.101 271.973 59.261 273.459 65.572 272.812 C 69.531 272.406 69.838 271.355 73.989 270.832 C 77.523 270.386 84.034 269.921 90.537 269.613 C 90.371 265.591 90.383 261.951 90.575 260.187 C 90.808 258.048 91.298 257.349 92.06 256.473 C 92.75 255.682 92.954 255.398 94.784 254.988 C 99.422 253.948 119.932 253.108 126.471 253.502 C 130.111 253.722 132.245 253.886 133.651 254.988 C 134.754 255.852 134.806 256.616 135.136 258.701 C 135.798 262.884 136.337 276.536 135.136 281.477 C 134.377 284.597 134.388 286.257 131.423 287.666 C 129.116 288.762 123.664 289.38 117.667 289.621 C 118.72 302.761 120.198 327.555 118.797 334.455 C 118.115 337.815 118.83 338.223 115.579 339.653 C 109.49 342.332 80.575 344.592 59.981 345.118 C 59.675 350.432 59.249 355.633 58.887 358.715 C 58.467 362.301 58.291 364.396 57.402 366.142 C 56.724 367.475 55.898 368.313 54.679 368.865 C 53.276 369.501 50.781 369.852 49.233 369.361 C 48.465 369.117 47.686 368.627 47.015 368.023 C 46.408 368.564 45.729 369.005 44.281 369.361 C 39.548 370.523 22.163 371.201 17.545 369.856 C 15.2 369.172 14.668 368.533 13.831 366.637 C 12.528 363.684 12.717 356.406 12.841 351.784 C 12.955 347.547 14.488 343.851 14.327 339.901 C 14.165 335.929 11.703 330.741 11.851 328.018 C 11.946 326.271 12.573 325.18 13.336 324.305 C 13.479 324.141 13.605 323.996 13.73 323.865 C 13.235 322.854 13.202 321.685 13.336 320.591 C 13.488 319.363 14.059 317.753 14.822 316.878 C 15.511 316.087 15.631 315.738 17.545 315.392 Z M 202.472 296.825 C 202.986 305.593 204.888 311.71 205.443 321.581 C 206.149 334.143 207.097 359.763 205.443 367.132 C 204.702 370.433 203.719 371.396 202.225 372.331 C 200.795 373.226 198.326 373.317 196.778 372.826 C 195.295 372.356 194.098 372.757 193.065 369.608 C 192.979 369.346 192.895 369.046 192.812 368.709 C 185.998 370.38 171.23 370.919 167.071 369.856 C 164.983 369.322 164.439 369.265 163.687 367.483 C 163.503 367.62 163.311 367.749 163.11 367.875 C 161.681 368.77 159.212 368.861 157.664 368.37 C 156.181 367.9 154.839 367.658 153.95 365.152 C 152.596 361.331 152.58 350.752 152.874 340.115 C 150.325 331.138 153.306 286.72 152.465 270.584 C 151.921 260.138 149.599 251.992 149.99 247.808 C 150.184 245.727 150.712 244.971 151.475 244.095 C 151.571 243.985 151.669 243.879 151.77 243.779 C 151.952 243.175 152.287 242.597 152.96 242.115 C 153.828 241.493 155.431 240.956 157.37 240.497 C 158.829 239.919 160.82 239.604 162.285 239.569 C 164.876 239.168 167.507 238.866 169.547 238.649 C 172.955 238.287 176.96 238.155 179.856 238.337 C 179.857 236.615 179.813 235.115 179.697 233.945 C 179.247 229.393 177.534 227.343 177.716 224.538 C 177.878 222.049 178.562 219.222 180.192 217.854 C 181.883 216.433 186.235 216.079 187.866 216.368 C 188.614 216.501 188.57 217.037 189.036 217.457 C 189.408 217.221 189.919 217.043 190.837 216.863 C 194.643 216.118 210.411 216.017 217.458 216.56 C 217.726 216.239 218.007 215.967 218.564 215.873 C 220.427 215.561 224.763 216.227 226.238 217.359 C 227.367 218.224 227.348 218.619 227.723 221.072 C 228.704 227.477 229.793 257.926 228.219 265.138 C 227.504 268.411 227.628 269.155 225 270.336 C 221.614 271.858 211.061 271.329 202.248 270.954 C 201.928 278.979 202.005 288.865 202.472 296.825 Z M 236.883 161.41 C 240.961 161.128 245.898 160.888 248.271 161.41 C 249.681 161.721 250.312 162.034 250.994 162.895 C 251.816 163.932 252.413 166.4 252.479 167.599 C 252.526 168.441 252.033 168.312 251.984 169.58 C 251.857 172.882 254.941 187.129 253.965 191.86 C 253.358 194.798 252.848 196.256 250.251 197.554 C 245.929 199.713 230.319 200.199 225.99 199.039 C 223.707 198.427 223.187 198.099 222.277 195.821 C 220.433 191.202 220.197 171.968 220.792 167.104 C 221.062 164.894 220.89 164.313 222.277 163.391 C 224.614 161.836 232.362 161.723 236.883 161.41 Z M 238.368 311.927 C 242.12 311.735 246.693 311.997 248.518 313.412 C 249.881 314.468 250.217 316.537 250.004 318.116 C 249.772 319.836 247.642 322.409 246.786 323.314 C 246.305 323.823 245.85 323.151 245.548 324.057 C 244.462 327.306 248.175 352.28 246.538 359.211 C 245.607 363.153 244.489 364.765 241.834 366.39 C 238.467 368.451 229.668 369.589 226.486 368.865 C 224.478 368.409 223.687 368.199 222.772 365.647 C 220.573 359.511 220.918 329.272 221.782 321.581 C 222.184 318.005 221.925 316.94 223.762 315.392 C 226.331 313.23 233.999 312.15 238.368 311.927 Z M 30.913 207.456 C 34.202 207.457 37.488 207.411 39.083 208.942 C 40.599 210.398 40.474 212.627 40.568 216.121 C 40.728 222.04 39.21 238.097 37.597 243.352 C 36.712 246.237 35.999 247.586 34.379 248.551 C 32.674 249.567 30.153 249.014 27.447 249.046 C 24.093 249.086 18.234 249.517 15.564 248.551 C 13.69 247.873 12.553 246.69 11.851 245.333 C 11.145 243.969 11.288 242.968 11.356 240.382 C 11.487 235.415 14.461 218.346 14.327 215.131 C 14.282 214.076 13.791 214.285 13.831 213.645 C 13.891 212.714 13.904 210.891 15.317 209.932 C 17.763 208.271 26.66 207.455 30.913 207.456 Z" style="stroke: rgb(129, 151, 57); fill: rgb(13, 33, 64); stroke-width: 0px;"/><path d="M 8.138 3.962 C 9.792 3.768 13.411 3.635 15.069 5.184 C 18.491 4.901 23.991 5.036 27.447 5.447 C 31.156 5.888 31.964 7.568 37.35 7.923 C 48.069 8.63 78.53 4.495 94.289 4.457 C 106.677 4.427 117.91 6.321 125.481 6.437 C 130.538 6.515 132.473 5.912 136.869 5.942 C 142.243 5.98 149.044 6.835 155.683 6.933 C 162.847 7.038 171.808 6.09 178.459 6.437 C 184.083 6.731 187.18 8.509 193.313 8.418 C 201.569 8.295 214.452 4.596 224.505 3.962 C 234.058 3.359 247.976 3.569 252.232 4.457 C 254.004 4.827 254.273 5.081 254.955 5.942 C 255.777 6.979 256.653 9.067 256.44 10.646 C 256.411 10.863 256.389 11.085 256.366 11.311 C 256.388 11.568 256.412 11.841 256.44 12.131 C 257.196 20.081 255.762 47.785 255.945 60.653 C 256.082 70.247 257.03 77.545 256.935 83.924 C 256.862 88.883 256.024 89.696 255.945 96.302 C 255.789 109.371 258.307 146.092 258.421 164.628 C 258.508 178.836 257.26 191.355 257.431 199.782 C 257.543 205.339 258.773 207.381 258.421 212.16 C 257.984 218.087 253.801 229.105 253.965 232.955 C 254.047 234.882 255.031 233.571 255.45 236.421 C 257.038 247.224 257.108 318.95 256.935 341.881 C 256.835 355.323 257.332 364.291 255.945 369.608 C 255.188 372.512 254.222 373.871 252.727 374.807 C 251.297 375.701 248.829 375.793 247.281 375.302 C 246.855 375.167 246.435 375.016 246.034 374.82 C 240.171 374.882 229.679 374.149 218.564 374.312 C 203.03 374.538 174.521 376.886 160.139 376.787 C 150.355 376.72 149.195 375.464 137.859 375.302 C 117.043 375.004 56.681 378.075 35.864 377.778 C 24.528 377.615 18.914 377.793 13.584 376.292 C 11.623 375.74 9.83 374.939 8.385 374.065 C 7.464 373.733 6.617 373.28 5.95 372.206 C 5.744 371.997 5.565 371.791 5.414 371.589 C 4.706 370.644 4.74 369.647 4.854 368.656 C 3.943 362.316 4.831 349.552 4.919 341.386 C 5.015 332.551 5.875 326.617 5.91 316.135 C 5.957 301.935 4.344 280.205 4.424 262.167 C 4.505 244.061 6.627 223.712 6.405 207.704 C 6.216 194.108 4.352 184.084 3.929 171.56 C 3.484 158.388 3.361 145.184 3.929 130.465 C 4.557 114.215 8.184 92.079 7.89 77.982 C 7.666 67.274 5.171 61.051 4.424 51.741 C 3.616 41.672 3.041 27.84 3.434 19.558 C 3.718 13.581 4.1 7.694 5.414 5.447 C 6.129 4.226 6.903 4.106 8.138 3.962 Z M 16.802 19.063 C 16.969 23.654 16.083 26.272 16.307 32.926 C 16.685 44.145 20.846 69.169 20.763 83.924 C 20.694 96.207 17.995 103.579 17.297 116.107 C 16.438 131.532 16.062 159.631 16.802 170.57 C 17.2 176.454 18.333 176.489 18.783 181.958 C 19.529 191.041 19.414 206.749 19.278 223.052 C 19.104 243.768 17.239 277.023 17.297 297.816 C 17.343 314.262 18.756 326.96 18.783 339.406 C 18.801 347.656 19.043 357.129 18.523 363.598 C 21.109 364.217 23.935 365.083 26.952 365.4 C 32.621 365.995 38.996 366.062 46.262 365.895 C 54.843 365.698 62.568 364.353 75.474 363.914 C 94.595 363.264 140.068 362.725 153.703 363.419 C 159.922 363.736 159.053 364.744 164.596 364.904 C 174.72 365.197 198.984 362.818 214.108 362.429 C 223.328 362.192 234.764 361.671 242.814 361.782 C 242.906 358.61 243.074 355.031 243.072 351.289 C 243.067 338.288 244.302 318.205 244.062 299.301 C 243.793 278.025 240.144 246.24 241.092 229.489 C 241.721 218.358 244.874 214.099 245.548 204.733 C 246.339 193.728 244.396 176.261 244.557 167.104 C 244.666 160.957 245.497 160.234 245.548 153.241 C 245.64 140.567 243.149 107.63 243.072 91.846 C 243.059 89.084 243.106 86.728 243.186 84.586 C 235.772 85.721 221.628 85.343 217.573 84.171 C 215.173 83.478 214.754 83.051 213.86 80.953 C 213.175 79.344 212.718 75.965 212.456 72.308 C 208.868 72.735 202.743 72.995 196.921 73.137 C 197.121 76.11 197.108 79.732 196.531 81.943 C 195.845 84.57 195.746 86.73 192.817 88.132 C 187.394 90.729 164.528 90.602 159.149 89.122 C 156.659 88.438 156.27 88.044 155.436 85.904 C 153.895 81.952 154.333 67.311 154.941 63.129 C 155.244 61.043 155.663 60.291 156.426 59.415 C 157.115 58.624 157.598 58.257 159.149 57.93 C 161.038 57.531 165.791 57.383 169.819 57.484 C 169.337 51.821 169.107 45.635 169.176 41.846 C 166.388 42.236 163.723 42.545 162.12 42.086 C 160.162 41.526 159.23 40.94 158.407 38.868 C 156.953 35.212 157.345 22.446 157.911 18.568 C 157.918 18.523 157.924 18.479 157.931 18.436 C 154.665 18.599 151.424 18.854 147.761 18.815 C 142.317 18.758 136.408 17.93 129.937 17.825 C 122.681 17.707 113.298 18.546 106.171 18.32 C 99.954 18.123 97.327 16.916 89.337 16.835 C 76.164 16.701 40.315 20.781 30.418 19.806 C 26.006 19.371 25.719 17.762 22.991 17.33 C 21.206 17.047 18.868 17.389 16.772 17.54 C 16.776 18.066 16.784 18.577 16.802 19.063 Z M 69.532 29.708 C 71.928 29.391 76.586 30.004 78.197 31.193 C 79.373 32.061 79.314 32.608 79.682 34.907 C 80.062 37.277 80.465 42.905 80.683 48.98 C 84.265 48.479 91.649 48.45 94.289 49.018 C 95.775 49.337 96.322 49.712 97.012 50.503 C 97.775 51.379 98.167 52.131 98.497 54.216 C 99.16 58.399 99.592 71.67 98.497 76.992 C 97.758 80.584 97.605 83.045 94.784 84.666 C 90.566 87.09 75.723 86.842 71.513 85.657 C 69.254 85.02 68.601 84.371 67.8 82.438 C 67.277 81.177 67.018 78.852 66.927 76.318 C 59.853 77.066 43.734 77.766 38.835 76.249 C 36.207 75.435 35.582 75.079 34.627 72.536 C 32.765 67.584 33.815 46.791 34.131 42.829 C 34.24 41.471 34.678 41.677 34.627 40.848 C 34.554 39.691 33.108 37.792 33.141 36.392 C 33.172 35.079 33.864 33.554 34.627 32.679 C 35.316 31.888 35.85 31.515 37.35 31.193 C 39.549 30.723 44.393 30.889 48.613 31.065 C 49.085 30.674 49.647 30.429 50.718 30.203 C 53.733 29.568 64.042 29.568 67.057 30.203 C 67.356 30.266 67.615 30.328 67.844 30.393 C 68.334 30.064 68.861 29.797 69.532 29.708 Z" style="stroke-width: 5px; stroke: rgb(5, 14, 26); fill: rgb(128, 121, 128);"/></svg>