<?xml version="1.0" encoding="utf-8"?>
<svg xmlns="http://www.w3.org/2000/svg" viewBox="0 0 260 380" xmlns:bx="https://boxy-svg.com" width="260px" height="380px"><defs><bx:guide x="10" y="10" angle="0"/><bx:guide x="10" y="10" angle="90"/><bx:guide x="250" y="370" angle="0"/><bx:guide x="250" y="370" angle="90"/><bx:export><bx:file format="svg"/></bx:export><bx:guide x="158.55" y="89.294" angle="90"/></defs><rect x="10" y="10" width="240" height="360" style="stroke: rgb(0, 0, 0); fill: rgb(5, 14, 26);"/><path stroke="rgb(255,0,0)" d="M 42.796 13.864 C 44.538 13.661 48.57 14.248 49.975 15.35 C 51.078 16.214 51.092 16.764 51.461 19.063 C 52.324 24.453 53.31 46.686 51.956 52.731 C 51.271 55.786 51.299 56.761 48.737 57.93 C 43.822 60.173 22.66 59.892 17.545 58.425 C 15.103 57.724 14.509 56.413 13.831 55.207 C 13.24 54.153 13.193 52.905 13.336 51.741 C 13.47 50.654 13.933 49.269 14.566 48.357 C 14.487 48.179 14.408 47.988 14.327 47.78 C 12.803 43.886 13.307 31.553 13.831 25.5 C 14.239 20.79 15.022 15.829 16.307 13.864 C 17.058 12.716 17.691 12.68 19.03 12.379 C 21.118 11.909 25.749 11.862 28.438 12.379 C 30.748 12.823 32.421 14.546 34.379 14.854 C 36.214 15.143 38.386 14.087 39.825 14.359 C 40.186 14.427 40.521 14.514 40.833 14.628 C 41.361 14.229 41.984 13.959 42.796 13.864 Z M 97.259 154.478 C 101.174 154.227 104.614 154.087 107.758 154.11 C 107.797 146.69 108.058 139.988 108.399 137.397 C 108.721 134.957 108.699 134.65 109.885 133.683 C 111.56 132.317 114.705 131.755 119.045 131.208 C 125.986 130.332 142.273 131.503 149.742 130.713 C 154.811 130.176 157.631 128.334 161.13 128.237 C 164.255 128.151 167.97 127.725 169.794 129.722 C 171.977 132.111 171.391 137.561 171.775 143.338 C 171.994 146.638 172.262 151.533 172.407 156.551 C 179.314 155.666 186.878 154.935 190.342 154.973 C 194.155 155.016 196.49 154.932 198.016 156.459 C 199.543 157.985 199.276 160.534 199.502 164.133 C 199.862 169.888 199.838 184.388 198.511 189.384 C 197.759 192.217 197.854 193.414 195.293 194.583 C 190.378 196.826 171.657 194.425 164.1 195.078 C 159.021 195.518 155.308 197.668 152.713 197.059 C 150.869 196.626 149.883 196.13 148.999 193.84 C 148.184 191.729 147.77 186.564 147.622 181.083 C 141.122 180.994 134.641 180.85 130.432 181.215 C 129.946 181.257 129.462 181.308 128.983 181.367 C 130.099 199.022 130.873 222.255 129.69 228.499 C 129.002 232.125 129.373 232.468 126.471 233.698 C 119.8 236.525 89.224 234.278 77.454 234.193 C 69.689 234.137 64.114 234.831 60.125 233.698 C 57.382 232.918 55.824 233.423 54.431 229.984 C 50.956 221.405 52.368 171.481 53.441 163.143 C 53.789 160.44 53.774 160.296 54.926 159.43 C 56.47 158.269 61.535 157.899 63.096 157.944 C 63.897 157.967 63.464 158.401 64.581 158.439 C 68.359 158.569 88.298 155.054 97.259 154.478 Z M 185.638 183.195 C 185.9 182.978 186.115 182.716 186.288 182.417 C 185.851 182.872 185.405 183.285 184.955 183.644 C 185.218 183.502 185.448 183.353 185.638 183.195 Z M 162.863 13.864 C 165.891 16.913 166.595 26.39 167.319 32.431 C 168.007 38.176 167.386 43.054 167.319 49.265 C 167.242 56.396 166.694 64.569 166.824 73.031 C 166.966 82.287 169.456 97.172 168.309 102.738 C 167.7 105.694 166.585 107.002 165.091 107.937 C 163.661 108.832 161.205 108.664 159.644 108.432 C 158.3 108.232 158.121 107.304 156.179 106.947 C 152.333 106.24 143.12 106.475 135.383 106.452 C 133.647 106.447 131.64 106.516 129.497 106.62 C 129.389 110.449 129.14 113.726 128.699 115.611 C 127.988 118.655 128.2 119.612 125.481 120.81 C 119.799 123.314 96.59 120.685 86.862 121.305 C 80.029 121.741 74.268 124.09 71.018 123.286 C 68.989 122.784 68.277 122.564 67.304 120.067 C 65.04 114.254 64.165 85.546 64.829 79.468 C 65.091 77.064 65.551 76.63 66.314 75.754 C 67.003 74.963 67.661 74.575 69.037 74.269 C 71.27 73.772 75.478 74.206 79.435 74.269 C 84.176 74.344 89.736 75.007 95.774 74.764 C 97.348 74.701 99.126 74.531 100.997 74.309 C 101.165 67.651 101.843 63.102 101.963 55.702 C 102.123 45.793 100.678 25.645 101.468 20.053 C 101.797 17.722 101.85 17.204 102.953 16.34 C 104.359 15.238 108.883 15.008 110.132 14.854 C 110.693 14.786 110.584 14.881 111.123 14.854 C 111.341 14.843 111.624 14.805 111.954 14.752 C 112.575 14.04 112.833 13.779 114.588 13.369 C 119.273 12.276 139.725 11.113 146.771 11.389 C 150.067 11.518 152.533 11.546 154.227 12.194 C 156.8 11.816 160.841 11.828 162.863 13.864 Z M 231.932 75.754 C 236.165 75.394 242.66 75.184 245.3 75.754 C 246.772 76.072 247.341 76.378 248.023 77.24 C 248.845 78.277 249.722 80.365 249.509 81.943 C 249.336 83.224 249.063 84.767 247.871 86.003 C 247.915 86.268 247.963 86.563 248.023 86.894 C 248.974 92.182 250.864 112.959 249.509 119.572 C 249.464 119.792 249.42 120.006 249.376 120.213 C 250.334 120.192 251.139 120.219 251.737 120.315 C 253.385 120.579 253.78 120.908 254.46 121.8 C 255.31 122.914 256.19 125.307 255.945 126.999 C 255.689 128.777 255.554 130.935 252.727 132.198 C 246.469 134.995 215.884 135.252 208.166 133.683 C 204.441 132.926 203.405 133.197 201.977 129.97 C 198.943 123.111 200.555 89.159 201.482 82.438 C 201.826 79.941 201.749 79.596 202.967 78.725 C 204.709 77.48 209.586 77.383 212.622 77.24 C 215.417 77.107 217.614 77.909 220.544 77.735 C 223.949 77.532 227.938 76.094 231.932 75.754 Z M 17.05 92.588 C 19.625 92.03 27.348 92.03 29.923 92.588 C 31.38 92.904 31.969 93.038 32.646 94.074 C 33.649 95.609 33.926 97.717 34.131 102.243 C 34.557 111.639 33.667 145.755 31.656 153.736 C 30.799 157.137 30.129 157.952 28.438 158.934 C 26.56 160.025 22.8 159.463 20.516 159.43 C 18.62 159.401 17.011 159.557 15.564 158.934 C 14.125 158.315 12.769 157.463 11.851 155.716 C 10.558 153.257 10.227 148.638 9.871 144.328 C 9.451 139.262 9.439 133.616 9.871 126.999 C 10.393 118.989 13.456 102.682 13.336 99.272 C 13.298 98.196 12.8 98.427 12.841 97.787 C 12.901 96.856 13.564 94.949 14.327 94.074 C 15.016 93.283 15.592 92.904 17.05 92.588 Z M 17.545 315.392 C 20.037 314.941 27.571 314.723 35.37 314.767 C 35.631 305.268 35.97 295.806 35.617 290.884 C 35.164 284.571 33.401 280.882 33.636 278.011 C 33.783 276.221 34.359 275.173 35.122 274.297 C 35.811 273.507 36.073 273.162 37.845 272.812 C 42.101 271.973 59.261 273.459 65.572 272.812 C 69.531 272.406 69.838 271.355 73.989 270.832 C 77.523 270.386 84.034 269.921 90.537 269.613 C 90.371 265.591 90.383 261.951 90.575 260.187 C 90.808 258.048 91.298 257.349 92.06 256.473 C 92.75 255.682 92.954 255.398 94.784 254.988 C 99.422 253.948 119.932 253.108 126.471 253.502 C 130.111 253.722 132.245 253.886 133.651 254.988 C 134.754 255.852 134.806 256.616 135.136 258.701 C 135.798 262.884 136.337 276.536 135.136 281.477 C 134.377 284.597 134.388 286.257 131.423 287.666 C 129.116 288.762 123.664 289.38 117.667 289.621 C 118.72 302.761 120.198 327.555 118.797 334.455 C 118.115 337.815 118.83 338.223 115.579 339.653 C 109.49 342.332 80.575 344.592 59.981 345.118 C 59.675 350.432 59.249 355.633 58.887 358.715 C 58.467 362.301 58.291 364.396 57.402 366.142 C 56.724 367.475 55.898 368.313 54.679 368.865 C 53.276 369.501 50.781 369.852 49.233 369.361 C 48.465 369.117 47.686 368.627 47.015 368.023 C 46.408 368.564 45.729 369.005 44.281 369.361 C 39.548 370.523 22.163 371.201 17.545 369.856 C 15.2 369.172 14.668 368.533 13.831 366.637 C 12.528 363.684 12.717 356.406 12.841 351.784 C 12.955 347.547 14.488 343.851 14.327 339.901 C 14.165 335.929 11.703 330.741 11.851 328.018 C 11.946 326.271 12.573 325.18 13.336 324.305 C 13.479 324.141 13.605 323.996 13.73 323.865 C 13.235 322.854 13.202 321.685 13.336 320.591 C 13.488 319.363 14.059 317.753 14.822 316.878 C 15.511 316.087 15.631 315.738 17.545 315.392 Z M 202.472 296.825 C 202.986 305.593 204.888 311.71 205.443 321.581 C 206.149 334.143 207.097 359.763 205.443 367.132 C 204.702 370.433 203.719 371.396 202.225 372.331 C 200.795 373.226 198.326 373.317 196.778 372.826 C 195.295 372.356 194.098 372.757 193.065 369.608 C 192.979 369.346 192.895 369.046 192.812 368.709 C 185.998 370.38 171.23 370.919 167.071 369.856 C 164.983 369.322 164.439 369.265 163.687 367.483 C 163.503 367.62 163.311 367.749 163.11 367.875 C 161.681 368.77 159.212 368.861 157.664 368.37 C 156.181 367.9 154.839 367.658 153.95 365.152 C 152.596 361.331 152.58 350.752 152.874 340.115 C 150.325 331.138 153.306 286.72 152.465 270.584 C 151.921 260.138 149.599 251.992 149.99 247.808 C 150.184 245.727 150.712 244.971 151.475 244.095 C 151.571 243.985 151.669 243.879 151.77 243.779 C 151.952 243.175 152.287 242.597 152.96 242.115 C 153.828 241.493 155.431 240.956 157.37 240.497 C 158.829 239.919 160.82 239.604 162.285 239.569 C 164.876 239.168 167.507 238.866 169.547 238.649 C 172.955 238.287 176.96 238.155 179.856 238.337 C 179.857 236.615 179.813 235.115 179.697 233.945 C 179.247 229.393 177.534 227.343 177.716 224.538 C 177.878 222.049 178.562 219.222 180.192 217.854 C 181.883 216.433 186.235 216.079 187.866 216.368 C 188.614 216.501 188.57 217.037 189.036 217.457 C 189.408 217.221 189.919 217.043 190.837 216.863 C 194.643 216.118 210.411 216.017 217.458 216.56 C 217.726 216.239 218.007 215.967 218.564 215.873 C 220.427 215.561 224.763 216.227 226.238 217.359 C 227.367 218.224 227.348 218.619 227.723 221.072 C 228.704 227.477 229.793 257.926 228.219 265.138 C 227.504 268.411 227.628 269.155 225 270.336 C 221.614 271.858 211.061 271.329 202.248 270.954 C 201.928 278.979 202.005 288.865 202.472 296.825 Z M 236.883 161.41 C 240.961 161.128 245.898 160.888 248.271 161.41 C 249.681 161.721 250.312 162.034 250.994 162.895 C 251.816 163.932 252.413 166.4 252.479 167.599 C 252.526 168.441 252.033 168.312 251.984 169.58 C 251.857 172.882 254.941 187.129 253.965 191.86 C 253.358 194.798 252.848 196.256 250.251 197.554 C 245.929 199.713 230.319 200.199 225.99 199.039 C 223.707 198.427 223.187 198.099 222.277 195.821 C 220.433 191.202 220.197 171.968 220.792 167.104 C 221.062 164.894 220.89 164.313 222.277 163.391 C 224.614 161.836 232.362 161.723 236.883 161.41 Z M 238.368 311.927 C 242.12 311.735 246.693 311.997 248.518 313.412 C 249.881 314.468 250.217 316.537 250.004 318.116 C 249.772 319.836 247.642 322.409 246.786 323.314 C 246.305 323.823 245.85 323.151 245.548 324.057 C 244.462 327.306 248.175 352.28 246.538 359.211 C 245.607 363.153 244.489 364.765 241.834 366.39 C 238.467 368.451 229.668 369.589 226.486 368.865 C 224.478 368.409 223.687 368.199 222.772 365.647 C 220.573 359.511 220.918 329.272 221.782 321.581 C 222.184 318.005 221.925 316.94 223.762 315.392 C 226.331 313.23 233.999 312.15 238.368 311.927 Z M 30.913 207.456 C 34.202 207.457 37.488 207.411 39.083 208.942 C 40.599 210.398 40.474 212.627 40.568 216.121 C 40.728 222.04 39.21 238.097 37.597 243.352 C 36.712 246.237 35.999 247.586 34.379 248.551 C 32.674 249.567 30.153 249.014 27.447 249.046 C 24.093 249.086 18.234 249.517 15.564 248.551 C 13.69 247.873 12.553 246.69 11.851 245.333 C 11.145 243.969 11.288 242.968 11.356 240.382 C 11.487 235.415 14.461 218.346 14.327 215.131 C 14.282 214.076 13.791 214.285 13.831 213.645 C 13.891 212.714 13.904 210.891 15.317 209.932 C 17.763 208.271 26.66 207.455 30.913 207.456 Z" style="stroke: rgb(129, 151, 57); fill: rgb(13, 33, 64); stroke-width: 0px;"/></svg>