<?xml version="1.0" encoding="utf-8"?>
<svg xmlns="http://www.w3.org/2000/svg" viewBox="0 0 260 380" xmlns:bx="https://boxy-svg.com" width="260px" height="380px"><defs><bx:guide x="10" y="10" angle="0"/><bx:guide x="10" y="10" angle="90"/><bx:guide x="250" y="370" angle="0"/><bx:guide x="250" y="370" angle="90"/><bx:guide x="125.517" y="273.529" angle="90"/><bx:guide x="124.06" y="232.004" angle="90"/><bx:export><bx:file format="svg" path="Untitled 2.svg"/></bx:export></defs><path d="M 256.286 242.673 C 256.97 247.787 257.43 260.317 256.286 264.682 C 255.626 267.197 254.46 268.403 253.168 269.267 C 252.022 270.033 250.482 270.304 249.133 270.001 C 248.711 269.906 248.255 269.806 247.792 269.661 C 241.437 272.867 224.204 277.63 218.687 278.805 C 215.654 279.45 214.576 279.649 212.818 279.171 C 211.1 278.705 210.072 278.097 208.233 276.053 C 204.87 272.318 199.3 260.509 195.027 254.778 C 192.049 250.784 187.867 247.609 185.704 244.85 C 183.38 242.508 181.224 240.047 178.887 237.538 C 174.808 233.159 168.517 226.932 166.782 223.599 C 165.799 221.71 165.879 220.499 166.049 219.197 C 166.201 218.023 166.697 216.889 167.516 216.079 C 168.408 215.196 170.077 214.475 171.367 214.245 C 172.584 214.028 173.882 214.138 175.036 214.612 C 175.465 214.788 175.939 215.09 176.401 215.437 C 176.937 215.57 177.559 215.776 178.337 216.079 C 183.133 217.949 200.162 228.31 202.363 230.018 C 202.926 230.454 202.375 230.321 202.914 230.751 C 204.372 231.916 213.095 236.148 218.789 239.681 C 224.736 235.741 241.151 225.662 245.831 223.782 C 248.318 222.783 249.134 222.839 250.6 223.048 C 251.996 223.248 253.559 224 254.451 224.882 C 255.271 225.693 255.591 226.501 255.919 228 C 256.427 230.322 256.979 235.671 256.286 238.271 C 256.195 238.611 256.084 238.941 255.955 239.259 C 255.984 239.62 255.982 239.97 255.944 240.292 C 256.064 241.022 256.171 241.815 256.286 242.673 Z" style="fill: rgb(250, 217, 55); stroke: rgb(5, 14, 26); stroke-width: 5px;"/></svg>