<?xml version="1.0" encoding="utf-8"?>
<svg xmlns="http://www.w3.org/2000/svg" viewBox="0 0 260 380" xmlns:bx="https://boxy-svg.com" width="260px" height="380px"><defs><bx:guide x="10" y="10" angle="0"/><bx:guide x="10" y="10" angle="90"/><bx:guide x="250" y="370" angle="0"/><bx:guide x="250" y="370" angle="90"/><bx:export><bx:file format="svg"/></bx:export><bx:guide x="158.55" y="89.294" angle="90"/><bx:guide x="129.602" y="319.401" angle="90"/><bx:guide x="131.881" y="291.86" angle="90"/></defs><path stroke="rgb(255,0,0)" stroke-width="0" opacity="0.9490196078431372" d="M 254.318 309.348 C 254.764 312.944 254.367 333.804 254.318 340.522 C 254.26 348.378 255.103 361.962 253.943 367.088 C 253.388 369.538 252.705 370.846 251.609 371.778 C 251.347 372.068 251.064 372.319 250.763 372.513 C 249.098 373.589 246.937 373.262 243.654 373.262 C 238.458 373.262 230.228 371.742 221.203 371.391 C 209.553 370.937 192.289 370.859 178.548 371.391 C 165.388 371.901 149.283 374.116 140.382 374.384 C 134.72 374.555 133.087 374.001 128.034 374.01 C 121.328 374.023 112.613 375.173 102.965 374.759 C 91.174 374.253 76.338 370.765 61.806 370.268 C 46.882 369.758 21.359 373.196 13.114 372.3 C 12.59 372.291 12.093 372.235 11.667 372.139 C 10.279 371.827 9.002 370.881 8.112 369.707 C 7.126 368.407 6.719 367.362 6.241 364.469 C 5.295 358.739 4.873 341.69 5.119 333.787 C 5.295 328.088 5.607 309.881 6.615 307.103 C 7.234 305.398 8.231 304.567 9.047 303.923 C 9.463 303.595 9.794 303.419 10.213 303.306 C 10.313 303.257 10.416 303.213 10.522 303.174 C 10.791 302.621 11.112 302.061 11.48 301.491 C 12.827 299.4 15.11 297.378 17.653 294.943 C 20.827 291.905 27.38 286.718 29.44 284.653 C 30.454 283.636 30.418 283.322 31.124 282.595 C 31.974 281.719 33.349 280.75 34.304 279.789 C 34.644 279.446 34.959 279.047 35.262 278.652 C 35.85 277.694 36.505 277.087 37.11 276.608 C 37.731 276.119 38.164 275.967 38.981 275.86 C 40.109 275.713 42.277 275.755 43.471 276.234 C 44.511 276.651 45.319 277.159 45.903 278.292 C 46.092 278.658 46.269 279.09 46.426 279.573 C 46.831 280.472 47.037 281.524 47.026 282.408 C 47.025 282.455 47.025 282.501 47.024 282.547 C 47.123 283.561 47.135 284.655 47.026 285.776 C 46.628 289.889 44.02 296.933 42.162 301.117 C 41.93 301.638 41.699 302.163 41.465 302.683 C 48.803 303.028 57.343 303.546 60.309 303.175 C 62.171 302.942 61.423 302.257 63.302 302.052 C 67.856 301.556 84.518 303.604 92.488 303.549 C 92.716 303.547 92.941 303.544 93.164 303.54 C 91.492 302.148 88.966 300.472 87.437 298.872 C 85.581 296.93 84.509 294.571 82.759 292.698 C 81.015 290.83 78.507 289.168 76.96 287.646 C 75.71 286.418 74.651 285.614 73.966 284.279 C 73.253 282.888 72.608 281.02 72.844 279.415 C 73.094 277.713 74.706 275.26 75.65 274.363 C 76.27 273.775 76.704 273.722 77.521 273.615 C 78.649 273.468 80.701 273.428 82.011 273.989 C 83.321 274.55 83.427 275.857 85.379 276.982 C 88.955 279.046 98.159 281.119 104.461 284.466 C 111.201 288.044 121.786 294.896 124.48 298.123 C 124.698 298.384 124.879 298.625 125.028 298.852 C 126.657 299.94 128.212 301.218 128.97 302.239 C 129.055 302.354 129.135 302.468 129.21 302.583 C 130.345 302.493 131.552 302.429 132.899 302.426 C 137.17 302.418 140.726 302.948 146.527 303.289 C 146.907 302.888 147.423 302.42 148.017 301.932 C 148.02 301.785 148.032 301.638 148.053 301.491 C 148.284 299.846 149.786 297.44 151.233 296.065 C 152.663 294.706 156.67 294.637 156.659 293.259 C 156.644 291.424 148.576 287.856 146.93 285.401 C 145.79 283.701 145.572 282.142 145.808 280.537 C 146.057 278.835 147.669 276.382 148.614 275.486 C 149.234 274.898 149.604 274.795 150.485 274.737 C 151.856 274.647 153.735 274.608 156.471 275.86 C 161.445 278.136 175.533 287.322 178.735 291.388 C 180.463 293.582 180.451 295.222 180.231 297.001 C 180.012 298.776 178.517 300.768 177.425 302.052 C 177.046 302.497 176.626 302.807 176.192 303.087 C 183.782 302.829 192.243 302.502 200.665 302.203 C 201.256 299.939 202.725 297.303 204.553 294.382 C 207.446 289.757 215.109 280.092 217.462 278.105 C 218.387 277.324 218.515 277.463 219.332 277.357 C 220.46 277.21 222.628 277.252 223.823 277.731 C 224.862 278.148 225.671 278.673 226.255 279.789 C 227.064 281.334 227.481 284.964 227.377 286.898 C 227.296 288.413 226.491 288.777 226.255 290.64 C 225.971 292.874 226.484 297.614 226.537 301.451 C 237.366 301.258 245.941 301.353 249.266 302.052 C 252.514 302.735 252.355 303.664 253.195 304.858 C 253.995 305.995 254.508 307.546 254.318 308.974 C 254.311 309.03 254.302 309.086 254.292 309.144 C 254.301 309.211 254.309 309.279 254.318 309.348 Z" style="fill-opacity: 1; fill-rule: nonzero; stroke: rgb(5, 14, 26); stroke-dasharray: none; stroke-dashoffset: 0px; stroke-linecap: butt; stroke-linejoin: miter; stroke-miterlimit: 4; stroke-opacity: 1; stroke-width: 5px; paint-order: normal; vector-effect: none; opacity: 1; mix-blend-mode: normal; isolation: auto; fill: rgb(250, 217, 55);" id="object-0"/></svg>