<?xml version="1.0" encoding="utf-8"?>
<svg xmlns="http://www.w3.org/2000/svg" viewBox="0 0 260 380" xmlns:bx="https://boxy-svg.com" width="260px" height="380px"><defs><bx:guide x="10" y="10" angle="0"/><bx:guide x="10" y="10" angle="90"/><bx:guide x="250" y="370" angle="0"/><bx:guide x="250" y="370" angle="90"/><bx:guide x="125.517" y="273.529" angle="90"/><bx:guide x="124.06" y="232.004" angle="90"/><bx:export><bx:file format="svg" path="Untitled 2.svg"/></bx:export></defs><path d="M 9.234 216.812 C 11.084 216.735 13.543 217.775 15.837 219.013 C 18.577 220.493 22.934 224.101 24.457 225.616 C 25.267 226.421 25.214 226.884 25.741 227.45 C 26.301 228.052 26.769 228.104 27.758 229.101 C 28.918 230.27 31.279 233.261 33.511 235.976 C 34.994 236.528 36.54 237.297 37.846 238.088 C 40.542 239.721 43.145 242.21 45.366 244.874 C 46.582 246.333 47.847 248.542 48.951 250.516 C 48.981 250.529 49.009 250.544 49.034 250.56 C 49.315 250.739 49.285 250.985 49.584 251.293 C 50.072 251.796 51.475 252.862 51.968 253.311 C 52.251 253.568 52.188 253.575 52.519 253.861 C 53.234 254.48 55.776 256.013 56.737 257.162 C 57.198 257.713 57.413 258.375 57.633 258.974 C 58.047 259.287 58.379 259.552 58.571 259.73 C 58.962 260.092 58.77 260.149 59.121 260.464 C 59.792 261.065 62.088 261.791 62.973 263.031 C 63.289 263.474 63.587 264.028 63.835 264.632 C 64.085 264.859 64.295 265.064 64.44 265.232 C 64.889 265.753 64.77 265.97 65.174 266.516 C 65.813 267.381 67.698 269.367 68.292 270.001 C 68.581 270.31 68.529 270.257 68.842 270.551 C 69.497 271.167 71.855 273.237 72.51 273.853 C 72.823 274.147 72.773 274.039 73.06 274.403 C 73.748 275.271 76.261 278.377 76.912 280.088 C 77.419 281.423 77.618 282.499 77.279 283.757 C 76.879 285.237 75.53 287.466 74.161 288.342 C 72.866 289.17 72.395 289.294 69.392 289.075 C 67.729 288.954 64.793 288.37 61.114 287.525 C 51.778 286.609 36.731 284.511 28.675 283.206 C 22.117 282.144 15.547 281.168 11.469 279.968 C 11.126 280.182 10.77 280.309 10.335 280.272 C 8.652 280.129 6.796 279.123 5.749 277.154 C 4.186 274.214 4.607 268.767 4.282 262.114 C 3.8 252.261 2.996 227.448 3.915 221.764 C 4.259 219.64 4.563 219.457 5.383 218.647 C 6.275 217.764 7.713 216.876 9.234 216.812 Z" style="fill: rgb(250, 217, 55); stroke: rgb(5, 14, 26); stroke-width: 5px;"/></svg>