<?xml version="1.0" encoding="utf-8"?>
<svg xmlns="http://www.w3.org/2000/svg" viewBox="0 0 260 380" xmlns:bx="https://boxy-svg.com" width="260px" height="380px"><defs><bx:guide x="10" y="10" angle="0"/><bx:guide x="10" y="10" angle="90"/><bx:guide x="250" y="370" angle="0"/><bx:guide x="250" y="370" angle="90"/><bx:guide x="125.517" y="273.529" angle="90"/><bx:guide x="124.06" y="232.004" angle="90"/><bx:export><bx:file format="svg" path="Untitled 2.svg"/><bx:file format="svg" href="#object-0"/></bx:export></defs><path fill="rgb(255,0,0)" stroke="rgb(255,0,0)" stroke-width="0" opacity="0.9411764705882353" d="M 9.339 225.386 C 10.915 225.49 14.745 226.911 15.946 228.348 C 16.416 228.911 16.606 229.337 16.695 229.915 C 16.969 230.066 17.25 230.227 17.54 230.398 C 24.388 234.44 42.278 249.162 49.207 255.686 C 50.95 257.327 52.271 258.833 53.394 260.221 C 60.365 265.706 67.922 271.937 70.166 275.278 C 71.389 277.097 71.33 277.988 71.078 279.379 C 70.793 280.943 69.486 283.22 68.116 284.163 C 66.799 285.069 66.206 285.048 63.104 285.074 C 55.347 285.14 22.279 282.309 12.984 280.062 C 11.451 279.691 10.175 279.325 9.103 278.944 C 8.521 278.921 7.973 278.84 7.516 278.695 C 6.114 278.25 4.943 278.102 4.099 275.734 C 4.048 275.592 3.999 275.436 3.95 275.268 C 3.666 274.666 3.543 274.018 3.533 273.369 C 1.99 264.517 1.839 240.957 3.188 233.815 C 3.978 229.632 5.798 227.556 7.061 226.297 C 7.831 225.53 8.316 225.318 9.339 225.386 Z" style="fill: rgb(250, 217, 55); fill-opacity: 1; fill-rule: nonzero; stroke: rgb(5, 14, 26); stroke-dasharray: none; stroke-dashoffset: 0px; stroke-linecap: butt; stroke-linejoin: miter; stroke-miterlimit: 4; stroke-opacity: 1; stroke-width: 5px; paint-order: normal; vector-effect: none; opacity: 1; mix-blend-mode: normal; isolation: auto;" id="object-0"/></svg>