<?xml version="1.0" encoding="utf-8"?>
<svg xmlns="http://www.w3.org/2000/svg" viewBox="0 0 260 380" xmlns:bx="https://boxy-svg.com" width="260px" height="380px"><defs><bx:guide x="10" y="10" angle="0"/><bx:guide x="10" y="10" angle="90"/><bx:guide x="250" y="370" angle="0"/><bx:guide x="250" y="370" angle="90"/><bx:export><bx:file format="svg"/></bx:export><bx:guide x="158.55" y="89.294" angle="90"/></defs><path d="M 9.446 4.351 C 10.187 4.295 11.308 4.322 12.409 4.462 C 17.445 3.659 24.403 3.245 27.277 3.412 C 29.645 3.55 29.275 4.477 31.969 4.82 C 37.737 5.554 55.462 5.536 64.815 5.289 C 72.446 5.088 77.338 3.741 84.522 3.882 C 92.65 4.04 99.765 6.418 111.268 6.697 C 127.622 7.093 167.822 3.382 176.021 3.882 C 178.676 4.043 177.884 4.653 179.775 4.82 C 183.107 5.115 191.021 4.032 195.728 4.351 C 199.777 4.625 203.275 6.561 206.52 6.228 C 209.47 5.925 210.274 3.529 214.497 2.943 C 220.748 2.076 238.928 1.685 248.335 3.328 C 250.017 3.278 252.177 3.403 253.208 4.351 C 253.541 4.657 253.806 5.039 254.02 5.482 C 255.763 7.306 255.448 10.281 255.111 11.966 C 255.4 16.358 254.176 22.893 254.146 28.985 C 254.112 35.921 255.267 47.971 255.085 51.508 C 255.011 52.95 254.725 52.141 254.616 53.854 C 254.256 59.508 255.255 92.597 255.085 101.245 C 255.003 105.387 254.599 105.261 254.616 108.753 C 254.642 114.347 256.055 124.503 256.023 133.153 C 255.989 142.553 254.218 151.366 254.146 163.183 C 254.056 178.012 256.525 202.243 256.493 216.205 C 256.468 226.522 255.235 231.304 255.085 241.074 C 254.897 253.301 256.248 275.285 256.023 284.712 C 255.893 290.202 255.199 289.763 255.085 295.973 C 254.847 308.918 258.747 355.775 256.962 366.826 C 256.213 371.462 255.096 372.893 253.443 374.099 C 252.204 375.003 250.274 375.018 248.784 374.694 C 247.44 374.721 246.147 374.635 245.466 374.568 C 244.722 374.496 244.854 374.11 244.058 374.099 C 242.381 374.077 238.669 375.613 234.674 375.976 C 229.142 376.479 223.17 376.124 213.089 375.976 C 196.827 375.737 154.948 373.443 141.767 374.099 C 135.333 374.419 135.712 375.584 130.037 375.976 C 120.488 376.636 102.903 376.036 86.399 375.976 C 66.795 375.904 31.42 375.333 19.3 375.507 C 13.565 375.589 11.465 376.685 8.977 375.976 C 7.113 375.445 5.734 374.282 4.989 372.926 C 4.467 371.978 4.291 370.561 4.336 369.304 C 4.114 366.392 4.418 362.643 4.519 360.257 C 4.637 357.497 5.281 357.352 5.458 353.219 C 5.864 343.724 4.195 303.219 4.519 296.443 C 4.618 294.394 4.922 295.581 4.989 293.627 C 5.192 287.686 2.938 260.314 3.112 247.643 C 3.248 237.726 4.965 230.442 4.989 222.774 C 5.01 215.855 3.129 207.124 3.581 203.536 C 3.811 201.708 4.958 201.745 4.989 200.252 C 5.034 198.016 2.647 194.115 2.173 190.867 C 1.689 187.551 2.08 187.195 2.173 180.544 C 2.426 162.518 5.185 81.922 4.989 55.731 C 4.878 41.004 3.557 34.234 3.581 26.17 C 3.6 19.941 3.706 14.351 4.519 10.685 C 5.071 8.198 5.862 6.297 6.866 5.289 C 7.605 4.546 8.342 4.434 9.446 4.351 Z M 15.781 35.554 C 15.917 42.872 17.813 45.946 18.127 58.077 C 18.755 82.378 12.613 167.982 14.373 186.644 C 15.038 193.694 17.125 193.906 17.658 197.436 C 18.162 200.781 17.809 203.962 17.658 207.29 C 17.503 210.686 16.719 214.172 16.719 217.613 C 16.719 221.054 17.663 223.216 17.658 227.936 C 17.65 235.301 15.458 248.01 15.312 259.374 C 15.148 272.039 17.07 290.456 17.188 300.666 C 17.269 307.643 16.497 311.907 16.719 316.619 C 16.91 320.662 17.968 323.06 18.127 327.411 C 18.332 333.035 17.206 342.507 17.188 348.057 C 17.175 352.263 17.711 354.685 17.658 358.38 C 17.637 359.808 17.645 361.505 17.619 363.227 C 31.765 362.624 70.617 363.195 89.684 363.307 C 104.761 363.396 116.088 364.119 126.752 363.776 C 135.574 363.492 138.805 362.147 149.744 361.899 C 167.84 361.49 217.015 365.011 230.92 363.776 C 237.205 363.218 237.991 361.068 241.712 360.961 C 242.411 360.941 243.177 360.941 243.976 360.965 C 244.247 355.654 244.775 348.508 244.762 341.019 C 244.738 326.887 242.857 300.547 242.885 287.527 C 242.904 278.793 243.77 275.354 243.824 267.82 C 243.888 258.741 242.824 247.176 242.885 236.382 C 242.949 225.148 244.459 214.002 244.293 201.659 C 244.111 188.186 241.466 171.79 241.477 158.491 C 241.487 146.499 243.87 134.895 243.824 125.176 C 243.784 117.001 242.204 112.473 241.947 103.592 C 241.647 93.251 242.632 74.201 242.847 63.249 C 238.539 65.641 232.828 68.326 227.635 70.042 C 219.09 72.865 208.853 72.713 198.543 75.673 C 189.203 78.354 174.644 85.986 166.276 88.743 C 166.239 88.766 166.203 88.789 166.167 88.811 C 165.035 89.512 164.029 89.678 163.08 89.601 C 162.469 89.711 161.931 89.764 161.475 89.749 C 158.904 89.667 158.247 88.13 157.486 86.7 C 157.249 86.253 157.079 85.691 156.967 85.078 C 156.635 84.11 156.528 83.011 156.853 81.656 C 156.892 81.268 156.948 80.909 157.017 80.6 C 157.307 79.304 157.619 78.658 158.894 77.55 C 158.993 77.464 159.101 77.375 159.215 77.283 C 161.45 74.334 164.849 70.742 167.809 65.584 C 173.384 55.87 184.335 29.638 190.578 17.359 C 187.998 16.975 185.495 16.624 183.528 16.551 C 180.31 16.432 177.728 17.175 175.551 17.02 C 173.849 16.898 173.383 16.14 171.328 16.081 C 167.857 15.982 162.905 17.498 155.375 17.958 C 143.105 18.709 115.058 19.512 100.945 18.897 C 90.68 18.449 82.359 16.021 76.545 16.081 C 72.731 16.121 72.104 17.198 68.099 17.489 C 61.567 17.963 47.273 17.912 39.007 17.489 C 32.268 17.144 26.778 15.605 21.646 15.612 C 20.137 15.614 18.6 15.857 17.122 16.149 C 16.797 21.112 15.66 29.068 15.781 35.554 Z M 47.23 27.12 C 48.371 26.594 50.301 26.65 51.453 27.12 C 52.541 27.562 52.759 28.176 54.034 29.7 C 56.657 32.835 64.856 42.775 67.172 47.531 C 68.729 50.726 69.597 52.43 69.049 55.508 C 68.319 59.612 62.769 65.078 60.603 70.054 C 58.511 74.862 57.869 82.969 56.146 84.834 C 55.269 85.784 54.258 85.521 53.33 85.303 C 52.3 85.061 51.608 84.756 50.28 83.192 C 47.383 79.779 38.844 65.405 37.142 60.669 C 36.25 58.188 36.165 57.826 36.673 55.508 C 37.513 51.671 43.51 43.693 44.65 39.085 C 45.506 35.625 43.962 32.231 44.65 30.17 C 45.148 28.674 46.115 27.634 47.23 27.12 Z" style="fill: rgb(250, 217, 55); stroke: rgb(5, 14, 26); stroke-width: 5px;"/></svg>