<?xml version="1.0" encoding="utf-8"?>
<svg xmlns="http://www.w3.org/2000/svg" viewBox="0 0 260 380" xmlns:bx="https://boxy-svg.com" width="260px" height="380px">
  <defs>
    <bx:guide x="10" y="10" angle="0"/>
    <bx:guide x="10" y="10" angle="90"/>
    <bx:guide x="250" y="370" angle="0"/>
    <bx:guide x="250" y="370" angle="90"/>
    <bx:guide x="125.517" y="273.529" angle="90"/>
    <bx:guide x="124.06" y="232.004" angle="90"/>
    <bx:export>
      <bx:file format="svg" path="Untitled 2.svg"/>
      <bx:file format="svg" href="#object-0"/>
    </bx:export>
  </defs>
  <path fill="rgb(255,0,0)" stroke="rgb(255,0,0)" stroke-width="0" opacity="0.9490196078431372" d="M 248.851 231.765 C 250.44 231.813 251.24 232.39 252.621 234.358 C 254.644 237.242 252.495 248.308 252.962 253.856 C 253.442 259.563 253.824 267.965 253.011 271.858 C 253.031 272.253 253.015 272.636 252.962 272.993 C 252.715 274.654 252.307 276.08 250 277.777 C 246.023 280.703 235.065 283.394 227.592 285.099 C 226.648 285.609 225.587 285.831 224.247 285.53 C 224.223 285.525 224.199 285.519 224.175 285.513 C 222.91 285.418 222.109 284.938 221.481 284.329 C 218.874 282.858 215.734 280.45 213.995 278.923 C 212.139 277.294 212.085 276.176 210.122 274.139 C 207.018 270.917 197.486 263.084 195.77 261.153 C 195.182 260.492 195.518 260.514 195.086 260.014 C 194.307 259.113 192.724 258.255 190.758 256.141 C 187.255 252.375 177.831 241.633 175.266 237.005 C 175.069 236.649 174.888 236.311 174.723 235.986 C 174.586 235.864 174.463 235.748 174.355 235.638 C 172.74 233.988 173.129 233.051 173.393 231.796 C 173.375 231.406 173.392 231.02 173.444 230.626 C 173.678 228.84 175.377 226.754 176.405 225.842 C 177.143 225.187 177.661 224.863 178.683 224.93 C 180.08 225.023 182.088 225.536 184.389 227.194 C 190.578 229.077 199.684 232.564 205.566 235.41 C 210.838 237.961 217.568 241.525 222.331 244.754 C 228.56 240.76 239.553 234.962 244.966 233.777 C 245.191 233.555 245.424 233.348 245.662 233.132 C 246.567 232.31 247.594 231.727 248.851 231.765 Z" style="fill: rgb(250, 217, 55); fill-opacity: 1; fill-rule: nonzero; stroke: rgb(5, 14, 26); stroke-dasharray: none; stroke-dashoffset: 0px; stroke-linecap: butt; stroke-linejoin: miter; stroke-miterlimit: 4; stroke-opacity: 1; stroke-width: 5px; paint-order: normal; vector-effect: none; opacity: 1; mix-blend-mode: normal; isolation: auto;" id="object-0"/>
</svg>