<?xml version="1.0" encoding="utf-8"?>
<svg xmlns="http://www.w3.org/2000/svg" viewBox="0 0 260 380" xmlns:bx="https://boxy-svg.com" width="260px" height="380px"><defs><bx:guide x="10" y="10" angle="0"/><bx:guide x="10" y="10" angle="90"/><bx:guide x="250" y="370" angle="0"/><bx:guide x="250" y="370" angle="90"/><bx:export><bx:file format="svg"/></bx:export><bx:guide x="158.55" y="89.294" angle="90"/></defs><rect x="10" y="10" width="240" height="360" style="stroke: rgb(0, 0, 0); fill: rgb(173, 106, 69);"/><path stroke="rgb(255,0,0)" d="M 39.823 9.389 C 41.009 9.076 43.88 8.889 45.453 9.389 C 46.874 9.841 47.607 9.866 48.973 11.97 C 52.247 17.016 59.119 39.314 62.111 48.569 C 64.187 54.992 65.708 59.295 66.334 63.584 C 66.834 67.014 67.129 70.265 66.334 72.5 C 65.687 74.317 64.456 75.714 62.815 76.488 C 60.93 77.377 58.205 77.839 55.307 76.957 C 51.238 75.719 46.643 70.091 40.761 67.104 C 33.774 63.555 20.165 60.396 15.423 57.719 C 12.829 56.255 11.781 55.359 10.965 53.731 C 10.168 52.139 10.248 49.632 10.496 48.1 C 10.637 47.229 10.981 46.411 11.377 45.769 C 7.881 38.828 7.738 21.115 8.15 16.662 C 8.329 14.725 8.882 14.438 9.558 13.612 C 10.22 12.803 10.725 12.476 12.139 11.735 C 14.701 10.393 21.707 7.303 25.277 6.574 C 27.906 6.036 30.093 6.026 31.846 6.574 C 33.334 7.039 34.257 7.318 35.365 9.154 C 35.746 9.785 36.083 10.658 36.396 11.705 C 36.522 11.549 36.65 11.405 36.773 11.266 C 37.243 10.734 37.897 10.648 38.415 10.328 C 38.911 10.021 39.09 9.582 39.823 9.389 Z M 129.444 7.512 C 130.631 7.199 133.502 7.012 135.075 7.512 C 136.496 7.964 137.073 8.43 138.594 10.093 C 141.524 13.295 149.492 26.591 151.263 28.627 C 151.807 29.252 151.665 28.792 152.202 29.331 C 153.689 30.825 160.492 39.34 161.821 40.827 C 162.27 41.33 162.131 41.08 162.525 41.531 C 163.475 42.619 167.148 45.949 168.155 48.569 C 169.138 51.124 169.76 53.921 168.625 57.015 C 167.067 61.261 160.592 67.418 156.659 71.327 C 153.255 74.71 147.953 78.063 146.571 79.538 C 146.01 80.137 146.119 80.386 145.867 80.711 C 145.646 80.997 145.562 81.071 145.163 81.415 C 144.383 82.089 141.713 83.871 140.94 84.7 C 140.493 85.18 141.015 85.113 140.237 85.873 C 137.065 88.97 110.551 110.466 103.637 113.557 C 100.549 114.937 99.316 114.562 97.537 114.026 C 95.811 113.506 93.916 112.112 93.08 110.507 C 92.192 108.804 91.896 106.395 92.61 103.938 C 93.563 100.66 97.465 97.797 100.118 92.676 C 103.881 85.415 108.239 70.776 112.318 62.646 C 115.595 56.115 122.337 52.181 122.172 46.692 C 121.996 40.863 112.442 31.333 109.972 28.627 C 108.875 27.426 108.569 27.955 107.626 26.985 C 106.045 25.358 102.381 20.97 101.526 18.539 C 100.904 16.772 101.24 15.196 101.526 13.847 C 101.776 12.666 102.342 11.466 102.933 10.797 C 103.403 10.265 103.719 10.123 104.576 9.858 C 106.03 9.408 109.841 8.588 111.614 8.92 C 112.962 9.172 113.399 9.578 114.664 10.797 C 115.217 11.33 115.97 12.24 116.811 13.334 C 117.019 13.14 117.213 12.966 117.382 12.811 C 118.037 12.212 118.296 11.895 119.259 11.873 C 120.409 11.847 122.849 12.236 124.931 13.038 C 124.948 12.835 124.968 12.636 124.987 12.439 C 125.118 11.094 125.803 10.059 126.395 9.389 C 126.865 8.857 127.518 8.771 128.037 8.451 C 128.533 8.145 128.711 7.706 129.444 7.512 Z M 46.861 97.603 C 49.026 97.172 53.443 97.656 55.073 99.48 C 56.831 101.448 58.085 104.553 56.48 109.568 C 53.099 120.138 26.009 158.006 18.708 163.294 C 15.882 165.341 14.386 164.3 12.608 163.764 C 10.882 163.243 9.217 162.795 8.15 160.245 C 6.033 155.185 5.521 134.285 6.742 128.807 C 7.346 126.1 8.392 125.714 9.792 124.349 C 11.399 122.783 15.112 121.027 16.127 120.126 C 16.607 119.7 16.525 119.421 16.831 119.187 C 17.146 118.947 17.689 118.959 18.004 118.718 C 18.31 118.485 18.268 118.164 18.708 117.78 C 19.51 117.079 22.109 115.849 23.165 114.964 C 23.949 114.309 23.937 113.786 24.808 113.088 C 26.15 112.01 30.127 110.18 31.142 109.334 C 31.629 108.928 31.34 108.81 31.846 108.395 C 32.958 107.482 38.006 105.085 39.119 104.172 C 39.625 103.757 39.469 103.56 39.823 103.234 C 40.305 102.79 41.452 102.27 41.934 101.826 C 42.288 101.5 42.216 101.301 42.638 100.888 C 43.413 100.13 45.056 97.963 46.861 97.603 Z M 231.735 33.789 C 233.426 33.67 238.345 33.976 239.947 35.666 C 241.541 37.348 241.216 42.542 241.354 43.877 C 241.412 44.434 241.134 44.224 241.354 44.815 C 242.039 46.655 248.509 54.717 249.8 58.423 C 250.705 61.02 250.897 63.131 250.27 64.992 C 249.666 66.783 248.733 67.6 246.281 69.45 C 241.605 72.976 228.171 78.409 220.005 83.996 C 211.916 89.528 202.432 100.432 197.482 102.765 C 194.92 103.972 193.531 103.74 191.851 103.234 C 190.168 102.726 188.23 101.32 187.394 99.715 C 186.506 98.011 186.644 94.848 186.924 93.146 C 187.139 91.845 187.858 90.714 188.332 90.096 C 188.643 89.689 188.743 89.975 189.27 89.392 C 190.831 87.668 198.033 76.804 199.593 75.08 C 200.121 74.498 200.153 74.764 200.532 74.377 C 201.142 73.754 202.268 71.949 202.878 71.327 C 203.257 70.94 203.178 71.343 203.816 70.623 C 206.546 67.542 226.243 38.272 229.858 34.727 C 230.925 33.681 230.765 33.857 231.735 33.789 Z M 86.276 236.963 C 87.967 236.844 92.864 237.047 94.487 238.839 C 96.206 240.737 96.537 243.068 95.895 248.459 C 94.472 260.407 74.717 308.179 75.249 316.496 C 75.428 319.292 77.66 319.322 78.299 320.015 C 78.644 320.389 78.697 320.502 79.003 320.719 C 79.37 320.979 79.94 321.01 80.411 321.423 C 81.034 321.97 81.204 322.885 82.287 324.004 C 84.178 325.955 88.483 328.069 92.141 332.215 C 97.454 338.236 108.173 353.524 110.441 359.195 C 111.602 362.1 111.472 363.584 110.91 365.295 C 110.379 366.913 108.89 368.536 107.391 369.284 C 105.856 370.05 103.542 370.271 101.76 369.753 C 99.852 369.198 98.723 368.271 96.364 365.765 C 96.28 365.676 96.195 365.583 96.108 365.487 C 96.084 366.148 96.017 366.725 95.895 367.172 C 95.351 369.161 94.232 370.347 92.376 371.161 C 89.869 372.259 85.201 371.678 81.114 371.63 C 76.528 371.575 70.055 372.1 66.099 370.691 C 65.813 370.589 65.534 370.487 65.262 370.384 C 65.073 370.494 64.882 370.596 64.692 370.691 C 63.156 371.458 60.741 371.667 59.061 371.161 C 57.377 370.653 56.39 370.339 54.603 367.641 C 50.445 361.36 40.047 333.623 37.242 324.004 C 35.623 318.453 34.305 316.435 35.365 312.273 C 36.68 307.109 45.407 297.516 47.096 295.616 C 47.635 295.009 47.643 295.333 48.034 294.912 C 48.727 294.166 49.979 291.905 50.85 290.923 C 51.515 290.173 51.64 290.728 52.726 289.281 C 56.433 284.345 77.139 246.696 79.941 243.063 C 80.549 242.275 80.459 242.786 80.88 242.359 C 81.671 241.555 83.37 238.777 84.399 237.901 C 85.09 237.313 85.306 237.031 86.276 236.963 Z M 201.705 315.323 C 211.352 317.473 218.926 319.353 222.116 322.831 C 224.337 325.252 224.279 329.002 223.524 331.511 C 222.775 334.002 220.026 335.637 217.659 337.846 C 214.869 340.448 209.833 343.902 207.57 346.057 C 206.07 347.486 205.758 348.313 204.52 349.576 C 203.038 351.089 201.267 352.266 199.124 354.503 C 196.123 357.637 191.203 364.579 188.097 367.407 C 185.947 369.364 184.513 370.459 182.467 371.161 C 180.443 371.855 177.723 371.874 175.898 371.63 C 174.401 371.43 173.499 370.393 172.144 370.222 C 170.698 370.039 168.927 371.135 167.452 370.691 C 165.863 370.214 163.823 368.74 162.994 367.172 C 162.14 365.557 162.013 362.913 162.525 361.072 C 163.035 359.239 165.116 357.087 166.044 356.145 C 166.601 355.58 167.098 355.606 167.452 355.207 C 167.795 354.819 167.709 354.327 168.155 353.799 C 168.836 352.996 170.735 351.632 171.675 350.984 C 172.339 350.526 172.914 350.394 173.317 350.046 C 173.65 349.757 173.589 349.653 174.021 349.107 C 175.038 347.821 181.273 343.88 180.355 341.365 C 179.02 337.707 164.455 333.572 157.129 330.807 C 150.536 328.32 142.779 327.609 138.36 325.177 C 135.493 323.598 133.31 321.674 132.045 319.698 C 131.456 319.173 130.953 318.565 130.618 317.904 C 129.666 316.03 129.686 314.631 130.148 310.396 C 131.173 301.005 139.836 261.317 142.348 256.67 C 143 255.464 143.472 256.052 143.99 255.732 C 144.486 255.425 144.594 254.885 145.398 254.793 C 146.926 254.619 152.089 255.546 153.609 256.67 C 154.662 257.448 154.725 258.192 155.017 259.72 C 155.499 262.24 154.245 266.162 155.017 271.451 C 156.233 279.77 163.237 298.798 164.402 306.642 C 164.588 307.898 164.736 309.02 164.834 310.036 C 178.848 311.576 194.104 313.629 201.705 315.323 Z M 150.09 204.586 C 151.342 204.317 153.664 204.043 156.19 205.055 C 160.193 206.66 170.078 214.67 171.909 216.317 C 172.506 216.853 171.885 216.692 172.613 217.255 C 175.338 219.364 191.685 233.629 202.801 235.764 C 203.363 235.524 203.939 235.296 204.52 235.086 C 207.768 233.912 213.002 232.969 217.866 232.006 C 226.267 227.518 234.66 220.737 238.774 219.601 C 241.733 218.784 242.886 219.193 244.404 219.601 C 245.671 219.942 246.722 220.322 247.454 221.478 C 248.457 223.063 249.385 227.193 248.862 229.22 C 248.417 230.943 246.402 232.209 245.363 233.19 C 245.382 234.07 245.314 234.9 245.164 235.565 C 246.363 235.829 247.786 236.171 248.393 236.963 C 249.699 238.668 250.351 243.061 249.8 245.174 C 249.34 246.94 248.442 247.664 246.281 249.162 C 242.352 251.888 231.883 255.145 224.697 259.016 C 217.179 263.066 207.809 271.123 202.174 273.093 C 198.609 274.339 196.089 274.319 193.728 273.562 C 191.539 272.861 190.666 271.546 188.332 269.104 C 184.343 264.933 173.955 250.439 171.675 248.224 C 170.98 247.549 171.024 248.036 170.502 247.52 C 169.421 246.454 166.655 241.783 165.575 240.716 C 165.052 240.2 165.095 240.659 164.402 240.013 C 162.223 237.981 151.976 226.336 148.917 221.713 C 146.969 218.767 146.135 216.847 145.633 214.674 C 145.206 212.829 145.33 210.955 145.633 209.513 C 145.887 208.299 146.449 207.133 147.04 206.463 C 147.511 205.931 148.164 205.845 148.683 205.525 C 149.178 205.218 149.342 204.747 150.09 204.586 Z M 78.768 160.479 C 80.459 160.361 85.364 160.597 86.98 162.356 C 88.658 164.183 88.973 167.564 88.387 171.506 C 87.504 177.453 82.976 186.199 78.534 195.436 C 72.893 207.167 60.626 230.179 56.011 236.728 C 53.946 239.659 54.577 239.938 51.553 241.186 C 45.302 243.766 19.329 247.11 13.077 245.878 C 10.177 245.306 9.44 243.886 8.619 242.359 C 7.8 240.835 7.901 238.26 8.15 236.728 C 8.352 235.484 8.966 234.348 9.558 233.678 C 10.028 233.146 9.948 233.109 11.2 232.74 C 11.382 232.686 11.609 232.631 11.877 232.574 C 10.302 227.32 9.629 214.914 10.027 211.39 C 10.231 209.584 10.843 209.009 11.435 208.34 C 11.442 208.332 11.45 208.324 11.457 208.316 C 10.424 206.282 11.198 204.391 11.435 202.944 C 11.643 201.67 12.251 200.563 12.842 199.894 C 13.313 199.362 13.644 199.222 14.485 198.955 C 15.874 198.516 18.163 197.371 21.054 198.017 C 25.763 199.07 36.657 209.331 40.761 208.809 C 43.505 208.46 44.437 203.623 45.688 202.24 C 46.465 201.382 46.521 201.832 47.565 200.598 C 50.456 197.181 62.973 177.973 65.865 174.556 C 66.909 173.322 66.827 173.902 67.742 172.914 C 69.6 170.904 74.998 163.09 76.891 161.418 C 77.761 160.65 77.799 160.547 78.768 160.479 Z M 104.575 125.287 C 105.891 124.947 108.005 124.592 111.144 125.287 C 116.735 126.525 130.286 132.108 136.952 135.61 C 142.092 138.311 146.616 141.42 148.917 143.821 C 150.399 145.368 150.848 146.389 151.263 148.044 C 151.732 149.917 152.534 151.518 151.263 154.614 C 148.714 160.823 129.628 176.561 128.271 184.175 C 127.37 189.228 133.084 192.888 133.902 196.374 C 134.533 199.066 134.595 201.52 133.902 203.413 C 133.282 205.105 131.881 206.653 130.383 207.401 C 128.847 208.168 126.432 208.377 124.752 207.87 C 123.068 207.363 122.273 206.377 120.294 204.351 C 116.731 200.704 106.944 190.054 104.81 185.113 C 103.484 182.042 103.566 180.429 104.341 177.605 C 105.367 173.867 110.581 166.867 112.318 164.702 C 113.161 163.65 113.338 163.932 114.194 163.06 C 115.685 161.541 121.21 158.384 120.764 155.552 C 120.166 151.762 108.304 146.287 104.81 142.414 C 102.32 139.654 100.801 137.135 100.118 134.906 C 99.588 133.177 99.832 131.564 100.118 130.214 C 100.368 129.033 100.934 127.833 101.525 127.164 C 101.996 126.632 102.649 126.546 103.168 126.225 C 103.663 125.919 103.811 125.485 104.575 125.287 Z M 207.805 111.68 C 209.057 111.353 210.705 110.982 213.905 111.68 C 220.478 113.114 243.801 120.173 248.393 124.818 C 250.867 127.322 250.324 130.533 249.8 132.56 C 249.453 133.906 248.451 135.111 247.301 135.936 C 248.132 136.948 248.106 137.747 248.393 139.129 C 248.865 141.412 248.581 144.29 248.393 148.045 C 248.131 153.26 248.01 164.306 246.516 168.221 C 246.17 169.129 245.781 169.825 245.345 170.382 C 246.685 171.718 247.742 172.906 248.393 173.852 C 250.484 176.892 250.31 179.375 249.8 181.36 C 249.36 183.077 247.819 184.593 246.281 185.348 C 244.655 186.147 242.985 186.874 240.181 185.817 C 234.766 183.776 221.648 167.374 215.312 166.11 C 211.208 165.291 210.108 168.963 205.459 170.333 C 198.256 172.456 179.495 177.316 174.021 176.433 C 171.28 175.991 170.392 174.481 169.563 172.914 C 168.709 171.299 168.829 168.432 169.094 166.814 C 169.302 165.54 169.91 164.433 170.502 163.764 C 170.972 163.232 171.303 163.694 172.144 162.825 C 174.485 160.407 184.117 144.797 185.986 142.649 C 186.54 142.011 186.408 142.566 186.924 141.945 C 188.537 140.005 196.104 126.758 197.717 124.818 C 198.233 124.197 198.206 124.671 198.655 124.114 C 199.801 122.693 203.318 115.136 204.755 113.557 C 205.437 112.807 205.879 112.938 206.397 112.618 C 206.893 112.312 207.055 111.876 207.805 111.68 Z M 212.966 284.354 C 215.456 283.873 224.111 284.219 230.328 285.293 C 237.363 286.508 249.671 288.564 253.085 291.862 C 255.282 293.984 255.166 297.048 254.493 299.604 C 253.722 302.53 250.061 306.914 247.689 308.285 C 245.873 309.333 244.979 309.25 242.058 308.754 C 236.22 307.763 216.692 300.639 212.028 297.962 C 209.933 296.759 209.58 296.244 208.978 294.912 C 208.307 293.427 208.26 290.813 208.509 289.281 C 208.711 288.037 209.325 286.901 209.916 286.231 C 210.387 285.699 211.04 285.613 211.559 285.293 C 212.054 284.987 211.986 284.544 212.966 284.354 Z" style="stroke: rgb(129, 151, 57); fill: rgb(204, 128, 41); stroke-width: 0px;"/><path d="M 9.446 4.351 C 10.187 4.295 11.308 4.322 12.409 4.462 C 17.445 3.659 24.403 3.245 27.277 3.412 C 29.645 3.55 29.275 4.477 31.969 4.82 C 37.737 5.554 55.462 5.536 64.815 5.289 C 72.446 5.088 77.338 3.741 84.522 3.882 C 92.65 4.04 99.765 6.418 111.268 6.697 C 127.622 7.093 167.822 3.382 176.021 3.882 C 178.676 4.043 177.884 4.653 179.775 4.82 C 183.107 5.115 191.021 4.032 195.728 4.351 C 199.777 4.625 203.275 6.561 206.52 6.228 C 209.47 5.925 210.274 3.529 214.497 2.943 C 220.748 2.076 238.928 1.685 248.335 3.328 C 250.017 3.278 252.177 3.403 253.208 4.351 C 253.541 4.657 253.806 5.039 254.02 5.482 C 255.763 7.306 255.448 10.281 255.111 11.966 C 255.4 16.358 254.176 22.893 254.146 28.985 C 254.112 35.921 255.267 47.971 255.085 51.508 C 255.011 52.95 254.725 52.141 254.616 53.854 C 254.256 59.508 255.255 92.597 255.085 101.245 C 255.003 105.387 254.599 105.261 254.616 108.753 C 254.642 114.347 256.055 124.503 256.023 133.153 C 255.989 142.553 254.218 151.366 254.146 163.183 C 254.056 178.012 256.525 202.243 256.493 216.205 C 256.468 226.522 255.235 231.304 255.085 241.074 C 254.897 253.301 256.248 275.285 256.023 284.712 C 255.893 290.202 255.199 289.763 255.085 295.973 C 254.847 308.918 258.747 355.775 256.962 366.826 C 256.213 371.462 255.096 372.893 253.443 374.099 C 252.204 375.003 250.274 375.018 248.784 374.694 C 247.44 374.721 246.147 374.635 245.466 374.568 C 244.722 374.496 244.854 374.11 244.058 374.099 C 242.381 374.077 238.669 375.613 234.674 375.976 C 229.142 376.479 223.17 376.124 213.089 375.976 C 196.827 375.737 154.948 373.443 141.767 374.099 C 135.333 374.419 135.712 375.584 130.037 375.976 C 120.488 376.636 102.903 376.036 86.399 375.976 C 66.795 375.904 31.42 375.333 19.3 375.507 C 13.565 375.589 11.465 376.685 8.977 375.976 C 7.113 375.445 5.734 374.282 4.989 372.926 C 4.467 371.978 4.291 370.561 4.336 369.304 C 4.114 366.392 4.418 362.643 4.519 360.257 C 4.637 357.497 5.281 357.352 5.458 353.219 C 5.864 343.724 4.195 303.219 4.519 296.443 C 4.618 294.394 4.922 295.581 4.989 293.627 C 5.192 287.686 2.938 260.314 3.112 247.643 C 3.248 237.726 4.965 230.442 4.989 222.774 C 5.01 215.855 3.129 207.124 3.581 203.536 C 3.811 201.708 4.958 201.745 4.989 200.252 C 5.034 198.016 2.647 194.115 2.173 190.867 C 1.689 187.551 2.08 187.195 2.173 180.544 C 2.426 162.518 5.185 81.922 4.989 55.731 C 4.878 41.004 3.557 34.234 3.581 26.17 C 3.6 19.941 3.706 14.351 4.519 10.685 C 5.071 8.198 5.862 6.297 6.866 5.289 C 7.605 4.546 8.342 4.434 9.446 4.351 Z M 15.781 35.554 C 15.917 42.872 17.813 45.946 18.127 58.077 C 18.755 82.378 12.613 167.982 14.373 186.644 C 15.038 193.694 17.125 193.906 17.658 197.436 C 18.162 200.781 17.809 203.962 17.658 207.29 C 17.503 210.686 16.719 214.172 16.719 217.613 C 16.719 221.054 17.663 223.216 17.658 227.936 C 17.65 235.301 15.458 248.01 15.312 259.374 C 15.148 272.039 17.07 290.456 17.188 300.666 C 17.269 307.643 16.497 311.907 16.719 316.619 C 16.91 320.662 17.968 323.06 18.127 327.411 C 18.332 333.035 17.206 342.507 17.188 348.057 C 17.175 352.263 17.711 354.685 17.658 358.38 C 17.637 359.808 17.645 361.505 17.619 363.227 C 31.765 362.624 70.617 363.195 89.684 363.307 C 104.761 363.396 116.088 364.119 126.752 363.776 C 135.574 363.492 138.805 362.147 149.744 361.899 C 167.84 361.49 217.015 365.011 230.92 363.776 C 237.205 363.218 237.991 361.068 241.712 360.961 C 242.411 360.941 243.177 360.941 243.976 360.965 C 244.247 355.654 244.775 348.508 244.762 341.019 C 244.738 326.887 242.857 300.547 242.885 287.527 C 242.904 278.793 243.77 275.354 243.824 267.82 C 243.888 258.741 242.824 247.176 242.885 236.382 C 242.949 225.148 244.459 214.002 244.293 201.659 C 244.111 188.186 241.466 171.79 241.477 158.491 C 241.487 146.499 243.87 134.895 243.824 125.176 C 243.784 117.001 242.204 112.473 241.947 103.592 C 241.647 93.251 242.632 74.201 242.847 63.249 C 238.539 65.641 232.828 68.326 227.635 70.042 C 219.09 72.865 208.853 72.713 198.543 75.673 C 189.203 78.354 174.644 85.986 166.276 88.743 C 166.239 88.766 166.203 88.789 166.167 88.811 C 165.035 89.512 164.029 89.678 163.08 89.601 C 162.469 89.711 161.931 89.764 161.475 89.749 C 158.904 89.667 158.247 88.13 157.486 86.7 C 157.249 86.253 157.079 85.691 156.967 85.078 C 156.635 84.11 156.528 83.011 156.853 81.656 C 156.892 81.268 156.948 80.909 157.017 80.6 C 157.307 79.304 157.619 78.658 158.894 77.55 C 158.993 77.464 159.101 77.375 159.215 77.283 C 161.45 74.334 164.849 70.742 167.809 65.584 C 173.384 55.87 184.335 29.638 190.578 17.359 C 187.998 16.975 185.495 16.624 183.528 16.551 C 180.31 16.432 177.728 17.175 175.551 17.02 C 173.849 16.898 173.383 16.14 171.328 16.081 C 167.857 15.982 162.905 17.498 155.375 17.958 C 143.105 18.709 115.058 19.512 100.945 18.897 C 90.68 18.449 82.359 16.021 76.545 16.081 C 72.731 16.121 72.104 17.198 68.099 17.489 C 61.567 17.963 47.273 17.912 39.007 17.489 C 32.268 17.144 26.778 15.605 21.646 15.612 C 20.137 15.614 18.6 15.857 17.122 16.149 C 16.797 21.112 15.66 29.068 15.781 35.554 Z M 47.23 27.12 C 48.371 26.594 50.301 26.65 51.453 27.12 C 52.541 27.562 52.759 28.176 54.034 29.7 C 56.657 32.835 64.856 42.775 67.172 47.531 C 68.729 50.726 69.597 52.43 69.049 55.508 C 68.319 59.612 62.769 65.078 60.603 70.054 C 58.511 74.862 57.869 82.969 56.146 84.834 C 55.269 85.784 54.258 85.521 53.33 85.303 C 52.3 85.061 51.608 84.756 50.28 83.192 C 47.383 79.779 38.844 65.405 37.142 60.669 C 36.25 58.188 36.165 57.826 36.673 55.508 C 37.513 51.671 43.51 43.693 44.65 39.085 C 45.506 35.625 43.962 32.231 44.65 30.17 C 45.148 28.674 46.115 27.634 47.23 27.12 Z" style="fill: rgb(250, 217, 55); stroke: rgb(5, 14, 26); stroke-width: 5px;"/></svg>