<?xml version="1.0" encoding="utf-8"?>
<svg xmlns="http://www.w3.org/2000/svg" viewBox="0 0 260 380" xmlns:bx="https://boxy-svg.com" width="260px" height="380px"><defs><bx:guide x="10" y="10" angle="0"/><bx:guide x="10" y="10" angle="90"/><bx:guide x="250" y="370" angle="0"/><bx:guide x="250" y="370" angle="90"/><bx:export><bx:file format="svg"/></bx:export><bx:guide x="158.55" y="89.294" angle="90"/></defs><rect x="10" y="10" width="240" height="360" style="stroke: rgb(0, 0, 0); fill: rgb(173, 106, 69);"/><path stroke="rgb(255,0,0)" d="M 39.823 9.389 C 41.009 9.076 43.88 8.889 45.453 9.389 C 46.874 9.841 47.607 9.866 48.973 11.97 C 52.247 17.016 59.119 39.314 62.111 48.569 C 64.187 54.992 65.708 59.295 66.334 63.584 C 66.834 67.014 67.129 70.265 66.334 72.5 C 65.687 74.317 64.456 75.714 62.815 76.488 C 60.93 77.377 58.205 77.839 55.307 76.957 C 51.238 75.719 46.643 70.091 40.761 67.104 C 33.774 63.555 20.165 60.396 15.423 57.719 C 12.829 56.255 11.781 55.359 10.965 53.731 C 10.168 52.139 10.248 49.632 10.496 48.1 C 10.637 47.229 10.981 46.411 11.377 45.769 C 7.881 38.828 7.738 21.115 8.15 16.662 C 8.329 14.725 8.882 14.438 9.558 13.612 C 10.22 12.803 10.725 12.476 12.139 11.735 C 14.701 10.393 21.707 7.303 25.277 6.574 C 27.906 6.036 30.093 6.026 31.846 6.574 C 33.334 7.039 34.257 7.318 35.365 9.154 C 35.746 9.785 36.083 10.658 36.396 11.705 C 36.522 11.549 36.65 11.405 36.773 11.266 C 37.243 10.734 37.897 10.648 38.415 10.328 C 38.911 10.021 39.09 9.582 39.823 9.389 Z M 129.444 7.512 C 130.631 7.199 133.502 7.012 135.075 7.512 C 136.496 7.964 137.073 8.43 138.594 10.093 C 141.524 13.295 149.492 26.591 151.263 28.627 C 151.807 29.252 151.665 28.792 152.202 29.331 C 153.689 30.825 160.492 39.34 161.821 40.827 C 162.27 41.33 162.131 41.08 162.525 41.531 C 163.475 42.619 167.148 45.949 168.155 48.569 C 169.138 51.124 169.76 53.921 168.625 57.015 C 167.067 61.261 160.592 67.418 156.659 71.327 C 153.255 74.71 147.953 78.063 146.571 79.538 C 146.01 80.137 146.119 80.386 145.867 80.711 C 145.646 80.997 145.562 81.071 145.163 81.415 C 144.383 82.089 141.713 83.871 140.94 84.7 C 140.493 85.18 141.015 85.113 140.237 85.873 C 137.065 88.97 110.551 110.466 103.637 113.557 C 100.549 114.937 99.316 114.562 97.537 114.026 C 95.811 113.506 93.916 112.112 93.08 110.507 C 92.192 108.804 91.896 106.395 92.61 103.938 C 93.563 100.66 97.465 97.797 100.118 92.676 C 103.881 85.415 108.239 70.776 112.318 62.646 C 115.595 56.115 122.337 52.181 122.172 46.692 C 121.996 40.863 112.442 31.333 109.972 28.627 C 108.875 27.426 108.569 27.955 107.626 26.985 C 106.045 25.358 102.381 20.97 101.526 18.539 C 100.904 16.772 101.24 15.196 101.526 13.847 C 101.776 12.666 102.342 11.466 102.933 10.797 C 103.403 10.265 103.719 10.123 104.576 9.858 C 106.03 9.408 109.841 8.588 111.614 8.92 C 112.962 9.172 113.399 9.578 114.664 10.797 C 115.217 11.33 115.97 12.24 116.811 13.334 C 117.019 13.14 117.213 12.966 117.382 12.811 C 118.037 12.212 118.296 11.895 119.259 11.873 C 120.409 11.847 122.849 12.236 124.931 13.038 C 124.948 12.835 124.968 12.636 124.987 12.439 C 125.118 11.094 125.803 10.059 126.395 9.389 C 126.865 8.857 127.518 8.771 128.037 8.451 C 128.533 8.145 128.711 7.706 129.444 7.512 Z M 46.861 97.603 C 49.026 97.172 53.443 97.656 55.073 99.48 C 56.831 101.448 58.085 104.553 56.48 109.568 C 53.099 120.138 26.009 158.006 18.708 163.294 C 15.882 165.341 14.386 164.3 12.608 163.764 C 10.882 163.243 9.217 162.795 8.15 160.245 C 6.033 155.185 5.521 134.285 6.742 128.807 C 7.346 126.1 8.392 125.714 9.792 124.349 C 11.399 122.783 15.112 121.027 16.127 120.126 C 16.607 119.7 16.525 119.421 16.831 119.187 C 17.146 118.947 17.689 118.959 18.004 118.718 C 18.31 118.485 18.268 118.164 18.708 117.78 C 19.51 117.079 22.109 115.849 23.165 114.964 C 23.949 114.309 23.937 113.786 24.808 113.088 C 26.15 112.01 30.127 110.18 31.142 109.334 C 31.629 108.928 31.34 108.81 31.846 108.395 C 32.958 107.482 38.006 105.085 39.119 104.172 C 39.625 103.757 39.469 103.56 39.823 103.234 C 40.305 102.79 41.452 102.27 41.934 101.826 C 42.288 101.5 42.216 101.301 42.638 100.888 C 43.413 100.13 45.056 97.963 46.861 97.603 Z M 231.735 33.789 C 233.426 33.67 238.345 33.976 239.947 35.666 C 241.541 37.348 241.216 42.542 241.354 43.877 C 241.412 44.434 241.134 44.224 241.354 44.815 C 242.039 46.655 248.509 54.717 249.8 58.423 C 250.705 61.02 250.897 63.131 250.27 64.992 C 249.666 66.783 248.733 67.6 246.281 69.45 C 241.605 72.976 228.171 78.409 220.005 83.996 C 211.916 89.528 202.432 100.432 197.482 102.765 C 194.92 103.972 193.531 103.74 191.851 103.234 C 190.168 102.726 188.23 101.32 187.394 99.715 C 186.506 98.011 186.644 94.848 186.924 93.146 C 187.139 91.845 187.858 90.714 188.332 90.096 C 188.643 89.689 188.743 89.975 189.27 89.392 C 190.831 87.668 198.033 76.804 199.593 75.08 C 200.121 74.498 200.153 74.764 200.532 74.377 C 201.142 73.754 202.268 71.949 202.878 71.327 C 203.257 70.94 203.178 71.343 203.816 70.623 C 206.546 67.542 226.243 38.272 229.858 34.727 C 230.925 33.681 230.765 33.857 231.735 33.789 Z M 86.276 236.963 C 87.967 236.844 92.864 237.047 94.487 238.839 C 96.206 240.737 96.537 243.068 95.895 248.459 C 94.472 260.407 74.717 308.179 75.249 316.496 C 75.428 319.292 77.66 319.322 78.299 320.015 C 78.644 320.389 78.697 320.502 79.003 320.719 C 79.37 320.979 79.94 321.01 80.411 321.423 C 81.034 321.97 81.204 322.885 82.287 324.004 C 84.178 325.955 88.483 328.069 92.141 332.215 C 97.454 338.236 108.173 353.524 110.441 359.195 C 111.602 362.1 111.472 363.584 110.91 365.295 C 110.379 366.913 108.89 368.536 107.391 369.284 C 105.856 370.05 103.542 370.271 101.76 369.753 C 99.852 369.198 98.723 368.271 96.364 365.765 C 96.28 365.676 96.195 365.583 96.108 365.487 C 96.084 366.148 96.017 366.725 95.895 367.172 C 95.351 369.161 94.232 370.347 92.376 371.161 C 89.869 372.259 85.201 371.678 81.114 371.63 C 76.528 371.575 70.055 372.1 66.099 370.691 C 65.813 370.589 65.534 370.487 65.262 370.384 C 65.073 370.494 64.882 370.596 64.692 370.691 C 63.156 371.458 60.741 371.667 59.061 371.161 C 57.377 370.653 56.39 370.339 54.603 367.641 C 50.445 361.36 40.047 333.623 37.242 324.004 C 35.623 318.453 34.305 316.435 35.365 312.273 C 36.68 307.109 45.407 297.516 47.096 295.616 C 47.635 295.009 47.643 295.333 48.034 294.912 C 48.727 294.166 49.979 291.905 50.85 290.923 C 51.515 290.173 51.64 290.728 52.726 289.281 C 56.433 284.345 77.139 246.696 79.941 243.063 C 80.549 242.275 80.459 242.786 80.88 242.359 C 81.671 241.555 83.37 238.777 84.399 237.901 C 85.09 237.313 85.306 237.031 86.276 236.963 Z M 201.705 315.323 C 211.352 317.473 218.926 319.353 222.116 322.831 C 224.337 325.252 224.279 329.002 223.524 331.511 C 222.775 334.002 220.026 335.637 217.659 337.846 C 214.869 340.448 209.833 343.902 207.57 346.057 C 206.07 347.486 205.758 348.313 204.52 349.576 C 203.038 351.089 201.267 352.266 199.124 354.503 C 196.123 357.637 191.203 364.579 188.097 367.407 C 185.947 369.364 184.513 370.459 182.467 371.161 C 180.443 371.855 177.723 371.874 175.898 371.63 C 174.401 371.43 173.499 370.393 172.144 370.222 C 170.698 370.039 168.927 371.135 167.452 370.691 C 165.863 370.214 163.823 368.74 162.994 367.172 C 162.14 365.557 162.013 362.913 162.525 361.072 C 163.035 359.239 165.116 357.087 166.044 356.145 C 166.601 355.58 167.098 355.606 167.452 355.207 C 167.795 354.819 167.709 354.327 168.155 353.799 C 168.836 352.996 170.735 351.632 171.675 350.984 C 172.339 350.526 172.914 350.394 173.317 350.046 C 173.65 349.757 173.589 349.653 174.021 349.107 C 175.038 347.821 181.273 343.88 180.355 341.365 C 179.02 337.707 164.455 333.572 157.129 330.807 C 150.536 328.32 142.779 327.609 138.36 325.177 C 135.493 323.598 133.31 321.674 132.045 319.698 C 131.456 319.173 130.953 318.565 130.618 317.904 C 129.666 316.03 129.686 314.631 130.148 310.396 C 131.173 301.005 139.836 261.317 142.348 256.67 C 143 255.464 143.472 256.052 143.99 255.732 C 144.486 255.425 144.594 254.885 145.398 254.793 C 146.926 254.619 152.089 255.546 153.609 256.67 C 154.662 257.448 154.725 258.192 155.017 259.72 C 155.499 262.24 154.245 266.162 155.017 271.451 C 156.233 279.77 163.237 298.798 164.402 306.642 C 164.588 307.898 164.736 309.02 164.834 310.036 C 178.848 311.576 194.104 313.629 201.705 315.323 Z M 150.09 204.586 C 151.342 204.317 153.664 204.043 156.19 205.055 C 160.193 206.66 170.078 214.67 171.909 216.317 C 172.506 216.853 171.885 216.692 172.613 217.255 C 175.338 219.364 191.685 233.629 202.801 235.764 C 203.363 235.524 203.939 235.296 204.52 235.086 C 207.768 233.912 213.002 232.969 217.866 232.006 C 226.267 227.518 234.66 220.737 238.774 219.601 C 241.733 218.784 242.886 219.193 244.404 219.601 C 245.671 219.942 246.722 220.322 247.454 221.478 C 248.457 223.063 249.385 227.193 248.862 229.22 C 248.417 230.943 246.402 232.209 245.363 233.19 C 245.382 234.07 245.314 234.9 245.164 235.565 C 246.363 235.829 247.786 236.171 248.393 236.963 C 249.699 238.668 250.351 243.061 249.8 245.174 C 249.34 246.94 248.442 247.664 246.281 249.162 C 242.352 251.888 231.883 255.145 224.697 259.016 C 217.179 263.066 207.809 271.123 202.174 273.093 C 198.609 274.339 196.089 274.319 193.728 273.562 C 191.539 272.861 190.666 271.546 188.332 269.104 C 184.343 264.933 173.955 250.439 171.675 248.224 C 170.98 247.549 171.024 248.036 170.502 247.52 C 169.421 246.454 166.655 241.783 165.575 240.716 C 165.052 240.2 165.095 240.659 164.402 240.013 C 162.223 237.981 151.976 226.336 148.917 221.713 C 146.969 218.767 146.135 216.847 145.633 214.674 C 145.206 212.829 145.33 210.955 145.633 209.513 C 145.887 208.299 146.449 207.133 147.04 206.463 C 147.511 205.931 148.164 205.845 148.683 205.525 C 149.178 205.218 149.342 204.747 150.09 204.586 Z M 78.768 160.479 C 80.459 160.361 85.364 160.597 86.98 162.356 C 88.658 164.183 88.973 167.564 88.387 171.506 C 87.504 177.453 82.976 186.199 78.534 195.436 C 72.893 207.167 60.626 230.179 56.011 236.728 C 53.946 239.659 54.577 239.938 51.553 241.186 C 45.302 243.766 19.329 247.11 13.077 245.878 C 10.177 245.306 9.44 243.886 8.619 242.359 C 7.8 240.835 7.901 238.26 8.15 236.728 C 8.352 235.484 8.966 234.348 9.558 233.678 C 10.028 233.146 9.948 233.109 11.2 232.74 C 11.382 232.686 11.609 232.631 11.877 232.574 C 10.302 227.32 9.629 214.914 10.027 211.39 C 10.231 209.584 10.843 209.009 11.435 208.34 C 11.442 208.332 11.45 208.324 11.457 208.316 C 10.424 206.282 11.198 204.391 11.435 202.944 C 11.643 201.67 12.251 200.563 12.842 199.894 C 13.313 199.362 13.644 199.222 14.485 198.955 C 15.874 198.516 18.163 197.371 21.054 198.017 C 25.763 199.07 36.657 209.331 40.761 208.809 C 43.505 208.46 44.437 203.623 45.688 202.24 C 46.465 201.382 46.521 201.832 47.565 200.598 C 50.456 197.181 62.973 177.973 65.865 174.556 C 66.909 173.322 66.827 173.902 67.742 172.914 C 69.6 170.904 74.998 163.09 76.891 161.418 C 77.761 160.65 77.799 160.547 78.768 160.479 Z M 104.575 125.287 C 105.891 124.947 108.005 124.592 111.144 125.287 C 116.735 126.525 130.286 132.108 136.952 135.61 C 142.092 138.311 146.616 141.42 148.917 143.821 C 150.399 145.368 150.848 146.389 151.263 148.044 C 151.732 149.917 152.534 151.518 151.263 154.614 C 148.714 160.823 129.628 176.561 128.271 184.175 C 127.37 189.228 133.084 192.888 133.902 196.374 C 134.533 199.066 134.595 201.52 133.902 203.413 C 133.282 205.105 131.881 206.653 130.383 207.401 C 128.847 208.168 126.432 208.377 124.752 207.87 C 123.068 207.363 122.273 206.377 120.294 204.351 C 116.731 200.704 106.944 190.054 104.81 185.113 C 103.484 182.042 103.566 180.429 104.341 177.605 C 105.367 173.867 110.581 166.867 112.318 164.702 C 113.161 163.65 113.338 163.932 114.194 163.06 C 115.685 161.541 121.21 158.384 120.764 155.552 C 120.166 151.762 108.304 146.287 104.81 142.414 C 102.32 139.654 100.801 137.135 100.118 134.906 C 99.588 133.177 99.832 131.564 100.118 130.214 C 100.368 129.033 100.934 127.833 101.525 127.164 C 101.996 126.632 102.649 126.546 103.168 126.225 C 103.663 125.919 103.811 125.485 104.575 125.287 Z M 207.805 111.68 C 209.057 111.353 210.705 110.982 213.905 111.68 C 220.478 113.114 243.801 120.173 248.393 124.818 C 250.867 127.322 250.324 130.533 249.8 132.56 C 249.453 133.906 248.451 135.111 247.301 135.936 C 248.132 136.948 248.106 137.747 248.393 139.129 C 248.865 141.412 248.581 144.29 248.393 148.045 C 248.131 153.26 248.01 164.306 246.516 168.221 C 246.17 169.129 245.781 169.825 245.345 170.382 C 246.685 171.718 247.742 172.906 248.393 173.852 C 250.484 176.892 250.31 179.375 249.8 181.36 C 249.36 183.077 247.819 184.593 246.281 185.348 C 244.655 186.147 242.985 186.874 240.181 185.817 C 234.766 183.776 221.648 167.374 215.312 166.11 C 211.208 165.291 210.108 168.963 205.459 170.333 C 198.256 172.456 179.495 177.316 174.021 176.433 C 171.28 175.991 170.392 174.481 169.563 172.914 C 168.709 171.299 168.829 168.432 169.094 166.814 C 169.302 165.54 169.91 164.433 170.502 163.764 C 170.972 163.232 171.303 163.694 172.144 162.825 C 174.485 160.407 184.117 144.797 185.986 142.649 C 186.54 142.011 186.408 142.566 186.924 141.945 C 188.537 140.005 196.104 126.758 197.717 124.818 C 198.233 124.197 198.206 124.671 198.655 124.114 C 199.801 122.693 203.318 115.136 204.755 113.557 C 205.437 112.807 205.879 112.938 206.397 112.618 C 206.893 112.312 207.055 111.876 207.805 111.68 Z M 212.966 284.354 C 215.456 283.873 224.111 284.219 230.328 285.293 C 237.363 286.508 249.671 288.564 253.085 291.862 C 255.282 293.984 255.166 297.048 254.493 299.604 C 253.722 302.53 250.061 306.914 247.689 308.285 C 245.873 309.333 244.979 309.25 242.058 308.754 C 236.22 307.763 216.692 300.639 212.028 297.962 C 209.933 296.759 209.58 296.244 208.978 294.912 C 208.307 293.427 208.26 290.813 208.509 289.281 C 208.711 288.037 209.325 286.901 209.916 286.231 C 210.387 285.699 211.04 285.613 211.559 285.293 C 212.054 284.987 211.986 284.544 212.966 284.354 Z" style="stroke: rgb(129, 151, 57); fill: rgb(204, 128, 41); stroke-width: 0px;"/></svg>