<?xml version="1.0" encoding="utf-8"?>
<svg xmlns="http://www.w3.org/2000/svg" viewBox="0 0 260 380" xmlns:bx="https://boxy-svg.com" width="260px" height="380px"><defs><bx:guide x="10" y="10" angle="0"/><bx:guide x="10" y="10" angle="90"/><bx:guide x="250" y="370" angle="0"/><bx:guide x="250" y="370" angle="90"/><bx:export><bx:file format="svg"/></bx:export><bx:guide x="158.55" y="89.294" angle="90"/><bx:guide x="129.602" y="319.401" angle="90"/><bx:guide x="131.881" y="291.86" angle="90"/></defs><path stroke="rgb(255,0,0)" stroke-width="0" opacity="0.9803921568627451" d="M 31.537 300.642 C 32.114 300.692 32.63 300.783 33.103 300.904 C 32.629 299.906 32.266 298.889 31.955 297.923 C 31.248 295.73 30.814 293.063 31.374 291.244 C 31.877 289.607 33.375 288.383 34.713 287.324 C 36.076 286.245 38.525 285.947 39.504 284.856 C 40.332 283.934 40.862 282.25 40.666 281.516 C 40.518 280.959 39.555 281.114 39.214 280.5 C 38.724 279.617 38.366 277.283 38.633 276.144 C 38.853 275.206 39.706 274.425 40.23 273.966 C 40.622 273.624 40.873 273.498 41.392 273.386 C 42.108 273.231 43.301 273.066 44.296 273.386 C 45.469 273.763 47.145 275.076 47.926 275.854 C 48.483 276.409 48.333 276.87 48.942 277.451 C 49.887 278.352 52.635 279.266 53.733 280.5 C 54.703 281.589 55.153 282.715 55.476 284.275 C 55.879 286.224 56.011 289.734 55.476 291.534 C 55.065 292.916 53.73 293.991 53.298 294.583 C 53.073 294.891 52.808 294.953 52.862 295.164 C 52.939 295.466 53.9 295.691 54.314 296.181 C 54.796 296.751 55.236 297.342 55.476 298.504 C 55.706 299.62 55.864 301.803 55.836 303.793 C 56.163 303.779 56.48 303.766 56.787 303.753 C 56.337 302.794 56.086 301.248 56.347 300.246 C 56.624 299.18 57.415 298.327 58.525 297.487 C 59.987 296.38 62.577 295.082 64.913 294.583 C 67.391 294.055 70.769 294.384 73.044 294.583 C 74.875 294.744 76.768 295.851 77.69 295.455 C 78.378 295.159 78.952 294.043 78.706 293.422 C 78.38 292.597 75.843 292.481 74.641 291.244 C 73.147 289.708 71.411 286.285 70.866 284.275 C 70.448 282.736 70.553 281.778 70.866 280.209 C 71.268 278.191 72.794 274.141 73.624 273.095 C 74.033 272.58 74.282 272.625 74.786 272.514 C 75.453 272.369 76.605 272.253 77.399 272.514 C 78.204 272.779 79.1 273.216 79.577 274.111 C 80.214 275.305 80.197 278.473 80.158 279.629 C 80.136 280.283 79.425 280.43 79.868 280.935 C 81.095 282.336 92.7 285.043 95.984 286.743 C 97.918 287.744 98.897 288.376 99.614 289.502 C 100.273 290.537 99.669 292.728 100.34 293.132 C 100.973 293.513 103.281 292.63 103.389 292.115 C 103.494 291.608 101.569 291.135 101.066 290.082 C 100.403 288.698 99.906 285.888 100.485 283.984 C 101.103 281.95 103.945 279.388 104.986 278.322 C 105.563 277.731 105.862 277.784 106.292 277.306 C 106.834 276.704 107.072 275.353 107.89 274.837 C 108.797 274.265 110.633 274.02 111.665 274.257 C 112.562 274.463 113.367 274.973 113.842 275.854 C 114.463 277.003 114.608 279.354 114.423 281.081 C 114.235 282.839 112.513 284.818 112.681 286.308 C 112.829 287.616 113.698 288.429 114.859 289.647 C 116.503 291.372 119.312 293.873 122.409 295.455 C 125.989 297.283 132.453 299.004 135.476 299.52 C 137.201 299.815 138.172 299.614 139.278 299.536 C 139.494 299.308 139.768 299.107 140.122 298.939 C 141.838 298.126 147.024 298.283 149.414 298.358 C 151.137 298.412 153.131 299.097 153.48 298.939 C 153.601 298.885 153.577 298.775 153.48 298.649 C 153.225 298.319 151.452 297.868 150.721 297.052 C 149.908 296.144 149.299 294.818 148.979 293.277 C 148.585 291.382 148.098 288.949 148.979 286.308 C 150.184 282.693 156.013 275.198 157.545 273.676 C 158.117 273.108 158.187 273.207 158.707 273.095 C 159.423 272.94 160.754 272.817 161.61 273.095 C 162.442 273.365 163.318 273.861 163.788 274.692 C 164.359 275.703 164.521 277.529 164.369 279.048 C 164.202 280.71 162.413 283.271 162.627 284.275 C 162.759 284.896 163.131 285.067 163.933 285.291 C 165.513 285.733 170.911 284.732 172.935 285.291 C 174.297 285.667 174.925 286.282 175.694 287.179 C 176.564 288.192 177.393 289.842 177.727 291.244 C 178.05 292.604 176.804 294.654 177.727 295.455 C 178.953 296.518 183.944 294.789 186.293 295.455 C 188.313 296.027 189.548 298.786 191.229 298.649 C 193.074 298.499 196.634 295.449 196.892 293.857 C 197.112 292.498 194.465 291.269 193.988 289.792 C 193.704 288.911 193.631 287.809 193.701 286.814 C 193.455 285.304 193.527 283.609 193.988 282.242 C 194.589 280.461 196.228 278.491 197.618 277.451 C 198.835 276.54 200.375 276.231 201.683 275.999 C 202.884 275.786 204.194 275.689 205.168 275.999 C 206.047 276.279 206.877 276.783 207.346 277.596 C 207.899 278.558 208.179 280.575 207.926 281.661 C 207.713 282.58 207.072 283.234 206.329 283.839 C 205.487 284.526 203.187 284.665 202.99 285.436 C 202.791 286.211 203.944 287.749 205.168 288.485 C 206.799 289.467 210.767 289.095 212.718 289.937 C 214.3 290.621 215.541 291.748 216.347 292.696 C 216.992 293.452 217.275 293.902 217.509 295.019 C 217.782 296.321 217.919 299.049 217.757 301.012 C 220.067 299.716 226.165 298.643 228.253 296.471 C 230.134 294.514 231.471 290.829 230.867 289.066 C 230.322 287.477 226.815 287.192 225.64 286.017 C 224.681 285.058 224.223 284.187 223.897 282.823 C 223.482 281.084 223.447 277.673 223.897 276.144 C 224.211 275.08 224.97 274.425 225.495 273.966 C 225.886 273.624 226.152 273.496 226.656 273.386 C 227.323 273.24 228.475 273.125 229.269 273.386 C 230.074 273.65 230.805 274.248 231.447 274.983 C 232.187 275.828 232.101 277.416 233.335 278.322 C 235.099 279.617 239.974 279.791 242.337 280.935 C 244.26 281.867 245.845 282.892 246.838 284.275 C 247.775 285.582 248.034 287.201 248.29 288.921 C 248.574 290.838 248.996 293.075 248.29 295.309 C 247.66 297.301 245.336 299.994 243.823 302.022 C 245.645 302.102 247.18 302.256 248.183 302.513 C 250.263 303.045 250.958 303.886 251.738 304.945 C 252.129 305.476 252.463 306.108 252.669 306.78 C 253.215 308.166 253.378 309.876 253.608 312.054 C 254.03 316.049 253.696 338.245 253.608 342.724 C 253.539 346.272 253.204 348.332 253.234 351.704 C 253.27 355.67 254.657 361.706 253.983 365.174 C 253.466 367.833 253.093 370.056 250.802 371.348 C 247.45 373.237 238.551 372.044 232.842 372.096 C 227.483 372.145 223.503 371.702 217.501 371.722 C 210.024 371.747 197.619 372.682 190.934 372.47 C 186.253 372.322 184.819 371.534 180.083 371.348 C 173.21 371.077 158.57 371.932 152.395 371.722 C 148.657 371.595 148.231 370.953 144.537 370.974 C 138.527 371.007 127.747 372.871 117.971 373.219 C 106.82 373.615 88.763 372.749 80.928 372.844 C 76.481 372.898 74.047 373.51 71.948 373.219 C 70.559 373.026 70.502 372.336 68.954 372.096 C 66.203 371.67 60.367 371.835 55.484 372.096 C 49.994 372.39 44.108 373.584 37.524 373.967 C 30.06 374.401 17.154 375.389 12.828 374.341 C 10.677 373.82 10.053 372.929 9.274 371.909 C 8.552 370.965 8.486 370.82 8.151 368.541 C 7.219 362.188 4.975 315.286 6.28 307.938 C 6.475 306.839 6.756 306.005 7.078 305.348 C 6.587 302.71 6.351 299.161 6.691 297.342 C 7.049 295.432 8.441 293.859 9.159 293.132 C 9.583 292.703 9.775 292.666 10.321 292.551 C 11.132 292.379 12.832 292.241 13.806 292.551 C 14.685 292.83 15.249 293.414 15.983 294.148 C 16.89 295.052 17.493 297.07 18.742 297.778 C 20.035 298.51 22.436 297.892 23.679 298.358 C 24.652 298.724 25.39 299.161 25.856 299.956 C 25.959 300.131 26.052 300.34 26.135 300.571 C 28.234 300.498 30.132 300.52 31.537 300.642 Z" style="fill-opacity: 1; fill-rule: nonzero; stroke: rgb(5, 14, 26); stroke-dasharray: none; stroke-dashoffset: 0px; stroke-linecap: butt; stroke-linejoin: miter; stroke-miterlimit: 4; stroke-opacity: 1; stroke-width: 5px; paint-order: normal; vector-effect: none; opacity: 1; mix-blend-mode: normal; isolation: auto; fill: rgb(255, 112, 112);"/></svg>