<?xml version="1.0" encoding="utf-8"?>
<svg xmlns="http://www.w3.org/2000/svg" viewBox="0 0 260 380" xmlns:bx="https://boxy-svg.com" width="260px" height="380px"><defs><bx:guide x="10" y="10" angle="0"/><bx:guide x="10" y="10" angle="90"/><bx:guide x="250" y="370" angle="0"/><bx:guide x="250" y="370" angle="90"/><bx:export><bx:file format="svg"/></bx:export><bx:guide x="158.55" y="89.294" angle="90"/></defs><path d="M 8.385 4.574 C 9.003 4.53 9.77 4.358 10.577 4.272 C 11.555 4.117 12.571 4.028 13.509 4.005 C 16.44 3.934 19.368 5.532 23.188 5.713 C 27.957 5.939 33.124 4.502 40.269 4.574 C 50.066 4.674 69.447 8.015 77.847 7.421 C 83.014 7.056 84.321 5.103 88.665 4.574 C 94.137 3.908 100.256 4.458 108.593 4.574 C 120.022 4.735 136.288 5.82 152.434 5.713 C 170.922 5.591 200.005 3.343 213.925 3.436 C 222.486 3.493 226.447 4.714 232.144 4.574 C 237.398 4.446 243.03 2.679 246.948 2.866 C 249.896 3.007 252.711 3.188 254.065 4.574 C 255.162 5.697 255.503 8.085 255.318 9.832 C 256.303 17.538 255.508 31.152 255.204 35.605 C 255.012 38.41 253.976 39.031 254.065 40.729 C 254.155 42.447 255.281 42.504 255.773 45.853 C 257.065 54.65 259.186 94.328 258.05 106.206 C 257.447 112.518 255.299 112.967 254.634 118.162 C 253.701 125.457 254.427 137.945 254.634 147.2 C 254.83 155.928 255.976 168.193 255.773 172.252 C 255.687 173.966 255.281 173.712 255.204 175.099 C 255.072 177.448 255.73 179.901 255.773 185.917 C 255.863 198.651 253.287 239.311 254.065 256.518 C 254.59 268.129 256.643 272.815 257.481 282.709 C 258.469 294.376 259.593 311.396 259.189 322.564 C 258.866 331.516 256.829 337.411 256.342 345.339 C 255.829 353.696 257.638 366.748 256.342 371.529 C 255.659 374.052 254.598 374.995 253.211 375.8 C 252.705 376.093 252.077 376.308 251.412 376.441 C 248.845 377.565 244.984 378.207 241.254 378.646 C 236.023 379.262 228.357 379.128 223.035 378.646 C 218.505 378.236 216.477 376.876 211.078 376.369 C 202.919 375.603 187.413 375.446 176.916 375.799 C 167.464 376.118 160.262 378.071 150.725 378.077 C 139.982 378.084 129.234 375.756 115.425 375.23 C 98.27 374.577 68.479 374.857 54.503 375.23 C 45.766 375.464 42.623 376.322 35.714 376.369 C 30.007 376.408 21.232 376.573 15.091 376.098 C 14.947 376.191 14.8 376.281 14.648 376.369 C 13.275 377.165 11.007 377.386 9.523 376.938 C 8.076 376.501 6.687 376.095 5.822 373.807 C 4.013 369.015 4.794 350.29 5.253 343.061 C 5.55 338.377 6.672 339.048 6.961 332.813 C 7.662 317.693 3.84 248.929 4.114 237.729 C 4.196 234.397 4.56 236.231 4.684 233.174 C 5.041 224.352 3.323 181.875 4.114 168.266 C 4.561 160.584 5.928 159.982 6.392 152.894 C 7.118 141.78 7.032 117.063 6.392 105.067 C 5.945 96.69 4.635 95.199 4.114 85.709 C 3.215 69.327 2.554 17.907 3.545 9.414 C 3.828 6.987 3.94 7.078 4.684 6.283 C 5.49 5.421 6.904 4.679 8.385 4.574 Z M 16.64 82.862 C 17.242 92.361 18.463 93.583 18.918 102.22 C 19.6 115.158 19.676 143.615 18.918 155.74 C 18.449 163.241 17.115 164.019 16.64 171.683 C 15.847 184.484 16.387 218.75 16.64 229.758 C 16.767 235.261 17.141 235.316 17.21 240.006 C 17.316 247.334 16.46 258.192 16.64 271.321 C 16.889 289.383 20.337 330.788 19.487 340.784 C 19.169 344.521 18.145 343.555 17.779 346.477 C 17.385 349.622 17.925 356.518 18.143 362.551 C 26.118 362.829 37.622 363.784 48.24 363.843 C 67.801 363.95 100.045 362.174 119.41 362.704 C 134.335 363.113 146.731 365.743 156.419 365.551 C 163.546 365.409 167.114 363.681 173.5 363.273 C 180.917 362.8 189.11 362.907 198.552 363.273 C 209.736 363.708 227.386 366.406 236.699 366.12 C 239.135 366.045 241.357 365.643 243.344 365.195 C 243.113 358.411 243.574 349.312 243.816 342.492 C 244.19 331.971 246.711 323.367 246.663 310.607 C 246.602 294.203 242.171 271.926 241.539 250.824 C 240.858 228.085 243.404 190.11 243.247 178.515 C 243.182 173.711 242.692 173.359 242.678 170.544 C 242.662 167.502 243.198 165.775 243.247 160.865 C 243.337 151.884 241.374 128.431 242.108 117.024 C 242.647 108.655 245.165 106.246 245.524 97.096 C 245.805 89.934 244.798 78.729 243.726 67.264 C 242.047 67.681 240.337 68.149 239.276 69.212 C 238.184 70.306 237.619 72.403 237.106 74.404 C 238.091 78.387 238.812 82.021 238.137 83.446 C 237.137 85.558 234.148 85.853 232.159 85.439 C 229.876 84.962 227.728 79.683 225.327 79.745 C 222.721 79.812 219.14 84.579 217.071 86.862 C 215.383 88.724 215.055 91.685 213.37 92.271 C 211.655 92.867 207.713 92.133 206.822 90.278 C 205.624 87.783 211.54 77.849 210.238 76.329 C 209.207 75.125 205.457 78.2 202.552 78.606 C 199.21 79.074 194.522 79.696 191.165 78.606 C 187.904 77.547 186.053 74.04 182.624 72.343 C 178.727 70.415 170.068 70.436 168.675 68.073 C 167.603 66.256 168.943 62.051 171.237 60.956 C 173.283 59.98 178.492 61.629 183.18 62.965 C 185.434 62.272 188.458 61.471 189.847 59.662 C 190.822 58.391 191.337 56.09 191.685 53.68 C 189.002 54.255 185.934 55.011 183.763 54.693 C 179.719 54.1 176.042 52.445 172.376 50.138 C 168.327 47.59 162.461 43.339 160.704 39.605 C 159.256 36.529 160.036 32.259 160.704 29.926 C 161.196 28.208 161.998 26.612 163.266 26.225 C 164.717 25.781 167.755 26.742 169.244 28.217 C 170.948 29.906 170.46 34.922 172.376 36.473 C 172.765 36.788 173.235 37.045 173.759 37.248 C 174.831 36.917 176.039 36.6 177.205 36.342 C 177.337 35.951 177.563 35.712 178.001 35.285 C 179 34.309 181.954 33.651 183.468 31.868 C 185.273 29.744 186.658 25.914 187.569 22.755 C 188.114 20.864 188.193 18.248 188.352 16.137 C 167.733 16.713 135.418 18.288 120.549 18.239 C 108.083 18.199 100.232 16.503 93.22 17.1 C 88.128 17.534 85.922 19.427 81.263 19.947 C 75.611 20.578 68.748 20.324 61.335 19.947 C 52.701 19.509 40.772 17.288 32.298 17.1 C 26.728 16.977 21.204 18.404 16.841 18.513 C 17.785 37.203 15.848 70.359 16.64 82.862 Z M 55.087 33.057 C 56.612 32.741 60.114 33.203 61.065 35.05 C 62.42 37.68 57.223 46.803 58.788 50.138 C 60.125 52.99 66.053 52.213 67.897 54.978 C 69.968 58.081 70.853 64.307 69.606 68.642 C 68.248 73.362 63.084 79.608 59.072 82.023 C 55.642 84.087 51.175 84.722 47.685 83.731 C 44.028 82.692 39.641 78.797 37.721 75.475 C 35.925 72.367 34.791 67.655 36.013 64.657 C 37.288 61.528 45.165 59.83 45.692 57.255 C 46.142 55.056 41.855 52.726 41.137 50.423 C 40.493 48.356 40.834 45.72 41.137 44.16 C 41.357 43.029 41.366 42.491 42.276 41.598 C 43.809 40.094 50.01 37.71 51.386 36.758 C 51.969 36.355 51.84 36.304 52.24 35.904 C 52.887 35.257 53.811 33.321 55.087 33.057 Z M 151.346 50.321 C 153.148 49.963 155.956 50.204 157.041 51.233 C 158.055 52.194 158.204 54.825 157.953 56.017 C 157.757 56.944 157.349 57.433 156.358 58.067 C 154.723 59.113 149.351 60.936 147.701 60.801 C 146.807 60.728 146.506 60.33 146.106 59.662 C 145.541 58.718 145.058 56.182 145.195 55.106 C 145.289 54.363 145.507 54.09 146.106 53.511 C 147.077 52.573 149.498 50.689 151.346 50.321 Z" style="fill: rgb(255, 112, 112); stroke-width: 5px; stroke: rgb(5, 14, 26);"/></svg>