<?xml version="1.0" encoding="utf-8"?>
<svg xmlns="http://www.w3.org/2000/svg" viewBox="0 0 260 380" xmlns:bx="https://boxy-svg.com" width="260px" height="380px"><defs><bx:guide x="10" y="10" angle="0"/><bx:guide x="10" y="10" angle="90"/><bx:guide x="250" y="370" angle="0"/><bx:guide x="250" y="370" angle="90"/><bx:export><bx:file format="svg"/></bx:export><bx:guide x="158.55" y="89.294" angle="90"/></defs><rect x="10" y="10" width="240" height="360" style="stroke: rgb(17, 96, 97); fill: rgb(71, 46, 62);"><title>back</title></rect><path stroke="rgb(255,0,0)" d="M 67.613 140.097 C 70.49 139.772 73.158 140.819 74.16 142.09 C 75.012 143.17 74.76 145.243 74.16 146.645 C 73.489 148.214 71.353 149.658 69.89 150.915 C 68.502 152.108 66.612 152.537 65.62 154.047 C 64.508 155.739 63.677 158.431 63.912 160.879 C 64.181 163.69 67.267 167.056 67.897 169.989 C 68.466 172.635 66.872 175.594 67.897 177.675 C 68.935 179.781 72.407 180.39 74.16 182.515 C 76.08 184.842 76.505 189.833 78.715 191.34 C 80.713 192.702 83.537 192.103 86.402 191.91 C 89.777 191.682 95.646 188.538 97.789 189.632 C 99.467 190.489 100.752 193.705 99.782 195.61 C 98.328 198.465 86.542 200.137 84.409 203.581 C 82.718 206.313 85.96 210.783 84.978 213.261 C 84.104 215.468 82.065 217.206 79.569 218.1 C 76.465 219.213 71.304 219.152 67.043 218.1 C 62.31 216.931 54.382 209.684 52.525 210.699 C 51.066 211.495 52.454 215.854 53.663 219.524 C 55.453 224.952 63.09 235.468 64.481 240.59 C 65.355 243.807 65.669 246.426 64.481 247.992 C 63.295 249.557 59.485 250.94 57.364 249.985 C 54.684 248.777 53.867 240.586 50.532 238.597 C 47.214 236.619 39.964 238.993 37.437 238.028 C 35.925 237.451 35.823 236.856 34.874 235.466 C 33.325 233.195 32.519 225.987 29.465 224.363 C 26.275 222.667 18.262 227.47 15.801 226.071 C 13.961 225.026 13.108 221.039 13.784 219.574 C 13.097 219.067 12.517 218.484 12.085 217.801 C 10.306 214.989 11.461 210.227 11.516 205.844 C 11.579 200.855 12.882 194.585 12.655 189.333 C 12.439 184.363 10.211 178 10.377 175.099 C 10.47 173.484 10.593 172.747 11.516 171.967 C 11.825 171.706 12.273 171.456 12.8 171.231 C 11.901 169.697 11.913 167.59 12.1 166.573 C 12.283 165.581 12.673 165.037 14.093 164.58 C 17.232 163.568 30.059 165.87 34.59 164.58 C 37.595 163.724 38.472 162.394 40.568 160.31 C 43.33 157.565 45.325 151.88 49.393 148.638 C 54.014 144.955 63.184 140.599 67.613 140.097 Z M 104.052 175.967 C 105.381 175.303 109.366 176.632 110.03 177.96 C 110.695 179.289 109.366 183.274 108.038 183.938 C 106.709 184.603 102.724 183.274 102.059 181.946 C 101.395 180.617 102.724 176.632 104.052 175.967 Z M 47.685 269.912 C 49.292 269.367 52.411 270.188 53.663 271.905 C 55.284 274.127 53.929 280.6 54.802 283.862 C 55.516 286.528 56.303 288.89 57.934 290.409 C 59.544 291.91 63.056 290.98 64.481 292.972 C 66.347 295.578 65.059 303.076 66.189 306.636 C 67.077 309.432 68.695 311.97 69.89 313.184 C 70.665 313.971 71.112 314.352 72.168 314.323 C 73.817 314.277 77.672 313.144 79.285 311.191 C 81.089 309.007 80.131 302.282 81.847 301.227 C 83.257 300.36 86.434 302.107 87.825 303.22 C 89.051 304.2 89.667 305.423 90.103 307.206 C 90.69 309.608 90.847 314.451 90.103 316.885 C 89.518 318.797 88.893 319.907 86.971 321.155 C 83.977 323.099 75.727 323.717 71.598 325.71 C 68.523 327.194 65.032 328.621 63.718 330.85 C 63.6 332.059 63.465 333.239 63.309 334.371 C 63.834 337.53 65.825 341.586 67.043 342.791 C 68.037 343.774 69.278 343.601 70.46 343.36 C 71.826 343.082 73.42 342.339 74.73 340.798 C 76.566 338.637 77.435 331.332 79.569 330.265 C 81.242 329.428 84.561 330.442 85.548 332.258 C 86.919 334.78 85.185 342.758 83.84 346.492 C 82.743 349.536 81.665 352.226 79 353.609 C 75.689 355.327 67.717 354.449 64.197 354.178 C 61.872 353.999 60.508 352.808 59.072 353.039 C 57.822 353.241 56.819 354.102 55.941 355.032 C 54.985 356.045 53.705 357.37 53.663 359.018 C 53.609 361.143 57.833 365.337 57.08 366.989 C 56.372 368.538 51.946 369.62 49.963 368.982 C 49.586 368.861 49.208 368.654 48.839 368.384 C 48.829 368.389 48.819 368.393 48.809 368.398 C 45.974 369.738 39.533 369.043 34.575 368.967 C 29.311 368.887 21.698 369.213 18.064 367.828 C 15.57 366.878 14.189 365.691 13.224 363.558 C 12.012 360.88 12.425 356.216 12.655 352.171 C 12.907 347.728 14.752 342.632 14.932 337.937 C 15.109 333.334 13.407 327.398 13.793 324.272 C 13.872 323.636 13.968 323.083 14.096 322.592 C 13.638 322.542 13.25 322.446 12.954 322.294 C 11.193 321.39 10.143 317.9 10.961 316.315 C 11.282 315.694 12.264 315.325 13.491 315.027 C 12.165 311.48 11.339 303.201 11.516 300.359 C 11.619 298.71 11.911 298.022 12.655 297.227 C 13.461 296.366 14.814 295.563 16.356 295.519 C 17.43 295.489 19.059 295.583 20.599 296.009 C 22.221 295.397 24.675 294.807 26.619 296.103 C 29.76 298.197 33.703 310.655 35.728 312.045 C 36.565 312.62 37.542 312.244 37.721 311.761 C 37.981 311.059 35.872 309.15 35.444 307.206 C 34.89 304.692 34.416 300.227 35.444 297.526 C 36.418 294.967 39.747 294.227 41.137 291.263 C 42.939 287.422 42.55 279.029 43.984 275.321 C 44.983 272.739 46.053 270.467 47.685 269.912 Z M 151.309 259.094 C 152.784 258.141 156.206 259.484 157.288 261.087 C 158.572 262.99 156.778 268.103 157.288 270.766 C 157.705 272.947 158.241 274.56 159.565 276.175 C 161.092 278.038 164.91 278.234 166.397 281.015 C 168.406 284.77 168.239 293.029 168.105 298.665 C 167.979 304.012 164.307 310.324 165.828 314.038 C 167.174 317.325 172.905 320.542 175.223 320.586 C 176.866 320.617 177.704 319.085 178.923 317.454 C 180.659 315.133 182.917 308.44 184.048 306.921 C 184.534 306.267 184.502 306.58 185.186 306.067 C 186.835 304.831 193.946 300.605 195.435 298.381 C 196.345 297.021 195.969 296.121 196.004 294.68 C 196.048 292.906 194.535 289.793 195.435 288.417 C 196.336 287.04 199.739 285.346 201.413 286.424 C 203.941 288.052 205.991 298.129 206.822 303.22 C 207.534 307.577 208.183 311.311 206.822 315.177 C 205.299 319.502 198.799 324.113 197.143 327.703 C 195.953 330.282 195.817 332.432 196.004 334.535 C 196.179 336.489 196.405 338.38 197.997 339.944 C 200.202 342.11 206.793 345.308 209.954 345.068 C 212.469 344.878 214.387 342.735 215.932 340.798 C 217.583 338.728 220.066 334.73 219.348 332.827 C 218.648 330.971 212.73 331.112 211.946 329.411 C 211.24 327.876 212.02 324.374 213.939 323.433 C 216.815 322.022 227.804 327.431 231.02 326.279 C 233.092 325.538 234.388 323.63 234.152 321.44 C 233.776 317.961 224.863 310.955 223.334 306.636 C 222.207 303.455 222.931 300.799 223.334 298.096 C 223.721 295.496 226.159 292.714 225.611 290.694 C 225.089 288.77 221.729 287.447 220.487 286.139 C 219.566 285.169 219.253 284.336 218.494 283.577 C 217.735 282.818 216.528 282.104 215.932 281.584 C 215.53 281.234 215.622 281.23 215.078 280.73 C 213.73 279.491 207.513 275.589 206.253 273.044 C 205.308 271.136 205.73 268.874 206.253 267.35 C 206.709 266.021 207.552 264.554 208.815 264.219 C 210.374 263.805 214.228 265.207 215.363 266.211 C 216.145 266.904 215.421 267.89 216.217 268.774 C 217.514 270.214 220.968 272.657 224.188 273.329 C 227.968 274.117 233.574 271.14 237.853 272.19 C 242.222 273.261 248.928 277.189 250.094 279.876 C 250.93 281.804 249.962 285.162 248.101 285.855 C 246.71 286.372 243.414 284.982 240.056 283.446 C 241.692 286.314 243.137 290.167 244.386 293.526 C 246.412 298.975 248.724 308.435 248.941 311.746 C 249.043 313.315 248.366 313.079 248.371 314.593 C 248.382 317.555 251.785 325.561 250.649 329.966 C 249.656 333.817 246.103 337.189 243.084 339.885 C 243.239 339.895 243.388 339.91 243.532 339.93 C 246.091 340.277 248.588 341.284 250.079 343.63 C 252.073 346.767 253.155 354.778 252.357 359.003 C 251.679 362.595 248.964 365.993 246.948 367.828 C 245.37 369.265 245.208 369.539 241.824 370.106 C 233.135 371.562 201.562 371.096 182.61 370.675 C 164.632 370.276 138.921 370.081 130.798 367.828 C 130.76 367.817 130.722 367.807 130.684 367.796 C 129.631 368.127 128.438 368.209 127.396 367.843 C 123.726 366.553 116.143 357.718 114.016 352.755 C 112.289 348.726 112.896 343.193 113.447 340.798 C 113.766 339.407 114.491 338.864 115.155 338.236 C 115.745 337.678 116.242 337.782 117.147 337.097 C 118.757 335.88 123.146 332.452 124.264 330.55 C 125.006 329.288 124.907 327.993 124.834 327.133 C 124.781 326.513 124.873 326.411 124.264 325.71 C 122.693 323.899 112.419 318.938 111.169 315.746 C 110.289 313.499 111.609 310.237 113.162 309.198 C 114.814 308.093 118.03 308.609 121.133 309.768 C 125.545 311.415 134.342 321.194 137.075 320.586 C 138.938 320.171 139.536 316.026 139.068 313.469 C 138.494 310.331 133.448 306.831 132.236 303.22 C 131.084 299.79 130.572 296.142 131.666 292.402 C 132.971 287.943 139.314 280.287 141.061 278.453 C 141.752 277.726 142.09 277.904 142.484 277.599 C 142.831 277.33 142.889 277.225 143.338 276.745 C 144.259 275.761 146.91 273.791 148.178 271.336 C 149.76 268.271 149.361 260.353 151.309 259.094 Z M 240.699 177.675 C 243.684 177.567 247.545 178.208 248.386 179.668 C 248.819 180.421 248.72 181.667 248.215 182.929 C 248.733 183.179 249.182 183.504 249.51 183.924 C 251.228 186.126 250.627 191.896 250.649 196.165 C 250.672 200.698 249.446 205.443 249.51 210.399 C 249.578 215.664 252.093 223.261 251.218 226.911 C 250.632 229.355 249.548 230.202 247.517 231.751 C 247.326 231.897 247.118 232.046 246.895 232.199 C 248.161 233.492 249.21 236.106 248.386 237.743 C 247.044 240.408 239.106 243.717 234.436 244.86 C 230.089 245.925 224.577 246.714 221.341 244.86 C 218.165 243.041 218.335 236.157 215.078 234.042 C 211.638 231.809 204.239 233.783 200.844 232.334 C 198.258 231.231 197.056 229.982 195.435 227.495 C 193.189 224.049 190.685 217.372 189.741 212.122 C 188.808 206.931 187.882 198.952 189.741 196.18 C 191.108 194.141 194.556 193.179 196.858 194.187 C 200.027 195.574 202.497 205.435 205.968 207.852 C 208.73 209.774 212.152 209.77 215.078 209.56 C 217.935 209.354 221.919 209.222 223.334 206.713 C 225.271 203.278 220.258 191.909 221.626 187.639 C 222.612 184.561 224.885 183.248 227.604 181.661 C 230.901 179.736 236.988 177.81 240.699 177.675 Z M 209.384 55.262 C 213.653 53.959 217.1 54.153 220.772 55.262 C 224.711 56.452 229.125 61.833 232.159 62.664 C 234.218 63.228 235.307 61.407 237.283 62.095 C 240.208 63.113 245.6 67.745 247.816 70.92 C 249.688 73.6 251.542 77.719 250.663 79.46 C 250.601 79.584 250.525 79.705 250.437 79.823 C 250.714 80.541 250.956 81.483 251.218 82.862 C 253.141 92.978 253.308 139.644 251.218 148.339 C 250.649 150.706 249.961 151.47 249.074 152.037 C 249.119 153.711 248.333 156.32 246.962 157.178 C 244.977 158.422 239.461 155.995 236.714 156.609 C 234.461 157.112 233.121 157.772 231.305 159.74 C 228.582 162.692 225.978 172.127 223.049 174.829 C 221.044 176.678 219.345 176.682 216.786 177.106 C 213.553 177.641 208.5 178.12 204.829 177.106 C 201.2 176.104 195.897 173.51 194.866 171.128 C 194.031 169.2 195.148 165.492 196.858 164.58 C 198.93 163.475 204.925 167.292 207.676 166.858 C 209.797 166.523 211.334 165.169 212.516 163.726 C 213.728 162.247 215.393 159.691 214.793 158.032 C 214.092 156.092 209.729 153.966 207.107 153.193 C 207.054 153.177 207.002 153.162 206.949 153.147 C 206.63 153.409 206.298 153.62 205.954 153.748 C 204.026 154.462 201.215 154.499 199.121 153.748 C 199.065 153.728 199.008 153.707 198.952 153.685 C 197.457 155.002 196.866 157.733 194.581 158.886 C 191.086 160.649 183.098 162.264 179.208 161.164 C 175.991 160.254 172.824 157.041 172.091 154.616 C 171.433 152.439 172.572 148.473 174.084 147.499 C 175.557 146.551 178.573 149.099 180.916 148.638 C 183.583 148.113 186.867 146.165 189.172 143.798 C 191.704 141.197 192.265 136.037 195.15 133.265 C 198.163 130.371 203.557 128.128 207.107 127.002 C 209.948 126.101 213.432 126.981 214.793 126.148 C 215.666 125.614 216.501 124.623 215.932 123.871 C 215.511 123.315 213.863 122.517 211.707 121.727 C 206.828 120.625 201.415 119.683 197.828 119.207 C 195.488 120.014 194.694 122.841 192.303 123.586 C 189.24 124.54 183.904 125.146 180.916 123.586 C 177.922 122.022 175.988 118.209 174.368 114.191 C 172.382 109.262 169.506 98.481 170.952 95.402 C 171.88 93.427 175.319 92.725 176.931 93.41 C 178.739 94.178 178.945 99.403 180.916 100.811 C 182.798 102.156 186.127 102.533 188.318 101.95 C 190.486 101.374 190.902 98.426 194.012 97.395 C 199.108 95.706 215.482 97.492 219.064 96.256 C 220.558 95.741 220.501 95.289 221.056 94.264 C 221.845 92.808 224.006 89.432 222.764 87.716 C 220.929 85.18 209.677 82.458 205.399 83.161 C 202.162 83.693 200.221 86.584 198.282 88.57 C 196.488 90.406 195.793 93.947 194.012 94.548 C 192.336 95.114 189.359 94.636 188.033 92.556 C 185.861 89.146 185.803 74.926 186.894 70.92 C 187.494 68.718 188.13 68.772 190.026 67.219 C 193.544 64.335 203.754 56.981 209.384 55.262 Z M 162.981 15.691 C 165.05 17.657 165.802 20.316 166.397 23.093 C 167.05 26.137 167.32 30.142 166.397 33.342 C 165.457 36.603 161.621 39.308 160.704 42.452 C 159.845 45.394 160.285 48.388 160.704 51.561 C 161.159 55.006 164.401 60.05 163.551 62.379 C 162.877 64.225 160.358 64.943 158.142 65.511 C 155.502 66.187 150.987 66.322 148.462 65.511 C 146.365 64.837 145.177 63.907 143.623 61.81 C 141.31 58.691 139.437 49.21 137.075 46.722 C 135.624 45.193 134.403 44.859 132.52 45.014 C 129.903 45.229 124.184 47.612 122.556 49.853 C 121.213 51.703 121.569 54.143 121.987 56.686 C 122.499 59.799 124.541 64.914 126.257 67.219 C 127.522 68.917 129.223 68.484 130.527 70.35 C 132.512 73.19 134.846 80.1 135.652 84.584 C 136.371 88.587 137.183 93.809 135.652 95.972 C 134.363 97.791 130.773 99.301 128.535 97.965 C 124.967 95.835 122.554 80.064 118.856 76.329 C 116.406 73.854 114.149 74.013 110.884 73.482 C 106.74 72.808 99.791 72.783 95.512 73.482 C 92.002 74.055 87.97 75.394 86.686 76.613 C 85.948 77.315 85.851 77.797 86.117 78.891 C 86.627 80.985 90.201 87.127 92.665 88.855 C 94.582 90.199 96.254 90.248 98.928 89.993 C 102.814 89.624 111.627 83.774 114.301 84.869 C 116.195 85.645 117.254 89.085 116.293 91.417 C 114.833 94.963 105.873 101.165 100.636 103.089 C 96.094 104.757 91.977 104.564 86.971 103.658 C 80.976 102.573 71.535 96.671 67.043 95.687 C 64.402 95.108 62.842 94.584 61.35 95.687 C 59.474 97.074 57.424 102.677 57.649 105.082 C 57.823 106.939 59.445 108.179 60.78 109.352 C 62.172 110.573 63.721 111.922 65.905 112.199 C 68.72 112.556 74.659 108.871 76.723 109.921 C 78.371 110.76 79.586 114.076 78.715 115.899 C 77.522 118.4 71.015 121.326 66.474 122.447 C 61.675 123.632 54.452 123.643 50.532 122.447 C 47.535 121.533 45.835 120.078 43.984 117.608 C 41.657 114.502 40.955 106.862 38.575 104.228 C 36.806 102.269 35.117 101.56 32.312 101.381 C 28.286 101.123 18.604 106.603 15.801 105.366 C 13.915 104.534 13.065 101.084 13.808 99.388 C 14.007 98.933 14.376 98.492 14.869 98.069 C 14.487 97.666 14.147 97.029 13.793 95.957 C 10.879 87.133 11.694 26.566 12.655 17.954 C 12.927 15.515 12.37 15.75 13.793 14.823 C 17.074 12.686 29.721 10.654 40.269 10.268 C 53.635 9.779 77.459 14.471 88.665 14.254 C 95.769 14.116 98.111 12.392 104.038 11.976 C 111.212 11.473 122.166 11.841 129.09 11.976 C 134.524 12.082 138.742 12.816 142.754 12.546 C 146.188 12.314 149.597 10.616 151.864 10.837 C 151.879 10.838 151.893 10.84 151.908 10.841 C 154.042 10.07 160.568 13.399 162.981 15.691 Z M 106.899 128.71 C 110.638 127.895 117.221 128.189 122.272 129.849 C 127.768 131.655 135.581 137.051 138.499 139.813 C 140.205 141.428 140.431 143.248 141.061 144.083 C 141.418 144.557 141.532 144.426 141.915 144.937 C 142.671 145.948 144.741 148.457 145.331 150.631 C 145.966 152.969 146.258 156.125 145.331 158.602 C 144.328 161.28 140.569 162.897 139.068 166.003 C 137.359 169.54 135.437 178.31 136.221 179.099 C 136.776 179.657 138.562 176.752 140.491 175.398 C 143.142 173.538 147.171 170.222 151.309 169.135 C 155.805 167.954 164.014 167.46 166.682 169.135 C 168.55 170.307 169.576 173.064 168.675 175.113 C 167.314 178.21 156.995 181.413 153.871 184.792 C 151.497 187.361 149.954 190.914 149.886 192.764 C 149.842 193.949 150.464 194.534 151.309 195.326 C 152.444 196.388 155.255 196.817 156.718 198.173 C 158.209 199.553 159.512 201.314 160.134 203.581 C 160.886 206.32 161.095 210.146 160.134 213.83 C 158.974 218.279 153.713 226.491 152.448 228.349 C 152.003 229.003 152.24 228.641 151.594 229.203 C 149.522 231.004 140.602 240.574 134.228 243.152 C 128.123 245.622 117.89 245.723 114.301 244.86 C 112.407 244.405 112.001 244.412 111.169 242.298 C 109.115 237.077 106.993 214.301 108.892 203.581 C 110.47 194.668 117.582 187.163 119.14 181.376 C 120.216 177.379 120.164 175.357 119.71 171.697 C 119.154 167.221 117.807 161.52 115.155 156.324 C 112.102 150.346 103.363 142.416 101.49 138.105 C 100.412 135.623 100.14 133.944 100.921 132.411 C 101.769 130.747 104.167 129.306 106.899 128.71 Z M 84.11 275.022 C 86.028 274.872 89.654 275.107 91.227 276.73 C 92.985 278.545 93.914 283.733 93.504 286.125 C 93.183 288.005 91.76 289.591 90.373 290.395 C 89.001 291.191 86.732 291.412 85.249 290.964 C 83.801 290.527 82.504 289.368 81.548 287.833 C 80.363 285.93 79.259 281.838 79.27 279.862 C 79.278 278.489 79.665 277.525 80.409 276.73 C 81.215 275.869 82.592 275.141 84.11 275.022 Z M 184.887 259.08 C 187.11 258.944 192.119 259.743 193.712 261.357 C 195.068 262.731 195.234 265.594 194.851 267.336 C 194.489 268.983 193.282 270.769 191.72 271.606 C 189.931 272.564 186.24 272.76 184.318 272.175 C 182.697 271.682 181.333 270.395 180.617 269.044 C 179.883 267.659 179.889 265.375 180.048 263.92 C 180.181 262.697 180.443 261.583 181.186 260.788 C 181.992 259.926 183.276 259.179 184.887 259.08 Z" style="stroke: rgb(129, 151, 57); stroke-width: 0px; fill: rgb(133, 34, 100);"/><path d="M 8.385 4.574 C 9.003 4.53 9.77 4.358 10.577 4.272 C 11.555 4.117 12.571 4.028 13.509 4.005 C 16.44 3.934 19.368 5.532 23.188 5.713 C 27.957 5.939 33.124 4.502 40.269 4.574 C 50.066 4.674 69.447 8.015 77.847 7.421 C 83.014 7.056 84.321 5.103 88.665 4.574 C 94.137 3.908 100.256 4.458 108.593 4.574 C 120.022 4.735 136.288 5.82 152.434 5.713 C 170.922 5.591 200.005 3.343 213.925 3.436 C 222.486 3.493 226.447 4.714 232.144 4.574 C 237.398 4.446 243.03 2.679 246.948 2.866 C 249.896 3.007 252.711 3.188 254.065 4.574 C 255.162 5.697 255.503 8.085 255.318 9.832 C 256.303 17.538 255.508 31.152 255.204 35.605 C 255.012 38.41 253.976 39.031 254.065 40.729 C 254.155 42.447 255.281 42.504 255.773 45.853 C 257.065 54.65 259.186 94.328 258.05 106.206 C 257.447 112.518 255.299 112.967 254.634 118.162 C 253.701 125.457 254.427 137.945 254.634 147.2 C 254.83 155.928 255.976 168.193 255.773 172.252 C 255.687 173.966 255.281 173.712 255.204 175.099 C 255.072 177.448 255.73 179.901 255.773 185.917 C 255.863 198.651 253.287 239.311 254.065 256.518 C 254.59 268.129 256.643 272.815 257.481 282.709 C 258.469 294.376 259.593 311.396 259.189 322.564 C 258.866 331.516 256.829 337.411 256.342 345.339 C 255.829 353.696 257.638 366.748 256.342 371.529 C 255.659 374.052 254.598 374.995 253.211 375.8 C 252.705 376.093 252.077 376.308 251.412 376.441 C 248.845 377.565 244.984 378.207 241.254 378.646 C 236.023 379.262 228.357 379.128 223.035 378.646 C 218.505 378.236 216.477 376.876 211.078 376.369 C 202.919 375.603 187.413 375.446 176.916 375.799 C 167.464 376.118 160.262 378.071 150.725 378.077 C 139.982 378.084 129.234 375.756 115.425 375.23 C 98.27 374.577 68.479 374.857 54.503 375.23 C 45.766 375.464 42.623 376.322 35.714 376.369 C 30.007 376.408 21.232 376.573 15.091 376.098 C 14.947 376.191 14.8 376.281 14.648 376.369 C 13.275 377.165 11.007 377.386 9.523 376.938 C 8.076 376.501 6.687 376.095 5.822 373.807 C 4.013 369.015 4.794 350.29 5.253 343.061 C 5.55 338.377 6.672 339.048 6.961 332.813 C 7.662 317.693 3.84 248.929 4.114 237.729 C 4.196 234.397 4.56 236.231 4.684 233.174 C 5.041 224.352 3.323 181.875 4.114 168.266 C 4.561 160.584 5.928 159.982 6.392 152.894 C 7.118 141.78 7.032 117.063 6.392 105.067 C 5.945 96.69 4.635 95.199 4.114 85.709 C 3.215 69.327 2.554 17.907 3.545 9.414 C 3.828 6.987 3.94 7.078 4.684 6.283 C 5.49 5.421 6.904 4.679 8.385 4.574 Z M 16.64 82.862 C 17.242 92.361 18.463 93.583 18.918 102.22 C 19.6 115.158 19.676 143.615 18.918 155.74 C 18.449 163.241 17.115 164.019 16.64 171.683 C 15.847 184.484 16.387 218.75 16.64 229.758 C 16.767 235.261 17.141 235.316 17.21 240.006 C 17.316 247.334 16.46 258.192 16.64 271.321 C 16.889 289.383 20.337 330.788 19.487 340.784 C 19.169 344.521 18.145 343.555 17.779 346.477 C 17.385 349.622 17.925 356.518 18.143 362.551 C 26.118 362.829 37.622 363.784 48.24 363.843 C 67.801 363.95 100.045 362.174 119.41 362.704 C 134.335 363.113 146.731 365.743 156.419 365.551 C 163.546 365.409 167.114 363.681 173.5 363.273 C 180.917 362.8 189.11 362.907 198.552 363.273 C 209.736 363.708 227.386 366.406 236.699 366.12 C 239.135 366.045 241.357 365.643 243.344 365.195 C 243.113 358.411 243.574 349.312 243.816 342.492 C 244.19 331.971 246.711 323.367 246.663 310.607 C 246.602 294.203 242.171 271.926 241.539 250.824 C 240.858 228.085 243.404 190.11 243.247 178.515 C 243.182 173.711 242.692 173.359 242.678 170.544 C 242.662 167.502 243.198 165.775 243.247 160.865 C 243.337 151.884 241.374 128.431 242.108 117.024 C 242.647 108.655 245.165 106.246 245.524 97.096 C 245.805 89.934 244.798 78.729 243.726 67.264 C 242.047 67.681 240.337 68.149 239.276 69.212 C 238.184 70.306 237.619 72.403 237.106 74.404 C 238.091 78.387 238.812 82.021 238.137 83.446 C 237.137 85.558 234.148 85.853 232.159 85.439 C 229.876 84.962 227.728 79.683 225.327 79.745 C 222.721 79.812 219.14 84.579 217.071 86.862 C 215.383 88.724 215.055 91.685 213.37 92.271 C 211.655 92.867 207.713 92.133 206.822 90.278 C 205.624 87.783 211.54 77.849 210.238 76.329 C 209.207 75.125 205.457 78.2 202.552 78.606 C 199.21 79.074 194.522 79.696 191.165 78.606 C 187.904 77.547 186.053 74.04 182.624 72.343 C 178.727 70.415 170.068 70.436 168.675 68.073 C 167.603 66.256 168.943 62.051 171.237 60.956 C 173.283 59.98 178.492 61.629 183.18 62.965 C 185.434 62.272 188.458 61.471 189.847 59.662 C 190.822 58.391 191.337 56.09 191.685 53.68 C 189.002 54.255 185.934 55.011 183.763 54.693 C 179.719 54.1 176.042 52.445 172.376 50.138 C 168.327 47.59 162.461 43.339 160.704 39.605 C 159.256 36.529 160.036 32.259 160.704 29.926 C 161.196 28.208 161.998 26.612 163.266 26.225 C 164.717 25.781 167.755 26.742 169.244 28.217 C 170.948 29.906 170.46 34.922 172.376 36.473 C 172.765 36.788 173.235 37.045 173.759 37.248 C 174.831 36.917 176.039 36.6 177.205 36.342 C 177.337 35.951 177.563 35.712 178.001 35.285 C 179 34.309 181.954 33.651 183.468 31.868 C 185.273 29.744 186.658 25.914 187.569 22.755 C 188.114 20.864 188.193 18.248 188.352 16.137 C 167.733 16.713 135.418 18.288 120.549 18.239 C 108.083 18.199 100.232 16.503 93.22 17.1 C 88.128 17.534 85.922 19.427 81.263 19.947 C 75.611 20.578 68.748 20.324 61.335 19.947 C 52.701 19.509 40.772 17.288 32.298 17.1 C 26.728 16.977 21.204 18.404 16.841 18.513 C 17.785 37.203 15.848 70.359 16.64 82.862 Z M 55.087 33.057 C 56.612 32.741 60.114 33.203 61.065 35.05 C 62.42 37.68 57.223 46.803 58.788 50.138 C 60.125 52.99 66.053 52.213 67.897 54.978 C 69.968 58.081 70.853 64.307 69.606 68.642 C 68.248 73.362 63.084 79.608 59.072 82.023 C 55.642 84.087 51.175 84.722 47.685 83.731 C 44.028 82.692 39.641 78.797 37.721 75.475 C 35.925 72.367 34.791 67.655 36.013 64.657 C 37.288 61.528 45.165 59.83 45.692 57.255 C 46.142 55.056 41.855 52.726 41.137 50.423 C 40.493 48.356 40.834 45.72 41.137 44.16 C 41.357 43.029 41.366 42.491 42.276 41.598 C 43.809 40.094 50.01 37.71 51.386 36.758 C 51.969 36.355 51.84 36.304 52.24 35.904 C 52.887 35.257 53.811 33.321 55.087 33.057 Z M 151.346 50.321 C 153.148 49.963 155.956 50.204 157.041 51.233 C 158.055 52.194 158.204 54.825 157.953 56.017 C 157.757 56.944 157.349 57.433 156.358 58.067 C 154.723 59.113 149.351 60.936 147.701 60.801 C 146.807 60.728 146.506 60.33 146.106 59.662 C 145.541 58.718 145.058 56.182 145.195 55.106 C 145.289 54.363 145.507 54.09 146.106 53.511 C 147.077 52.573 149.498 50.689 151.346 50.321 Z" style="fill: rgb(255, 112, 112); stroke-width: 5px; stroke: rgb(5, 14, 26);"/></svg>