<?xml version="1.0" encoding="utf-8"?>
<svg xmlns="http://www.w3.org/2000/svg" viewBox="0 0 260 380" xmlns:bx="https://boxy-svg.com" width="260px" height="380px"><defs><bx:guide x="10" y="10" angle="0"/><bx:guide x="10" y="10" angle="90"/><bx:guide x="250" y="370" angle="0"/><bx:guide x="250" y="370" angle="90"/><bx:guide x="125.517" y="273.529" angle="90"/><bx:guide x="124.06" y="232.004" angle="90"/><bx:export><bx:file format="svg" path="Untitled 2.svg"/></bx:export></defs><path d="M 253.627 264.96 C 253.009 267.529 251.293 268.681 250 269.545 C 248.855 270.311 246.609 270.07 245.486 268.575 C 245.107 268.576 244.73 268.559 244.364 268.534 C 242.803 268.425 240.608 266.812 239.595 267.066 C 238.88 267.246 238.606 267.817 238.312 268.717 C 237.825 270.206 238.748 274.076 237.945 276.053 C 237.218 277.842 235.485 279.249 234.093 280.272 C 232.836 281.196 231.825 281.754 230.058 282.106 C 227.658 282.584 223.914 283.12 220.521 282.106 C 216.377 280.868 209.357 276.605 207.132 273.853 C 205.65 272.019 205.556 269.874 205.665 268.35 C 205.754 267.104 206.123 266.023 207.132 265.232 C 208.474 264.181 211.961 263.229 213.918 263.398 C 215.615 263.545 217.239 265.524 218.32 265.599 C 219.044 265.65 219.433 265.461 219.971 264.866 C 220.461 264.322 220.705 263.171 221.092 261.931 C 221.089 261.628 221.083 261.321 221.071 261.014 C 221.011 259.513 220.992 257.491 221.099 255.706 C 220.899 255.697 220.706 255.693 220.521 255.695 C 219.029 255.71 217.915 256.34 216.791 256.475 C 214.726 258.01 212.814 258.565 210.617 258.996 C 208.322 259.446 205.492 259.413 203.28 258.996 C 201.25 258.614 199.797 258.068 197.778 256.796 C 195.106 255.111 190.24 251.399 188.791 248.909 C 187.754 247.126 187.858 245.222 188.058 243.774 C 188.227 242.544 188.555 241.449 189.525 240.656 C 190.761 239.644 193.573 238.873 195.577 238.821 C 197.546 238.771 199.926 240.474 201.446 240.289 C 202.626 240.145 203.163 239.752 204.198 238.638 C 205.985 236.714 207.696 230.362 210.617 227.817 C 213.435 225.361 217.655 223.946 221.255 223.415 C 224.75 222.899 227.648 223.003 231.892 224.516 C 237.977 226.684 246.784 231.686 250 235.421 C 251.331 236.966 253.439 240.525 253.386 241.82 C 254.165 246.688 254.679 260.59 253.627 264.96 Z" style="fill: rgb(255, 112, 112); stroke: rgb(5, 14, 26); stroke-width: 5px;"/></svg>