<?xml version="1.0" encoding="utf-8"?>
<svg xmlns="http://www.w3.org/2000/svg" viewBox="0 0 260 380" xmlns:bx="https://boxy-svg.com" width="260px" height="380px"><defs><bx:guide x="10" y="10" angle="0"/><bx:guide x="10" y="10" angle="90"/><bx:guide x="250" y="370" angle="0"/><bx:guide x="250" y="370" angle="90"/><bx:guide x="125.517" y="273.529" angle="90"/><bx:guide x="124.06" y="232.004" angle="90"/><bx:export><bx:file format="svg" path="Untitled 2.svg"/><bx:file format="svg" href="#object-0"/></bx:export></defs><path d="M 248.766 235.52 C 250.434 235.432 253.141 235.92 254.452 237.354 C 255.964 239.009 256.192 242.113 256.652 245.608 C 257.267 250.27 257.983 259.75 257.069 263.742 C 257.065 263.941 257.049 264.134 257.019 264.315 C 256.745 265.968 255.338 268.014 253.901 268.9 C 252.464 269.787 250.254 270.081 248.399 269.634 C 247.438 269.402 246.28 268.757 245.186 268.009 C 244.909 271.209 244.478 275.438 243.447 278.254 C 242.448 280.986 241.264 283.724 239.229 285.04 C 237.178 286.367 233.877 286.78 231.159 286.141 C 228.077 285.416 223.701 282.181 221.805 280.088 C 220.401 278.54 220.081 277.613 219.604 275.32 C 219.499 274.813 219.405 274.194 219.323 273.495 C 218.781 274.255 218.208 274.943 217.586 275.503 C 214.821 277.995 210.727 279.815 208.049 280.639 C 206.061 281.251 204.716 281.572 202.914 281.005 C 200.669 280.3 197.067 278.014 195.761 275.687 C 194.481 273.406 194.616 270.006 195.027 267.25 C 195.446 264.44 196.476 261.184 198.328 258.996 C 200.228 256.753 206.261 256.172 206.398 254.044 C 206.555 251.612 198.564 248.184 196.861 244.874 C 195.387 242.007 195.364 238.131 195.761 235.704 C 196.075 233.779 196.948 232.354 198.145 231.118 C 199.409 229.814 201.232 228.61 203.281 228.184 C 205.645 227.692 209.151 228.096 211.717 228.917 C 214.212 229.717 216.571 231.039 218.503 232.952 C 219.039 233.482 219.557 234.095 220.052 234.76 C 220.136 232.64 220.353 230.644 220.704 229.101 C 221.666 224.877 224.502 220.698 226.573 218.647 C 228.044 217.191 229.476 216.767 231.159 216.446 C 232.942 216.105 235.468 216.251 237.028 216.812 C 238.354 217.29 239.198 217.956 240.146 219.197 C 241.409 220.85 242.831 223.471 243.447 226.533 C 244.046 229.514 243.87 234.579 243.646 238.284 C 243.822 238.23 244.003 238.186 244.187 238.153 C 244.384 237.88 244.622 237.643 244.914 237.354 C 245.807 236.471 247.308 235.597 248.766 235.52 Z" style="fill: rgb(148, 191, 48); stroke: rgb(5, 14, 26); stroke-width: 5px;" id="object-0"/></svg>