<?xml version="1.0" encoding="utf-8"?>
<svg xmlns="http://www.w3.org/2000/svg" viewBox="0 0 260 380" xmlns:bx="https://boxy-svg.com" width="260px" height="380px"><defs><bx:guide x="10" y="10" angle="0"/><bx:guide x="10" y="10" angle="90"/><bx:guide x="250" y="370" angle="0"/><bx:guide x="250" y="370" angle="90"/><bx:export><bx:file format="svg"/></bx:export></defs><path d="M 117.75 4.575 C 124.263 4.239 131.638 5.362 134.849 5.165 C 136.451 5.066 135.415 4.673 137.797 4.575 C 147.277 4.187 213.588 8.884 232.726 8.113 C 243.042 7.697 248.71 4.556 252.773 5.165 C 255.124 5.517 256.264 6.566 257.196 7.818 C 258.106 9.04 258.603 11.028 258.375 12.535 C 258.338 12.777 258.297 13.023 258.246 13.269 C 258.301 13.829 258.33 14.534 258.375 15.483 C 258.71 22.545 255.009 45.656 254.837 60.294 C 254.67 74.531 257.525 89.402 257.196 102.157 C 256.902 113.527 254.343 123.098 253.658 133.407 C 252.985 143.535 252.893 154.88 253.068 163.478 C 253.212 170.529 254.135 173.99 254.247 181.757 C 254.405 192.628 252.842 214.357 253.068 224.209 C 253.212 230.46 254.163 233.435 254.247 237.771 C 254.327 241.866 253.707 244.724 253.658 249.563 C 253.593 256.009 254.503 269.72 254.247 273.738 C 254.136 275.483 253.77 274.931 253.658 276.686 C 253.397 280.766 254.297 292.194 254.247 301.45 C 254.19 312.268 253.052 326.19 253.068 338.007 C 253.084 349.353 255.381 365.378 254.247 371.025 C 253.708 373.712 252.898 374.512 251.594 375.448 C 250.263 376.403 247.845 376.921 246.288 376.627 C 245.936 376.56 245.59 376.518 245.254 376.456 C 237.95 377.927 223.478 378.372 218.575 377.806 C 215.42 377.441 216.272 375.994 212.679 375.448 C 204.47 374.198 172.681 375.21 162.561 375.448 C 157.119 375.575 158.01 376.013 151.948 376.037 C 138.544 376.092 91.238 372.68 74.707 373.679 C 65.124 374.258 63.647 376.41 55.25 377.216 C 43.359 378.358 14.851 379.883 8.08 378.396 C 5.397 377.806 5.083 376.955 4.247 375.742 C 3.397 374.509 2.84 372.532 3.068 371.025 C 3.116 370.709 3.15 370.385 3.196 370.06 C 2.727 364.825 3.035 357.169 3.068 349.209 C 3.136 332.99 5.887 297.953 6.016 284.351 C 6.089 276.713 5.461 274.902 5.427 269.021 C 5.385 261.897 6.566 249.617 6.016 244.257 C 5.69 241.075 4.714 241.899 4.247 237.771 C 3.054 227.222 2.995 191.836 3.068 167.606 C 3.145 142.195 4.778 113.265 4.837 88.596 C 4.891 65.967 3.558 37.801 3.658 24.917 C 3.711 17.974 3.392 14.477 4.247 11.356 C 4.828 9.236 5.847 7.861 6.901 6.933 C 7.769 6.17 8.634 5.702 9.849 5.754 C 11.008 5.804 12.952 6.037 14.465 6.926 C 15.567 6.651 16.634 6.451 17.514 6.344 C 19.704 6.078 20.57 6.897 23.41 6.933 C 28.197 6.995 36.81 5.681 45.226 5.754 C 55.508 5.844 75.343 8.207 81.193 8.113 C 83.662 8.073 83.837 7.542 85.321 7.523 C 86.958 7.503 87.854 8.193 90.627 8.113 C 95.958 7.958 109.892 4.98 117.75 4.575 Z M 240.096 317.959 C 239.989 303.365 241.456 285.254 241.276 278.455 C 241.195 275.402 240.771 275.777 240.686 273.148 C 240.537 268.53 241.309 257.782 241.276 251.332 C 241.247 245.817 240.573 240.013 240.686 236.591 C 240.758 234.416 241.211 234.407 241.276 231.874 C 241.405 226.834 240.132 214.829 240.096 205.341 C 240.058 194.915 241.327 181.94 241.276 171.733 C 241.231 162.698 239.947 157.78 240.096 146.969 C 240.315 131.189 244.143 101.359 244.224 83.29 C 244.236 80.576 244.154 77.983 244.013 75.484 C 243.459 76.972 242.925 78.247 242.455 79.162 C 241.042 81.912 239.989 82.959 238.033 84.174 C 235.87 85.517 232.163 86.893 229.778 86.532 C 227.607 86.205 225.467 84.193 224.177 82.7 C 223.046 81.391 223.112 78.282 222.113 78.278 C 220.845 78.272 219.072 83.682 216.806 85.353 C 214.548 87.018 210.68 88.513 208.552 88.301 C 206.898 88.137 205.572 87.137 204.719 85.648 C 203.613 83.717 203.361 80.069 203.54 76.804 C 203.549 76.638 203.566 76.464 203.589 76.284 C 201.178 78.371 198.423 80.385 195.542 81.405 C 191.091 82.981 184.747 83.244 180.506 82.317 C 176.806 81.507 172.906 79.858 171.165 77.077 C 169.324 74.134 169.509 68.706 170.254 64.775 C 171.007 60.805 176.64 56.205 175.722 53.384 C 174.827 50.636 167.804 50.174 165.242 47.916 C 163.027 45.964 161.515 43.543 160.686 41.082 C 159.875 38.675 159.423 36.196 160.23 33.336 C 161.276 29.627 165.005 23.201 168.204 20.806 C 168.688 20.443 169.177 20.15 169.676 19.909 C 146.666 18.822 120.284 17.489 108.905 18.136 C 100.3 18.626 98.689 20.572 92.986 21.084 C 86.774 21.642 81.202 21.334 72.938 21.084 C 61.838 20.749 40.39 18.615 31.075 18.726 C 25.456 18.793 21.389 20.057 19.283 19.905 C 18.278 19.833 18.367 19.306 17.514 19.315 C 17.431 19.316 17.343 19.324 17.248 19.337 C 17.207 21.4 17.161 23.663 17.219 26.096 C 17.532 39.319 16.469 66.894 16.629 83.879 C 16.766 98.294 17.857 108.47 17.809 122.205 C 17.756 137.351 16.059 151.102 16.04 171.143 C 16.015 197.775 18.994 253.826 18.988 270.79 C 18.985 278.296 18.449 278.409 18.398 283.761 C 18.331 290.948 19.171 299.453 18.988 310.884 C 18.78 323.856 18.279 351.033 17.006 365.09 C 28.218 364.62 44.162 365.123 52.302 364.245 C 60.849 363.322 62.221 361.308 72.349 360.707 C 90.53 359.629 134.863 362.839 160.203 363.066 C 181.186 363.253 205.751 361.333 215.038 362.476 C 219.219 362.991 218.749 364.448 222.113 364.834 C 226.115 365.294 234.842 363.885 240.861 363.539 C 239.946 350.661 240.186 330.168 240.096 317.959 Z M 42.15 32.749 C 43.972 32.416 50.392 31.473 53.943 32.749 C 57.586 34.059 61.684 38.003 63.672 40.709 C 65.235 42.839 65.569 44.322 66.03 47.195 C 66.684 51.268 67.232 59.888 66.03 63.705 C 65.171 66.434 63.814 67.99 61.608 69.306 C 59.588 70.511 56.309 71.383 53.238 71.629 C 55.225 75.267 57.36 81.721 56.596 83.752 C 55.94 85.497 52.529 86.041 50.995 85.816 C 49.663 85.619 48.782 84.375 47.752 83.162 C 46.496 81.684 44.797 79.357 44.214 77.266 C 43.645 75.224 43.79 72.254 44.214 70.78 C 44.232 70.716 44.252 70.654 44.274 70.593 C 42.278 69.982 40.493 69.088 39.497 67.832 C 37.51 65.326 37.786 59.37 38.318 56.629 C 38.707 54.624 39.502 53.538 40.971 52.207 C 42.857 50.498 48.647 49.824 49.521 47.785 C 50.298 45.971 48.766 42.481 47.162 41.004 C 45.493 39.467 40.398 40.388 39.497 38.94 C 38.703 37.664 40.339 34.233 40.971 33.339 C 41.321 32.845 41.392 32.888 42.15 32.749 Z" style="fill: rgb(148, 191, 48); stroke: rgb(5, 14, 26); stroke-width: 5px;"><title>outline</title></path></svg>