<?xml version="1.0" encoding="utf-8"?>
<svg xmlns="http://www.w3.org/2000/svg" viewBox="0 0 260 380" xmlns:bx="https://boxy-svg.com" width="260px" height="380px"><defs><bx:guide x="10" y="10" angle="0"/><bx:guide x="10" y="10" angle="90"/><bx:guide x="250" y="370" angle="0"/><bx:guide x="250" y="370" angle="90"/><bx:guide x="125.517" y="273.529" angle="90"/><bx:guide x="124.06" y="232.004" angle="90"/><bx:export><bx:file format="svg" path="Untitled 2.svg"/></bx:export></defs><path d="M 4.649 266.883 C 2.732 262.631 3.236 245.456 3.915 241.206 C 4.065 240.265 4.226 239.69 4.448 239.251 C 4.418 238.481 4.481 237.659 4.649 236.804 C 5.278 233.599 9.304 228.191 10.518 225.066 C 11.388 222.828 11.714 221.759 11.985 219.564 C 12.324 216.824 11.535 211.924 11.985 209.659 C 12.281 208.175 12.633 207.352 13.453 206.542 C 14.345 205.659 15.847 204.785 17.304 204.707 C 18.972 204.619 21.502 205.047 22.99 206.542 C 24.846 208.407 25.802 212.948 26.658 216.262 C 27.508 219.552 25.683 225.42 28.125 226.35 C 31.628 227.683 45.267 217.118 50.684 215.345 C 54.076 214.236 55.706 213.726 58.388 214.245 C 61.477 214.842 66.161 217.519 68.108 219.564 C 69.589 221.118 69.939 222.885 70.309 224.699 C 70.687 226.549 71.006 228.525 70.309 230.568 C 69.457 233.068 67.65 236.271 64.624 238.455 C 60.709 241.279 48.262 243.355 47.2 244.691 C 46.841 245.142 47.186 245.28 47.75 245.791 C 49.282 247.177 59.279 251.962 60.772 253.127 C 61.261 253.509 61.009 253.549 61.322 253.861 C 61.859 254.396 63.166 254.829 64.073 256.062 C 65.442 257.922 67.514 262.433 68.108 265.049 C 68.579 267.121 68.657 268.837 68.108 270.551 C 67.539 272.332 66.14 274.371 64.624 275.503 C 63.133 276.616 61.2 277.011 59.121 277.337 C 56.749 277.709 54.003 277.859 51.051 277.337 C 47.565 276.721 40.763 272.237 39.497 273.302 C 38.395 274.229 41.646 278.836 42.064 281.556 C 42.464 284.152 42.786 286.951 42.064 289.259 C 41.355 291.527 40.033 293.982 37.846 295.311 C 35.265 296.88 30.131 297.936 26.841 297.145 C 23.6 296.366 20.406 293.324 18.221 290.726 C 16.112 288.218 14.798 285.011 13.819 281.923 C 12.842 278.836 13.811 274.351 12.352 272.202 C 11.105 270.365 7.538 270.491 6.483 269.084 C 6.452 269.043 6.423 269.001 6.394 268.959 C 5.71 268.511 5.09 267.862 4.649 266.883 Z" style="fill: rgb(148, 191, 48); stroke: rgb(5, 14, 26); stroke-width: 5px;"/></svg>