<?xml version="1.0" encoding="utf-8"?>
<svg xmlns="http://www.w3.org/2000/svg" viewBox="0 0 260 380" xmlns:bx="https://boxy-svg.com" width="260px" height="380px"><defs><bx:guide x="10" y="10" angle="0"/><bx:guide x="10" y="10" angle="90"/><bx:guide x="250" y="370" angle="0"/><bx:guide x="250" y="370" angle="90"/><bx:export><bx:file format="svg"/></bx:export><bx:guide x="158.55" y="89.294" angle="90"/><bx:guide x="129.602" y="319.401" angle="90"/><bx:guide x="131.881" y="291.86" angle="90"/></defs><path stroke="rgb(255,0,0)" stroke-width="0" opacity="0.9921568627450981" d="M 11.411 300.846 C 11.812 300.815 12.298 300.826 12.823 300.879 C 15.432 300.633 19.09 300.778 22.155 300.846 C 26.167 300.935 31.082 301.845 34.642 301.717 C 35.012 301.704 35.354 301.679 35.675 301.646 C 34.568 300.669 33.539 299.645 32.754 298.668 C 30.95 296.42 29.611 293.605 28.979 291.409 C 28.463 289.613 28.43 287.869 28.689 286.472 C 28.911 285.273 29.2 284.345 30.141 283.423 C 31.402 282.189 34.367 280.73 36.384 280.229 C 38.177 279.783 39.937 279.739 41.611 280.229 C 43.381 280.747 45.808 282.594 46.693 283.423 C 47.183 283.882 47.015 284.117 47.419 284.585 C 48.045 285.31 50.087 286.827 50.468 287.343 C 50.626 287.558 50.476 287.763 50.613 287.779 C 50.859 287.807 51.871 287.003 52.21 286.617 C 52.465 286.326 52.288 286.128 52.646 285.746 C 53.398 284.942 56.984 282.722 57.727 282.116 C 58.022 281.877 57.78 281.913 58.163 281.681 C 59.486 280.879 67.441 276.909 70.649 276.164 C 72.834 275.656 74.386 275.811 75.876 276.164 C 77.183 276.473 78.338 276.987 79.216 277.906 C 80.173 278.908 80.892 280.512 81.248 282.116 C 81.645 283.901 81.793 286.418 81.248 288.214 C 80.728 289.93 79.996 291.02 78.199 292.715 C 76.027 294.765 71.085 297.884 67.083 300.287 C 72.684 300.55 79.54 301.541 84.434 302.026 C 84.076 300.109 83.995 297.893 84.152 296.636 C 84.325 295.255 84.836 294.378 85.604 293.587 C 86.407 292.76 87.58 291.958 88.943 291.844 C 90.638 291.703 93.926 292.589 95.187 293.587 C 96.158 294.355 96.368 295.36 96.639 296.636 C 96.922 297.972 97.099 300.091 96.853 301.758 C 100.055 301.881 103.922 302.127 106.366 302.008 C 109.093 301.874 111.344 300.956 113.045 301.137 C 114.297 301.269 114.598 302.065 115.949 302.298 C 116.38 302.372 116.932 302.435 117.553 302.484 C 117.551 302.471 117.548 302.457 117.546 302.443 C 117.277 300.868 117.141 296.838 117.279 293.83 C 116.759 292.896 116.293 291.911 115.659 291.263 C 114.739 290.324 113.49 290.02 112.61 289.231 C 111.755 288.465 110.997 287.143 110.432 286.617 C 110.079 286.289 109.986 286.426 109.561 286.037 C 108.662 285.215 105.893 282.836 105.06 280.955 C 104.275 279.185 104.231 276.711 104.479 275.147 C 104.678 273.891 105.12 272.922 105.931 272.098 C 106.833 271.182 108.32 270.426 109.851 270.066 C 111.593 269.655 113.947 269.507 115.949 270.066 C 118.114 270.67 120.884 274.108 122.337 273.841 C 123.485 273.63 123.224 271.434 124.515 270.356 C 126.339 268.834 130.823 266.884 133.372 266.291 C 135.359 265.828 137.047 265.848 138.599 266.291 C 140.078 266.712 141.613 267.779 142.519 268.759 C 143.305 269.609 143.699 270.427 143.971 271.663 C 144.321 273.252 144.366 275.702 143.971 277.761 C 143.549 279.957 142.697 282.355 141.358 284.44 C 139.916 286.684 137.525 288.871 135.405 290.683 C 133.833 292.026 131.677 293.218 130.108 294.266 C 130.249 296.352 130.268 298.826 130.056 300.712 C 130.727 300.749 131.445 300.807 132.21 300.846 C 134.704 300.974 139.056 301.861 141.212 301.717 C 142.655 301.621 142.526 301.06 144.407 300.846 C 144.418 300.845 144.429 300.844 144.439 300.842 C 144.421 300.112 144.46 299.373 144.552 298.668 C 144.881 296.15 146.4 292.266 147.746 290.683 C 148.714 289.545 149.722 289.054 151.085 288.94 C 152.78 288.8 156.052 289.394 157.329 290.683 C 158.553 291.919 158.847 294.296 158.78 296.345 C 158.744 297.473 158.417 298.858 157.981 300.195 C 161.944 300.126 165.783 300.16 168.117 300.386 C 169.105 300.262 170.362 300.176 171.785 300.118 C 171.706 300.021 171.63 299.925 171.557 299.83 C 169.796 297.544 168.995 294.952 168.363 292.28 C 167.715 289.54 167.441 285.63 167.782 283.568 C 168.016 282.158 168.279 281.289 169.234 280.519 C 170.452 279.538 173.476 278.561 175.187 278.777 C 176.71 278.969 178.054 280.358 179.107 281.245 C 180.026 282.019 180.802 284.066 181.285 283.714 C 182.064 283.145 181.189 275.22 181.721 272.824 C 182.053 271.325 182.404 270.566 183.173 269.775 C 183.975 268.949 185.168 268.138 186.512 268.033 C 188.153 267.905 191.247 268.793 192.465 269.775 C 193.42 270.545 193.619 271.319 193.917 272.824 C 194.396 275.241 194.018 281.42 193.917 283.859 C 193.856 285.319 193.309 286.611 193.626 286.908 C 193.869 287.134 194.52 286.849 195.078 286.327 C 196.124 285.349 198.151 280.897 198.998 279.939 C 199.384 279.502 199.376 279.556 199.87 279.358 C 200.797 278.986 203.368 278.032 204.806 278.196 C 206.083 278.342 207.343 279.112 208.145 279.939 C 208.914 280.73 209.337 281.788 209.597 282.988 C 209.9 284.384 209.767 285.989 209.597 287.924 C 209.383 290.366 209.11 294.387 208.145 296.636 C 207.417 298.334 206.456 299.467 205.148 300.566 C 205.524 300.534 205.893 300.526 206.258 300.556 C 207.775 300.682 208.703 301.503 210.323 301.717 C 212.335 301.983 214.533 301.835 217.583 301.717 C 220.327 301.612 224.994 301.064 228.825 300.751 C 227.783 299.64 226.881 298.439 226.44 297.216 C 226.002 296.003 225.937 294.6 226.149 293.441 C 226.352 292.334 226.833 291.184 227.601 290.392 C 228.404 289.566 229.785 288.886 230.941 288.65 C 232.062 288.421 233.377 288.569 234.425 288.94 C 235.454 289.305 236.223 289.877 237.184 290.828 C 238.465 292.095 240.59 294.687 241.249 296.345 C 241.752 297.612 241.868 298.673 241.539 299.83 C 241.45 300.145 241.317 300.489 241.15 300.84 C 242.727 300.485 244.338 300.082 245.46 299.975 C 247.023 299.826 248.048 299.684 249.235 299.975 C 250.42 300.265 251.771 300.891 252.574 301.717 C 253.342 302.508 253.648 302.786 254.026 304.766 C 254.959 309.649 255.282 344.954 255.324 353.222 C 255.354 359.134 255.952 363.973 255.034 367.16 C 254.404 369.347 253.32 370.774 251.985 371.661 C 250.722 372.5 248.763 372.843 247.339 372.532 C 247.283 372.52 247.226 372.506 247.17 372.492 C 245.475 372.542 243.55 372.482 241.531 372.532 C 235.859 372.674 226.994 371.944 220.043 371.951 C 213.362 371.959 205.621 372.91 200.587 372.532 C 196.908 372.256 195.112 370.866 191.876 370.79 C 188.153 370.703 183.617 372.24 179.389 372.532 C 175.101 372.829 171.71 372.655 166.322 372.532 C 159.085 372.367 148.377 371.385 139.026 371.371 C 129.327 371.356 115.521 372.917 109.116 372.532 C 105.398 372.309 104.092 371.321 101.567 371.08 C 99.059 370.841 97.496 370.915 94.017 371.08 C 88.5 371.342 76.931 373.207 70.205 373.113 C 64.767 373.037 62.704 371.512 56.267 371.371 C 46.11 371.148 18.93 375.309 12.419 373.984 C 9.735 373.438 9.302 372.515 8.499 371.225 C 7.663 369.884 7.541 367.396 7.628 365.999 C 7.695 364.923 8.314 364.709 8.499 363.385 C 8.82 361.08 8.857 355.612 8.499 352.351 C 8.188 349.52 7.127 348.123 6.757 344.801 C 6.221 339.999 5.457 313.691 6.039 309.122 C 6.118 308.501 6.205 307.916 6.302 307.367 C 6.269 306.848 6.28 306.352 6.33 305.928 C 6.469 304.754 7.013 303.67 7.782 302.879 C 7.868 302.79 7.955 302.705 8.044 302.623 C 8.054 302.611 8.063 302.6 8.072 302.588 C 8.93 301.508 10.068 300.951 11.411 300.846 Z" style="fill-opacity: 1; fill-rule: nonzero; stroke: rgb(5, 14, 26); stroke-dasharray: none; stroke-dashoffset: 0px; stroke-linecap: butt; stroke-linejoin: miter; stroke-miterlimit: 4; stroke-opacity: 1; stroke-width: 5px; paint-order: normal; vector-effect: none; opacity: 1; mix-blend-mode: normal; isolation: auto; fill: rgb(148, 191, 48);"/></svg>