<?xml version="1.0" encoding="utf-8"?>
<svg xmlns="http://www.w3.org/2000/svg" viewBox="0 0 260 380" xmlns:bx="https://boxy-svg.com" width="260px" height="380px"><defs><bx:guide x="10" y="10" angle="0"/><bx:guide x="10" y="10" angle="90"/><bx:guide x="250" y="370" angle="0"/><bx:guide x="250" y="370" angle="90"/><bx:export><bx:file format="svg"/></bx:export><bx:guide x="158.55" y="89.294" angle="90"/><bx:guide x="129.602" y="319.401" angle="90"/><bx:guide x="131.881" y="291.86" angle="90"/></defs><path stroke="rgb(255,0,0)" stroke-width="0" opacity="0.9607843137254902" d="M 42.448 300.11 C 55.348 300.286 70.694 302.009 84.823 302.388 C 98.943 302.768 115.707 301.61 127.197 302.388 C 136.052 302.989 142.649 305.851 149.067 305.578 C 154.568 305.344 158.668 302.619 163.647 301.933 C 168.689 301.239 172.406 301.396 179.139 301.477 C 188.901 301.595 208.756 303.325 218.324 303.3 C 224.769 303.283 228.394 302.445 232.904 302.388 C 236.988 302.337 241.545 302.92 244.295 302.844 C 246.126 302.793 247.044 302.096 248.396 302.388 C 249.856 302.705 251.772 303.847 252.724 304.894 C 253.546 305.799 253.743 305.911 254.091 308.084 C 255.038 313.995 254.732 339.609 254.547 350.458 C 254.415 358.203 254.627 364.898 253.635 368.683 C 253.044 370.939 252.177 372.06 251.129 373.012 C 250.225 373.834 249.845 374.066 247.94 374.379 C 243.771 375.064 234.307 374.459 223.336 374.379 C 206.826 374.258 170.527 373.28 154.99 373.468 C 145.388 373.584 145.005 374.267 134.487 374.379 C 114.905 374.588 58.538 372.691 37.436 373.012 C 25.064 373.2 16.655 375.278 11.921 374.379 C 9.455 373.911 8.544 372.92 7.592 371.873 C 6.77 370.968 6.576 370.899 6.225 368.683 C 5.24 362.454 5.637 331.899 5.77 322.664 C 5.841 317.735 6.348 315.909 6.225 313.096 C 6.121 310.695 4.973 308.565 5.314 306.717 C 5.623 305.047 6.773 303.34 7.82 302.388 C 8.725 301.566 8.987 301.381 11.01 301.022 C 15.894 300.154 31.005 299.955 42.448 300.11 Z" style="fill-opacity: 1; fill-rule: nonzero; stroke: rgb(5, 14, 26); stroke-dasharray: none; stroke-dashoffset: 0px; stroke-linecap: butt; stroke-linejoin: miter; stroke-miterlimit: 4; stroke-opacity: 1; stroke-width: 5px; paint-order: normal; vector-effect: none; opacity: 1; mix-blend-mode: normal; isolation: auto; fill: rgb(196, 187, 179);"/></svg>