<?xml version="1.0" encoding="utf-8"?>
<svg xmlns="http://www.w3.org/2000/svg" viewBox="0 0 260 380" xmlns:bx="https://boxy-svg.com" width="260px" height="380px"><defs><bx:guide x="10" y="10" angle="0"/><bx:guide x="10" y="10" angle="90"/><bx:guide x="250" y="370" angle="0"/><bx:guide x="250" y="370" angle="90"/><bx:export><bx:file format="svg"/></bx:export><bx:guide x="158.55" y="89.294" angle="90"/></defs><rect x="10" y="10" width="240" height="360" style="stroke: rgb(0, 0, 0); fill: rgb(13, 33, 64);"/><path stroke="rgb(255,0,0)" d="M 26.936 12.557 C 29.244 11.945 29.897 11.907 32.519 12.557 C 37.137 13.703 50.284 19.681 53.456 22.049 C 54.934 23.152 54.894 24.215 55.41 24.84 C 55.747 25.25 55.878 25.109 56.247 25.678 C 57.086 26.971 59.486 30.991 60.155 34.052 C 60.863 37.287 61.326 40.741 60.155 44.66 C 58.65 49.702 53.543 58.124 49.827 61.689 C 47.007 64.393 44.053 65.41 40.894 66.155 C 37.726 66.903 34.283 67.274 30.844 66.155 C 26.781 64.833 21.43 61.03 18.282 57.502 C 15.307 54.168 13.464 50.449 12.14 45.777 C 10.591 40.309 9.735 30.891 10.466 26.236 C 10.969 23.026 11.711 21.322 13.815 19.257 C 16.537 16.586 23.533 13.46 26.936 12.557 Z M 123.524 11.999 C 128.864 10.685 133.273 11.357 138.598 11.999 C 144.468 12.707 154.829 14.943 157.302 16.466 C 158.35 17.111 157.701 17.245 158.419 18.42 C 160.199 21.336 168.018 30.25 170.143 36.844 C 172.223 43.297 171.911 51.51 171.26 57.502 C 170.704 62.621 169.413 66.532 167.352 70.901 C 165.148 75.572 162.351 80.958 158.139 84.58 C 153.661 88.431 147.055 91.449 140.832 92.954 C 134.427 94.504 126.153 94.359 120.174 93.513 C 115.039 92.786 111.256 91.484 106.775 89.046 C 101.677 86.273 94.736 81.073 91.421 77.043 C 88.834 73.897 87.763 71.342 86.954 67.551 C 85.992 63.042 86.208 56.281 86.954 51.36 C 87.635 46.869 88.96 43.211 90.863 39.077 C 92.939 34.565 97.09 27.423 99.237 25.399 C 100.337 24.362 101.324 24.866 102.029 24.282 C 102.697 23.728 102.252 22.995 103.425 22.049 C 106.19 19.819 117.259 13.541 123.524 11.999 Z M 214.529 79.555 C 219.098 78.403 224.107 78.682 228.487 79.555 C 232.746 80.404 238.307 83.117 240.491 84.58 C 241.699 85.389 241.597 85.535 242.445 86.813 C 244.059 89.248 248.464 96.417 249.424 99.933 C 250.098 102.403 249.577 103.045 249.424 106.075 C 249.154 111.406 249.847 123.927 247.19 131.199 C 244.693 138.035 239.326 145.025 234.628 148.786 C 230.704 151.928 226.072 152.993 221.787 153.811 C 217.696 154.592 212.884 154.202 209.504 153.811 C 206.82 153.499 205.092 153.365 202.804 152.136 C 200.001 150.63 195.608 146.182 194.151 144.598 C 193.424 143.809 193.601 143.928 193.034 142.924 C 191.769 140.681 187.532 134.152 186.334 129.524 C 185.169 125.024 185.261 119.949 185.776 115.566 C 186.264 111.416 187.203 107.994 189.126 103.842 C 191.42 98.886 197.964 89.882 199.455 87.93 C 199.946 87.286 199.651 87.529 200.292 87.092 C 202.114 85.852 209.69 80.775 214.529 79.555 Z M 149.765 114.17 C 152.145 113.573 152.74 113.471 154.79 114.17 C 157.918 115.238 164.936 120.11 166.793 122.266 C 167.817 123.454 167.45 124.682 167.91 125.337 C 168.237 125.803 168.592 125.528 169.026 126.174 C 170.01 127.639 172.144 132.122 172.935 136.224 C 173.926 141.368 174.423 150.422 173.493 155.206 C 172.804 158.753 172.085 160.711 169.585 163.302 C 166.158 166.854 158.321 171.744 152.556 173.352 C 147.235 174.836 140.79 174.585 136.365 173.352 C 132.585 172.298 129.606 170.1 127.153 167.489 C 124.649 164.824 122.64 161.421 121.57 157.44 C 120.343 152.873 119.991 146.638 121.012 141.249 C 122.088 135.564 126.484 126.533 128.27 124.22 C 129.038 123.225 128.998 123.717 130.224 123.103 C 133.246 121.591 145.508 115.238 149.765 114.17 Z M 36.985 101.888 C 42.65 100.621 50.987 101.211 57.643 103.004 C 64.493 104.849 74.723 110.828 77.463 113.054 C 78.63 114.002 78.441 114.751 78.859 115.287 C 79.163 115.676 79.307 115.821 79.696 116.124 C 80.232 116.543 81.071 116.383 81.93 117.52 C 83.804 120 87.831 128.101 89.188 134.549 C 90.707 141.77 90.672 152.287 89.746 159.115 C 88.993 164.667 87.441 169.192 85.279 173.072 C 83.32 176.592 80.848 179.161 77.742 181.726 C 74.354 184.525 70.059 187.744 65.459 188.984 C 60.621 190.289 54.657 190.1 49.268 188.984 C 43.583 187.807 34.72 183.6 32.24 181.726 C 31.103 180.867 31.577 180.336 30.844 179.493 C 29.803 178.296 27.449 176.891 26.098 175.306 C 24.752 173.726 23.734 170.956 22.748 170.002 C 22.14 169.413 21.735 169.955 21.073 169.164 C 19.564 167.361 15.988 160.688 14.932 155.765 C 13.805 150.515 14.418 144.421 14.932 138.457 C 15.475 132.16 16.245 124.136 18.282 118.916 C 19.974 114.581 22.217 111.4 25.261 108.587 C 28.404 105.683 32.209 102.956 36.985 101.888 Z M 74.392 222.483 C 79.872 222.03 88.367 221.546 94.492 223.041 C 100.316 224.463 108.428 229.41 110.404 230.858 C 111.118 231.382 110.796 231.416 111.241 231.975 C 112.066 233.01 114.224 235.918 115.428 236.999 C 116.265 237.751 117.11 237.703 117.662 238.395 C 118.263 239.149 118.318 240.811 118.778 241.466 C 119.106 241.932 119.366 241.572 119.895 242.303 C 121.406 244.39 126.826 253.899 128.27 259.611 C 129.599 264.871 129.434 270.307 128.828 275.244 C 128.249 279.961 126.855 284.306 124.92 288.643 C 122.906 293.157 120.908 297.943 116.824 301.764 C 112.032 306.247 104.053 310.955 96.725 312.93 C 89.199 314.958 78.618 314.382 72.159 313.488 C 67.253 312.809 63.969 311.393 60.435 309.58 C 57.014 307.825 53.059 304.509 51.222 302.88 C 50.15 301.93 50.17 302.028 49.268 300.647 C 47.341 297.694 41.899 289.666 40.056 283.06 C 38.066 275.925 37.279 266.311 38.381 259.053 C 39.395 252.374 43.789 243.784 45.639 240.908 C 46.51 239.554 47.301 239.645 47.872 238.953 C 48.384 238.334 48.459 237.547 48.989 236.999 C 49.554 236.416 50.379 236.337 51.222 235.604 C 52.419 234.562 53.611 232.484 55.41 230.858 C 57.602 228.876 60.654 226.112 63.784 224.716 C 66.969 223.297 70.112 222.837 74.392 222.483 Z M 152.556 194.568 C 155.84 193.731 159.089 193.895 162.048 194.568 C 164.943 195.226 168.312 196.753 170.143 198.476 C 171.701 199.94 172.388 201.34 172.935 203.78 C 173.713 207.255 174.209 213.859 172.935 218.296 C 171.672 222.691 167.926 227.728 165.397 230.3 C 163.545 232.183 161.946 233.071 159.814 233.649 C 157.522 234.272 154.962 234.649 151.998 233.649 C 147.928 232.277 140.317 226.329 137.761 223.879 C 136.333 222.511 135.967 222.14 135.528 220.529 C 134.894 218.207 134.696 213.721 135.528 210.479 C 136.394 207.105 138.158 203.315 140.832 200.709 C 143.699 197.914 148.805 195.523 152.556 194.568 Z M 82.209 195.126 C 83.986 194.94 87.85 195.393 89.188 196.801 C 90.475 198.155 90.747 201.489 90.304 203.221 C 89.914 204.748 88.559 206.148 87.234 206.85 C 85.875 207.57 83.663 207.848 82.209 207.409 C 80.789 206.98 79.282 205.663 78.58 204.338 C 77.86 202.98 77.837 200.648 78.021 199.313 C 78.166 198.267 78.501 197.481 79.138 196.801 C 79.84 196.052 80.876 195.265 82.209 195.126 Z M 105.658 107.471 C 107.622 107.241 112.254 107.647 113.753 109.146 C 115.117 110.508 115.313 113.834 114.87 115.566 C 114.48 117.093 113.212 118.479 111.799 119.195 C 110.232 119.99 107.334 120.263 105.658 119.754 C 104.147 119.295 102.731 118.008 102.029 116.683 C 101.309 115.325 101.286 112.993 101.471 111.658 C 101.615 110.612 101.95 109.826 102.587 109.146 C 103.289 108.397 104.265 107.633 105.658 107.471 Z M 195.546 245.932 C 202.924 244.276 210.38 244.697 217.879 247.049 C 226.278 249.683 238.688 256.936 243.282 262.403 C 246.573 266.318 246.461 269.685 247.19 274.685 C 248.116 281.039 248.292 291.144 247.19 298.135 C 246.207 304.375 243.649 310.831 241.607 314.884 C 240.121 317.835 239.507 318.88 236.862 321.305 C 232.742 325.081 223.725 332.345 216.762 334.704 C 210.29 336.898 202.281 336.636 196.663 335.821 C 192.013 335.146 188.721 333.629 184.938 331.354 C 180.786 328.858 176.169 324.956 172.935 321.025 C 169.791 317.205 167.262 312.169 165.677 308.184 C 164.333 304.808 163.935 302.849 163.443 298.693 C 162.738 292.732 161.201 281.662 162.885 274.685 C 164.414 268.35 167.275 262.813 172.097 258.215 C 177.618 252.951 187.654 247.705 195.546 245.932 Z M 134.132 328.004 C 140.596 326.74 148.403 327.715 154.231 329.121 C 159.377 330.362 163.449 332.575 167.631 335.262 C 171.934 338.028 177.825 343.656 179.634 345.591 C 180.427 346.439 180.12 346.319 180.751 347.266 C 182.126 349.329 187.53 355.912 188.567 358.991 C 189.255 361.029 189.097 362.562 188.567 364.016 C 188.05 365.437 186.822 366.943 185.497 367.645 C 184.139 368.364 181.927 368.642 180.472 368.203 C 179.053 367.775 178.45 366.878 176.843 365.132 C 176.808 365.094 176.773 365.055 176.738 365.016 C 176.507 365.16 176.263 365.291 176.005 365.411 C 173.873 366.4 170.859 365.949 166.514 365.97 C 159.722 366.002 145.51 364.555 137.482 364.853 C 131.153 365.088 124.615 365.215 121.57 366.807 C 119.63 367.821 120.063 370.094 118.499 370.995 C 116.65 372.059 112.67 372.634 110.683 372.111 C 109.585 371.822 108.635 371.145 107.916 370.312 C 107.526 370.839 107.145 371.262 106.775 371.553 C 104.965 372.977 103.204 372.55 101.75 372.111 C 100.33 371.683 98.836 370.453 98.121 369.04 C 97.326 367.473 96.841 365.702 97.562 362.899 C 98.817 358.022 106.339 345.358 109.566 341.404 C 111.397 339.16 113.418 338.541 114.312 337.775 C 114.78 337.374 114.455 337.376 115.149 336.937 C 117.341 335.552 127.56 329.29 134.132 328.004 Z M 33.636 317.396 C 37.649 316.721 40.849 316.376 44.243 317.396 C 47.846 318.48 51.37 320.764 54.572 324.096 C 58.465 328.148 63.132 334.944 65.18 341.125 C 67.233 347.318 68.131 356.426 66.855 361.224 C 65.909 364.782 63.865 366.967 60.993 368.761 C 57.612 370.873 50.001 372.644 47.035 372.111 C 45.129 371.769 44.108 370.366 43.406 369.04 C 43.244 368.733 43.117 368.377 43.019 367.993 C 41.773 368.297 40.496 368.553 39.219 368.761 C 33.657 369.669 24.364 370.031 20.236 368.761 C 17.505 367.921 15.98 366.743 14.932 364.574 C 13.625 361.869 14.018 357.423 14.374 352.849 C 14.807 347.287 14.736 337.526 17.956 332.906 C 17.049 332.291 16.514 331.394 16.049 330.517 C 15.329 329.159 15.306 326.827 15.49 325.492 C 15.635 324.446 15.494 323.83 16.607 322.98 C 18.963 321.179 28.686 318.23 33.636 317.396 Z M 213.412 173.352 C 218.429 172.521 233.222 172.64 239.095 173.91 C 242.954 174.745 245.467 174.813 247.19 177.818 C 249.803 182.374 250.12 196.408 248.307 203.221 C 246.782 208.951 242.578 213.974 239.095 216.9 C 236.213 219.321 232.875 220.16 229.603 220.808 C 226.36 221.451 223.268 222.007 219.554 220.808 C 214.688 219.237 206.286 213.232 203.084 209.921 C 200.969 207.735 200.338 206.261 199.734 203.78 C 199.019 200.849 198.743 197.168 199.734 193.172 C 201 188.062 205.565 178.559 208.388 175.585 C 210.085 173.796 210.705 173.8 213.412 173.352 Z M 15.769 194.009 C 17.36 193.753 20.95 194.309 22.748 195.684 C 24.627 197.12 25.999 200.131 26.657 202.663 C 27.326 205.242 27.396 208.77 26.657 211.038 C 26.011 213.019 24.913 214.843 23.028 215.783 C 20.704 216.943 15.342 217.056 12.978 216.342 C 11.227 215.812 10.119 215.016 9.349 213.271 C 8.223 210.719 8.419 203.424 8.791 200.988 C 8.995 199.65 9.304 199.198 9.907 198.476 C 10.564 197.688 12.073 197.037 12.699 196.522 C 13.109 196.184 13.154 196.012 13.536 195.684 C 14.075 195.222 14.679 194.185 15.769 194.009 Z M 235.745 350.337 C 238.568 349.731 243.415 350.14 245.795 350.895 C 247.506 351.438 248.605 351.891 249.424 353.408 C 250.588 355.567 251.374 361.267 250.54 364.016 C 249.831 366.353 248.105 368.279 245.795 369.32 C 242.973 370.591 237.074 370.487 234.07 369.878 C 231.774 369.412 229.944 368.796 228.766 367.086 C 227.325 364.995 226.654 359.653 227.091 357.316 C 227.407 355.625 228.373 354.769 229.604 353.687 C 231.083 352.386 233.304 350.861 235.745 350.337 Z" style="stroke: rgb(129, 151, 57); stroke-width: 0px; fill: rgb(36, 57, 102);"/><path d="M 8.511 5.485 C 9.524 5.372 11.229 5.433 12.808 5.75 C 15.84 5.593 19.974 5.768 21.911 6.044 C 23.525 6.274 23.344 6.992 25.261 7.16 C 29.314 7.515 42.046 5.583 48.152 5.485 C 52.731 5.412 55.596 6.044 59.318 6.044 C 63.04 6.044 67.305 5.443 70.484 5.485 C 73.079 5.52 74.132 6.025 77.184 6.044 C 81.916 6.073 88.13 5.012 97.283 4.927 C 111.48 4.795 145.567 6.639 157.581 6.602 C 163.94 6.583 165.535 5.655 169.864 6.044 C 174.607 6.47 179.645 9.323 184.938 9.394 C 190.588 9.469 194.871 6.76 202.804 6.044 C 212.533 5.165 234.91 4.58 245.807 5.057 C 246.548 4.107 247.411 3.933 248.586 3.81 C 250.363 3.624 254.104 3.54 255.565 5.485 C 257.576 8.162 256.568 13.669 256.682 21.397 C 256.877 34.603 254.878 60.879 255.007 82.253 C 255.145 105.192 258.353 136.584 257.798 154.834 C 257.41 167.61 255.273 170.122 254.448 184.425 C 253.055 208.596 251.228 276.113 252.774 294.971 C 253.467 303.429 255.441 303.809 256.123 309.487 C 256.957 316.423 256.81 326.483 256.682 334.053 C 256.566 340.885 255.556 346.823 255.565 353.035 C 255.574 359.1 257.639 367.401 256.682 370.901 C 256.118 372.961 254.936 373.829 253.611 374.531 C 252.494 375.123 250.798 375.416 249.422 375.256 C 238.257 376.649 211.42 375.426 194.43 375.089 C 175.409 374.711 154.978 371.824 138.04 372.297 C 123.217 372.711 109.915 376.072 97.842 376.764 C 87.349 377.365 74.965 376.998 69.368 376.764 C 66.445 376.642 66.631 376.29 63.784 376.205 C 58.553 376.05 47.076 377.005 38.102 376.764 C 28.524 376.506 12.916 376.223 7.953 374.531 C 5.585 373.723 5.026 372.785 4.324 371.46 C 3.826 370.52 3.662 369.114 3.669 367.895 C 2.839 361.503 3.389 349.41 3.766 342.986 C 4.119 336.959 5.41 335.687 5.999 327.911 C 7.096 313.437 8.132 278.567 7.674 255.889 C 7.248 234.829 3.256 210.372 3.766 196.149 C 4.101 186.809 6.432 185.065 7.116 175.492 C 8.193 160.398 7.309 131.542 7.116 110.169 C 6.927 89.316 6.942 64.101 5.999 48.755 C 5.344 38.091 3.177 31.508 3.207 24.189 C 3.234 17.863 3.918 9.815 5.441 7.16 C 6.246 5.756 7.148 5.637 8.511 5.485 Z M 16.049 32.564 C 16.303 37.192 17.705 37.064 18.282 44.846 C 19.775 64.99 21.314 161.479 19.399 179.4 C 18.739 185.57 17.207 184.412 16.607 188.333 C 15.757 193.886 15.502 205.102 16.049 210.666 C 16.432 214.569 17.693 214.751 18.282 219.599 C 19.449 229.199 20.072 249.834 19.957 270.405 C 19.828 293.306 19.233 341.449 17.233 361.887 C 20.487 361.959 24.092 362.123 27.494 362.248 C 36.629 362.583 51.224 364.327 59.318 364.481 C 65.041 364.59 67.568 363.955 72.717 363.923 C 78.969 363.883 85.864 364.891 94.492 364.481 C 105.482 363.959 118.933 360.479 134.132 360.014 C 152.461 359.455 177.571 362.356 197.78 362.806 C 212.113 363.125 231.869 362.244 243.583 362.34 C 243.143 354.669 243.26 344.786 243.282 339.078 C 243.309 332.284 244.727 328.478 244.399 322.328 C 244.021 315.26 241.231 308.499 240.491 298.879 C 239.514 286.195 240.21 264.129 240.491 251.422 C 240.703 241.834 241.637 233.494 241.607 227.973 C 241.588 224.414 241.017 225.008 241.049 220.157 C 241.131 207.838 245.333 166.506 245.515 139.76 C 245.67 117.098 243.289 90.827 242.446 70.245 C 239.147 73.504 233.839 78.293 227.929 80.299 C 220.658 82.767 208.915 83.521 201.13 81.974 C 194.162 80.59 185.374 74.642 182.984 72.762 C 182.037 72.017 182.404 72.005 181.868 71.087 C 180.82 69.295 177.731 65.289 176.843 61.596 C 175.841 57.43 175.897 52.155 176.843 47.08 C 177.899 41.418 180.652 34.416 183.543 29.214 C 184.815 26.925 186.561 24.468 188.289 22.289 C 185.252 22.406 182.293 22.405 179.914 22.235 C 173.571 21.782 169.57 18.992 162.606 18.327 C 153.746 17.481 135.288 19.76 130.224 18.885 C 128.087 18.516 128.891 17.592 126.874 17.21 C 122.516 16.386 110.496 17.053 101.191 17.21 C 90.772 17.386 72.373 18.556 67.134 18.327 C 65.051 18.236 65.604 17.862 63.784 17.768 C 60.121 17.58 49.011 18.417 44.243 18.327 C 41.032 18.266 40.143 17.722 36.985 17.768 C 32.4 17.836 23.361 19.502 18.561 19.443 C 17.994 19.436 17.446 19.425 16.916 19.408 C 16.522 23.732 15.845 28.867 16.049 32.564 Z M 38.661 52.942 C 41.713 52.546 50.191 53.367 54.293 55.175 C 57.803 56.723 60.655 60.112 62.389 62.154 C 63.616 63.599 64.204 64.376 64.622 66.063 C 65.158 68.224 65.593 71.593 64.622 74.437 C 63.472 77.806 59.478 82.575 57.085 84.766 C 55.347 86.357 54.307 87.022 52.06 87.558 C 49.016 88.283 43.164 88.774 39.777 87.558 C 36.67 86.441 34.107 83.31 32.24 81.137 C 30.662 79.299 29.497 77.851 28.89 75.554 C 28.168 72.821 27.925 68.828 28.89 65.504 C 29.953 61.844 33.679 56.559 35.59 54.617 C 36.728 53.461 36.991 53.159 38.661 52.942 Z M 71.601 37.868 C 74.038 37.394 80.21 37.631 82.767 38.426 C 84.53 38.974 85.421 39.874 86.396 40.938 C 87.379 42.011 88.211 43.16 88.629 44.846 C 89.165 47.008 89.544 50.83 88.629 53.221 C 87.735 55.558 85.809 57.809 83.325 59.083 C 80.406 60.581 74.121 61.109 71.601 60.758 C 70.054 60.543 69.392 59.91 68.53 59.083 C 67.597 58.188 66.743 57.223 66.297 55.454 C 65.627 52.803 65.667 46.516 66.297 43.73 C 66.736 41.79 67.567 40.532 68.53 39.542 C 69.382 38.666 70.07 38.165 71.601 37.868 Z M 48.152 30.609 C 49.928 30.424 53.765 30.75 55.131 32.284 C 56.569 33.9 56.785 38.344 56.247 40.38 C 55.814 42.019 54.502 43.307 53.176 44.009 C 51.818 44.728 49.606 45.006 48.152 44.567 C 46.732 44.139 45.245 42.949 44.523 41.497 C 43.693 39.829 43.728 36.421 43.964 34.797 C 44.13 33.661 44.443 32.965 45.081 32.284 C 45.783 31.535 46.819 30.749 48.152 30.609 Z M 215.337 17.823 C 214.948 17.824 214.567 17.826 214.194 17.829 C 214.549 17.833 214.931 17.831 215.337 17.823 Z" style="fill: rgb(73, 194, 242); stroke: rgb(5, 14, 26); stroke-width: 4px;"/></svg>