<?xml version="1.0" encoding="utf-8"?>
<svg xmlns="http://www.w3.org/2000/svg" viewBox="0 0 260 380" xmlns:bx="https://boxy-svg.com" width="260px" height="380px"><defs><bx:guide x="10" y="10" angle="0"/><bx:guide x="10" y="10" angle="90"/><bx:guide x="250" y="370" angle="0"/><bx:guide x="250" y="370" angle="90"/><bx:export><bx:file format="svg"/></bx:export><bx:guide x="158.55" y="89.294" angle="90"/></defs><path d="M 8.511 5.485 C 9.524 5.372 11.229 5.433 12.808 5.75 C 15.84 5.593 19.974 5.768 21.911 6.044 C 23.525 6.274 23.344 6.992 25.261 7.16 C 29.314 7.515 42.046 5.583 48.152 5.485 C 52.731 5.412 55.596 6.044 59.318 6.044 C 63.04 6.044 67.305 5.443 70.484 5.485 C 73.079 5.52 74.132 6.025 77.184 6.044 C 81.916 6.073 88.13 5.012 97.283 4.927 C 111.48 4.795 145.567 6.639 157.581 6.602 C 163.94 6.583 165.535 5.655 169.864 6.044 C 174.607 6.47 179.645 9.323 184.938 9.394 C 190.588 9.469 194.871 6.76 202.804 6.044 C 212.533 5.165 234.91 4.58 245.807 5.057 C 246.548 4.107 247.411 3.933 248.586 3.81 C 250.363 3.624 254.104 3.54 255.565 5.485 C 257.576 8.162 256.568 13.669 256.682 21.397 C 256.877 34.603 254.878 60.879 255.007 82.253 C 255.145 105.192 258.353 136.584 257.798 154.834 C 257.41 167.61 255.273 170.122 254.448 184.425 C 253.055 208.596 251.228 276.113 252.774 294.971 C 253.467 303.429 255.441 303.809 256.123 309.487 C 256.957 316.423 256.81 326.483 256.682 334.053 C 256.566 340.885 255.556 346.823 255.565 353.035 C 255.574 359.1 257.639 367.401 256.682 370.901 C 256.118 372.961 254.936 373.829 253.611 374.531 C 252.494 375.123 250.798 375.416 249.422 375.256 C 238.257 376.649 211.42 375.426 194.43 375.089 C 175.409 374.711 154.978 371.824 138.04 372.297 C 123.217 372.711 109.915 376.072 97.842 376.764 C 87.349 377.365 74.965 376.998 69.368 376.764 C 66.445 376.642 66.631 376.29 63.784 376.205 C 58.553 376.05 47.076 377.005 38.102 376.764 C 28.524 376.506 12.916 376.223 7.953 374.531 C 5.585 373.723 5.026 372.785 4.324 371.46 C 3.826 370.52 3.662 369.114 3.669 367.895 C 2.839 361.503 3.389 349.41 3.766 342.986 C 4.119 336.959 5.41 335.687 5.999 327.911 C 7.096 313.437 8.132 278.567 7.674 255.889 C 7.248 234.829 3.256 210.372 3.766 196.149 C 4.101 186.809 6.432 185.065 7.116 175.492 C 8.193 160.398 7.309 131.542 7.116 110.169 C 6.927 89.316 6.942 64.101 5.999 48.755 C 5.344 38.091 3.177 31.508 3.207 24.189 C 3.234 17.863 3.918 9.815 5.441 7.16 C 6.246 5.756 7.148 5.637 8.511 5.485 Z M 16.049 32.564 C 16.303 37.192 17.705 37.064 18.282 44.846 C 19.775 64.99 21.314 161.479 19.399 179.4 C 18.739 185.57 17.207 184.412 16.607 188.333 C 15.757 193.886 15.502 205.102 16.049 210.666 C 16.432 214.569 17.693 214.751 18.282 219.599 C 19.449 229.199 20.072 249.834 19.957 270.405 C 19.828 293.306 19.233 341.449 17.233 361.887 C 20.487 361.959 24.092 362.123 27.494 362.248 C 36.629 362.583 51.224 364.327 59.318 364.481 C 65.041 364.59 67.568 363.955 72.717 363.923 C 78.969 363.883 85.864 364.891 94.492 364.481 C 105.482 363.959 118.933 360.479 134.132 360.014 C 152.461 359.455 177.571 362.356 197.78 362.806 C 212.113 363.125 231.869 362.244 243.583 362.34 C 243.143 354.669 243.26 344.786 243.282 339.078 C 243.309 332.284 244.727 328.478 244.399 322.328 C 244.021 315.26 241.231 308.499 240.491 298.879 C 239.514 286.195 240.21 264.129 240.491 251.422 C 240.703 241.834 241.637 233.494 241.607 227.973 C 241.588 224.414 241.017 225.008 241.049 220.157 C 241.131 207.838 245.333 166.506 245.515 139.76 C 245.67 117.098 243.289 90.827 242.446 70.245 C 239.147 73.504 233.839 78.293 227.929 80.299 C 220.658 82.767 208.915 83.521 201.13 81.974 C 194.162 80.59 185.374 74.642 182.984 72.762 C 182.037 72.017 182.404 72.005 181.868 71.087 C 180.82 69.295 177.731 65.289 176.843 61.596 C 175.841 57.43 175.897 52.155 176.843 47.08 C 177.899 41.418 180.652 34.416 183.543 29.214 C 184.815 26.925 186.561 24.468 188.289 22.289 C 185.252 22.406 182.293 22.405 179.914 22.235 C 173.571 21.782 169.57 18.992 162.606 18.327 C 153.746 17.481 135.288 19.76 130.224 18.885 C 128.087 18.516 128.891 17.592 126.874 17.21 C 122.516 16.386 110.496 17.053 101.191 17.21 C 90.772 17.386 72.373 18.556 67.134 18.327 C 65.051 18.236 65.604 17.862 63.784 17.768 C 60.121 17.58 49.011 18.417 44.243 18.327 C 41.032 18.266 40.143 17.722 36.985 17.768 C 32.4 17.836 23.361 19.502 18.561 19.443 C 17.994 19.436 17.446 19.425 16.916 19.408 C 16.522 23.732 15.845 28.867 16.049 32.564 Z M 38.661 52.942 C 41.713 52.546 50.191 53.367 54.293 55.175 C 57.803 56.723 60.655 60.112 62.389 62.154 C 63.616 63.599 64.204 64.376 64.622 66.063 C 65.158 68.224 65.593 71.593 64.622 74.437 C 63.472 77.806 59.478 82.575 57.085 84.766 C 55.347 86.357 54.307 87.022 52.06 87.558 C 49.016 88.283 43.164 88.774 39.777 87.558 C 36.67 86.441 34.107 83.31 32.24 81.137 C 30.662 79.299 29.497 77.851 28.89 75.554 C 28.168 72.821 27.925 68.828 28.89 65.504 C 29.953 61.844 33.679 56.559 35.59 54.617 C 36.728 53.461 36.991 53.159 38.661 52.942 Z M 71.601 37.868 C 74.038 37.394 80.21 37.631 82.767 38.426 C 84.53 38.974 85.421 39.874 86.396 40.938 C 87.379 42.011 88.211 43.16 88.629 44.846 C 89.165 47.008 89.544 50.83 88.629 53.221 C 87.735 55.558 85.809 57.809 83.325 59.083 C 80.406 60.581 74.121 61.109 71.601 60.758 C 70.054 60.543 69.392 59.91 68.53 59.083 C 67.597 58.188 66.743 57.223 66.297 55.454 C 65.627 52.803 65.667 46.516 66.297 43.73 C 66.736 41.79 67.567 40.532 68.53 39.542 C 69.382 38.666 70.07 38.165 71.601 37.868 Z M 48.152 30.609 C 49.928 30.424 53.765 30.75 55.131 32.284 C 56.569 33.9 56.785 38.344 56.247 40.38 C 55.814 42.019 54.502 43.307 53.176 44.009 C 51.818 44.728 49.606 45.006 48.152 44.567 C 46.732 44.139 45.245 42.949 44.523 41.497 C 43.693 39.829 43.728 36.421 43.964 34.797 C 44.13 33.661 44.443 32.965 45.081 32.284 C 45.783 31.535 46.819 30.749 48.152 30.609 Z M 215.337 17.823 C 214.948 17.824 214.567 17.826 214.194 17.829 C 214.549 17.833 214.931 17.831 215.337 17.823 Z" style="fill: rgb(73, 194, 242); stroke: rgb(5, 14, 26); stroke-width: 4px;"/></svg>