<?xml version="1.0" encoding="utf-8"?>
<svg xmlns="http://www.w3.org/2000/svg" viewBox="0 0 260 380" xmlns:bx="https://boxy-svg.com" width="260px" height="380px"><defs><bx:guide x="10" y="10" angle="0"/><bx:guide x="10" y="10" angle="90"/><bx:guide x="250" y="370" angle="0"/><bx:guide x="250" y="370" angle="90"/><bx:guide x="125.517" y="273.529" angle="90"/><bx:guide x="124.06" y="232.004" angle="90"/><bx:export><bx:file format="svg" href="#object-0"/><bx:file format="svg" path="Untitled 2.svg"/></bx:export></defs><path d="M 23.54 224.516 C 28.258 223.775 34.034 224.132 38.213 225.249 C 41.878 226.229 45.189 227.571 47.567 230.201 C 50.159 233.07 51.796 238.203 52.702 242.306 C 53.579 246.277 53.608 250.238 53.069 254.411 C 52.489 258.898 50.954 264.686 49.034 268.35 C 47.422 271.427 45.689 273.627 42.981 275.503 C 39.94 277.611 34.667 279.25 31.243 279.905 C 28.48 280.434 26.46 280.329 23.907 279.905 C 21.102 279.439 17.811 278.613 15.103 276.97 C 12.216 275.219 9.029 271.427 7.217 269.451 C 5.981 268.104 5.132 267.345 4.649 266.149 C 4.273 265.218 4.136 264.118 4.206 263.122 C 3.361 257.079 3.605 246.323 4.065 241.234 C 4.035 240.517 4.103 239.766 4.282 239.005 C 4.92 236.291 7.06 232.019 9.968 229.651 C 13.223 227 18.845 225.252 23.54 224.516 Z" style="fill: rgb(73, 194, 242); stroke: rgb(5, 14, 26); stroke-width: 5px;" id="object-0"/></svg>