<?xml version="1.0" encoding="utf-8"?>
<svg xmlns="http://www.w3.org/2000/svg" viewBox="0 0 260 380" xmlns:bx="https://boxy-svg.com" width="260px" height="380px"><defs><bx:guide x="10" y="10" angle="0"/><bx:guide x="10" y="10" angle="90"/><bx:guide x="250" y="370" angle="0"/><bx:guide x="250" y="370" angle="90"/><bx:guide x="125.517" y="273.529" angle="90"/><bx:guide x="124.06" y="232.004" angle="90"/><bx:export><bx:file format="svg" href="#object-0"/><bx:file format="svg" path="Untitled 2.svg"/></bx:export></defs><path d="M 27.54 224.516 C 32.258 223.775 38.034 224.132 42.213 225.249 C 45.878 226.229 49.189 227.571 51.567 230.201 C 54.159 233.07 55.796 238.203 56.702 242.306 C 57.579 246.277 57.608 250.238 57.069 254.411 C 56.489 258.898 54.954 264.686 53.034 268.35 C 51.422 271.427 49.689 273.627 46.981 275.503 C 43.94 277.611 38.667 279.25 35.243 279.905 C 32.48 280.434 30.46 280.329 27.907 279.905 C 25.102 279.439 21.811 278.613 19.103 276.97 C 16.216 275.219 13.029 271.427 11.217 269.451 C 9.981 268.104 9.132 267.345 8.649 266.149 C 8.273 265.218 8.136 264.118 8.206 263.122 C 7.361 257.079 7.605 246.323 8.065 241.234 C 8.035 240.517 8.103 239.766 8.282 239.005 C 8.92 236.291 11.06 232.019 13.968 229.651 C 17.223 227 22.845 225.252 27.54 224.516 Z" style="fill: rgb(73, 194, 242); stroke: rgb(5, 14, 26); stroke-width: 5px;" id="object-0"/></svg>