<?xml version="1.0" encoding="utf-8"?>
<svg xmlns="http://www.w3.org/2000/svg" viewBox="0 0 260 380" xmlns:bx="https://boxy-svg.com" width="260px" height="380px"><defs><bx:guide x="10" y="10" angle="0"/><bx:guide x="10" y="10" angle="90"/><bx:guide x="250" y="370" angle="0"/><bx:guide x="250" y="370" angle="90"/><bx:guide x="125.517" y="273.529" angle="90"/><bx:guide x="124.06" y="232.004" angle="90"/><bx:export><bx:file format="svg" path="Untitled 2.svg"/><bx:file format="svg" href="#object-0"/></bx:export></defs><path d="M 255.919 264.315 C 255.597 265.559 255.164 266.466 254.656 267.169 C 253.398 269.788 251.139 272.838 249.133 274.403 C 246.666 276.326 243.176 276.866 240.329 277.337 C 237.686 277.774 235.408 278.027 232.626 277.337 C 229.27 276.506 224.791 273.986 221.621 271.835 C 218.688 269.845 216.031 268.149 214.102 265.049 C 211.846 261.425 210.455 255.087 209.7 250.743 C 209.05 247.005 208.663 243.739 209.333 240.472 C 210.004 237.197 211.896 233.542 213.735 231.118 C 215.345 228.996 217.222 227.669 219.42 226.35 C 221.765 224.942 224.233 223.435 227.49 223.048 C 231.515 222.571 238.194 223.662 242.163 224.882 C 245.409 225.881 248.321 227.536 250.05 229.101 C 251.367 230.293 251.76 232.217 252.434 232.952 C 252.846 233.402 253.132 233.151 253.534 233.686 C 254.317 234.727 256.444 238.208 256.286 240.105 C 256.262 240.395 256.195 240.692 256.096 240.989 C 256.723 246.399 257.034 260.006 255.919 264.315 Z M 198.879 256.429 C 201.068 256.393 204.008 257.231 205.298 258.263 C 206.288 259.055 206.486 260.035 206.765 261.381 C 207.135 263.165 207.43 266.284 206.765 268.35 C 206.116 270.368 204.613 272.602 202.914 273.669 C 201.239 274.721 198.728 275.114 196.678 274.77 C 194.507 274.405 191.528 273.166 190.258 271.285 C 188.909 269.285 188.698 265.065 189.158 262.848 C 189.531 261.051 190.49 259.677 191.909 258.63 C 193.556 257.413 196.609 256.466 198.879 256.429 Z" style="stroke: rgb(5, 14, 26); stroke-width: 5px; fill: rgb(73, 194, 242);" id="object-0"/></svg>