<?xml version="1.0" encoding="utf-8"?>
<svg xmlns="http://www.w3.org/2000/svg" viewBox="0 0 260 380" xmlns:bx="https://boxy-svg.com" width="260px" height="380px"><defs><bx:guide x="10" y="10" angle="0"/><bx:guide x="10" y="10" angle="90"/><bx:guide x="250" y="370" angle="0"/><bx:guide x="250" y="370" angle="90"/><bx:export><bx:file format="svg"/></bx:export><bx:guide x="158.55" y="89.294" angle="90"/><bx:guide x="129.602" y="319.401" angle="90"/><bx:guide x="131.881" y="291.86" angle="90"/></defs><path stroke="rgb(255,0,0)" stroke-width="0" opacity="0.984313725490196" d="M 11.624 304.046 C 11.937 304.005 12.329 303.979 12.759 303.973 C 15.406 303.17 19.9 303.059 24.573 303.115 C 23.1 301.42 21.896 299.541 21.165 297.498 C 20.059 294.404 19.527 290.221 20.417 287.021 C 21.315 283.792 24.044 280.127 26.591 278.228 C 28.925 276.488 31.782 276.068 34.823 275.609 C 38.199 275.099 42.732 274.828 46.048 275.609 C 49.088 276.325 52.173 277.834 54.093 279.725 C 55.862 281.467 56.825 283.842 57.46 286.273 C 58.137 288.861 58.181 292.439 57.834 294.879 C 57.543 296.927 57.014 298.477 55.963 300.117 C 55.058 301.53 53.689 303.146 52.2 304.307 C 54.11 304.416 55.84 304.472 57.273 304.42 C 60.812 304.293 62.941 303.127 65.131 303.298 C 66.911 303.436 67.43 304.484 69.621 304.794 C 72.754 305.238 78.031 304.944 83.567 304.83 C 83.291 303.106 83.257 301.228 83.652 299.743 C 84.448 296.75 87.899 293.287 89.826 291.324 C 91.272 289.852 92.231 289.113 93.942 288.331 C 95.963 287.407 98.711 286.786 101.425 286.46 C 104.404 286.102 108.308 285.663 111.154 286.46 C 113.806 287.202 116.268 289.026 118.076 290.763 C 119.752 292.373 121.069 294.32 121.818 296.376 C 122.568 298.435 122.96 301.098 122.566 303.111 C 122.56 303.142 122.554 303.172 122.548 303.203 C 127.178 302.906 132.534 302.732 138.002 302.643 C 138.409 302.592 138.802 302.547 139.177 302.51 C 146.189 301.809 152.704 302.109 158.26 302.51 C 158.775 302.547 159.256 302.595 159.714 302.653 C 161.185 302.675 162.581 302.7 163.883 302.727 C 162.577 300.315 161.335 296.202 161.854 293.382 C 162.396 290.44 164.852 287.669 167.28 285.337 C 169.917 282.804 174.231 280.348 177.382 278.977 C 180.029 277.825 182.121 277.434 184.866 277.106 C 187.923 276.74 191.662 276.275 194.969 277.106 C 198.467 277.984 203.26 279.908 205.258 282.531 C 207.104 284.954 207.726 288.734 207.129 291.885 C 206.463 295.398 203.661 299.91 200.581 302.549 C 200.439 302.671 200.294 302.79 200.145 302.907 C 200.3 302.908 200.452 302.91 200.603 302.911 C 203.871 302.769 206.725 302.728 208.773 302.884 C 209.959 302.974 210.927 303.135 211.768 303.332 C 212.648 303.351 213.529 303.345 214.426 303.298 C 218.157 303.103 220.741 302.088 225.277 301.801 C 231.439 301.411 244.655 300.739 248.849 301.801 C 250.975 302.339 251.625 303.175 252.404 304.233 C 253.153 305.251 253.228 305.49 253.527 307.975 C 254.34 314.747 256.181 361.543 254.731 369.082 C 254.109 372.317 253.304 373.175 251.925 374.133 C 250.593 375.059 248.193 375.22 246.686 374.882 C 246.683 374.881 246.68 374.881 246.677 374.88 C 246.557 374.88 246.435 374.881 246.312 374.882 C 243.43 374.912 240.28 373.882 235.461 373.759 C 228.278 373.576 211.892 374.159 205.901 374.882 C 202.627 375.277 202.575 376.069 199.54 376.378 C 194.602 376.881 184.411 376.794 177.464 376.378 C 170.996 375.991 168.362 374.565 159.13 374.133 C 142.529 373.358 93.053 374.992 79.057 374.882 C 72.678 374.832 71.496 374.504 67.832 374.507 C 64.267 374.511 60.919 374.938 57.355 374.882 C 53.689 374.824 50.747 374.156 46.13 374.133 C 39.96 374.103 29.098 375.381 22.931 375.256 C 18.311 375.162 14.257 374.994 11.706 374.133 C 9.97 373.548 8.941 373.014 8.151 371.701 C 7.181 370.089 6.994 367.065 7.029 364.592 C 7.066 361.965 8.235 359.869 8.525 356.36 C 8.929 351.48 8.748 343.09 8.525 337.277 C 8.327 332.104 6.309 313.216 6.947 309.846 C 7.391 307.497 8.809 305.691 9.753 304.794 C 10.373 304.206 10.807 304.153 11.624 304.046 Z M 136.598 272.616 C 137.725 272.468 139.893 272.51 141.088 272.99 C 142.127 273.407 142.934 274.11 143.52 275.048 C 144.178 276.102 144.833 277.736 144.642 279.164 C 144.427 280.776 143.216 283.256 141.836 284.215 C 140.504 285.14 138.105 285.302 136.598 284.963 C 135.21 284.651 133.822 283.626 133.043 282.531 C 132.266 281.441 131.73 279.843 131.92 278.415 C 132.136 276.803 133.782 274.261 134.727 273.364 C 135.346 272.776 135.78 272.722 136.598 272.616 Z" style="fill-opacity: 1; fill-rule: nonzero; stroke: rgb(5, 14, 26); stroke-dasharray: none; stroke-dashoffset: 0px; stroke-linecap: butt; stroke-linejoin: miter; stroke-miterlimit: 4; stroke-opacity: 1; stroke-width: 5px; paint-order: normal; vector-effect: none; opacity: 1; mix-blend-mode: normal; isolation: auto; fill: rgb(73, 194, 242);"/></svg>