<?xml version="1.0" encoding="utf-8"?>
<svg xmlns="http://www.w3.org/2000/svg" viewBox="0 0 50 50" width="50px" height="50px" xmlns:bx="https://boxy-svg.com"><defs><bx:export><bx:file format="svg"/></bx:export></defs><path fill="rgb(255,0,0)" stroke="rgb(255,0,0)" stroke-width="0" opacity="0.9921568627450981" d="M 34.71 34.004 C 35.856 33.909 37.03 33.985 37.855 34.18 C 38.494 34.332 38.913 34.589 39.369 34.882 C 39.814 35.167 40.198 35.472 40.563 35.905 C 40.974 36.393 41.416 37.06 41.669 37.717 C 41.925 38.384 42.083 39.149 42.077 39.881 C 42.07 40.629 41.924 41.447 41.611 42.161 C 41.286 42.903 40.6 43.749 40.126 44.237 C 39.764 44.609 39.494 44.774 39.078 44.997 C 38.602 45.251 38.159 45.428 37.389 45.64 C 36.239 45.957 34.057 46.417 32.556 46.576 C 31.205 46.719 30.299 46.682 28.771 46.634 C 26.777 46.573 23.686 46.202 21.433 46.108 C 19.415 46.024 17.304 46.027 15.842 46.05 C 14.773 46.065 14.076 46.275 13.28 46.166 C 12.53 46.064 11.794 45.796 11.184 45.465 C 10.609 45.152 10.12 44.736 9.698 44.266 C 9.275 43.792 8.901 43.263 8.65 42.629 C 8.376 41.935 8.18 41.013 8.185 40.231 C 8.189 39.474 8.336 38.716 8.65 38.01 C 8.985 37.26 9.632 36.41 10.194 35.876 C 10.682 35.41 11.227 35.117 11.766 34.882 C 12.277 34.659 12.512 34.569 13.338 34.472 C 14.529 34.334 16.901 34.299 19.18 34.321 C 19.05 33.025 18.91 31.635 18.842 30.291 C 18.71 27.696 19.511 22.663 18.696 22.076 C 18.106 21.653 16.55 23.778 15.726 24.182 C 15.137 24.47 14.726 24.522 14.212 24.591 C 13.697 24.659 13.204 24.686 12.64 24.591 C 11.994 24.481 11.152 24.221 10.543 23.889 C 9.968 23.576 9.48 23.161 9.058 22.691 C 8.634 22.217 8.26 21.692 8.01 21.053 C 7.733 20.348 7.562 19.305 7.544 18.598 C 7.529 18.015 7.646 17.553 7.777 17.077 C 7.902 16.621 8.017 16.252 8.302 15.791 C 8.66 15.209 9.232 14.551 9.902 13.891 C 10.706 13.101 12.167 12.115 12.902 11.406 C 13.444 10.883 13.721 10.41 14.096 10.032 C 14.412 9.712 14.639 9.598 14.998 9.243 C 15.497 8.748 16.019 7.995 16.833 7.225 C 17.924 6.192 19.971 4.311 21.2 3.6 C 22.07 3.096 22.668 2.933 23.471 2.84 C 24.313 2.742 25.44 2.888 26.15 3.074 C 26.709 3.221 27.066 3.439 27.489 3.717 C 27.931 4.007 28.372 4.375 28.741 4.798 C 29.123 5.238 29.487 5.785 29.731 6.319 C 29.968 6.838 30.071 7.013 30.198 7.956 C 30.469 9.995 30.627 17.276 30.605 19.65 C 30.593 20.934 30.452 20.992 30.43 22.164 C 30.395 24.048 30.475 27.876 30.605 30.408 C 30.683 31.952 30.854 33.5 30.984 34.88 C 32.469 34.672 33.547 34.102 34.71 34.004 Z" style="fill: rgb(250, 160, 50); fill-opacity: 1; fill-rule: nonzero; stroke: rgb(5, 14, 26); stroke-dasharray: none; stroke-dashoffset: 0px; stroke-linecap: butt; stroke-linejoin: miter; stroke-miterlimit: 4; stroke-opacity: 1; stroke-width: 5px; paint-order: normal; vector-effect: none; opacity: 1; mix-blend-mode: normal; isolation: auto;"/></svg>