<?xml version="1.0" encoding="utf-8"?>
<svg xmlns="http://www.w3.org/2000/svg" viewBox="0 0 50 50" width="50px" height="50px" xmlns:bx="https://boxy-svg.com"><defs><bx:export><bx:file format="svg"/></bx:export></defs><path fill="rgb(255,0,0)" stroke="rgb(255,0,0)" stroke-width="0" opacity="0.9882352941176471" d="M 21.442 3.093 C 23.48 2.925 26.432 2.988 28.637 3.213 C 30.642 3.418 32.322 3.514 34.17 4.287 C 36.31 5.183 39.166 7.205 40.604 8.645 C 41.726 9.767 42.234 10.659 42.68 11.987 C 43.197 13.528 43.426 15.776 43.233 17.477 C 43.053 19.061 42.488 20.547 41.711 21.893 C 40.94 23.231 39.968 24.335 38.597 25.535 C 36.984 26.947 34.858 28.267 32.372 29.712 C 29.389 31.447 21.957 34.697 21.649 35.143 C 21.565 35.266 21.818 35.211 22.134 35.203 C 23.013 35.181 26.165 34.628 28.36 34.487 C 30.713 34.335 33.632 34.31 35.831 34.367 C 37.702 34.417 39.433 34.319 40.812 34.725 C 42.019 35.082 43.094 35.826 43.786 36.456 C 44.359 36.978 44.64 37.499 44.893 38.128 C 45.164 38.802 45.325 39.708 45.308 40.396 C 45.292 41.006 45.188 41.483 44.893 42.067 C 44.54 42.765 43.923 43.691 43.164 44.275 C 42.386 44.873 41.436 45.335 40.259 45.588 C 38.851 45.891 36.671 45.714 35.139 45.707 C 33.809 45.702 33.199 45.526 31.542 45.588 C 28.913 45.688 23.508 46.499 20.197 46.662 C 17.422 46.799 13.888 46.744 12.865 46.662 C 12.496 46.633 12.553 46.555 12.311 46.543 C 11.966 46.526 11.454 46.699 10.928 46.662 C 10.286 46.617 9.42 46.475 8.714 46.185 C 7.963 45.876 7.164 45.43 6.57 44.812 C 5.916 44.132 5.352 43.322 5.047 42.186 C 4.648 40.689 4.669 38.038 4.909 36.337 C 5.114 34.881 5.457 33.717 6.155 32.517 C 6.884 31.264 8.167 29.988 9.268 28.996 C 10.275 28.087 10.919 27.62 12.45 26.728 C 14.777 25.371 19.742 23.344 22.688 21.714 C 25.226 20.311 28.1 18.76 29.259 17.596 C 29.973 16.88 30.438 16.203 30.228 15.687 C 29.999 15.129 28.741 14.679 27.668 14.433 C 26.343 14.13 24.174 14.101 22.688 14.314 C 21.346 14.506 20.407 14.88 19.09 15.508 C 17.433 16.297 15.163 18.355 13.556 18.969 C 12.366 19.425 11.322 19.47 10.374 19.447 C 9.55 19.426 8.867 19.259 8.161 18.969 C 7.41 18.661 6.587 18.137 6.017 17.596 C 5.468 17.077 5.048 16.478 4.771 15.806 C 4.478 15.095 4.308 14.199 4.355 13.419 C 4.404 12.648 4.673 11.81 5.047 11.151 C 5.403 10.527 5.71 10.179 6.501 9.54 C 7.757 8.524 10.687 6.684 12.588 5.719 C 14.203 4.899 15.639 4.371 17.153 3.929 C 18.59 3.51 19.769 3.232 21.442 3.093 Z" style="fill: rgb(250, 160, 50); fill-opacity: 1; fill-rule: nonzero; stroke: rgb(5, 14, 26); stroke-dasharray: none; stroke-dashoffset: 0px; stroke-linecap: butt; stroke-linejoin: miter; stroke-miterlimit: 4; stroke-opacity: 1; stroke-width: 5px; paint-order: normal; vector-effect: none; opacity: 1; mix-blend-mode: normal; isolation: auto;"/></svg>