<?xml version="1.0" encoding="utf-8"?>
<svg xmlns="http://www.w3.org/2000/svg" viewBox="0 0 50 50" width="50px" height="50px" xmlns:bx="https://boxy-svg.com"><defs><bx:export><bx:file format="svg"/></bx:export></defs><path stroke="rgb(255,0,0)" opacity="0.984313725490196" d="M 23.2 14.012 C 23.954 13.964 25.472 14.142 27.157 14.911 C 29.849 16.14 36.456 20.698 38.037 22.195 C 38.736 22.856 38.777 23.058 38.937 23.633 C 39.118 24.288 39.138 25.334 38.937 25.971 C 38.761 26.529 38.352 27.004 37.947 27.32 C 37.565 27.619 36.935 27.598 36.599 27.86 C 36.298 28.094 36.424 28.333 35.969 28.759 C 34.95 29.714 30.922 32.031 29.225 33.525 C 27.899 34.692 27.255 36.281 26.258 36.852 C 25.483 37.296 24.558 37.358 23.92 37.212 C 23.363 37.084 22.861 36.726 22.571 36.223 C 22.228 35.627 21.895 34.655 22.211 33.705 C 22.664 32.344 25.384 29.822 26.258 28.939 C 26.721 28.471 27.236 28.26 27.247 28.13 C 27.253 28.058 27.237 28.058 26.977 28.04 C 25.581 27.942 10.684 29.324 8.093 28.759 C 7.111 28.545 7.033 28.262 6.744 27.77 C 6.412 27.205 6.238 26.071 6.385 25.432 C 6.512 24.876 6.814 24.417 7.374 24.083 C 8.141 23.626 9.223 23.514 10.971 23.364 C 13.912 23.11 21.145 23.547 24.459 23.364 C 26.716 23.239 29.566 23.368 29.585 22.734 C 29.608 21.948 22.96 19.858 21.851 18.418 C 21.16 17.519 21.326 16.426 21.492 15.72 C 21.628 15.14 22.156 14.656 22.481 14.371 C 22.723 14.159 22.806 14.037 23.2 14.012 Z" style="fill-opacity: 1; fill-rule: nonzero; stroke: rgb(5, 14, 26); stroke-dasharray: none; stroke-dashoffset: 0px; stroke-linecap: butt; stroke-linejoin: miter; stroke-miterlimit: 4; stroke-opacity: 1; paint-order: normal; vector-effect: none; opacity: 1; mix-blend-mode: normal; isolation: auto; stroke-width: 0px; fill: rgb(5, 14, 26);"/></svg>