<?xml version="1.0" encoding="utf-8"?>
<svg xmlns="http://www.w3.org/2000/svg" viewBox="0 0 39 50" width="50px" height="50px" xmlns:bx="https://boxy-svg.com" preserveAspectRatio="none"><defs><bx:export><bx:file format="svg"/></bx:export></defs><path fill="rgb(255,0,0)" stroke="rgb(255,0,0)" stroke-width="0" opacity="0.996078431372549" d="M 17.941 7.372 C 18.353 7.304 18.891 7.325 19.31 7.486 C 19.739 7.651 20.205 8.03 20.478 8.369 C 20.724 8.675 20.854 9.006 20.934 9.396 C 21.024 9.831 20.953 10.192 20.934 10.878 C 20.905 11.97 20.672 14.306 20.706 15.61 C 20.733 16.633 20.935 17.05 20.991 18.176 C 21.074 19.821 21.077 23.442 20.991 24.846 C 20.943 25.641 20.806 25.8 20.763 26.442 C 20.708 27.268 20.703 28.444 20.763 29.464 C 20.824 30.506 20.785 32.472 21.134 32.628 C 21.42 32.756 21.837 31.791 22.445 31.203 C 23.334 30.343 25.328 28.466 26.208 27.896 C 26.71 27.571 26.981 27.513 27.348 27.44 C 27.682 27.374 27.96 27.329 28.317 27.44 C 28.782 27.585 29.548 28.058 29.885 28.438 C 30.161 28.748 30.268 29.122 30.341 29.464 C 30.411 29.787 30.4 30.126 30.341 30.433 C 30.284 30.734 30.168 31.024 29.999 31.288 C 29.822 31.567 29.678 31.686 29.287 32.058 C 28.55 32.759 26.786 34.076 25.438 35.393 C 23.881 36.915 21.526 39.986 20.507 40.781 C 20.025 41.157 19.835 41.162 19.481 41.237 C 19.131 41.312 18.8 41.315 18.397 41.237 C 17.908 41.143 17.494 41.049 16.744 40.61 C 15.413 39.832 12.244 37.261 10.872 36.106 C 9.955 35.334 9.45 34.914 8.905 34.253 C 8.388 33.627 7.865 32.884 7.65 32.258 C 7.472 31.737 7.411 31.262 7.536 30.775 C 7.674 30.244 8.154 29.545 8.534 29.208 C 8.845 28.932 9.212 28.826 9.56 28.751 C 9.896 28.679 10.25 28.679 10.587 28.751 C 10.935 28.826 11.259 28.972 11.613 29.208 C 12.042 29.493 12.523 29.987 12.953 30.433 C 13.398 30.896 13.742 31.454 14.235 31.944 C 14.767 32.472 15.866 33.482 16.06 33.483 C 16.139 33.484 16.093 33.39 16.088 33.227 C 16.076 32.792 15.809 31.401 15.746 30.262 C 15.671 28.886 15.67 26.558 15.746 25.473 C 15.793 24.802 15.927 24.723 15.974 24.048 C 16.051 22.946 16.044 20.481 15.974 19.145 C 15.921 18.111 15.742 17.574 15.689 16.579 C 15.625 15.362 15.632 13.599 15.689 12.303 C 15.74 11.157 15.703 9.95 15.974 9.168 C 16.183 8.565 16.556 8.129 16.915 7.828 C 17.224 7.568 17.561 7.434 17.941 7.372 Z" style="fill: rgb(5, 14, 26); fill-opacity: 1; fill-rule: nonzero; stroke: rgb(5, 14, 26); stroke-dasharray: none; stroke-dashoffset: 0px; stroke-linecap: butt; stroke-linejoin: miter; stroke-miterlimit: 4; stroke-opacity: 1; stroke-width: 0px; paint-order: normal; vector-effect: none; opacity: 1; mix-blend-mode: normal; isolation: auto;"/></svg>