<?xml version="1.0" encoding="utf-8"?>
<svg xmlns="http://www.w3.org/2000/svg" viewBox="0 0 50 50" width="50px" height="50px" xmlns:bx="https://boxy-svg.com"><defs><bx:export><bx:file format="svg"/></bx:export></defs><path stroke="rgb(255,0,0)" opacity="0.996078431372549" d="M 30.156 3.557 C 31.151 3.531 31.627 3.505 32.343 3.557 C 33.045 3.608 33.751 3.607 34.409 3.86 C 35.101 4.127 35.935 4.714 36.383 5.167 C 36.735 5.521 36.893 5.822 37.052 6.261 C 37.238 6.769 37.398 7.463 37.356 8.084 C 37.312 8.737 36.886 9.175 36.748 10.089 C 36.542 11.46 36.503 14.072 36.566 15.862 C 36.625 17.493 36.938 18.324 37.052 20.419 C 37.231 23.704 36.799 30.69 37.235 34.517 C 37.574 37.498 38.868 40.418 38.936 41.87 C 38.971 42.629 38.851 42.847 38.632 43.328 C 38.386 43.87 37.958 44.521 37.448 44.938 C 36.922 45.368 36.264 45.679 35.502 45.85 C 34.621 46.049 33.589 45.975 32.403 45.911 C 30.966 45.833 28.885 45.409 27.421 45.303 C 26.187 45.214 25.392 45.2 24.14 45.242 C 22.628 45.293 20.425 45.421 18.914 45.668 C 17.635 45.876 16.432 46.483 15.571 46.518 C 14.956 46.544 14.595 46.434 14.113 46.215 C 13.571 45.968 12.92 45.54 12.503 45.03 C 12.073 44.505 11.791 44.019 11.591 43.085 C 11.282 41.642 11.613 38.43 11.409 36.704 C 11.251 35.37 10.824 34.88 10.68 33.423 C 10.468 31.287 10.666 27.215 10.68 24.673 C 10.691 22.548 10.854 21.065 10.741 19.082 C 10.617 16.916 10.013 14.04 9.889 12.155 C 9.796 10.711 9.805 9.469 9.889 8.57 C 9.95 7.937 9.975 7.593 10.194 7.111 C 10.439 6.569 10.961 5.89 11.378 5.501 C 11.728 5.175 12.048 4.993 12.472 4.833 C 12.945 4.655 13.7 4.537 14.113 4.528 C 14.401 4.523 14.472 4.655 14.781 4.651 C 15.272 4.642 16.045 4.354 16.909 4.286 C 18.027 4.196 19.855 4.379 21.04 4.286 C 22.023 4.209 22.474 3.972 23.593 3.86 C 25.216 3.697 28.61 3.596 30.156 3.557 Z" style="fill-opacity: 1; fill-rule: nonzero; stroke: rgb(5, 14, 26); stroke-dasharray: none; stroke-dashoffset: 0px; stroke-linecap: butt; stroke-linejoin: miter; stroke-miterlimit: 4; stroke-opacity: 1; paint-order: normal; vector-effect: none; opacity: 1; mix-blend-mode: normal; isolation: auto; stroke-width: 5px; fill: rgb(85, 179, 59); transform-box: fill-box; transform-origin: 50% 50%;" transform="matrix(0.998863, 0.047683, -0.047683, 0.998863, 0, 0)"/><path fill="rgb(255,0,0)" stroke="rgb(255,0,0)" stroke-width="0" opacity="0.9882352941176471" d="M 17.35 21.675 C 18.008 21.57 19.17 21.73 20.364 21.894 C 20.344 20.726 20.369 19.708 20.483 19.139 C 20.638 18.36 20.887 18.131 21.228 17.796 C 21.559 17.472 22.035 17.23 22.481 17.14 C 22.93 17.049 23.508 17.119 23.913 17.259 C 24.28 17.386 24.582 17.595 24.838 17.886 C 25.12 18.205 25.339 18.425 25.495 19.139 C 25.627 19.748 25.649 20.927 25.645 22.214 C 26.247 22.209 26.829 22.189 27.374 22.152 C 28.605 22.067 29.891 21.545 30.715 21.675 C 31.317 21.769 31.723 22.079 32.058 22.42 C 32.382 22.751 32.611 23.265 32.714 23.673 C 32.807 24.039 32.819 24.372 32.714 24.747 C 32.591 25.19 32.246 25.812 31.909 26.15 C 31.606 26.452 31.303 26.588 30.835 26.746 C 30.214 26.956 29.471 27.081 28.388 27.164 C 27.697 27.217 26.741 27.241 25.723 27.243 C 25.837 28.144 26.025 28.703 26.091 29.401 C 26.161 30.129 26.295 30.84 26.151 31.43 C 26.019 31.969 25.697 32.496 25.345 32.832 C 25.019 33.143 24.539 33.335 24.152 33.429 C 23.805 33.513 23.495 33.525 23.138 33.429 C 22.716 33.315 22.136 33.047 21.795 32.683 C 21.444 32.308 21.26 31.842 21.079 31.191 C 20.835 30.315 20.761 29.23 20.662 27.731 C 20.649 27.542 20.635 27.332 20.62 27.106 C 19.421 27.045 18.292 26.96 17.529 26.746 C 16.821 26.548 16.374 26.305 16.008 25.941 C 15.669 25.604 15.453 25.089 15.351 24.688 C 15.262 24.337 15.255 24.03 15.351 23.673 C 15.465 23.252 15.756 22.666 16.097 22.331 C 16.428 22.007 16.7 21.778 17.35 21.675 Z" style="fill: rgb(5, 14, 26); fill-opacity: 1; fill-rule: nonzero; stroke: rgb(5, 14, 26); stroke-dasharray: none; stroke-dashoffset: 0px; stroke-linecap: butt; stroke-linejoin: miter; stroke-miterlimit: 4; stroke-opacity: 1; stroke-width: 0px; paint-order: normal; vector-effect: none; opacity: 1; mix-blend-mode: normal; isolation: auto;"/></svg>