<?xml version="1.0" encoding="utf-8"?>
<svg xmlns="http://www.w3.org/2000/svg" viewBox="0 0 50 50" width="50px" height="50px" xmlns:bx="https://boxy-svg.com"><defs><bx:export><bx:file format="svg"/></bx:export></defs><path stroke="rgb(255,0,0)" opacity="0.996078431372549" d="M 32.09 3.408 C 33.085 3.382 33.561 3.356 34.277 3.408 C 34.979 3.459 35.685 3.458 36.343 3.711 C 37.035 3.978 37.869 4.565 38.317 5.018 C 38.669 5.372 38.827 5.673 38.986 6.112 C 39.172 6.62 39.332 7.314 39.29 7.935 C 39.246 8.588 38.82 9.026 38.682 9.94 C 38.476 11.311 38.437 13.923 38.5 15.713 C 38.559 17.344 38.872 18.175 38.986 20.27 C 39.165 23.555 38.733 30.541 39.169 34.368 C 39.508 37.349 40.802 40.269 40.87 41.721 C 40.905 42.48 40.785 42.698 40.566 43.179 C 40.32 43.721 39.892 44.372 39.382 44.789 C 38.856 45.219 38.198 45.53 37.436 45.701 C 36.555 45.9 35.523 45.826 34.337 45.762 C 32.9 45.684 28.885 45.409 27.421 45.303 C 26.187 45.214 25.392 45.2 24.14 45.242 C 22.628 45.293 18.66 45.505 17.149 45.752 C 15.87 45.96 14.667 46.567 13.806 46.602 C 13.191 46.628 12.83 46.518 12.348 46.299 C 11.806 46.052 11.155 45.624 10.738 45.114 C 10.308 44.589 10.026 44.103 9.826 43.169 C 9.517 41.726 9.848 38.514 9.644 36.788 C 9.486 35.454 9.059 34.964 8.915 33.507 C 8.703 31.371 8.901 27.299 8.915 24.757 C 8.926 22.632 9.089 21.149 8.976 19.166 C 8.852 17 8.248 14.124 8.124 12.239 C 8.031 10.795 8.04 9.553 8.124 8.654 C 8.185 8.021 8.21 7.677 8.429 7.195 C 8.674 6.653 9.196 5.974 9.613 5.585 C 9.963 5.259 10.283 5.077 10.707 4.917 C 11.18 4.739 11.935 4.621 12.348 4.612 C 12.636 4.607 12.707 4.739 13.016 4.735 C 13.507 4.726 14.28 4.438 15.144 4.37 C 16.262 4.28 19.855 4.379 21.04 4.286 C 22.023 4.209 22.474 3.972 23.593 3.86 C 25.216 3.697 30.544 3.447 32.09 3.408 Z" style="fill-opacity: 1; fill-rule: nonzero; stroke: rgb(5, 14, 26); stroke-dasharray: none; stroke-dashoffset: 0px; stroke-linecap: butt; stroke-linejoin: miter; stroke-miterlimit: 4; stroke-opacity: 1; paint-order: normal; vector-effect: none; opacity: 1; mix-blend-mode: normal; isolation: auto; stroke-width: 5px; fill: rgb(85, 179, 59); transform-box: fill-box; transform-origin: 50% 50%;" transform="matrix(0.998863, 0.047683, -0.047683, 0.998863, 0.001453, 0.004065)"/><path fill="rgb(255,0,0)" stroke="rgb(255,0,0)" stroke-width="0" opacity="0.9882352941176471" d="M 17.35 21.675 C 18.008 21.57 19.17 21.73 20.364 21.894 C 20.344 20.726 20.369 19.708 20.483 19.139 C 20.638 18.36 20.887 18.131 21.228 17.796 C 21.559 17.472 22.035 17.23 22.481 17.14 C 22.93 17.049 23.508 17.119 23.913 17.259 C 24.28 17.386 24.582 17.595 24.838 17.886 C 25.12 18.205 25.339 18.425 25.495 19.139 C 25.627 19.748 25.649 20.927 25.645 22.214 C 26.247 22.209 26.829 22.189 27.374 22.152 C 28.605 22.067 29.891 21.545 30.715 21.675 C 31.317 21.769 31.723 22.079 32.058 22.42 C 32.382 22.751 32.611 23.265 32.714 23.673 C 32.807 24.039 32.819 24.372 32.714 24.747 C 32.591 25.19 32.246 25.812 31.909 26.15 C 31.606 26.452 31.303 26.588 30.835 26.746 C 30.214 26.956 29.471 27.081 28.388 27.164 C 27.697 27.217 26.741 27.241 25.723 27.243 C 25.837 28.144 26.025 28.703 26.091 29.401 C 26.161 30.129 26.295 30.84 26.151 31.43 C 26.019 31.969 25.697 32.496 25.345 32.832 C 25.019 33.143 24.539 33.335 24.152 33.429 C 23.805 33.513 23.495 33.525 23.138 33.429 C 22.716 33.315 22.136 33.047 21.795 32.683 C 21.444 32.308 21.26 31.842 21.079 31.191 C 20.835 30.315 20.761 29.23 20.662 27.731 C 20.649 27.542 20.635 27.332 20.62 27.106 C 19.421 27.045 18.292 26.96 17.529 26.746 C 16.821 26.548 16.374 26.305 16.008 25.941 C 15.669 25.604 15.453 25.089 15.351 24.688 C 15.262 24.337 15.255 24.03 15.351 23.673 C 15.465 23.252 15.756 22.666 16.097 22.331 C 16.428 22.007 16.7 21.778 17.35 21.675 Z" style="fill: rgb(5, 14, 26); fill-opacity: 1; fill-rule: nonzero; stroke: rgb(5, 14, 26); stroke-dasharray: none; stroke-dashoffset: 0px; stroke-linecap: butt; stroke-linejoin: miter; stroke-miterlimit: 4; stroke-opacity: 1; stroke-width: 0px; paint-order: normal; vector-effect: none; opacity: 1; mix-blend-mode: normal; isolation: auto;"/></svg>