<?xml version="1.0" encoding="utf-8"?>
<svg xmlns="http://www.w3.org/2000/svg" viewBox="0 0 50 50" width="50px" height="50px" xmlns:bx="https://boxy-svg.com"><defs><bx:export><bx:file format="svg"/></bx:export></defs><path fill="rgb(255,0,0)" stroke="rgb(255,0,0)" stroke-width="0" opacity="0.9764705882352941" d="M 27.484 32.323 C 27.549 35.074 28.813 39.273 28.383 41.496 C 28.073 43.099 27.404 44.235 26.315 45.003 C 25.119 45.846 23.509 45.868 21.279 46.082 C 18.02 46.394 10.682 46.644 7.971 46.082 C 6.411 45.758 5.647 45.329 5.003 44.553 C 4.371 43.791 4.263 42.84 4.104 41.496 C 3.878 39.579 4.395 36.406 4.284 33.762 C 4.169 31.016 3.024 27.304 3.385 25.309 C 3.635 23.923 4.196 23.042 5.093 22.342 C 6.078 21.574 7.456 21.381 9.23 21.083 C 10.202 20.92 11.528 20.851 12.926 20.808 C 12.707 16.961 12.61 12.124 12.737 10.202 C 12.827 8.83 12.941 8.405 13.276 7.685 C 13.59 7.011 13.989 6.378 14.625 5.976 C 15.345 5.521 16.356 5.306 17.503 5.257 C 18.945 5.195 21.083 6.059 22.718 5.976 C 24.247 5.899 25.099 5.144 27.034 4.897 C 29.901 4.531 36.395 4.447 38.904 4.537 C 40.332 4.589 41.016 4.594 41.782 4.897 C 42.431 5.155 42.912 5.544 43.31 6.066 C 43.74 6.631 44.028 7.204 44.21 8.224 C 44.488 9.792 44.398 13.292 44.21 15.058 C 44.071 16.352 43.635 16.713 43.49 18.116 C 43.267 20.269 43.961 25.22 43.49 27.288 C 43.182 28.641 42.653 29.46 41.961 30.075 C 41.333 30.635 40.831 30.759 39.623 30.975 C 37.487 31.357 32.755 31.387 29.192 31.334 C 28.648 31.326 28.075 31.318 27.483 31.309 C 27.476 31.647 27.476 31.986 27.484 32.323 Z" style="fill: rgb(128, 121, 128); fill-opacity: 1; fill-rule: nonzero; stroke: rgb(5, 14, 26); stroke-dasharray: none; stroke-dashoffset: 0px; stroke-linecap: butt; stroke-linejoin: miter; stroke-miterlimit: 4; stroke-opacity: 1; stroke-width: 5px; paint-order: normal; vector-effect: none; opacity: 1; mix-blend-mode: normal; isolation: auto;"/></svg>