<?xml version="1.0" encoding="utf-8"?>
<svg xmlns="http://www.w3.org/2000/svg" viewBox="0 0 50 50" width="50px" height="50px" xmlns:bx="https://boxy-svg.com"><defs><bx:export><bx:file format="svg"/></bx:export></defs><path stroke="rgb(255,0,0)" stroke-width="0" opacity="0.9764705882352941" d="M 14.805 2.559 C 15.817 2.625 17.532 3.206 18.312 4.088 C 19.108 4.988 18.329 7.006 19.481 7.954 C 21.118 9.302 26.556 9.011 29.013 9.933 C 30.912 10.645 32.15 11.317 33.419 12.54 C 34.792 13.864 36.151 15.916 36.836 17.756 C 37.493 19.521 37.976 21.275 37.555 23.331 C 37.029 25.901 32.703 30.02 32.879 31.964 C 33.002 33.313 35.001 33.652 35.757 34.661 C 36.487 35.637 37.086 36.856 37.375 37.899 C 37.633 38.827 37.755 39.711 37.555 40.596 C 37.342 41.541 36.902 42.571 36.027 43.384 C 34.926 44.406 32.973 45.428 30.991 45.902 C 28.699 46.45 25.478 46.593 22.898 46.082 C 20.323 45.571 17.222 43.876 15.524 42.844 C 14.352 42.132 13.613 41.304 13.096 40.776 C 12.768 40.441 12.707 40.207 12.467 39.967 C 12.227 39.727 11.989 39.715 11.658 39.337 C 11.071 38.667 9.832 37.147 9.32 35.74 C 8.756 34.193 8.235 32.03 8.6 30.345 C 8.97 28.64 10.349 26.826 11.568 25.579 C 12.714 24.407 14.551 24.274 15.614 22.971 C 16.821 21.492 18.694 18.511 18.132 16.857 C 17.538 15.109 12.846 14.22 11.658 12.9 C 10.848 12.001 10.76 11.151 10.578 10.202 C 10.393 9.235 10.302 8.209 10.578 7.145 C 10.898 5.916 11.818 4.015 12.647 3.278 C 13.284 2.712 13.982 2.506 14.805 2.559 Z" style="fill-opacity: 1; fill-rule: nonzero; stroke: rgb(5, 14, 26); stroke-dasharray: none; stroke-dashoffset: 0px; stroke-linecap: butt; stroke-linejoin: miter; stroke-miterlimit: 4; stroke-opacity: 1; stroke-width: 5px; paint-order: normal; vector-effect: none; opacity: 1; mix-blend-mode: normal; isolation: auto; fill: rgb(255, 112, 112);"/></svg>