<?xml version="1.0" encoding="utf-8"?>
<svg xmlns="http://www.w3.org/2000/svg" viewBox="0 0 50 50" width="50px" height="50px" xmlns:bx="https://boxy-svg.com"><defs><bx:export><bx:file format="svg"/></bx:export></defs><path stroke="rgb(255,0,0)" stroke-width="0" opacity="0.9686274509803922" d="M 27.754 4.897 C 29.458 4.765 32.414 4.527 34.048 4.897 C 34.936 5.098 35.718 5.386 36.329 5.806 C 36.678 6.004 36.982 6.217 37.196 6.426 C 37.793 7.009 37.853 7.53 38.095 8.584 C 38.486 10.287 38.652 12.668 38.814 16.317 C 39.08 22.274 39.808 38.593 38.994 42.754 C 38.645 44.538 38.256 44.899 37.465 45.542 C 36.636 46.217 35.447 46.399 34.048 46.621 C 32.256 46.906 30.113 46.883 27.394 46.801 C 23.782 46.692 16.642 46.42 13.906 45.722 C 12.342 45.323 11.584 45.03 10.938 44.193 C 10.252 43.304 10.095 41.983 10.039 40.416 C 9.964 38.326 10.935 35.232 11.118 32.503 C 11.309 29.665 11.343 26.287 11.118 23.691 C 10.925 21.46 10.225 19.858 10.039 17.756 C 9.875 15.908 9.684 13.458 9.863 11.65 C 9.449 10.896 9.224 9.911 9.32 9.123 C 9.444 8.104 10.308 6.763 11.028 6.156 C 11.639 5.641 12.03 5.594 13.186 5.437 C 15.384 5.138 21.986 5.62 24.516 5.437 C 26.058 5.325 26.44 4.999 27.754 4.897 Z" style="fill-opacity: 1; fill-rule: nonzero; stroke: rgb(5, 14, 26); stroke-dasharray: none; stroke-dashoffset: 0px; stroke-linecap: butt; stroke-linejoin: miter; stroke-miterlimit: 4; stroke-opacity: 1; stroke-width: 5px; paint-order: normal; vector-effect: none; opacity: 1; mix-blend-mode: normal; isolation: auto; fill: rgb(242, 242, 218);"/><path stroke="rgb(255,0,0)" opacity="0.9803921568627451" d="M 25.538 15.271 C 26.025 15.444 26.418 15.474 26.707 16.26 C 27.394 18.125 27.196 26.509 27.067 29.568 C 27.036 30.293 27.003 30.924 26.953 31.481 C 28.549 31.526 29.95 31.629 30.574 31.816 C 31.355 32.051 31.485 32.327 31.743 32.806 C 32.05 33.375 32.249 34.505 32.103 35.144 C 31.975 35.7 31.86 36.172 31.113 36.492 C 29.615 37.134 23.713 37.184 21.582 36.852 C 20.235 36.643 19.305 36.319 18.794 35.683 C 18.331 35.106 18.334 33.992 18.434 33.345 C 18.519 32.802 18.861 32.279 19.154 31.996 C 19.389 31.769 19.412 31.718 19.963 31.637 C 20.254 31.594 20.774 31.555 21.434 31.524 C 21.418 30.757 21.444 30.029 21.492 29.568 C 21.569 28.821 21.909 28.875 22.031 27.95 C 22.139 27.13 22.092 25.38 22.028 23.492 C 22.001 23.51 21.972 23.527 21.941 23.544 C 21.377 23.842 20.096 24.06 19.423 23.903 C 18.855 23.771 18.364 23.406 18.075 22.914 C 17.743 22.349 17.585 21.29 17.715 20.576 C 17.841 19.886 18.522 19.017 18.794 18.688 C 18.939 18.513 18.964 18.549 19.154 18.418 C 19.509 18.173 20.604 17.599 20.952 17.249 C 21.178 17.022 21.15 16.853 21.312 16.62 C 21.515 16.327 21.841 15.859 22.121 15.63 C 22.354 15.441 22.51 15.341 22.84 15.271 C 23.19 15.196 23.808 15.127 24.325 15.173 C 24.752 15.144 25.217 15.157 25.538 15.271 Z" style="fill-opacity: 1; fill-rule: nonzero; stroke: rgb(5, 14, 26); stroke-dasharray: none; stroke-dashoffset: 0px; stroke-linecap: butt; stroke-linejoin: miter; stroke-miterlimit: 4; stroke-opacity: 1; paint-order: normal; vector-effect: none; opacity: 1; mix-blend-mode: normal; isolation: auto; stroke-width: 0px; fill: rgb(5, 14, 26);"/></svg>