<?xml version="1.0" encoding="utf-8"?>
<svg xmlns="http://www.w3.org/2000/svg" viewBox="0 0 50 50" width="50px" height="50px" xmlns:bx="https://boxy-svg.com"><defs><bx:export><bx:file format="svg"/></bx:export></defs><path stroke="rgb(255,0,0)" stroke-width="0" opacity="0.9647058823529412" d="M 18.042 46.441 C 17.018 47.188 16.119 47.427 15.165 47.34 C 14.17 47.25 12.843 46.635 12.197 45.812 C 11.524 44.954 10.948 43.76 11.298 42.215 C 11.574 40.997 12.79 38.885 14.158 36.876 C 13.607 36.467 13.049 36.052 12.467 35.651 C 9.538 33.632 5.586 30.225 4.104 28.367 C 3.228 27.269 3.083 26.586 2.845 25.669 C 2.617 24.787 2.41 23.909 2.665 22.971 C 2.969 21.857 4.083 20.234 4.913 19.464 C 5.581 18.846 6.177 18.606 7.071 18.385 C 8.181 18.111 9.693 17.831 11.208 18.206 C 13.095 18.672 16.307 22.516 17.503 21.623 C 19.055 20.463 16.751 10.963 17.592 7.864 C 18.157 5.787 19.415 4.422 20.38 3.638 C 21.081 3.069 21.706 3.002 22.538 2.919 C 23.52 2.821 24.971 2.859 25.955 3.278 C 26.91 3.686 27.752 4.44 28.383 5.347 C 29.077 6.343 29.534 7.77 29.822 9.123 C 30.125 10.548 29.348 13.459 30.092 13.709 C 30.973 14.006 33.724 10.09 35.487 9.213 C 36.95 8.485 38.52 8.135 39.803 8.314 C 40.984 8.479 42.271 9.079 42.951 10.023 C 43.701 11.065 44.144 13.112 43.85 14.519 C 43.548 15.965 41.592 18.018 41.062 18.565 C 40.846 18.789 40.767 18.695 40.613 18.835 C 40.411 19.019 40.38 19.244 39.983 19.644 C 39.153 20.482 35.09 23.376 35.037 23.871 C 35.012 24.104 35.535 23.954 36.027 23.961 C 36.897 23.973 38.709 23.408 40.163 23.781 C 41.886 24.222 44.593 25.807 45.648 26.928 C 46.404 27.73 46.556 28.632 46.727 29.446 C 46.883 30.186 46.929 30.849 46.727 31.604 C 46.492 32.485 46.062 33.576 45.199 34.392 C 44.126 35.406 42.794 36.128 40.343 36.909 C 36.678 38.078 28.131 40.449 22.874 40.425 C 21.724 42.304 19.5 45.378 18.042 46.441 Z" style="fill-opacity: 1; fill-rule: nonzero; stroke: rgb(5, 14, 26); stroke-dasharray: none; stroke-dashoffset: 0px; stroke-linecap: butt; stroke-linejoin: miter; stroke-miterlimit: 4; stroke-opacity: 1; stroke-width: 5px; paint-order: normal; vector-effect: none; opacity: 1; mix-blend-mode: normal; isolation: auto; fill: rgb(148, 191, 48);"/></svg>