<?xml version="1.0" encoding="utf-8"?>
<svg xmlns="http://www.w3.org/2000/svg" viewBox="0 0 50 50" width="50px" height="50px" xmlns:bx="https://boxy-svg.com"><defs><bx:export><bx:file format="svg"/></bx:export></defs><path fill="rgb(255,0,0)" stroke="rgb(255,0,0)" stroke-width="0" opacity="0.9882352941176471" d="M 21.694 4.143 C 23.919 3.628 27.12 3.665 29.338 4.382 C 31.42 5.055 33.986 7.381 34.713 8.085 C 35.011 8.373 34.783 8.373 35.072 8.682 C 35.797 9.459 38.976 11.07 40.447 13.102 C 42.152 15.457 43.53 19.543 44.269 22.419 C 44.906 24.899 45.145 27.398 44.986 29.346 C 44.855 30.943 44.546 31.98 43.791 33.408 C 42.86 35.167 40.968 37.455 39.372 39.022 C 37.886 40.48 36.417 41.594 34.594 42.605 C 32.631 43.694 30.495 44.73 27.905 45.233 C 24.889 45.818 20.222 46.151 17.394 45.472 C 15.064 44.912 13.382 43.947 11.78 42.247 C 9.894 40.246 8.148 36.531 7.241 33.646 C 6.395 30.955 5.882 28.365 6.285 25.524 C 6.736 22.346 8.637 18.595 10.346 15.491 C 12.031 12.431 14.32 8.93 16.438 7.01 C 18.134 5.473 19.676 4.61 21.694 4.143 Z" style="fill: rgb(250, 160, 50); fill-opacity: 1; fill-rule: nonzero; stroke: rgb(5, 14, 26); stroke-dasharray: none; stroke-dashoffset: 0px; stroke-linecap: butt; stroke-linejoin: miter; stroke-miterlimit: 4; stroke-opacity: 1; stroke-width: 5px; paint-order: normal; vector-effect: none; opacity: 1; mix-blend-mode: normal; isolation: auto;"/><path fill="rgb(255,0,0)" stroke="rgb(255,0,0)" stroke-width="0" opacity="0.9921568627450981" d="M 42.862 17.805 C 43.274 17.738 43.812 17.758 44.23 17.919 C 44.66 18.084 45.126 18.463 45.399 18.803 C 45.645 19.108 45.777 19.454 45.855 19.829 C 45.939 20.228 45.895 20.669 45.855 21.14 C 45.81 21.667 45.619 22.257 45.57 22.851 C 45.519 23.471 45.666 24.071 45.57 24.789 C 45.457 25.638 45.259 26.599 44.829 27.64 C 44.304 28.911 43.279 30.584 42.434 31.859 C 41.648 33.046 40.211 34.775 39.954 35.08 C 39.892 35.155 39.94 35.088 39.869 35.165 C 39.54 35.525 37.264 38.391 36.135 39.413 C 35.269 40.196 34.699 40.533 33.74 41.066 C 32.599 41.7 31.327 42.321 29.635 42.891 C 27.468 43.62 23.968 44.507 21.539 44.886 C 19.988 45.128 18.295 45.351 17.024 45.335 C 16.616 45.501 16.142 45.583 15.66 45.656 C 14.882 45.773 13.738 45.76 13.049 45.656 C 12.522 45.576 12.149 45.445 11.785 45.234 C 11.437 45.032 11.121 44.733 10.901 44.434 C 10.694 44.154 10.551 43.839 10.48 43.508 C 10.406 43.166 10.353 42.801 10.48 42.413 C 10.636 41.93 11.157 41.183 11.532 40.854 C 11.826 40.597 12.058 40.495 12.459 40.433 C 12.996 40.349 13.872 40.602 14.565 40.601 C 14.704 40.601 14.845 40.588 14.987 40.567 C 15.233 40.374 15.429 40.315 15.895 40.211 C 16.852 39.997 19.13 40.099 20.627 39.869 C 22.048 39.65 23.661 39.206 24.675 38.9 C 25.395 38.682 25.816 38.393 26.328 38.273 C 26.776 38.167 27.042 38.301 27.583 38.158 C 28.403 37.943 29.932 37.29 30.889 36.79 C 31.734 36.349 32.472 35.902 33.084 35.365 C 33.652 34.867 34.261 33.915 34.481 33.712 C 34.56 33.638 34.53 33.719 34.624 33.626 C 35 33.251 37.048 30.742 37.987 29.35 C 38.84 28.087 39.68 26.693 40.097 25.644 C 40.411 24.854 40.435 24.412 40.553 23.592 C 40.702 22.555 40.545 20.764 40.838 19.829 C 41.059 19.125 41.456 18.599 41.836 18.261 C 42.146 17.985 42.482 17.867 42.862 17.805 Z" style="fill: rgb(5, 14, 26); fill-opacity: 1; fill-rule: nonzero; stroke: rgb(5, 14, 26); stroke-dasharray: none; stroke-dashoffset: 0px; stroke-linecap: butt; stroke-linejoin: miter; stroke-miterlimit: 4; stroke-opacity: 1; stroke-width: 0px; paint-order: normal; vector-effect: none; opacity: 1; mix-blend-mode: normal; isolation: auto;"/></svg>