<?xml version="1.0" encoding="utf-8"?>
<svg xmlns="http://www.w3.org/2000/svg" viewBox="0 0 50 50" width="50px" height="50px" xmlns:bx="https://boxy-svg.com"><defs><bx:export><bx:file format="svg"/></bx:export></defs><path fill="rgb(255,0,0)" stroke="rgb(255,0,0)" stroke-width="0" opacity="0.9882352941176471" d="M 21.694 4.143 C 23.919 3.628 27.12 3.665 29.338 4.382 C 31.42 5.055 33.986 7.381 34.713 8.085 C 35.011 8.373 34.783 8.373 35.072 8.682 C 35.797 9.459 38.976 11.07 40.447 13.102 C 42.152 15.457 43.53 19.543 44.269 22.419 C 44.906 24.899 45.145 27.398 44.986 29.346 C 44.855 30.943 44.546 31.98 43.791 33.408 C 42.86 35.167 40.968 37.455 39.372 39.022 C 37.886 40.48 36.417 41.594 34.594 42.605 C 32.631 43.694 30.495 44.73 27.905 45.233 C 24.889 45.818 20.222 46.151 17.394 45.472 C 15.064 44.912 13.382 43.947 11.78 42.247 C 9.894 40.246 8.148 36.531 7.241 33.646 C 6.395 30.955 5.882 28.365 6.285 25.524 C 6.736 22.346 8.637 18.595 10.346 15.491 C 12.031 12.431 14.32 8.93 16.438 7.01 C 18.134 5.473 19.676 4.61 21.694 4.143 Z" style="fill: rgb(250, 160, 50); fill-opacity: 1; fill-rule: nonzero; stroke: rgb(5, 14, 26); stroke-dasharray: none; stroke-dashoffset: 0px; stroke-linecap: butt; stroke-linejoin: miter; stroke-miterlimit: 4; stroke-opacity: 1; stroke-width: 5px; paint-order: normal; vector-effect: none; opacity: 1; mix-blend-mode: normal; isolation: auto;"/></svg>