<?xml version="1.0" encoding="utf-8"?>
<svg xmlns="http://www.w3.org/2000/svg" viewBox="0 0 50 50" width="50px" height="50px" xmlns:bx="https://boxy-svg.com"><defs><bx:export><bx:file format="svg"/></bx:export></defs><path stroke="rgb(255,0,0)" stroke-width="0" opacity="0.9882352941176471" d="M 23.805 2.485 C 24.927 2.352 26.088 2.349 27.372 2.485 C 28.819 2.637 30.68 3.017 32.074 3.457 C 33.321 3.851 34.48 4.338 35.398 4.917 C 36.207 5.426 36.691 5.896 37.385 6.66 C 38.254 7.616 39.423 9.258 40.141 10.389 C 40.184 10.457 40.226 10.524 40.267 10.589 C 41.095 9.929 41.804 9.781 42.533 9.7 C 42.631 9.689 42.729 9.683 42.827 9.681 C 42.972 9.655 43.117 9.635 43.263 9.619 C 43.933 9.545 44.623 9.682 45.208 9.943 C 45.799 10.207 46.4 10.714 46.789 11.2 C 47.153 11.654 47.386 12.225 47.519 12.74 C 47.644 13.225 47.696 13.661 47.6 14.2 C 47.483 14.853 47.275 15.446 46.708 16.389 C 45.786 17.921 42.92 21.684 41.803 22.672 C 41.238 23.171 40.972 23.185 40.506 23.32 C 40.028 23.46 39.491 23.53 38.966 23.483 C 38.411 23.433 37.761 23.265 37.263 22.996 C 37.151 22.935 37.041 22.868 36.935 22.794 C 35.037 22.299 31.947 21.183 30.777 20.564 C 29.988 20.146 29.719 19.85 29.358 19.388 C 29.009 18.941 28.761 18.354 28.629 17.848 C 28.508 17.383 28.488 16.94 28.548 16.47 C 28.611 15.969 28.781 15.385 29.034 14.929 C 29.284 14.481 29.576 14.08 30.048 13.754 C 30.565 13.395 31.427 13.038 32.131 12.895 C 31.887 12.583 31.61 12.304 31.264 12.051 C 30.228 11.293 28.387 10.897 27.21 10.673 C 26.259 10.492 25.573 10.435 24.697 10.592 C 23.718 10.767 22.661 11.194 21.616 11.808 C 20.411 12.516 18.986 13.512 17.927 14.767 C 16.781 16.127 15.638 18.499 15.089 19.794 C 14.718 20.671 14.826 21.323 14.522 21.902 C 14.249 22.421 13.84 22.837 13.427 23.158 C 13.038 23.462 12.588 23.672 12.13 23.807 C 11.67 23.943 11.177 24.013 10.671 23.969 C 10.126 23.921 9.466 23.752 8.968 23.483 C 8.483 23.22 8.042 22.825 7.712 22.388 C 7.378 21.948 7.12 21.417 6.982 20.848 C 6.834 20.237 6.8 19.534 6.901 18.821 C 7.013 18.029 7.292 17.29 7.712 16.308 C 8.264 15.017 9.19 13.127 10.144 11.686 C 11.096 10.25 12.193 8.835 13.427 7.673 C 14.643 6.529 16.181 5.52 17.481 4.755 C 18.629 4.079 19.716 3.597 20.805 3.214 C 21.822 2.857 22.746 2.61 23.805 2.485 Z M 40.344 25.753 C 41.015 25.678 41.704 25.816 42.29 26.077 C 42.881 26.34 43.481 26.847 43.871 27.334 C 44.234 27.788 44.457 28.255 44.6 28.874 C 44.771 29.615 44.847 30.454 44.681 31.549 C 44.453 33.056 43.626 35.731 42.898 37.224 C 42.309 38.43 41.673 39.106 40.871 40.062 C 39.985 41.118 38.895 42.337 37.75 43.264 C 36.61 44.187 35.286 44.96 34.02 45.616 C 32.798 46.248 31.288 46.854 30.291 47.156 C 29.567 47.375 29.339 47.414 28.507 47.48 C 27.187 47.586 24.261 47.565 22.751 47.48 C 21.636 47.418 20.989 47.371 20.076 47.156 C 19.1 46.926 18.183 46.768 17.076 46.102 C 15.582 45.203 13.094 42.916 12.009 41.684 C 11.268 40.842 11.068 40.361 10.63 39.495 C 10.472 39.181 10.307 38.829 10.145 38.457 C 9.28 38.548 8.449 38.596 7.914 38.562 C 7.132 38.513 6.709 38.345 6.212 38.076 C 5.726 37.813 5.286 37.418 4.955 36.981 C 4.622 36.541 4.36 35.973 4.226 35.441 C 4.094 34.919 4.063 34.376 4.145 33.819 C 4.233 33.217 4.406 32.605 4.793 31.955 C 5.273 31.148 6.161 30.236 7.023 29.401 C 7.562 28.878 8.249 28.239 8.91 27.695 C 9.114 27.394 9.36 27.122 9.698 26.888 C 10.263 26.496 11.178 26.093 11.968 25.996 C 12.771 25.897 13.525 26.021 14.481 26.32 C 15.716 26.706 17.806 27.798 18.778 28.428 C 19.433 28.853 19.77 29.146 20.116 29.604 C 20.456 30.053 20.712 30.62 20.846 31.144 C 20.974 31.648 20.992 32.176 20.927 32.684 C 20.86 33.203 20.708 33.753 20.44 34.225 C 20.162 34.716 19.731 35.218 19.265 35.562 C 18.924 35.814 18.616 35.999 18.181 36.145 C 18.366 36.423 18.565 36.688 18.778 36.941 C 19.5 37.795 20.621 38.662 21.454 39.049 C 22.112 39.354 22.517 39.31 23.318 39.373 C 24.448 39.462 26.352 39.692 27.777 39.373 C 29.217 39.05 30.844 38.132 31.912 37.427 C 32.777 36.856 33.276 36.308 33.899 35.603 C 34.565 34.849 35.281 34.097 35.763 33.009 C 36.34 31.707 36.402 29.238 36.898 28.144 C 37.236 27.4 37.542 27.035 38.074 26.644 C 38.66 26.214 39.614 25.834 40.344 25.753 Z" style="fill-opacity: 1; fill-rule: nonzero; stroke: rgb(5, 14, 26); stroke-dasharray: none; stroke-dashoffset: 0px; stroke-linecap: butt; stroke-linejoin: miter; stroke-miterlimit: 4; stroke-opacity: 1; stroke-width: 5px; paint-order: normal; vector-effect: none; opacity: 1; mix-blend-mode: normal; isolation: auto; fill: rgb(245, 129, 34);"/></svg>