<?xml version="1.0" encoding="utf-8"?>
<svg xmlns="http://www.w3.org/2000/svg" viewBox="0 0 50 50" width="50px" height="50px" xmlns:bx="https://boxy-svg.com"><defs><bx:export><bx:file format="svg"/></bx:export></defs><path fill="rgb(255,0,0)" stroke="rgb(255,0,0)" stroke-width="0" opacity="0.9921568627450981" d="M 39.374 6.283 C 40.494 6.277 41.116 6.277 41.826 6.566 C 42.506 6.843 43.153 7.369 43.571 7.933 C 43.981 8.488 44.2 9.235 44.325 9.914 C 44.449 10.587 44.466 10.904 44.325 11.989 C 44.049 14.119 42.855 20.612 41.873 22.929 C 41.261 24.374 40.569 24.92 39.845 25.711 C 39.179 26.44 38.344 26.955 37.723 27.55 C 37.167 28.084 37.003 28.365 36.262 29.107 C 34.972 30.397 31.737 33.301 30.084 35.001 C 28.777 36.345 27.86 37.841 26.925 38.538 C 26.27 39.025 25.697 39.174 25.133 39.292 C 24.636 39.396 24.215 39.396 23.718 39.292 C 23.154 39.174 22.543 38.962 21.926 38.538 C 21.155 38.007 20.459 37.143 19.521 36.133 C 18.293 34.809 16.713 32.682 15.136 31.087 C 13.54 29.474 10.863 27.633 9.996 26.513 C 9.506 25.881 9.462 25.543 9.336 25.004 C 9.204 24.446 9.172 23.774 9.241 23.212 C 9.307 22.677 9.443 22.18 9.713 21.703 C 10.005 21.185 10.529 20.642 10.986 20.241 C 11.413 19.867 11.89 19.736 12.353 19.345 C 12.894 18.889 13.087 18.406 14.004 17.6 C 15.695 16.115 22.135 11.429 22.822 10.857 C 22.96 10.743 22.872 10.804 22.964 10.716 C 23.209 10.478 24.113 9.479 24.661 9.112 C 25.113 8.81 25.302 8.768 25.982 8.547 C 27.196 8.15 29.793 7.411 31.923 7.038 C 34.231 6.633 37.627 6.292 39.374 6.283 Z" style="fill: rgb(196, 187, 179); fill-opacity: 1; fill-rule: nonzero; stroke: rgb(5, 14, 26); stroke-dasharray: none; stroke-dashoffset: 0px; stroke-linecap: butt; stroke-linejoin: miter; stroke-miterlimit: 4; stroke-opacity: 1; stroke-width: 5px; paint-order: normal; vector-effect: none; opacity: 1; mix-blend-mode: normal; isolation: auto;"/><path fill="rgb(255,0,0)" stroke="rgb(255,0,0)" stroke-width="0" opacity="0.9764705882352941" d="M 4.649 18.337 C 5.05 18.264 5.485 18.293 5.875 18.431 C 6.289 18.578 6.86 19.042 7.054 19.233 C 7.155 19.332 7.109 19.369 7.196 19.469 C 7.345 19.641 7.846 20.035 7.997 20.176 C 8.075 20.248 8.074 20.246 8.139 20.318 C 8.247 20.438 8.355 20.628 8.61 20.883 C 9.053 21.327 10.536 22.55 10.827 22.817 C 10.926 22.908 10.877 22.84 10.968 22.958 C 11.292 23.379 12.547 25.884 13.609 26.919 C 14.61 27.896 16.14 28.335 17.098 29.089 C 17.928 29.741 18.438 30.36 19.126 31.116 C 19.881 31.946 20.985 33.443 21.437 33.898 C 21.647 34.111 21.717 34.089 21.861 34.229 C 22.03 34.392 22.139 34.612 22.38 34.842 C 22.709 35.155 23.533 35.74 23.747 35.926 C 23.837 36.004 23.806 35.995 23.889 36.068 C 24.062 36.221 24.632 36.627 24.879 36.869 C 25.07 37.057 25.106 37.181 25.303 37.388 C 25.584 37.681 25.972 37.957 26.482 38.473 C 27.271 39.268 29.152 41.029 29.689 41.962 C 30.033 42.56 30.151 42.936 30.066 43.471 C 29.966 44.102 29.399 45.107 28.887 45.499 C 28.443 45.839 27.813 45.919 27.284 45.876 C 26.744 45.832 26.26 45.615 25.681 45.216 C 24.898 44.677 23.846 43.42 23.087 42.622 C 22.425 41.927 22.074 41.399 21.342 40.689 C 20.429 39.801 19.086 38.885 17.9 37.718 C 17.292 37.12 16.677 36.371 16.051 35.612 C 15.496 36.444 14.808 37.318 14.222 38.095 C 13.044 39.657 10.932 41.846 10.119 42.669 C 9.715 43.078 9.566 43.114 9.318 43.377 C 9.062 43.647 8.978 44.041 8.61 44.273 C 8.137 44.572 7.167 44.923 6.535 44.839 C 5.931 44.758 5.239 44.342 4.885 43.848 C 4.516 43.334 4.284 42.484 4.413 41.774 C 4.561 40.965 5.398 39.956 5.969 39.274 C 6.478 38.667 6.899 38.602 7.62 37.812 C 8.626 36.711 10.698 33.605 12.052 31.945 C 11.146 31.441 10.234 30.997 9.506 30.267 C 8.29 29.048 7.511 26.921 6.535 25.788 C 5.755 24.881 4.665 24.204 4.225 23.76 C 3.986 23.518 3.978 23.424 3.8 23.241 C 3.586 23.02 3.202 22.895 2.999 22.534 C 2.731 22.059 2.438 21.08 2.527 20.459 C 2.611 19.879 3.04 19.259 3.423 18.903 C 3.765 18.585 4.232 18.413 4.649 18.337 Z" style="fill: rgb(5, 14, 26); fill-opacity: 1; fill-rule: nonzero; stroke: rgb(5, 14, 26); stroke-dasharray: none; stroke-dashoffset: 0px; stroke-linecap: butt; stroke-linejoin: miter; stroke-miterlimit: 4; stroke-opacity: 1; stroke-width: 0px; paint-order: normal; vector-effect: none; opacity: 1; mix-blend-mode: normal; isolation: auto;"/><path fill="rgb(255,0,0)" stroke="rgb(255,0,0)" stroke-width="0" opacity="0.9333333333333333" d="M 28.932 16.877 C 30.301 16.461 31.35 17.012 31.919 17.593 C 32.446 18.134 32.592 19.322 32.396 20.102 C 32.191 20.921 31.708 21.278 30.605 22.371 C 28.374 24.58 20.246 31.875 17.705 33.121 C 16.537 33.694 15.955 33.543 15.316 33.36 C 14.759 33.201 14.3 32.78 14.002 32.285 C 13.671 31.736 13.492 30.747 13.524 30.135 C 13.55 29.625 13.805 29.101 14.002 28.821 C 14.142 28.622 14.233 28.655 14.48 28.463 C 14.953 28.094 16.443 26.925 16.868 26.552 C 17.076 26.37 16.925 26.453 17.227 26.193 C 18.395 25.188 26.354 17.659 28.932 16.877 Z" style="fill: rgb(5, 14, 26); fill-opacity: 1; fill-rule: nonzero; stroke: rgb(5, 14, 26); stroke-dasharray: none; stroke-dashoffset: 0px; stroke-linecap: butt; stroke-linejoin: miter; stroke-miterlimit: 4; stroke-opacity: 1; stroke-width: 0px; paint-order: normal; vector-effect: none; opacity: 1; mix-blend-mode: normal; isolation: auto;"/></svg>