<?xml version="1.0" encoding="utf-8"?>
<svg xmlns="http://www.w3.org/2000/svg" viewBox="0 0 260 380" xmlns:bx="https://boxy-svg.com" width="260px" height="380px"><defs><bx:guide x="10" y="10" angle="0"/><bx:guide x="10" y="10" angle="90"/><bx:guide x="250" y="370" angle="0"/><bx:guide x="250" y="370" angle="90"/><bx:export><bx:file format="svg"/></bx:export><bx:guide x="158.55" y="89.294" angle="90"/><bx:guide x="107.558" y="36.445" angle="0"/><bx:guide x="146.927" y="37.904" angle="0"/><bx:guide x="127.097" y="24.489" angle="90"/><bx:guide x="127.68" y="60.067" angle="90"/></defs><path stroke="rgb(255,0,0)" stroke-width="0" opacity="0.9568627450980393" d="M 124.866 27.653 C 125.842 27.506 127.292 27.51 128.365 27.945 C 129.489 28.401 130.763 29.236 131.427 30.424 C 132.192 31.791 132.667 34.35 132.302 35.964 C 131.959 37.483 130.776 39.1 129.532 39.901 C 128.294 40.698 126.296 41.088 124.866 40.776 C 123.427 40.463 121.738 39.324 120.929 38.006 C 120.069 36.605 119.69 34.079 120.054 32.465 C 120.397 30.947 121.899 29.313 122.825 28.528 C 123.504 27.952 124.053 27.776 124.866 27.653 Z" style="fill-opacity: 1; fill-rule: nonzero; stroke: rgb(5, 14, 26); stroke-dasharray: none; stroke-dashoffset: 0px; stroke-linecap: butt; stroke-linejoin: miter; stroke-miterlimit: 4; stroke-opacity: 1; stroke-width: 5px; paint-order: normal; vector-effect: none; opacity: 1; mix-blend-mode: normal; isolation: auto; fill: rgb(28, 117, 189);"/></svg>