<?xml version="1.0" encoding="utf-8"?>
<svg xmlns="http://www.w3.org/2000/svg" viewBox="0 0 260 380" xmlns:bx="https://boxy-svg.com" width="260px" height="380px"><defs><bx:guide x="10" y="10" angle="0"/><bx:guide x="10" y="10" angle="90"/><bx:guide x="250" y="370" angle="0"/><bx:guide x="250" y="370" angle="90"/><bx:export><bx:file format="svg"/></bx:export><bx:guide x="158.55" y="89.294" angle="90"/><bx:guide x="107.558" y="36.445" angle="0"/><bx:guide x="146.927" y="37.904" angle="0"/><bx:guide x="127.097" y="24.489" angle="90"/><bx:guide x="127.68" y="60.067" angle="90"/></defs><path stroke="rgb(255,0,0)" stroke-width="0" opacity="0.9450980392156862" d="M 115.826 26.778 C 117.442 26.672 120.32 27.258 121.512 28.528 C 122.721 29.815 123.274 32.799 122.97 34.506 C 122.695 36.053 121.47 37.639 120.2 38.443 C 118.907 39.262 116.735 39.648 115.243 39.318 C 113.776 38.994 112.107 37.792 111.306 36.548 C 110.509 35.31 110.213 33.26 110.431 31.882 C 110.631 30.614 111.432 29.378 112.326 28.528 C 113.227 27.673 114.459 26.868 115.826 26.778 Z M 137.114 27.362 C 138.809 27.252 141.855 27.841 143.092 29.111 C 144.299 30.352 144.86 33.116 144.55 34.798 C 144.254 36.402 142.812 38.181 141.488 39.026 C 140.214 39.84 138.253 40.213 136.822 39.901 C 135.384 39.588 133.689 38.401 132.885 37.131 C 132.067 35.838 131.838 33.579 132.01 32.173 C 132.158 30.973 132.671 29.902 133.469 29.111 C 134.325 28.263 135.688 27.454 137.114 27.362 Z M 136.53 46.317 C 138.231 46.267 141.274 47.163 142.509 48.504 C 143.692 49.789 144.244 52.425 143.967 54.044 C 143.708 55.555 142.467 57.177 141.196 57.981 C 139.903 58.8 137.732 59.186 136.239 58.856 C 134.773 58.532 133.106 57.356 132.302 56.086 C 131.484 54.793 131.254 52.534 131.427 51.128 C 131.575 49.928 132.087 48.857 132.885 48.066 C 133.741 47.218 135.112 46.358 136.53 46.317 Z M 114.951 46.317 C 116.701 46.194 119.939 46.773 121.221 48.066 C 122.451 49.308 122.965 52.104 122.679 53.753 C 122.414 55.276 121.203 56.883 119.908 57.69 C 118.561 58.529 116.213 58.912 114.659 58.565 C 113.166 58.231 111.524 57.039 110.722 55.794 C 109.926 54.556 109.687 52.477 109.848 51.128 C 109.988 49.95 110.508 48.857 111.306 48.066 C 112.162 47.218 113.504 46.418 114.951 46.317 Z" style="fill-opacity: 1; fill-rule: nonzero; stroke: rgb(5, 14, 26); stroke-dasharray: none; stroke-dashoffset: 0px; stroke-linecap: butt; stroke-linejoin: miter; stroke-miterlimit: 4; stroke-opacity: 1; stroke-width: 5px; paint-order: normal; vector-effect: none; opacity: 1; mix-blend-mode: normal; isolation: auto; fill: rgb(250, 217, 55);"/></svg>