<?xml version="1.0" encoding="utf-8"?>
<svg xmlns="http://www.w3.org/2000/svg" viewBox="0 0 260 380" xmlns:bx="https://boxy-svg.com" width="260px" height="380px"><defs><bx:guide x="10" y="10" angle="0"/><bx:guide x="10" y="10" angle="90"/><bx:guide x="250" y="370" angle="0"/><bx:guide x="250" y="370" angle="90"/><bx:export><bx:file format="svg"/></bx:export><bx:guide x="158.55" y="89.294" angle="90"/><bx:guide x="107.558" y="36.445" angle="0"/><bx:guide x="146.927" y="37.904" angle="0"/><bx:guide x="127.097" y="24.489" angle="90"/><bx:guide x="127.68" y="60.067" angle="90"/></defs><path stroke="rgb(255,0,0)" stroke-width="0" opacity="0.9450980392156862" d="M 115.826 26.778 C 117.442 26.672 120.32 27.258 121.512 28.528 C 122.721 29.815 123.274 32.799 122.97 34.506 C 122.695 36.053 121.47 37.639 120.2 38.443 C 118.907 39.262 116.735 39.648 115.243 39.318 C 113.776 38.994 112.107 37.792 111.306 36.548 C 110.509 35.31 110.213 33.26 110.431 31.882 C 110.631 30.614 111.432 29.378 112.326 28.528 C 113.227 27.673 114.459 26.868 115.826 26.778 Z M 137.114 27.07 C 138.73 26.964 141.61 27.574 142.8 28.82 C 143.984 30.059 144.536 32.748 144.258 34.506 C 143.984 36.244 142.555 38.383 141.196 39.318 C 139.933 40.187 137.961 40.504 136.53 40.193 C 135.092 39.879 133.4 38.717 132.594 37.422 C 131.754 36.075 131.473 33.669 131.719 32.173 C 131.935 30.859 132.72 29.669 133.614 28.82 C 134.515 27.965 135.747 27.16 137.114 27.07 Z M 126.032 44.859 C 127.783 44.736 131.02 45.315 132.302 46.608 C 133.532 47.85 134.046 50.646 133.76 52.295 C 133.496 53.818 132.284 55.425 130.99 56.232 C 129.642 57.071 127.295 57.454 125.741 57.106 C 124.248 56.773 122.605 55.581 121.804 54.336 C 121.007 53.098 120.768 51.019 120.929 49.67 C 121.069 48.492 121.589 47.399 122.387 46.608 C 123.243 45.76 124.585 44.96 126.032 44.859 Z" style="fill-opacity: 1; fill-rule: nonzero; stroke: rgb(5, 14, 26); stroke-dasharray: none; stroke-dashoffset: 0px; stroke-linecap: butt; stroke-linejoin: miter; stroke-miterlimit: 4; stroke-opacity: 1; stroke-width: 5px; paint-order: normal; vector-effect: none; opacity: 1; mix-blend-mode: normal; isolation: auto; fill: rgb(85, 179, 59);"/></svg>