<?xml version="1.0" encoding="utf-8"?>
<svg xmlns="http://www.w3.org/2000/svg" viewBox="0 0 260 380" xmlns:bx="https://boxy-svg.com" width="260px" height="380px"><defs><bx:guide x="10" y="10" angle="0"/><bx:guide x="10" y="10" angle="90"/><bx:guide x="250" y="370" angle="0"/><bx:guide x="250" y="370" angle="90"/><bx:export><bx:file format="svg"/></bx:export><bx:guide x="158.55" y="89.294" angle="90"/><bx:guide x="107.558" y="36.445" angle="0"/><bx:guide x="146.927" y="37.904" angle="0"/><bx:guide x="127.097" y="24.489" angle="90"/><bx:guide x="127.68" y="60.067" angle="90"/></defs><path stroke="rgb(255,0,0)" stroke-width="0" opacity="0.9490196078431372" d="M 116.409 27.945 C 118.047 27.847 120.901 28.402 122.096 29.695 C 123.328 31.029 123.873 34.2 123.554 35.964 C 123.269 37.535 122.028 39.1 120.783 39.901 C 119.546 40.698 117.548 41.088 116.117 40.776 C 114.679 40.463 112.987 39.3 112.181 38.006 C 111.341 36.658 111.121 34.219 111.306 32.757 C 111.46 31.535 111.966 30.485 112.764 29.695 C 113.62 28.846 115.005 28.028 116.409 27.945 Z M 136.53 28.528 C 138.281 28.406 141.518 28.984 142.8 30.278 C 144.03 31.519 144.545 34.316 144.258 35.964 C 143.994 37.487 142.778 39.049 141.488 39.901 C 140.139 40.792 137.795 41.371 136.239 41.068 C 134.75 40.778 133.106 39.567 132.302 38.297 C 131.484 37.004 131.254 34.746 131.427 33.34 C 131.575 32.139 132.087 31.068 132.885 30.278 C 133.741 29.43 135.084 28.629 136.53 28.528 Z" style="fill-opacity: 1; fill-rule: nonzero; stroke: rgb(5, 14, 26); stroke-dasharray: none; stroke-dashoffset: 0px; stroke-linecap: butt; stroke-linejoin: miter; stroke-miterlimit: 4; stroke-opacity: 1; stroke-width: 5px; paint-order: normal; vector-effect: none; opacity: 1; mix-blend-mode: normal; isolation: auto; fill: rgb(245, 49, 65);"/></svg>