<?xml version="1.0" encoding="utf-8"?>
<svg xmlns="http://www.w3.org/2000/svg" viewBox="0 0 180 180" xmlns:bx="https://boxy-svg.com" width="180px" height="180px"><defs><bx:export><bx:file format="svg" path="Untitled 2.svg"/></bx:export></defs><path stroke="rgb(255,0,0)" stroke-width="0" opacity="0.9490196078431372" d="M 155.643 32.513 C 153.349 41.608 125.207 87.069 125.23 92.28 C 125.236 93.649 126.65 92.695 127.352 93.34 C 128.305 94.217 128.527 95.152 130.181 97.584 C 133.898 103.052 147.395 119.473 152.107 129.412 C 156.014 137.653 159.032 148.461 158.473 152.753 C 158.174 155.042 156.58 155.886 155.29 156.643 C 154.096 157.344 152.494 157.669 151.11 157.366 C 148.443 157.705 144.857 157.868 140.772 157.923 C 137.959 158.85 134.746 159.116 131.29 158.813 C 129.762 158.679 128.001 158.318 126.124 157.805 C 118.015 157.634 109.792 157.363 103.657 157.351 C 89.978 157.323 72.385 158.266 66.171 156.643 C 63.268 155.885 62.449 154.861 61.573 153.46 C 61.552 153.427 61.532 153.393 61.512 153.359 C 61.096 152.983 60.648 152.549 60.159 152.046 C 57.77 149.59 53.836 143.913 49.593 137.589 C 47.658 136.138 45.477 133.851 43.184 131.534 C 38.77 127.074 32.308 117.642 27.977 113.498 C 24.891 110.545 22.095 110.116 19.843 107.486 C 17.745 105.036 15.64 101.159 14.585 98.161 C 13.793 97.48 13.148 96.807 12.77 96.17 C 11.534 94.084 11.258 93.121 12.063 89.804 C 13.766 82.782 27.935 56.499 31.16 52.671 C 32.184 51.455 32.369 52.652 33.282 51.61 C 35.55 49.022 40.037 36.45 43.891 31.099 C 45.527 28.827 47.292 26.412 49.075 24.484 C 49.386 23.111 49.792 21.734 52.732 20.843 C 63.849 17.475 141.494 19.974 151.753 22.965 C 154.733 23.833 154.284 24.831 154.936 26.148 C 155.142 26.563 155.325 27.045 155.47 27.557 C 156.207 28.649 156.353 29.704 155.643 32.513 Z" style="fill-opacity: 1; fill-rule: nonzero; stroke: rgb(5, 14, 26); stroke-dasharray: none; stroke-dashoffset: 0px; stroke-linecap: butt; stroke-linejoin: miter; stroke-miterlimit: 4; stroke-opacity: 1; stroke-width: 5px; paint-order: normal; vector-effect: none; opacity: 1; mix-blend-mode: normal; isolation: auto; fill: rgb(23, 147, 230);"/><path stroke="rgb(255,0,0)" stroke-width="0" opacity="0.9333333333333333" d="M 75.484 19.835 C 76.113 19.841 78.045 20.272 78.613 20.988 C 79.157 21.672 79.5 21.974 78.943 23.952 C 77.114 30.438 57.748 63.057 51.934 75.335 C 48.21 83.198 44.226 90.117 44.688 92.956 C 44.924 94.408 47.11 94.355 47.652 94.933 C 47.991 95.294 47.917 95.671 48.146 95.921 C 48.363 96.157 48.742 96.238 48.97 96.415 C 49.17 96.57 49.216 96.701 49.464 96.909 C 49.858 97.239 50.7 97.669 51.275 98.226 C 51.915 98.848 52.56 100.031 53.087 100.532 C 53.454 100.881 53.704 100.943 54.075 101.191 C 54.511 101.482 54.953 101.548 55.557 102.179 C 56.635 103.305 59.045 107.545 59.839 108.437 C 60.166 108.804 60.22 108.605 60.498 108.931 C 61.042 109.571 62.277 111.952 62.803 112.719 C 63.1 113.151 63.16 113.124 63.462 113.542 C 63.984 114.266 65.228 116.398 65.768 117.001 C 66.05 117.316 66.224 117.261 66.426 117.495 C 66.671 117.778 66.855 118.307 67.085 118.648 C 67.296 118.958 67.534 119.16 67.744 119.471 C 67.975 119.812 68.113 120.347 68.403 120.624 C 68.672 120.881 69.119 120.877 69.391 121.118 C 69.671 121.366 69.668 121.622 70.05 122.106 C 70.777 123.028 73.258 125.84 74.002 126.553 C 74.34 126.876 74.497 126.832 74.661 127.047 C 74.83 127.268 74.761 127.595 74.99 127.87 C 75.309 128.252 76.098 128.527 76.637 129.023 C 77.253 129.59 78.057 130.627 78.449 131.164 C 78.704 131.514 78.772 131.656 78.943 131.987 C 79.153 132.396 79.238 132.976 79.601 133.47 C 80.046 134.074 81.016 134.654 81.578 135.281 C 82.101 135.865 82.523 136.703 82.895 137.093 C 83.145 137.354 83.39 137.372 83.554 137.587 C 83.723 137.808 83.682 138.195 83.883 138.41 C 84.103 138.645 84.652 138.638 84.872 138.904 C 85.098 139.18 84.979 139.664 85.201 140.057 C 85.472 140.538 85.915 140.741 86.518 141.539 C 87.619 142.996 90.59 147.955 91.459 148.95 C 91.794 149.334 91.718 149.141 92.118 149.444 C 93.105 150.193 97.462 152.805 98.376 154.22 C 98.953 155.114 98.908 155.971 98.705 156.691 C 98.508 157.393 97.788 158.153 97.223 158.502 C 96.728 158.808 96.388 159.096 95.576 158.832 C 93.852 158.269 90.16 155.533 86.848 152.079 C 82.001 147.025 72.367 131.974 69.72 129.188 C 68.805 128.224 68.442 128.339 68.073 128.035 C 67.831 127.836 67.962 127.991 67.579 127.541 C 65.873 125.533 53.94 109.245 49.464 104.485 C 46.747 101.596 44.45 100.433 43.041 99.05 C 42.133 98.158 41.9 97.519 41.229 96.909 C 40.578 96.317 39.646 96.169 39.088 95.427 C 38.436 94.558 37.651 92.937 37.771 91.804 C 37.889 90.689 39.299 89.571 39.747 88.674 C 40.092 87.984 40.128 87.568 40.406 86.863 C 40.754 85.979 41.317 84.297 41.723 83.734 C 41.954 83.415 42.016 83.762 42.382 83.24 C 43.828 81.179 52.135 62.409 53.581 60.348 C 53.947 59.826 53.851 60.417 54.24 59.854 C 55.986 57.321 67.974 30.602 69.72 28.069 C 70.108 27.506 70.059 27.965 70.379 27.575 C 71.2 26.578 73.994 21.05 74.826 20.164 C 75.136 19.833 75.141 19.832 75.484 19.835 Z M 116.986 20.164 C 117.656 20.161 119.848 20.641 120.444 21.317 C 120.943 21.882 120.99 22.327 120.773 23.623 C 120.279 26.582 117.092 34.528 114.186 40.75 C 110.774 48.057 104.345 57.386 101.011 64.795 C 98.141 71.173 96.95 77.564 94.753 82.581 C 93.489 85.467 92.018 88.789 90.691 91.031 C 90.973 91.274 91.307 91.343 91.624 91.639 C 92.049 92.036 92.539 92.924 92.941 93.286 C 93.235 93.55 93.537 93.603 93.765 93.78 C 93.965 93.935 93.926 93.957 94.259 94.274 C 95.191 95.163 99.703 99.098 101.011 100.532 C 101.754 101.346 101.891 101.959 102.328 102.344 C 102.659 102.633 103.048 102.58 103.317 102.838 C 103.606 103.115 103.805 103.64 103.975 103.99 C 104.121 104.289 104.095 104.58 104.305 104.814 C 104.551 105.089 105.184 105.15 105.458 105.473 C 105.738 105.803 105.683 106.486 105.952 106.79 C 106.195 107.066 106.72 107.018 106.94 107.284 C 107.167 107.56 107.042 108.162 107.269 108.437 C 107.489 108.704 107.991 108.66 108.257 108.931 C 108.556 109.236 108.435 109.542 108.916 110.249 C 110.017 111.866 115.338 118.184 116.327 119.306 C 116.647 119.67 116.551 119.561 116.821 119.8 C 117.328 120.251 118.868 121.293 119.456 121.941 C 119.886 122.416 119.877 122.803 120.279 123.259 C 120.789 123.836 121.978 124.668 122.42 125.071 C 122.674 125.301 122.686 125.303 122.914 125.565 C 123.319 126.028 124.038 127.122 124.726 127.87 C 125.455 128.662 126.066 128.753 127.196 130.176 C 129.495 133.069 135.762 144.486 137.901 146.974 C 138.829 148.054 139.214 147.724 139.877 148.456 C 140.748 149.418 141.941 151.762 142.512 152.573 C 142.822 153.012 142.848 152.895 143.171 153.397 C 143.88 154.498 146.779 158.637 146.794 159.984 C 146.803 160.758 146.179 161.161 145.641 161.467 C 145.055 161.8 144.114 162.014 143.336 161.796 C 142.417 161.539 141.949 161.244 140.536 159.655 C 137.044 155.727 123.744 134.62 121.268 131.823 C 120.572 131.037 120.613 131.453 120.115 130.999 C 119.281 130.24 118.062 128.639 116.656 127.211 C 114.907 125.436 112.663 123.833 110.233 121.118 C 106.967 117.468 100.659 108.313 98.87 106.461 C 98.23 105.799 98.007 105.88 97.717 105.637 C 97.499 105.455 97.567 105.478 97.223 105.143 C 96.18 104.128 90.196 98.418 89.153 97.403 C 88.809 97.068 88.839 97.138 88.659 96.909 C 88.413 96.593 88.266 96.066 87.836 95.591 C 87.248 94.943 85.688 94.332 85.201 93.45 C 84.88 92.87 84.748 92.039 84.766 91.327 C 84.695 90.893 84.71 90.334 84.872 89.498 C 85.676 85.333 91.932 70.961 95.082 64.136 C 97.542 58.806 100.917 52.562 101.999 51.126 C 102.34 50.672 102.443 50.931 102.658 50.632 C 103.001 50.153 103.303 48.64 103.646 48.161 C 103.86 47.862 104.054 48.026 104.305 47.667 C 104.828 46.919 105.782 43.781 106.281 42.891 C 106.545 42.42 106.624 42.635 106.94 42.068 C 107.744 40.622 110.447 33.809 111.222 32.022 C 111.583 31.188 111.512 31.371 111.88 30.54 C 112.673 28.752 115.468 21.584 116.327 20.494 C 116.618 20.124 116.632 20.166 116.986 20.164 Z" style="fill: rgb(5, 14, 26); fill-opacity: 1; fill-rule: nonzero; stroke: rgb(5, 14, 26); stroke-dasharray: none; stroke-dashoffset: 0px; stroke-linecap: butt; stroke-linejoin: miter; stroke-miterlimit: 4; stroke-opacity: 1; stroke-width: 0px; paint-order: normal; vector-effect: none; opacity: 1; mix-blend-mode: normal; isolation: auto;" fill="rgb(255,0,0)"/></svg>