<?xml version="1.0" encoding="utf-8"?>
<svg xmlns="http://www.w3.org/2000/svg" viewBox="0 0 180 180" xmlns:bx="https://boxy-svg.com" width="180px" height="180px"><defs><bx:export><bx:file format="svg" path="Untitled 2.svg"/></bx:export></defs><path fill="rgb(255,0,0)" stroke="rgb(255,0,0)" stroke-width="0" opacity="0.9725490196078431" d="M 122.145 20.786 C 127.833 27.73 148.615 58.783 155.664 70.164 C 159.956 77.092 162.745 81.434 163.954 85.302 C 164.754 87.859 164.731 89.71 164.315 91.429 C 163.959 92.899 163.213 94.317 162.069 95.145 C 160.591 97.582 158.651 100.118 157.647 101.34 C 156.706 102.485 156.692 101.54 155.304 103.323 C 150.441 109.566 125.479 157.22 118.361 163.333 C 116.866 164.617 115.724 164.892 114.724 164.833 C 109.034 165.568 85.371 164.875 75.831 164.775 C 69.089 164.704 64.11 164.146 60.333 164.414 C 57.772 164.596 57.772 165.252 54.566 165.496 C 47.886 166.003 25.062 166.58 17.803 165.496 C 17.147 165.398 16.541 165.299 15.981 165.194 C 15.08 165.325 14.215 165.277 13.478 165.135 C 12.116 164.874 10.81 163.989 10.054 162.792 C 9.185 161.418 8.134 159.986 8.972 157.026 C 10.789 150.609 24.44 134.772 31.319 123.146 C 36.46 114.457 42.81 100.594 46.944 92.745 C 42.075 84.42 33.803 67.314 31.424 64.322 C 30.495 63.154 30.547 64.022 29.622 63.061 C 27.315 60.662 20.484 51.869 16.647 45.761 C 12.789 39.618 8.036 30.556 6.555 26.298 C 6.325 25.637 6.154 25.067 6.03 24.558 C 5.544 23.34 5.524 21.9 5.729 20.786 C 6.007 19.269 7.042 17.472 8.432 16.641 C 9.984 15.713 13.126 15.778 14.919 15.92 C 16.358 16.034 16.742 16.775 18.524 17.001 C 21.543 17.385 25.989 17.227 32.58 17.001 C 43.289 16.635 65.293 14.431 79.795 14.118 C 92.804 13.837 110.371 13.463 115.838 14.839 C 118.14 15.418 118.508 16.037 119.262 17.182 C 119.43 17.438 119.586 17.737 119.724 18.065 C 120.315 18.582 120.969 19.35 122.145 20.786 Z" style="fill: rgb(23, 147, 230); fill-opacity: 1; fill-rule: nonzero; stroke: rgb(5, 14, 26); stroke-dasharray: none; stroke-dashoffset: 0px; stroke-linecap: butt; stroke-linejoin: miter; stroke-miterlimit: 4; stroke-opacity: 1; stroke-width: 5px; paint-order: normal; vector-effect: none; opacity: 1; mix-blend-mode: normal; isolation: auto;"/><path fill="rgb(255,0,0)" stroke="rgb(255,0,0)" stroke-width="0" opacity="0.9333333333333333" d="M 82.11 15.351 C 82.976 15.192 84.607 15.365 85.894 16.613 C 88.1 18.75 89.299 24.725 92.742 30.309 C 97.652 38.27 110.092 55.21 114.548 60.404 C 116.714 62.929 117.176 62.428 119.053 64.549 C 122.057 67.942 127.977 75.447 130.947 80.408 C 132.729 83.383 134.943 87.084 135.91 89.719 C 136.095 89.851 136.248 89.992 136.354 90.139 C 136.982 91.01 136.884 92.809 136.354 94.104 C 135.723 95.644 134.054 96.823 132.209 98.609 C 129.665 101.072 126.087 103.169 121.937 107.619 C 115.665 114.346 105.301 127.777 98.149 137.715 C 91.387 147.11 83.975 163.453 79.947 165.648 C 78.167 166.618 76.294 165.396 75.803 164.386 C 75.242 163.233 76.222 161.358 77.605 158.619 C 80.179 153.52 87.515 143.055 93.463 134.831 C 99.945 125.87 113.292 109.238 115.269 106.899 C 115.695 106.394 115.385 106.776 115.81 106.358 C 117.302 104.888 127.334 95.609 130.632 91.998 C 130.617 91.979 130.602 91.96 130.587 91.941 C 129.22 90.182 128.196 86.751 125.901 83.291 C 122.701 78.465 114.657 68.308 112.025 65.45 C 110.841 64.164 110.983 64.969 109.682 63.468 C 106.086 59.318 91.766 39.441 86.976 31.75 C 83.93 26.861 82.069 23.302 81.209 20.577 C 80.666 18.857 80.563 17.504 80.849 16.613 C 81.056 15.966 81.482 15.467 82.11 15.351 Z M 78.326 108.881 C 70.887 119.37 50.967 145.799 48.591 148.708 C 48.143 149.255 48.419 148.777 48.05 149.248 C 46.62 151.073 38.358 166.307 35.255 167.81 C 33.703 168.562 32.074 167.485 31.471 166.549 C 30.817 165.533 31.392 162.658 31.831 161.683 C 32.117 161.049 32.74 161.056 33.093 160.602 C 33.473 160.111 33.615 159.191 33.994 158.8 C 34.302 158.48 34.708 158.646 35.075 158.259 C 35.659 157.642 36.407 155.572 36.877 154.835 C 37.167 154.381 37.415 154.245 37.598 153.934 C 37.768 153.643 37.738 153.268 37.958 153.033 C 38.199 152.775 38.719 152.841 39.039 152.492 C 39.473 152.02 39.777 150.718 40.121 150.149 C 40.37 149.737 40.546 149.685 40.842 149.248 C 41.306 148.563 42.017 146.852 42.644 146.185 C 43.11 145.688 43.537 145.813 44.085 145.284 C 44.941 144.459 46.372 142.165 47.149 141.139 C 47.687 140.428 47.78 140.403 48.41 139.517 C 49.646 137.78 53.323 131.53 54.538 130.326 C 55.039 129.829 55.336 130.141 55.619 129.785 C 55.995 129.314 56.029 127.917 56.34 127.443 C 56.548 127.125 56.76 127.226 57.061 126.902 C 57.592 126.33 58.538 124.507 59.223 123.839 C 59.723 123.351 60.036 123.561 60.665 122.937 C 61.898 121.716 64.956 116.587 66.071 115.549 C 66.568 115.087 66.865 115.332 67.152 115.008 C 67.5 114.617 67.68 113.69 67.873 113.206 C 68.02 112.839 68.013 112.541 68.234 112.305 C 68.474 112.048 69.075 112.056 69.315 111.764 C 69.563 111.463 69.427 110.804 69.675 110.503 C 69.916 110.211 70.299 110.46 70.757 109.962 C 71.807 108.818 74.186 102.987 75.442 101.492 C 76.136 100.666 76.583 100.973 77.244 100.231 C 78.293 99.055 79.965 95.184 80.849 94.284 C 81.287 93.837 81.617 94.128 81.93 93.743 C 82.395 93.172 82.625 91.25 83.011 90.68 C 83.242 90.338 83.427 90.474 83.732 90.139 C 84.025 89.817 84.495 89.047 84.958 88.306 C 84.107 86.556 83.312 84.588 82.651 83.832 C 81.955 83.036 81.516 83.259 80.849 82.57 C 79.855 81.544 78.376 78.735 77.425 77.704 C 76.803 77.031 76.699 77.475 75.803 76.443 C 73.186 73.429 63.786 57.5 58.863 51.754 C 55.377 47.685 53.209 47.209 49.492 43.284 C 44.205 37.703 32.461 24.6 30.029 19.857 C 28.873 17.603 29.034 16.172 29.308 15.171 C 29.493 14.494 29.942 14.025 30.57 13.91 C 31.436 13.75 33.507 14.482 34.354 15.171 C 35.074 15.757 35.272 17.034 35.615 17.514 C 35.824 17.805 35.744 17.582 36.156 18.054 C 37.888 20.04 51.872 37.104 53.637 39.5 C 54.114 40.147 53.849 40.078 54.177 40.401 C 54.676 40.891 56.053 41.408 56.7 42.023 C 57.272 42.566 57.453 43.401 57.962 43.825 C 58.428 44.214 59.223 44.167 59.584 44.546 C 59.924 44.903 59.853 45.652 60.124 45.987 C 60.357 46.275 60.785 46.288 61.025 46.528 C 61.266 46.768 61.269 47.096 61.566 47.429 C 61.989 47.904 62.919 48.383 63.548 49.051 C 64.249 49.794 65.1 51.113 65.531 51.754 C 65.802 52.157 65.727 52.142 66.071 52.655 C 66.87 53.848 70.226 58.495 71.117 59.683 C 71.515 60.214 71.472 60.113 71.838 60.584 C 72.53 61.475 74.44 63.918 75.262 65.09 C 75.84 65.914 76.13 66.406 76.523 67.072 C 76.91 67.728 77.27 68.545 77.605 69.054 C 77.86 69.443 77.911 69.448 78.326 69.955 C 79.233 71.066 82.735 75.146 83.552 76.263 C 83.911 76.754 83.793 76.739 84.092 77.164 C 84.621 77.915 86.266 79.836 86.795 80.588 C 87.095 81.013 87.063 81.042 87.336 81.489 C 87.823 82.285 89.193 84.477 89.679 85.273 C 89.952 85.72 90.054 85.7 90.22 86.174 C 90.366 86.593 90.691 87.405 90.9 88.212 C 90.922 88.283 90.941 88.357 90.954 88.434 C 91.11 89.111 91.165 89.759 90.94 90.139 C 90.852 90.289 90.717 90.44 90.547 90.585 C 89.231 94.009 83.658 101.361 78.326 108.881 Z" style="fill: rgb(5, 14, 26); fill-opacity: 1; fill-rule: nonzero; stroke: rgb(5, 14, 26); stroke-dasharray: none; stroke-dashoffset: 0px; stroke-linecap: butt; stroke-linejoin: miter; stroke-miterlimit: 4; stroke-opacity: 1; stroke-width: 0px; paint-order: normal; vector-effect: none; opacity: 1; mix-blend-mode: normal; isolation: auto;"/></svg>