<?xml version="1.0" encoding="utf-8"?>
<svg xmlns="http://www.w3.org/2000/svg" viewBox="0 0 180 180" xmlns:bx="https://boxy-svg.com" width="180px" height="180px"><defs><bx:export><bx:file format="svg" path="Untitled 2.svg"/></bx:export></defs><path stroke="rgb(255,0,0)" opacity="0.9882352941176471" d="M 100.587 13.298 C 103.887 13.073 107.495 13.053 110.367 13.298 C 112.824 13.507 114.681 13.773 116.887 14.462 C 119.256 15.202 121.861 16.41 124.105 17.722 C 126.32 19.016 128.769 20.927 130.276 22.263 C 131.393 23.253 132.131 24.403 132.721 24.94 C 133.073 25.262 133.241 25.247 133.536 25.523 C 133.923 25.885 134.429 26.673 134.816 27.036 C 135.111 27.312 135.219 27.193 135.631 27.618 C 136.615 28.632 139.353 32.044 140.987 34.604 C 142.707 37.297 144.438 40.768 145.644 43.452 C 146.672 45.74 147.376 47.189 147.972 49.739 C 148.721 52.942 147.759 60.738 149.37 61.498 C 150.815 62.181 154.344 56.946 156.472 55.91 C 158.084 55.124 159.52 54.728 160.896 54.978 C 162.276 55.229 163.903 56.26 164.738 57.423 C 165.591 58.612 166.107 60.595 165.902 62.08 C 165.695 63.585 164.772 64.911 163.457 66.388 C 161.725 68.335 156.75 71.322 155.657 72.442 C 155.202 72.908 155.291 73.156 155.074 73.374 C 154.896 73.553 154.755 73.475 154.492 73.723 C 153.959 74.227 152.481 76.362 152.047 76.866 C 151.859 77.085 151.902 76.993 151.698 77.216 C 151.191 77.767 149.061 80.273 148.555 80.825 C 148.35 81.047 148.436 81.006 148.205 81.174 C 147.678 81.56 146.147 82.806 144.829 83.153 C 143.361 83.541 142.086 84.064 139.706 83.153 C 135.148 81.41 121.501 70.949 118.633 67.902 C 117.405 66.596 117.464 66.061 117.236 65.107 C 117.018 64.196 116.967 63.269 117.236 62.313 C 117.544 61.22 118.368 59.741 119.215 58.937 C 119.99 58.202 121.082 57.763 122.009 57.54 C 122.866 57.333 123.299 57.132 124.571 57.54 C 127.137 58.363 136.262 65.053 137.378 64.991 C 137.729 64.972 137.509 64.714 137.494 64.176 C 137.453 62.656 136.727 56.007 136.097 53.232 C 135.64 51.221 135.262 50.342 134.467 48.575 C 133.468 46.353 131.901 43.311 130.276 40.891 C 128.643 38.459 126.996 36.213 124.687 34.022 C 122.103 31.569 117.895 28.387 115.257 27.036 C 113.368 26.07 112.245 25.921 110.367 25.639 C 108.151 25.306 105.466 25.253 102.683 25.406 C 99.549 25.579 96.711 25.926 92.437 26.803 C 86.492 28.024 76.033 30.613 69.618 32.857 C 64.296 34.72 59.854 36.611 56.112 38.912 C 52.861 40.911 50.499 42.932 48.079 45.548 C 45.545 48.287 43.231 51.336 41.326 55.095 C 39.18 59.33 37.858 66.175 36.203 69.997 C 34.971 72.846 33.869 75.331 32.594 76.634 C 31.698 77.548 30.728 77.807 29.8 78.031 C 28.943 78.237 28.136 78.286 27.239 78.031 C 26.175 77.729 24.666 76.899 23.862 76.051 C 23.128 75.277 22.689 74.185 22.465 73.257 C 22.259 72.4 22.151 72.16 22.465 70.696 C 23.205 67.249 26.972 55.982 29.916 50.205 C 32.479 45.177 37.693 38.735 38.648 37.514 C 38.89 37.206 38.834 37.345 38.998 37.165 C 39.282 36.852 39.393 36.416 40.278 35.652 C 42.372 33.844 49.766 28.337 54.249 25.872 C 58.187 23.707 60.853 22.798 65.659 21.215 C 72.091 19.096 84.074 15.981 90.342 14.695 C 94.708 13.799 97.213 13.528 100.587 13.298 Z M 141.103 97.125 C 141.942 96.941 142.767 96.87 143.665 97.125 C 144.728 97.427 146.237 98.256 147.041 99.104 C 147.775 99.878 148.097 100.628 148.438 101.898 C 148.922 103.7 149.009 106.468 149.137 109.349 C 149.293 112.869 149.376 118.44 149.137 121.69 C 148.959 124.109 148.781 125.247 148.205 127.512 C 147.472 130.4 146.08 134.734 144.713 137.757 C 143.48 140.482 141.924 143.125 140.521 144.976 C 139.399 146.456 138.577 147.171 137.145 148.352 C 135.367 149.819 133.2 151.508 130.392 153.009 C 126.905 154.873 122.042 157.02 117.352 158.365 C 112.382 159.791 107.526 160.647 101.286 161.159 C 93.676 161.783 81.714 161.677 74.508 161.159 C 69.001 160.763 65.145 160.016 61.002 159.063 C 57.208 158.19 54.161 157.276 50.524 155.803 C 46.508 154.178 41.379 151.785 37.95 149.516 C 35.03 147.585 32.885 145.692 30.848 143.346 C 28.809 140.997 26.976 138.142 25.725 135.429 C 24.539 132.857 23.903 129.799 23.397 127.512 C 22.985 125.649 22.846 125.046 22.698 122.622 C 22.647 121.791 22.582 120.662 22.517 119.356 C 22.384 119.479 22.251 119.598 22.116 119.711 C 20.535 121.042 18.259 122.775 16.527 123.437 C 15.122 123.974 13.795 124.159 12.569 123.903 C 11.352 123.648 9.996 122.771 9.193 121.923 C 8.458 121.149 8.023 120.082 7.796 119.129 C 7.578 118.218 7.509 117.306 7.796 116.335 C 8.134 115.188 8.898 113.93 10.008 112.726 C 11.4 111.214 14.755 109.286 15.945 108.185 C 16.645 107.538 16.839 107.034 17.226 106.672 C 17.521 106.395 17.591 106.502 18.041 106.089 C 19.157 105.066 22.969 100.28 24.677 98.987 C 25.718 98.201 26.368 98.014 27.239 97.823 C 27.812 97.698 28.378 97.625 28.966 97.672 C 29.389 97.668 29.819 97.714 30.266 97.823 C 31.297 98.076 31.814 98.302 33.526 99.453 C 37.292 101.985 51.299 113.168 53.9 115.869 C 54.866 116.872 54.822 116.94 55.064 117.732 C 55.364 118.712 55.579 120.284 55.297 121.458 C 55.01 122.654 54.166 124.03 53.318 124.834 C 52.544 125.568 51.452 126.008 50.524 126.231 C 49.667 126.438 49.323 126.801 47.962 126.231 C 45.887 125.363 39.59 120.479 34.785 116.629 C 34.753 118.096 34.749 119.377 34.806 120.293 C 34.952 122.64 35.064 123.428 35.505 125.183 C 36.009 127.192 36.818 129.777 37.833 131.703 C 38.787 133.512 39.382 134.812 41.326 136.477 C 44.218 138.953 50.828 142.544 55.181 144.394 C 58.95 145.995 62.302 146.643 65.892 147.421 C 69.443 148.19 72.174 148.74 76.603 149.051 C 82.521 149.466 91.931 149.735 98.957 149.051 C 105.54 148.409 112.842 146.872 117.585 145.325 C 121.113 144.174 123.448 142.812 125.735 141.366 C 127.732 140.104 129.187 139.437 130.741 137.292 C 132.902 134.31 135.546 128.188 136.563 123.786 C 137.497 119.744 137.082 115.669 137.028 111.911 C 136.978 108.398 135.817 104.276 136.33 101.898 C 136.693 100.214 137.66 99.088 138.542 98.289 C 139.291 97.61 140.233 97.315 141.103 97.125 Z" style="fill-opacity: 1; fill-rule: nonzero; stroke: rgb(5, 14, 26); stroke-dasharray: none; stroke-dashoffset: 0px; stroke-linecap: butt; stroke-linejoin: miter; stroke-miterlimit: 4; stroke-opacity: 1; paint-order: normal; vector-effect: none; opacity: 1; mix-blend-mode: normal; isolation: auto; stroke-width: 5px; fill: rgb(245, 129, 34);"/></svg>