<?xml version="1.0" encoding="utf-8"?>
<svg xmlns="http://www.w3.org/2000/svg" viewBox="0 0 1500 3000" width="1500px" height="3000px" xmlns:bx="https://boxy-svg.com"><defs><bx:export><bx:file format="svg"/></bx:export><bx:guide x="795.532" y="1250" angle="90"/><bx:guide x="727.854" y="1730" angle="90"/><bx:guide x="839.634" y="1950" angle="90"/><bx:guide x="527.1487396741238" y="2190" angle="90"/><bx:guide x="392.773" y="2392.506" angle="0"/><bx:guide x="31.724091957405165" y="2397.625619613006" angle="0"/><bx:guide x="207.898" y="2422.282" angle="90"/><bx:guide x="148.739" y="3002.867" angle="90"/></defs><path stroke="rgb(255,0,0)" opacity="0.9372549019607843" d="M 14.784 2215.92 C 15.776 2215.92 18.216 2215.57 20.399 2216.57 C 20.686 2216.17 20.992 2215.79 21.313 2215.42 C 23.094 2213.35 25.46 2212.42 28.787 2212.09 C 33.487 2211.64 42.239 2209.45 47.889 2215.42 C 49.008 2216.6 50.114 2218.19 51.202 2220.12 C 55.351 2219.62 60.067 2219.2 65.33 2218.74 C 93.44 2216.28 171.375 2220.73 198.21 2218.74 C 212.742 2217.66 214.143 2213.95 226.447 2213.76 C 232.18 2213.66 238.831 2214.32 246.12 2215.3 C 246.161 2215.3 246.203 2215.29 246.244 2215.28 C 272.815 2210.94 291.831 2212.38 322.65 2215.28 C 337.729 2216.7 354.607 2220.06 372.706 2223.96 C 384.304 2223.96 395.994 2223.87 407.497 2223.72 C 447.084 2223.21 507.83 2217 530.412 2218.74 C 541.449 2219.59 537.544 2222.46 550.344 2223.72 C 583.739 2227.01 721.326 2227.63 776.241 2225.38 C 813.115 2223.88 829.474 2218.53 859.291 2217.08 C 892.137 2215.48 930.037 2215.16 965.596 2217.08 C 1001.46 2219.01 1027.64 2227.11 1073.56 2228.7 C 1137.76 2230.94 1267.06 2221.81 1324.37 2222.06 C 1360.01 2222.22 1377.55 2225.53 1400.78 2225.38 C 1421.37 2225.26 1442.58 2220.81 1457.25 2222.06 C 1458.11 2222.13 1458.96 2222.21 1459.8 2222.28 C 1460.54 2222.2 1461.35 2222.15 1462.24 2222.06 C 1465.08 2221.79 1470.03 2221.18 1474.37 2221.88 C 1474.96 2221.31 1475.59 2221.45 1476.15 2221.04 C 1476.89 2220.5 1477.23 2219.92 1478.33 2219.95 C 1480.27 2220 1485.44 2218.54 1487.6 2223.76 C 1493.93 2239.17 1482.05 2329.3 1482.15 2373.06 C 1482.23 2410.05 1486.53 2435.98 1486.51 2471.13 C 1486.49 2502.43 1482.69 2541.5 1481.43 2574.25 C 1482.45 2597.54 1483.79 2623.91 1485.17 2650.99 C 1485.78 2657.78 1486.28 2664.89 1486.51 2672.73 C 1486.6 2675.8 1486.69 2679.16 1486.78 2682.73 C 1489.87 2744.61 1492.53 2805.4 1491.31 2837.47 C 1490.81 2850.35 1489.65 2859.5 1488.27 2867.21 C 1487.39 2879.19 1485.61 2891.89 1485.41 2908.22 C 1485.03 2940.05 1494.5 3015.79 1488.68 3029.18 C 1487.27 3032.45 1484.66 3033.22 1482.41 3033.26 C 1482.15 3036.05 1481.8 3038.36 1481.34 3040.11 C 1479.54 3046.92 1477.65 3048.21 1473.86 3049.24 C 1469.69 3050.38 1460.86 3051.53 1455.39 3046.35 C 1453.04 3049.53 1450.35 3051.95 1447.15 3054.09 C 1439.37 3059.31 1425.67 3059.59 1417.25 3057.41 C 1409.92 3055.51 1403.26 3050.57 1398.73 3044.15 C 1392.66 3049.29 1386.17 3052.3 1378.95 3053.99 C 1371.34 3055.76 1364.46 3056.43 1354.03 3053.99 C 1338.69 3050.4 1320.03 3033.01 1294.24 3027.41 C 1259.82 3019.94 1204.6 3019.72 1159.7 3022.43 C 1114.36 3025.17 1066.3 3040.26 1023.49 3044.02 C 984.208 3047.47 956.753 3046.87 912.206 3045.68 C 854.812 3044.15 770.198 3031 702.919 3032.39 C 638.641 3033.73 561.737 3049.68 516.886 3052.33 C 487.244 3054.07 469.369 3052.7 450.446 3052.33 C 435.014 3052.02 429.352 3050.11 410.582 3050.67 C 379.863 3051.57 286.848 3063.45 274.379 3062.29 C 271.431 3062.02 273.309 3060.92 271.057 3060.63 C 265.134 3059.88 235.455 3064.7 229.532 3063.95 C 227.279 3063.67 228.417 3062.57 226.21 3062.29 C 220.594 3061.59 205.615 3065.07 188.006 3065.62 C 160.252 3066.47 93.824 3070.97 68.414 3063.95 C 52.507 3059.57 45.008 3052.61 37.685 3043.19 C 34.496 3039.09 31.795 3033.63 29.667 3027.94 C 29.186 3028.73 28.603 3029.15 27.83 3029.65 C 26.335 3030.6 23.406 3030.64 21.851 3030.19 C 20.546 3029.82 19.643 3030.08 18.861 3027.74 C 16.429 3020.49 16.792 2976.57 17.773 2961.97 C 18.368 2953.12 20.77 2950.19 21.035 2943.48 C 21.33 2936.01 18.672 2928.1 18.861 2919.02 C 19.08 2908.49 22.989 2895.79 23.21 2883.69 C 23.437 2871.17 20.148 2855.51 19.948 2845.09 C 19.796 2837.15 20.925 2832.49 21.035 2825.52 C 21.123 2819.91 20.217 2811.95 20.153 2806.19 C 19.145 2805.8 18.356 2805.16 17.773 2803.95 C 16.719 2801.76 16.591 2797.47 16.686 2793.08 C 16.771 2789.14 17.266 2783.61 18.083 2778.49 C 18.089 2775.2 18.228 2771.78 18.317 2766.99 C 18.538 2755.16 20.151 2733.33 19.948 2719.15 C 19.774 2706.97 16.711 2692.44 17.773 2686.53 C 17.82 2686.27 17.876 2686.02 17.94 2685.78 C 17.674 2685.48 17.437 2685.14 17.23 2684.78 C 16.414 2683.34 16.176 2681.89 16.143 2678.8 C 16.081 2673.03 17.659 2660.59 19.404 2649.99 C 21.423 2637.73 26.87 2620.07 28.102 2609.22 C 29.012 2601.2 29.136 2597.99 28.102 2589.65 C 26.616 2577.65 16.715 2549.89 17.23 2542.36 C 17.245 2542.14 17.267 2541.93 17.296 2541.74 C 14.093 2527.88 10.459 2466.13 11.25 2446.69 C 11.724 2435.05 14.773 2431.44 15.599 2423.31 C 16.463 2414.8 16.771 2401.78 16.143 2396.67 C 15.817 2394.03 14.891 2394.73 14.512 2391.78 C 13.641 2384.99 13.916 2364.65 14.512 2350.47 C 15.133 2335.69 16.564 2313.85 18.317 2304.8 C 19.263 2299.92 20.918 2299.91 21.579 2295.56 C 22.604 2288.82 22.959 2277.2 21.579 2266.21 C 19.928 2253.07 10.255 2228.89 10.707 2221.63 C 10.906 2218.42 12.904 2217.29 13.696 2216.47 C 14.116 2216.03 14.149 2215.93 14.784 2215.92 Z" style="fill-opacity: 1; fill-rule: nonzero; stroke: rgb(5, 14, 26); stroke-dasharray: none; stroke-dashoffset: 0px; stroke-linecap: butt; stroke-linejoin: miter; stroke-miterlimit: 4; stroke-opacity: 1; paint-order: normal; vector-effect: none; opacity: 1; mix-blend-mode: normal; isolation: auto; stroke-width: 5px; fill: rgb(110, 66, 80);"/><path stroke="rgb(255,0,0)" stroke-width="0" opacity="0.9764705882352941" d="M 400.596 2225.893 C 402.694 2225.689 407.585 2224.301 409.57 2227.09 C 410.152 2227.907 410.528 2229.139 410.757 2230.679 C 410.962 2230.572 411.175 2230.472 411.396 2230.37 C 412.711 2229.764 414.907 2229.798 416.356 2230.211 C 416.827 2229.76 417.388 2229.392 418.037 2229.163 C 419.908 2228.503 423.564 2228.768 426.675 2229.501 C 425.691 2228.024 424.983 2226.966 425.126 2225.79 C 425.336 2224.061 426.413 2223.225 428.117 2222.799 C 430.865 2222.112 438.993 2221.201 441.877 2225.192 C 446.328 2231.35 443.77 2255.246 443.074 2266.473 C 442.535 2275.174 440.476 2275.079 439.484 2288.011 C 438.707 2298.151 437.876 2315.393 437.169 2336.2 C 437.168 2336.532 437.157 2336.856 437.136 2337.169 C 435.944 2372.63 435.118 2418.18 435.532 2456.587 C 435.944 2457.653 436.271 2458.667 436.449 2459.617 C 437.033 2462.732 437.717 2465.611 436.449 2467.465 C 436.262 2467.739 436.007 2468.007 435.702 2468.265 C 435.757 2471.261 435.821 2474.199 435.895 2477.067 C 437.498 2539.555 446.883 2614.594 449.057 2663.731 C 450.659 2699.961 450.727 2723.509 450.253 2751.079 C 449.813 2776.75 446.869 2799.617 446.664 2824.069 C 446.538 2838.994 447.75 2854.864 448.538 2870.042 C 449.281 2870.474 449.925 2871.007 450.332 2871.656 C 451.963 2874.259 450.953 2878.594 451.034 2884.29 C 451.157 2892.991 450.189 2905.316 450.332 2920.786 C 450.532 2942.406 453.226 2981.672 453.139 3005.01 C 453.071 3023.388 453.275 3044.215 451.034 3051.333 C 450.046 3054.469 448.938 3055.498 447.173 3055.895 C 446.57 3056.03 445.768 3056.049 444.892 3055.938 C 442.755 3058.875 438.572 3059.984 436.493 3057.997 C 435.806 3057.34 435.225 3056.148 434.73 3054.538 C 433.713 3055.416 432.695 3056.081 431.707 3056.45 C 427.215 3058.125 420.128 3058.927 416.75 3052.262 C 413.13 3045.12 413.915 3020.97 415.691 2994.428 C 415.263 2981.365 415.098 2966.657 414.537 2953.072 C 413.636 2931.269 413.572 2899.89 413.445 2870.289 C 412.269 2846.925 411.407 2815.044 410.983 2790.001 C 409.524 2778.688 407.616 2769.243 407.697 2763.298 C 406.859 2761.124 407.454 2758.024 407.518 2754.445 C 407.577 2751.162 407.744 2745.625 408.163 2740.739 C 408.132 2740.645 408.102 2740.549 408.075 2740.448 C 407.364 2737.8 407.395 2733.775 408.075 2730.185 C 408.488 2728.005 409.261 2725.424 410.215 2722.994 C 410.532 2706.711 413.244 2682.95 413.16 2664.432 C 413.021 2633.736 409.702 2591.712 410.767 2563.921 C 410.788 2563.385 410.811 2562.852 410.837 2562.324 C 410.236 2561.907 409.702 2561.193 409.283 2559.829 C 406.616 2551.148 411.734 2502.171 411.094 2486.179 C 410.718 2476.789 407.789 2470.647 408.68 2466.861 C 408.786 2466.41 408.927 2466.008 409.095 2465.647 C 408.813 2463.44 408.568 2461.108 408.374 2458.624 C 405.602 2423.175 410.396 2339.841 407.177 2307.857 C 405.322 2289.423 400.419 2283.812 398.801 2270.764 C 397.091 2256.97 395.617 2231.72 397.605 2227.09 C 398.305 2225.458 399.208 2226.028 400.596 2225.893 Z M 415.106 2280.109 C 415.019 2278.79 414.936 2277.494 414.857 2276.224 C 414.537 2276.285 414.216 2276.331 413.901 2276.359 C 414.295 2277.58 414.701 2278.819 415.106 2280.109 Z M 432.08 3032.205 C 432.041 3031.456 432.003 3030.704 431.967 3029.948 C 431.714 3030.727 431.429 3031.379 431.109 3031.922 C 431.36 3032.352 431.713 3032.383 432.08 3032.205 Z" style="fill-opacity: 1; fill-rule: nonzero; stroke: rgb(5, 14, 26); stroke-dasharray: none; stroke-dashoffset: 0px; stroke-linecap: butt; stroke-linejoin: miter; stroke-miterlimit: 4; stroke-opacity: 1; stroke-width: 0px; paint-order: normal; vector-effect: none; opacity: 1; mix-blend-mode: normal; isolation: auto; fill: rgb(135, 93, 88);"/><path stroke="rgb(255,0,0)" opacity="0.9882352941176471" d="M 75.733 2199.06 C 82.895 2198.58 89.836 2198.18 94.532 2199.06 C 97.938 2199.7 98.411 2201.52 102.273 2202.38 C 108.688 2203.8 124.409 2204.72 132.13 2204.59 C 137.724 2204.5 138.368 2203.33 145.4 2202.93 C 159.096 2202.16 193.393 2202.37 216.173 2202.38 C 237.923 2202.39 262.757 2203.15 279.206 2202.93 C 291.225 2202.78 298.73 2201.51 307.957 2201.83 C 316.76 2202.13 324.537 2204.12 333.391 2204.59 C 342.74 2205.09 349.339 2205.01 362.696 2204.59 C 383.488 2203.94 422.355 2199.76 451.162 2199.62 C 477.48 2199.49 517.707 2201.11 530.898 2203.12 C 531.029 2203.05 531.174 2202.99 531.334 2202.93 C 535.766 2201.26 556.762 2201.58 566.168 2201.83 C 573.352 2202.02 576.382 2203.5 583.861 2203.49 C 594.259 2203.47 615.633 2200.57 624.224 2200.17 C 629.124 2199.94 632.087 2199.54 634.176 2200.17 C 635.168 2200.47 635.74 2200.81 636.215 2201.41 C 652.323 2199.54 683.81 2198 689.894 2199.06 C 692.451 2199.51 691.244 2200.76 693.211 2201.28 C 697.076 2202.3 706.699 2201.95 714.775 2201.83 C 724.244 2201.69 734.804 2200.04 746.844 2200.17 C 761.01 2200.32 781.093 2203.11 794.948 2203.49 C 806.386 2203.8 817.227 2204.05 824.805 2202.93 C 830.287 2202.13 832.313 2199.79 837.522 2199.06 C 844.215 2198.13 853.601 2198.9 862.403 2199.06 C 871.943 2199.24 885.577 2200.53 892.813 2200.17 C 897.566 2199.93 899.228 2198.82 903.319 2198.51 C 908.332 2198.14 917.28 2197.58 921.012 2198.51 C 923.301 2199.08 922.811 2200.33 925.435 2201.28 C 925.878 2201.43 926.369 2201.61 926.905 2201.78 C 927.247 2200.8 928.086 2200.17 928.75 2199.62 C 929.415 2199.07 929.457 2198.66 930.962 2198.51 C 934.955 2198.1 948.157 2201.08 959.16 2201.83 C 972.749 2202.75 1001.38 2201.41 1007.26 2202.93 C 1007.33 2202.95 1007.39 2202.97 1007.45 2202.98 C 1012.14 2202.47 1016.58 2202.06 1020.54 2201.83 C 1035.82 2200.94 1055.14 2199.51 1060.35 2200.72 C 1062.23 2201.16 1062.24 2201.59 1062.83 2202.66 C 1062.89 2202.75 1062.94 2202.86 1062.99 2202.97 C 1064.36 2202.74 1065.88 2202.54 1067.53 2202.38 C 1074.19 2201.72 1085 2202.16 1095.18 2202.38 C 1106.82 2202.64 1122.55 2204.49 1133.88 2204.04 C 1143.49 2203.66 1150.71 2201.28 1159.32 2200.72 C 1168.04 2200.16 1180.47 2199.78 1185.86 2200.72 C 1188.52 2201.19 1190.09 2201.61 1191.22 2202.71 C 1197.58 2201.75 1207.17 2201.11 1213.73 2200.72 C 1222.59 2200.2 1232.51 2200.2 1239.71 2200.72 C 1245.42 2201.13 1248.41 2202.52 1254.09 2202.93 C 1261.19 2203.45 1272.69 2203.35 1279.52 2202.93 C 1284.72 2202.62 1286.94 2201.19 1292.24 2201.28 C 1299.48 2201.39 1308.47 2204.64 1319.89 2205.14 C 1335.13 2205.82 1367.24 2202.62 1377.39 2202.93 C 1382.08 2203.08 1380.83 2203.91 1385.68 2204.04 C 1396.75 2204.34 1429.46 2205.18 1444.01 2203.69 C 1452.77 2202.79 1456.27 2200.92 1462.25 2200.38 C 1468.05 2199.85 1473.89 2199.4 1479.39 2200.38 C 1481.63 2200.77 1483.19 2200.89 1484.43 2201.07 C 1484.53 2201.05 1484.63 2201.03 1484.74 2201.01 C 1485.75 2200.81 1487.14 2200.8 1488.23 2201.2 C 1489.38 2201.63 1490.61 2202.39 1491.43 2203.63 C 1492.45 2205.16 1493.04 2207.91 1493.37 2210.22 C 1493.71 2212.62 1493.92 2215.8 1493.37 2217.78 C 1493.33 2217.94 1493.28 2218.1 1493.23 2218.26 C 1493.44 2219.97 1493.52 2221.67 1493.47 2223.03 C 1493.76 2227.04 1493.36 2231.78 1492.73 2233.93 C 1492.08 2236.09 1491.56 2237.03 1489.34 2237.93 C 1485.39 2239.53 1477.76 2238.56 1467.16 2238.55 C 1449.43 2238.53 1401.35 2239.06 1387.06 2236.7 C 1386.86 2236.66 1386.66 2236.63 1386.47 2236.6 C 1386.38 2236.63 1386.28 2236.66 1386.17 2236.7 C 1375.05 2240.22 1284.27 2240.49 1266.64 2239.16 C 1259.91 2238.66 1262.15 2237.32 1256.17 2236.7 C 1243.28 2235.36 1201.11 2235.46 1182.85 2235.47 C 1172.38 2235.47 1162.58 2236.77 1156.85 2236.48 C 1143.78 2239.56 1084.82 2241.99 1067.08 2240.39 C 1056.91 2239.48 1057.2 2236.02 1047.36 2234.85 C 1030.39 2232.83 982.441 2236.2 967.266 2234.85 C 959.606 2234.17 960.537 2232.44 953.095 2231.77 C 939.009 2230.5 894.304 2230.87 881.623 2231.77 C 875.704 2232.19 877.519 2233.13 871.149 2233.62 C 857.678 2234.64 801.66 2236.64 780.933 2235.53 C 780.539 2236.62 779.916 2237.57 778.385 2238.21 C 775.042 2239.59 765.508 2239.25 759.285 2238.82 C 753.191 2238.4 751.933 2236.49 741.417 2235.74 C 717.314 2234.04 620.419 2236.58 597.24 2235.13 C 587.57 2234.52 585.506 2232.41 581.22 2232.66 C 577.929 2232.85 577.239 2234.52 573.211 2235.13 C 566.216 2236.18 545.111 2237.67 539.939 2236.36 C 538.575 2236.01 537.876 2235.55 537.391 2234.97 C 530.375 2236.67 513.862 2236.36 494.55 2236.36 C 460.469 2236.36 362.093 2229.83 343.596 2231.43 C 337.778 2231.93 338.991 2233.42 335.586 2233.89 C 331.387 2234.47 322.85 2234.85 318.775 2234.13 C 304.223 2236.45 261.369 2237.88 254.256 2236.36 C 251.715 2235.81 254.548 2234.62 251.175 2233.89 C 233.668 2230.12 27.216 2234.23 9.032 2230.2 C 5.38 2229.38 6.357 2228.93 5.644 2227.42 C 4.681 2225.39 4.398 2220.37 5.027 2218.18 C 5.059 2218.07 5.096 2217.96 5.137 2217.85 C 4.789 2215.05 4.651 2209.6 5.274 2207.25 C 5.474 2206.49 5.773 2205.85 6.119 2205.3 C 6.302 2204.43 6.5 2203.86 7.908 2203.32 C 8.562 2202.82 9.247 2202.63 10.029 2202.49 C 10.725 2202.37 11.564 2202.32 12.359 2202.45 C 17.71 2201.95 25.463 2202.37 32.053 2202.38 C 38.082 2202.39 40.133 2203.23 45.876 2202.93 C 53.714 2202.53 67.086 2199.65 75.733 2199.06 Z" style="fill-opacity: 1; fill-rule: nonzero; stroke: rgb(5, 14, 26); stroke-dasharray: none; stroke-dashoffset: 0px; stroke-linecap: butt; stroke-linejoin: miter; stroke-miterlimit: 4; stroke-opacity: 1; paint-order: normal; vector-effect: none; opacity: 1; mix-blend-mode: normal; isolation: auto; stroke-width: 5px; fill: rgb(158, 119, 103);"/><path stroke="rgb(255,0,0)" stroke-width="0" opacity="0.9921568627450981" d="M 45.088 2429.29 C 45.886 2429.18 47.204 2429.16 48.317 2429.35 C 50.702 2429.29 53.509 2429.44 55.807 2429.45 C 56.51 2429.43 57.229 2429.42 57.963 2429.4 C 58.356 2429.38 58.712 2429.34 59.02 2429.29 C 61.085 2428.94 61.341 2428.11 63.307 2427.86 C 66.262 2427.48 70.651 2427.74 75.81 2428.21 C 79.04 2428.52 82.82 2429.23 86.926 2429.97 C 87.159 2429.98 87.383 2429.99 87.599 2430 C 93.644 2430.24 94.167 2431.13 100.46 2431.43 C 111.299 2431.95 137.259 2431.52 150.83 2431.43 C 161.145 2431.36 168.284 2430.99 176.193 2431.07 C 183.439 2431.15 188.183 2431.96 196.556 2431.79 C 207.766 2431.56 226.973 2428.77 238.711 2428.93 C 248.027 2429.06 254.927 2430.96 262.288 2431.43 C 269.017 2431.86 274.74 2431.84 281.223 2431.79 C 287.945 2431.73 296.101 2430.62 301.942 2431.07 C 306.697 2431.45 310.343 2433.18 314.089 2433.57 C 317.425 2433.92 318.305 2433.67 323.377 2433.57 C 333.745 2433.38 371.74 2430.21 379.656 2431.75 C 380.755 2431.57 382.503 2431.38 383.75 2431.79 C 385.112 2432.23 386.752 2433.22 387.5 2434.47 C 387.94 2435.2 388.225 2436.23 388.325 2437.26 C 388.55 2437.5 388.754 2437.76 388.93 2438.04 C 389.945 2439.65 390.089 2442.07 390.358 2444.83 C 390.707 2448.4 391.117 2454.67 390.358 2458.04 C 389.784 2460.6 388.817 2462.86 387.322 2463.94 C 386.322 2464.66 384.767 2464.91 383.397 2464.85 C 379.584 2465.48 374.028 2465.49 369.461 2465.73 C 362.713 2466.07 353.885 2466.2 347.668 2465.73 C 342.553 2465.33 340.785 2463.81 334.451 2463.58 C 323.932 2463.2 301.684 2466.06 286.938 2466.44 C 273.533 2466.79 260.165 2465.98 249.427 2466.08 C 240.617 2466.17 235.228 2466.76 226.564 2466.8 C 216.252 2466.84 200.05 2466.98 191.198 2466.08 C 184.99 2465.45 184.562 2463.96 176.908 2463.23 C 161.918 2461.79 112.703 2461.46 98.674 2461.44 C 92.093 2461.43 90.85 2461.79 86.885 2461.8 C 82.872 2461.8 77.997 2461.22 74.739 2461.44 C 72.255 2461.6 71.639 2462.29 68.666 2462.51 C 63.581 2462.9 49.358 2463.64 45.088 2462.51 C 42.865 2461.92 42.21 2461.88 41.337 2459.83 C 39.59 2455.74 39.51 2438.32 40.622 2433.75 C 41.178 2431.47 42.437 2430.72 43.302 2430 C 43.911 2429.5 44.308 2429.39 45.088 2429.29 Z M 361.128 2453.74 C 361.406 2453.73 361.685 2453.72 361.964 2453.71 C 361.668 2453.7 361.389 2453.7 361.128 2453.74 Z" style="fill-opacity: 1; fill-rule: nonzero; stroke: rgb(5, 14, 26); stroke-dasharray: none; stroke-dashoffset: 0px; stroke-linecap: butt; stroke-linejoin: miter; stroke-miterlimit: 4; stroke-opacity: 1; stroke-width: 0px; paint-order: normal; vector-effect: none; opacity: 1; mix-blend-mode: normal; isolation: auto; fill: rgb(135, 93, 88);"/><path fill="rgb(255,0,0)" stroke="rgb(255,0,0)" stroke-width="0" opacity="0.9529411764705882" d="M 34.813 2525.155 C 36.219 2525.178 40.86 2525.361 42.511 2527.927 C 45 2531.793 44.782 2546.685 43.743 2550.713 C 43.206 2552.794 42.253 2553.42 40.971 2554.101 C 39.559 2554.85 36.96 2555.152 35.428 2554.716 C 34.039 2554.321 32.858 2553.891 32.041 2551.945 C 30.46 2548.179 29.77 2533.187 30.81 2529.158 C 31.346 2527.077 32.824 2526.407 33.581 2525.771 C 34.058 2525.37 34.123 2525.144 34.813 2525.155 Z" style="fill: rgb(110, 66, 80); fill-opacity: 1; fill-rule: nonzero; stroke: rgb(5, 14, 26); stroke-dasharray: none; stroke-dashoffset: 0px; stroke-linecap: butt; stroke-linejoin: miter; stroke-miterlimit: 4; stroke-opacity: 1; stroke-width: 0px; paint-order: normal; vector-effect: none; opacity: 1; mix-blend-mode: normal; isolation: auto;"/><path fill="rgb(255,0,0)" stroke="rgb(255,0,0)" stroke-width="0" opacity="0.9490196078431372" d="M 43.68 2578.47 C 43.686 2578.47 43.691 2578.47 43.697 2578.47 C 52.715 2576.89 75.765 2577.3 89.253 2577.24 C 103.032 2577.18 113.035 2578.32 128.052 2578.47 C 146.471 2578.66 167.858 2577.51 192.718 2577.86 C 222.938 2578.28 267.543 2581.53 298.029 2581.55 C 323.397 2581.57 352.687 2579.05 364.542 2579.09 C 370.068 2579.11 370.938 2579.69 374.396 2579.7 C 378.098 2579.72 383.526 2578.35 386.097 2579.09 C 387.831 2579.58 388.804 2580.58 389.484 2581.86 C 389.707 2582.28 389.89 2582.81 390.027 2583.38 C 392.233 2587.74 393.244 2598.79 392.564 2602.18 C 392.163 2604.18 391.074 2604.89 389.792 2605.57 C 388.517 2606.25 386.273 2606.56 384.722 2606.29 C 381.584 2606.42 377.682 2606.18 374.396 2606.19 C 370.061 2606.2 366.533 2605.8 361.489 2605.64 C 359.542 2605.85 357.658 2606.04 355.92 2606.19 C 348.32 2606.84 339.405 2606.91 331.804 2606.6 C 323.527 2607.01 314.753 2607.4 306.651 2607.42 C 288.204 2607.46 260.86 2605.56 248.761 2605.57 C 241.991 2605.58 241.478 2606.16 235.212 2606.19 C 225.258 2606.23 204.559 2604.74 192.102 2604.95 C 181.748 2605.14 173.419 2607.09 165.004 2606.8 C 157.301 2606.54 151.756 2604.28 143.449 2603.72 C 133.392 2603.04 117.123 2602.86 108.345 2603.72 C 102.183 2604.33 98.924 2606.29 94.18 2606.8 C 89.48 2607.31 86.196 2606.92 80.015 2606.8 C 71.005 2606.64 49.158 2607.2 43.68 2605.57 C 41.331 2604.87 40.973 2604.08 40.293 2602.8 C 39.712 2601.7 39.4 2599.9 39.491 2598.43 C 39.116 2595.41 38.978 2591.41 39.083 2588.06 C 39.076 2588.05 39.068 2588.03 39.061 2588.02 C 38.311 2586.61 38.009 2584.01 38.445 2582.48 C 38.841 2581.09 38.847 2579.97 41.216 2579.09 C 41.699 2578.91 42.308 2578.75 43.027 2578.6 C 43.181 2578.51 43.365 2578.47 43.68 2578.47 Z" style="fill: rgb(135, 93, 88); fill-opacity: 1; fill-rule: nonzero; stroke: rgb(5, 14, 26); stroke-dasharray: none; stroke-dashoffset: 0px; stroke-linecap: butt; stroke-linejoin: miter; stroke-miterlimit: 4; stroke-opacity: 1; stroke-width: 0px; paint-order: normal; vector-effect: none; opacity: 1; mix-blend-mode: normal; isolation: auto;"/><path fill="rgb(255,0,0)" stroke="rgb(255,0,0)" stroke-width="0" opacity="0.9529411764705882" d="M 45.527 2702.74 C 46.517 2702.75 49.229 2703.18 51.24 2704.09 C 52.515 2704.03 53.893 2703.99 55.381 2703.97 C 67.136 2703.76 91.389 2707.65 109.577 2707.66 C 127.928 2707.67 151.163 2703.43 165.004 2703.97 C 174.642 2704.34 180.903 2707.26 187.175 2707.66 C 192.205 2707.99 193.109 2706.98 200.108 2707.05 C 214.302 2707.17 264.237 2710.77 275.858 2710.74 C 280.443 2710.73 281.164 2710.08 283.249 2710.12 C 284.933 2710.16 285.568 2711.07 287.56 2710.74 C 290.913 2710.19 297.842 2705.52 302.34 2704.58 C 306.135 2703.79 307.75 2704.45 312.81 2704.58 C 321.412 2704.81 339.674 2706.36 352.225 2706.43 C 364.036 2706.5 380.865 2703.87 386.097 2705.2 C 388.404 2705.78 388.804 2706.69 389.484 2707.97 C 389.728 2708.43 389.925 2709.01 390.064 2709.65 C 392.182 2714.44 392.744 2726.56 391.948 2730.14 C 391.492 2732.19 390.458 2732.85 389.176 2733.53 C 387.764 2734.28 385.165 2734.58 383.634 2734.14 C 383.616 2734.14 383.598 2734.13 383.58 2734.13 C 383.4 2734.13 383.213 2734.14 383.018 2734.14 C 376.767 2734.36 361.519 2733.47 349.146 2733.53 C 335.137 2733.6 317.559 2734.9 302.956 2734.76 C 289.333 2734.63 280.987 2732.93 264.157 2732.91 C 239.85 2732.89 189.804 2737.09 166.851 2736.61 C 152.002 2736.3 146.083 2733.81 134.211 2733.53 C 120.885 2733.21 101.237 2735.49 90.485 2735.37 C 83.176 2735.3 80.413 2734.16 73.857 2734.14 C 65.607 2734.13 49.081 2737.15 44.296 2735.99 C 42.069 2735.45 41.589 2734.5 40.908 2733.22 C 40.333 2732.13 40.021 2730.35 40.105 2728.89 C 39.666 2725.17 39.684 2720.01 40.044 2716.19 C 39.647 2715.77 39.347 2715.28 39.061 2714.74 C 38.311 2713.33 38.009 2710.73 38.445 2709.2 C 38.841 2707.81 39.518 2706.66 41.216 2705.81 C 41.819 2705.51 42.512 2705.26 43.299 2705.05 C 43.678 2704.3 44.025 2703.71 44.296 2703.35 C 44.754 2702.75 44.838 2702.72 45.527 2702.74 Z" style="fill: rgb(135, 93, 88); fill-opacity: 1; fill-rule: nonzero; stroke: rgb(5, 14, 26); stroke-dasharray: none; stroke-dashoffset: 0px; stroke-linecap: butt; stroke-linejoin: miter; stroke-miterlimit: 4; stroke-opacity: 1; stroke-width: 0px; paint-order: normal; vector-effect: none; opacity: 1; mix-blend-mode: normal; isolation: auto;"/><path fill="rgb(255,0,0)" stroke="rgb(255,0,0)" stroke-width="0" opacity="0.9529411764705882" d="M 254.082 2843.07 C 256.762 2843.14 259.159 2843.31 261.41 2843.52 C 281.075 2842.77 306.708 2840 313.315 2841.15 C 316.023 2840.89 318.806 2840.69 321.669 2840.59 C 340.595 2839.91 379.919 2840.52 387.396 2842.45 C 389.718 2843.04 389.522 2843.49 390.186 2844.62 C 391.024 2846.04 391.753 2849.25 391.426 2850.82 C 391.409 2850.9 391.393 2850.97 391.376 2851.05 C 391.384 2851.79 391.39 2852.55 391.426 2853.3 C 391.605 2857.04 391.648 2863.72 390.806 2866.32 C 390.306 2867.86 389.764 2868.45 388.636 2869.11 C 387.213 2869.95 384.098 2870.73 382.435 2870.35 C 382.11 2870.27 381.798 2870.18 381.499 2870.07 C 371.256 2870.79 353.135 2870.37 345.231 2870.35 C 338.533 2870.33 339.4 2869.61 330.35 2869.73 C 308.116 2870.03 218.207 2876.49 189.595 2876.55 C 174.095 2876.58 170.943 2874.65 159.212 2874.69 C 144.868 2874.74 122.187 2878.47 108.987 2877.79 C 99.177 2877.29 94.8 2874.62 85.424 2873.45 C 73.588 2871.97 48.746 2872.29 42.64 2870.35 C 40.183 2869.57 39.908 2868.8 39.23 2867.56 C 38.692 2866.57 38.404 2865.11 38.452 2863.8 C 37.794 2859.87 37.448 2853.81 37.505 2849.01 C 37.223 2848.6 36.999 2848.18 36.749 2847.72 C 35.995 2846.33 35.762 2844.26 36.129 2842.76 C 36.494 2841.26 38.142 2839.45 38.919 2838.73 C 39.389 2838.29 38.935 2838.25 40.16 2838.11 C 46.477 2837.35 97.006 2840.3 123.868 2840.59 C 149.405 2840.86 175.388 2839.31 197.656 2839.97 C 212.776 2840.41 225.226 2842.23 238.706 2843.16 C 244.283 2843.02 249.585 2842.95 254.082 2843.07 Z" style="fill: rgb(135, 93, 88); fill-opacity: 1; fill-rule: nonzero; stroke: rgb(5, 14, 26); stroke-dasharray: none; stroke-dashoffset: 0px; stroke-linecap: butt; stroke-linejoin: miter; stroke-miterlimit: 4; stroke-opacity: 1; stroke-width: 0px; paint-order: normal; vector-effect: none; opacity: 1; mix-blend-mode: normal; isolation: auto;"/><path fill="rgb(255,0,0)" stroke="rgb(255,0,0)" stroke-width="0" opacity="0.9803921568627451" d="M 136.44 2408.307 C 139.178 2409.024 139.645 2410.024 140.499 2411.283 C 141.313 2412.484 141.808 2414.129 141.581 2415.613 C 141.327 2417.276 140.09 2419.806 138.605 2420.754 C 137.116 2421.704 135.819 2421.268 132.651 2421.295 C 126.415 2421.349 108.515 2419.75 100.18 2419.672 C 94.216 2419.615 88.904 2421.001 86.109 2420.213 C 84.446 2419.744 83.809 2418.808 83.133 2417.778 C 82.45 2416.737 81.859 2415.34 82.05 2413.989 C 82.276 2412.397 83.285 2409.923 85.027 2408.848 C 85.474 2408.572 85.947 2408.373 86.461 2408.229 C 85.507 2404.1 84.605 2398.465 82.591 2393.424 C 78.762 2383.84 67.986 2369.05 65.273 2359.87 C 63.311 2353.229 63.814 2348.11 64.191 2343.093 C 64.522 2338.679 65.306 2335.834 66.897 2331.187 C 68.972 2325.125 72.736 2315.64 76.638 2309.54 C 80.163 2304.03 86.038 2298.515 88.815 2295.739 C 88.998 2295.556 89.172 2295.395 89.338 2295.249 C 87.563 2295.16 86.084 2294.983 85.027 2294.657 C 83.184 2294.088 82.726 2293.252 82.05 2292.221 C 81.367 2291.181 80.777 2289.784 80.968 2288.433 C 81.193 2286.841 83.155 2284.108 83.944 2283.292 C 84.362 2282.86 83.993 2282.894 85.027 2282.751 C 90.027 2282.059 139.861 2281.386 147.264 2283.292 C 149.694 2283.918 149.564 2284.697 150.24 2285.727 C 150.923 2286.767 151.514 2288.165 151.322 2289.516 C 151.097 2291.107 151.049 2293.453 148.346 2294.657 C 146.34 2295.551 142.12 2295.91 136.972 2295.992 C 140.187 2302.201 148.975 2311.964 152.946 2320.363 C 156.889 2328.704 160.258 2337.15 161.064 2346.341 C 161.914 2356.032 160.83 2368.609 157.276 2377.188 C 154.037 2385.007 145.716 2392.418 141.852 2396.401 C 139.474 2398.85 137.247 2398.827 136.169 2401.001 C 135.297 2402.762 135.79 2405.694 135.852 2408.171 C 136.064 2408.215 136.26 2408.26 136.44 2408.307 Z M 112.288 2295.363 C 112.121 2295.357 111.955 2295.351 111.791 2295.345 C 111.883 2295.42 111.975 2295.496 112.066 2295.571 C 112.145 2295.508 112.218 2295.438 112.288 2295.363 Z" style="fill: rgb(135, 93, 88); fill-opacity: 1; fill-rule: nonzero; stroke: rgb(5, 14, 26); stroke-dasharray: none; stroke-dashoffset: 0px; stroke-linecap: butt; stroke-linejoin: miter; stroke-miterlimit: 4; stroke-opacity: 1; stroke-width: 0px; paint-order: normal; vector-effect: none; opacity: 1; mix-blend-mode: normal; isolation: auto;"/><path fill="rgb(255,0,0)" stroke="rgb(255,0,0)" stroke-width="0" opacity="0.9294117647058824" d="M 248.966 2349.81 C 250.326 2349.81 255.394 2350.79 256.814 2352.25 C 257.977 2353.44 257.776 2354.47 257.896 2357.12 C 258.137 2362.41 255.904 2375.99 255.731 2385.26 C 255.561 2394.38 257.864 2407.1 256.814 2412.32 C 256.241 2415.16 255.322 2416.51 253.837 2417.46 C 252.348 2418.41 249.433 2418.45 247.884 2418 C 246.586 2417.63 245.7 2417.61 244.907 2415.57 C 242.895 2410.37 242.878 2385.81 242.743 2376.06 C 242.651 2369.42 242.296 2365.37 243.284 2360.91 C 244.169 2356.91 246.809 2351.69 247.884 2350.35 C 248.32 2349.81 248.334 2349.82 248.966 2349.81 Z M 269.532 2352.52 C 270.892 2352.51 275.538 2351.65 277.379 2354.95 C 281.353 2362.09 280.091 2402.82 278.461 2411.24 C 277.798 2414.66 276.97 2415.43 275.485 2416.38 C 273.996 2417.33 271.08 2417.36 269.532 2416.92 C 268.233 2416.55 267.326 2416.72 266.555 2414.49 C 264.3 2407.94 263.843 2366.62 265.473 2358.2 C 266.135 2354.78 267.66 2353.88 268.449 2353.06 C 268.867 2352.63 268.899 2352.52 269.532 2352.52 Z M 296.591 2355.77 C 297.951 2355.76 302.817 2355.89 304.438 2358.2 C 306.652 2361.36 305.488 2368.72 305.521 2376.06 C 305.564 2385.86 305.462 2406.47 303.897 2412.86 C 303.143 2415.94 302.406 2417.05 300.921 2418 C 299.432 2418.95 296.516 2418.99 294.967 2418.54 C 293.669 2418.17 292.726 2417.99 291.991 2416.11 C 290.348 2411.9 290.799 2396.7 290.909 2387.43 C 291.014 2378.5 291.186 2366.53 292.532 2361.45 C 293.278 2358.64 294.719 2357.12 295.509 2356.31 C 295.926 2355.88 295.959 2355.77 296.591 2355.77 Z M 319.321 2336.28 C 320.385 2336.07 323.285 2335.79 324.733 2336.28 C 325.996 2336.72 326.91 2337.44 327.709 2338.72 C 328.774 2340.42 329.426 2342.64 329.874 2346.3 C 330.608 2352.28 330.055 2364.34 329.874 2373.36 C 329.694 2382.38 328.684 2393.05 328.792 2400.41 C 328.875 2406.09 330.546 2411.12 329.874 2414.49 C 329.399 2416.86 328.383 2418.68 326.898 2419.63 C 325.409 2420.58 322.493 2420.61 320.945 2420.17 C 319.646 2419.8 318.761 2419.79 317.968 2417.73 C 315.932 2412.44 315.925 2389.45 315.803 2377.14 C 315.696 2366.27 317.458 2353.06 316.886 2347.38 C 316.591 2344.45 315.054 2343.71 315.262 2341.97 C 315.474 2340.19 317.449 2337.64 318.239 2336.82 C 318.656 2336.39 318.737 2336.4 319.321 2336.28 Z M 346.922 2363.88 C 348.282 2363.88 351.647 2363.48 354.769 2366.32 C 361.247 2372.21 377.602 2402.79 380.746 2410.16 C 382.039 2413.18 382.12 2413.83 381.828 2415.57 C 381.528 2417.36 380.337 2419.76 378.852 2420.71 C 377.363 2421.66 374.448 2421.7 372.899 2421.25 C 371.601 2420.88 371.439 2420.7 369.922 2418.82 C 365.884 2413.8 350.876 2389.65 346.651 2380.93 C 344.151 2375.77 342.658 2372.49 342.863 2369.57 C 343.018 2367.36 345.05 2365.24 345.839 2364.43 C 346.257 2363.99 346.29 2363.89 346.922 2363.88 Z M 222.989 2381.74 C 224.349 2381.74 229.157 2381.62 230.836 2384.18 C 233.432 2388.13 233.166 2402.27 231.919 2408.53 C 230.965 2413.32 230.022 2417.29 226.236 2419.63 C 221.237 2422.72 206.454 2422.61 201.342 2421.79 C 198.374 2421.32 196.755 2420.11 195.659 2418.82 C 194.758 2417.75 194.385 2416.38 194.577 2415.03 C 194.802 2413.43 195.873 2410.88 197.553 2409.89 C 199.508 2408.73 203.985 2409.27 206.212 2409.34 C 206.779 2409.36 207.221 2409.45 207.625 2409.54 C 207.91 2407.27 208.943 2404.28 210.271 2402.04 C 211.764 2399.51 215.295 2396.25 216.495 2395.27 C 217.028 2394.84 216.945 2394.74 217.577 2394.73 C 217.872 2394.73 218.341 2394.78 218.909 2394.86 C 218.681 2391.82 218.528 2389.04 218.93 2387.43 C 219.589 2384.78 221.118 2383.1 221.907 2382.28 C 222.324 2381.85 222.357 2381.75 222.989 2381.74 Z" style="fill: rgb(135, 93, 88); fill-opacity: 1; fill-rule: nonzero; stroke: rgb(5, 14, 26); stroke-dasharray: none; stroke-dashoffset: 0px; stroke-linecap: butt; stroke-linejoin: miter; stroke-miterlimit: 4; stroke-opacity: 1; stroke-width: 0px; paint-order: normal; vector-effect: none; opacity: 1; mix-blend-mode: normal; isolation: auto;"/><path fill="rgb(255,0,0)" stroke="rgb(255,0,0)" stroke-width="0" opacity="0.984313725490196" d="M 55.696 2930.659 C 55.544 2941.034 54.749 2951.782 54.808 2960.403 C 54.836 2964.478 53.592 2968.751 53.374 2972.394 C 56.869 2969.78 62.482 2966.579 70.124 2962.401 C 79.72 2957.155 97.525 2948.729 114.332 2940.63 C 105.853 2934.979 86.245 2922.278 83.665 2919.782 C 82.859 2919.003 83.805 2919.153 82.999 2918.451 C 80.637 2916.395 63.775 2908.9 56.017 2903.992 C 56.125 2912.204 55.814 2922.604 55.696 2930.659 Z M 106.084 2980.603 C 110.157 2980.263 110.196 2979.167 113.187 2978.827 C 117.228 2978.367 123.12 2978.212 128.725 2978.827 C 133.998 2979.404 142.67 2980.298 147.197 2982.077 C 154.018 2981.902 166.289 2982.61 173.277 2982.528 C 157.952 2972.865 132.782 2954.822 125.687 2949.457 C 99.683 2962.692 72.93 2976.173 63.348 2981.766 C 76.191 2983.587 99.135 2981.183 106.084 2980.603 Z M 156.693 2906.908 C 145.424 2906.549 135.042 2905.074 122.51 2903.357 C 108.166 2901.391 88.486 2896.859 75.008 2895.366 C 72.942 2895.137 70.822 2894.999 68.711 2894.917 C 73.243 2897.212 78.808 2900.529 84.774 2904.244 C 95.223 2910.751 117.91 2926.409 128.011 2933.981 C 133.202 2931.427 137.994 2929.018 142.043 2926.886 C 154.728 2920.206 167.33 2910.966 175.417 2907.161 C 169.211 2907.278 162.248 2907.085 156.693 2906.908 Z M 184.508 2972.832 C 185.282 2959.134 183.109 2933.156 183.029 2918.967 C 176.991 2923.016 158.988 2932.433 138.537 2942.901 C 149.634 2950.482 174.946 2966.434 184.508 2972.832 Z M 188.657 2892.258 C 190.384 2892.106 193.837 2893.039 195.094 2894.034 C 196.029 2894.773 196.135 2895.328 196.426 2896.92 C 196.982 2899.956 196.484 2904.849 196.426 2912.901 C 196.321 2927.488 195.912 2973.337 195.538 2983.488 C 195.401 2987.221 195.747 2987.577 195.094 2989.26 C 194.46 2990.893 194.513 2992.43 191.765 2993.477 C 185.144 2996.001 150.225 2996.428 143.375 2994.809 C 142.557 2994.616 141.959 2994.392 141.503 2994.139 C 140.611 2994.09 139.733 2994.008 138.935 2993.921 C 136.208 2993.623 134.205 2992.168 130.945 2991.701 C 126.752 2991.101 119.814 2990.832 115.407 2991.257 C 111.775 2991.608 108.831 2993.42 106.084 2993.477 C 103.753 2993.525 103.568 2992.474 99.869 2992.145 C 91.296 2991.382 55.098 2993.551 47.927 2991.701 C 45.173 2990.99 45.115 2991.229 44.154 2988.816 C 41.842 2983.01 42.542 2960.873 42.378 2946.197 C 42.207 2930.875 43.491 2908.749 43.266 2898.695 C 43.143 2893.213 42.111 2889.879 42.342 2887.457 C 42.326 2887.023 42.338 2886.616 42.378 2886.265 C 42.507 2885.121 42.98 2884.143 43.71 2883.379 C 44.492 2882.561 44.909 2881.962 47.039 2881.603 C 52.05 2880.759 65.846 2881.562 79.003 2882.935 C 96.78 2884.79 129.105 2891.881 146.039 2893.59 C 157.843 2894.781 166.016 2894.562 173.563 2894.478 C 178.059 2894.427 182.504 2893.618 185.687 2893.484 C 186.488 2892.454 187.467 2892.363 188.657 2892.258 Z" style="fill: rgb(135, 93, 88); fill-opacity: 1; fill-rule: nonzero; stroke: rgb(5, 14, 26); stroke-dasharray: none; stroke-dashoffset: 0px; stroke-linecap: butt; stroke-linejoin: miter; stroke-miterlimit: 4; stroke-opacity: 1; stroke-width: 0px; paint-order: normal; vector-effect: none; opacity: 1; mix-blend-mode: normal; isolation: auto;"/><path fill="rgb(255,0,0)" stroke="rgb(255,0,0)" stroke-width="0" opacity="0.9882352941176471" d="M 267.679 2883.823 C 270.514 2883.611 274.009 2884.536 275.448 2885.599 C 276.444 2886.335 276.481 2886.819 276.78 2888.484 C 277.391 2891.896 276.868 2899.464 276.78 2907.574 C 276.656 2918.941 275.589 2938.472 275.892 2951.968 C 276.16 2963.943 279.506 2978.589 278.111 2984.82 C 277.347 2988.236 276.488 2989.543 273.894 2990.813 C 270.088 2992.676 258.518 2992.66 254.804 2991.701 C 252.676 2991.151 251.931 2991.044 251.031 2988.815 C 249.111 2984.065 249.807 2965.564 250.143 2957.296 C 250.391 2951.193 251.555 2949.469 251.919 2942.645 C 252.5 2931.754 250.941 2901.271 251.919 2895.144 C 252.25 2893.066 252.595 2893.067 253.251 2892.258 C 253.919 2891.434 255.321 2891.048 255.914 2890.26 C 256.452 2889.547 255.904 2888.604 256.802 2887.819 C 258.436 2886.391 264.385 2884.07 267.679 2883.823 Z M 342.261 2883.823 C 343.775 2883.679 347.126 2883.474 348.698 2885.599 C 351.28 2889.087 351.117 2898.904 351.806 2908.462 C 352.743 2921.456 352.878 2950.537 352.694 2958.183 C 352.621 2961.21 352.182 2960.553 352.25 2963.067 C 352.377 2967.786 355.891 2982.166 354.913 2986.596 C 354.373 2989.043 353.624 2989.845 351.584 2990.813 C 348.389 2992.329 338.515 2992.961 335.158 2992.145 C 333.117 2991.649 332.455 2992.251 331.385 2989.259 C 327.756 2979.122 325.83 2898.704 326.945 2888.928 C 327.225 2886.472 327.301 2886.78 328.277 2886.043 C 329.656 2885.002 333.506 2884.333 335.602 2884.267 C 337.312 2884.213 338.87 2885.332 340.041 2885.155 C 340.978 2885.013 341.225 2883.922 342.261 2883.823 Z" style="fill: rgb(135, 93, 88); fill-opacity: 1; fill-rule: nonzero; stroke: rgb(5, 14, 26); stroke-dasharray: none; stroke-dashoffset: 0px; stroke-linecap: butt; stroke-linejoin: miter; stroke-miterlimit: 4; stroke-opacity: 1; stroke-width: 0px; paint-order: normal; vector-effect: none; opacity: 1; mix-blend-mode: normal; isolation: auto;"/><path fill="rgb(255,0,0)" stroke="rgb(255,0,0)" stroke-width="0" opacity="0.9882352941176471" d="M 86.494 2530.535 C 86.974 2530.431 87.482 2530.348 88.01 2530.283 C 87.965 2527.628 87.965 2524.902 88.031 2522.48 C 85.493 2522.425 83.369 2522.271 82.211 2521.971 C 80.173 2521.444 79.625 2520.708 78.929 2519.545 C 78.16 2518.262 77.757 2515.896 78.072 2514.406 C 78.364 2513.025 78.966 2511.652 80.499 2510.838 C 82.787 2509.621 88.06 2509.893 92.203 2509.696 C 96.679 2509.482 103.471 2508.89 106.477 2509.696 C 108.339 2510.195 109.301 2510.938 110.045 2512.122 C 110.848 2513.399 111.217 2515.771 110.902 2517.261 C 110.609 2518.642 109.322 2520.102 108.475 2520.829 C 107.831 2521.382 107.809 2521.469 106.477 2521.686 C 105.508 2521.843 103.532 2522.018 101.093 2522.165 C 101.207 2524.936 101.281 2528.174 101.281 2531.275 C 102.144 2531.548 102.975 2531.874 103.907 2532.248 C 106.071 2533.116 108.455 2534.274 110.473 2535.674 C 112.5 2537.079 114.756 2539.02 116.04 2540.67 C 117.085 2542.012 117.649 2542.851 118.038 2544.666 C 118.588 2547.227 118.863 2552.125 118.038 2555.229 C 117.273 2558.109 115.9 2560.424 113.614 2562.794 C 110.824 2565.685 104.635 2569.385 101.624 2570.787 C 99.699 2571.683 98.824 2571.721 97.056 2571.929 C 94.935 2572.178 92.338 2572.445 89.634 2571.929 C 86.435 2571.319 81.578 2569.367 79.071 2567.932 C 77.253 2566.892 76.26 2566.081 75.217 2564.649 C 74.064 2563.065 73.156 2561.098 72.648 2558.654 C 72.019 2555.627 72.1 2550.749 72.363 2547.521 C 72.584 2544.798 72.857 2542.554 73.79 2540.384 C 74.718 2538.227 75.994 2536.125 77.929 2534.532 C 80.091 2532.753 83.314 2531.227 86.494 2530.535 Z" style="fill: rgb(135, 93, 88); fill-opacity: 1; fill-rule: nonzero; stroke: rgb(5, 14, 26); stroke-dasharray: none; stroke-dashoffset: 0px; stroke-linecap: butt; stroke-linejoin: miter; stroke-miterlimit: 4; stroke-opacity: 1; stroke-width: 0px; paint-order: normal; vector-effect: none; opacity: 1; mix-blend-mode: normal; isolation: auto;"/><path fill="rgb(255,0,0)" stroke="rgb(255,0,0)" stroke-width="0" opacity="0.9921568627450981" d="M 136.863 2529.08 C 138.382 2528.88 142.113 2528.93 146.155 2529.1 C 146.088 2526.45 146.147 2523.25 146.141 2520.37 C 146.13 2515.36 146.497 2509 146.426 2504.1 C 146.406 2502.68 146.267 2501.21 146.112 2499.79 C 144.35 2499.74 142.891 2499.61 142.001 2499.39 C 140.008 2498.89 139.415 2498.13 138.718 2496.96 C 137.95 2495.68 137.547 2493.31 137.862 2491.82 C 138.154 2490.44 139.113 2489.09 140.289 2488.26 C 141.567 2487.35 142.932 2487.13 145.427 2486.83 C 149.561 2486.34 160.648 2485.89 164.268 2486.83 C 166.276 2487.35 167.092 2488.07 167.837 2489.26 C 168.639 2490.53 169.008 2492.9 168.693 2494.39 C 168.401 2495.78 167.114 2497.23 166.267 2497.96 C 165.623 2498.51 165.574 2498.59 164.268 2498.82 C 163.241 2499 161.085 2499.21 158.483 2499.4 C 158.648 2507.37 158.511 2519.41 158.416 2522.94 C 158.361 2524.99 158.13 2524.91 158.131 2526.37 C 158.131 2527.3 158.352 2528.61 158.547 2529.97 C 161.534 2530.31 163.028 2530.56 165.125 2531.36 C 167.296 2532.2 169.741 2532.16 171.262 2534.93 C 173.965 2539.85 175.272 2559.73 174.403 2564.62 C 174.002 2566.88 173.221 2567.44 171.976 2568.19 C 170.55 2569.05 167.652 2569.17 165.981 2569.04 C 164.623 2568.94 164.151 2568.13 162.555 2567.9 C 160.105 2567.55 155.948 2567.79 151.993 2567.9 C 147.356 2568.03 139.405 2569.53 136.292 2568.76 C 134.477 2568.31 133.706 2567.49 133.009 2566.33 C 132.241 2565.05 132.021 2562.61 132.153 2561.19 C 132.259 2560.05 133.132 2559.59 133.294 2558.34 C 133.519 2556.62 132.599 2552.48 132.723 2551.49 C 132.772 2551.1 132.956 2551.39 133.009 2550.92 C 133.206 2549.17 131.018 2537.6 131.867 2534.07 C 132.393 2531.89 133.901 2530.74 134.865 2529.93 C 135.549 2529.36 135.57 2529.25 136.863 2529.08 Z" style="fill: rgb(135, 93, 88); fill-opacity: 1; fill-rule: nonzero; stroke: rgb(5, 14, 26); stroke-dasharray: none; stroke-dashoffset: 0px; stroke-linecap: butt; stroke-linejoin: miter; stroke-miterlimit: 4; stroke-opacity: 1; stroke-width: 0px; paint-order: normal; vector-effect: none; opacity: 1; mix-blend-mode: normal; isolation: auto;"/><path fill="rgb(255,0,0)" stroke="rgb(255,0,0)" stroke-width="0" opacity="0.984313725490196" d="M 234.067 2574.61 C 233.775 2575.99 232.886 2577.43 231.64 2578.18 C 230.214 2579.04 228.108 2578.99 225.645 2579.03 C 222.373 2579.09 217.728 2578.05 213.37 2577.89 C 208.64 2577.72 201.276 2579 198.24 2578.18 C 196.442 2577.69 195.654 2576.92 194.957 2575.75 C 194.849 2575.57 194.748 2575.37 194.656 2575.15 C 193.84 2573.72 193.152 2571.76 193.815 2569.19 C 194.902 2564.96 201.515 2556.07 204.663 2551.77 C 205.835 2550.17 207.019 2548.69 208.098 2547.46 C 207.9 2544.54 207.753 2540.24 207.773 2536.29 C 206.849 2536.24 206.025 2536.13 205.377 2535.93 C 203.75 2535.42 202.791 2534.66 202.094 2533.5 C 201.325 2532.22 200.922 2529.85 201.237 2528.36 C 201.53 2526.98 202.817 2525.52 203.664 2524.8 C 204.308 2524.24 204.391 2524.13 205.662 2523.94 C 206.677 2523.79 208.777 2523.66 211.272 2523.59 C 211.728 2523.3 212.177 2523.18 212.799 2523.08 C 213.861 2522.92 215.656 2522.93 216.796 2523.37 C 216.93 2523.42 217.063 2523.48 217.194 2523.55 C 220.712 2523.6 224.035 2523.8 225.645 2524.22 C 227.685 2524.77 228.469 2525.47 229.214 2526.65 C 230.017 2527.93 230.385 2530.3 230.07 2531.79 C 229.778 2533.17 228.491 2534.63 227.644 2535.36 C 227 2535.91 226.706 2536.03 225.645 2536.21 C 224.607 2536.39 222.837 2536.39 220.906 2536.35 C 221.001 2539.96 220.997 2543.91 220.805 2546.85 C 222.31 2549.07 223.304 2553.95 225.217 2556.91 C 227.158 2559.92 231.022 2562.21 232.354 2564.9 C 233.199 2566.61 233.626 2568.61 233.628 2570.27 C 234.177 2571.6 234.325 2573.39 234.067 2574.61 Z" style="fill: rgb(135, 93, 88); fill-opacity: 1; fill-rule: nonzero; stroke: rgb(5, 14, 26); stroke-dasharray: none; stroke-dashoffset: 0px; stroke-linecap: butt; stroke-linejoin: miter; stroke-miterlimit: 4; stroke-opacity: 1; stroke-width: 0px; paint-order: normal; vector-effect: none; opacity: 1; mix-blend-mode: normal; isolation: auto; transform-box: fill-box; transform-origin: 50% 50%;" transform="matrix(-0.257505, -0.966277, 0.966277, -0.257505, -0.000113, 0.000142)"/><path fill="rgb(255,0,0)" stroke="rgb(255,0,0)" stroke-width="0" opacity="0.9686274509803922" d="M 324.432 2475.787 C 325.909 2475.795 329.469 2476.18 331.056 2477.869 C 332.94 2479.874 331.989 2484.426 334.084 2488.089 C 336.828 2492.886 342.409 2499.673 347.9 2503.798 C 353.435 2507.955 361.278 2511.009 367.205 2512.882 C 372.24 2514.473 376.689 2514.784 381.21 2515.153 C 385.507 2515.504 391.043 2514.468 393.702 2515.153 C 395.359 2515.581 396.192 2516.123 396.919 2517.235 C 397.777 2518.547 398.362 2521.311 398.055 2522.913 C 397.781 2524.343 397.353 2525.692 395.594 2526.509 C 392.48 2527.957 383.703 2527.824 377.425 2527.266 C 370.737 2526.672 362.579 2524.688 356.606 2522.724 C 351.477 2521.037 346.491 2518.597 343.358 2516.667 C 341.135 2515.298 339.407 2513.396 338.626 2512.693 C 338.281 2512.382 338.399 2512.448 338.059 2512.125 C 337.277 2511.382 335.262 2509.975 333.327 2507.772 C 330.295 2504.32 323.573 2495.383 321.593 2491.874 C 320.504 2489.945 320.361 2489.412 320.079 2487.71 C 319.723 2485.561 319.47 2481.705 320.079 2479.761 C 320.544 2478.277 321.713 2477.196 322.539 2476.544 C 323.167 2476.049 323.527 2475.782 324.432 2475.787 Z M 365.339 2476.218 C 367.051 2476.188 370.375 2477.768 371.423 2478.526 C 372.008 2478.949 371.779 2479.303 372.262 2479.785 C 373.02 2480.54 375.097 2481.588 376.039 2482.512 C 376.813 2483.271 376.375 2484.029 377.717 2484.82 C 380.74 2486.6 395.5 2487.786 398.697 2490.484 C 400.595 2492.087 400.473 2494.525 400.375 2496.149 C 400.291 2497.529 399.857 2498.856 398.697 2499.715 C 397.161 2500.852 394.076 2501.403 390.934 2501.394 C 386.84 2501.381 379.787 2499.882 375.829 2498.456 C 372.714 2497.334 370.142 2495.546 368.486 2494.26 C 367.334 2493.366 366.932 2492.396 366.178 2491.743 C 365.538 2491.189 364.803 2491.071 364.29 2490.484 C 363.732 2489.844 363.527 2488.486 363.031 2487.967 C 362.656 2487.573 362.153 2487.861 361.773 2487.337 C 361.088 2486.395 359.987 2483.127 360.094 2481.463 C 360.184 2480.067 360.898 2478.771 361.773 2477.896 C 362.647 2477.022 363.938 2476.242 365.339 2476.218 Z" style="fill: rgb(135, 93, 88); fill-opacity: 1; fill-rule: nonzero; stroke: rgb(5, 14, 26); stroke-dasharray: none; stroke-dashoffset: 0px; stroke-linecap: butt; stroke-linejoin: miter; stroke-miterlimit: 4; stroke-opacity: 1; stroke-width: 0px; paint-order: normal; vector-effect: none; opacity: 1; mix-blend-mode: normal; isolation: auto;"/><path fill="rgb(255,0,0)" stroke="rgb(255,0,0)" stroke-width="0" opacity="0.984313725490196" d="M 277.028 2475.985 C 279.738 2475.633 284.812 2475.326 287.389 2475.985 C 289.32 2476.478 290.661 2476.952 291.706 2478.575 C 293.147 2480.814 293.089 2483.626 293.778 2489.627 C 295.164 2501.685 298.53 2543.851 297.923 2553.865 C 297.676 2557.936 297.148 2558.57 296.196 2560.427 C 295.312 2562.151 294.599 2563.731 292.57 2564.744 C 289.656 2566.198 281.893 2567.019 278.755 2566.471 C 276.666 2566.105 275.609 2566.315 274.438 2563.88 C 271.633 2558.048 271.442 2533.489 270.639 2519.328 C 269.887 2506.059 268.324 2487.298 269.603 2481.338 C 270.159 2478.746 270.978 2478.258 272.193 2477.366 C 273.437 2476.453 274.999 2476.248 277.028 2475.985 Z M 285.49 2544.713 C 285.433 2544.702 285.1 2545.307 285.144 2545.403 C 285.176 2545.473 285.424 2545.479 285.49 2545.403 C 285.576 2545.304 285.543 2544.723 285.49 2544.713 Z" style="fill: rgb(135, 93, 88); fill-opacity: 1; fill-rule: nonzero; stroke: rgb(5, 14, 26); stroke-dasharray: none; stroke-dashoffset: 0px; stroke-linecap: butt; stroke-linejoin: miter; stroke-miterlimit: 4; stroke-opacity: 1; stroke-width: 0px; paint-order: normal; vector-effect: none; opacity: 1; mix-blend-mode: normal; isolation: auto;"/><path fill="rgb(255,0,0)" stroke="rgb(255,0,0)" stroke-width="0" opacity="0.9764705882352941" d="M 332.931 2540.177 C 333.404 2540.214 334.211 2540.448 335.073 2540.751 C 335.33 2539.773 335.806 2538.785 336.47 2538.122 C 337.444 2537.151 339.177 2536.313 340.695 2536.295 C 342.353 2536.275 344.902 2537.143 346.061 2538.35 C 347.172 2539.507 347.849 2541.679 347.659 2543.26 C 347.466 2544.879 346.032 2547.026 344.805 2547.941 C 344.213 2548.382 343.46 2548.624 342.705 2548.747 C 343.055 2550.007 343.267 2551.939 343.092 2553.307 C 343.045 2553.675 342.97 2554.039 342.873 2554.396 C 343.991 2553.645 345.088 2552.986 345.947 2552.508 C 347.591 2551.594 348.755 2551.108 350.286 2550.91 C 351.87 2550.704 353.584 2550.746 355.309 2551.366 C 357.332 2552.093 359.906 2553.664 361.589 2555.477 C 362.37 2556.318 363.088 2557.379 363.709 2558.491 C 366.383 2557.997 370.094 2557.783 370.841 2557.421 C 371.177 2557.259 371.129 2557.181 371.184 2556.965 C 371.258 2556.667 371.312 2556.257 371.069 2555.709 C 370.641 2554.742 368.437 2553.111 367.872 2551.598 C 367.326 2550.134 367.165 2548.662 367.644 2546.803 C 368.295 2544.278 370.734 2539.594 372.668 2537.783 C 374.152 2536.394 375.871 2535.959 377.577 2535.728 C 379.295 2535.496 381.828 2535.511 382.944 2536.413 C 383.975 2537.246 384.473 2539.416 384.314 2540.638 C 384.17 2541.742 383.344 2542.753 382.373 2543.492 C 381.248 2544.348 378.744 2544.289 377.692 2545.205 C 376.77 2546.006 375.993 2547.804 376.093 2548.401 C 376.155 2548.771 376.625 2548.559 377.006 2548.972 C 377.767 2549.797 379.618 2552.491 380.203 2554.11 C 380.694 2555.47 381.006 2556.656 380.66 2557.992 C 380.251 2559.57 378.8 2561.532 377.349 2562.902 C 375.828 2564.337 373.855 2565.663 371.64 2566.327 C 370.169 2566.768 368.093 2567.006 366.257 2567.027 C 366.236 2567.251 366.203 2567.473 366.156 2567.693 C 365.8 2569.362 364.469 2571.416 363.302 2572.375 C 362.314 2573.186 361.219 2573.309 359.876 2573.516 C 358.263 2573.766 356.331 2573.661 354.167 2573.516 C 351.574 2573.343 347.453 2572.269 345.262 2572.375 C 343.751 2572.448 342.928 2573.304 341.837 2573.288 C 340.802 2573.272 339.699 2572.871 338.868 2572.375 C 338.077 2571.902 337.417 2571.449 336.927 2570.434 C 336.226 2568.981 335.53 2565.88 335.785 2563.811 C 335.917 2562.743 336.218 2561.713 336.69 2560.72 C 336.428 2560.811 336.164 2560.891 335.899 2560.957 C 334.625 2561.275 333.229 2561.375 331.789 2561.185 C 330.199 2560.976 328.266 2560.44 326.765 2559.587 C 325.257 2558.73 323.63 2557.607 322.769 2556.048 C 321.838 2554.361 321.315 2551.842 321.627 2549.654 C 321.707 2549.094 321.856 2548.474 322.057 2547.834 C 321.615 2547.679 321.203 2547.48 320.828 2547.256 C 320.037 2546.783 319.356 2546.178 318.887 2545.315 C 318.343 2544.313 317.865 2542.702 317.974 2541.433 C 318.084 2540.151 318.644 2538.592 319.572 2537.665 C 320.546 2536.694 322.514 2536.067 323.797 2535.838 C 324.875 2535.646 325.812 2535.776 326.765 2536.067 C 327.756 2536.369 328.899 2536.755 329.62 2537.665 C 330.159 2538.345 330.719 2539.469 331.02 2540.602 C 331.117 2540.626 331.218 2540.641 331.332 2540.634 C 331.843 2540.603 332.178 2540.118 332.931 2540.177 Z" style="fill: rgb(135, 93, 88); fill-opacity: 1; fill-rule: nonzero; stroke: rgb(5, 14, 26); stroke-dasharray: none; stroke-dashoffset: 0px; stroke-linecap: butt; stroke-linejoin: miter; stroke-miterlimit: 4; stroke-opacity: 1; stroke-width: 0px; paint-order: normal; vector-effect: none; opacity: 1; mix-blend-mode: normal; isolation: auto;"/></svg>