<?xml version="1.0" encoding="utf-8"?>
<svg xmlns="http://www.w3.org/2000/svg" viewBox="0 0 1500 3000" width="1500px" height="3000px" xmlns:bx="https://boxy-svg.com"><defs><bx:export><bx:file format="svg"/><bx:file format="svg" href="#object-0" path="Untitled 2.svg"/></bx:export><bx:guide x="795.532" y="1250" angle="90"/><bx:guide x="727.854" y="1730" angle="90"/></defs><path fill="rgb(255,0,0)" stroke="rgb(255,0,0)" stroke-width="0" opacity="0.9764705882352941" d="M 288.976 1370.689 C 297.372 1370.051 319.354 1369.318 326.707 1371.401 C 330.886 1372.585 332.75 1374.841 334.183 1376.741 C 335.291 1378.211 334.651 1380.001 335.606 1381.368 C 336.671 1382.891 339.503 1383.318 340.59 1385.283 C 341.897 1387.649 342.721 1392.303 342.013 1395.25 C 341.332 1398.091 339.975 1401.106 336.674 1402.725 C 331.752 1405.14 320.292 1404.891 311.757 1404.149 C 302.758 1403.366 290.492 1400.511 283.993 1397.742 C 279.433 1395.799 276.206 1393.961 274.382 1390.979 C 272.621 1388.098 272.209 1383.393 272.958 1380.3 C 273.661 1377.398 275.771 1374.435 278.298 1372.825 C 281.002 1371.102 283.87 1371.077 288.976 1370.689 Z" style="fill: rgb(128, 121, 128); fill-opacity: 1; fill-rule: nonzero; stroke: rgb(5, 14, 26); stroke-dasharray: none; stroke-dashoffset: 0px; stroke-linecap: butt; stroke-linejoin: miter; stroke-miterlimit: 4; stroke-opacity: 1; stroke-width: 5px; paint-order: normal; vector-effect: none; opacity: 1; mix-blend-mode: normal; isolation: auto;"/><path fill="rgb(255,0,0)" stroke="rgb(255,0,0)" stroke-width="0" opacity="0.9411764705882353" d="M 744.041 1393.995 C 746.201 1393.764 748.223 1393.718 750.104 1393.819 C 753.641 1391.088 757.555 1388.877 764.471 1388.158 C 775.818 1386.978 805.331 1390.403 815.544 1393.995 C 821.539 1396.103 823.58 1397.999 826.488 1402.021 C 829.997 1406.872 834.419 1415.982 833.784 1422.45 C 833.155 1428.867 828.812 1435.989 822.84 1440.69 C 815.702 1446.309 790.121 1446.241 791.466 1451.635 C 793.534 1459.919 858.307 1476.414 881.209 1488.845 C 898.654 1498.314 913.625 1505.976 921.338 1517.3 C 928.019 1527.108 928.13 1539.496 928.635 1550.863 C 929.145 1562.354 921.86 1575.231 924.257 1585.884 C 926.612 1596.355 935.401 1607.821 942.497 1614.339 C 948.564 1619.912 950.107 1620.105 962.927 1624.554 C 993.481 1635.159 1103.005 1656.98 1157.005 1674.168 C 1200.745 1688.091 1255.463 1707.463 1267.177 1717.216 C 1271.4 1720.731 1270.37 1723.027 1270.096 1725.971 C 1269.804 1729.103 1267.791 1733.38 1264.989 1735.456 C 1261.925 1737.725 1259.337 1739.366 1251.855 1738.374 C 1249.116 1738.011 1245.731 1737.124 1241.81 1735.839 C 1240.738 1737.374 1239.229 1738.669 1237.264 1739.56 C 1232.634 1741.661 1224.269 1741.87 1215.951 1740.682 C 1205.393 1739.175 1194.47 1731.284 1178.477 1728.457 C 1178.446 1728.611 1178.411 1728.76 1178.372 1728.904 C 1177.456 1732.301 1175.038 1735.236 1171.081 1737.317 C 1165.508 1740.247 1157.9 1740.78 1145.28 1741.804 C 1123.726 1743.553 1081.434 1743.366 1045.444 1742.926 C 1005.422 1742.436 943.773 1738.595 915.32 1738.439 C 898.537 1738.347 895.315 1739.565 880.546 1739.56 C 859.858 1739.555 819.97 1739.507 799.78 1737.317 C 785.63 1735.782 779.915 1731.818 767.249 1730.586 C 751.819 1729.086 721.084 1727.375 712.844 1730.586 C 708.938 1732.109 711.597 1735.692 707.796 1737.317 C 701.343 1740.074 682.908 1740.026 667.235 1739.738 C 648.973 1741.405 628.75 1741.962 609.081 1740.682 C 599.645 1740.068 590.859 1738.597 581.958 1736.762 C 558.705 1737.859 531.708 1737.058 523.828 1735.073 C 522.922 1734.845 522.154 1734.594 521.496 1734.321 C 518.062 1734.513 515.056 1734.76 512.61 1735.073 C 503.042 1736.298 500.813 1739.745 494.662 1740.682 C 488.476 1741.625 483.068 1741.337 475.592 1740.682 C 466.158 1739.856 459.304 1736.571 441.94 1735.073 C 409.682 1732.292 319.094 1729.047 281.529 1730.586 C 257.384 1731.576 237.902 1739.284 228.806 1737.317 C 226.098 1736.731 224.535 1735.611 223.419 1734.243 C 203.213 1737.139 176.518 1740.734 167.11 1738.439 C 166.916 1738.392 166.728 1738.342 166.545 1738.291 C 166.003 1738.708 165.443 1739.131 164.866 1739.56 C 157.102 1745.336 137.695 1755.374 130.092 1757.509 C 125.873 1758.693 123.802 1758.499 121.118 1757.509 C 118.365 1756.493 115.237 1754.001 113.826 1751.339 C 112.381 1748.61 111.726 1744.513 112.704 1741.243 C 113.803 1737.571 116.334 1734.337 121.118 1730.586 C 126.483 1726.379 138.316 1719.214 148.067 1714.914 C 148.439 1712.077 148.369 1710.22 154.51 1706.271 C 176.865 1691.894 306.656 1643.265 371.936 1624.554 C 427.192 1608.716 486.738 1607.712 522.237 1595.369 C 546.658 1586.878 552.343 1574.775 574.77 1566.185 C 603.919 1555.02 661.42 1548.728 687.131 1538.459 C 704.259 1531.619 721.03 1520.443 722.882 1516.571 C 723.58 1515.112 722.733 1514.973 720.693 1513.652 C 714.457 1509.613 677.231 1499.276 665.243 1491.764 C 657.245 1486.752 653.257 1483.486 649.921 1476.442 C 645.932 1468.021 643.209 1451.611 645.543 1442.879 C 647.499 1435.561 650.691 1431.857 659.406 1426.098 C 674.816 1415.914 725.883 1395.937 744.041 1393.995 Z M 201.303 1419.424 C 212.603 1419.051 243.69 1417.78 254.864 1419.424 C 261.285 1420.369 264.836 1421.295 267.51 1423.887 C 269.913 1426.218 271.05 1430.506 270.981 1433.558 C 270.916 1436.438 269.203 1439.864 267.51 1441.741 C 266.022 1443.39 263.919 1444.13 261.807 1444.716 C 259.565 1445.338 258.654 1445.144 254.368 1445.212 C 244.762 1445.367 207.933 1444.066 198.327 1444.221 C 194.041 1444.289 193.398 1445.151 190.888 1444.716 C 188.195 1444.25 184.639 1443.317 182.705 1441.245 C 180.656 1439.049 179.165 1434.626 179.234 1431.574 C 179.299 1428.694 181.012 1425.268 182.705 1423.391 C 184.193 1421.742 185.926 1421.088 188.408 1420.416 C 191.691 1419.527 194.902 1419.635 201.303 1419.424 Z" style="fill: rgb(128, 121, 128); fill-opacity: 1; fill-rule: nonzero; stroke: rgb(5, 14, 26); stroke-dasharray: none; stroke-dashoffset: 0px; stroke-linecap: butt; stroke-linejoin: miter; stroke-miterlimit: 4; stroke-opacity: 1; stroke-width: 5px; paint-order: normal; vector-effect: none; opacity: 1; mix-blend-mode: normal; isolation: auto;"/><path stroke="rgb(255,0,0)" opacity="0.9764705882352941" d="M -3.475 1361.52 C -8.879 1359.759 -10.311 1358.835 -12.09 1356.35 C -13.857 1353.884 -14.7 1349.651 -14.158 1346.701 C -13.625 1343.801 -10.886 1340.429 -8.989 1338.775 C -7.49 1337.469 -7.552 1336.895 -4.164 1336.708 C 5.666 1336.163 52.661 1343.764 70.272 1347.735 C 81.926 1350.363 86.897 1352.425 95.773 1356.006 C 101.939 1358.494 110.689 1361.585 117.473 1364.89 C 119.925 1364.798 123.045 1365.277 126.099 1366.344 C 127.789 1366.934 129.94 1367.771 132.086 1368.773 C 132.744 1368.516 133.474 1368.385 134.37 1368.412 C 137.497 1368.506 144.527 1369.85 147.12 1373.581 C 150.296 1378.151 148.936 1388.351 149.188 1396.325 C 149.457 1404.838 148.525 1410.885 148.499 1423.205 C 148.458 1442.517 150.139 1492.733 149.877 1505.912 C 149.769 1511.335 149.072 1510.076 149.188 1514.872 C 149.419 1524.441 153.106 1549.053 154.012 1565.185 C 154.871 1580.462 155.253 1597.105 154.702 1609.295 C 154.267 1618.895 152.347 1623.097 151.945 1633.418 C 151.45 1646.104 154.565 1672.664 153.887 1685.804 C 156.212 1688.912 155.895 1692.013 155.391 1694.759 C 154.858 1697.659 152.659 1701.017 150.222 1702.685 C 147.744 1704.381 145.648 1705.507 140.573 1704.752 C 130.195 1703.209 100.183 1686.482 86.124 1682.008 C 76.326 1678.89 73.053 1678.648 62.69 1677.184 C 47.498 1675.037 12.979 1674.608 0.66 1671.67 C -6.127 1670.051 -9.69 1668.701 -12.09 1665.811 C -14.175 1663.302 -14.7 1659.112 -14.158 1656.162 C -13.793 1654.179 -12.397 1651.974 -10.944 1650.25 C -12.929 1649.294 -14.413 1648.081 -15.536 1646.513 C -17.303 1644.047 -18.146 1639.813 -17.604 1636.864 C -17.071 1633.964 -14.303 1630.421 -12.435 1628.938 C -11.024 1627.818 -9.15 1629.596 -7.955 1627.56 C -6.533 1625.137 -6.175 1617.523 -5.933 1609.089 C -6.366 1609.035 -6.782 1608.961 -7.172 1608.867 C -10.008 1608.186 -13.128 1606.121 -14.635 1603.536 C -16.282 1600.71 -16.123 1599.444 -16.056 1592.163 C -15.879 1572.728 -8.864 1475.961 -3.973 1459.247 C -3.405 1457.305 -2.807 1455.986 -2.197 1455.035 C -4.376 1447.975 -6.422 1441.062 -7.266 1434.233 C -9.011 1420.119 -7.888 1405.099 -7.266 1393.568 C -6.759 1384.187 -6.619 1375.675 -4.509 1369.446 C -3.609 1366.789 -2.263 1364.311 -0.842 1362.256 C -1.835 1362.012 -2.717 1361.767 -3.475 1361.52 Z" style="fill-opacity: 1; fill-rule: nonzero; stroke: rgb(5, 14, 26); stroke-dasharray: none; stroke-dashoffset: 0px; stroke-linecap: butt; stroke-linejoin: miter; stroke-miterlimit: 4; stroke-opacity: 1; paint-order: normal; vector-effect: none; opacity: 1; mix-blend-mode: normal; isolation: auto; fill: rgb(128, 121, 128); stroke-width: 5px;"/><path fill="rgb(255,0,0)" stroke="rgb(255,0,0)" stroke-width="0" opacity="0.9764705882352941" d="M 311.615 1377.507 C 311.431 1385.262 307.564 1397.646 306.639 1410.914 C 305.472 1427.657 306.348 1446.054 306.639 1471.33 C 307.039 1505.981 307.736 1573.531 309.482 1604.247 C 310.585 1623.647 315.366 1638.295 313.747 1646.183 C 312.867 1650.468 310.89 1652.155 308.416 1653.646 C 306.172 1654.998 302.495 1655.613 299.64 1655.274 C 291.314 1655.941 279.785 1655.383 272.877 1656.489 C 265.015 1657.749 259.63 1659.376 252.975 1661.465 C 246.126 1663.615 239.46 1665.631 232.362 1669.283 C 224.358 1673.402 216.937 1681.224 207.485 1685.631 C 197.238 1690.409 180.679 1692.567 172.657 1696.293 C 167.215 1698.82 164.884 1702.776 161.284 1704.112 C 159.896 1704.627 158.52 1704.975 157.179 1705.126 C 154.563 1706.442 150.52 1706.902 147.779 1706.244 C 144.943 1705.564 141.958 1704.366 140.316 1700.913 C 137.707 1695.428 138.923 1681.952 138.894 1671.771 C 138.864 1660.929 140.833 1650.841 140.316 1637.654 C 139.681 1621.442 134.994 1600.049 133.919 1580.791 C 132.825 1561.203 133.698 1545.959 133.919 1521.085 C 134.22 1487.194 136.163 1415.09 136.051 1391.723 C 135.998 1380.668 134.043 1376.585 135.34 1371.821 C 136.292 1368.327 138.951 1365.78 140.671 1364.358 C 141.649 1363.549 142.351 1363.252 143.4 1363.061 C 143.446 1362.632 143.504 1362.191 143.571 1361.739 C 144.666 1354.397 151.01 1341.306 155.323 1332.105 C 159.398 1323.411 166.704 1310.341 168.607 1307.835 C 169.164 1307.103 169.062 1307.7 169.629 1307.069 C 171.282 1305.231 178.706 1293.834 180.359 1291.996 C 180.926 1291.365 180.931 1291.661 181.381 1291.23 C 182.16 1290.482 183.013 1288.814 184.702 1287.398 C 187.188 1285.314 191.094 1282.225 195.942 1280.245 C 202.145 1277.711 212.415 1275.418 219.956 1274.624 C 226.811 1273.903 233.179 1273.486 239.372 1275.135 C 245.71 1276.823 255.373 1282.961 257.51 1284.843 C 258.301 1285.539 257.921 1285.989 258.277 1286.376 C 258.613 1286.742 259.2 1286.868 259.554 1287.142 C 259.865 1287.383 259.859 1287.51 260.32 1287.909 C 261.317 1288.771 264.209 1290.641 266.196 1292.507 C 268.458 1294.631 271.982 1298.986 273.094 1300.171 C 273.545 1300.653 273.399 1300.362 273.86 1300.938 C 275.244 1302.662 281.263 1309.812 283.568 1314.733 C 285.004 1317.8 286.404 1321.595 287.144 1324.963 C 290.818 1324.585 294.342 1324.883 297.044 1325.975 C 299.924 1327.14 301.97 1329.621 303.796 1332.017 C 305.66 1334.462 307.268 1336.968 308.061 1340.546 C 308.65 1343.207 308.982 1346.9 308.897 1350.519 C 310.199 1356.402 311.119 1364.117 311.261 1370.029 C 311.643 1372.028 311.688 1374.417 311.615 1377.507 Z" style="fill: rgb(128, 121, 128); fill-opacity: 1; fill-rule: nonzero; stroke: rgb(5, 14, 26); stroke-dasharray: none; stroke-dashoffset: 0px; stroke-linecap: butt; stroke-linejoin: miter; stroke-miterlimit: 4; stroke-opacity: 1; stroke-width: 5px; paint-order: normal; vector-effect: none; opacity: 1; mix-blend-mode: normal; isolation: auto;"/><path fill="rgb(255,0,0)" stroke="rgb(255,0,0)" stroke-width="0" opacity="0.9921568627450981" d="M 255.53 1506.109 C 257.653 1507.984 259.101 1509.469 260.942 1513.324 C 264.044 1519.824 268.731 1533.903 270.561 1545.19 C 272.489 1557.078 270.436 1568.059 271.764 1583.067 C 273.459 1602.23 282.365 1642.232 281.383 1652.209 C 281.005 1656.058 280.685 1655.897 278.377 1657.921 C 274.246 1661.545 263.058 1666.281 253.426 1669.945 C 242.189 1674.221 224.697 1677.374 214.346 1681.369 C 206.327 1684.463 199.746 1689.757 195.107 1690.988 C 192.212 1691.757 190.556 1691.497 188.493 1690.988 C 186.45 1690.485 184.234 1689.435 182.781 1687.982 C 181.328 1686.529 180.287 1684.368 179.775 1682.271 C 179.24 1680.077 179.121 1677.361 179.775 1675.056 C 180.46 1672.642 182.33 1669.772 183.984 1668.142 C 185.402 1666.743 188.342 1666.892 188.794 1665.436 C 189.313 1663.763 186.378 1661.476 185.787 1658.221 C 184.941 1653.555 185.145 1646.469 185.787 1638.982 C 186.59 1629.634 190.386 1615.443 191.199 1605.914 C 191.866 1598.094 191.71 1592.812 191.199 1585.472 C 190.629 1577.305 188.164 1567.258 187.591 1559.018 C 187.071 1551.526 186.754 1544.264 187.591 1537.975 C 188.334 1532.394 189.842 1527.255 191.8 1522.944 C 193.557 1519.073 194.177 1516.034 198.413 1513.024 C 200.557 1511.5 204.017 1509.85 208.026 1508.269 C 207.932 1507.242 207.926 1506.292 208.033 1505.508 C 208.416 1502.69 209.836 1500.438 212.242 1498.594 C 215.315 1496.239 221.518 1494.587 226.371 1493.784 C 231.237 1492.979 238.01 1493.207 241.401 1493.784 C 243.56 1494.152 244.569 1494.413 245.911 1495.588 C 247.557 1497.029 249.446 1500.153 250.119 1502.502 C 250.141 1502.577 250.161 1502.652 250.181 1502.728 C 252.32 1503.557 253.888 1504.659 255.53 1506.109 Z" style="fill: rgb(128, 121, 128); fill-opacity: 1; fill-rule: nonzero; stroke: rgb(5, 14, 26); stroke-dasharray: none; stroke-dashoffset: 0px; stroke-linecap: butt; stroke-linejoin: miter; stroke-miterlimit: 4; stroke-opacity: 1; stroke-width: 5px; paint-order: normal; vector-effect: none; opacity: 1; mix-blend-mode: normal; isolation: auto;"/><path fill="rgb(255,0,0)" stroke="rgb(255,0,0)" stroke-width="0" opacity="0.984313725490196" d="M 217.086 1477.176 C 223.448 1476.565 236.129 1475.779 242.834 1477.176 C 248.003 1478.253 251.291 1480.288 254.992 1482.898 C 258.826 1485.601 262.103 1487.979 265.363 1493.268 C 270.065 1500.898 275.832 1515.513 278.236 1527.598 C 280.71 1540.031 279.623 1555.948 279.667 1566.934 C 279.702 1575.668 278.971 1579.161 278.952 1589.106 C 278.923 1604.2 282.864 1641.709 280.382 1652.044 C 279.231 1656.838 277.508 1658.053 275.018 1659.553 C 272.435 1661.11 267.966 1661.694 265.005 1660.984 C 262.151 1660.299 259.397 1660.413 257.495 1655.62 C 252.675 1643.467 254.671 1580.051 254.635 1561.213 C 254.615 1551.227 256.056 1548.694 255.35 1541.902 C 254.576 1534.461 252.378 1524.849 249.628 1518.3 C 247.269 1512.681 243.239 1507.08 240.688 1504.354 C 239.089 1502.644 238.46 1502.056 236.397 1501.493 C 233.422 1500.681 227.948 1500.44 223.523 1501.493 C 218.565 1502.673 211.995 1505.03 208.146 1509.003 C 204.143 1513.135 201.62 1521.031 200.279 1526.168 C 199.181 1530.375 199.328 1532.88 199.564 1537.611 C 199.883 1544.029 202.44 1551.428 203.14 1561.928 C 204.136 1576.868 204.065 1601.239 203.14 1621.29 C 202.196 1641.756 200.646 1673.255 197.418 1683.513 C 195.916 1688.286 194.544 1689.522 192.054 1691.022 C 190.911 1691.711 189.399 1692.21 187.811 1692.49 C 185.186 1693.622 181.67 1693.765 179.181 1693.168 C 176.327 1692.483 173.194 1690.456 171.671 1687.804 C 169.965 1684.834 170.203 1679.465 170.24 1675.646 C 170.276 1672.107 170.493 1668.286 171.671 1665.633 C 172.072 1664.729 172.638 1663.882 173.27 1663.118 C 174.176 1650.344 177.95 1631.574 178.823 1616.283 C 179.765 1599.784 179.463 1582.773 178.823 1566.934 C 178.213 1551.837 173.742 1535.56 175.247 1523.307 C 176.494 1513.152 181.042 1503.554 184.545 1497.559 C 187.075 1493.228 189.366 1491.471 192.769 1488.619 C 196.669 1485.352 202.677 1481.197 207.074 1479.322 C 210.658 1477.793 212.687 1477.599 217.086 1477.176 Z" style="fill: rgb(128, 121, 128); fill-opacity: 1; fill-rule: nonzero; stroke: rgb(5, 14, 26); stroke-dasharray: none; stroke-dashoffset: 0px; stroke-linecap: butt; stroke-linejoin: miter; stroke-miterlimit: 4; stroke-opacity: 1; stroke-width: 5px; paint-order: normal; vector-effect: none; opacity: 1; mix-blend-mode: normal; isolation: auto;"/><path fill="rgb(255,0,0)" stroke="rgb(255,0,0)" stroke-width="0" opacity="0.9607843137254902" d="M -20.553 1343.923 C -19.528 1343.804 -17.903 1343.851 -16.098 1344.001 C -16.027 1342.789 -15.934 1341.481 -15.831 1340.06 C -14.888 1327.073 -7.527 1299.964 -5.529 1279.961 C -4.236 1267.024 -4.807 1249.496 -4.763 1236.411 C -8.957 1234.318 -10.125 1232.847 -11.539 1230.166 C -13.154 1227.101 -13.054 1221.941 -12.397 1219.004 C -11.867 1216.634 -10.32 1214.643 -8.963 1213.424 C -7.824 1212.4 -7.408 1211.897 -5.1 1211.707 C -0.022 1211.288 12.129 1213.205 24.95 1215.999 C 43.441 1220.03 80.144 1233.354 97.926 1236.605 C 109.634 1238.745 112.543 1236.603 124.541 1238.322 C 143.181 1240.992 192.802 1246.604 203.099 1254.634 C 208.303 1258.694 207.235 1265.059 206.533 1268.8 C 205.949 1271.911 204.195 1274.585 200.952 1276.098 C 198.102 1277.427 193.982 1277.851 188.965 1277.73 C 189.518 1280.132 189.687 1282.499 189.362 1284.254 C 188.791 1287.335 186.681 1290.105 183.781 1291.552 C 180.208 1293.334 171.987 1291.249 168.327 1292.41 C 165.696 1293.245 163.721 1294.358 162.747 1296.274 C 161.677 1298.378 163.64 1302.241 162.747 1304.859 C 161.829 1307.549 159.35 1310.849 157.166 1312.157 C 155.265 1313.295 152.904 1311.149 150.727 1313.015 C 146.82 1316.366 141.755 1328.099 138.707 1338.343 C 134.992 1350.832 135.043 1373.706 131.839 1383.846 C 130.015 1389.619 128.648 1393.76 125.731 1396.274 C 126.077 1396.568 126.397 1396.862 126.688 1397.153 C 131.384 1401.852 130.824 1407.578 130.122 1411.319 C 129.538 1414.43 127.222 1417.213 124.541 1418.617 C 121.554 1420.182 118.552 1420.704 112.522 1419.476 C 100.884 1417.104 74.086 1401.939 54.999 1395.436 C 36.603 1389.169 14.386 1386.599 0.052 1380.841 C -11.076 1376.371 -21.958 1371.671 -26.134 1365.816 C -29.265 1361.427 -28.528 1354.754 -27.851 1351.221 C -27.361 1348.663 -25.774 1346.86 -24.417 1345.64 C -23.278 1344.617 -22.456 1344.144 -20.553 1343.923 Z" style="fill: rgb(128, 121, 128); fill-opacity: 1; fill-rule: nonzero; stroke: rgb(5, 14, 26); stroke-dasharray: none; stroke-dashoffset: 0px; stroke-linecap: butt; stroke-linejoin: miter; stroke-miterlimit: 4; stroke-opacity: 1; stroke-width: 5px; paint-order: normal; vector-effect: none; opacity: 1; mix-blend-mode: normal; isolation: auto;"/><path fill="rgb(255,0,0)" stroke="rgb(255,0,0)" stroke-width="0" opacity="0.9647058823529412" d="M 172.62 1329.328 C 171.252 1330.649 171.471 1329.363 170.474 1330.616 C 167.624 1334.195 160.193 1348.469 155.02 1361.523 C 148.189 1378.762 139.884 1415.548 134.415 1427.632 C 131.615 1433.816 130.485 1436.433 127.117 1438.364 C 123.756 1440.29 120.465 1440.486 114.239 1439.222 C 102.904 1436.92 81.107 1424.11 61.009 1416.9 C 37.816 1408.58 -1.61 1399.693 -17.978 1392.861 C -27.507 1388.883 -33.546 1386.405 -36.437 1382.129 C -38.669 1378.826 -37.952 1373.904 -37.295 1370.968 C -36.765 1368.597 -35.984 1366.638 -33.861 1365.387 C -30.962 1363.679 -28.152 1362.372 -19.695 1363.67 C 1.408 1366.908 90.149 1417.695 113.38 1408.314 C 129.797 1401.685 124.171 1368.762 130.98 1352.079 C 137.09 1337.112 147.936 1316.449 151.586 1312.157 C 152.802 1310.727 153.292 1311.593 154.161 1310.869 C 155.288 1309.932 156.488 1308.154 157.595 1306.576 C 158.783 1304.884 159.857 1302.121 161.03 1300.996 C 161.874 1300.186 162.955 1300.306 163.605 1299.708 C 164.22 1299.143 164.433 1298.156 164.893 1297.562 C 165.298 1297.038 165.686 1296.889 166.181 1296.274 C 166.901 1295.379 167.944 1293.293 168.757 1292.41 C 169.354 1291.762 169.743 1291.855 170.474 1291.122 C 171.726 1289.867 174.373 1285.939 175.625 1284.683 C 176.356 1283.951 176.692 1284.076 177.342 1283.396 C 178.313 1282.38 179.322 1280.171 180.776 1278.674 C 182.396 1277.005 184.791 1276.233 186.786 1273.951 C 188.059 1272.497 189.394 1269.985 190.694 1267.551 C 190.706 1266.088 190.842 1264.71 191.079 1263.649 C 191.609 1261.278 193.156 1259.288 194.513 1258.068 C 195.652 1257.045 196.097 1256.614 198.377 1256.351 C 203.263 1255.788 216.7 1255.975 226.709 1258.927 C 238.389 1262.372 260.068 1274.905 264.056 1277.815 C 265.271 1278.702 264.734 1279.005 265.343 1279.532 C 266.081 1280.17 267.611 1280.611 268.348 1281.249 C 268.958 1281.776 268.8 1282.275 269.636 1282.966 C 271.206 1284.264 277.081 1286.819 278.651 1288.118 C 279.487 1288.809 279.291 1289.238 279.939 1289.835 C 280.821 1290.648 282.658 1291.161 283.802 1292.41 C 285.145 1293.876 285.595 1296.489 287.236 1298.42 C 289.142 1300.663 293.216 1302.783 294.963 1304.859 C 296.324 1306.476 296.27 1308.103 297.539 1309.581 C 298.999 1311.282 302.34 1313.249 303.549 1314.303 C 304.23 1314.897 303.943 1314.433 304.837 1315.591 C 308.469 1320.297 331.939 1350.73 338.749 1365.816 C 344.124 1377.722 347.471 1391.822 346.476 1398.441 C 345.884 1402.385 343.513 1404.347 340.896 1405.739 C 338.063 1407.245 332.865 1407.625 329.735 1406.597 C 326.775 1405.626 324.912 1403.972 322.437 1400.158 C 318.266 1393.732 315.114 1377.234 309.559 1366.675 C 303.969 1356.049 296.845 1346.256 288.953 1336.626 C 280.756 1326.622 271.228 1316.134 261.051 1307.864 C 251.026 1299.718 239.344 1291.848 228.426 1287.259 C 223.508 1285.192 217.595 1284.175 212.145 1283.34 C 202.854 1298.339 177.041 1325.059 172.62 1329.328 Z" style="fill: rgb(128, 121, 128); fill-opacity: 1; fill-rule: nonzero; stroke: rgb(5, 14, 26); stroke-dasharray: none; stroke-dashoffset: 0px; stroke-linecap: butt; stroke-linejoin: miter; stroke-miterlimit: 4; stroke-opacity: 1; stroke-width: 5px; paint-order: normal; vector-effect: none; opacity: 1; mix-blend-mode: normal; isolation: auto;"/><path fill="rgb(255,0,0)" stroke="rgb(255,0,0)" stroke-width="0" opacity="0.9803921568627451" d="M 55.129 1469.134 C 61.704 1467.88 73.886 1467.995 80.422 1469.134 C 85.332 1469.99 89.246 1471.316 91.945 1473.631 C 94.354 1475.697 95.554 1477.96 96.441 1481.781 C 97.729 1487.325 97.085 1495.23 96.441 1505.388 C 95.518 1519.97 90.533 1550.541 89.697 1563.281 C 89.201 1570.828 90.545 1574.995 89.697 1579.019 C 89.056 1582.058 88.374 1584.34 86.324 1586.045 C 83.932 1588.036 78.522 1589.606 75.364 1589.418 C 72.658 1589.257 70.071 1587.778 68.338 1586.045 C 67.568 1585.275 66.948 1584.45 66.439 1583.483 C 63.733 1584.857 59.859 1585.796 57.377 1585.648 C 54.672 1585.487 52.085 1584.009 50.352 1582.276 C 48.852 1580.776 48.013 1579.694 47.304 1576.764 C 47.199 1576.863 47.091 1576.959 46.979 1577.052 C 44.587 1579.043 39.177 1580.612 36.019 1580.425 C 33.313 1580.264 30.726 1578.785 28.993 1577.052 C 27.26 1575.319 26.4 1574.018 25.62 1570.026 C 24.073 1562.102 23.952 1540.011 25.058 1526.747 C 26.059 1514.741 27.754 1502.752 31.241 1493.584 C 34.225 1485.74 38.781 1478.238 43.326 1474.193 C 46.935 1470.981 50.115 1470.091 55.129 1469.134 Z" style="fill: rgb(128, 121, 128); fill-opacity: 1; fill-rule: nonzero; stroke: rgb(5, 14, 26); stroke-dasharray: none; stroke-dashoffset: 0px; stroke-linecap: butt; stroke-linejoin: miter; stroke-miterlimit: 4; stroke-opacity: 1; stroke-width: 5px; paint-order: normal; vector-effect: none; opacity: 1; mix-blend-mode: normal; isolation: auto;"/><path fill="rgb(255,0,0)" stroke="rgb(255,0,0)" stroke-width="0" opacity="0.9725490196078431" d="M 27.588 1568.621 C 33.462 1568.008 46.547 1569.093 56.815 1570.869 C 68.08 1572.818 89.156 1578.656 92.507 1580.425 C 93.413 1580.903 92.958 1580.855 93.35 1581.549 C 94.215 1583.082 97.616 1587.684 97.566 1590.823 C 97.514 1594.052 95.501 1598.63 92.788 1600.659 C 89.919 1602.805 85.527 1603.229 80.422 1602.908 C 73.45 1602.469 62.983 1597.193 54.005 1595.601 C 44.998 1594.003 32.34 1594.798 26.463 1593.352 C 22.921 1592.481 21.143 1592.03 19.438 1589.98 C 17.447 1587.587 15.877 1582.177 16.065 1579.019 C 16.226 1576.314 18.344 1573.262 19.438 1571.994 C 20.105 1571.219 20.477 1571.289 21.405 1570.869 C 22.827 1570.226 24.356 1568.958 27.588 1568.621 Z" style="fill: rgb(128, 121, 128); fill-opacity: 1; fill-rule: nonzero; stroke: rgb(5, 14, 26); stroke-dasharray: none; stroke-dashoffset: 0px; stroke-linecap: butt; stroke-linejoin: miter; stroke-miterlimit: 4; stroke-opacity: 1; stroke-width: 5px; paint-order: normal; vector-effect: none; opacity: 1; mix-blend-mode: normal; isolation: auto;"/><path fill="rgb(255,0,0)" stroke="rgb(255,0,0)" stroke-width="0" opacity="0.9803921568627451" d="M 255.111 1436.286 C 252.916 1438.334 248.579 1439.962 245.441 1439.757 C 242.297 1439.552 239.099 1437.575 236.266 1435.046 C 233.383 1432.472 230.344 1424.673 228.146 1422.482 C 227.109 1423.952 226.621 1427.061 225.027 1428.113 C 224.966 1428.153 224.904 1428.192 224.841 1428.231 C 224.503 1429.507 224.06 1430.66 223.372 1431.326 C 221.139 1433.487 216.753 1434.867 213.701 1434.798 C 210.821 1434.733 207.448 1433.476 205.518 1431.326 C 204.655 1430.365 203.902 1429.206 203.319 1427.848 C 201.195 1426.748 198.806 1425.072 197.656 1423.772 C 196.403 1422.353 196.104 1420.975 195.769 1419.241 C 195.387 1417.266 195.407 1416.12 195.769 1412.446 C 196.511 1404.909 201.311 1382.553 202.564 1372.05 C 203.47 1364.464 202.567 1359.356 203.697 1353.928 C 204.718 1349.023 206.626 1344.103 208.605 1340.715 C 210.205 1337.974 212.043 1335.91 214.079 1334.485 C 215.92 1333.197 217.597 1332.522 220.12 1332.22 C 223.407 1331.827 228.589 1331.724 232.578 1333.353 C 236.994 1335.155 242.135 1339.544 245.225 1343.357 C 248.061 1346.856 249.429 1350.394 250.888 1355.061 C 252.632 1360.637 252.956 1369.756 254.286 1375.07 C 255.303 1379.135 256.806 1379.957 257.684 1384.886 C 259.19 1393.345 261.64 1417.157 259.949 1424.904 C 259.575 1426.617 259.067 1427.938 258.441 1429.007 C 257.998 1431.442 256.947 1434.573 255.111 1436.286 Z" style="fill: rgb(128, 121, 128); fill-opacity: 1; fill-rule: nonzero; stroke: rgb(5, 14, 26); stroke-dasharray: none; stroke-dashoffset: 0px; stroke-linecap: butt; stroke-linejoin: miter; stroke-miterlimit: 4; stroke-opacity: 1; stroke-width: 5px; paint-order: normal; vector-effect: none; opacity: 1; mix-blend-mode: normal; isolation: auto;"/><path fill="rgb(255,0,0)" stroke="rgb(255,0,0)" stroke-width="0" opacity="0.9764705882352941" d="M 205.27 1422.399 C 214.539 1421.229 234.069 1422.057 244.945 1423.887 C 253.636 1425.35 262.568 1427.296 266.518 1430.83 C 269.396 1433.406 270.059 1437.449 269.989 1440.501 C 269.924 1443.381 268.739 1446.756 266.518 1448.684 C 264 1450.869 259.352 1452.083 254.864 1452.155 C 249.457 1452.242 243.247 1448.563 236.018 1447.692 C 227.434 1446.657 212.148 1446.844 206.262 1447.196 C 203.153 1447.382 202.457 1448.467 200.311 1448.188 C 197.805 1447.862 194.061 1446.789 192.128 1444.716 C 190.079 1442.521 188.587 1438.098 188.656 1435.046 C 188.722 1432.165 189.828 1428.915 192.128 1426.863 C 194.877 1424.41 199.183 1423.168 205.27 1422.399 Z" style="fill: rgb(128, 121, 128); fill-opacity: 1; fill-rule: nonzero; stroke: rgb(5, 14, 26); stroke-dasharray: none; stroke-dashoffset: 0px; stroke-linecap: butt; stroke-linejoin: miter; stroke-miterlimit: 4; stroke-opacity: 1; stroke-width: 5px; paint-order: normal; vector-effect: none; opacity: 1; mix-blend-mode: normal; isolation: auto;"/><path fill="rgb(255,0,0)" stroke="rgb(255,0,0)" stroke-width="0" opacity="0.984313725490196" d="M 43.398 1220.789 C 45.542 1220.518 47.584 1220.741 49.569 1221.611 C 51.784 1222.583 54.049 1224.981 55.945 1226.753 C 57.724 1228.416 58.91 1230.181 60.675 1231.895 C 62.581 1233.746 66.077 1236.553 67.051 1237.448 C 67.444 1237.809 67.256 1237.68 67.668 1238.065 C 68.796 1239.12 74.555 1243.977 75.69 1245.264 C 76.161 1245.799 75.943 1245.921 76.307 1246.293 C 76.848 1246.846 78.152 1247.189 78.98 1248.144 C 80.044 1249.369 81.314 1251.62 81.86 1253.491 C 82.395 1255.325 82.577 1256.8 82.271 1259.25 C 81.829 1262.799 78.946 1267.963 78.158 1273.236 C 77.253 1279.288 77.569 1285.883 77.746 1293.804 C 77.963 1303.464 80.213 1321.739 79.803 1327.535 C 79.617 1330.165 78.733 1330.071 78.569 1332.06 C 78.334 1334.911 80.051 1340.098 79.392 1343.578 C 78.774 1346.842 77.29 1350.468 75.073 1352.422 C 72.924 1354.316 69.445 1355.195 66.434 1355.301 C 63.287 1355.412 59.718 1354.342 56.562 1352.833 C 53.185 1351.219 48.755 1347.351 46.895 1345.634 C 45.839 1344.66 45.832 1344.127 45.044 1343.372 C 44.116 1342.482 42.633 1341.712 41.547 1340.698 C 40.436 1339.661 39.475 1338.198 38.462 1337.202 C 37.559 1336.313 36.634 1336.261 35.788 1334.939 C 34.437 1332.826 33.01 1330.465 32.086 1324.244 C 30.094 1310.824 29.983 1262.681 30.441 1246.91 C 30.69 1238.318 30.807 1234.112 32.086 1230.044 C 33.009 1227.111 34.145 1225.206 35.994 1223.668 C 37.889 1222.092 41.035 1221.087 43.398 1220.789 Z" style="fill: rgb(128, 121, 128); fill-opacity: 1; fill-rule: nonzero; stroke: rgb(5, 14, 26); stroke-dasharray: none; stroke-dashoffset: 0px; stroke-linecap: butt; stroke-linejoin: miter; stroke-miterlimit: 4; stroke-opacity: 1; stroke-width: 5px; paint-order: normal; vector-effect: none; opacity: 1; mix-blend-mode: normal; isolation: auto;"/><path fill="rgb(255,0,0)" stroke="rgb(255,0,0)" stroke-width="0" opacity="0.984313725490196" d="M 119.705 1238.68 C 120.804 1244.16 120.828 1255.18 120.527 1262.13 C 120.268 1268.12 118.882 1270.99 118.471 1278.17 C 117.851 1288.97 119.035 1314.71 118.471 1323.01 C 118.194 1327.07 118.17 1328.18 117.236 1330.41 C 116.311 1332.63 115.582 1334.01 112.917 1336.38 C 108.247 1340.54 90.501 1349.85 87.619 1352.42 C 86.655 1353.28 87.357 1353.53 86.591 1354.07 C 85.169 1355.07 80.786 1357.11 77.952 1356.95 C 75.095 1356.78 71.47 1355.21 69.519 1353.04 C 67.509 1350.8 66.843 1348.41 66.229 1343.58 C 65.147 1335.07 66.704 1316.06 67.463 1302.44 C 67.99 1292.99 67.418 1282.37 68.401 1273.13 C 67.81 1271.74 67.421 1270.14 67.051 1268.3 C 66.16 1263.85 65.637 1255.69 66.64 1251.02 C 67.458 1247.21 68.677 1244.98 71.371 1241.77 C 74.983 1237.46 82.538 1231.54 88.236 1228.19 C 93.385 1225.17 99.776 1222.65 103.867 1222.02 C 106.756 1221.58 108.909 1222.11 110.86 1222.85 C 112.603 1223.5 113.994 1224.31 115.18 1225.93 C 116.599 1227.87 118.41 1231.56 118.478 1234.46 C 118.963 1235.65 119.373 1237.03 119.705 1238.68 Z" style="fill: rgb(128, 121, 128); fill-opacity: 1; fill-rule: nonzero; stroke: rgb(5, 14, 26); stroke-dasharray: none; stroke-dashoffset: 0px; stroke-linecap: butt; stroke-linejoin: miter; stroke-miterlimit: 4; stroke-opacity: 1; stroke-width: 5px; paint-order: normal; vector-effect: none; opacity: 1; mix-blend-mode: normal; isolation: auto;"/><path fill="rgb(255,0,0)" stroke="rgb(255,0,0)" stroke-width="0" opacity="0.9725490196078431" d="M 84.504 1205.365 C 87.516 1204.632 88.53 1205.153 90.408 1205.819 C 92.401 1206.526 94.707 1207.718 96.085 1209.679 C 97.683 1211.952 99.205 1216.171 98.81 1219.217 C 98.41 1222.306 97.001 1225.074 93.588 1228.073 C 88.206 1232.801 70.909 1240.751 64.975 1242.606 C 61.867 1243.578 60.779 1243.578 58.617 1243.061 C 56.174 1242.476 52.824 1240.984 51.123 1238.746 C 49.294 1236.34 47.993 1231.798 48.398 1228.754 C 48.786 1225.843 49.891 1223.596 53.167 1220.806 C 58.737 1216.064 78.378 1206.855 84.504 1205.365 Z" style="fill: rgb(128, 121, 128); fill-opacity: 1; fill-rule: nonzero; stroke: rgb(5, 14, 26); stroke-dasharray: none; stroke-dashoffset: 0px; stroke-linecap: butt; stroke-linejoin: miter; stroke-miterlimit: 4; stroke-opacity: 1; stroke-width: 5px; paint-order: normal; vector-effect: none; opacity: 1; mix-blend-mode: normal; isolation: auto;" id="object-0"/><path fill="rgb(255,0,0)" stroke="rgb(255,0,0)" stroke-width="0" opacity="0.984313725490196" d="M 82.066 1187.058 C 84.975 1186.768 88.197 1186.754 91.115 1187.88 C 94.319 1189.116 99.135 1193.648 100.371 1194.668 C 100.812 1195.031 100.607 1194.853 100.988 1195.285 C 102.062 1196.502 106.183 1201.981 108.392 1204.334 C 110.129 1206.184 112.323 1207.723 113.123 1208.654 C 113.532 1209.13 113.238 1209.182 113.74 1209.682 C 114.954 1210.89 120.556 1213.397 122.584 1216.058 C 124.514 1218.59 126.051 1222.059 125.875 1225.108 C 125.69 1228.295 124.554 1231.494 121.144 1234.775 C 115.74 1239.975 99.835 1245.619 91.115 1250.817 C 83.568 1255.317 76.315 1261.883 71.37 1263.981 C 68.25 1265.304 66.407 1265.47 63.966 1265.215 C 61.469 1264.953 59.617 1264.161 56.562 1262.335 C 51.854 1259.523 42.462 1251.675 38.257 1247.732 C 35.383 1245.038 34.28 1242.989 32.292 1240.945 C 30.44 1239.041 28.344 1237.745 26.739 1235.803 C 25.117 1233.841 23.431 1231.343 22.625 1229.221 C 21.927 1227.385 21.457 1225.893 21.802 1223.874 C 22.242 1221.308 22.869 1217.887 26.122 1215.03 C 31.385 1210.405 47.787 1206.512 56.15 1201.866 C 63.224 1197.937 69.085 1191.911 73.839 1189.526 C 77.128 1187.875 79.221 1187.341 82.066 1187.058 Z M 83.094 1212.973 C 81.305 1212.64 79.191 1215.674 78.158 1216.675 C 77.492 1217.32 77.703 1217.63 76.924 1218.32 C 75.467 1219.609 71.954 1222.006 68.697 1223.668 C 64.879 1225.616 56.031 1227.483 55.122 1229.016 C 54.68 1229.76 55.487 1230.224 56.356 1231.072 C 58.003 1232.681 61.924 1237.824 66.229 1237.654 C 72.383 1237.411 89.647 1227.142 90.91 1222.434 C 91.805 1219.096 85.45 1213.411 83.094 1212.973 Z" style="fill: rgb(128, 121, 128); fill-opacity: 1; fill-rule: nonzero; stroke: rgb(5, 14, 26); stroke-dasharray: none; stroke-dashoffset: 0px; stroke-linecap: butt; stroke-linejoin: miter; stroke-miterlimit: 4; stroke-opacity: 1; stroke-width: 5px; paint-order: normal; vector-effect: none; opacity: 1; mix-blend-mode: normal; isolation: auto;"/></svg>