<?xml version="1.0" encoding="utf-8"?>
<svg xmlns="http://www.w3.org/2000/svg" viewBox="0 0 40 40" width="40px" height="40px" xmlns:bx="https://boxy-svg.com"><defs><bx:guide x="692.4510768560641" y="88.30593314449995" angle="0"/><bx:export><bx:file format="svg"/></bx:export></defs><path stroke="rgb(255,0,0)" stroke-width="0" opacity="0.9921568627450981" d="M 17.873 -7.41 C 18.854 -7.582 19.892 -7.433 20.786 -7.109 C 21.684 -6.783 22.613 -6.133 23.247 -5.451 C 23.853 -4.8 24.302 -3.964 24.553 -3.141 C 24.575 -3.07 24.594 -3 24.611 -2.93 C 24.896 -3.077 25.195 -3.2 25.507 -3.292 C 26.314 -3.528 27.697 -3.513 28.219 -3.493 C 28.487 -3.482 28.479 -3.387 28.721 -3.392 C 29.129 -3.4 30.062 -3.445 30.579 -3.744 C 31.101 -4.045 31.241 -4.775 31.835 -5.2 C 32.571 -5.728 33.837 -6.33 34.848 -6.506 C 35.813 -6.675 36.802 -6.646 37.761 -6.305 C 38.831 -5.925 39.843 -5.366 40.926 -4.146 C 42.506 -2.365 44.782 2.094 45.847 4.392 C 46.615 6.05 46.972 7.189 47.254 8.511 C 47.512 9.726 47.663 11.033 47.555 12.026 C 47.465 12.853 47.209 13.494 46.852 14.136 C 46.549 14.68 46.161 15.208 45.681 15.65 C 46.524 15.63 47.491 15.566 48.208 15.793 C 49.253 16.125 50.282 16.834 50.97 17.551 C 51.602 18.21 52.025 19.038 52.276 19.861 C 52.526 20.68 52.574 21.664 52.477 22.473 C 52.386 23.23 52.111 23.962 51.774 24.582 C 51.45 25.177 51.129 25.673 50.518 26.139 C 49.75 26.725 48.54 27.379 47.304 27.646 C 45.907 27.947 43.862 27.86 42.482 27.646 C 41.315 27.464 40.649 26.875 39.469 26.641 C 38.049 26.361 36.169 26.229 34.447 26.24 C 32.657 26.251 30.785 26.658 28.922 26.742 C 27.036 26.827 24.846 26.548 23.197 26.742 C 21.807 26.905 20.606 27.512 19.581 27.646 C 18.764 27.752 18.167 27.759 17.471 27.646 C 16.76 27.53 15.982 27.28 15.362 26.943 C 14.767 26.619 14.285 26.325 13.805 25.687 C 13.166 24.838 12.398 23.265 12.097 21.971 C 11.799 20.686 11.819 19.228 11.997 17.953 C 12.168 16.721 12.913 15.687 13.102 14.437 C 13.301 13.118 13.24 11.588 13.102 10.218 C 12.966 8.878 12.435 7.67 12.298 6.301 C 12.154 4.863 12.216 3.296 12.298 1.781 C 12.381 0.249 12.36 -1.514 12.8 -2.84 C 13.198 -4.035 13.811 -5.141 14.659 -5.903 C 15.503 -6.663 16.813 -7.225 17.873 -7.41 Z" style="fill-opacity: 1; fill-rule: nonzero; stroke: rgb(5, 14, 26); stroke-dasharray: none; stroke-dashoffset: 0px; stroke-linecap: butt; stroke-linejoin: miter; stroke-miterlimit: 4; stroke-opacity: 1; stroke-width: 5px; paint-order: normal; vector-effect: none; opacity: 1; mix-blend-mode: normal; isolation: auto; fill: rgb(5, 14, 26);"/></svg>