<?xml version="1.0" encoding="utf-8"?>
<svg xmlns="http://www.w3.org/2000/svg" viewBox="0 0 40 40" width="40px" height="40px" xmlns:bx="https://boxy-svg.com"><defs><bx:guide x="692.4510768560641" y="88.30593314449995" angle="0"/><bx:export><bx:file format="svg"/></bx:export></defs><path stroke="rgb(255,0,0)" stroke-width="0" opacity="0.9921568627450981" d="M 16.467 -6.104 C 17.384 -6.264 18.301 -6.212 19.179 -5.903 C 19.322 -5.853 19.468 -5.794 19.616 -5.729 C 19.682 -5.872 19.753 -6.014 19.832 -6.155 C 20.192 -6.803 20.625 -7.424 21.288 -7.912 C 22.055 -8.478 23.312 -9.046 24.302 -9.218 C 25.219 -9.378 26.136 -9.326 27.014 -9.017 C 27.965 -8.682 29.104 -7.886 29.776 -7.159 C 30.377 -6.509 30.723 -5.868 30.981 -4.949 C 31.091 -4.558 31.131 -4.013 31.147 -3.439 C 32 -3.533 32.965 -3.576 33.744 -3.593 C 34.938 -3.619 36.125 -3.74 37.159 -3.392 C 38.182 -3.048 39.298 -2.152 39.921 -1.534 C 40.394 -1.065 40.492 -0.841 40.825 -0.128 C 41.375 1.049 42.247 3.772 42.734 5.397 C 43.14 6.754 43.471 7.811 43.638 9.013 C 43.708 9.52 43.762 10.058 43.789 10.586 C 44.861 10.568 45.873 10.556 46.601 10.67 C 47.545 10.818 48.079 11.026 48.71 11.373 C 49.332 11.716 49.9 12.162 50.368 12.729 C 50.866 13.335 51.338 14.143 51.573 14.939 C 51.812 15.748 51.871 16.742 51.774 17.551 C 51.758 17.688 51.736 17.823 51.709 17.957 C 52.116 18.516 52.481 19.193 52.678 19.861 C 52.917 20.67 52.976 21.664 52.879 22.473 C 52.788 23.23 52.532 23.94 52.176 24.582 C 51.815 25.231 51.333 25.856 50.719 26.34 C 50.063 26.858 49.288 27.313 48.308 27.545 C 47.125 27.826 45.408 27.43 43.989 27.646 C 42.562 27.863 41.546 28.589 39.77 28.851 C 37.388 29.203 33.552 28.852 30.63 29.152 C 27.838 29.439 25.078 30.219 22.594 30.559 C 20.36 30.864 17.809 31.301 16.366 31.161 C 15.429 31.071 14.968 30.801 14.357 30.458 C 13.745 30.115 13.178 29.74 12.7 29.102 C 12.123 28.334 11.584 27.345 11.294 25.988 C 10.902 24.158 10.844 20.652 11.093 18.756 C 11.281 17.324 12.01 16.331 12.198 15.341 C 12.349 14.541 12.365 14.135 12.298 13.232 C 12.203 11.936 11.573 10.132 11.394 8.109 C 11.171 5.586 11.044 0.948 11.294 -0.931 C 11.436 -2.004 11.64 -2.399 11.997 -3.041 C 12.357 -3.689 12.79 -4.31 13.453 -4.799 C 14.22 -5.364 15.478 -5.932 16.467 -6.104 Z" style="fill-opacity: 1; fill-rule: nonzero; stroke: rgb(5, 14, 26); stroke-dasharray: none; stroke-dashoffset: 0px; stroke-linecap: butt; stroke-linejoin: miter; stroke-miterlimit: 4; stroke-opacity: 1; stroke-width: 5px; paint-order: normal; vector-effect: none; opacity: 1; mix-blend-mode: normal; isolation: auto; fill: rgb(5, 14, 26);"/></svg>