<?xml version="1.0" encoding="utf-8"?>
<svg xmlns="http://www.w3.org/2000/svg" viewBox="0 0 40 40" width="40px" height="40px" xmlns:bx="https://boxy-svg.com"><defs><bx:guide x="692.4510768560641" y="88.30593314449995" angle="0"/><bx:export><bx:file format="svg"/></bx:export></defs><path fill="rgb(255,0,0)" stroke="rgb(255,0,0)" stroke-width="0" opacity="0.9921568627450981" d="M 17.471 -5.703 C 18.388 -5.862 19.306 -5.811 20.183 -5.502 C 21.061 -5.193 22.078 -4.573 22.776 -3.834 C 22.876 -3.924 22.983 -4.012 23.096 -4.095 C 23.863 -4.661 25.12 -5.229 26.11 -5.401 C 27.027 -5.561 27.944 -5.509 28.822 -5.2 C 29.773 -4.865 31.142 -3.789 31.584 -3.342 C 31.811 -3.112 31.664 -2.839 31.885 -2.79 C 32.26 -2.706 33.244 -3.507 34.045 -3.694 C 34.92 -3.897 36.03 -4.033 36.958 -3.895 C 37.87 -3.758 38.741 -3.409 39.569 -2.89 C 40.474 -2.323 41.356 -1.402 42.131 -0.53 C 42.915 0.354 43.493 1.156 44.24 2.383 C 45.204 3.966 46.652 6.774 47.354 8.41 C 47.872 9.618 48.155 10.334 48.359 11.424 C 48.548 12.435 48.658 13.757 48.6 14.777 C 50.445 14.814 51.977 14.886 52.828 14.989 C 54.108 15.145 54.306 15.345 54.938 15.693 C 55.56 16.035 56.128 16.481 56.595 17.049 C 57.094 17.654 57.565 18.462 57.801 19.258 C 58.04 20.067 58.098 21.061 58.001 21.87 C 57.911 22.627 57.655 23.338 57.298 23.979 C 56.938 24.628 56.497 25.247 55.842 25.737 C 55.093 26.298 54.539 26.745 52.929 27.043 C 49.833 27.617 40.212 26.718 36.556 27.244 C 34.29 27.57 33.997 28.405 31.835 28.751 C 28.581 29.272 20.507 29.535 18.074 29.253 C 16.921 29.119 16.675 28.892 16.065 28.55 C 15.453 28.206 14.883 27.786 14.408 27.194 C 13.876 26.532 13.329 25.519 13.102 24.683 C 12.892 23.912 12.973 23.443 13.001 22.372 C 13.046 20.662 13.675 17.161 13.604 14.939 C 13.542 13.004 13.008 11.838 12.8 9.716 C 12.53 6.949 12.077 1.512 12.298 -0.53 C 12.418 -1.637 12.645 -1.997 13.001 -2.639 C 13.362 -3.288 13.795 -3.908 14.458 -4.397 C 15.225 -4.962 16.482 -5.531 17.471 -5.703 Z" style="fill: rgb(5, 14, 26); fill-opacity: 1; fill-rule: nonzero; stroke: rgb(5, 14, 26); stroke-dasharray: none; stroke-dashoffset: 0px; stroke-linecap: butt; stroke-linejoin: miter; stroke-miterlimit: 4; stroke-opacity: 1; stroke-width: 5px; paint-order: normal; vector-effect: none; opacity: 1; mix-blend-mode: normal; isolation: auto;"/></svg>