<?xml version="1.0" encoding="utf-8"?>
<svg xmlns="http://www.w3.org/2000/svg" viewBox="0 0 40 40" width="40px" height="40px" xmlns:bx="https://boxy-svg.com"><defs><bx:guide x="692.4510768560641" y="88.30593314449995" angle="0"/><bx:export><bx:file format="svg"/></bx:export><bx:guide x="16.945" y="20" angle="90"/><bx:guide x="20" y="17.927487522378684" angle="0"/></defs><path stroke="rgb(255,0,0)" stroke-width="0" opacity="0.9921568627450981" d="M 19.112 -8.749 C 20.029 -8.909 20.946 -8.857 21.824 -8.548 C 21.967 -8.498 22.113 -8.439 22.261 -8.374 C 22.327 -8.517 22.398 -8.659 22.477 -8.8 C 22.837 -9.448 23.27 -10.069 23.933 -10.557 C 24.7 -11.123 25.957 -11.691 26.947 -11.863 C 27.864 -12.023 28.781 -11.971 29.659 -11.662 C 30.61 -11.327 31.749 -10.531 32.421 -9.804 C 33.022 -9.154 33.368 -8.513 33.626 -7.594 C 33.736 -7.203 33.776 -6.658 33.792 -6.084 C 34.645 -6.178 35.61 -6.221 36.389 -6.238 C 37.583 -6.264 38.77 -6.385 39.804 -6.037 C 40.827 -5.693 41.943 -4.797 42.566 -4.179 C 43.039 -3.71 43.137 -3.486 43.47 -2.773 C 44.02 -1.596 44.892 1.127 45.379 2.752 C 45.785 4.109 46.116 5.166 46.283 6.368 C 46.353 6.875 46.407 7.413 46.434 7.941 C 47.506 7.923 48.518 7.911 49.246 8.025 C 50.19 8.173 50.724 8.381 51.355 8.728 C 51.977 9.071 52.545 9.517 53.013 10.084 C 53.511 10.69 53.983 11.498 54.218 12.294 C 54.457 13.103 54.516 14.097 54.419 14.906 C 54.403 15.043 54.381 15.178 54.354 15.312 C 54.761 15.871 55.126 16.548 55.323 17.216 C 55.562 18.025 55.621 19.019 55.524 19.828 C 55.433 20.585 55.177 21.295 54.821 21.937 C 54.46 22.586 53.978 23.211 53.364 23.695 C 52.708 24.213 51.933 24.668 50.953 24.9 C 49.77 25.181 48.053 24.785 46.634 25.001 C 45.207 25.218 44.191 25.944 42.415 26.206 C 40.033 26.558 36.197 26.207 33.275 26.507 C 30.483 26.794 27.723 27.574 25.239 27.914 C 23.005 28.219 20.454 28.656 19.011 28.516 C 18.074 28.426 17.613 28.156 17.002 27.813 C 16.39 27.47 15.823 27.095 15.345 26.457 C 14.768 25.689 14.229 24.7 13.939 23.343 C 13.547 21.513 13.489 18.007 13.738 16.111 C 13.926 14.679 14.655 13.686 14.843 12.696 C 14.994 11.896 15.01 11.49 14.943 10.587 C 14.848 9.291 14.218 7.487 14.039 5.464 C 13.816 2.941 13.689 -1.697 13.939 -3.576 C 14.081 -4.649 14.285 -5.044 14.642 -5.686 C 15.002 -6.334 15.435 -6.955 16.098 -7.444 C 16.865 -8.009 18.123 -8.577 19.112 -8.749 Z" style="fill-opacity: 1; fill-rule: nonzero; stroke: rgb(5, 14, 26); stroke-dasharray: none; stroke-dashoffset: 0px; stroke-linecap: butt; stroke-linejoin: miter; stroke-miterlimit: 4; stroke-opacity: 1; stroke-width: 5px; paint-order: normal; vector-effect: none; opacity: 1; mix-blend-mode: normal; isolation: auto; fill: rgb(5, 14, 26);"/></svg>