<?xml version="1.0" encoding="utf-8"?>
<svg xmlns="http://www.w3.org/2000/svg" viewBox="0 0 40 40" width="40px" height="40px" xmlns:bx="https://boxy-svg.com"><defs><bx:guide x="692.4510768560641" y="88.30593314449995" angle="0"/><bx:export><bx:file format="svg"/></bx:export><bx:guide x="20" y="19.758182749010167" angle="0"/><bx:guide x="-2.569" y="20" angle="90"/></defs><path stroke="rgb(255,0,0)" stroke-width="0" opacity="0.9921568627450981" d="M 18.981 -7.902 C 19.962 -8.074 21 -7.925 21.894 -7.601 C 22.792 -7.275 23.721 -6.625 24.355 -5.943 C 24.961 -5.292 25.41 -4.456 25.661 -3.633 C 25.683 -3.562 25.702 -3.492 25.719 -3.422 C 26.004 -3.569 26.303 -3.692 26.615 -3.784 C 27.422 -4.02 28.805 -4.005 29.327 -3.985 C 29.595 -3.974 29.587 -3.879 29.829 -3.884 C 30.237 -3.892 31.17 -3.937 31.687 -4.236 C 32.209 -4.537 32.349 -5.267 32.943 -5.692 C 33.679 -6.22 34.945 -6.822 35.956 -6.998 C 36.921 -7.167 37.91 -7.138 38.869 -6.797 C 39.939 -6.417 40.951 -5.858 42.034 -4.638 C 43.614 -2.857 45.89 1.602 46.955 3.9 C 47.723 5.558 48.08 6.697 48.362 8.019 C 48.62 9.234 48.771 10.541 48.663 11.534 C 48.573 12.361 48.317 13.002 47.96 13.644 C 47.657 14.188 47.269 14.716 46.789 15.158 C 47.632 15.138 48.599 15.074 49.316 15.301 C 50.361 15.633 51.39 16.342 52.078 17.059 C 52.71 17.718 53.133 18.546 53.384 19.369 C 53.634 20.188 53.682 21.172 53.585 21.981 C 53.494 22.738 53.219 23.47 52.882 24.09 C 52.558 24.685 52.237 25.181 51.626 25.647 C 50.858 26.233 49.648 26.887 48.412 27.154 C 47.015 27.455 44.97 27.368 43.59 27.154 C 42.423 26.972 41.757 26.383 40.577 26.149 C 39.157 25.869 37.277 25.737 35.555 25.748 C 33.765 25.759 31.893 26.166 30.03 26.25 C 28.144 26.335 25.954 26.056 24.305 26.25 C 22.915 26.413 21.714 27.02 20.689 27.154 C 19.872 27.26 19.275 27.267 18.579 27.154 C 17.868 27.038 17.09 26.788 16.47 26.451 C 15.875 26.127 15.393 25.833 14.913 25.195 C 14.274 24.346 13.506 22.773 13.205 21.479 C 12.907 20.194 12.927 18.736 13.105 17.461 C 13.276 16.229 14.021 15.195 14.21 13.945 C 14.409 12.626 14.348 11.096 14.21 9.726 C 14.074 8.386 13.543 7.178 13.406 5.809 C 13.262 4.371 13.324 2.804 13.406 1.289 C 13.489 -0.243 13.468 -2.006 13.908 -3.332 C 14.306 -4.527 14.919 -5.633 15.767 -6.395 C 16.611 -7.155 17.921 -7.717 18.981 -7.902 Z" style="fill-opacity: 1; fill-rule: nonzero; stroke: rgb(5, 14, 26); stroke-dasharray: none; stroke-dashoffset: 0px; stroke-linecap: butt; stroke-linejoin: miter; stroke-miterlimit: 4; stroke-opacity: 1; stroke-width: 5px; paint-order: normal; vector-effect: none; opacity: 1; mix-blend-mode: normal; isolation: auto; fill: rgb(5, 14, 26);"/><path fill="rgb(255,0,0)" stroke="rgb(255,0,0)" stroke-width="0" opacity="0.9921568627450981" d="M 19.098 -6.767 C 20.123 -6.927 21.439 -6.788 22.422 -6.398 C 23.383 -6.017 24.317 -5.272 24.945 -4.49 C 25.558 -3.727 25.888 -3.217 26.176 -1.782 C 26.695 0.801 26.631 8.897 26.545 11.143 C 26.507 12.164 25.599 12.435 26.299 12.928 C 28.339 14.365 48.537 13.951 52.334 14.652 C 53.791 14.92 53.913 15.119 54.55 15.513 C 55.155 15.888 55.657 16.352 56.089 16.929 C 56.551 17.547 56.99 18.352 57.197 19.145 C 57.406 19.951 57.451 20.918 57.32 21.73 C 57.193 22.515 56.853 23.309 56.458 23.945 C 56.083 24.55 55.659 25.044 55.042 25.484 C 54.332 25.991 53.303 26.507 52.334 26.715 C 51.337 26.929 51.015 26.789 49.134 26.715 C 44.758 26.542 26.371 24.631 22.791 24.992 C 21.518 25.12 21.605 25.605 20.945 25.73 C 20.255 25.862 19.457 25.868 18.729 25.73 C 17.98 25.589 17.15 25.263 16.513 24.869 C 15.908 24.494 15.406 24.03 14.974 23.453 C 14.512 22.835 14.073 22.029 13.867 21.237 C 13.657 20.431 13.693 19.568 13.743 18.652 C 13.798 17.65 14.115 16.882 14.236 15.452 C 14.416 13.311 14.602 8.366 14.482 6.589 C 14.417 5.632 14.189 5.625 14.113 4.742 C 13.987 3.291 13.855 -0.248 14.113 -1.782 C 14.285 -2.806 14.58 -3.361 14.974 -3.998 C 15.349 -4.602 15.773 -5.096 16.39 -5.536 C 17.1 -6.043 18.12 -6.615 19.098 -6.767 Z" style="fill: rgb(5, 14, 26); fill-opacity: 1; fill-rule: nonzero; stroke: rgb(5, 14, 26); stroke-dasharray: none; stroke-dashoffset: 0px; stroke-linecap: butt; stroke-linejoin: miter; stroke-miterlimit: 4; stroke-opacity: 1; stroke-width: 5px; paint-order: normal; vector-effect: none; opacity: 1; mix-blend-mode: normal; isolation: auto;"/></svg>