<?xml version="1.0" encoding="utf-8"?>
<svg xmlns="http://www.w3.org/2000/svg" viewBox="0 0 40 40" width="40px" height="40px" xmlns:bx="https://boxy-svg.com"><defs><bx:guide x="692.4510768560641" y="88.30593314449995" angle="0"/><bx:export><bx:file format="svg"/></bx:export><bx:guide x="20" y="16.2241029115498" angle="0"/><bx:guide x="4.284909712191336" y="19.988985867542453" angle="90"/></defs><path fill="rgb(255,0,0)" stroke="rgb(255,0,0)" stroke-width="0" opacity="0.9921568627450981" d="M 18.977 -6.832 C 19.894 -6.991 20.812 -6.94 21.689 -6.631 C 22.567 -6.322 23.584 -5.702 24.282 -4.963 C 24.382 -5.053 24.489 -5.141 24.602 -5.224 C 25.369 -5.79 26.626 -6.358 27.616 -6.53 C 28.533 -6.69 29.45 -6.638 30.328 -6.329 C 31.279 -5.994 32.648 -4.918 33.09 -4.471 C 33.317 -4.241 33.17 -3.968 33.391 -3.919 C 33.766 -3.835 34.75 -4.636 35.551 -4.823 C 36.426 -5.026 37.536 -5.162 38.464 -5.024 C 39.376 -4.887 40.247 -4.538 41.075 -4.019 C 41.98 -3.452 42.862 -2.531 43.637 -1.659 C 44.421 -0.775 44.999 0.027 45.746 1.254 C 46.71 2.837 48.158 5.645 48.86 7.281 C 49.378 8.489 49.661 9.205 49.865 10.295 C 50.054 11.306 50.164 12.628 50.106 13.648 C 51.951 13.685 53.483 13.757 54.334 13.86 C 55.614 14.016 55.812 14.216 56.444 14.564 C 57.066 14.906 57.634 15.352 58.101 15.92 C 58.6 16.525 59.071 17.333 59.307 18.129 C 59.546 18.938 59.604 19.932 59.507 20.741 C 59.417 21.498 59.161 22.209 58.804 22.85 C 58.444 23.499 58.003 24.118 57.348 24.608 C 56.599 25.169 56.045 25.616 54.435 25.914 C 51.339 26.488 41.718 25.589 38.062 26.115 C 35.796 26.441 35.503 27.276 33.341 27.622 C 30.087 28.143 22.013 28.406 19.58 28.124 C 18.427 27.99 18.181 27.763 17.571 27.421 C 16.959 27.077 16.389 26.657 15.914 26.065 C 15.382 25.403 14.835 24.39 14.608 23.554 C 14.398 22.783 14.479 22.314 14.507 21.243 C 14.552 19.533 15.181 16.032 15.11 13.81 C 15.048 11.875 14.514 10.709 14.306 8.587 C 14.036 5.82 13.583 0.383 13.804 -1.659 C 13.924 -2.766 14.151 -3.126 14.507 -3.768 C 14.868 -4.417 15.301 -5.037 15.964 -5.526 C 16.731 -6.091 17.988 -6.66 18.977 -6.832 Z" style="fill: rgb(5, 14, 26); fill-opacity: 1; fill-rule: nonzero; stroke: rgb(5, 14, 26); stroke-dasharray: none; stroke-dashoffset: 0px; stroke-linecap: butt; stroke-linejoin: miter; stroke-miterlimit: 4; stroke-opacity: 1; stroke-width: 5px; paint-order: normal; vector-effect: none; opacity: 1; mix-blend-mode: normal; isolation: auto;"/></svg>