<?xml version="1.0" encoding="utf-8"?>
<svg xmlns="http://www.w3.org/2000/svg" viewBox="0 0 40 450" width="40px" height="450px" xmlns:bx="https://boxy-svg.com"><defs><bx:guide x="692.4510768560641" y="88.30593314449995" angle="0"/><bx:export><bx:file format="svg"/></bx:export></defs><path fill="rgb(255,0,0)" stroke="rgb(255,0,0)" stroke-width="0" opacity="0.9686274509803922" d="M 15.628 -6.315 C 17.134 -6.301 21.176 -5.59 23.131 -3.551 C 24.068 -2.573 24.838 -1.467 25.488 -0.082 C 25.453 -0.474 25.454 -0.841 25.5 -1.181 C 25.767 -3.173 27.436 -4.026 28.265 -4.736 C 28.835 -5.224 28.97 -5.353 29.844 -5.525 C 31.497 -5.851 36.064 -6.435 38.532 -5.525 C 40.901 -4.652 43.303 -2.745 44.456 -0.392 C 45.742 2.233 45.828 7.57 45.246 9.876 C 44.849 11.448 43.474 10.477 42.876 13.035 C 41.01 21.019 41.305 67.335 42.876 80.959 C 43.729 88.356 45.897 88.806 46.825 95.176 C 48.191 104.547 49.78 128.074 48.405 133.877 C 47.824 136.33 46.825 136.641 45.641 137.431 C 44.456 138.221 41.756 137.502 41.297 138.616 C 40.705 140.052 43.737 141.879 44.456 146.514 C 46.001 156.478 46.334 196.662 44.456 204.17 C 44.414 204.337 44.372 204.494 44.329 204.642 C 47.121 226.793 44.217 276.825 43.666 294.999 C 43.282 307.66 41.388 311.537 41.297 321.063 C 41.193 331.838 43.727 347.122 43.666 356.605 C 43.62 363.732 41.14 367.919 42.086 373.98 C 43.144 380.753 49.059 387.853 50.774 395.305 C 52.511 402.851 53.36 413.997 52.354 419 C 51.74 422.053 50.488 423.814 48.8 424.923 C 47.651 425.678 45.865 425.999 44.293 425.956 C 44.45 430.55 44.623 435.128 45.246 437.955 C 46.248 442.505 49.428 445.818 49.195 448.223 C 49.032 449.906 48.449 450.455 46.43 451.777 C 42.15 454.581 23.775 462.4 18.787 462.045 C 16.218 461.862 15.466 460.726 14.443 458.491 C 12.75 454.789 12.908 447.64 12.863 438.745 C 12.795 425.174 15.596 401.869 16.023 381.879 C 16.481 360.429 14.723 328.114 15.233 313.955 C 15.518 306.038 17.204 302.853 16.812 298.158 C 16.468 294.032 14.419 293.654 13.653 287.101 C 11.921 272.28 11.761 219.756 12.863 198.642 C 13.589 184.751 16.21 179.341 16.812 167.839 C 17.511 154.494 17.579 133.366 16.023 122.819 C 15.001 115.894 12.133 113.541 11.284 107.813 C 10.297 101.158 10.455 91.579 11.284 84.908 C 11.993 79.2 14.407 77.244 15.233 69.902 C 16.62 57.559 16.62 25.378 15.233 13.035 C 14.407 5.693 10.843 1.131 11.284 -1.971 C 11.552 -3.862 13.219 -4.816 14.048 -5.525 C 14.618 -6.013 14.804 -6.323 15.628 -6.315 Z M 27.87 9.086 C 29.798 21.743 28.897 56.882 27.87 73.851 C 27.841 74.324 27.808 74.792 27.771 75.256 C 28.684 74.236 29.692 73.319 30.239 70.692 C 32.145 61.538 31.691 29.646 30.239 16.984 C 29.768 12.877 28.491 9.256 27.376 6.218 C 27.549 7.101 27.713 8.054 27.87 9.086 Z M 23.921 103.864 C 23.999 104.846 24.151 105.687 24.355 106.441 C 24.204 101.968 24.466 98.339 24.674 94.324 C 24.067 97.782 23.689 100.942 23.921 103.864 Z M 29.449 187.584 C 28.672 195.116 26.432 195.49 25.568 202.041 C 25.759 200.752 25.995 199.611 26.29 198.642 C 27.154 195.803 28.854 194.424 29.844 193.508 C 30.442 192.955 30.513 192.752 31.424 192.718 C 31.498 192.715 31.579 192.71 31.666 192.702 C 31.75 179.95 32.885 161.635 31.819 150.463 C 31.439 146.477 30.801 142.514 30.055 138.648 C 30.631 156.189 30.428 178.106 29.449 187.584 Z M 27.87 377.14 C 27.872 379.328 27.913 381.253 27.976 383.009 C 29.544 363.767 31.073 344.175 31.029 333.7 C 31 326.689 30.179 322.203 29.512 318.095 C 29.505 338.257 27.856 362.554 27.87 377.14 Z M 31.029 287.101 C 30.485 285.426 28.997 286.152 27.88 285.186 C 28.389 291.23 28.859 297.342 29.161 303.488 C 30.109 296.987 31.987 290.049 31.029 287.101 Z" style="fill: rgb(5, 14, 26); fill-opacity: 1; fill-rule: nonzero; stroke: rgb(5, 14, 26); stroke-dasharray: none; stroke-dashoffset: 0px; stroke-linecap: butt; stroke-linejoin: miter; stroke-miterlimit: 4; stroke-opacity: 1; stroke-width: 5px; paint-order: normal; vector-effect: none; opacity: 1; mix-blend-mode: normal; isolation: auto;"/></svg>