<?xml version="1.0" encoding="utf-8"?>
<svg xmlns="http://www.w3.org/2000/svg" viewBox="0 0 40 450" width="40px" height="450px" xmlns:bx="https://boxy-svg.com"><defs><bx:guide x="692.4510768560641" y="88.30593314449995" angle="0"/><bx:export><bx:file format="svg"/></bx:export><bx:guide x="20" y="329.357" angle="0"/></defs><path fill="rgb(255,0,0)" stroke="rgb(255,0,0)" stroke-width="0" opacity="0.9882352941176471" d="M 17.207 -6.315 C 18.655 -6.513 21.734 -5.554 24.316 -5.525 C 27.209 -5.494 30.921 -6.951 33.793 -6.315 C 36.561 -5.702 39.362 -5.734 41.297 -1.971 C 45.292 5.798 44.948 23.103 46.036 50.946 C 48.136 104.74 47.832 257.441 46.825 326.592 C 46.124 374.727 41.844 420.769 42.876 437.955 C 43.29 444.838 45.71 446.493 45.246 449.013 C 44.925 450.756 44.388 451.454 42.481 452.567 C 38.883 454.667 25.08 458.594 21.156 458.096 C 19.077 457.832 18.609 458.284 17.602 455.331 C 13.968 444.674 12.875 366.736 13.653 343.968 C 14.079 331.508 16.214 329.48 16.812 319.483 C 17.599 306.335 17.239 283.1 16.812 270.515 C 16.506 261.48 15.369 256.379 15.233 249.19 C 15.095 241.901 16.494 235.361 16.023 227.075 C 15.466 217.293 12.079 205.138 11.284 193.903 C 10.476 182.502 10.436 171.16 11.284 159.151 C 12.18 146.462 15.783 131.983 16.812 119.66 C 17.751 108.432 17.855 102.249 17.602 88.068 C 17.217 66.499 10.882 8.001 12.863 -1.971 C 13.461 -4.978 14.799 -4.816 15.628 -5.525 C 16.198 -6.013 16.38 -6.202 17.207 -6.315 Z" style="fill: rgb(5, 14, 26); fill-opacity: 1; fill-rule: nonzero; stroke: rgb(5, 14, 26); stroke-dasharray: none; stroke-dashoffset: 0px; stroke-linecap: butt; stroke-linejoin: miter; stroke-miterlimit: 4; stroke-opacity: 1; stroke-width: 5px; paint-order: normal; vector-effect: none; opacity: 1; mix-blend-mode: normal; isolation: auto;"/><path fill="rgb(255,0,0)" stroke="rgb(255,0,0)" stroke-width="0" opacity="0.9372549019607843" d="M 19.65 428.156 C 21.243 428.268 24.496 428.846 25.826 431.109 C 27.82 434.501 27.871 445.45 26.9 449.904 C 26.216 453.039 24.469 455.374 22.872 456.616 C 21.601 457.605 19.994 457.939 18.576 457.69 C 17.038 457.42 14.952 456.121 14.012 454.737 C 13.069 453.349 13.061 451.801 12.938 449.367 C 12.752 445.665 12.964 437.251 14.012 433.794 C 14.7 431.527 15.887 430.154 16.965 429.23 C 17.803 428.511 18.522 428.076 19.65 428.156 Z M 18.635 -12.716 C 20.458 -12.742 23.864 -12.209 25.348 -11.105 C 26.605 -10.169 27.039 -9.222 27.496 -7.077 C 28.3 -3.3 28.602 7.653 27.496 11.717 C 26.787 14.322 25.366 15.932 24.005 16.819 C 22.886 17.549 21.53 17.656 20.246 17.356 C 18.765 17.01 16.836 16.547 15.682 14.402 C 13.656 10.638 12.428 -3.418 12.997 -7.614 C 13.3 -9.844 14.139 -10.796 15.145 -11.642 C 16.066 -12.415 17.223 -12.696 18.635 -12.716 Z" style="fill: rgb(5, 14, 26); fill-opacity: 1; fill-rule: nonzero; stroke: rgb(5, 14, 26); stroke-dasharray: none; stroke-dashoffset: 0px; stroke-linecap: butt; stroke-linejoin: miter; stroke-miterlimit: 4; stroke-opacity: 1; stroke-width: 5px; paint-order: normal; vector-effect: none; opacity: 1; mix-blend-mode: normal; isolation: auto;"/></svg>