<?xml version="1.0" encoding="utf-8"?>
<svg xmlns="http://www.w3.org/2000/svg" viewBox="0 0 40 450" width="40px" height="450px" xmlns:bx="https://boxy-svg.com"><defs><bx:guide x="692.4510768560641" y="88.30593314449995" angle="0"/><bx:export><bx:file format="svg"/></bx:export></defs><path fill="rgb(255,0,0)" stroke="rgb(255,0,0)" stroke-width="0" opacity="0.984313725490196" d="M 29.055 -7.895 C 32.525 -8.412 39.924 -6.991 43.271 -5.525 C 45.739 -4.445 47.252 -3.542 48.405 -1.181 C 49.998 2.079 50.059 7.901 49.985 13.825 C 49.89 21.306 46.099 35.934 46.825 40.679 C 47.183 43.016 48.685 42.443 49.195 44.628 C 50.121 48.601 49.86 57.777 49.195 65.163 C 48.45 73.436 43.968 86.203 44.456 92.017 C 44.751 95.536 46.964 95.616 47.615 99.125 C 48.672 104.816 48.872 116.95 47.615 125.189 C 46.407 133.107 39.782 144.34 40.507 147.699 C 40.853 149.303 42.952 148.284 43.666 149.673 C 44.831 151.94 44.642 157.124 44.456 162.31 C 44.207 169.253 40.315 183.735 41.297 188.374 C 41.805 190.775 43.579 189.192 44.456 192.323 C 47.024 201.496 49.49 257.741 47.615 266.566 C 47.004 269.441 45.517 268.143 44.851 270.12 C 43.717 273.485 44.121 279.694 43.666 287.101 C 43.004 297.881 40.912 318.421 41.297 330.541 C 41.603 340.202 43.619 343.4 44.456 355.025 C 45.83 374.117 43.263 428.45 46.825 440.325 C 48.234 445.022 51.485 444.403 52.354 446.643 C 53.13 448.643 52.99 451.157 52.354 452.962 C 51.748 454.684 51.302 456.075 48.8 457.306 C 43.883 459.724 23.701 462.892 18.787 462.045 C 16.497 461.65 16.199 462.099 15.233 459.28 C 12.008 449.874 12.289 393.192 12.863 367.662 C 13.32 347.391 17.217 330.175 16.812 316.324 C 16.503 305.727 13.627 301.296 12.863 290.26 C 11.807 275.003 11.98 255.876 12.863 231.024 C 14.081 196.763 24.46 121.955 21.551 99.125 C 20.19 88.44 14.999 87.503 13.653 80.959 C 12.247 74.121 13.487 67.986 13.653 58.844 C 13.877 46.525 15.807 22.885 15.233 12.245 C 14.873 5.593 12.267 1.016 12.863 -1.971 C 13.238 -3.847 14.338 -4.792 15.628 -5.525 C 17.033 -6.325 19.772 -6.592 21.156 -6.315 C 22.214 -6.104 22.507 -4.72 23.526 -4.736 C 24.932 -4.757 26.552 -7.522 29.055 -7.895 Z" style="fill: rgb(5, 14, 26); fill-opacity: 1; fill-rule: nonzero; stroke: rgb(5, 14, 26); stroke-dasharray: none; stroke-dashoffset: 0px; stroke-linecap: butt; stroke-linejoin: miter; stroke-miterlimit: 4; stroke-opacity: 1; stroke-width: 5px; paint-order: normal; vector-effect: none; opacity: 1; mix-blend-mode: normal; isolation: auto;"/></svg>