<?xml version="1.0" encoding="utf-8"?>
<svg xmlns="http://www.w3.org/2000/svg" viewBox="0 0 80 80" width="80px" height="80px" xmlns:bx="https://boxy-svg.com"><defs><bx:export><bx:file format="svg"/></bx:export></defs><path fill="rgb(255,0,0)" stroke="rgb(255,0,0)" stroke-width="0" opacity="0.996078431372549" d="M 37.853 4.667 C 39.778 4.53 41.029 5.446 42.452 5.557 C 43.727 5.656 44.589 5.257 46.012 5.408 C 47.88 5.607 50.367 6.056 52.837 7.04 C 55.817 8.229 60.056 10.766 62.629 12.53 C 64.673 13.931 66.072 15.075 67.451 16.61 C 68.81 18.122 70.054 20.108 70.863 21.654 C 71.533 22.934 71.723 23.58 72.198 25.215 C 72.92 27.695 74.052 32.106 74.572 35.748 C 75.109 39.515 75.534 44.316 75.314 47.469 C 75.145 49.892 74.702 51.141 73.978 53.403 C 73.076 56.225 71.547 60.651 69.973 63.195 C 68.676 65.29 67.167 66.605 65.596 68.017 C 64.07 69.388 62.456 70.524 60.7 71.577 C 58.901 72.657 56.741 73.747 54.914 74.396 C 53.301 74.969 52.036 75.249 50.315 75.435 C 48.337 75.647 46.314 75.775 43.639 75.435 C 40.116 74.986 34.827 74.097 30.731 72.319 C 26.505 70.485 21.263 66.429 18.714 64.456 C 17.156 63.249 16.535 62.608 15.673 61.563 C 14.838 60.551 14.402 59.932 13.596 58.299 C 12.271 55.616 9.492 49.73 8.7 45.837 C 8.005 42.422 8.387 39.262 8.551 36.193 C 8.707 33.293 9.055 30.286 9.59 27.885 C 10.046 25.836 10.1 24.603 11.37 22.544 C 13.241 19.513 18.408 14.177 21.385 11.64 C 23.616 9.737 25.021 8.882 27.467 7.782 C 30.348 6.486 35.159 4.857 37.853 4.667 Z" style="fill: rgb(5, 14, 26); fill-opacity: 1; fill-rule: nonzero; stroke: rgb(5, 14, 26); stroke-dasharray: none; stroke-dashoffset: 0px; stroke-linecap: butt; stroke-linejoin: miter; stroke-miterlimit: 4; stroke-opacity: 1; stroke-width: 0px; paint-order: normal; vector-effect: none; opacity: 1; mix-blend-mode: normal; isolation: auto;"/></svg>