<?xml version="1.0" encoding="utf-8"?>
<svg xmlns="http://www.w3.org/2000/svg" viewBox="0 0 140 140" width="140px" height="140px" xmlns:bx="https://boxy-svg.com"><defs><bx:export><bx:file format="svg"/></bx:export></defs><path fill="rgb(255,0,0)" stroke="rgb(255,0,0)" stroke-width="0" opacity="0.9921568627450981" d="M 56.002 90.002 C 56.826 95.489 56.503 112.983 56.169 119.406 C 55.971 123.205 55.932 125.29 55.167 127.258 C 54.568 128.798 53.512 129.909 52.577 130.682 C 51.793 131.331 51.228 131.543 50.071 131.852 C 48.371 132.305 44.777 133.078 42.887 132.687 C 41.361 132.372 40.166 131.528 39.295 130.432 C 38.368 129.264 38.033 127.884 37.625 125.754 C 37.021 122.603 36.924 116.762 36.789 112.556 C 36.662 108.598 36.717 105.255 36.789 101.196 C 36.869 96.735 36.468 89.858 37.291 86.828 C 37.306 86.771 37.322 86.716 37.338 86.661 C 35.311 86.804 32.568 86.774 30.859 86.466 C 28.99 86.13 28.043 85.603 26.181 84.628 C 23.611 83.284 18.95 81.001 16.742 78.53 C 14.765 76.319 13.783 74 13.066 70.845 C 12.183 66.957 12.659 60.396 12.732 56.478 C 12.784 53.707 12.831 51.53 13.141 49.512 C 13.14 48.09 13.211 46.672 13.4 45.582 C 13.763 43.494 14.508 41.762 15.405 40.236 C 16.238 38.818 17.198 37.66 18.496 36.644 C 19.636 35.751 21.314 34.915 22.726 34.336 C 25.362 31.964 28.716 29.107 31.193 27.492 C 34.041 25.636 37.064 24.455 39.212 23.65 C 40.768 23.066 41.275 22.85 43.054 22.647 C 45.811 22.333 51.673 23.042 54.916 22.647 C 57.475 22.336 58.981 21.365 61.264 20.977 C 63.741 20.556 66.092 20.414 69.283 20.308 C 73.345 20.174 78.269 20.084 83.985 20.476 C 91.081 20.961 103.404 21.931 109.045 23.483 C 112.672 24.481 114.155 25.514 116.563 27.158 C 117.513 27.807 118.513 28.605 119.492 29.459 C 120.403 29.832 121.135 30.294 121.909 30.796 C 123.029 31.523 123.908 32.15 124.832 33.386 C 126.031 34.988 127.602 37.807 128.174 40.069 C 128.244 40.345 128.301 40.623 128.347 40.903 C 128.96 42.346 129.497 43.861 129.844 44.95 C 130.232 46.169 130.387 46.735 130.513 47.958 C 130.675 49.538 130.253 51.821 130.513 53.805 C 130.785 55.883 131.91 58.058 132.183 60.153 C 132.447 62.177 132.528 64.257 132.183 66.168 C 131.846 68.04 131.112 69.884 130.179 71.514 C 129.246 73.142 128.344 74.53 126.587 75.941 C 124.303 77.776 120.306 79.786 116.897 81.12 C 113.459 82.466 108.895 83.473 106.038 83.96 C 105.394 84.07 104.808 84.179 104.262 84.265 C 104.325 84.476 104.387 84.714 104.451 84.99 C 104.986 87.278 105.146 92.434 105.286 96.184 C 105.426 99.952 105.012 103.943 105.286 107.544 C 105.544 110.939 106.554 114.279 106.789 117.234 C 106.997 119.843 107.324 122.505 106.789 124.418 C 106.348 126 105.269 127.388 104.367 128.176 C 103.647 128.806 103.153 128.975 102.028 129.179 C 100.262 129.499 95.992 129.39 94.176 129.179 C 93.01 129.043 92.43 128.907 91.67 128.511 C 90.895 128.106 90.124 127.464 89.582 126.756 C 89.037 126.045 88.637 125.354 88.412 124.25 C 88.105 122.745 88.576 121.411 88.412 118.236 C 88.104 112.258 84.945 92.855 85.49 86.807 C 84.732 86.649 84.003 86.478 82.983 86.429 C 82.865 86.423 82.742 86.42 82.616 86.419 C 83.072 88.903 83.017 93.693 83.066 98.188 C 83.129 103.898 82.675 112.381 82.732 118.236 C 82.78 123.166 83.888 128.43 83.233 131.267 C 82.816 133.078 81.86 134.06 80.978 134.859 C 80.235 135.532 79.779 135.734 78.472 136.029 C 76.185 136.544 69.839 137.268 67.279 136.697 C 65.543 136.31 64.485 135.323 63.687 134.441 C 63.014 133.698 62.75 133.102 62.517 131.935 C 62.174 130.21 62.5 127.662 62.517 124.585 C 62.541 120.363 62.866 114.253 62.684 108.379 C 62.504 102.538 60.852 93.236 61.02 88.434 C 60.817 88.503 60.62 88.56 60.429 88.601 C 58.746 88.965 57.683 89.026 55.787 88.744 C 55.861 89.12 55.932 89.536 56.002 90.002 Z M 57.505 76.572 C 59.972 76.622 62.319 76.226 63.186 74.567 C 64.315 72.406 62.385 65.738 61.348 63.04 C 60.614 61.131 60.164 60.607 58.508 59.03 C 57.715 58.275 56.563 57.327 55.224 56.308 C 54.24 55.779 53.143 55.232 51.909 54.891 C 48.414 53.927 41.159 53.052 38.544 53.053 C 37.182 53.054 36.348 53.208 35.954 53.554 C 35.694 53.783 35.704 53.866 35.787 54.473 C 36.032 56.262 38.772 64.85 40.131 67.671 C 40.972 69.418 41.552 70.021 42.553 71.096 C 42.857 71.422 43.232 71.738 43.634 72.046 C 47.532 73.835 54.057 76.502 57.505 76.572 Z M 79.558 74.567 C 79.61 74.913 79.885 74.44 80.393 74.4 C 81.619 74.305 86.517 74.206 88.078 74.4 C 88.941 74.508 89.071 74.808 89.749 74.901 C 90.611 75.02 91.947 75.057 92.923 74.901 C 93.83 74.757 94.263 74.608 95.429 74.066 C 97.446 73.129 101.973 70.938 104.451 68.887 C 105.904 67.684 107.178 66.216 108.268 64.776 C 109.312 63.1 110.243 61.573 110.632 60.655 C 111.181 59.36 111.173 59.089 111.3 57.982 C 111.467 56.52 112.007 53.683 111.3 52.468 C 110.688 51.416 109.087 51.034 107.875 50.714 C 106.664 50.394 105.605 50.371 104.033 50.547 C 101.898 50.787 98.692 51.285 96.014 52.552 C 92.985 53.985 89.671 56.317 86.909 59.151 C 85.965 60.12 85.009 61.445 84.083 62.862 C 81.733 68.097 79.441 73.789 79.558 74.567 Z" style="fill: rgb(5, 14, 26); fill-opacity: 1; fill-rule: nonzero; stroke: rgb(5, 14, 26); stroke-dasharray: none; stroke-dashoffset: 0px; stroke-linecap: butt; stroke-linejoin: miter; stroke-miterlimit: 4; stroke-opacity: 1; stroke-width: 0px; paint-order: normal; vector-effect: none; opacity: 1; mix-blend-mode: normal; isolation: auto; transform-box: fill-box; transform-origin: 50% 50%;" transform="matrix(0.999678, 0.025387, -0.025387, 0.999678, 0, 0)"/><path fill="rgb(255,0,0)" stroke="rgb(255,0,0)" stroke-width="0" opacity="0.9882352941176471" d="M 15.629 10.679 C 16.598 10.494 17.809 10.494 18.804 10.846 C 19.848 11.216 21.038 12.117 21.727 12.934 C 22.348 13.671 22.687 14.458 22.897 15.44 C 23.14 16.58 23.095 17.98 22.897 19.45 C 22.665 21.162 21.277 24.034 21.393 25.13 C 21.457 25.734 21.557 25.726 22.145 26.216 C 23.53 27.371 30.3 30.202 31.918 31.813 C 32.841 32.731 32.896 33.466 33.088 34.319 C 33.271 35.138 33.371 35.919 33.088 36.825 C 32.73 37.966 31.534 39.834 30.665 40.584 C 30.005 41.153 29.062 40.854 28.577 41.419 C 28.018 42.069 28.189 43.676 27.741 44.51 C 27.345 45.248 26.796 45.807 26.154 46.264 C 25.494 46.734 24.769 47.081 23.815 47.266 C 22.634 47.495 20.799 47.457 19.472 47.266 C 18.256 47.092 17.463 46.93 16.131 46.264 C 14.215 45.307 10.848 43.492 9.03 41.335 C 7.18 39.139 5.82 35.743 5.188 33.149 C 4.633 30.874 4.556 29.044 5.021 26.634 C 5.586 23.701 7.509 19.362 9.03 16.777 C 10.272 14.667 11.873 12.851 13.123 11.848 C 14.017 11.132 14.714 10.854 15.629 10.679 Z M 114.03 6.502 C 115.649 6.267 118.606 6.51 120.713 7.171 C 122.84 7.838 125.087 9.319 126.727 10.512 C 128.139 11.539 129.171 12.413 130.152 13.77 C 131.241 15.275 132.379 17.338 132.825 19.283 C 133.273 21.235 133.303 23.045 132.825 25.464 C 132.199 28.635 129.836 34.233 128.481 36.825 C 127.577 38.555 126.816 39.652 125.892 40.417 C 125.151 41.029 124.363 41.252 123.553 41.419 C 122.748 41.584 121.943 41.692 121.047 41.419 C 119.942 41.082 118.269 40.075 117.455 39.164 C 116.744 38.367 116.783 36.652 116.202 36.407 C 115.708 36.198 115.1 37.09 114.364 37.242 C 113.483 37.424 112.252 37.558 111.19 37.242 C 109.998 36.888 108.397 35.869 107.598 34.987 C 106.925 34.244 106.62 33.333 106.429 32.481 C 106.245 31.661 106.156 30.871 106.429 29.975 C 106.765 28.87 107.842 27.202 108.684 26.383 C 109.375 25.711 110.227 25.751 110.94 25.13 C 111.773 24.405 112.912 22.961 113.279 22.123 C 113.532 21.543 113.572 21.22 113.446 20.619 C 113.27 19.782 112.429 18.28 111.859 17.529 C 111.411 16.939 110.848 16.832 110.438 16.276 C 109.962 15.628 109.46 14.622 109.269 13.77 C 109.085 12.95 108.996 12.159 109.269 11.264 C 109.605 10.158 110.643 8.47 111.524 7.672 C 112.267 6.999 112.895 6.667 114.03 6.502 Z" style="fill: rgb(5, 14, 26); fill-opacity: 1; fill-rule: nonzero; stroke: rgb(5, 14, 26); stroke-dasharray: none; stroke-dashoffset: 0px; stroke-linecap: butt; stroke-linejoin: miter; stroke-miterlimit: 4; stroke-opacity: 1; stroke-width: 0px; paint-order: normal; vector-effect: none; opacity: 1; mix-blend-mode: normal; isolation: auto; transform-box: fill-box; transform-origin: 50% 50%;" transform="matrix(0.999678, 0.025387, -0.025387, 0.999678, 0, 0)"/><path fill="rgb(255,0,0)" stroke="rgb(255,0,0)" stroke-width="0" opacity="0.9764705882352941" d="M 17.666 61.012 C 19.246 60.976 21.581 61.794 22.672 62.809 C 23.648 63.717 23.894 64.702 24.212 66.531 C 24.729 69.508 23.657 77.66 24.212 80.136 C 24.495 81.4 24.884 82.159 25.496 82.318 C 26.144 82.486 27.607 81.232 28.062 80.906 C 28.295 80.74 28.259 80.739 28.448 80.521 C 28.816 80.094 29.312 78.874 30.244 78.211 C 31.468 77.342 33.97 76.141 35.635 76.157 C 37.156 76.172 38.909 76.855 39.871 77.954 C 40.206 78.338 40.521 78.837 40.781 79.398 C 41.34 79.754 41.857 80.193 42.249 80.631 C 42.85 81.302 43.262 82.15 43.493 82.964 C 43.72 83.758 43.869 84.539 43.649 85.451 C 43.374 86.591 42.756 88.033 41.55 89.261 C 39.951 90.889 36.101 92.981 34.087 93.925 C 32.656 94.596 31.697 94.835 30.511 95.014 C 29.711 95.134 28.912 95.237 28.117 95.183 C 26.922 95.345 25.734 95.292 24.597 95.153 C 22.816 94.934 20.899 94.164 19.463 93.356 C 18.17 92.628 17.315 92.034 16.254 90.661 C 14.782 88.753 12.692 85.685 11.891 82.19 C 10.906 77.898 11.308 69.498 11.891 66.274 C 12.219 64.458 12.536 63.675 13.431 62.809 C 14.397 61.873 16.175 61.046 17.666 61.012 Z M 126.506 57.418 C 128.086 57.383 130.379 58.017 131.511 59.215 C 132.704 60.477 132.954 62.411 133.308 64.991 C 133.824 68.741 133.966 76.425 133.308 80.393 C 132.818 83.351 131.7 85.763 130.741 87.324 C 130.065 88.424 129.412 88.894 128.559 89.506 C 128.245 89.732 127.925 89.951 127.588 90.154 C 127.061 90.808 126.52 91.387 125.992 91.816 C 124.499 93.03 122.843 93.481 121.115 93.869 C 119.341 94.268 117.349 94.442 115.468 94.126 C 114.184 93.911 112.762 93.447 111.474 92.855 C 110.993 92.81 110.535 92.752 110.118 92.681 C 108.033 92.326 106.122 91.485 104.52 90.66 C 103.093 89.925 101.722 89.046 100.867 88.095 C 100.137 87.284 99.724 86.371 99.467 85.451 C 99.414 85.262 99.365 85.072 99.324 84.881 C 99.081 84.617 98.867 84.325 98.654 83.987 C 97.881 82.758 97.498 80.761 97.627 79.366 C 97.746 78.089 98.273 76.767 99.168 75.901 C 100.134 74.965 101.582 74.446 103.403 74.104 C 105.837 73.646 110.785 73.929 112.901 74.104 C 114.188 74.21 115.181 75.051 115.596 74.617 C 116.08 74.111 114.902 71.891 115.083 70.638 C 115.26 69.413 115.732 68.002 116.623 67.173 C 117.568 66.294 119.79 66.745 120.73 65.633 C 121.838 64.323 121.158 60.579 122.27 59.215 C 123.233 58.035 125.015 57.452 126.506 57.418 Z" style="fill: rgb(5, 14, 26); fill-opacity: 1; fill-rule: nonzero; stroke: rgb(5, 14, 26); stroke-dasharray: none; stroke-dashoffset: 0px; stroke-linecap: butt; stroke-linejoin: miter; stroke-miterlimit: 4; stroke-opacity: 1; stroke-width: 0px; paint-order: normal; vector-effect: none; opacity: 1; mix-blend-mode: normal; isolation: auto;"/></svg>