<?xml version="1.0" encoding="utf-8"?>
<svg xmlns="http://www.w3.org/2000/svg" viewBox="0 0 120 120" width="120px" height="120px" xmlns:bx="https://boxy-svg.com"><defs><bx:export><bx:file format="svg"/></bx:export></defs><path fill="rgb(255,0,0)" stroke="rgb(255,0,0)" stroke-width="0" opacity="0.9686274509803922" d="M 92.549 19.004 C 94.662 18.098 95.291 18.624 96.513 19.004 C 97.758 19.391 99.183 20.202 99.937 21.347 C 100.759 22.595 101.27 24.887 101.018 26.392 C 100.781 27.81 99.84 28.971 98.676 30.176 C 97.26 31.64 94.011 33.167 92.729 34.32 C 91.884 35.08 92.278 35.229 91.108 36.302 C 88.105 39.054 76.914 45.283 69.666 52.699 C 60.75 61.821 47.103 83.865 42.458 88.916 C 40.636 90.897 39.846 90.816 39.034 91.619 C 38.434 92.213 38.102 92.863 37.773 93.24 C 37.552 93.494 37.596 93.428 37.233 93.781 C 36.197 94.785 31.059 99.484 29.665 100.988 C 28.937 101.773 28.733 102.233 28.404 102.61 C 28.182 102.864 28.128 102.933 27.863 103.15 C 27.459 103.483 26.745 103.701 26.061 104.412 C 25 105.515 23.888 108.748 22.277 109.817 C 20.778 110.812 18.397 111.191 16.872 110.898 C 15.51 110.638 14.203 109.727 13.448 108.556 C 12.603 107.244 12.015 104.999 12.367 103.15 C 12.767 101.049 14.415 99.057 16.331 96.664 C 18.848 93.52 25.406 87.33 26.962 86.033 C 27.499 85.585 27.404 85.884 27.863 85.492 C 28.906 84.602 32.277 80.605 33.449 79.546 C 34.052 79.001 33.887 79.526 34.71 78.645 C 37.89 75.242 52.248 52.584 62.278 42.428 C 71.637 32.952 87.316 21.25 92.549 19.004 Z" style="fill: rgb(5, 14, 26); fill-opacity: 1; fill-rule: nonzero; stroke: rgb(5, 14, 26); stroke-dasharray: none; stroke-dashoffset: 0px; stroke-linecap: butt; stroke-linejoin: miter; stroke-miterlimit: 4; stroke-opacity: 1; stroke-width: 0px; paint-order: normal; vector-effect: none; opacity: 1; mix-blend-mode: normal; isolation: auto;"/></svg>