<?xml version="1.0" encoding="utf-8"?>
<svg xmlns="http://www.w3.org/2000/svg" viewBox="0 0 80 80" width="80px" height="80px" xmlns:bx="https://boxy-svg.com"><defs><bx:export><bx:file format="svg"/></bx:export></defs><path fill="rgb(255,0,0)" stroke="rgb(255,0,0)" stroke-width="0" opacity="0.9764705882352941" d="M 43.857 16.813 C 44.221 16.8 44.602 16.788 44.997 16.777 C 44.942 16.376 44.896 15.997 44.852 15.665 C 44.697 14.492 45.953 13.214 44.852 12.526 C 42.332 10.952 24.901 13.467 19.976 13.445 C 17.387 13.433 15.938 12.052 15 13.139 C 13.688 14.661 14.954 21.208 15.307 24.697 C 15.62 27.79 16.595 30.486 16.837 33.117 C 17.058 35.507 16.918 37.672 16.837 39.852 C 16.76 41.954 16.355 43.728 16.378 45.976 C 16.404 48.539 15.373 53.037 17.144 54.472 C 18.58 55.637 22.734 54.604 25.975 54.07 C 25.865 52.349 25.773 50.687 25.716 49.191 C 25.417 41.369 25.091 29.203 25.41 24.697 C 25.566 22.503 25.8 21.664 26.176 20.717 C 26.445 20.037 26.613 19.685 27.171 19.262 C 27.928 18.689 28.957 18.252 30.692 17.884 C 33.553 17.278 38.932 16.985 43.857 16.813 Z M 63.299 16.966 C 65.198 17.177 65.81 17.406 66.82 17.884 C 67.75 18.325 68.61 18.664 69.193 19.645 C 69.98 20.969 70.152 22.584 70.418 25.768 C 70.915 31.722 70.603 47.455 70.418 55.62 C 70.274 61.949 69.909 68.974 69.652 71.388 C 69.55 72.345 69.62 72.38 69.346 72.919 C 68.993 73.612 68.277 74.596 67.433 75.139 C 66.507 75.733 65.181 76.025 63.912 76.21 C 62.543 76.41 61.072 76.318 59.472 76.21 C 57.683 76.09 56.245 75.598 53.655 75.445 C 49.794 75.217 41.818 75.362 37.734 75.445 C 34.811 75.504 32.611 76.137 30.845 75.751 C 29.484 75.454 28.351 74.781 27.707 73.991 C 27.131 73.285 26.995 72.015 26.941 71.388 C 26.906 70.98 27.084 71.158 27.094 70.47 C 27.111 69.363 26.881 66.343 26.6 62.685 C 22.387 62.993 15.414 63.256 12.934 62.739 C 11.206 62.379 10.438 61.713 9.796 60.978 C 9.261 60.366 9.249 60.1 9.03 58.835 C 8.548 56.048 8.131 46.897 8.112 42.455 C 8.096 39.051 8.733 36.908 8.571 34.035 C 8.402 31.046 7.277 27.622 7.04 24.85 C 6.833 22.437 7.182 20.708 7.04 18.267 C 6.875 15.435 5.749 10.876 5.968 8.776 C 6.104 7.475 6.406 6.745 7.04 6.097 C 7.692 5.431 8.602 5.111 9.872 4.872 C 11.669 4.534 14.771 4.821 17.22 4.872 C 19.67 4.923 21.726 5.234 24.568 5.178 C 28.058 5.11 32.731 4.413 36.815 4.26 C 40.895 4.107 46.453 3.666 49.062 4.26 C 50.661 4.624 51.557 5.266 52.2 6.02 C 52.749 6.664 52.761 7.151 52.966 8.317 C 53.254 9.96 53.526 14.157 53.58 16.658 C 57.542 16.659 61.316 16.745 63.299 16.966 Z M 44.393 25.08 C 40.258 25.257 35.635 23.744 33.677 26.151 C 31.253 29.132 33.647 37.98 33.83 44.521 C 34.03 51.676 33.339 65.394 34.902 67.484 C 35.557 68.362 36.06 67.247 37.504 67.178 C 40.532 67.033 49.888 66.973 54.191 67.178 C 57.296 67.326 60.12 69.288 61.539 67.944 C 63.258 66.314 62.044 61.222 62.151 56.003 C 62.307 48.385 66.097 29.826 61.998 25.233 C 58.719 21.559 49.427 24.864 44.393 25.08 Z M 47.072 32.887 C 47.756 32.793 48.331 32.926 48.909 33.193 C 49.536 33.483 50.208 33.816 50.67 34.647 C 51.353 35.878 51.565 38.051 51.894 40.618 C 51.909 40.732 51.923 40.851 51.938 40.974 C 54.075 40.853 56 40.37 57.482 40.694 C 58.816 40.986 59.977 41.682 60.62 42.455 C 61.182 43.13 61.339 44.194 61.386 44.904 C 61.424 45.486 61.336 45.917 61.079 46.435 C 60.769 47.061 60.1 47.928 59.472 48.349 C 58.888 48.74 58.582 48.808 57.482 48.961 C 56.493 49.099 54.648 49.196 52.622 49.251 C 52.767 51.684 52.85 53.86 52.813 54.855 C 52.777 55.788 52.764 55.867 52.507 56.386 C 52.196 57.012 51.573 57.878 50.899 58.299 C 50.222 58.722 49.309 59.039 48.45 58.912 C 47.46 58.765 45.954 57.886 45.312 57.151 C 44.777 56.539 44.784 56.306 44.546 55.008 C 44.351 53.948 44.076 51.75 43.818 49.212 C 42.055 49.15 40.521 49.047 39.418 48.655 C 38.368 48.282 37.696 47.751 37.198 47.047 C 36.702 46.347 36.39 45.314 36.433 44.445 C 36.477 43.554 36.87 42.414 37.504 41.766 C 38.156 41.1 38.929 40.76 40.336 40.541 C 41.043 40.431 42.032 40.431 43.152 40.484 C 43.086 38.901 43.081 37.582 43.168 36.791 C 43.339 35.248 43.606 34.76 44.24 34.112 C 44.892 33.445 46.235 33.002 47.072 32.887 Z" style="fill: rgb(5, 14, 26); fill-opacity: 1; fill-rule: nonzero; stroke: rgb(5, 14, 26); stroke-dasharray: none; stroke-dashoffset: 0px; stroke-linecap: butt; stroke-linejoin: miter; stroke-miterlimit: 4; stroke-opacity: 1; stroke-width: 0px; paint-order: normal; vector-effect: none; opacity: 1; mix-blend-mode: normal; isolation: auto;"/></svg>