<?xml version="1.0" encoding="utf-8"?>
<svg xmlns="http://www.w3.org/2000/svg" viewBox="0 0 120 120" width="120px" height="120px" xmlns:bx="https://boxy-svg.com"><defs><bx:export><bx:file format="svg"/></bx:export></defs><path fill="rgb(255,0,0)" stroke="rgb(255,0,0)" stroke-width="0" opacity="0.9882352941176471" d="M 51.628 94.956 C 51.945 94.936 52.273 94.92 52.611 94.91 C 52.51 91.878 52.496 88.285 52.605 85.193 C 49.664 84.465 45.871 83.235 43.758 82.366 C 41.801 81.561 40.805 80.951 39.387 79.918 C 38.038 78.936 36.556 77.666 35.386 76.348 C 34.109 76.87 32.82 77.344 31.867 77.644 C 30.128 78.192 28.968 78.366 27.32 78.519 C 25.5 78.688 23.251 78.769 21.375 78.519 C 19.588 78.28 18.028 77.929 16.303 77.12 C 14.337 76.196 11.705 74.601 10.27 73.01 C 9.007 71.608 8.285 69.919 7.822 68.289 C 7.374 66.71 7.248 65.213 7.472 63.392 C 7.741 61.214 8.511 58.42 9.746 56.048 C 11.082 53.481 13.601 50.253 15.429 48.615 C 16.808 47.38 17.703 47.001 19.451 46.342 C 21.615 45.526 25.677 44.565 28.066 44.291 C 28.079 44.183 28.092 44.08 28.107 43.981 C 28.434 41.791 29.111 40.821 30.118 39.872 C 31.088 38.958 31.582 38.673 33.966 38.298 C 39.541 37.421 61.986 37.92 68.765 38.123 C 72.265 38.228 73.465 38.716 75.41 38.648 C 77.062 38.59 78.271 38.013 79.782 37.948 C 81.356 37.881 83.384 37.846 84.678 38.298 C 85.759 38.676 86.473 39.128 87.214 40.134 C 87.86 41.011 88.498 42.395 88.991 43.887 C 89.946 43.924 90.919 43.995 91.848 44.069 C 94.346 44.268 97.184 44.586 99.542 45.293 C 101.766 45.96 103.966 47.088 105.663 48.091 C 107.107 48.944 108.224 49.481 109.248 50.801 C 110.49 52.403 111.629 54.995 112.221 57.446 C 112.858 60.087 113.084 63.723 112.745 66.19 C 112.462 68.251 111.638 69.997 110.822 71.436 C 110.11 72.692 109.508 73.509 108.286 74.496 C 106.703 75.776 103.425 77.468 101.641 78.169 C 100.374 78.666 99.773 78.737 98.493 78.868 C 96.839 79.038 94.845 79.115 92.373 78.868 C 89.266 78.558 83.829 77.83 80.762 76.763 C 80.566 76.938 80.356 77.115 80.132 77.294 C 77.68 79.251 73.011 82.009 69.464 83.415 C 68.26 83.892 66.97 84.282 65.689 84.601 C 65.772 88.232 65.716 92.735 65.598 96.184 C 67.629 96.609 69.606 97.138 71.213 97.754 C 73.459 98.616 75.081 99.641 76.809 100.902 C 78.552 102.173 80.586 103.728 81.618 105.361 C 82.538 106.818 83.154 108.575 83.017 110.083 C 82.881 111.576 81.723 113.449 80.831 114.367 C 80.119 115.1 79.353 115.349 78.383 115.591 C 77.251 115.875 75.941 115.896 74.361 115.766 C 72.356 115.602 70.053 114.648 67.191 114.367 C 63.574 114.012 56.706 113.627 54.076 114.192 C 52.578 114.515 52.612 115.421 51.278 115.766 C 49.302 116.277 44.666 116.242 42.709 116.116 C 41.481 116.037 40.921 115.96 40.086 115.591 C 39.196 115.199 38.189 114.674 37.55 113.755 C 36.795 112.669 36.226 110.592 36.151 109.209 C 36.086 108 36.306 107.229 36.851 105.886 C 37.634 103.954 39.532 100.27 41.135 98.629 C 42.421 97.312 43.707 96.784 45.332 96.181 C 47.148 95.507 49.217 95.112 51.628 94.956 Z M 29.681 63.742 C 29.352 62.022 28.981 59.499 28.667 56.79 C 26.592 57.083 24.264 57.466 23.036 58.408 C 21.155 59.851 19.375 63.502 19.713 64.791 C 19.969 65.764 21.822 66.031 22.949 66.278 C 24.067 66.523 24.907 66.56 26.446 66.278 C 27.316 66.118 28.602 65.66 29.979 65.133 C 29.875 64.696 29.775 64.234 29.681 63.742 Z M 97.094 66.627 C 98.638 66.356 99.818 65.528 100.329 64.791 C 100.723 64.224 100.529 63.645 100.504 62.868 C 100.472 61.849 100.761 60.08 99.98 59.108 C 99.053 57.956 96.925 57.361 94.646 56.834 C 93.366 56.538 91.49 56.473 89.574 56.438 C 89.05 59.219 88.075 62.743 87.167 65.587 C 90.077 66.249 94.811 67.029 97.094 66.627 Z M 77.858 35.151 C 76.298 35.007 74.528 34.149 72.437 33.927 C 69.931 33.66 66.57 33.778 63.694 33.927 C 60.858 34.073 58.364 34.622 55.3 34.801 C 51.848 35.002 47.163 34.676 43.933 34.976 C 41.284 35.222 39.054 36.463 37.113 36.2 C 35.545 35.988 33.991 35.231 33.021 34.226 C 32.679 33.981 32.374 33.729 32.13 33.489 C 31.327 32.703 31.075 31.767 30.731 30.692 C 30.341 29.475 30.287 28.595 30.031 26.495 C 29.577 22.763 27.917 12.336 28.457 8.658 C 28.77 6.527 29.46 5.498 30.468 4.548 C 31.438 3.634 33.186 3.13 34.315 2.974 C 35.233 2.848 35.97 2.998 36.764 3.324 C 37.636 3.683 38.418 4.191 39.299 5.16 C 40.539 6.523 41.682 9.598 43.234 11.368 C 43.813 12.028 44.472 12.569 45.156 13.081 C 46.537 9.668 48.329 5.377 50.054 3.674 C 51.284 2.458 52.772 2.256 53.901 2.1 C 54.818 1.973 55.556 2.123 56.349 2.45 C 57.221 2.808 58.052 3.222 58.885 4.286 C 60.137 5.886 61.16 9.622 62.557 12.155 C 63.046 13.043 63.65 13.943 64.271 14.831 C 65.22 14.072 66.179 13.298 66.929 12.505 C 68.284 11.072 69.858 8.614 70.339 8.046 C 70.501 7.854 70.442 7.969 70.601 7.783 C 71.05 7.258 72.455 4.773 73.662 3.849 C 74.783 2.989 76.307 2.449 77.509 2.275 C 78.562 2.122 79.554 2.253 80.482 2.625 C 81.455 3.014 82.479 3.632 83.192 4.636 C 84.051 5.843 84.58 7.446 84.941 9.707 C 85.459 12.957 84.87 19.46 85.116 22.997 C 85.301 25.659 86.29 27.599 85.99 29.467 C 85.724 31.121 84.914 32.805 83.804 33.752 C 82.935 34.492 81.583 35.017 80.346 35.139 C 79.591 35.241 78.78 35.236 77.858 35.151 Z" style="fill: rgb(5, 14, 26); fill-opacity: 1; fill-rule: nonzero; stroke: rgb(5, 14, 26); stroke-dasharray: none; stroke-dashoffset: 0px; stroke-linecap: butt; stroke-linejoin: miter; stroke-miterlimit: 4; stroke-opacity: 1; stroke-width: 0px; paint-order: normal; vector-effect: none; opacity: 1; mix-blend-mode: normal; isolation: auto;"/></svg>