<?xml version="1.0" encoding="utf-8"?>
<svg xmlns="http://www.w3.org/2000/svg" viewBox="0 0 80 80" width="80px" height="80px" xmlns:bx="https://boxy-svg.com"><defs><bx:export><bx:file format="svg"/></bx:export></defs><path fill="rgb(255,0,0)" stroke="rgb(255,0,0)" stroke-width="0" opacity="0.996078431372549" d="M 32.894 3.977 C 38.25 3.634 54.723 4.251 58.971 4.165 C 60.761 4.129 60.987 3.754 61.972 3.977 C 63.022 4.215 64.298 4.882 65.068 5.666 C 65.815 6.427 66.275 7.241 66.568 8.573 C 66.986 10.467 66.586 12.995 66.568 16.453 C 66.543 21.535 66.168 31.61 66.381 37.088 C 66.54 41.186 67.137 42.814 67.319 47.031 C 67.572 52.907 68.389 65.765 67.319 69.918 C 66.763 72.075 65.692 72.817 64.786 73.576 C 64.074 74.173 63.942 74.295 62.535 74.514 C 59.206 75.035 48.432 74.579 41.524 74.514 C 34.741 74.451 26.354 74.52 21.451 74.139 C 18.129 73.881 15.795 73.755 13.947 73.014 C 12.533 72.446 11.527 71.49 10.852 70.669 C 10.307 70.007 10.126 69.816 9.914 68.605 C 9.466 66.052 9.79 59.912 9.914 53.972 C 10.076 46.173 11.093 33.126 11.039 25.082 C 10.996 18.708 9.589 12.008 10.101 8.949 C 10.372 7.333 10.855 6.802 11.602 6.041 C 12.372 5.257 13.59 4.634 14.697 4.352 C 15.809 4.069 17.363 4.203 18.262 4.352 C 18.915 4.461 18.97 4.794 19.762 4.915 C 21.217 5.138 24.809 5.093 27.079 4.915 C 29.16 4.752 29.941 4.167 32.894 3.977 Z M 35.427 15.984 C 32.774 16.162 31.833 16.757 29.799 16.922 C 27.553 17.103 23.52 15.844 22.483 16.922 C 21.56 17.881 22.97 19.254 23.045 22.362 C 23.213 29.21 19.679 57.673 21.92 61.758 C 22.815 63.39 23.587 62.182 25.859 62.321 C 30.92 62.628 50.896 66.544 55.312 62.508 C 58.985 59.152 55.421 47.915 55.125 43.936 C 54.953 41.63 54.538 41.685 54.374 39.246 C 54.067 34.656 57.926 19.901 54.374 16.171 C 51.092 12.724 39.714 15.695 35.427 15.984 Z M 37.457 24.674 C 38.363 24.653 39.632 24.854 40.365 25.424 C 41.108 26.002 41.542 26.652 41.866 28.144 C 42.065 29.061 42.148 30.545 42.164 32.247 C 43.951 32.333 45.44 32.438 46.274 32.553 C 47.655 32.743 48.006 32.698 48.619 33.303 C 49.374 34.048 50.228 35.969 50.12 37.149 C 50.017 38.274 48.83 39.661 48.15 40.244 C 47.662 40.663 47.62 40.672 46.65 40.807 C 45.82 40.922 44.039 40.987 41.92 41.014 C 41.9 41.45 41.881 41.853 41.866 42.214 C 41.756 44.773 41.835 46.764 41.303 48.217 C 40.903 49.308 40.293 50.078 39.521 50.562 C 38.757 51.041 37.624 51.318 36.707 51.125 C 35.713 50.916 34.407 50.259 33.799 49.155 C 33.027 47.752 33.308 45.479 33.236 42.777 C 33.222 42.244 33.206 41.624 33.192 40.944 C 31.914 40.908 30.839 40.861 30.141 40.807 C 28.533 40.683 28.01 40.649 27.139 40.244 C 26.299 39.853 25.436 39.223 24.982 38.462 C 24.523 37.694 24.276 36.557 24.419 35.648 C 24.567 34.71 25.232 33.504 25.92 32.928 C 26.546 32.403 26.884 32.332 28.265 32.178 C 29.226 32.07 31.06 32.025 33.217 32.028 C 33.286 30.413 33.408 29.021 33.611 28.144 C 33.96 26.637 34.425 26 35.112 25.424 C 35.739 24.899 36.621 24.693 37.457 24.674 Z" style="fill: rgb(5, 14, 26); fill-opacity: 1; fill-rule: nonzero; stroke: rgb(5, 14, 26); stroke-dasharray: none; stroke-dashoffset: 0px; stroke-linecap: butt; stroke-linejoin: miter; stroke-miterlimit: 4; stroke-opacity: 1; stroke-width: 0px; paint-order: normal; vector-effect: none; opacity: 1; mix-blend-mode: normal; isolation: auto;"/></svg>