<?xml version="1.0" encoding="utf-8"?>
<svg xmlns="http://www.w3.org/2000/svg" viewBox="0 0 80 80" width="80px" height="80px" xmlns:bx="https://boxy-svg.com"><defs><bx:export><bx:file format="svg"/></bx:export></defs><path fill="rgb(255,0,0)" stroke="rgb(255,0,0)" stroke-width="0" opacity="0.9921568627450981" d="M 13.495 6.075 C 14.085 5.601 14.827 5.264 15.499 5.025 C 16.132 4.799 16.668 4.713 17.409 4.643 C 18.306 4.558 19.416 4.603 20.559 4.643 C 21.842 4.688 23.195 4.891 24.76 4.929 C 26.575 4.974 28.852 4.817 30.869 4.834 C 32.861 4.85 35.061 5.233 36.788 5.025 C 38.276 4.845 38.753 4.066 40.702 3.879 C 44.051 3.558 53.341 4.241 56.454 4.643 C 58.107 4.856 58.689 4.965 59.604 5.407 C 60.474 5.826 61.271 6.421 61.848 7.173 C 62.445 7.952 62.818 8.747 63.089 10.037 C 63.474 11.872 63.579 15.842 63.375 17.578 C 63.33 17.965 63.272 18.284 63.2 18.566 C 63.193 18.782 63.185 18.989 63.184 19.18 C 63.179 19.865 63.085 20.272 63.089 20.994 C 63.094 21.916 63.266 23.272 63.28 24.335 C 63.292 25.334 63.107 25.624 63.184 27.199 C 63.345 30.496 64.876 41.695 65.094 45.242 C 65.207 47.086 65.145 47.207 65.094 48.774 C 65.017 51.117 64.532 54.862 64.521 58.416 C 64.508 62.488 65.435 69.564 65.189 71.972 C 65.072 73.117 64.884 73.34 64.521 73.977 C 64.128 74.666 63.474 75.442 62.85 75.934 C 62.271 76.391 61.654 76.695 60.941 76.889 C 60.632 76.973 60.286 77.035 59.929 77.073 C 59.917 77.075 59.904 77.078 59.891 77.08 C 57.751 77.469 54.011 77.346 50.44 77.271 C 46.197 77.181 40.157 76.439 35.929 76.412 C 32.382 76.388 29.342 76.559 26.573 76.889 C 24.179 77.175 21.554 77.979 20.177 78.13 C 19.388 78.216 19.132 78.222 18.554 78.13 C 17.901 78.025 17.103 77.822 16.454 77.462 C 15.778 77.086 15.081 76.494 14.592 75.886 C 14.52 75.796 14.45 75.705 14.383 75.611 C 14.338 75.599 14.296 75.587 14.258 75.574 C 13.643 75.37 13.649 75.12 13.351 74.667 C 12.927 74.02 12.361 73.074 12.11 71.803 C 11.761 70.031 11.987 67.111 12.015 64.643 C 12.045 62.059 12.305 59.511 12.301 56.624 C 12.297 53.419 11.847 49.175 11.919 46.218 C 11.978 43.81 12.377 42.335 12.492 40.013 C 12.627 37.303 12.654 33.546 12.588 30.848 C 12.531 28.553 12.442 26.779 12.206 24.738 C 11.967 22.674 11.341 20.81 11.156 18.533 C 10.947 15.966 10.909 11.81 11.156 10.037 C 11.297 9.02 11.469 8.66 11.824 8.032 C 12.174 7.411 12.637 6.767 13.26 6.276 C 13.337 6.205 13.416 6.138 13.495 6.075 Z" style="fill: rgb(5, 14, 26); fill-opacity: 1; fill-rule: nonzero; stroke: rgb(5, 14, 26); stroke-dasharray: none; stroke-dashoffset: 0px; stroke-linecap: butt; stroke-linejoin: miter; stroke-miterlimit: 4; stroke-opacity: 1; stroke-width: 0px; paint-order: normal; vector-effect: none; opacity: 1; mix-blend-mode: normal; isolation: auto;"/><path fill="rgb(255,0,0)" stroke="rgb(255,0,0)" stroke-width="0" opacity="0.9764705882352941" d="M 47.667 36.372 C 49.472 36.695 50.71 36.883 51.548 37.693 C 52.328 38.447 52.728 39.897 52.705 40.914 C 52.683 41.873 52.112 43.014 51.548 43.639 C 51.053 44.188 50.338 44.436 49.649 44.63 C 48.938 44.83 48.512 44.813 47.336 44.795 C 46.085 44.777 43.929 44.495 41.645 44.265 C 41.948 47.833 42.157 51.117 41.968 52.641 C 41.768 54.256 41.502 54.723 40.812 55.367 C 40.081 56.049 38.608 56.546 37.591 56.523 C 36.632 56.501 35.52 55.944 34.866 55.367 C 34.268 54.839 33.982 54.182 33.709 53.302 C 33.362 52.182 33.372 51.249 33.214 49.007 C 33.138 47.931 33.01 46.258 32.871 44.298 C 30.149 44.655 27.41 45.151 25.864 44.961 C 24.492 44.791 23.782 44.495 23.138 43.804 C 22.456 43.073 21.959 41.6 21.982 40.583 C 22.004 39.624 22.383 38.543 23.138 37.858 C 24.029 37.051 25.609 36.725 27.35 36.372 C 28.759 36.085 30.492 35.909 32.354 35.811 C 32.189 32.2 32.139 28.916 32.388 27.37 C 32.666 25.643 33.093 25.156 33.792 24.479 C 34.461 23.831 35.495 23.348 36.435 23.323 C 37.441 23.295 38.926 23.749 39.656 24.479 C 40.385 25.208 40.632 26.502 40.812 27.7 C 41.012 29.032 40.598 29.891 40.647 32.16 C 40.666 33.042 40.755 34.31 40.88 35.793 C 43.46 35.893 46.045 36.081 47.667 36.372 Z" style="fill: rgb(242, 242, 218); fill-opacity: 1; fill-rule: nonzero; stroke: rgb(5, 14, 26); stroke-dasharray: none; stroke-dashoffset: 0px; stroke-linecap: butt; stroke-linejoin: miter; stroke-miterlimit: 4; stroke-opacity: 1; stroke-width: 0px; paint-order: normal; vector-effect: none; opacity: 1; mix-blend-mode: normal; isolation: auto;"/></svg>