<?xml version="1.0" encoding="utf-8"?>
<svg xmlns="http://www.w3.org/2000/svg" viewBox="0 0 80 80" width="80px" height="80px" xmlns:bx="https://boxy-svg.com"><defs><bx:export><bx:file format="svg"/></bx:export></defs><path fill="rgb(255,0,0)" stroke="rgb(255,0,0)" stroke-width="0" opacity="0.9725490196078431" d="M 39.551 56.504 C 40.928 56.296 42.665 56.284 44.087 56.771 C 45.563 57.276 47.305 58.512 48.222 59.572 C 48.992 60.462 49.31 61.298 49.557 62.507 C 49.864 64.016 50.144 66.274 49.557 68.111 C 48.903 70.151 47.357 72.929 45.421 74.114 C 43.431 75.332 39.947 75.636 37.683 75.181 C 35.591 74.761 33.3 73.439 32.213 71.846 C 31.138 70.271 30.956 67.555 31.146 65.709 C 31.318 64.032 32.171 62.5 33.013 61.173 C 33.83 59.888 34.94 58.622 36.082 57.838 C 37.137 57.114 38.28 56.696 39.551 56.504 Z M 32.613 5.007 C 34.726 4.459 36.457 4.671 38.75 5.007 C 41.506 5.411 45.535 6.726 48.089 7.675 C 50.139 8.437 51.656 9.059 53.159 10.077 C 54.626 11.07 56.001 12.18 57.028 13.679 C 58.132 15.291 58.998 17.265 59.429 19.549 C 59.932 22.215 60.291 26.024 59.429 28.888 C 58.564 31.763 56.394 34.657 54.226 36.759 C 52.106 38.814 47.774 39.347 46.621 41.428 C 45.579 43.311 47.414 46.447 46.888 48.366 C 46.427 50.047 45.314 51.686 44.087 52.501 C 42.926 53.272 41.19 53.561 39.817 53.302 C 38.383 53.031 36.594 51.874 35.682 50.767 C 34.84 49.745 34.606 48.664 34.348 47.032 C 33.987 44.759 33.476 40.698 34.348 37.96 C 35.216 35.23 37.411 32.625 39.551 30.622 C 41.683 28.625 46.214 27.864 47.155 25.953 C 47.933 24.372 47.583 21.867 46.221 20.483 C 44.388 18.62 37.432 16.857 35.015 17.281 C 33.414 17.561 32.734 19.046 31.946 20.082 C 31.204 21.059 30.668 22.011 30.345 23.284 C 29.966 24.779 30.609 27.132 30.078 28.621 C 29.597 29.971 28.665 31.266 27.544 31.956 C 26.406 32.657 24.647 33.015 23.274 32.757 C 21.84 32.486 19.999 31.166 19.139 30.222 C 18.465 29.482 18.286 28.954 18.071 27.82 C 17.746 26.099 17.565 22.685 18.071 20.349 C 18.566 18.068 19.799 15.862 21.006 13.946 C 22.172 12.097 23.361 10.442 25.142 9.009 C 27.131 7.41 30.21 5.631 32.613 5.007 Z" style="fill: rgb(5, 14, 26); fill-opacity: 1; fill-rule: nonzero; stroke: rgb(5, 14, 26); stroke-dasharray: none; stroke-dashoffset: 0px; stroke-linecap: butt; stroke-linejoin: miter; stroke-miterlimit: 4; stroke-opacity: 1; stroke-width: 0px; paint-order: normal; vector-effect: none; opacity: 1; mix-blend-mode: normal; isolation: auto;"/></svg>