<?xml version="1.0" encoding="utf-8"?>
<svg xmlns="http://www.w3.org/2000/svg" viewBox="0 0 80 80" width="80px" height="80px" xmlns:bx="https://boxy-svg.com"><defs><bx:export><bx:file format="svg"/></bx:export></defs><path fill="rgb(255,0,0)" stroke="rgb(255,0,0)" stroke-width="0" opacity="0.9803921568627451" d="M 68.301 35.503 C 68.084 39.864 67.019 62.233 65.797 66.986 C 65.296 68.937 64.946 69.24 64.098 69.938 C 63.271 70.617 62.523 70.853 60.887 71.13 C 58.353 72.19 54.198 73.175 51.785 73.551 C 49.514 73.906 47.431 73.985 45.914 73.584 C 43.294 73.783 41.384 73.635 38.04 73.551 C 33.117 73.429 22.794 73.791 18.832 72.67 C 17.621 72.327 16.682 71.877 15.948 71.365 C 15.013 71.24 14.062 70.77 13.384 69.848 C 12.461 68.593 12.014 66.892 11.596 63.766 C 10.842 58.141 10.241 40.384 11.059 36.218 C 11.159 35.71 11.273 35.326 11.403 35.023 C 11.298 34.538 11.232 34.015 11.209 33.521 C 8.894 32.608 7.017 31.384 5.636 30.091 C 4.396 28.93 3.518 27.609 3.065 26.234 C 2.628 24.909 2.434 23.328 2.881 22.01 C 3.363 20.59 4.27 19.273 6.095 18.061 C 8.848 16.233 15.2 14.117 19.502 13.286 C 21.605 12.88 23.711 12.911 25.752 12.97 C 25.837 12.801 25.927 12.631 26.021 12.46 C 26.871 10.908 27.89 9.152 29.603 7.961 C 31.63 6.549 35.383 5.47 37.867 5.022 C 39.956 4.646 42.123 4.824 43.56 5.022 C 44.594 5.165 45.023 5.262 45.948 5.757 C 47.252 6.454 49.371 7.829 50.631 9.338 C 51.324 10.168 51.947 11.166 52.466 12.216 C 53.624 12.553 54.793 12.893 56.048 13.103 C 58.94 13.586 62.937 13.327 65.231 14.021 C 66.944 14.539 67.826 15.254 69.088 16.225 C 70.495 17.308 72.272 19.003 73.22 20.357 C 74.002 21.475 74.444 22.504 74.689 23.663 C 74.936 24.829 75.076 26.149 74.689 27.336 C 74.266 28.636 73.291 30.034 72.026 31.101 C 71.037 31.934 69.771 32.679 68.323 33.282 C 68.449 33.912 68.374 34.044 68.301 35.503 Z M 23.223 40.243 C 22.44 40.73 21.574 43.5 21.255 45.431 C 20.902 47.569 20.807 50.58 21.434 52.586 C 21.994 54.38 23.702 57.347 24.475 57.058 C 25.464 56.689 26.016 49.756 26.264 47.22 C 26.441 45.411 26.586 44.052 26.264 42.926 C 26.001 42.008 25.395 41.222 24.833 40.78 C 24.357 40.406 23.71 39.94 23.223 40.243 Z M 37.891 42.032 C 37.235 41.869 36.593 44.127 36.281 45.789 C 35.848 48.098 35.968 52.634 36.281 55.09 C 36.519 56.951 36.718 59.194 37.534 59.563 C 38.276 59.898 40.35 58.055 40.753 57.774 C 40.892 57.677 40.836 57.679 40.932 57.595 C 41.108 57.44 41.654 57.083 41.827 56.879 C 41.94 56.745 41.979 56.77 42.006 56.522 C 42.078 55.836 41.959 53.492 41.469 51.513 C 40.821 48.895 38.836 42.266 37.891 42.032 Z M 53.454 42.569 C 52.904 43.018 52.133 46.573 51.844 49.008 C 51.509 51.838 50.95 57.667 51.844 58.668 C 52.37 59.257 53.736 58.484 54.349 58.131 C 54.862 57.836 55.191 57.626 55.422 56.879 C 55.841 55.522 55.641 51.907 55.422 49.545 C 55.21 47.262 54.687 43.782 54.17 42.926 C 53.949 42.562 53.69 42.376 53.454 42.569 Z M 41.632 19.347 C 39.138 19.588 35.683 20.717 32.662 20.997 C 32.657 21.671 32.617 22.293 32.449 22.745 C 32.113 23.65 31.61 24.257 30.888 24.673 C 30.092 25.132 28.73 25.422 27.766 25.224 C 26.801 25.025 25.67 24.514 25.103 23.479 C 24.774 22.879 24.586 21.922 24.496 20.873 C 24.151 20.902 23.802 20.943 23.45 21 C 19.862 21.58 12.253 23.617 12.064 24.673 C 11.913 25.515 16.329 26.355 18.492 26.877 C 20.615 27.389 22.736 27.641 24.919 27.795 C 27.143 27.952 29.303 27.955 31.715 27.795 C 34.355 27.62 38.233 26.712 40.163 26.693 C 41.362 26.681 41.423 26.981 42.734 27.06 C 45.132 27.205 50.813 27.267 54.487 27.06 C 57.878 26.869 62.122 26.443 64.037 25.958 C 65.103 25.689 66.061 25.544 66.058 25.04 C 66.053 24.331 63.768 22.402 62.017 21.734 C 59.949 20.945 56.702 21.585 54.12 21.183 C 54.113 21.182 54.106 21.181 54.099 21.18 C 53.821 22.319 53.168 23.232 52.375 23.755 C 51.565 24.289 50.217 24.504 49.253 24.306 C 48.288 24.107 47.255 23.569 46.59 22.561 C 46.121 21.85 45.925 20.544 45.743 19.255 C 44.345 19.132 43.275 19.188 41.632 19.347 Z" style="fill: rgb(5, 14, 26); fill-opacity: 1; fill-rule: nonzero; stroke: rgb(5, 14, 26); stroke-dasharray: none; stroke-dashoffset: 0px; stroke-linecap: butt; stroke-linejoin: miter; stroke-miterlimit: 4; stroke-opacity: 1; stroke-width: 0px; paint-order: normal; vector-effect: none; opacity: 1; mix-blend-mode: normal; isolation: auto;"/></svg>