<?xml version="1.0" encoding="utf-8"?>
<svg xmlns="http://www.w3.org/2000/svg" viewBox="0 0 110 110" width="110px" height="110px" xmlns:bx="https://boxy-svg.com"><defs><bx:export><bx:file format="svg"/></bx:export></defs><path fill="rgb(255,0,0)" stroke="rgb(255,0,0)" stroke-width="0" opacity="0.9803921568627451" d="M 38.445 6.561 C 43.36 5.786 48.955 6.213 54.748 6.561 C 61.09 6.942 68.768 7.148 75.065 8.955 C 81.104 10.687 87.304 13.938 91.87 16.934 C 95.755 19.484 99.142 22.971 101.277 25.313 C 102.769 26.952 103.301 27.706 104.286 29.569 C 105.573 32.003 107.318 35.564 108.049 39.145 C 108.856 43.103 109.063 47.846 108.551 52.446 C 107.999 57.396 106.307 64.205 104.537 67.874 C 103.227 70.588 101.753 72.108 99.897 73.593 C 98.035 75.082 95.691 76.161 93.375 76.784 C 91.015 77.42 88.419 77.738 85.851 77.316 C 84.903 77.161 83.83 76.855 82.753 76.47 C 83.2 84.041 83.45 93.586 82.716 97.133 C 82.126 99.983 81.175 101.06 79.831 102.054 C 78.522 103.022 76.549 103.424 74.814 103.119 C 72.847 102.772 69.795 100.832 68.669 99.527 C 67.874 98.606 67.861 97.884 67.666 96.601 C 67.394 94.808 67.64 92.459 67.666 89.419 C 67.696 85.833 68.114 79.256 68.023 74.996 C 66.784 75.398 65.339 75.733 63.855 76.016 C 63.579 80.811 62.759 86.198 62.649 89.952 C 62.56 92.983 63.419 95.267 62.9 97.398 C 62.431 99.325 61.626 101.189 60.015 102.32 C 58.053 103.697 53.591 104.584 51.237 104.182 C 49.304 103.851 47.514 102.272 46.596 101.123 C 45.879 100.227 45.836 100.139 45.593 98.197 C 45.214 95.168 44.816 85.444 44.821 76.643 C 43.23 76.358 41.758 75.968 40.662 75.422 C 40.597 75.389 40.532 75.355 40.468 75.323 C 40.42 77.561 40.349 79.779 40.326 81.439 C 40.279 84.746 39.901 87.175 40.075 89.952 C 40.245 92.671 40.084 92.66 39.667 94.934 C 39.293 96.973 39.796 100.05 38.028 101.356 C 35.774 103.018 30.374 104.613 27.743 104.282 C 25.729 104.027 25.352 102.195 24.433 101.046 C 23.717 100.15 23.62 98.48 23.43 97.239 C 23.176 95.584 23.101 95.118 23.263 92.97 C 23.428 90.775 23.072 89.923 23.269 87.025 C 23.44 84.515 23.083 80.307 22.966 76.542 C 21.587 76.83 20.12 76.929 18.88 76.784 C 17.156 76.582 15.545 75.86 14.114 74.923 C 12.655 73.966 11.244 72.327 10.227 71.066 C 9.354 69.984 8.816 69.301 8.22 67.874 C 7.419 65.957 6.625 63.435 6.213 60.16 C 5.653 55.7 5.345 48.404 5.962 42.87 C 6.559 37.513 7.709 31.91 9.725 27.442 C 11.609 23.261 14.477 19.533 17.375 16.668 C 20.081 13.995 23.032 12.207 26.405 10.551 C 30.004 8.784 34.009 7.26 38.445 6.561 Z M 26.781 52.844 C 27.29 53.776 27.942 53.713 29.038 53.908 C 30.771 54.218 34.252 54.158 36.814 53.642 C 39.437 53.114 43.033 52.133 44.589 50.716 C 45.772 49.641 45.931 48.306 46.345 46.725 C 46.836 44.858 47.018 42.694 47.098 40.076 C 47.165 37.881 47.017 34.078 46.844 31.335 C 45.009 31.447 43.022 31.408 41.705 31.83 C 39.852 32.425 38.67 33.712 37.241 34.208 C 37.088 34.405 36.93 34.598 36.77 34.787 C 35.347 36.463 32.355 37.709 30.823 39.238 C 29.532 40.526 29.138 42.289 27.906 43.196 C 27.404 43.566 26.819 43.907 26.198 44.17 C 25.993 46.961 26.016 51.444 26.781 52.844 Z M 62.398 30.5 C 61.462 30.829 61.593 31.799 61.395 32.895 C 61.107 34.484 61.099 37.093 61.395 39.545 C 61.742 42.416 62.333 47.08 63.652 49.12 C 64.659 50.677 65.527 50.884 67.666 51.781 C 70.091 52.796 75.7 54.338 80.301 55.407 C 81.711 54.9 83.538 54.98 85.232 54.448 C 85.129 50.398 85.243 44.658 84.471 41.953 C 83.758 39.453 82.527 38.176 81.336 36.768 C 81.324 36.754 81.313 36.74 81.301 36.727 C 79.19 35.418 76.725 34.637 74.187 33.692 C 70.634 32.371 64.171 29.881 62.398 30.5 Z" style="fill: rgb(5, 14, 26); fill-opacity: 1; fill-rule: nonzero; stroke: rgb(5, 14, 26); stroke-dasharray: none; stroke-dashoffset: 0px; stroke-linecap: butt; stroke-linejoin: miter; stroke-miterlimit: 4; stroke-opacity: 1; stroke-width: 0px; paint-order: normal; vector-effect: none; opacity: 1; mix-blend-mode: normal; isolation: auto;"/></svg>