<?xml version="1.0" encoding="utf-8"?>
<svg xmlns="http://www.w3.org/2000/svg" viewBox="0 0 80 80" width="80px" height="80px" xmlns:bx="https://boxy-svg.com"><defs><bx:export><bx:file format="svg"/></bx:export></defs><path stroke="rgb(255,0,0)" opacity="0.9882352941176471" d="M 51.866 71.389 C 51.121 71.317 50.743 70.988 49.871 70.89 C 48.629 70.751 47.126 70.782 44.885 70.89 C 41.459 71.054 34.135 71.967 30.548 72.137 C 28.065 72.254 26.537 72.262 24.813 72.137 C 23.297 72.026 21.827 71.994 20.699 71.513 C 19.696 71.085 18.849 70.286 18.268 69.581 C 17.76 68.963 17.478 68.278 17.271 67.586 C 17.067 66.906 16.954 66.203 17.022 65.467 C 17.027 65.411 17.033 65.355 17.04 65.298 C 16.822 64.719 16.646 64.072 16.523 63.348 C 16.183 61.355 16.448 57.58 16.523 55.743 C 16.573 54.519 16.854 54.358 16.772 53 C 16.655 51.028 15.556 46.196 15.029 43.213 C 13.606 43.395 12.289 43.499 11.474 43.463 C 10.258 43.409 9.733 43.134 8.981 42.715 C 8.213 42.289 7.419 41.561 6.924 40.908 C 6.481 40.325 6.239 39.709 6.051 39.038 C 5.857 38.342 5.734 37.572 5.802 36.794 C 5.875 35.956 6.073 35.037 6.55 34.176 C 7.099 33.183 7.892 32.456 9.105 31.246 C 10.906 29.452 16.191 24.979 16.897 24.327 C 17.059 24.177 16.987 24.248 17.084 24.14 C 17.286 23.918 17.819 23.233 18.144 22.894 C 18.412 22.613 18.668 22.394 18.892 22.208 C 19.076 22.055 19.273 21.961 19.39 21.834 C 19.485 21.732 19.494 21.605 19.577 21.522 C 19.66 21.439 19.803 21.402 19.889 21.335 C 19.965 21.276 19.95 21.278 20.076 21.148 C 20.455 20.759 22.012 19.085 22.943 18.156 C 23.817 17.286 25.146 16.067 25.499 15.725 C 25.624 15.604 25.554 15.692 25.686 15.538 C 26.177 14.968 28.625 11.121 30.049 10.053 C 31.105 9.262 32.024 9.072 33.166 8.931 C 34.414 8.777 35.765 8.924 37.28 9.305 C 39.107 9.764 40.811 10.492 43.389 11.798 C 43.764 11.988 44.19 12.211 44.654 12.459 C 44.764 12.12 44.902 11.798 45.072 11.487 C 45.498 10.706 46.103 9.952 46.879 9.43 C 47.716 8.866 48.974 8.4 49.996 8.308 C 50.967 8.22 51.978 8.402 52.863 8.806 C 53.792 9.23 54.82 10.096 55.419 10.863 C 55.952 11.547 56.181 11.996 56.416 13.107 C 56.711 14.503 56.873 17.387 56.855 19.648 C 57.46 20.048 57.951 20.39 58.286 20.65 C 59.212 21.368 59.364 21.895 59.595 22.146 C 59.698 22.257 59.644 22.218 59.782 22.333 C 60.193 22.675 61.992 23.84 63.023 24.764 C 64.095 25.722 64.976 26.909 66.078 28.005 C 67.25 29.171 69.061 30.26 69.88 31.558 C 70.61 32.715 70.99 34.132 71.002 35.298 C 71.013 36.363 70.578 37.485 70.129 38.29 C 69.733 39.002 69.214 39.514 68.571 39.973 C 67.882 40.465 67.025 40.88 66.078 41.095 C 65.018 41.335 63.815 41.371 62.462 41.219 C 61.696 41.133 60.819 40.871 59.922 40.594 C 59.955 42.047 59.926 43.535 59.907 44.523 C 59.882 45.809 59.68 46.268 59.657 47.515 C 59.627 49.213 59.928 51.85 59.907 53.998 C 59.885 56.13 59.547 58.343 59.533 60.356 C 59.52 62.235 59.937 64.316 59.782 65.716 C 59.666 66.764 59.442 67.47 59.034 68.21 C 58.629 68.944 57.985 69.648 57.351 70.142 C 56.751 70.609 56.049 70.932 55.356 71.139 C 54.857 71.289 54.345 71.389 53.817 71.406 C 53.145 71.465 52.445 71.445 51.866 71.389 Z" style="fill-opacity: 1; fill-rule: nonzero; stroke: rgb(5, 14, 26); stroke-dasharray: none; stroke-dashoffset: 0px; stroke-linecap: butt; stroke-linejoin: miter; stroke-miterlimit: 4; stroke-opacity: 1; paint-order: normal; vector-effect: none; opacity: 1; mix-blend-mode: normal; isolation: auto; fill: rgb(5, 14, 26); stroke-width: 0px;"/></svg>