<?xml version="1.0" encoding="utf-8"?>
<svg xmlns="http://www.w3.org/2000/svg" viewBox="0 0 320 320" width="320px" height="320px" xmlns:bx="https://boxy-svg.com"><defs><bx:export><bx:file format="svg"/></bx:export></defs><path fill="rgb(255,0,0)" stroke="rgb(255,0,0)" stroke-width="0" opacity="0.9882352941176471" d="M 147.438 237.963 C 150.315 237.451 155.603 238.791 158.894 240.255 C 161.962 241.619 165.177 243.693 166.722 246.173 C 168.183 248.52 168.734 251.804 168.249 254.574 C 167.731 257.536 165.281 260.66 163.285 263.357 C 161.276 266.073 158.239 269.146 156.221 270.804 C 154.775 271.99 154.168 272.649 152.402 273.095 C 149.931 273.718 144.996 274.063 142.092 273.095 C 139.411 272.201 136.753 269.579 135.409 267.94 C 134.437 266.753 134.17 265.959 133.882 264.503 C 133.507 262.609 133.353 259.914 133.882 257.247 C 134.518 254.042 136.456 249.323 138.082 246.555 C 139.398 244.315 140.872 242.853 142.474 241.4 C 144.003 240.012 145.228 238.357 147.438 237.963 Z M 150.493 45.505 C 156.262 44.593 162.432 44.491 168.44 45.505 C 174.713 46.564 185.056 50.877 187.342 51.997 C 188.09 52.363 187.681 52.317 188.297 52.761 C 189.866 53.89 197.339 58.481 198.798 59.825 C 199.399 60.378 199.246 60.518 199.562 60.971 C 199.969 61.554 200.582 62.626 201.089 63.071 C 201.472 63.407 201.919 63.364 202.235 63.644 C 202.56 63.932 202.521 64.079 202.999 64.789 C 204.218 66.6 208.828 72.592 211.018 76.627 C 213.115 80.491 214.827 84.678 215.982 88.465 C 217.032 91.906 217.539 94.492 217.891 98.393 C 218.326 103.216 218.278 110.425 217.891 115.577 C 217.552 120.093 217.536 123.127 215.982 127.796 C 213.964 133.857 208.325 145.288 205.29 148.99 C 203.598 151.053 201.471 151.364 200.708 152.045 C 200.329 152.382 200.437 152.519 200.135 152.808 C 199.683 153.24 198.486 153.904 198.034 154.336 C 197.732 154.625 197.805 154.781 197.462 155.099 C 196.855 155.663 194.822 156.827 194.216 157.391 C 193.873 157.709 194.121 157.734 193.643 158.154 C 192.239 159.391 183.432 164.712 181.996 166.173 C 181.447 166.733 181.703 167.003 181.424 167.319 C 181.136 167.644 180.814 167.547 180.278 168.083 C 179.135 169.224 175.894 174.293 174.741 175.338 C 174.215 175.815 174.093 175.273 173.595 175.911 C 172.152 177.759 167.727 187.056 166.34 192.713 C 165.011 198.135 166.368 205.605 165.194 209.133 C 164.44 211.402 163.233 212.399 161.949 213.524 C 160.73 214.592 159.606 215.338 157.748 215.815 C 155.26 216.456 150.714 217.007 147.82 216.197 C 145.097 215.435 142.666 213.581 140.755 211.424 C 138.727 209.134 136.991 206.107 136.173 202.641 C 135.23 198.647 136.06 193.503 136.173 188.512 C 136.295 183.113 136.252 175.352 136.937 171.329 C 137.387 168.682 137.499 168.152 138.846 165.601 C 141.13 161.274 148.942 150.156 151.829 147.08 C 153.269 145.546 153.946 145.696 155.075 144.789 C 156.352 143.763 158.145 142.05 159.085 141.162 C 159.701 140.578 159.811 140.362 160.421 139.825 C 161.294 139.057 163.332 137.709 164.049 136.961 C 164.49 136.501 164.319 136.623 164.813 135.815 C 166.308 133.366 173.114 123.055 175.887 116.722 C 178.462 110.84 181.715 104.295 181.233 99.157 C 180.803 94.578 177.554 89.913 174.55 87.128 C 171.776 84.556 167.855 83.375 164.24 82.546 C 160.602 81.711 156.559 81.062 152.784 82.164 C 148.593 83.387 143.594 86.662 140.373 90.374 C 137.032 94.225 135.79 102.434 133.309 105.076 C 131.707 106.782 130.505 106.929 128.345 107.367 C 125.44 107.956 119.675 107.99 116.889 107.367 C 114.897 106.921 113.311 105.807 112.497 105.076 C 111.988 104.617 112.179 104.495 111.734 103.739 C 110.752 102.07 107.174 97.925 106.006 94.193 C 104.706 90.038 103.989 84.025 104.86 79.682 C 105.675 75.622 109.296 70.307 110.588 68.799 C 111.151 68.142 111.604 68.371 111.925 68.035 C 112.223 67.723 112.256 67.183 112.497 66.889 C 112.712 66.629 112.996 66.605 113.261 66.317 C 113.623 65.924 113.858 65.186 114.407 64.598 C 115.097 63.859 116.397 62.975 117.271 62.307 C 118.032 61.725 118.92 61.211 119.371 60.78 C 119.674 60.49 119.601 60.335 119.944 60.016 C 120.55 59.452 122.312 58.416 123.19 57.725 C 123.895 57.169 123.954 56.867 124.908 56.197 C 126.667 54.962 130.363 52.491 134.073 50.851 C 138.58 48.859 144.812 46.403 150.493 45.505 Z" style="fill: rgb(5, 14, 26); fill-opacity: 1; fill-rule: nonzero; stroke: rgb(5, 14, 26); stroke-dasharray: none; stroke-dashoffset: 0px; stroke-linecap: butt; stroke-linejoin: miter; stroke-miterlimit: 4; stroke-opacity: 1; stroke-width: 0px; paint-order: normal; vector-effect: none; opacity: 1; mix-blend-mode: normal; isolation: auto;"/><path fill="rgb(255,0,0)" stroke="rgb(255,0,0)" stroke-width="0" opacity="0.9882352941176471" d="M 228.562 238.59 C 230.034 238.328 232.74 239.014 234.424 239.763 C 235.994 240.461 237.639 241.522 238.43 242.791 C 239.177 243.992 239.459 245.672 239.211 247.09 C 238.946 248.605 237.692 250.204 236.671 251.584 C 235.643 252.974 234.089 254.546 233.056 255.394 C 232.316 256.001 232.006 256.339 231.102 256.567 C 229.838 256.886 227.313 257.062 225.827 256.567 C 224.455 256.109 223.095 254.768 222.407 253.929 C 221.91 253.322 221.773 252.915 221.626 252.17 C 221.434 251.201 221.355 249.822 221.626 248.458 C 221.951 246.818 222.943 244.403 223.775 242.987 C 224.448 241.84 225.202 241.092 226.022 240.349 C 226.804 239.639 227.431 238.792 228.562 238.59 Z M 230.125 140.111 C 233.077 139.645 236.234 139.593 239.309 140.111 C 242.518 140.653 247.811 142.86 248.981 143.433 C 249.363 143.621 249.154 143.597 249.469 143.824 C 250.272 144.402 254.096 146.751 254.842 147.439 C 255.15 147.722 255.072 147.793 255.233 148.025 C 255.442 148.324 255.755 148.872 256.015 149.1 C 256.211 149.272 256.439 149.25 256.601 149.393 C 256.767 149.54 256.747 149.616 256.992 149.979 C 257.616 150.906 259.975 153.972 261.095 156.036 C 262.168 158.013 263.044 160.156 263.635 162.094 C 264.173 163.854 264.432 165.178 264.612 167.174 C 264.835 169.642 264.81 173.33 264.612 175.967 C 264.439 178.277 264.43 179.83 263.635 182.219 C 262.603 185.32 259.717 191.169 258.164 193.064 C 257.299 194.119 256.21 194.278 255.82 194.627 C 255.626 194.799 255.681 194.869 255.527 195.017 C 255.295 195.238 254.683 195.578 254.452 195.799 C 254.297 195.947 254.334 196.027 254.159 196.189 C 253.848 196.478 252.808 197.074 252.498 197.362 C 252.322 197.525 252.449 197.538 252.205 197.753 C 251.486 198.386 246.98 201.108 246.245 201.856 C 245.964 202.142 246.095 202.281 245.952 202.442 C 245.805 202.609 245.64 202.559 245.366 202.833 C 244.781 203.417 243.123 206.011 242.533 206.546 C 242.264 206.79 242.201 206.512 241.946 206.839 C 241.208 207.784 238.944 212.542 238.234 215.436 C 237.554 218.211 238.248 222.033 237.648 223.838 C 237.262 224.999 236.644 225.509 235.987 226.085 C 235.363 226.631 234.788 227.013 233.838 227.257 C 232.565 227.585 230.238 227.867 228.758 227.453 C 227.364 227.063 226.12 226.114 225.142 225.01 C 224.105 223.839 223.216 222.29 222.798 220.516 C 222.315 218.473 222.74 215.84 222.798 213.287 C 222.86 210.524 222.838 206.553 223.189 204.494 C 223.419 203.14 223.476 202.869 224.166 201.563 C 225.334 199.349 229.332 193.66 230.809 192.086 C 231.546 191.301 231.892 191.378 232.47 190.914 C 233.123 190.389 234.041 189.512 234.522 189.058 C 234.837 188.759 234.893 188.649 235.205 188.374 C 235.652 187.981 236.695 187.291 237.062 186.908 C 237.287 186.673 237.2 186.736 237.453 186.322 C 238.218 185.069 241.7 179.793 243.119 176.552 C 244.437 173.543 246.101 170.194 245.855 167.565 C 245.635 165.222 243.972 162.835 242.435 161.409 C 241.016 160.093 239.009 159.489 237.16 159.065 C 235.298 158.638 233.229 158.306 231.298 158.869 C 229.153 159.495 226.595 161.171 224.947 163.07 C 223.237 165.041 222.602 169.241 221.332 170.593 C 220.513 171.466 219.898 171.541 218.792 171.766 C 217.306 172.067 214.356 172.084 212.931 171.766 C 211.911 171.537 211.1 170.967 210.683 170.593 C 210.423 170.358 210.52 170.296 210.293 169.909 C 209.79 169.055 207.959 166.934 207.362 165.025 C 206.697 162.898 206.33 159.822 206.775 157.599 C 207.192 155.522 209.045 152.802 209.706 152.031 C 209.994 151.695 210.226 151.812 210.391 151.64 C 210.543 151.48 210.56 151.204 210.683 151.053 C 210.793 150.92 210.939 150.908 211.074 150.761 C 211.259 150.56 211.38 150.182 211.661 149.881 C 212.014 149.503 212.679 149.051 213.126 148.709 C 213.515 148.411 213.97 148.148 214.201 147.927 C 214.356 147.779 214.318 147.7 214.494 147.537 C 214.804 147.248 215.705 146.718 216.155 146.364 C 216.515 146.08 216.546 145.925 217.034 145.582 C 217.934 144.95 219.825 143.686 221.723 142.847 C 224.03 141.828 227.218 140.571 230.125 140.111 Z" style="fill: rgb(5, 14, 26); fill-opacity: 1; fill-rule: nonzero; stroke: rgb(5, 14, 26); stroke-dasharray: none; stroke-dashoffset: 0px; stroke-linecap: butt; stroke-linejoin: miter; stroke-miterlimit: 4; stroke-opacity: 1; stroke-width: 0px; paint-order: normal; vector-effect: none; opacity: 1; mix-blend-mode: normal; isolation: auto; transform-box: fill-box; transform-origin: 50% 50%;" transform="matrix(0.83785, 0.5459, -0.5459, 0.83785, -0.000012, -0.000004)"/><path fill="rgb(255,0,0)" stroke="rgb(255,0,0)" stroke-width="0" opacity="0.9882352941176471" d="M 76.915 234.118 C 78.387 233.856 81.093 234.542 82.777 235.291 C 84.347 235.989 85.992 237.05 86.783 238.319 C 87.53 239.52 87.812 241.2 87.564 242.618 C 87.299 244.133 86.045 245.732 85.024 247.112 C 83.996 248.502 82.442 250.074 81.409 250.922 C 80.669 251.529 80.359 251.867 79.455 252.095 C 78.191 252.414 75.666 252.59 74.18 252.095 C 72.808 251.637 71.448 250.296 70.76 249.457 C 70.263 248.85 70.126 248.443 69.979 247.698 C 69.787 246.729 69.708 245.35 69.979 243.986 C 70.304 242.346 71.296 239.931 72.128 238.515 C 72.801 237.368 73.555 236.62 74.375 235.877 C 75.157 235.167 75.784 234.32 76.915 234.118 Z M 78.478 135.639 C 81.43 135.173 84.587 135.121 87.662 135.639 C 90.871 136.181 96.164 138.388 97.334 138.961 C 97.716 139.149 97.507 139.125 97.822 139.352 C 98.625 139.93 102.449 142.279 103.195 142.967 C 103.503 143.25 103.425 143.321 103.586 143.553 C 103.795 143.852 104.108 144.4 104.368 144.628 C 104.564 144.8 104.792 144.778 104.954 144.921 C 105.12 145.068 105.1 145.144 105.345 145.507 C 105.969 146.434 108.328 149.5 109.448 151.564 C 110.521 153.541 111.397 155.684 111.988 157.622 C 112.526 159.382 112.785 160.706 112.965 162.702 C 113.188 165.17 113.163 168.858 112.965 171.495 C 112.792 173.805 112.783 175.358 111.988 177.747 C 110.956 180.848 108.07 186.697 106.517 188.592 C 105.652 189.647 104.563 189.806 104.173 190.155 C 103.979 190.327 104.034 190.397 103.88 190.545 C 103.648 190.766 103.036 191.106 102.805 191.327 C 102.65 191.475 102.687 191.555 102.512 191.717 C 102.201 192.006 101.161 192.602 100.851 192.89 C 100.675 193.053 100.802 193.066 100.558 193.281 C 99.839 193.914 95.333 196.636 94.598 197.384 C 94.317 197.67 94.448 197.809 94.305 197.97 C 94.158 198.137 93.993 198.087 93.719 198.361 C 93.134 198.945 91.476 201.539 90.886 202.074 C 90.617 202.318 90.554 202.04 90.299 202.367 C 89.561 203.312 87.297 208.07 86.587 210.964 C 85.907 213.739 86.601 217.561 86.001 219.366 C 85.615 220.527 84.997 221.037 84.34 221.613 C 83.716 222.159 83.141 222.541 82.191 222.785 C 80.918 223.113 78.591 223.395 77.111 222.981 C 75.717 222.591 74.473 221.642 73.495 220.538 C 72.458 219.367 71.569 217.818 71.151 216.044 C 70.668 214.001 71.093 211.368 71.151 208.815 C 71.213 206.052 71.191 202.081 71.542 200.022 C 71.772 198.668 71.829 198.397 72.519 197.091 C 73.687 194.877 77.685 189.188 79.162 187.614 C 79.899 186.829 80.245 186.906 80.823 186.442 C 81.476 185.917 82.394 185.04 82.875 184.586 C 83.19 184.287 83.246 184.177 83.558 183.902 C 84.005 183.509 85.048 182.819 85.415 182.436 C 85.64 182.201 85.553 182.264 85.806 181.85 C 86.571 180.597 90.053 175.321 91.472 172.08 C 92.79 169.071 94.454 165.722 94.208 163.093 C 93.988 160.75 92.325 158.363 90.788 156.937 C 89.369 155.621 87.362 155.017 85.513 154.593 C 83.651 154.166 81.582 153.834 79.651 154.397 C 77.506 155.023 74.948 156.699 73.3 158.598 C 71.59 160.569 70.955 164.769 69.685 166.121 C 68.866 166.994 68.251 167.069 67.145 167.294 C 65.659 167.595 62.709 167.612 61.284 167.294 C 60.264 167.065 59.453 166.495 59.036 166.121 C 58.776 165.886 58.873 165.824 58.646 165.437 C 58.143 164.583 56.312 162.462 55.715 160.553 C 55.05 158.426 54.683 155.35 55.128 153.127 C 55.545 151.05 57.398 148.33 58.059 147.559 C 58.347 147.223 58.579 147.34 58.744 147.168 C 58.896 147.008 58.913 146.732 59.036 146.581 C 59.146 146.448 59.292 146.436 59.427 146.289 C 59.612 146.088 59.733 145.71 60.014 145.409 C 60.367 145.031 61.032 144.579 61.479 144.237 C 61.868 143.939 62.323 143.676 62.554 143.455 C 62.709 143.307 62.671 143.228 62.847 143.065 C 63.157 142.776 64.058 142.246 64.508 141.892 C 64.868 141.608 64.899 141.453 65.387 141.11 C 66.287 140.478 68.178 139.214 70.076 138.375 C 72.383 137.356 75.571 136.099 78.478 135.639 Z" style="fill: rgb(5, 14, 26); fill-opacity: 1; fill-rule: nonzero; stroke: rgb(5, 14, 26); stroke-dasharray: none; stroke-dashoffset: 0px; stroke-linecap: butt; stroke-linejoin: miter; stroke-miterlimit: 4; stroke-opacity: 1; stroke-width: 0px; paint-order: normal; vector-effect: none; opacity: 1; mix-blend-mode: normal; isolation: auto; transform-origin: 84.028px 193.837px;" transform="matrix(0.86561, -0.500718, 0.500718, 0.86561, 0.000012, 0)"/></svg>