<?xml version="1.0" encoding="utf-8"?>
<svg xmlns="http://www.w3.org/2000/svg" viewBox="0 0 320 320" width="320px" height="320px" xmlns:bx="https://boxy-svg.com"><defs><bx:export><bx:file format="svg"/></bx:export></defs><path stroke="rgb(255,0,0)" stroke-width="0" opacity="0.9803921568627451" d="M 216.591 70.253 C 219.449 69.959 223.556 70.015 226.065 70.81 C 228.13 71.465 229.897 72.571 230.941 74.015 C 231.958 75.422 232.532 77.786 232.334 79.309 C 232.159 80.66 231.369 81.983 230.244 82.792 C 228.952 83.721 226.553 84.22 224.672 84.185 C 222.746 84.15 221.194 82.198 218.82 82.513 C 215.51 82.954 207.988 87.334 206.42 88.922 C 205.715 89.637 205.562 89.687 205.863 90.733 C 206.661 93.511 215.45 105.705 218.541 108.427 C 220.149 109.843 220.49 109.605 222.442 110.099 C 225.717 110.928 233.123 110.149 237.768 112.05 C 242.468 113.974 249.109 120.33 250.446 121.663 C 250.853 122.069 250.635 122.103 250.864 122.36 C 251.192 122.727 251.822 122.949 252.397 123.614 C 253.271 124.623 254.926 126.777 255.462 128.351 C 255.938 129.748 255.963 131.056 255.741 132.53 C 255.49 134.192 254.876 135.89 253.79 137.825 C 252.407 140.289 249.845 143.887 247.52 146.045 C 245.395 148.018 243.81 149.149 240.554 150.503 C 235.882 152.447 224.574 153.8 220.77 155.519 C 218.645 156.479 217.956 157.194 217.009 158.444 C 216.034 159.732 214.657 161.368 215.058 163.181 C 215.623 165.735 221.172 170.372 223 172.237 C 224.07 173.329 224.539 173.445 225.368 174.327 C 226.377 175.4 226.58 176.944 228.573 178.368 C 232.023 180.832 242.61 183.822 247.242 186.448 C 250.666 188.389 253.465 190.531 254.905 192.161 C 255.824 193.201 256.039 193.778 256.298 194.947 C 256.625 196.422 256.812 198.182 256.298 200.52 C 255.544 203.946 253.536 208.503 250.725 213.895 C 246.837 221.352 237.884 237.945 233.588 241.62 C 231.484 243.421 229.817 243.211 228.294 243.013 C 226.942 242.838 225.62 242.029 224.811 240.924 C 223.899 239.678 222.832 238.335 223.418 235.629 C 224.625 230.055 237.118 213.283 240.415 206.929 C 242.322 203.253 244.839 201.344 243.759 199.127 C 242.319 196.17 232.07 194.563 227.737 192.3 C 224.253 190.481 221.531 188.894 219.238 186.866 C 217.177 185.044 215.439 181.968 214.362 180.875 C 213.789 180.295 213.747 180.529 213.108 179.9 C 211.708 178.523 207.123 172.778 205.724 171.401 C 205.084 170.772 204.871 170.974 204.47 170.426 C 203.875 169.615 203.104 168.098 202.798 166.525 C 202.425 164.608 202.112 162.099 202.798 159.559 C 203.648 156.411 206.171 151.746 208.51 149.11 C 210.583 146.773 212.464 145.523 215.755 144.094 C 220.197 142.165 229.721 141.166 233.867 139.636 C 236.583 138.633 238.148 137.952 239.579 136.571 C 240.93 135.266 242.443 132.968 242.366 131.694 C 242.304 130.683 241.337 130.278 240.276 129.326 C 238.637 127.856 236.013 125.014 232.752 123.753 C 228.768 122.212 221.67 123.287 217.427 121.802 C 213.763 120.521 211.469 119.09 208.371 116.09 C 204.24 112.092 197.931 102.355 195.553 98.257 C 194.162 95.86 193.681 94.697 193.324 92.963 C 192.993 91.357 192.812 90.055 193.324 88.226 C 194.015 85.756 195.75 82.006 198.2 79.448 C 200.961 76.566 206.281 73.73 209.625 72.203 C 212.228 71.015 214.027 70.517 216.591 70.253 Z" style="fill-opacity: 1; fill-rule: nonzero; stroke: rgb(5, 14, 26); stroke-dasharray: none; stroke-dashoffset: 0px; stroke-linecap: butt; stroke-linejoin: miter; stroke-miterlimit: 4; stroke-opacity: 1; stroke-width: 5px; paint-order: normal; vector-effect: none; opacity: 1; mix-blend-mode: normal; isolation: auto; fill: rgb(235, 117, 143);"><title>tail</title></path><path stroke="rgb(255,0,0)" stroke-width="0" opacity="0.984313725490196" d="M 89.461 80.764 C 90.915 80.415 93.1 80.119 94.965 80.764 C 97.174 81.527 100.07 84.191 101.719 85.767 C 102.999 86.99 103.671 88.508 104.471 89.269 C 105.028 89.8 105.302 89.809 105.972 90.27 C 106.995 90.974 109.02 92.217 110.224 93.272 C 111.317 94.228 112.388 95.442 112.976 96.274 C 113.388 96.857 113.201 97.138 113.727 97.775 C 114.671 98.919 117.535 100.628 119.23 102.528 C 121.06 104.578 123.025 108.639 124.233 109.782 C 124.855 110.371 125.22 110.067 125.734 110.533 C 126.458 111.189 127.312 113.126 127.986 113.785 C 128.437 114.226 128.609 113.999 129.236 114.535 C 130.624 115.721 134.932 120.88 136.491 122.29 C 137.314 123.034 137.674 123.058 138.242 123.541 C 138.843 124.051 139.246 124.628 139.993 125.292 C 140.967 126.157 143.02 127.437 143.745 128.294 C 144.222 128.856 144.113 129.353 144.496 129.795 C 144.918 130.283 145.78 130.566 146.247 131.045 C 146.682 131.492 146.576 131.798 147.248 132.546 C 148.69 134.154 154.938 139.182 156.253 140.801 C 156.848 141.533 156.477 141.645 157.004 142.302 C 157.977 143.517 161.779 146.629 162.757 147.556 C 163.198 147.973 163.188 147.944 163.508 148.306 C 164.006 148.869 164.235 149.542 165.509 150.808 C 168.262 153.543 177.308 159.73 182.269 165.067 C 187.231 170.404 193.104 180.754 195.277 182.828 C 196.054 183.568 196.365 183.212 196.778 183.578 C 197.204 183.955 197.356 184.399 197.779 185.079 C 198.412 186.095 199.609 188.538 200.281 189.332 C 200.668 189.79 200.866 189.571 201.281 190.082 C 202.117 191.11 203.693 195.125 204.783 196.336 C 205.482 197.112 205.986 196.762 206.785 197.587 C 208.204 199.052 211.199 204.607 212.288 205.842 C 212.764 206.381 212.868 206.185 213.289 206.592 C 213.975 207.257 215.429 209.172 216.04 209.844 C 216.391 210.23 216.322 210.018 216.791 210.595 C 218.273 212.418 226.134 224.016 227.798 225.854 C 228.361 226.476 228.192 225.857 228.798 226.605 C 231.124 229.47 243.815 248.732 247.81 257.124 C 250.721 263.239 253.249 269.411 252.813 272.634 C 252.542 274.637 251.421 275.592 249.561 276.386 C 246.786 277.571 242.871 276.844 236.053 276.886 C 223.673 276.963 196.786 275.67 176.015 275.886 C 154.173 276.112 121.231 278.741 107.973 278.387 C 101.117 278.204 97.691 277.959 94.965 276.886 C 93.225 276.202 92.354 275.401 91.713 274.135 C 91.001 272.73 91.306 271.824 91.213 268.631 C 91.002 261.408 92.318 234.156 91.713 226.105 C 91.408 222.05 90.603 222.873 90.212 218.6 C 89.367 209.365 90.175 180.709 89.211 166.067 C 88.596 156.715 87.132 150.855 86.242 142.9 C 86.023 142.129 85.841 141.349 85.709 140.551 C 84.949 135.96 84.758 132.328 85.352 127.52 C 84.905 111.686 84.99 89.391 85.709 84.516 C 85.967 82.77 86.139 82.874 86.71 82.265 C 87.339 81.594 88.301 81.042 89.461 80.764 Z" style="fill-opacity: 1; fill-rule: nonzero; stroke: rgb(5, 14, 26); stroke-dasharray: none; stroke-dashoffset: 0px; stroke-linecap: butt; stroke-linejoin: miter; stroke-miterlimit: 4; stroke-opacity: 1; stroke-width: 5px; paint-order: normal; vector-effect: none; opacity: 1; mix-blend-mode: normal; isolation: auto; fill: rgb(166, 154, 156);"><title>body</title></path><path stroke-width="0" opacity="0.9882352941176471" d="M 83.958 60.251 C 87.882 59.483 90.223 59.574 93.964 60.251 C 98.53 61.077 105.999 63.78 109.474 65.755 C 111.852 67.106 113.157 67.754 114.227 70.007 C 115.696 73.101 116.702 79.708 115.728 84.016 C 114.761 88.291 111.695 92.727 108.473 95.773 C 105.267 98.806 100.628 101.124 96.466 102.277 C 92.446 103.391 88.035 103.357 83.958 102.778 C 79.863 102.196 75.363 100.875 71.951 98.775 C 68.646 96.742 65.393 92.8 63.695 90.52 C 62.539 88.967 62.095 88.422 61.694 86.518 C 61.089 83.645 60.863 77.39 61.694 74.01 C 62.38 71.222 62.981 69.243 65.447 67.256 C 69.039 64.36 78.803 61.26 83.958 60.251 Z" style="fill-opacity: 1; fill-rule: nonzero; stroke: rgb(5, 14, 26); stroke-dasharray: none; stroke-dashoffset: 0px; stroke-linecap: butt; stroke-linejoin: miter; stroke-miterlimit: 4; stroke-opacity: 1; stroke-width: 5px; paint-order: normal; vector-effect: none; opacity: 1; mix-blend-mode: normal; isolation: auto; fill: rgb(235, 117, 143);" stroke="rgb(255,0,0)"/><path stroke="rgb(255,0,0)" opacity="0.9607843137254902" d="M 53.935 73.255 C 57.825 73.063 63.535 72.464 64.692 73.755 C 65.52 74.68 65.102 77.186 63.441 78.258 C 60.322 80.27 44.046 81.423 40.927 79.759 C 39.265 78.872 38.751 76.338 39.676 75.256 C 41.127 73.559 49.566 73.47 53.935 73.255 Z" style="fill-opacity: 1; fill-rule: nonzero; stroke: rgb(5, 14, 26); stroke-dasharray: none; stroke-dashoffset: 0px; stroke-linecap: butt; stroke-linejoin: miter; stroke-miterlimit: 4; stroke-opacity: 1; paint-order: normal; vector-effect: none; opacity: 1; mix-blend-mode: normal; isolation: auto; stroke-width: 0px; fill: rgb(5, 14, 26);"/><path stroke="rgb(255,0,0)" opacity="0.9098039215686274" d="M 63.941 78.258 C 65.655 77.828 67.202 77.978 67.694 78.758 C 68.249 79.641 67.806 82.055 66.443 83.761 C 64.319 86.419 55.196 90.271 53.184 92.017 C 52.274 92.806 52.737 93.092 51.934 93.768 C 50.499 94.975 45.398 98.757 43.929 98.27 C 42.785 97.891 42.151 95.012 42.678 93.518 C 43.312 91.719 47.496 89.75 48.682 88.514 C 49.389 87.777 49.564 87.203 49.932 86.763 C 50.21 86.432 50.109 86.426 50.683 86.013 C 52.355 84.81 60.941 79.012 63.941 78.258 Z" style="fill-opacity: 1; fill-rule: nonzero; stroke: rgb(5, 14, 26); stroke-dasharray: none; stroke-dashoffset: 0px; stroke-linecap: butt; stroke-linejoin: miter; stroke-miterlimit: 4; stroke-opacity: 1; paint-order: normal; vector-effect: none; opacity: 1; mix-blend-mode: normal; isolation: auto; stroke-width: 0px; fill: rgb(5, 14, 26);"/><path stroke="rgb(255,0,0)" opacity="0.9058823529411765" d="M 68.591 85.262 C 69.829 84.973 72.32 84.966 72.843 85.763 C 73.385 86.588 72.606 88.943 71.592 90.265 C 70.372 91.858 66.687 93.019 65.339 94.268 C 64.393 95.144 64.56 95.677 63.587 96.77 C 61.945 98.616 57.36 102.431 55.332 104.524 C 53.874 106.029 53.314 107.918 52.08 108.277 C 50.954 108.604 48.687 108.051 48.328 107.026 C 47.853 105.671 50.67 100.912 51.58 99.771 C 52.042 99.192 52.252 99.519 52.831 99.021 C 53.962 98.048 56.677 94.333 58.084 93.267 C 58.972 92.595 59.749 92.774 60.335 92.267 C 60.911 91.768 60.94 90.821 61.586 90.265 C 62.35 89.609 64.183 89.367 64.838 88.765 C 65.322 88.32 65.132 87.76 65.589 87.264 C 66.209 86.589 67.434 85.532 68.591 85.262 Z" style="fill-opacity: 1; fill-rule: nonzero; stroke: rgb(5, 14, 26); stroke-dasharray: none; stroke-dashoffset: 0px; stroke-linecap: butt; stroke-linejoin: miter; stroke-miterlimit: 4; stroke-opacity: 1; paint-order: normal; vector-effect: none; opacity: 1; mix-blend-mode: normal; isolation: auto; stroke-width: 0px; fill: rgb(5, 14, 26);"/><path stroke="rgb(255,0,0)" opacity="0.9137254901960784" d="M 112.471 46.238 C 113.838 45.88 116.201 45.942 116.724 46.738 C 117.266 47.564 115.913 50.415 115.473 51.241 C 115.23 51.698 115.085 51.672 114.723 51.992 C 114.16 52.49 113.278 52.958 112.221 53.993 C 110.536 55.643 108.041 59.944 105.467 61.748 C 103.077 63.423 98.933 65.38 97.462 64.75 C 96.307 64.255 95.632 61.453 96.211 60.247 C 96.881 58.852 101.214 58.016 102.215 57.245 C 102.726 56.851 102.728 56.63 102.966 56.244 C 103.232 55.81 103.4 55.128 103.716 54.743 C 103.997 54.402 104.28 54.453 104.717 53.993 C 105.528 53.136 106.886 50.552 108.219 49.24 C 109.486 47.993 110.994 46.625 112.471 46.238 Z" style="fill-opacity: 1; fill-rule: nonzero; stroke: rgb(5, 14, 26); stroke-dasharray: none; stroke-dashoffset: 0px; stroke-linecap: butt; stroke-linejoin: miter; stroke-miterlimit: 4; stroke-opacity: 1; paint-order: normal; vector-effect: none; opacity: 1; mix-blend-mode: normal; isolation: auto; stroke-width: 0px; fill: rgb(5, 14, 26);"/><path stroke="rgb(255,0,0)" opacity="0.9568627450980393" d="M 124.979 58.246 C 126.531 57.87 128.709 57.949 129.232 58.746 C 129.774 59.571 129.013 61.93 127.981 63.249 C 126.725 64.853 124.647 66.451 121.477 67.251 C 116.725 68.451 104.619 67.945 100.464 67.251 C 98.201 66.873 96.723 66.429 96.211 65.5 C 95.761 64.683 96.15 62.906 96.962 62.248 C 97.955 61.443 99.978 61.806 102.465 61.748 C 106.272 61.659 114.527 63.206 118.475 62.248 C 121.411 61.536 123.024 58.719 124.979 58.246 Z" style="fill-opacity: 1; fill-rule: nonzero; stroke: rgb(5, 14, 26); stroke-dasharray: none; stroke-dashoffset: 0px; stroke-linecap: butt; stroke-linejoin: miter; stroke-miterlimit: 4; stroke-opacity: 1; paint-order: normal; vector-effect: none; opacity: 1; mix-blend-mode: normal; isolation: auto; stroke-width: 0px; fill: rgb(5, 14, 26);"/><path stroke="rgb(255,0,0)" opacity="0.9176470588235294" d="M 126.48 48.239 C 128.266 47.649 129.813 47.922 130.233 48.74 C 130.75 49.749 129.752 52.595 127.981 54.743 C 125.246 58.062 116.967 63.542 112.471 65.75 C 109.088 67.412 105.085 69.067 103.466 68.252 C 102.19 67.609 101.491 64.476 102.215 63.249 C 103.064 61.81 106.506 62.36 109.47 60.747 C 113.913 58.329 122.928 49.414 126.48 48.239 Z M 154.529 79.518 C 155.47 79.513 157.198 79.893 158.548 81.24 C 159.977 82.666 162.578 86.689 164.03 89.843 C 166.797 89.977 170.907 90.509 171.946 91.384 C 172.793 92.097 172.586 93.475 172.329 94.255 C 172.09 94.983 171.427 95.66 170.607 95.978 C 169.585 96.374 167.835 96.038 166.396 95.978 C 164.903 95.915 162.888 96.068 161.802 95.595 C 161.099 95.288 160.543 94.821 160.234 94.233 C 157.502 91.246 153.171 82.859 152.807 81.24 C 152.667 80.618 152.946 80.555 153.189 80.283 C 153.476 79.963 153.909 79.521 154.529 79.518 Z" style="fill-opacity: 1; fill-rule: nonzero; stroke: rgb(5, 14, 26); stroke-dasharray: none; stroke-dashoffset: 0px; stroke-linecap: butt; stroke-linejoin: miter; stroke-miterlimit: 4; stroke-opacity: 1; paint-order: normal; vector-effect: none; opacity: 1; mix-blend-mode: normal; isolation: auto; fill: rgb(5, 14, 26); stroke-width: 0px;"/><path stroke="rgb(255,0,0)" stroke-width="0" opacity="0.9882352941176471" d="M 123.244 149.667 C 127.091 149.701 131.723 150.154 134.948 151.618 C 137.872 152.945 140.421 155.628 142.053 157.608 C 143.363 159.198 144.098 160.369 144.561 162.345 C 145.135 164.798 145.009 168.651 144.561 171.541 C 144.133 174.301 143.348 176.93 142.053 179.343 C 140.725 181.816 138.724 184.321 136.619 186.17 C 134.574 187.966 132.08 189.619 129.653 190.349 C 127.334 191.047 124.981 190.933 122.408 190.628 C 119.539 190.288 115.787 189.367 113.213 188.12 C 110.918 187.008 109.198 185.892 107.501 183.801 C 105.426 181.245 103.111 176.764 102.207 173.213 C 101.36 169.888 101.047 166.383 101.928 163.181 C 102.852 159.821 105.935 155.511 107.919 153.568 C 109.319 152.197 110.194 151.937 112.099 151.339 C 114.792 150.492 119.476 149.633 123.244 149.667 Z" style="fill-opacity: 1; fill-rule: nonzero; stroke: rgb(5, 14, 26); stroke-dasharray: none; stroke-dashoffset: 0px; stroke-linecap: butt; stroke-linejoin: miter; stroke-miterlimit: 4; stroke-opacity: 1; stroke-width: 5px; paint-order: normal; vector-effect: none; opacity: 1; mix-blend-mode: normal; isolation: auto; fill: rgb(235, 117, 143);"/><path stroke="rgb(255,0,0)" stroke-width="0" opacity="0.9529411764705882" d="M 114.483 151.799 C 115.555 151.807 117.735 152.664 118.524 153.331 C 119.088 153.809 119.155 153.991 119.36 155.003 C 119.805 157.209 120.218 165.62 119.638 168.1 C 119.324 169.441 118.886 169.934 118.106 170.468 C 117.234 171.065 115.519 171.473 114.483 171.304 C 113.556 171.152 112.655 170.361 112.115 169.771 C 111.657 169.271 111.483 169.112 111.279 168.1 C 110.834 165.894 110.42 157.483 111 155.003 C 111.314 153.662 111.907 153.172 112.533 152.635 C 113.091 152.155 113.677 151.793 114.483 151.799 Z" style="fill-opacity: 1; fill-rule: nonzero; stroke: rgb(5, 14, 26); stroke-dasharray: none; stroke-dashoffset: 0px; stroke-linecap: butt; stroke-linejoin: miter; stroke-miterlimit: 4; stroke-opacity: 1; stroke-width: 5px; paint-order: normal; vector-effect: none; opacity: 1; mix-blend-mode: normal; isolation: auto; fill: rgb(242, 242, 218); transform-box: fill-box; transform-origin: 50% 50%;" transform="matrix(0.984318, -0.176401, 0.176401, 0.984318, -0.000002, 0.000001)"/><path stroke="rgb(255,0,0)" stroke-width="0" opacity="0.9568627450980393" d="M 121.338 149.426 C 122.409 149.434 124.464 149.79 125.378 150.959 C 126.526 152.428 126.529 155.787 126.771 158.482 C 127.035 161.418 127.284 165.959 126.771 167.956 C 126.455 169.186 126.019 169.79 125.239 170.325 C 124.367 170.921 122.652 171.33 121.616 171.161 C 120.689 171.009 119.788 170.218 119.248 169.628 C 118.79 169.128 118.631 169.009 118.412 167.956 C 117.904 165.514 117.25 155.382 117.854 152.631 C 118.161 151.233 118.761 150.799 119.387 150.262 C 119.946 149.783 120.531 149.42 121.338 149.426 Z" style="fill-opacity: 1; fill-rule: nonzero; stroke: rgb(5, 14, 26); stroke-dasharray: none; stroke-dashoffset: 0px; stroke-linecap: butt; stroke-linejoin: miter; stroke-miterlimit: 4; stroke-opacity: 1; stroke-width: 5px; paint-order: normal; vector-effect: none; opacity: 1; mix-blend-mode: normal; isolation: auto; fill: rgb(242, 242, 218); transform-box: fill-box; transform-origin: 50% 50%;" transform="matrix(0.984318, -0.176401, 0.176401, 0.984318, 0.000001, 0.000003)"/><path stroke="rgb(255,0,0)" stroke-width="0" opacity="0.984313725490196" d="M 171.645 75.197 C 174.479 74.905 176.508 75.081 177.962 75.963 C 179.204 76.717 179.864 78.216 180.258 79.599 C 180.676 81.066 180.355 82.312 180.258 84.576 C 180.108 88.093 180.36 95.791 179.11 99.505 C 178.152 102.352 175.76 104.699 174.708 105.821 C 174.14 106.426 174.106 105.969 173.368 106.778 C 171.207 109.147 163.237 122.245 159.396 126.492 C 156.875 129.279 154.93 130.883 152.888 131.851 C 151.278 132.615 149.716 132.95 148.295 132.617 C 146.84 132.276 145.096 130.627 144.275 129.746 C 143.707 129.136 143.974 128.631 143.318 128.023 C 142.244 127.028 138.428 126.056 137.385 124.77 C 136.598 123.8 137.25 122.443 136.619 121.516 C 135.926 120.495 133.89 120.261 133.174 119.028 C 132.364 117.631 131.555 116.216 132.409 113.286 C 134.233 107.021 145.46 86.6 153.08 80.556 C 158.85 75.979 167.227 75.653 171.645 75.197 Z" style="fill-opacity: 1; fill-rule: nonzero; stroke: rgb(5, 14, 26); stroke-dasharray: none; stroke-dashoffset: 0px; stroke-linecap: butt; stroke-linejoin: miter; stroke-miterlimit: 4; stroke-opacity: 1; stroke-width: 5px; paint-order: normal; vector-effect: none; opacity: 1; mix-blend-mode: normal; isolation: auto; fill: rgb(242, 242, 218);"/><path fill="rgb(255,0,0)" stroke="rgb(255,0,0)" stroke-width="0" opacity="0.9137254901960784" d="M 154.912 78.752 C 155.722 78.66 157.177 78.386 158.166 79.518 C 159.315 80.833 161.083 85.541 162.095 89.58 C 162.121 89.541 162.151 89.504 162.185 89.47 C 162.44 89.215 162.864 89.164 163.142 88.896 C 163.445 88.604 163.582 88.036 163.908 87.748 C 164.224 87.467 164.728 87.513 165.056 87.174 C 165.458 86.758 165.64 85.678 166.013 85.26 C 166.3 84.938 166.541 85.084 166.97 84.685 C 167.817 83.898 169.509 81.224 170.798 79.9 C 171.936 78.732 173.676 77.836 174.243 77.029 C 174.599 76.524 174.351 76.038 174.626 75.69 C 174.913 75.327 175.371 74.992 175.966 74.924 C 176.776 74.832 178.607 74.986 179.22 75.69 C 179.854 76.42 180.047 78.09 179.602 79.326 C 179.042 80.883 176.316 83.065 175.2 84.111 C 174.479 84.787 174.358 84.619 173.478 85.451 C 172.223 86.637 169.325 90.345 166.838 93.076 C 171.825 93.943 177.505 95.262 178.837 96.361 C 179.877 97.22 179.476 98.451 179.22 99.232 C 178.98 99.96 178.294 100.641 177.497 100.954 C 176.541 101.329 175.509 101.199 173.669 100.954 C 170.497 100.533 161.504 98.683 159.123 97.509 C 157.97 96.941 157.64 96.515 157.4 95.787 C 157.358 95.659 157.33 95.513 157.314 95.355 C 156.135 93.651 154.986 91.115 154.338 89.279 C 153.364 86.52 153.091 81.877 153.189 80.475 C 153.231 79.882 153.328 79.79 153.572 79.518 C 153.858 79.198 154.317 78.82 154.912 78.752 Z M 80.359 69.906 C 80.982 69.959 82.803 70.782 83.329 71.478 C 83.767 72.058 83.841 72.884 83.679 73.575 C 83.499 74.342 82.676 75.431 82.106 75.846 C 81.667 76.166 81.226 76.306 80.708 76.196 C 80.037 76.053 78.864 75.28 78.437 74.623 C 78.053 74.032 77.925 73.217 78.088 72.527 C 78.268 71.759 79.222 70.66 79.66 70.255 C 79.924 70.01 80.012 69.876 80.359 69.906 Z M 97.133 73.4 C 97.756 73.454 99.257 74.079 100.104 74.973 C 101.132 76.058 102.589 78.595 102.55 79.865 C 102.52 80.831 101.594 81.716 100.977 82.137 C 100.46 82.49 99.912 82.687 99.23 82.486 C 98.223 82.189 96.275 80.671 95.561 79.516 C 94.922 78.483 94.667 77.014 94.862 76.021 C 95.037 75.124 95.996 74.155 96.434 73.75 C 96.699 73.505 96.786 73.37 97.133 73.4 Z M 76.864 83.535 C 77.487 83.588 79.113 84.266 79.835 85.107 C 80.615 86.017 81.349 87.883 81.233 88.951 C 81.134 89.864 80.23 90.808 79.66 91.223 C 79.221 91.542 78.779 91.682 78.262 91.572 C 77.591 91.429 76.583 90.787 75.991 90 C 75.298 89.078 74.477 87.224 74.593 86.156 C 74.692 85.243 75.727 84.289 76.165 83.884 C 76.43 83.639 76.517 83.505 76.864 83.535 Z M 109.015 96.115 C 110.431 95.921 112.09 97.058 112.684 97.688 C 113.079 98.107 113.144 98.568 113.034 99.086 C 113.022 99.143 113.008 99.201 112.991 99.258 C 113.048 99.25 113.117 99.252 113.208 99.26 C 114.803 99.066 115.977 100.218 116.528 100.833 C 116.907 101.256 117.004 101.696 116.878 102.231 C 116.802 102.553 116.643 102.898 116.395 103.269 C 115.413 105.503 111.419 110.651 109.015 112.54 C 107.053 114.081 105.333 114.553 103.074 114.986 C 100.519 115.475 97.057 115.119 94.337 114.986 C 91.846 114.864 88.949 114.833 87.348 114.287 C 86.246 113.911 85.492 113.284 85.077 112.715 C 84.757 112.276 84.617 111.834 84.727 111.317 C 84.87 110.646 85.521 109.492 86.3 109.045 C 86.491 108.936 86.687 108.858 86.895 108.805 C 86.06 108.401 85.437 107.889 85.077 107.473 C 84.689 107.025 84.617 106.592 84.727 106.075 C 84.87 105.404 85.608 104.236 86.3 103.803 C 86.962 103.39 87.659 103.492 88.746 103.454 C 90.361 103.397 93.218 104.143 95.386 103.803 C 97.588 103.458 100.917 101.976 101.851 101.357 C 102.259 101.086 101.986 101.005 102.375 100.658 C 103.321 99.816 107.14 96.372 109.015 96.115 Z M 240.587 233.434 C 240.557 234.4 239.584 235.29 239.014 235.705 C 238.575 236.025 238.133 236.165 237.616 236.055 C 236.945 235.912 235.995 235.189 235.345 234.482 C 234.635 233.71 234.316 232.337 233.598 231.512 C 232.908 230.719 231.865 230.481 231.151 229.59 C 230.311 228.54 229.009 226.539 229.055 225.396 C 229.091 224.472 230.189 223.53 230.627 223.125 C 230.83 222.937 230.92 222.801 231.115 222.771 C 231.125 222.716 231.138 222.659 231.151 222.6 C 231.315 221.878 232.286 220.734 232.724 220.329 C 232.988 220.084 232.995 219.87 233.423 219.98 C 234.624 220.288 240.388 224.644 241.635 226.27 C 242.328 227.172 242.453 227.806 242.334 228.541 C 242.207 229.323 241.331 230.398 240.761 230.813 C 240.454 231.037 240.231 231.236 239.888 231.253 C 240.306 232.07 240.604 232.869 240.587 233.434 Z M 242.858 204.603 C 244.241 204.805 251.941 208.724 253.167 210.02 C 253.699 210.582 253.627 210.901 253.517 211.418 C 253.374 212.089 252.601 213.262 251.944 213.689 C 251.353 214.074 250.849 214.293 249.847 214.039 C 247.956 213.558 242.039 209.893 240.936 208.622 C 240.436 208.046 240.477 207.741 240.587 207.224 C 240.73 206.553 241.721 205.358 242.159 204.953 C 242.424 204.708 242.389 204.535 242.858 204.603 Z M 231.675 176.996 C 232.344 177.039 234.412 177.812 234.995 178.568 C 235.493 179.214 235.53 180.244 235.345 181.015 C 235.151 181.821 234.35 182.752 233.772 183.286 C 233.286 183.736 232.806 183.538 232.2 184.16 C 231.12 185.267 229.235 189.744 228.181 190.625 C 227.639 191.078 227.3 191.084 226.783 190.974 C 226.112 190.831 224.944 190.094 224.512 189.402 C 224.098 188.74 223.814 188.085 224.162 186.955 C 224.812 184.847 229.887 178.412 230.977 177.345 C 231.344 176.985 231.316 176.973 231.675 176.996 Z M 224.337 141.7 C 224.959 141.754 226.557 142.179 227.307 143.273 C 228.398 144.864 229.332 149.845 229.055 151.66 C 228.878 152.814 228.052 153.517 227.482 153.931 C 227.043 154.251 226.601 154.391 226.084 154.281 C 225.413 154.138 224.419 153.72 223.813 152.708 C 222.858 151.118 221.788 146.136 222.065 144.321 C 222.242 143.167 223.2 142.455 223.638 142.05 C 223.902 141.805 223.989 141.67 224.337 141.7 Z M 204.767 156.727 C 205.915 156.52 210.53 156.173 212.455 156.727 C 213.941 157.154 215.228 158.274 215.775 158.999 C 216.138 159.479 216.235 159.879 216.124 160.396 C 215.982 161.067 215.168 162.247 214.552 162.668 C 214.035 163.021 213.688 162.989 212.805 163.017 C 211.216 163.069 206.825 162.887 205.116 162.319 C 203.984 161.942 203.26 161.316 202.845 160.746 C 202.525 160.307 202.385 159.865 202.496 159.348 C 202.638 158.677 203.63 157.482 204.068 157.077 C 204.332 156.832 204.307 156.81 204.767 156.727 Z M 226.084 110.598 C 226.707 110.652 228.404 111.069 229.055 112.171 C 229.994 113.762 230.161 118.746 229.753 120.558 C 229.492 121.719 228.75 122.415 228.181 122.829 C 227.742 123.149 227.3 123.289 226.783 123.179 C 226.112 123.036 225.031 122.625 224.512 121.606 C 223.7 120.016 223.405 115.031 223.813 113.219 C 224.074 112.059 224.947 111.353 225.385 110.948 C 225.65 110.703 225.737 110.568 226.084 110.598 Z M 204.418 87.184 C 205.976 87.297 207.493 88.127 208.087 88.757 C 208.482 89.176 208.546 89.638 208.436 90.155 C 208.294 90.826 207.912 91.822 206.864 92.426 C 205.138 93.421 199.392 94.49 197.428 94.174 C 196.235 93.981 195.572 93.171 195.157 92.601 C 194.837 92.162 194.697 91.72 194.807 91.203 C 194.95 90.532 195.382 89.539 196.38 88.932 C 197.924 87.992 202.336 87.034 204.418 87.184 Z M 150.251 131.566 C 149.734 131.919 149.11 132.053 148.504 131.915 C 147.781 131.752 146.923 130.971 146.232 130.343 C 145.521 129.696 144.937 128.678 144.31 128.071 C 143.776 127.555 143.104 127.167 142.738 126.848 C 142.491 126.633 142.548 126.68 142.214 126.324 C 141.27 125.32 137.176 120.56 135.574 118.985 C 134.583 118.012 133.727 117.789 133.302 117.063 C 132.931 116.429 132.79 115.657 132.953 114.967 C 133.133 114.199 134.087 113.1 134.525 112.695 C 134.606 112.62 134.671 112.555 134.731 112.503 C 134.497 111.982 134.353 111.506 134.351 111.123 C 134.345 110.127 135.485 109.256 135.923 108.851 C 136.188 108.606 136.245 108.473 136.622 108.502 C 137.38 108.559 139.403 109.346 140.641 110.424 C 142.127 111.717 142.946 114.462 144.66 116.19 C 146.5 118.044 150.329 119.936 151.474 121.082 C 152.072 121.68 151.924 122.087 152.348 122.48 C 152.822 122.921 153.863 123.123 154.27 123.528 C 154.587 123.844 154.492 124.211 154.794 124.577 C 155.202 125.071 156.28 125.453 156.716 126.149 C 157.179 126.888 157.568 128.095 157.415 128.945 C 157.264 129.781 156.412 130.802 155.843 131.217 C 155.404 131.536 154.962 131.676 154.445 131.566 C 153.774 131.423 152.707 130.571 152.173 129.993 C 151.952 129.754 151.899 129.544 151.822 129.307 C 151.697 130.067 150.865 131.147 150.251 131.566 Z M 156.192 99.066 C 156.861 99.109 158.961 100.024 159.512 100.639 C 159.891 101.062 160.077 101.281 159.861 102.037 C 159.735 102.478 159.329 103.251 158.766 104.183 C 160.454 105.508 161.845 106.697 162.308 107.278 C 162.835 107.941 162.767 108.159 162.657 108.676 C 162.514 109.347 161.701 110.527 161.084 110.948 C 160.567 111.301 160.233 111.599 159.337 111.297 C 158.608 111.052 157.163 110.119 155.546 108.939 C 154.369 110.532 153.265 111.883 152.697 112.346 C 152.072 112.856 151.817 112.805 151.3 112.695 C 150.629 112.552 149.455 111.779 149.028 111.123 C 148.644 110.531 148.617 109.7 148.679 109.026 C 148.739 108.362 149.089 107.514 149.377 107.104 C 149.583 106.812 149.708 106.971 150.076 106.58 C 150.285 106.358 150.624 105.921 151.036 105.366 C 149.758 104.268 148.735 103.293 148.329 102.735 C 147.757 101.948 147.842 101.595 147.98 100.988 C 148.143 100.265 149.114 99.122 149.552 98.717 C 149.817 98.472 149.783 98.242 150.251 98.367 C 150.815 98.518 152.428 99.545 154.305 100.866 C 154.818 100.183 155.245 99.647 155.493 99.416 C 155.848 99.085 155.832 99.043 156.192 99.066 Z M 134.875 175.287 C 137.449 174.59 140.056 174.824 141.515 175.287 C 142.499 175.6 143.067 176.261 143.437 176.86 C 143.761 177.385 143.923 178.001 143.786 178.607 C 143.622 179.33 143.475 179.931 142.214 180.879 C 139.262 183.097 124.58 190.546 121.246 190.664 C 119.821 190.714 119.395 189.708 118.974 189.091 C 118.621 188.574 118.417 188.106 118.625 187.344 C 118.977 186.054 120.43 183.662 122.469 181.927 C 125.223 179.585 131.398 176.229 134.875 175.287 Z M 115.305 262.653 C 117.854 262.082 120.875 262.194 123.343 263.002 C 125.828 263.815 128.286 265.541 130.157 267.545 C 132.107 269.634 134.64 273.652 134.7 275.408 C 134.737 276.499 133.697 277.264 133.128 277.679 C 132.689 277.999 132.247 278.139 131.73 278.029 C 131.059 277.886 130.31 277.298 129.458 276.456 C 128.206 275.22 126.593 272.098 125.09 270.69 C 123.841 269.52 122.677 268.657 121.246 268.244 C 119.774 267.818 118.008 267.745 116.353 268.244 C 114.462 268.815 112.153 270.303 110.587 271.913 C 108.995 273.551 108.008 277.156 106.918 278.029 C 106.292 278.53 105.777 278.516 105.171 278.378 C 104.448 278.215 103.314 277.375 102.899 276.806 C 102.579 276.367 102.375 276.148 102.55 275.408 C 102.936 273.774 105.702 268.648 107.966 266.497 C 110.031 264.534 112.726 263.23 115.305 262.653 Z M 207.912 261.604 C 209.695 261.308 211.046 261.347 212.805 261.954 C 214.994 262.709 218.204 264.34 219.969 266.497 C 221.82 268.76 223.558 273.51 223.463 275.408 C 223.405 276.562 222.46 277.264 221.891 277.679 C 221.452 277.999 221.01 278.139 220.493 278.029 C 219.822 277.886 219.016 277.398 218.221 276.456 C 216.974 274.979 215.943 270.463 214.202 268.943 C 212.739 267.664 210.791 267.092 208.961 267.196 C 206.962 267.309 204.812 268.616 202.67 269.991 C 200.168 271.599 196.737 276.36 194.982 276.631 C 193.94 276.792 193.126 275.628 192.711 275.058 C 192.391 274.619 192.225 274.279 192.361 273.661 C 192.589 272.629 194.379 270.081 195.157 269.292 C 195.619 268.824 195.819 269.019 196.38 268.593 C 197.394 267.824 199.102 265.54 200.923 264.4 C 202.893 263.166 205.796 261.955 207.912 261.604 Z M 244.256 130.556 C 245.626 130.317 252.448 129.97 254.39 130.556 C 255.497 130.89 255.947 131.574 256.312 132.129 C 256.607 132.575 256.772 133.01 256.662 133.527 C 256.519 134.198 256.177 135.296 255.089 135.798 C 253.234 136.655 246.711 136.668 244.606 136.148 C 243.371 135.843 242.749 135.145 242.334 134.575 C 242.014 134.136 241.874 133.695 241.985 133.177 C 242.127 132.506 243.119 131.311 243.557 130.906 C 243.821 130.661 243.765 130.642 244.256 130.556 Z M 122.049 147.67 C 123.075 147.533 123.335 147.496 123.873 147.67 C 124.395 147.84 124.948 148.174 125.241 148.673 C 125.577 149.247 125.754 150.397 125.605 151.045 C 125.476 151.609 125.4 151.963 124.602 152.413 C 122.826 153.415 114.844 154.995 112.382 155.331 C 111.08 155.509 110.509 155.544 109.828 155.331 C 109.25 155.15 108.753 154.827 108.46 154.328 C 108.124 153.755 107.947 152.604 108.095 151.957 C 108.225 151.393 108.288 151.036 109.099 150.589 C 110.945 149.57 119.779 147.973 122.049 147.67 Z" style="fill: rgb(5, 14, 26); fill-opacity: 1; fill-rule: nonzero; stroke: rgb(5, 14, 26); stroke-dasharray: none; stroke-dashoffset: 0px; stroke-linecap: butt; stroke-linejoin: miter; stroke-miterlimit: 4; stroke-opacity: 1; stroke-width: 0px; paint-order: normal; vector-effect: none; opacity: 1; mix-blend-mode: normal; isolation: auto;"/><path fill="rgb(255,0,0)" stroke="rgb(255,0,0)" stroke-width="0" opacity="0.9764705882352941" d="M 139.453 207.449 C 142.459 207.138 150.402 207.493 154.412 209.262 C 157.979 210.834 160.295 213.885 162.799 216.741 C 165.375 219.681 167.345 222.476 169.598 226.714 C 172.492 232.157 176.248 240.248 178.211 247.566 C 180.216 255.041 182.177 266.662 181.384 271.138 C 180.952 273.578 179.709 274.422 178.438 275.445 C 177.2 276.441 175.904 275.022 173.452 275.445 C 168.812 276.245 158.037 276.564 153.505 275.444 C 151.045 274.837 146.431 276.01 145.573 274.765 C 144.788 273.625 144.721 271.948 144.666 270.685 C 144.617 269.549 145.141 268.465 145.12 267.512 C 145.101 266.676 144.702 266.172 144.666 265.245 C 144.619 264.029 145.217 262.603 145.12 260.712 C 144.986 258.108 144.626 255.049 143.306 250.739 C 141.313 244.226 133.866 230.975 132.427 224.448 C 131.481 220.156 131.625 217.192 132.427 214.475 C 133.117 212.136 134.935 209.963 136.28 208.808 C 137.303 207.931 137.786 207.62 139.453 207.449 Z" style="fill: rgb(242, 242, 218); fill-opacity: 1; fill-rule: nonzero; stroke: rgb(5, 14, 26); stroke-dasharray: none; stroke-dashoffset: 0px; stroke-linecap: butt; stroke-linejoin: miter; stroke-miterlimit: 4; stroke-opacity: 1; stroke-width: 5px; paint-order: normal; vector-effect: none; opacity: 1; mix-blend-mode: normal; isolation: auto;"/><path fill="rgb(255,0,0)" stroke="rgb(255,0,0)" stroke-width="0" opacity="0.8980392156862745" d="M 112.962 266.283 C 113.591 266.329 114.938 266.406 115.573 267.357 C 116.594 268.89 117.054 274.711 116.801 276.57 C 116.657 277.627 116.236 278.131 115.726 278.566 C 115.246 278.975 114.503 279.238 113.884 279.18 C 113.224 279.119 112.396 278.967 111.887 278.106 C 110.993 276.591 110.344 270.839 110.659 268.893 C 110.851 267.708 111.58 266.989 112.041 266.59 C 112.348 266.324 112.552 266.252 112.962 266.283 Z M 122.482 265.975 C 123.11 266.022 124.509 266.106 125.092 267.05 C 126.017 268.547 126.024 274.139 125.707 275.956 C 125.523 277.006 125.142 277.517 124.632 277.952 C 124.152 278.361 123.409 278.624 122.789 278.566 C 122.13 278.505 121.258 278.347 120.793 277.491 C 119.989 276.011 119.797 270.487 120.179 268.586 C 120.415 267.41 121.1 266.682 121.561 266.283 C 121.868 266.017 122.072 265.945 122.482 265.975 Z M 203.554 265.361 C 204.182 265.408 205.584 265.513 206.164 266.436 C 207.058 267.859 207.08 272.995 206.778 274.728 C 206.599 275.758 206.214 276.289 205.704 276.724 C 205.224 277.132 204.481 277.395 203.861 277.338 C 203.202 277.276 202.328 277.101 201.865 276.263 C 201.087 274.855 200.888 269.784 201.251 267.972 C 201.482 266.818 202.172 266.068 202.633 265.668 C 202.94 265.403 203.144 265.331 203.554 265.361 Z M 211.538 264.747 C 212.167 264.794 213.538 264.859 214.149 265.822 C 215.144 267.391 215.367 273.442 215.07 275.342 C 214.903 276.41 214.505 276.903 213.995 277.338 C 213.515 277.746 212.772 278.01 212.152 277.952 C 211.493 277.891 210.644 277.749 210.156 276.877 C 209.288 275.327 208.873 269.346 209.235 267.357 C 209.453 266.161 210.156 265.453 210.617 265.054 C 210.924 264.788 211.128 264.717 211.538 264.747 Z" style="fill: rgb(5, 14, 26); fill-opacity: 1; fill-rule: nonzero; stroke: rgb(5, 14, 26); stroke-dasharray: none; stroke-dashoffset: 0px; stroke-linecap: butt; stroke-linejoin: miter; stroke-miterlimit: 4; stroke-opacity: 1; stroke-width: 0px; paint-order: normal; vector-effect: none; opacity: 1; mix-blend-mode: normal; isolation: auto;"/></svg>