<?xml version="1.0" encoding="utf-8"?>
<svg xmlns="http://www.w3.org/2000/svg" viewBox="0 0 320 320" width="320px" height="320px" xmlns:bx="https://boxy-svg.com"><defs><bx:export><bx:file format="svg"/></bx:export></defs><path stroke="rgb(255,0,0)" stroke-width="0" opacity="0.9803921568627451" d="M 212.143 99.72 C 215.001 99.426 219.108 99.482 221.617 100.277 C 223.682 100.932 225.449 102.038 226.493 103.482 C 227.51 104.889 228.084 107.253 227.886 108.776 C 227.711 110.127 226.921 111.45 225.796 112.259 C 224.504 113.188 222.105 113.687 220.224 113.652 C 218.298 113.617 216.746 111.665 214.372 111.98 C 211.062 112.421 203.54 116.801 201.972 118.389 C 201.267 119.104 201.114 119.154 201.415 120.2 C 202.213 122.978 211.002 135.172 214.093 137.894 C 215.701 139.31 216.042 139.072 217.994 139.566 C 221.269 140.395 228.675 139.616 233.32 141.517 C 238.02 143.441 244.661 149.797 245.998 151.13 C 246.405 151.536 246.187 151.57 246.416 151.827 C 246.744 152.194 247.374 152.416 247.949 153.081 C 248.823 154.09 250.478 156.244 251.014 157.818 C 251.49 159.215 251.515 160.523 251.293 161.997 C 251.042 163.659 250.428 165.357 249.342 167.292 C 247.959 169.756 245.397 173.354 243.072 175.512 C 240.947 177.485 239.362 178.616 236.106 179.97 C 231.434 181.914 220.126 183.267 216.322 184.986 C 214.197 185.946 213.508 186.661 212.561 187.911 C 211.586 189.199 210.209 190.835 210.61 192.648 C 211.175 195.202 216.724 199.839 218.552 201.704 C 219.622 202.796 220.091 202.912 220.92 203.794 C 221.929 204.867 222.132 206.411 224.125 207.835 C 227.575 210.299 238.162 213.289 242.794 215.915 C 246.218 217.856 249.017 219.998 250.457 221.628 C 251.376 222.668 251.591 223.245 251.85 224.414 C 252.177 225.889 252.364 227.649 251.85 229.987 C 251.096 233.413 249.088 237.97 246.277 243.362 C 242.389 250.819 233.436 267.412 229.14 271.087 C 227.036 272.888 225.369 272.678 223.846 272.48 C 222.494 272.305 221.172 271.496 220.363 270.391 C 219.451 269.145 218.384 267.802 218.97 265.096 C 220.177 259.522 232.67 242.75 235.967 236.396 C 237.874 232.72 240.391 230.811 239.311 228.594 C 237.871 225.637 227.622 224.03 223.289 221.767 C 219.805 219.948 217.083 218.361 214.79 216.333 C 212.729 214.511 210.991 211.435 209.914 210.342 C 209.341 209.762 209.299 209.996 208.66 209.367 C 207.26 207.99 202.675 202.245 201.276 200.868 C 200.636 200.239 200.423 200.441 200.022 199.893 C 199.427 199.082 198.656 197.565 198.35 195.992 C 197.977 194.075 197.664 191.566 198.35 189.026 C 199.2 185.878 201.723 181.213 204.062 178.577 C 206.135 176.24 208.016 174.99 211.307 173.561 C 215.749 171.632 225.273 170.633 229.419 169.103 C 232.135 168.1 233.7 167.419 235.131 166.038 C 236.482 164.733 237.995 162.435 237.918 161.161 C 237.856 160.15 236.889 159.745 235.828 158.793 C 234.189 157.323 231.565 154.481 228.304 153.22 C 224.32 151.679 217.222 152.754 212.979 151.269 C 209.315 149.988 207.021 148.557 203.923 145.557 C 199.792 141.559 193.483 131.822 191.105 127.724 C 189.714 125.327 189.233 124.164 188.876 122.43 C 188.545 120.824 188.364 119.522 188.876 117.693 C 189.567 115.223 191.302 111.473 193.752 108.915 C 196.513 106.033 201.833 103.197 205.177 101.67 C 207.78 100.482 209.579 99.984 212.143 99.72 Z" style="fill-opacity: 1; fill-rule: nonzero; stroke: rgb(5, 14, 26); stroke-dasharray: none; stroke-dashoffset: 0px; stroke-linecap: butt; stroke-linejoin: miter; stroke-miterlimit: 4; stroke-opacity: 1; stroke-width: 5px; paint-order: normal; vector-effect: none; opacity: 1; mix-blend-mode: normal; isolation: auto; fill: rgb(235, 117, 143);"><title>tail</title></path><path stroke="rgb(255,0,0)" stroke-width="0" opacity="0.984313725490196" d="M 85.013 110.231 C 86.467 109.882 88.652 109.586 90.517 110.231 C 92.726 110.994 95.622 113.658 97.271 115.234 C 98.551 116.457 99.223 117.975 100.023 118.736 C 100.58 119.267 100.854 119.276 101.524 119.737 C 102.547 120.441 104.572 121.684 105.776 122.739 C 106.869 123.695 107.94 124.909 108.528 125.741 C 108.94 126.324 108.753 126.605 109.279 127.242 C 110.223 128.386 113.087 130.095 114.782 131.995 C 116.612 134.045 118.577 138.106 119.785 139.249 C 120.407 139.838 120.772 139.534 121.286 140 C 122.01 140.656 122.864 142.593 123.538 143.252 C 123.989 143.693 124.161 143.466 124.788 144.002 C 126.176 145.188 130.484 150.347 132.043 151.757 C 132.866 152.501 133.226 152.525 133.794 153.008 C 134.395 153.518 134.798 154.095 135.545 154.759 C 136.519 155.624 138.572 156.904 139.297 157.761 C 139.774 158.323 139.665 158.82 140.048 159.262 C 140.47 159.75 141.332 160.033 141.799 160.512 C 142.234 160.959 142.128 161.265 142.8 162.013 C 144.242 163.621 150.49 168.649 151.805 170.268 C 152.4 171 152.029 171.112 152.556 171.769 C 153.529 172.984 157.331 176.096 158.309 177.023 C 158.75 177.44 158.74 177.411 159.06 177.773 C 159.558 178.336 159.787 179.009 161.061 180.275 C 163.814 183.01 172.86 189.197 177.821 194.534 C 182.783 199.871 188.656 210.221 190.829 212.295 C 191.606 213.035 191.917 212.679 192.33 213.045 C 192.756 213.422 192.908 213.866 193.331 214.546 C 193.964 215.562 195.161 218.005 195.833 218.799 C 196.22 219.257 196.418 219.038 196.833 219.549 C 197.669 220.577 199.245 224.592 200.335 225.803 C 201.034 226.579 201.538 226.229 202.337 227.054 C 203.756 228.519 206.751 234.074 207.84 235.309 C 208.316 235.848 208.42 235.652 208.841 236.059 C 209.527 236.724 210.981 238.639 211.592 239.311 C 211.943 239.697 211.874 239.485 212.343 240.062 C 213.825 241.885 221.686 253.483 223.35 255.321 C 223.913 255.943 223.744 255.324 224.35 256.072 C 226.676 258.937 239.367 278.199 243.362 286.591 C 246.273 292.706 248.801 298.878 248.365 302.101 C 248.094 304.104 246.973 305.059 245.113 305.853 C 242.338 307.038 238.423 306.311 231.605 306.353 C 219.225 306.43 192.338 305.137 171.567 305.353 C 149.725 305.579 116.783 308.208 103.525 307.854 C 96.669 307.671 93.243 307.426 90.517 306.353 C 88.777 305.669 87.906 304.868 87.265 303.602 C 86.553 302.197 86.858 301.291 86.765 298.098 C 86.554 290.875 87.87 263.623 87.265 255.572 C 86.96 251.517 86.155 252.34 85.764 248.067 C 84.919 238.832 85.727 210.176 84.763 195.534 C 84.148 186.182 82.684 180.322 81.794 172.367 C 81.575 171.596 81.393 170.816 81.261 170.018 C 80.501 165.427 80.31 161.795 80.904 156.987 C 80.457 141.153 80.542 118.858 81.261 113.983 C 81.519 112.237 81.691 112.341 82.262 111.732 C 82.891 111.061 83.853 110.509 85.013 110.231 Z" style="fill-opacity: 1; fill-rule: nonzero; stroke: rgb(5, 14, 26); stroke-dasharray: none; stroke-dashoffset: 0px; stroke-linecap: butt; stroke-linejoin: miter; stroke-miterlimit: 4; stroke-opacity: 1; stroke-width: 5px; paint-order: normal; vector-effect: none; opacity: 1; mix-blend-mode: normal; isolation: auto; fill: rgb(166, 154, 156);"><title>body</title></path><path stroke-width="0" opacity="0.9882352941176471" d="M 79.51 89.718 C 83.434 88.95 85.775 89.041 89.516 89.718 C 94.082 90.544 101.551 93.247 105.026 95.222 C 107.404 96.573 108.709 97.221 109.779 99.474 C 111.248 102.568 112.254 109.175 111.28 113.483 C 110.313 117.758 107.247 122.194 104.025 125.24 C 100.819 128.273 96.18 130.591 92.018 131.744 C 87.998 132.858 83.587 132.824 79.51 132.245 C 75.415 131.663 70.915 130.342 67.503 128.242 C 64.198 126.209 60.945 122.267 59.247 119.987 C 58.091 118.434 57.647 117.889 57.246 115.985 C 56.641 113.112 56.415 106.857 57.246 103.477 C 57.932 100.689 58.533 98.71 60.999 96.723 C 64.591 93.827 74.355 90.727 79.51 89.718 Z" style="fill-opacity: 1; fill-rule: nonzero; stroke: rgb(5, 14, 26); stroke-dasharray: none; stroke-dashoffset: 0px; stroke-linecap: butt; stroke-linejoin: miter; stroke-miterlimit: 4; stroke-opacity: 1; stroke-width: 5px; paint-order: normal; vector-effect: none; opacity: 1; mix-blend-mode: normal; isolation: auto; fill: rgb(235, 117, 143);" stroke="rgb(255,0,0)"/><path stroke="rgb(255,0,0)" opacity="0.9607843137254902" d="M 49.487 102.722 C 53.377 102.53 59.087 101.931 60.244 103.222 C 61.072 104.147 60.654 106.653 58.993 107.725 C 55.874 109.737 39.598 110.89 36.479 109.226 C 34.817 108.339 34.303 105.805 35.228 104.723 C 36.679 103.026 45.118 102.937 49.487 102.722 Z" style="fill-opacity: 1; fill-rule: nonzero; stroke: rgb(5, 14, 26); stroke-dasharray: none; stroke-dashoffset: 0px; stroke-linecap: butt; stroke-linejoin: miter; stroke-miterlimit: 4; stroke-opacity: 1; paint-order: normal; vector-effect: none; opacity: 1; mix-blend-mode: normal; isolation: auto; stroke-width: 0px; fill: rgb(5, 14, 26);"/><path stroke="rgb(255,0,0)" opacity="0.9098039215686274" d="M 59.493 107.725 C 61.207 107.295 62.754 107.445 63.246 108.225 C 63.801 109.108 63.358 111.522 61.995 113.228 C 59.871 115.886 50.748 119.738 48.736 121.484 C 47.826 122.273 48.289 122.559 47.486 123.235 C 46.051 124.442 40.95 128.224 39.481 127.737 C 38.337 127.358 37.703 124.479 38.23 122.985 C 38.864 121.186 43.048 119.217 44.234 117.981 C 44.941 117.244 45.116 116.67 45.484 116.23 C 45.762 115.899 45.661 115.893 46.235 115.48 C 47.907 114.277 56.493 108.479 59.493 107.725 Z" style="fill-opacity: 1; fill-rule: nonzero; stroke: rgb(5, 14, 26); stroke-dasharray: none; stroke-dashoffset: 0px; stroke-linecap: butt; stroke-linejoin: miter; stroke-miterlimit: 4; stroke-opacity: 1; paint-order: normal; vector-effect: none; opacity: 1; mix-blend-mode: normal; isolation: auto; stroke-width: 0px; fill: rgb(5, 14, 26);"/><path stroke="rgb(255,0,0)" opacity="0.9058823529411765" d="M 64.143 114.729 C 65.381 114.44 67.872 114.433 68.395 115.23 C 68.937 116.055 68.158 118.41 67.144 119.732 C 65.924 121.325 62.239 122.486 60.891 123.735 C 59.945 124.611 60.112 125.144 59.139 126.237 C 57.497 128.083 52.912 131.898 50.884 133.991 C 49.426 135.496 48.866 137.385 47.632 137.744 C 46.506 138.071 44.239 137.518 43.88 136.493 C 43.405 135.138 46.222 130.379 47.132 129.238 C 47.594 128.659 47.804 128.986 48.383 128.488 C 49.514 127.515 52.229 123.8 53.636 122.734 C 54.524 122.062 55.301 122.241 55.887 121.734 C 56.463 121.235 56.492 120.288 57.138 119.732 C 57.902 119.076 59.735 118.834 60.39 118.232 C 60.874 117.787 60.684 117.227 61.141 116.731 C 61.761 116.056 62.986 114.999 64.143 114.729 Z" style="fill-opacity: 1; fill-rule: nonzero; stroke: rgb(5, 14, 26); stroke-dasharray: none; stroke-dashoffset: 0px; stroke-linecap: butt; stroke-linejoin: miter; stroke-miterlimit: 4; stroke-opacity: 1; paint-order: normal; vector-effect: none; opacity: 1; mix-blend-mode: normal; isolation: auto; stroke-width: 0px; fill: rgb(5, 14, 26);"/><path stroke="rgb(255,0,0)" opacity="0.9137254901960784" d="M 108.023 75.705 C 109.39 75.347 111.753 75.409 112.276 76.205 C 112.818 77.031 111.465 79.882 111.025 80.708 C 110.782 81.165 110.637 81.139 110.275 81.459 C 109.712 81.957 108.83 82.425 107.773 83.46 C 106.088 85.11 103.593 89.411 101.019 91.215 C 98.629 92.89 94.485 94.847 93.014 94.217 C 91.859 93.722 91.184 90.92 91.763 89.714 C 92.433 88.319 96.766 87.483 97.767 86.712 C 98.278 86.318 98.28 86.097 98.518 85.711 C 98.784 85.277 98.952 84.595 99.268 84.21 C 99.549 83.869 99.832 83.92 100.269 83.46 C 101.08 82.603 102.438 80.019 103.771 78.707 C 105.038 77.46 106.546 76.092 108.023 75.705 Z" style="fill-opacity: 1; fill-rule: nonzero; stroke: rgb(5, 14, 26); stroke-dasharray: none; stroke-dashoffset: 0px; stroke-linecap: butt; stroke-linejoin: miter; stroke-miterlimit: 4; stroke-opacity: 1; paint-order: normal; vector-effect: none; opacity: 1; mix-blend-mode: normal; isolation: auto; stroke-width: 0px; fill: rgb(5, 14, 26);"/><path stroke="rgb(255,0,0)" opacity="0.9568627450980393" d="M 120.531 87.713 C 122.083 87.337 124.261 87.416 124.784 88.213 C 125.326 89.038 124.565 91.397 123.533 92.716 C 122.277 94.32 120.199 95.918 117.029 96.718 C 112.277 97.918 100.171 97.412 96.016 96.718 C 93.753 96.34 92.275 95.896 91.763 94.967 C 91.313 94.15 91.702 92.373 92.514 91.715 C 93.507 90.91 95.53 91.273 98.017 91.215 C 101.824 91.126 110.079 92.673 114.027 91.715 C 116.963 91.003 118.576 88.186 120.531 87.713 Z" style="fill-opacity: 1; fill-rule: nonzero; stroke: rgb(5, 14, 26); stroke-dasharray: none; stroke-dashoffset: 0px; stroke-linecap: butt; stroke-linejoin: miter; stroke-miterlimit: 4; stroke-opacity: 1; paint-order: normal; vector-effect: none; opacity: 1; mix-blend-mode: normal; isolation: auto; stroke-width: 0px; fill: rgb(5, 14, 26);"/><path stroke="rgb(255,0,0)" opacity="0.9176470588235294" d="M 122.032 77.706 C 123.818 77.116 125.365 77.389 125.785 78.207 C 126.302 79.216 125.304 82.062 123.533 84.21 C 120.798 87.529 112.519 93.009 108.023 95.217 C 104.64 96.879 100.637 98.534 99.018 97.719 C 97.742 97.076 97.043 93.943 97.767 92.716 C 98.616 91.277 102.058 91.827 105.022 90.214 C 109.465 87.796 118.48 78.881 122.032 77.706 Z M 150.081 108.985 C 151.022 108.98 152.75 109.36 154.1 110.707 C 155.529 112.133 158.13 116.156 159.582 119.31 C 162.349 119.444 166.459 119.976 167.498 120.851 C 168.345 121.564 168.138 122.942 167.881 123.722 C 167.642 124.45 166.979 125.127 166.159 125.445 C 165.137 125.841 163.387 125.505 161.948 125.445 C 160.455 125.382 158.44 125.535 157.354 125.062 C 156.651 124.755 156.095 124.288 155.786 123.7 C 153.054 120.713 148.723 112.326 148.359 110.707 C 148.219 110.085 148.498 110.022 148.741 109.75 C 149.028 109.43 149.461 108.988 150.081 108.985 Z" style="fill-opacity: 1; fill-rule: nonzero; stroke: rgb(5, 14, 26); stroke-dasharray: none; stroke-dashoffset: 0px; stroke-linecap: butt; stroke-linejoin: miter; stroke-miterlimit: 4; stroke-opacity: 1; paint-order: normal; vector-effect: none; opacity: 1; mix-blend-mode: normal; isolation: auto; fill: rgb(5, 14, 26); stroke-width: 0px;"/><path stroke="rgb(255,0,0)" stroke-width="0" opacity="0.9882352941176471" d="M 118.796 179.134 C 122.643 179.168 127.275 179.621 130.5 181.085 C 133.424 182.412 135.973 185.095 137.605 187.075 C 138.915 188.665 139.65 189.836 140.113 191.812 C 140.687 194.265 140.561 198.118 140.113 201.008 C 139.685 203.768 138.9 206.397 137.605 208.81 C 136.277 211.283 134.276 213.788 132.171 215.637 C 130.126 217.433 127.632 219.086 125.205 219.816 C 122.886 220.514 120.533 220.4 117.96 220.095 C 115.091 219.755 111.339 218.834 108.765 217.587 C 106.47 216.475 104.75 215.359 103.053 213.268 C 100.978 210.712 98.663 206.231 97.759 202.68 C 96.912 199.355 96.599 195.85 97.48 192.648 C 98.404 189.288 101.487 184.978 103.471 183.035 C 104.871 181.664 105.746 181.404 107.651 180.806 C 110.344 179.959 115.028 179.1 118.796 179.134 Z" style="fill-opacity: 1; fill-rule: nonzero; stroke: rgb(5, 14, 26); stroke-dasharray: none; stroke-dashoffset: 0px; stroke-linecap: butt; stroke-linejoin: miter; stroke-miterlimit: 4; stroke-opacity: 1; stroke-width: 5px; paint-order: normal; vector-effect: none; opacity: 1; mix-blend-mode: normal; isolation: auto; fill: rgb(235, 117, 143);"/><path stroke="rgb(255,0,0)" stroke-width="0" opacity="0.9529411764705882" d="M 110.035 181.266 C 111.107 181.274 113.287 182.131 114.076 182.798 C 114.64 183.276 114.707 183.458 114.912 184.47 C 115.357 186.676 115.77 195.087 115.19 197.567 C 114.876 198.908 114.438 199.401 113.658 199.935 C 112.786 200.532 111.071 200.94 110.035 200.771 C 109.108 200.619 108.207 199.828 107.667 199.238 C 107.209 198.738 107.035 198.579 106.831 197.567 C 106.386 195.361 105.972 186.95 106.552 184.47 C 106.866 183.129 107.459 182.639 108.085 182.102 C 108.643 181.622 109.229 181.26 110.035 181.266 Z" style="fill-opacity: 1; fill-rule: nonzero; stroke: rgb(5, 14, 26); stroke-dasharray: none; stroke-dashoffset: 0px; stroke-linecap: butt; stroke-linejoin: miter; stroke-miterlimit: 4; stroke-opacity: 1; stroke-width: 5px; paint-order: normal; vector-effect: none; opacity: 1; mix-blend-mode: normal; isolation: auto; fill: rgb(242, 242, 218); transform-box: fill-box; transform-origin: 50% 50%;" transform="matrix(0.984318, -0.176401, 0.176401, 0.984318, -0.000001, -0.000007)"/><path stroke="rgb(255,0,0)" stroke-width="0" opacity="0.9568627450980393" d="M 116.89 178.893 C 117.961 178.901 120.016 179.257 120.93 180.426 C 122.078 181.895 122.081 185.254 122.323 187.949 C 122.587 190.885 122.836 195.426 122.323 197.423 C 122.007 198.653 121.571 199.257 120.791 199.792 C 119.919 200.388 118.204 200.797 117.168 200.628 C 116.241 200.476 115.34 199.685 114.8 199.095 C 114.342 198.595 114.183 198.476 113.964 197.423 C 113.456 194.981 112.802 184.849 113.406 182.098 C 113.713 180.7 114.313 180.266 114.939 179.729 C 115.498 179.25 116.083 178.887 116.89 178.893 Z" style="fill-opacity: 1; fill-rule: nonzero; stroke: rgb(5, 14, 26); stroke-dasharray: none; stroke-dashoffset: 0px; stroke-linecap: butt; stroke-linejoin: miter; stroke-miterlimit: 4; stroke-opacity: 1; stroke-width: 5px; paint-order: normal; vector-effect: none; opacity: 1; mix-blend-mode: normal; isolation: auto; fill: rgb(242, 242, 218); transform-box: fill-box; transform-origin: 50% 50%;" transform="matrix(0.984318, -0.176401, 0.176401, 0.984318, 0.000003, 0.000002)"/><path stroke="rgb(255,0,0)" stroke-width="0" opacity="0.984313725490196" d="M 167.197 104.664 C 170.031 104.372 172.06 104.548 173.514 105.43 C 174.756 106.184 175.416 107.683 175.81 109.066 C 176.228 110.533 175.907 111.779 175.81 114.043 C 175.66 117.56 175.912 125.258 174.662 128.972 C 173.704 131.819 171.312 134.166 170.26 135.288 C 169.692 135.893 169.658 135.436 168.92 136.245 C 166.759 138.614 158.789 151.712 154.948 155.959 C 152.427 158.746 150.482 160.35 148.44 161.318 C 146.83 162.082 145.268 162.417 143.847 162.084 C 142.392 161.743 140.648 160.094 139.827 159.213 C 139.259 158.603 139.526 158.098 138.87 157.49 C 137.796 156.495 133.98 155.523 132.937 154.237 C 132.15 153.267 132.802 151.91 132.171 150.983 C 131.478 149.962 129.442 149.728 128.726 148.495 C 127.916 147.098 127.107 145.683 127.961 142.753 C 129.785 136.488 141.012 116.067 148.632 110.023 C 154.402 105.446 162.779 105.12 167.197 104.664 Z" style="fill-opacity: 1; fill-rule: nonzero; stroke: rgb(5, 14, 26); stroke-dasharray: none; stroke-dashoffset: 0px; stroke-linecap: butt; stroke-linejoin: miter; stroke-miterlimit: 4; stroke-opacity: 1; stroke-width: 5px; paint-order: normal; vector-effect: none; opacity: 1; mix-blend-mode: normal; isolation: auto; fill: rgb(242, 242, 218);"/><path fill="rgb(255,0,0)" stroke="rgb(255,0,0)" stroke-width="0" opacity="0.9137254901960784" d="M 150.464 108.219 C 151.274 108.127 152.729 107.853 153.718 108.985 C 154.867 110.3 156.635 115.008 157.647 119.047 C 157.673 119.008 157.703 118.971 157.737 118.937 C 157.992 118.682 158.416 118.631 158.694 118.363 C 158.997 118.071 159.134 117.503 159.46 117.215 C 159.776 116.934 160.28 116.98 160.608 116.641 C 161.01 116.225 161.192 115.145 161.565 114.727 C 161.852 114.405 162.093 114.551 162.522 114.152 C 163.369 113.365 165.061 110.691 166.35 109.367 C 167.488 108.199 169.228 107.303 169.795 106.496 C 170.151 105.991 169.903 105.505 170.178 105.157 C 170.465 104.794 170.923 104.459 171.518 104.391 C 172.328 104.299 174.159 104.453 174.772 105.157 C 175.406 105.887 175.599 107.557 175.154 108.793 C 174.594 110.35 171.868 112.532 170.752 113.578 C 170.031 114.254 169.91 114.086 169.03 114.918 C 167.775 116.104 164.877 119.812 162.39 122.543 C 167.377 123.41 173.057 124.729 174.389 125.828 C 175.429 126.687 175.028 127.918 174.772 128.699 C 174.532 129.427 173.846 130.108 173.049 130.421 C 172.093 130.796 171.061 130.666 169.221 130.421 C 166.049 130 157.056 128.15 154.675 126.976 C 153.522 126.408 153.192 125.982 152.952 125.254 C 152.91 125.126 152.882 124.98 152.866 124.822 C 151.687 123.118 150.538 120.582 149.89 118.746 C 148.916 115.987 148.643 111.344 148.741 109.942 C 148.783 109.349 148.88 109.257 149.124 108.985 C 149.41 108.665 149.869 108.287 150.464 108.219 Z M 75.911 99.373 C 76.534 99.426 78.355 100.249 78.881 100.945 C 79.319 101.525 79.393 102.351 79.231 103.042 C 79.051 103.809 78.228 104.898 77.658 105.313 C 77.219 105.633 76.778 105.773 76.26 105.663 C 75.589 105.52 74.416 104.747 73.989 104.09 C 73.605 103.499 73.477 102.684 73.64 101.994 C 73.82 101.226 74.774 100.127 75.212 99.722 C 75.476 99.477 75.564 99.343 75.911 99.373 Z M 92.685 102.867 C 93.308 102.921 94.809 103.546 95.656 104.44 C 96.684 105.525 98.141 108.062 98.102 109.332 C 98.072 110.298 97.146 111.183 96.529 111.604 C 96.012 111.957 95.464 112.154 94.782 111.953 C 93.775 111.656 91.827 110.138 91.113 108.983 C 90.474 107.95 90.219 106.481 90.414 105.488 C 90.589 104.591 91.548 103.622 91.986 103.217 C 92.251 102.972 92.338 102.837 92.685 102.867 Z M 72.416 113.002 C 73.039 113.055 74.665 113.733 75.387 114.574 C 76.167 115.484 76.901 117.35 76.785 118.418 C 76.686 119.331 75.782 120.275 75.212 120.69 C 74.773 121.009 74.331 121.149 73.814 121.039 C 73.143 120.896 72.135 120.254 71.543 119.467 C 70.85 118.545 70.029 116.691 70.145 115.623 C 70.244 114.71 71.279 113.756 71.717 113.351 C 71.982 113.106 72.069 112.972 72.416 113.002 Z M 104.567 125.582 C 105.983 125.388 107.642 126.525 108.236 127.155 C 108.631 127.574 108.696 128.035 108.586 128.553 C 108.574 128.61 108.56 128.668 108.543 128.725 C 108.6 128.717 108.669 128.719 108.76 128.727 C 110.355 128.533 111.529 129.685 112.08 130.3 C 112.459 130.723 112.556 131.163 112.43 131.698 C 112.354 132.02 112.195 132.365 111.947 132.736 C 110.965 134.97 106.971 140.118 104.567 142.007 C 102.605 143.548 100.885 144.02 98.626 144.453 C 96.071 144.942 92.609 144.586 89.889 144.453 C 87.398 144.331 84.501 144.3 82.9 143.754 C 81.798 143.378 81.044 142.751 80.629 142.182 C 80.309 141.743 80.169 141.301 80.279 140.784 C 80.422 140.113 81.073 138.959 81.852 138.512 C 82.043 138.403 82.239 138.325 82.447 138.272 C 81.612 137.868 80.989 137.356 80.629 136.94 C 80.241 136.492 80.169 136.059 80.279 135.542 C 80.422 134.871 81.16 133.703 81.852 133.27 C 82.514 132.857 83.211 132.959 84.298 132.921 C 85.913 132.864 88.77 133.61 90.938 133.27 C 93.14 132.925 96.469 131.443 97.403 130.824 C 97.811 130.553 97.538 130.472 97.927 130.125 C 98.873 129.283 102.692 125.839 104.567 125.582 Z M 236.139 262.901 C 236.109 263.867 235.136 264.757 234.566 265.172 C 234.127 265.492 233.685 265.632 233.168 265.522 C 232.497 265.379 231.547 264.656 230.897 263.949 C 230.187 263.177 229.868 261.804 229.15 260.979 C 228.46 260.186 227.417 259.948 226.703 259.057 C 225.863 258.007 224.561 256.006 224.607 254.863 C 224.643 253.939 225.741 252.997 226.179 252.592 C 226.382 252.404 226.472 252.268 226.667 252.238 C 226.677 252.183 226.69 252.126 226.703 252.067 C 226.867 251.345 227.838 250.201 228.276 249.796 C 228.54 249.551 228.547 249.337 228.975 249.447 C 230.176 249.755 235.94 254.111 237.187 255.737 C 237.88 256.639 238.005 257.273 237.886 258.008 C 237.759 258.79 236.883 259.865 236.313 260.28 C 236.006 260.504 235.783 260.703 235.44 260.72 C 235.858 261.537 236.156 262.336 236.139 262.901 Z M 238.41 234.07 C 239.793 234.272 247.493 238.191 248.719 239.487 C 249.251 240.049 249.179 240.368 249.069 240.885 C 248.926 241.556 248.153 242.729 247.496 243.156 C 246.905 243.541 246.401 243.76 245.399 243.506 C 243.508 243.025 237.591 239.36 236.488 238.089 C 235.988 237.513 236.029 237.208 236.139 236.691 C 236.282 236.02 237.273 234.825 237.711 234.42 C 237.976 234.175 237.941 234.002 238.41 234.07 Z M 227.227 206.463 C 227.896 206.506 229.964 207.279 230.547 208.035 C 231.045 208.681 231.082 209.711 230.897 210.482 C 230.703 211.288 229.902 212.219 229.324 212.753 C 228.838 213.203 228.358 213.005 227.752 213.627 C 226.672 214.734 224.787 219.211 223.733 220.092 C 223.191 220.545 222.852 220.551 222.335 220.441 C 221.664 220.298 220.496 219.561 220.064 218.869 C 219.65 218.207 219.366 217.552 219.714 216.422 C 220.364 214.314 225.439 207.879 226.529 206.812 C 226.896 206.452 226.868 206.44 227.227 206.463 Z M 219.889 171.167 C 220.511 171.221 222.109 171.646 222.859 172.74 C 223.95 174.331 224.884 179.312 224.607 181.127 C 224.43 182.281 223.604 182.984 223.034 183.398 C 222.595 183.718 222.153 183.858 221.636 183.748 C 220.965 183.605 219.971 183.187 219.365 182.175 C 218.41 180.585 217.34 175.603 217.617 173.788 C 217.794 172.634 218.752 171.922 219.19 171.517 C 219.454 171.272 219.541 171.137 219.889 171.167 Z M 200.319 186.194 C 201.467 185.987 206.082 185.64 208.007 186.194 C 209.493 186.621 210.78 187.741 211.327 188.466 C 211.69 188.946 211.787 189.346 211.676 189.863 C 211.534 190.534 210.72 191.714 210.104 192.135 C 209.587 192.488 209.24 192.456 208.357 192.484 C 206.768 192.536 202.377 192.354 200.668 191.786 C 199.536 191.409 198.812 190.783 198.397 190.213 C 198.077 189.774 197.937 189.332 198.048 188.815 C 198.19 188.144 199.182 186.949 199.62 186.544 C 199.884 186.299 199.859 186.277 200.319 186.194 Z M 221.636 140.065 C 222.259 140.119 223.956 140.536 224.607 141.638 C 225.546 143.229 225.713 148.213 225.305 150.025 C 225.044 151.186 224.302 151.882 223.733 152.296 C 223.294 152.616 222.852 152.756 222.335 152.646 C 221.664 152.503 220.583 152.092 220.064 151.073 C 219.252 149.483 218.957 144.498 219.365 142.686 C 219.626 141.526 220.499 140.82 220.937 140.415 C 221.202 140.17 221.289 140.035 221.636 140.065 Z M 199.97 116.651 C 201.528 116.764 203.045 117.594 203.639 118.224 C 204.034 118.643 204.098 119.105 203.988 119.622 C 203.846 120.293 203.464 121.289 202.416 121.893 C 200.69 122.888 194.944 123.957 192.98 123.641 C 191.787 123.448 191.124 122.638 190.709 122.068 C 190.389 121.629 190.249 121.187 190.359 120.67 C 190.502 119.999 190.934 119.006 191.932 118.399 C 193.476 117.459 197.888 116.501 199.97 116.651 Z M 145.803 161.033 C 145.286 161.386 144.662 161.52 144.056 161.382 C 143.333 161.219 142.475 160.438 141.784 159.81 C 141.073 159.163 140.489 158.145 139.862 157.538 C 139.328 157.022 138.656 156.634 138.29 156.315 C 138.043 156.1 138.1 156.147 137.766 155.791 C 136.822 154.787 132.728 150.027 131.126 148.452 C 130.135 147.479 129.279 147.256 128.854 146.53 C 128.483 145.896 128.342 145.124 128.505 144.434 C 128.685 143.666 129.639 142.567 130.077 142.162 C 130.158 142.087 130.223 142.022 130.283 141.97 C 130.049 141.449 129.905 140.973 129.903 140.59 C 129.897 139.594 131.037 138.723 131.475 138.318 C 131.74 138.073 131.797 137.94 132.174 137.969 C 132.932 138.026 134.955 138.813 136.193 139.891 C 137.679 141.184 138.498 143.929 140.212 145.657 C 142.052 147.511 145.881 149.403 147.026 150.549 C 147.624 151.147 147.476 151.554 147.9 151.947 C 148.374 152.388 149.415 152.59 149.822 152.995 C 150.139 153.311 150.044 153.678 150.346 154.044 C 150.754 154.538 151.832 154.92 152.268 155.616 C 152.731 156.355 153.12 157.562 152.967 158.412 C 152.816 159.248 151.964 160.269 151.395 160.684 C 150.956 161.003 150.514 161.143 149.997 161.033 C 149.326 160.89 148.259 160.038 147.725 159.46 C 147.504 159.221 147.451 159.011 147.374 158.774 C 147.249 159.534 146.417 160.614 145.803 161.033 Z M 151.744 128.533 C 152.413 128.576 154.513 129.491 155.064 130.106 C 155.443 130.529 155.629 130.748 155.413 131.504 C 155.287 131.945 154.881 132.718 154.318 133.65 C 156.006 134.975 157.397 136.164 157.86 136.745 C 158.387 137.408 158.319 137.626 158.209 138.143 C 158.066 138.814 157.253 139.994 156.636 140.415 C 156.119 140.768 155.785 141.066 154.889 140.764 C 154.16 140.519 152.715 139.586 151.098 138.406 C 149.921 139.999 148.817 141.35 148.249 141.813 C 147.624 142.323 147.369 142.272 146.852 142.162 C 146.181 142.019 145.007 141.246 144.58 140.59 C 144.196 139.998 144.169 139.167 144.231 138.493 C 144.291 137.829 144.641 136.981 144.929 136.571 C 145.135 136.279 145.26 136.438 145.628 136.047 C 145.837 135.825 146.176 135.388 146.588 134.833 C 145.31 133.735 144.287 132.76 143.881 132.202 C 143.309 131.415 143.394 131.062 143.532 130.455 C 143.695 129.732 144.666 128.589 145.104 128.184 C 145.369 127.939 145.335 127.709 145.803 127.834 C 146.367 127.985 147.98 129.012 149.857 130.333 C 150.37 129.65 150.797 129.114 151.045 128.883 C 151.4 128.552 151.384 128.51 151.744 128.533 Z M 130.427 204.754 C 133.001 204.057 135.608 204.291 137.067 204.754 C 138.051 205.067 138.619 205.728 138.989 206.327 C 139.313 206.852 139.475 207.468 139.338 208.074 C 139.174 208.797 139.027 209.398 137.766 210.346 C 134.814 212.564 120.132 220.013 116.798 220.131 C 115.373 220.181 114.947 219.175 114.526 218.558 C 114.173 218.041 113.969 217.573 114.177 216.811 C 114.529 215.521 115.982 213.129 118.021 211.394 C 120.775 209.052 126.95 205.696 130.427 204.754 Z M 110.857 292.12 C 113.406 291.549 116.427 291.661 118.895 292.469 C 121.38 293.282 123.838 295.008 125.709 297.012 C 127.659 299.101 130.192 303.119 130.252 304.875 C 130.289 305.966 129.249 306.731 128.68 307.146 C 128.241 307.466 127.799 307.606 127.282 307.496 C 126.611 307.353 125.862 306.765 125.01 305.923 C 123.758 304.687 122.145 301.565 120.642 300.157 C 119.393 298.987 118.229 298.124 116.798 297.711 C 115.326 297.285 113.56 297.212 111.905 297.711 C 110.014 298.282 107.705 299.77 106.139 301.38 C 104.547 303.018 103.56 306.623 102.47 307.496 C 101.844 307.997 101.329 307.983 100.723 307.845 C 100 307.682 98.866 306.842 98.451 306.273 C 98.131 305.834 97.927 305.615 98.102 304.875 C 98.488 303.241 101.254 298.115 103.518 295.964 C 105.583 294.001 108.278 292.697 110.857 292.12 Z M 203.464 291.071 C 205.247 290.775 206.598 290.814 208.357 291.421 C 210.546 292.176 213.756 293.807 215.521 295.964 C 217.372 298.227 219.11 302.977 219.015 304.875 C 218.957 306.029 218.012 306.731 217.443 307.146 C 217.004 307.466 216.562 307.606 216.045 307.496 C 215.374 307.353 214.568 306.865 213.773 305.923 C 212.526 304.446 211.495 299.93 209.754 298.41 C 208.291 297.131 206.343 296.559 204.513 296.663 C 202.514 296.776 200.364 298.083 198.222 299.458 C 195.72 301.066 192.289 305.827 190.534 306.098 C 189.492 306.259 188.678 305.095 188.263 304.525 C 187.943 304.086 187.777 303.746 187.913 303.128 C 188.141 302.096 189.931 299.548 190.709 298.759 C 191.171 298.291 191.371 298.486 191.932 298.06 C 192.946 297.291 194.654 295.007 196.475 293.867 C 198.445 292.633 201.348 291.422 203.464 291.071 Z M 239.808 160.023 C 241.178 159.784 248 159.437 249.942 160.023 C 251.049 160.357 251.499 161.041 251.864 161.596 C 252.159 162.042 252.324 162.477 252.214 162.994 C 252.071 163.665 251.729 164.763 250.641 165.265 C 248.786 166.122 242.263 166.135 240.158 165.615 C 238.923 165.31 238.301 164.612 237.886 164.042 C 237.566 163.603 237.426 163.162 237.537 162.644 C 237.679 161.973 238.671 160.778 239.109 160.373 C 239.373 160.128 239.317 160.109 239.808 160.023 Z M 117.601 177.137 C 118.627 177 118.887 176.963 119.425 177.137 C 119.947 177.307 120.5 177.641 120.793 178.14 C 121.129 178.714 121.306 179.864 121.157 180.512 C 121.028 181.076 120.952 181.43 120.154 181.88 C 118.378 182.882 110.396 184.462 107.934 184.798 C 106.632 184.976 106.061 185.011 105.38 184.798 C 104.802 184.617 104.305 184.294 104.012 183.795 C 103.676 183.222 103.499 182.071 103.647 181.424 C 103.777 180.86 103.84 180.503 104.651 180.056 C 106.497 179.037 115.331 177.44 117.601 177.137 Z" style="fill: rgb(5, 14, 26); fill-opacity: 1; fill-rule: nonzero; stroke: rgb(5, 14, 26); stroke-dasharray: none; stroke-dashoffset: 0px; stroke-linecap: butt; stroke-linejoin: miter; stroke-miterlimit: 4; stroke-opacity: 1; stroke-width: 0px; paint-order: normal; vector-effect: none; opacity: 1; mix-blend-mode: normal; isolation: auto;"/><path fill="rgb(255,0,0)" stroke="rgb(255,0,0)" stroke-width="0" opacity="0.9764705882352941" d="M 135.005 236.916 C 138.011 236.605 145.954 236.96 149.964 238.729 C 153.531 240.301 155.847 243.352 158.351 246.208 C 160.927 249.148 162.897 251.943 165.15 256.181 C 168.044 261.624 171.8 269.715 173.763 277.033 C 175.768 284.508 177.729 296.129 176.936 300.605 C 176.504 303.045 175.261 303.889 173.99 304.912 C 172.752 305.908 171.456 304.489 169.004 304.912 C 164.364 305.712 153.589 306.031 149.057 304.911 C 146.597 304.304 141.983 305.477 141.125 304.232 C 140.34 303.092 140.273 301.415 140.218 300.152 C 140.169 299.016 140.693 297.932 140.672 296.979 C 140.653 296.143 140.254 295.639 140.218 294.712 C 140.171 293.496 140.769 292.07 140.672 290.179 C 140.538 287.575 140.178 284.516 138.858 280.206 C 136.865 273.693 129.418 260.442 127.979 253.915 C 127.033 249.623 127.177 246.659 127.979 243.942 C 128.669 241.603 130.487 239.43 131.832 238.275 C 132.855 237.398 133.338 237.087 135.005 236.916 Z" style="fill: rgb(242, 242, 218); fill-opacity: 1; fill-rule: nonzero; stroke: rgb(5, 14, 26); stroke-dasharray: none; stroke-dashoffset: 0px; stroke-linecap: butt; stroke-linejoin: miter; stroke-miterlimit: 4; stroke-opacity: 1; stroke-width: 5px; paint-order: normal; vector-effect: none; opacity: 1; mix-blend-mode: normal; isolation: auto;"/><path fill="rgb(255,0,0)" stroke="rgb(255,0,0)" stroke-width="0" opacity="0.8980392156862745" d="M 108.514 295.75 C 109.143 295.796 110.49 295.873 111.125 296.824 C 112.146 298.357 112.606 304.178 112.353 306.037 C 112.209 307.094 111.788 307.598 111.278 308.033 C 110.798 308.442 110.055 308.705 109.436 308.647 C 108.776 308.586 107.948 308.434 107.439 307.573 C 106.545 306.058 105.896 300.306 106.211 298.36 C 106.403 297.175 107.132 296.456 107.593 296.057 C 107.9 295.791 108.104 295.719 108.514 295.75 Z M 118.034 295.442 C 118.662 295.489 120.061 295.573 120.644 296.517 C 121.569 298.014 121.576 303.606 121.259 305.423 C 121.075 306.473 120.694 306.984 120.184 307.419 C 119.704 307.828 118.961 308.091 118.341 308.033 C 117.682 307.972 116.81 307.814 116.345 306.958 C 115.541 305.478 115.349 299.954 115.731 298.053 C 115.967 296.877 116.652 296.149 117.113 295.75 C 117.42 295.484 117.624 295.412 118.034 295.442 Z M 199.106 294.828 C 199.734 294.875 201.136 294.98 201.716 295.903 C 202.61 297.326 202.632 302.462 202.33 304.195 C 202.151 305.225 201.766 305.756 201.256 306.191 C 200.776 306.599 200.033 306.862 199.413 306.805 C 198.754 306.743 197.88 306.568 197.417 305.73 C 196.639 304.322 196.44 299.251 196.803 297.439 C 197.034 296.285 197.724 295.535 198.185 295.135 C 198.492 294.87 198.696 294.798 199.106 294.828 Z M 207.09 294.214 C 207.719 294.261 209.09 294.326 209.701 295.289 C 210.696 296.858 210.919 302.909 210.622 304.809 C 210.455 305.877 210.057 306.37 209.547 306.805 C 209.067 307.213 208.324 307.477 207.704 307.419 C 207.045 307.358 206.196 307.216 205.708 306.344 C 204.84 304.794 204.425 298.813 204.787 296.824 C 205.005 295.628 205.708 294.92 206.169 294.521 C 206.476 294.255 206.68 294.184 207.09 294.214 Z" style="fill: rgb(5, 14, 26); fill-opacity: 1; fill-rule: nonzero; stroke: rgb(5, 14, 26); stroke-dasharray: none; stroke-dashoffset: 0px; stroke-linecap: butt; stroke-linejoin: miter; stroke-miterlimit: 4; stroke-opacity: 1; stroke-width: 0px; paint-order: normal; vector-effect: none; opacity: 1; mix-blend-mode: normal; isolation: auto;"/></svg>