<?xml version="1.0" encoding="utf-8"?>
<svg xmlns="http://www.w3.org/2000/svg" viewBox="0 0 320 320" width="320px" height="320px" xmlns:bx="https://boxy-svg.com"><defs><bx:export><bx:file format="svg"/></bx:export></defs><path stroke="rgb(255,0,0)" stroke-width="0" opacity="0.9764705882352941" d="M 66.639 13.609 C 70.552 12.768 70.259 13.133 75.04 13.99 C 85.917 15.94 120.172 27.14 138.429 31.174 C 153.324 34.466 165.193 34.734 177.379 37.666 C 188.84 40.423 206.037 46.523 209.646 47.976 C 210.694 48.398 210.15 48.383 210.982 48.74 C 212.932 49.577 218.91 51.867 223.202 52.94 C 227.674 54.059 233.403 54.013 237.331 55.232 C 239.528 55.914 241.753 56.633 243.459 57.601 C 244.771 57.756 246.183 58.037 246.687 58.286 C 247.115 58.498 246.877 58.787 247.259 59.05 C 247.958 59.53 250.505 59.971 251.269 60.578 C 251.776 60.98 251.762 61.223 252.033 61.914 C 252.496 63.1 253.699 66.122 253.56 67.642 C 253.451 68.837 253.009 69.797 252.033 70.506 C 250.745 71.442 247.916 72.215 245.732 72.033 C 245.331 72 244.897 71.941 244.444 71.858 C 244.962 73.061 245.383 74.279 245.727 75.465 C 246.629 78.577 246.822 81.933 246.491 85.012 C 246.44 85.49 246.373 85.969 246.292 86.448 C 247.036 89.366 247.179 92.463 246.873 95.322 C 246.547 98.35 245.614 101.416 244.2 104.105 C 242.765 106.833 240.794 109.464 238.281 111.551 C 236.47 113.055 234.137 114.501 231.77 115.592 C 233.574 116.205 235.037 116.864 235.994 118.048 C 237.298 119.66 237.692 122.884 237.522 124.539 C 237.394 125.78 236.95 126.693 235.994 127.403 C 234.763 128.318 233.335 129.116 230.076 128.931 C 223.247 128.542 203.082 120.584 192.653 118.621 C 184.542 117.093 178.394 118.011 172.033 116.711 C 166.117 115.503 161.976 112.964 155.613 111.365 C 147.982 109.448 138.983 109.138 128.882 106.401 C 116.533 103.055 96.797 94.177 86.496 91.508 C 79.775 89.768 77.488 90.496 71.221 89.217 C 64.393 87.824 50.663 85.782 43.338 83.181 C 42.589 83.405 41.789 83.474 41.033 83.355 C 39.498 83.115 38.26 82.877 36.264 80.56 C 31.814 75.392 19.393 51.111 16.86 44.382 C 15.686 41.264 15.546 40.267 15.873 38.462 C 15.914 38.234 15.975 37.999 16.051 37.762 C 16.137 36.962 16.506 36.268 16.922 35.72 C 17.191 34.761 17.817 33.964 18.333 33.465 C 18.833 32.982 19.223 33.082 20.052 32.702 C 20.489 32.501 21.058 32.17 21.703 31.797 C 21.966 31.394 22.265 31.052 22.534 30.792 C 23.034 30.309 23.258 30.372 24.252 30.029 C 26.385 29.292 31.261 28.474 36.472 26.592 C 44.093 23.839 59.891 15.058 66.639 13.609 Z" style="fill-opacity: 1; fill-rule: nonzero; stroke: rgb(5, 14, 26); stroke-dasharray: none; stroke-dashoffset: 0px; stroke-linecap: butt; stroke-linejoin: miter; stroke-miterlimit: 4; stroke-opacity: 1; stroke-width: 5px; paint-order: normal; vector-effect: none; opacity: 1; mix-blend-mode: normal; isolation: auto; transform-box: fill-box; transform-origin: 50% 50%; fill: rgb(166, 154, 156);" transform="matrix(0.990318, 0.138818, -0.138818, 0.990318, 0, 0.000003)"/><path fill="rgb(255,0,0)" stroke="rgb(255,0,0)" stroke-width="0" opacity="0.9764705882352941" d="M 241.321 106.647 C 246.586 106.639 272.884 111.969 280.788 114.869 C 285.28 116.517 287.563 118.382 289.175 119.967 C 290.228 121.002 290.478 121.698 290.819 122.927 C 291.238 124.429 291.579 126.829 291.148 128.518 C 290.729 130.164 289.899 132.026 288.353 132.958 C 286.497 134.076 284.056 134.175 280.13 133.945 C 273.517 133.557 257.493 129.875 250.202 128.025 C 245.223 126.761 241.274 125.603 239.019 124.407 C 237.669 123.691 237.126 123.217 236.553 122.269 C 235.927 121.234 235.529 119.523 235.566 118.322 C 235.599 117.243 236.501 116.355 236.553 115.362 C 236.604 114.381 235.695 113.505 235.895 112.402 C 236.149 111 237.635 108.566 238.69 107.633 C 239.495 106.922 239.507 106.649 241.321 106.647 Z" style="fill: rgb(135, 93, 88); fill-opacity: 1; fill-rule: nonzero; stroke: rgb(5, 14, 26); stroke-dasharray: none; stroke-dashoffset: 0px; stroke-linecap: butt; stroke-linejoin: miter; stroke-miterlimit: 4; stroke-opacity: 1; stroke-width: 5px; paint-order: normal; vector-effect: none; opacity: 1; mix-blend-mode: normal; isolation: auto; transform-box: fill-box; transform-origin: 50% 50%;" transform="matrix(0.990318, 0.138818, -0.138818, 0.990318, 0, 0.000002)"/><path stroke="rgb(255,0,0)" stroke-width="0" opacity="0.9764705882352941" d="M 241.991 58.175 C 242.933 58.059 243.755 58.039 244.951 58.504 C 246.734 59.196 250.157 60.275 251.693 62.944 C 253.806 66.615 254.026 74.657 253.996 80.704 C 253.964 86.928 252.49 93.997 251.365 99.779 C 250.357 104.955 248.699 108.543 247.747 113.922 C 246.629 120.24 246.932 129.257 245.444 135.628 C 244.137 141.23 242.173 146.571 239.853 150.428 C 237.922 153.641 235.387 156.276 233.111 157.828 C 231.266 159.088 229.268 159.963 227.52 159.802 C 225.821 159.645 223.821 158.46 222.751 157.006 C 221.591 155.428 221.456 153.731 221.107 150.428 C 220.494 144.635 220.304 132.357 221.107 122.802 C 221.958 112.667 223.703 101.387 226.369 91.228 C 228.993 81.226 234.526 66.877 236.893 62.286 C 237.938 60.26 238.438 59.848 239.36 59.161 C 240.162 58.564 241.071 58.288 241.991 58.175 Z" style="fill-opacity: 1; fill-rule: nonzero; stroke: rgb(5, 14, 26); stroke-dasharray: none; stroke-dashoffset: 0px; stroke-linecap: butt; stroke-linejoin: miter; stroke-miterlimit: 4; stroke-opacity: 1; stroke-width: 5px; paint-order: normal; vector-effect: none; opacity: 1; mix-blend-mode: normal; isolation: auto; transform-box: fill-box; transform-origin: 50% 50%; fill: rgb(158, 119, 103);" transform="matrix(0.990318, 0.138818, -0.138818, 0.990318, 0, 0.000003)"/><path stroke="rgb(255,0,0)" stroke-width="0" opacity="0.9803921568627451" d="M 293.657 114.599 C 295.046 114.249 295.576 114.406 296.946 114.927 C 299.079 115.739 303.31 118.12 305.333 120.354 C 307.192 122.407 308.269 124.825 308.951 127.59 C 309.708 130.662 309.642 135.05 309.28 138.114 C 308.969 140.744 308.368 143.04 307.306 145.021 C 306.299 146.9 304.878 148.514 303.195 149.79 C 301.449 151.114 299.169 152.145 296.946 152.75 C 294.68 153.367 291.985 153.873 289.711 153.408 C 287.435 152.942 285.039 151.713 283.297 149.954 C 281.404 148.042 279.908 145.036 279.022 142.061 C 278.064 138.845 277.685 134.283 278.035 131.207 C 278.328 128.636 279.16 126.575 280.337 124.63 C 281.516 122.683 283.102 121.107 285.106 119.532 C 287.409 117.723 291.507 115.14 293.657 114.599 Z" style="fill-opacity: 1; fill-rule: nonzero; stroke: rgb(5, 14, 26); stroke-dasharray: none; stroke-dashoffset: 0px; stroke-linecap: butt; stroke-linejoin: miter; stroke-miterlimit: 4; stroke-opacity: 1; stroke-width: 5px; paint-order: normal; vector-effect: none; opacity: 1; mix-blend-mode: normal; isolation: auto; transform-box: fill-box; transform-origin: 50% 50%; fill: rgb(158, 119, 103);" transform="matrix(0.990318, 0.138818, -0.138818, 0.990318, 0, -0.000004)"/><path stroke="rgb(255,0,0)" opacity="0.9921568627450981" d="M 38.846 194.918 C 43.11 194.286 51.461 195.088 55.647 196.064 C 58.68 196.77 60.367 197.734 62.521 199.118 C 64.771 200.565 66.496 202.295 68.822 204.655 C 71.769 207.647 75.564 211.451 78.75 216.111 C 82.484 221.574 85.941 230.948 89.442 235.968 C 92.153 239.854 95.965 241.543 97.461 244.751 C 98.836 247.697 99.409 251.461 98.607 254.297 C 97.808 257.122 94.712 260.11 92.688 261.744 C 91.066 263.052 89.843 263.602 87.724 264.035 C 84.953 264.601 81.023 265.156 77.032 264.035 C 71.886 262.589 64.415 257.557 59.466 254.106 C 58.227 253.242 56.976 252.274 55.773 251.285 C 56.851 254.893 57.709 258.229 58.13 260.407 C 58.917 264.479 58.594 267.486 58.13 269.572 C 57.823 270.949 57.634 271.727 56.602 272.436 C 56.21 272.705 55.632 272.964 54.957 273.192 C 54.652 276.437 54.105 280.803 53.165 284.083 C 52.154 287.612 50.953 292.023 48.965 293.82 C 47.37 295.262 44.668 295.469 43.046 295.348 C 41.735 295.25 40.582 294.876 39.8 293.82 C 38.765 292.423 38.072 289.027 38.273 286.756 C 38.471 284.51 41.073 280.73 40.946 280.264 C 40.898 280.089 40.788 280.325 40.373 280.455 C 39.001 280.883 31.458 283.964 28.917 283.892 C 27.348 283.847 26.453 283.38 25.671 282.364 C 24.681 281.077 23.834 277.992 24.144 276.064 C 24.446 274.182 26.455 271.818 27.39 270.908 C 27.952 270.361 28.474 270.345 28.917 270.145 C 29.279 269.981 29.789 269.996 29.872 269.763 C 29.962 269.508 29.591 268.955 29.299 268.617 C 28.977 268.245 28.435 268.196 27.962 267.663 C 27.258 266.868 26.055 265.235 25.671 263.844 C 25.283 262.437 25.359 260.558 25.671 259.262 C 25.943 258.132 26.577 256.999 27.199 256.398 C 27.699 255.915 28.419 255.906 28.917 255.634 C 29.357 255.393 29.48 255.025 30.063 254.87 C 30.973 254.628 32.754 254.486 34.263 254.87 C 35.4 255.16 37.011 256.02 38.321 256.789 C 36.168 251.244 34.062 245.312 32.545 240.932 C 29.657 232.595 26.88 223.023 26.053 217.639 C 25.543 214.312 25.646 212.163 26.053 210.383 C 26.181 209.824 26.368 209.324 26.59 208.889 C 26.589 207.021 26.788 205.293 27.199 203.892 C 27.963 201.287 29.686 199.462 31.59 197.973 C 33.545 196.444 35.7 195.384 38.846 194.918 Z" style="fill-opacity: 1; fill-rule: nonzero; stroke: rgb(5, 14, 26); stroke-dasharray: none; stroke-dashoffset: 0px; stroke-linecap: butt; stroke-linejoin: miter; stroke-miterlimit: 4; stroke-opacity: 1; paint-order: normal; vector-effect: none; opacity: 1; mix-blend-mode: normal; isolation: auto; stroke-width: 5px; transform-box: fill-box; transform-origin: 50% 50%; fill: rgb(23, 156, 67);" transform="matrix(0.988535, -0.150994, 0.150994, 0.988535, -0.000001, -0.000002)"/><path stroke="rgb(255,0,0)" stroke-width="0" opacity="0.9725490196078431" d="M 221.673 158.689 C 223.169 158.785 226.076 160.423 227.848 161.09 C 228.451 160.977 229.075 160.967 229.676 161.061 C 229.704 161.065 229.732 161.07 229.76 161.076 C 229.893 161.026 230.047 161.005 230.269 161.061 C 231.385 161.342 234.049 162.744 235.526 164.186 C 237.781 165.168 240.849 166.639 242.422 165.507 C 244.743 163.838 244.184 156.246 245.535 151.427 C 246.963 146.331 249.28 138.78 250.87 135.717 C 251.771 133.982 252.416 133.269 253.39 132.605 C 254.269 132.005 255.235 131.757 256.354 131.715 C 257.658 131.666 259.755 132.072 260.8 132.605 C 261.598 133.011 261.868 133.249 262.431 134.235 C 263.455 136.029 265.061 140.182 265.691 144.017 C 266.449 148.623 266.324 156.026 265.988 160.32 C 265.736 163.524 265.532 164.923 264.506 168.027 C 263.093 172.299 260.316 181.348 257.243 183.885 C 255.017 185.724 252.719 184.908 249.536 185.071 C 245.292 185.287 238.009 185.039 233.53 184.478 C 232.889 184.398 232.254 184.309 231.631 184.213 C 230.817 184.51 229.97 184.623 229.083 184.774 C 227.517 185.042 225.948 185.336 224.044 184.774 C 221.523 184.03 216.912 181.327 215.3 179.587 C 214.206 178.406 214.099 177.544 213.818 176.03 C 213.447 174.032 213.122 170.918 213.818 168.323 C 214.59 165.441 217.109 160.992 218.709 159.579 C 219.709 158.696 220.41 158.609 221.673 158.689 Z" style="fill-opacity: 1; fill-rule: nonzero; stroke: rgb(5, 14, 26); stroke-dasharray: none; stroke-dashoffset: 0px; stroke-linecap: butt; stroke-linejoin: miter; stroke-miterlimit: 4; stroke-opacity: 1; stroke-width: 5px; paint-order: normal; vector-effect: none; opacity: 1; mix-blend-mode: normal; isolation: auto; fill: rgb(85, 179, 59);"/><path stroke="rgb(255,0,0)" opacity="0.9882352941176471" d="M 219.018 201.871 C 221.238 201.443 224.833 201.234 228.182 201.871 C 232.159 202.627 239.637 205.587 241.356 206.835 C 242.066 207.35 241.866 207.726 242.12 208.172 C 242.375 208.617 242.6 209.18 242.884 209.508 C 243.118 209.779 243.287 209.69 243.648 210.081 C 244.427 210.927 246.798 213.286 247.466 215.427 C 248.203 217.79 248.148 221.236 247.466 223.828 C 247.436 223.942 247.402 224.058 247.365 224.175 C 247.9 226.386 248.349 228.649 248.612 230.701 C 249.337 236.362 249.613 241.537 248.612 248.267 C 248.285 250.463 247.868 253.179 247.347 256.08 C 249.838 255.001 252.398 254.076 254.149 253.804 C 256.579 253.427 259.065 253.99 260.068 254.568 C 260.651 254.904 260.561 255.213 260.831 255.904 C 261.295 257.09 262.577 260.062 262.359 261.632 C 262.175 262.955 261.119 264.04 260.259 264.878 C 259.447 265.668 257.425 266.035 257.395 266.596 C 257.366 267.116 259.09 267.198 259.686 268.124 C 260.535 269.443 261.383 272.961 261.213 274.616 C 261.086 275.856 260.448 276.811 259.686 277.48 C 258.922 278.149 256.867 278.117 256.631 278.625 C 256.456 279.001 257.127 279.257 257.395 279.962 C 257.864 281.199 259.077 284.483 258.922 286.071 C 258.803 287.29 258.371 288.226 257.395 288.935 C 256.107 289.871 253.713 290.817 251.094 290.463 C 247.329 289.954 240.676 284.577 236.583 283.589 C 233.483 282.841 230.553 283.997 228.564 283.589 C 227.123 283.294 226.1 283.078 225.318 282.062 C 224.697 281.256 224.191 279.624 223.94 278.119 C 222.865 276.309 222.009 273.432 221.5 270.033 C 221.015 266.798 220.858 262.35 220.93 257.594 C 220.792 257.748 220.663 257.886 220.545 258.005 C 219.596 258.962 218.903 259.313 218.445 259.723 C 218.162 259.976 218.08 260.03 217.872 260.296 C 217.586 260.662 217.497 261.272 216.917 261.823 C 216.018 262.678 213.1 264.105 212.335 264.687 C 211.977 264.96 212.163 264.966 211.762 265.26 C 210.749 266.003 205.715 268.621 204.698 269.46 C 204.268 269.815 204.578 269.869 204.125 270.224 C 202.985 271.117 198.717 274.043 195.724 274.806 C 192.734 275.569 188.691 275.462 186.177 274.806 C 184.152 274.278 182.19 272.668 181.404 271.943 C 180.991 271.561 181.086 271.242 180.831 270.988 C 180.577 270.733 180.256 270.855 179.877 270.415 C 179.109 269.525 177.482 267.143 176.822 264.687 C 175.972 261.522 174.846 256.96 176.058 252.468 C 177.607 246.724 185.919 235.375 187.896 233.184 C 188.571 232.436 188.825 232.618 189.232 232.42 C 189.579 232.251 189.915 232.281 190.187 232.038 C 190.506 231.752 190.373 231.533 190.951 230.701 C 192.58 228.358 201.44 216.813 203.552 214.472 C 204.389 213.545 204.689 213.609 205.08 213.136 C 205.429 212.712 205.559 212.127 205.843 211.799 C 206.078 211.528 206.192 211.57 206.607 211.227 C 207.507 210.481 210.766 207.675 211.571 206.835 C 211.942 206.448 211.856 206.337 212.144 206.071 C 212.536 205.71 213.301 205.359 213.862 204.926 C 214.448 204.473 214.842 203.866 215.581 203.398 C 216.48 202.828 217.463 202.17 219.018 201.871 Z" style="fill-opacity: 1; fill-rule: nonzero; stroke: rgb(5, 14, 26); stroke-dasharray: none; stroke-dashoffset: 0px; stroke-linecap: butt; stroke-linejoin: miter; stroke-miterlimit: 4; stroke-opacity: 1; paint-order: normal; vector-effect: none; opacity: 1; mix-blend-mode: normal; isolation: auto; stroke-width: 5px; transform-box: fill-box; transform-origin: 50% 50%; fill: rgb(23, 156, 67);" transform="matrix(0.93807, 0.346446, -0.346446, 0.93807, 0.000003, 0.000002)"/><path stroke="rgb(255,0,0)" opacity="0.9803921568627451" d="M 140.869 66.345 C 145.888 66.171 149.241 66.035 153.47 66.345 C 157.768 66.661 161.574 67.054 166.453 68.254 C 172.384 69.713 180.444 72.545 186.692 75.128 C 192.538 77.545 201.173 81.886 202.921 83.147 C 203.46 83.536 203.168 83.586 203.494 83.911 C 204.052 84.468 205.751 85.516 206.358 86.202 C 206.786 86.686 206.837 87.028 207.122 87.538 C 207.461 88.147 207.894 89.189 208.267 89.639 C 208.526 89.95 208.611 89.651 209.031 90.211 C 210.519 92.196 216.483 102.969 219.723 110.068 C 223.139 117.553 227 127.083 228.888 134.125 C 230.427 139.866 230.667 143.678 231.179 149.4 C 231.774 156.056 232.961 163.663 231.943 171.93 C 230.753 181.588 226.054 195.608 223.16 204.006 C 220.977 210.339 217.765 217.111 216.668 219.09 C 216.28 219.79 216.417 219.259 215.904 220.044 C 213.998 222.96 201.897 245.313 199.484 248.111 C 198.772 248.937 198.636 248.459 198.148 248.875 C 197.468 249.454 196.497 250.965 195.857 251.548 C 195.417 251.948 195.359 251.88 194.711 252.312 C 193.3 253.252 190.457 255.609 186.692 257.658 C 181.022 260.744 170.574 265.954 162.253 268.732 C 154.084 271.458 139.522 273.291 137.241 274.269 C 136.668 274.514 136.981 274.611 136.668 274.841 C 136.133 275.235 135.247 276.069 133.995 276.369 C 132.195 276.801 129.607 276.556 126.358 276.369 C 121.775 276.105 113.79 275.79 108.41 274.46 C 103.521 273.251 96.811 270.33 95.236 269.114 C 94.635 268.649 94.875 268.267 94.663 267.968 C 94.487 267.719 94.39 267.773 94.09 267.395 C 93.375 266.491 90.797 262.38 90.081 261.476 C 89.781 261.098 89.855 261.309 89.508 260.904 C 88.527 259.756 83.806 253.459 82.826 252.312 C 82.479 251.906 82.51 252.037 82.253 251.739 C 81.811 251.227 80.84 249.763 80.343 249.257 C 80.035 248.942 79.969 249.235 79.58 248.684 C 78.28 246.844 74.118 239.064 71.179 231.118 C 66.892 219.528 59.839 198.292 57.432 183.004 C 55.228 169.01 55.713 153.832 56.286 142.908 C 56.731 134.44 57.825 127.948 59.341 121.906 C 60.634 116.753 62.175 113.013 64.305 108.541 C 66.569 103.787 71.094 96.026 72.706 94.221 C 73.329 93.524 73.585 93.924 74.043 93.457 C 74.716 92.771 75.147 91.135 76.143 90.02 C 77.32 88.704 79.754 87.06 80.916 86.202 C 81.669 85.646 82.242 85.418 82.635 85.056 C 82.923 84.791 82.896 84.551 83.207 84.293 C 83.657 83.919 84.768 83.501 85.308 83.147 C 85.72 82.876 85.826 82.647 86.262 82.383 C 86.865 82.019 88.142 81.602 88.744 81.238 C 89.181 80.974 88.989 80.892 89.699 80.474 C 91.801 79.236 104.208 73.693 106.31 72.455 C 107.02 72.037 106.621 72.026 107.265 71.691 C 108.815 70.885 113.156 68.764 117.575 67.873 C 123.546 66.667 134.445 66.568 140.869 66.345 Z M 187.647 242.001 C 188.162 241.54 188.827 240.689 189.556 239.65 C 188.61 240.478 187.787 241.228 187.248 241.794 C 186.962 242.093 186.714 242.389 186.492 242.674 C 186.849 242.559 187.23 242.374 187.647 242.001 Z" style="fill-opacity: 1; fill-rule: nonzero; stroke: rgb(5, 14, 26); stroke-dasharray: none; stroke-dashoffset: 0px; stroke-linecap: butt; stroke-linejoin: miter; stroke-miterlimit: 4; stroke-opacity: 1; paint-order: normal; vector-effect: none; opacity: 1; mix-blend-mode: normal; isolation: auto; stroke-width: 5px; transform-box: fill-box; transform-origin: 50% 50%; fill: rgb(85, 179, 59);" transform="matrix(0.99576, -0.091993, 0.091993, 0.99576, 0.000001, 0)"/><path fill="rgb(255,0,0)" stroke="rgb(255,0,0)" stroke-width="0" opacity="0.9725490196078431" d="M 180.765 221.063 C 183.43 220.496 186.768 220.687 189.166 221.445 C 191.344 222.133 193.274 223.465 194.703 225.072 C 196.149 226.7 197.281 229.229 197.758 231.182 C 198.177 232.901 198.252 234.366 197.758 236.146 C 197.155 238.314 195.67 241.464 193.748 243.211 C 191.802 244.979 188.577 246.03 186.111 246.647 C 183.882 247.206 181.816 247.532 179.619 247.029 C 177.178 246.471 173.939 244.816 172.173 243.02 C 170.551 241.371 169.595 238.863 169.118 236.91 C 168.698 235.191 168.623 233.726 169.118 231.946 C 169.721 229.778 171.217 226.688 173.127 224.881 C 175.076 223.038 178.083 221.633 180.765 221.063 Z" style="fill: rgb(135, 93, 88); fill-opacity: 1; fill-rule: nonzero; stroke: rgb(5, 14, 26); stroke-dasharray: none; stroke-dashoffset: 0px; stroke-linecap: butt; stroke-linejoin: miter; stroke-miterlimit: 4; stroke-opacity: 1; stroke-width: 0px; paint-order: normal; vector-effect: none; opacity: 1; mix-blend-mode: normal; isolation: auto; transform-box: fill-box; transform-origin: 50% 50%;" transform="matrix(0.99576, -0.091993, 0.091993, 0.99576, 0, 0.000001)"/><path stroke="rgb(255,0,0)" stroke-width="0" opacity="0.9764705882352941" d="M 68.878 50.626 C 71.706 50.051 74.454 50.153 77.279 50.626 C 80.243 51.123 85.057 52.935 86.252 53.681 C 86.729 53.979 86.355 54.078 86.825 54.445 C 88.08 55.425 95.307 58.811 96.563 59.791 C 97.033 60.158 96.757 60.149 97.135 60.555 C 98.001 61.483 101.097 63.323 102.672 65.71 C 104.609 68.645 106.364 73.47 107.255 77.547 C 108.143 81.616 108.403 85.568 108.018 90.149 C 107.579 95.381 105.987 102.489 104.2 107.333 C 102.668 111.482 99.93 116.073 98.472 117.834 C 97.714 118.749 97.263 118.503 96.563 119.17 C 95.601 120.088 95.027 121.782 93.317 123.18 C 90.828 125.214 86.449 128.357 81.861 129.672 C 76.534 131.198 68.696 131.209 62.768 130.817 C 57.307 130.456 51.763 129.14 47.493 127.762 C 43.93 126.612 39.736 124.591 38.52 123.562 C 37.983 123.108 38.213 122.706 37.947 122.416 C 37.696 122.143 37.247 122.098 36.992 121.843 C 36.738 121.589 36.624 121.153 36.419 120.889 C 36.239 120.656 36.165 120.806 35.847 120.316 C 34.767 118.656 29.532 110.33 28.209 105.041 C 26.919 99.883 26.94 94.185 27.827 89.003 C 28.717 83.81 32.163 76.158 33.555 73.92 C 34.163 72.943 34.477 73.084 35.083 72.583 C 35.828 71.967 37.223 71.01 37.756 70.483 C 38.076 70.166 37.875 70.085 38.329 69.719 C 39.485 68.787 45.764 65.688 46.921 64.755 C 47.374 64.39 47.02 64.441 47.493 63.991 C 48.938 62.621 55.869 56.723 59.713 54.445 C 62.929 52.539 65.854 51.241 68.878 50.626 Z" style="fill-opacity: 1; fill-rule: nonzero; stroke: rgb(5, 14, 26); stroke-dasharray: none; stroke-dashoffset: 0px; stroke-linecap: butt; stroke-linejoin: miter; stroke-miterlimit: 4; stroke-opacity: 1; stroke-width: 5px; paint-order: normal; vector-effect: none; opacity: 1; mix-blend-mode: normal; isolation: auto; transform-box: fill-box; transform-origin: 50% 50%; fill: rgb(148, 191, 48);" transform="matrix(0.99576, -0.091993, 0.091993, 0.99576, 0, 0.000001)"/><path stroke="rgb(255,0,0)" stroke-width="0" opacity="0.9921568627450981" d="M 199.18 46.516 C 201.129 46.15 204.65 46.436 207.199 46.898 C 209.671 47.347 213.053 48.587 214.264 49.189 C 214.852 49.482 214.725 49.588 215.219 49.953 C 216.11 50.612 218.868 52.33 219.61 53.008 C 219.983 53.348 220.002 53.477 220.183 53.772 C 220.386 54.103 220.514 54.624 220.756 54.917 C 220.97 55.178 221.199 55.179 221.519 55.49 C 222.043 55.998 222.985 57.377 223.62 57.972 C 224.103 58.425 224.349 58.325 224.956 58.927 C 226.132 60.092 229.346 64.631 230.302 65.609 C 230.7 66.016 230.728 65.803 231.066 66.182 C 231.746 66.946 233.367 68.976 234.121 70.765 C 234.952 72.738 235.374 75.042 235.648 77.638 C 235.967 80.662 236.484 84.126 235.648 87.948 C 234.62 92.648 230.172 102.017 228.775 103.796 C 228.281 104.424 228.128 103.845 227.629 104.368 C 226.474 105.579 223.256 112.153 222.283 113.342 C 221.909 113.799 221.868 113.583 221.519 113.915 C 220.881 114.523 219.353 116.555 218.655 117.161 C 218.25 117.513 217.965 117.529 217.701 117.734 C 217.468 117.914 217.589 117.999 217.128 118.306 C 215.716 119.249 209.694 123.365 205.29 124.416 C 200.592 125.538 194.623 125.024 189.634 124.416 C 184.84 123.832 180.617 122.935 175.887 120.979 C 170.539 118.769 161.305 113.202 159.276 111.242 C 158.476 110.469 158.812 109.913 158.512 109.524 C 158.284 109.226 158.065 109.381 157.748 108.951 C 157.04 107.987 155.26 105.151 154.694 102.459 C 153.984 99.087 154.151 94.549 154.694 89.858 C 155.335 84.308 156.832 76.546 158.894 71.146 C 160.726 66.348 164.596 60.368 165.958 58.736 C 166.493 58.096 166.248 58.425 167.104 57.972 C 169.825 56.534 184.861 48.869 189.634 47.662 C 192.218 47.008 193.9 47.513 194.98 47.662 C 195.575 47.744 195.628 48.101 196.125 48.044 C 196.879 47.958 197.796 46.777 199.18 46.516 Z" style="fill-opacity: 1; fill-rule: nonzero; stroke: rgb(5, 14, 26); stroke-dasharray: none; stroke-dashoffset: 0px; stroke-linecap: butt; stroke-linejoin: miter; stroke-miterlimit: 4; stroke-opacity: 1; stroke-width: 5px; paint-order: normal; vector-effect: none; opacity: 1; mix-blend-mode: normal; isolation: auto; transform-box: fill-box; transform-origin: 50% 50%; fill: rgb(148, 191, 48);" transform="matrix(0.99576, -0.091993, 0.091993, 0.99576, 0.000001, 0.000001)"/><path stroke="rgb(255,0,0)" stroke-width="0" opacity="0.9764705882352941" d="M 133.133 98.288 C 140.509 97.779 151.358 98.002 157.954 99.052 C 163.015 99.857 166.907 101.423 170.174 102.87 C 172.792 104.031 175.531 105.899 176.474 106.689 C 176.891 107.038 176.767 107.265 177.047 107.453 C 177.372 107.671 178.037 107.56 178.384 107.835 C 178.745 108.121 178.773 108.854 179.147 109.171 C 179.531 109.496 180.165 109.388 180.675 109.744 C 181.311 110.188 181.962 111.318 182.584 111.844 C 183.103 112.283 183.725 112.4 184.112 112.799 C 184.474 113.173 184.391 113.571 184.875 114.135 C 185.714 115.114 188.693 117.352 189.458 118.145 C 189.822 118.523 189.688 118.59 190.03 118.909 C 190.637 119.472 192.67 120.636 193.276 121.2 C 193.619 121.518 193.608 121.63 193.849 121.964 C 194.193 122.44 194.788 123.45 195.186 123.873 C 195.464 124.169 195.715 124.175 195.949 124.446 C 196.233 124.774 196.429 125.454 196.713 125.782 C 196.948 126.053 197.066 125.742 197.477 126.355 C 199.103 128.781 207.092 144.272 209.696 153.467 C 212.214 162.357 212.666 173.824 213.133 180.579 C 213.454 185.22 213.969 186.096 213.133 191.271 C 211.659 200.394 205.204 223.68 200.913 233.658 C 197.961 240.524 193.096 246.726 191.749 248.36 C 191.326 248.872 191.408 248.446 190.985 248.933 C 189.712 250.396 184.456 259.285 182.584 261.343 C 181.656 262.364 181.784 262.136 180.484 262.87 C 177.552 264.526 170.07 269.176 162.536 271.271 C 152.871 273.959 136.61 276.356 125.878 275.854 C 116.71 275.425 103.908 271.272 101.629 270.126 C 101.011 269.815 101.502 269.751 101.057 269.362 C 99.902 268.354 94.932 266.355 92.465 263.634 C 89.663 260.544 88.052 256.468 85.591 251.224 C 82.326 244.264 76.917 232.009 74.899 224.493 C 73.344 218.701 73.363 216.004 72.99 209.601 C 72.461 200.526 72.044 184.802 72.99 173.706 C 73.854 163.56 75.378 154.039 77.954 145.448 C 80.343 137.48 84.404 129.389 87.501 123.682 C 89.907 119.246 92.865 114.86 94.565 113.181 C 95.438 112.318 96.216 112.409 96.665 112.035 C 96.976 111.777 96.967 111.506 97.238 111.271 C 97.566 110.987 98.18 110.775 98.575 110.508 C 98.935 110.264 98.938 110.101 99.529 109.744 C 100.826 108.962 106.061 106.707 107.357 105.925 C 107.948 105.569 107.726 105.52 108.312 105.162 C 109.588 104.381 112.65 102.398 115.949 101.343 C 120.341 99.939 126.728 98.73 133.133 98.288 Z" style="fill-opacity: 1; fill-rule: nonzero; stroke: rgb(5, 14, 26); stroke-dasharray: none; stroke-dashoffset: 0px; stroke-linecap: butt; stroke-linejoin: miter; stroke-miterlimit: 4; stroke-opacity: 1; stroke-width: 5px; paint-order: normal; vector-effect: none; opacity: 1; mix-blend-mode: normal; isolation: auto; transform-box: fill-box; transform-origin: 50% 50%; fill: rgb(204, 199, 61);" transform="matrix(0.99576, -0.091993, 0.091993, 0.99576, 0, -0.000001)"/><path stroke="rgb(255,0,0)" stroke-width="0" opacity="0.9921568627450981" d="M 96.59 207.288 C 98.492 207.04 103.246 207.271 104.8 208.051 C 105.779 208.543 105.926 209.535 106.327 210.152 C 106.653 210.652 106.741 211.065 107.091 211.488 C 107.482 211.961 108.137 212.271 108.619 212.825 C 109.163 213.45 109.701 213.265 110.146 215.116 C 111.594 221.145 112.91 255.883 112.437 267.813 C 112.145 275.183 111.304 279.306 110.146 283.469 C 109.63 285.326 109.065 287.091 108.401 288.562 C 111.116 289.996 114.876 291.934 115.874 292.825 C 116.513 293.395 116.373 293.445 116.638 294.161 C 117.114 295.449 118.335 298.998 118.165 300.653 C 118.038 301.894 117.594 302.807 116.638 303.517 C 115.406 304.432 112.925 305.421 110.719 305.044 C 107.914 304.566 102.661 298.644 101.172 299.316 C 99.931 299.877 101.409 304.633 100.981 306.381 C 100.668 307.661 100.43 308.535 99.454 309.245 C 98.166 310.18 94.846 310.908 93.153 310.772 C 91.817 310.665 90.791 310.427 89.907 309.245 C 88.542 307.417 88.787 299.817 87.234 298.934 C 86.075 298.276 83.42 300.525 82.652 301.226 C 82.211 301.628 82.371 302.034 82.079 302.371 C 81.757 302.744 81.125 302.944 80.743 303.326 C 80.361 303.708 80.415 304.27 79.788 304.662 C 78.74 305.319 75.647 306.303 74.06 306.19 C 72.762 306.097 71.596 305.699 70.814 304.662 C 69.801 303.32 68.948 300.033 69.287 297.98 C 69.618 295.967 71.803 293.397 72.724 292.443 C 73.24 291.907 73.425 292.143 74.06 291.679 C 75.245 290.815 78.434 287.975 79.597 286.906 C 80.274 286.283 80.51 285.856 80.934 285.569 C 81.265 285.344 81.464 285.561 81.888 285.187 C 82.293 284.831 82.938 283.84 83.637 282.745 C 83.696 281.343 83.766 279.704 83.798 277.741 C 83.974 266.877 82.773 234.781 85.325 223.135 C 86.869 216.091 90.577 211.008 92.198 209.197 C 92.895 208.419 93.264 208.718 93.917 208.433 C 94.694 208.094 95.336 207.451 96.59 207.288 Z" style="fill-opacity: 1; fill-rule: nonzero; stroke: rgb(5, 14, 26); stroke-dasharray: none; stroke-dashoffset: 0px; stroke-linecap: butt; stroke-linejoin: miter; stroke-miterlimit: 4; stroke-opacity: 1; stroke-width: 5px; paint-order: normal; vector-effect: none; opacity: 1; mix-blend-mode: normal; isolation: auto; transform-box: fill-box; transform-origin: 50% 50%; fill: rgb(85, 179, 59);" transform="matrix(0.997381, 0.07233, -0.07233, 0.997381, -0.000001, 0.000001)"/><path stroke="rgb(255,0,0)" stroke-width="0" opacity="0.9764705882352941" d="M 270.286 101.48 C 271.554 101.293 272.976 101.355 274.139 101.777 C 275.297 102.197 276.5 102.766 277.252 104 C 278.239 105.62 279.185 108.253 278.734 111.411 C 278.062 116.111 272.794 126.001 270.434 130.085 C 268.937 132.676 267.966 134.225 266.432 135.272 C 265.101 136.182 263.734 136.616 261.986 136.458 C 259.717 136.253 255.325 134.744 253.834 133.049 C 252.604 131.651 252.612 130.348 252.649 127.714 C 252.714 123.112 255.231 109.86 256.799 106.075 C 257.591 104.161 258.252 103.629 259.318 102.963 C 260.379 102.299 261.953 102.054 263.172 102.073 C 264.316 102.091 265.298 103.027 266.432 102.963 C 267.661 102.892 268.984 101.673 270.286 101.48 Z" style="fill-opacity: 1; fill-rule: nonzero; stroke: rgb(5, 14, 26); stroke-dasharray: none; stroke-dashoffset: 0px; stroke-linecap: butt; stroke-linejoin: miter; stroke-miterlimit: 4; stroke-opacity: 1; stroke-width: 5px; paint-order: normal; vector-effect: none; opacity: 1; mix-blend-mode: normal; isolation: auto; fill: rgb(23, 156, 67);"/><path stroke="rgb(255,0,0)" opacity="0.9411764705882353" d="M 278.242 116.755 C 278.628 116.673 279.362 116.582 279.856 116.755 C 280.368 116.935 280.943 117.356 281.249 117.855 C 281.577 118.389 281.883 119.026 281.689 119.909 C 281.38 121.314 278.925 123.632 278.169 125.629 C 277.441 127.55 277.653 130.291 277.142 131.642 C 276.802 132.544 276.47 133.121 275.895 133.476 C 275.321 133.83 274.311 133.932 273.695 133.769 C 273.132 133.62 272.608 133.156 272.302 132.669 C 271.984 132.163 271.837 131.713 271.862 130.762 C 271.906 129.071 272.593 125.037 273.622 122.695 C 274.582 120.511 276.917 117.757 277.655 117.048 C 277.943 116.773 277.973 116.813 278.242 116.755 Z M 85.32 88.218 C 88.076 89.096 92.616 91.329 93.866 92.82 C 94.612 93.712 94.512 94.737 94.392 95.45 C 94.291 96.046 93.972 96.567 93.471 96.896 C 92.872 97.29 91.906 97.641 90.842 97.422 C 89.305 97.105 86.976 94.798 85.057 94.003 C 83.296 93.275 82.153 92.808 79.798 92.689 C 76.303 92.512 69.886 92.919 65.335 94.266 C 60.818 95.604 53.912 99.661 52.582 100.709 C 52.169 101.034 52.404 101.123 52.188 101.366 C 51.879 101.713 51.126 102.023 50.741 102.549 C 50.315 103.133 50.389 104.322 49.821 104.784 C 49.229 105.267 47.857 105.449 47.192 105.31 C 46.664 105.201 46.29 104.896 46.008 104.39 C 45.627 103.704 45.325 102.225 45.482 101.235 C 45.638 100.254 46.593 98.956 46.929 98.474 C 47.097 98.231 47.013 98.325 47.323 98.079 C 47.843 97.667 49.385 96.485 51.137 95.235 C 50.317 94.026 49.196 91.243 49.259 90.097 C 49.302 89.303 49.922 88.785 50.339 88.44 C 50.684 88.154 51.004 87.985 51.491 88.008 C 52.176 88.04 53.431 88.3 54.157 89.088 C 54.718 89.699 55.336 91.007 55.738 92.234 C 55.782 92.21 55.826 92.186 55.869 92.163 C 58.221 90.899 59.95 90.118 62.698 89.404 C 62.3 88.216 62.012 86.902 62.08 86.207 C 62.158 85.407 62.743 84.896 63.16 84.55 C 63.505 84.265 63.825 84.096 64.313 84.118 C 64.997 84.15 66.315 84.407 66.978 85.199 C 67.492 85.812 67.952 87.127 68.21 88.343 C 71.568 87.849 75.295 87.498 77.878 87.437 C 77.79 86.548 77.807 85.612 77.926 85.055 C 78.09 84.292 78.59 83.743 79.007 83.398 C 79.352 83.112 79.68 82.939 80.159 82.966 C 80.819 83.002 82.169 83.314 82.68 84.046 C 83.197 84.786 83.298 86.532 83.189 87.684 C 83.869 87.804 84.56 87.976 85.32 88.218 Z M 213.64 89.796 C 215.294 90.755 216.759 91.684 217.453 92.82 C 218.041 93.781 218.124 95.167 217.979 95.976 C 217.867 96.605 217.56 97.093 217.059 97.422 C 216.46 97.816 215.094 98.086 214.429 97.948 C 213.902 97.838 213.625 97.399 213.246 97.027 C 212.833 96.622 212.813 96.142 212.063 95.581 C 210.666 94.538 207.175 92.402 204.174 91.637 C 200.858 90.791 196.189 90.759 192.867 91.111 C 189.989 91.416 188.137 92.698 185.242 93.215 C 181.865 93.817 175.473 94.642 173.672 94.266 C 172.878 94.101 172.77 93.808 172.488 93.346 C 172.147 92.786 171.856 91.643 171.962 90.979 C 172.055 90.402 171.997 90.01 172.883 89.533 C 173.83 89.023 176.208 88.399 179.085 87.806 C 178.769 86.664 178.597 85.201 178.72 84.446 C 178.846 83.672 179.383 83.135 179.8 82.79 C 180.145 82.504 180.474 82.331 180.953 82.358 C 181.613 82.394 182.905 82.693 183.474 83.438 C 183.991 84.117 184.306 85.648 184.367 86.841 C 187.091 86.399 189.789 86.044 191.852 85.87 C 191.521 84.881 191.39 83.361 191.541 82.574 C 191.683 81.835 192.204 81.262 192.621 80.917 C 192.967 80.631 193.295 80.458 193.774 80.485 C 194.434 80.521 195.769 80.86 196.295 81.565 C 196.894 82.367 197.041 84.335 196.871 85.311 C 196.852 85.421 196.826 85.529 196.795 85.634 C 199.776 85.605 202.566 85.804 205.011 86.28 C 204.976 85.692 205 85.125 205.083 84.735 C 205.237 84.003 205.746 83.423 206.163 83.078 C 206.508 82.792 206.836 82.619 207.316 82.646 C 207.976 82.682 209.332 83.029 209.837 83.726 C 210.401 84.505 210.453 86.379 210.269 87.328 C 210.228 87.539 210.166 87.743 210.086 87.935 C 211.418 88.539 212.618 89.203 213.64 89.796 Z M 291.661 123.1 C 292.353 123.003 293.38 123.049 294.201 123.417 C 295.134 123.836 296.274 124.994 296.9 125.692 C 297.374 126.221 297.669 126.578 297.852 127.174 C 298.061 127.853 298.17 128.887 297.958 129.608 C 297.752 130.31 297.27 130.886 296.635 131.46 C 296.546 131.541 296.449 131.623 296.346 131.707 C 296.438 131.964 296.519 132.219 296.582 132.466 C 296.927 133.807 297.126 135.428 296.9 136.911 C 296.663 138.462 295.72 140.497 295.101 141.567 C 294.669 142.313 294.312 142.706 293.778 143.102 C 293.238 143.502 292.603 143.769 291.873 143.948 C 291.043 144.152 289.885 144.342 289.015 144.16 C 288.181 143.986 287.205 143.539 286.74 142.943 C 286.297 142.375 286.132 141.357 286.211 140.721 C 286.28 140.164 286.57 139.632 287.004 139.292 C 287.494 138.908 288.501 138.684 289.121 138.657 C 289.639 138.634 290.11 139.175 290.497 138.974 C 290.978 138.725 291.394 137.461 291.608 136.805 C 291.784 136.265 291.906 135.97 291.82 135.323 C 291.768 134.933 291.554 134.36 291.302 133.756 C 291.061 133.752 290.826 133.729 290.603 133.683 C 289.765 133.509 288.872 132.918 288.327 132.36 C 287.836 131.856 287.543 131.261 287.375 130.561 C 287.185 129.771 287.204 128.602 287.375 127.809 C 287.525 127.113 287.804 126.627 288.222 126.01 C 288.718 125.276 289.643 124.221 290.285 123.735 C 290.77 123.368 291.1 123.178 291.661 123.1 Z" style="fill-opacity: 1; fill-rule: nonzero; stroke: rgb(5, 14, 26); stroke-dasharray: none; stroke-dashoffset: 0px; stroke-linecap: butt; stroke-linejoin: miter; stroke-miterlimit: 4; stroke-opacity: 1; paint-order: normal; vector-effect: none; opacity: 1; mix-blend-mode: normal; isolation: auto; fill: rgb(5, 14, 26); stroke-width: 0px;"/><path fill="rgb(255,0,0)" stroke="rgb(255,0,0)" stroke-width="0" opacity="0.9529411764705882" d="M 249.314 145.98 C 249.816 145.874 250.834 145.72 251.53 145.98 C 252.292 146.264 248.285 146.639 248.632 146.321 C 248.87 146.103 248.986 146.048 249.314 145.98 Z" style="fill: rgb(5, 14, 26); fill-opacity: 1; fill-rule: nonzero; stroke: rgb(5, 14, 26); stroke-dasharray: none; stroke-dashoffset: 0px; stroke-linecap: butt; stroke-linejoin: miter; stroke-miterlimit: 4; stroke-opacity: 1; stroke-width: 0px; paint-order: normal; vector-effect: none; opacity: 1; mix-blend-mode: normal; isolation: auto;"/><path stroke="rgb(255,0,0)" stroke-width="0" opacity="0.9882352941176471" d="M 132.413 96.719 C 133.373 96.569 134.261 96.772 135.106 97.079 C 135.969 97.392 136.876 97.855 137.53 98.605 C 138.26 99.442 138.725 100.464 139.146 102.016 C 139.749 104.243 138.974 109.674 140.223 111.262 C 141.145 112.435 143.066 111.778 144.442 112.34 C 145.881 112.927 147.635 113.821 148.661 114.764 C 149.534 115.564 150.089 116.366 150.457 117.457 C 150.877 118.701 151.02 120.565 150.816 121.945 C 150.624 123.244 150.035 124.402 149.38 125.536 C 148.701 126.711 148.099 127.802 146.776 128.858 C 145.012 130.266 141.653 132.105 139.056 132.808 C 136.623 133.466 133.471 133.379 131.695 133.167 C 130.481 133.022 129.854 132.758 129.001 132.269 C 128.081 131.742 127.168 130.945 126.398 130.025 C 125.565 129.029 124.725 127.579 124.243 126.434 C 123.825 125.437 123.657 124.685 123.525 123.561 C 123.365 122.192 123.087 120.463 123.525 118.714 C 124.054 116.603 126.248 112.836 127.026 111.801 C 127.373 111.34 127.681 111.693 127.834 111.173 C 128.205 109.921 126.561 104.279 126.937 102.016 C 127.209 100.373 127.894 99.22 128.822 98.335 C 129.731 97.468 131.299 96.894 132.413 96.719 Z" style="fill-opacity: 1; fill-rule: nonzero; stroke: rgb(5, 14, 26); stroke-dasharray: none; stroke-dashoffset: 0px; stroke-linecap: butt; stroke-linejoin: miter; stroke-miterlimit: 4; stroke-opacity: 1; stroke-width: 5px; paint-order: normal; vector-effect: none; opacity: 1; mix-blend-mode: normal; isolation: auto; fill: rgb(235, 117, 143);"/><path fill="rgb(255,0,0)" stroke="rgb(255,0,0)" stroke-width="0" opacity="0.9372549019607843" d="M 43.793 32.097 C 46.087 32.077 52.839 33.959 58.386 35.831 C 65.257 38.149 74.616 43.39 82.142 45.672 C 88.907 47.724 95.475 47.578 101.486 49.405 C 107.197 51.141 111.543 54.089 117.436 56.193 C 124.015 58.54 136.784 60.588 139.326 62.641 C 140.397 63.506 140.049 64.467 140.004 65.186 C 139.967 65.785 139.825 66.349 139.326 66.713 C 138.645 67.209 137.639 67.565 135.762 67.392 C 132.034 67.047 122.72 63.84 116.418 61.623 C 110.166 59.423 104.095 55.921 98.092 54.156 C 92.456 52.5 88.48 53.101 81.463 51.102 C 71.347 48.22 45.252 39.219 41.927 36.34 C 40.932 35.478 41.513 34.917 41.587 34.303 C 41.656 33.739 41.899 33.144 42.266 32.776 C 42.634 32.409 42.842 32.106 43.793 32.097 Z M 251.147 108.116 C 251.866 108.071 253.114 107.959 253.693 108.795 C 254.64 110.162 254.589 116.114 254.371 117.788 C 254.261 118.641 253.959 118.969 253.693 119.315 C 253.49 119.579 253.26 119.521 253.014 119.824 C 252.613 120.318 252.039 121.778 251.657 122.369 C 251.398 122.77 251.188 122.869 250.978 123.218 C 250.728 123.633 250.744 124.382 250.299 124.745 C 249.765 125.181 248.508 125.534 247.754 125.424 C 247.05 125.321 246.269 124.886 245.887 124.236 C 245.434 123.464 245.203 122.039 245.548 120.842 C 245.975 119.359 248.252 117.979 248.942 116.091 C 249.697 114.024 248.948 109.924 249.62 108.795 C 249.993 108.169 250.548 108.154 251.147 108.116 Z M 254.541 135.265 C 255.444 135.183 257.48 135.526 258.105 135.944 C 258.497 136.208 258.174 136.667 258.614 136.962 C 259.432 137.512 262.954 137.358 263.874 138.15 C 264.547 138.73 264.591 139.84 264.553 140.526 C 264.52 141.112 264.339 141.69 263.874 142.053 C 263.289 142.51 262.059 142.658 260.989 142.732 C 259.772 142.816 258.243 142.87 256.917 142.392 C 255.465 141.869 253.35 140.478 252.675 139.508 C 252.205 138.833 252.261 138.085 252.335 137.471 C 252.403 136.907 252.646 136.312 253.014 135.944 C 253.382 135.577 253.879 135.326 254.541 135.265 Z M 233.84 163.772 C 234.558 163.727 235.794 163.543 236.385 164.451 C 237.46 166.102 237.566 173.034 237.064 176.159 C 236.668 178.622 235.554 181.099 234.518 182.098 C 233.813 182.779 232.862 182.878 232.143 182.777 C 231.454 182.681 230.646 182.168 230.276 181.589 C 229.894 180.992 229.815 180.148 229.937 179.214 C 230.097 177.988 231.237 176.715 231.634 174.802 C 232.177 172.182 231.526 165.89 232.313 164.451 C 232.692 163.758 233.241 163.81 233.84 163.772 Z M 224.665 206.804 C 225.331 206.832 226.881 207.287 227.395 207.916 C 227.872 208.501 228.092 208.822 227.799 210.342 C 226.986 214.563 219.475 232.341 215.466 239.457 C 212.547 244.637 207.969 249.766 206.873 250.881 C 206.566 251.192 206.604 250.972 206.367 251.184 C 205.88 251.622 205.007 252.937 204.042 253.914 C 202.872 255.097 200.487 256.9 199.695 257.755 C 199.268 258.215 199.446 258.311 198.987 258.766 C 198.089 259.659 195.58 261.898 193.73 262.81 C 191.996 263.665 189.461 264.39 188.271 264.225 C 187.504 264.119 187.076 263.621 186.755 263.113 C 186.422 262.587 186.232 261.715 186.35 261.091 C 186.469 260.469 186.801 259.903 187.462 259.373 C 188.413 258.611 190.61 258.308 192.113 257.351 C 193.753 256.306 195.73 254.313 196.864 253.206 C 197.657 252.432 197.913 251.901 198.583 251.285 C 199.311 250.616 200.346 250.122 201.11 249.364 C 201.901 248.58 202.856 247.073 203.233 246.635 C 203.397 246.445 203.352 246.552 203.536 246.331 C 204.074 245.69 206.739 242.019 207.277 241.378 C 207.462 241.158 207.397 241.314 207.58 241.075 C 208.163 240.314 210.602 237.138 211.826 234.605 C 213.219 231.723 213.955 227.298 215.263 224.495 C 216.362 222.141 217.672 221.055 218.903 218.632 C 220.458 215.571 222.573 208.512 223.654 207.208 C 224.063 206.715 224.218 206.784 224.665 206.804 Z M 58.803 202.962 C 59.469 202.991 60.5 202.781 61.533 204.074 C 64.085 207.27 67.906 224.216 71.44 230.561 C 74.013 235.18 77.214 237.345 79.528 240.468 C 81.58 243.238 83.98 246.407 84.785 248.353 C 85.283 249.558 85.352 250.394 85.189 251.184 C 85.072 251.749 84.762 252.302 84.359 252.679 C 84.482 253.675 84.341 254.93 84.199 256.041 C 83.954 257.962 83.233 261.413 82.275 262.324 C 81.644 262.924 80.605 262.762 79.967 262.58 C 79.389 262.416 78.862 262.107 78.557 261.426 C 78.094 260.395 78.055 258.049 78.3 256.297 C 78.497 254.894 79.199 252.75 79.747 251.467 C 77.33 248.281 71.527 238.95 70.126 237.334 C 69.615 236.745 69.63 237.16 69.216 236.626 C 68.228 235.354 66.033 231.403 64.363 227.73 C 62.225 223.026 58.876 214.101 57.691 210.14 C 56.985 207.78 56.501 206.264 56.68 205.085 C 56.804 204.27 57.386 203.714 57.792 203.366 C 58.108 203.096 58.356 202.943 58.803 202.962 Z M 106.967 16.178 C 107.602 16.185 108.758 16.313 109.296 17.036 C 110.039 18.037 109.119 21.913 110.154 22.551 C 111.194 23.193 114.336 20.781 115.546 20.836 C 116.313 20.87 116.754 21.247 117.139 21.693 C 117.548 22.167 117.939 22.978 117.875 23.654 C 117.803 24.402 117.514 25.187 116.526 25.983 C 114.779 27.391 108.19 30.278 106.232 30.395 C 105.243 30.454 104.823 30.143 104.393 29.537 C 103.818 28.724 103.58 27.083 103.658 25.37 C 103.764 23.059 104.922 17.829 105.742 16.669 C 106.123 16.129 106.474 16.173 106.967 16.178 Z" style="fill: rgb(5, 14, 26); fill-opacity: 1; fill-rule: nonzero; stroke: rgb(5, 14, 26); stroke-dasharray: none; stroke-dashoffset: 0px; stroke-linecap: butt; stroke-linejoin: miter; stroke-miterlimit: 4; stroke-opacity: 1; stroke-width: 0px; paint-order: normal; vector-effect: none; opacity: 1; mix-blend-mode: normal; isolation: auto;"/></svg>