<?xml version="1.0" encoding="utf-8"?>
<svg xmlns="http://www.w3.org/2000/svg" viewBox="0 0 50 50" width="50px" height="50px" xmlns:bx="https://boxy-svg.com"><defs><bx:export><bx:file format="svg"/></bx:export></defs><path fill="rgb(255,0,0)" stroke="rgb(255,0,0)" stroke-width="0" opacity="0.9882352941176471" d="M 24.572 2.576 C 26.263 2.512 28.287 2.532 29.902 2.795 C 31.381 3.036 32.59 3.459 33.932 3.996 C 35.363 4.569 36.934 5.367 38.223 6.18 C 39.457 6.959 40.596 7.699 41.538 8.746 C 42.55 9.872 43.572 11.509 44.008 12.787 C 44.386 13.895 44.356 14.913 44.268 15.954 C 44.18 16.988 43.973 18.009 43.488 19.012 C 42.967 20.087 41.157 21.501 41.148 22.178 C 41.142 22.592 41.716 22.77 41.993 22.997 C 42.235 23.196 42.405 23.206 42.708 23.489 C 43.243 23.989 44.315 25.157 44.918 26.11 C 45.534 27.083 46.08 28.107 46.348 29.277 C 46.642 30.559 46.782 32.037 46.478 33.536 C 46.137 35.219 45.12 37.402 44.138 38.887 C 43.275 40.19 42.376 41.124 41.083 42.108 C 39.646 43.202 37.439 44.352 35.752 45.057 C 34.299 45.664 33.471 45.97 31.592 46.258 C 28.837 46.681 23.608 47.102 20.151 46.804 C 17.046 46.537 13.875 45.703 11.701 44.838 C 9.974 44.151 8.679 43.236 7.736 42.381 C 6.959 41.678 6.5 40.981 6.176 40.198 C 5.851 39.415 5.729 38.472 5.786 37.685 C 5.839 36.949 6.083 36.213 6.436 35.61 C 6.769 35.04 7.229 34.556 7.801 34.136 C 8.406 33.691 9.238 33.262 10.011 33.044 C 10.757 32.834 11.552 32.762 12.351 32.826 C 13.197 32.892 14.225 33.156 14.951 33.481 C 15.609 33.776 16.173 34.25 16.576 34.628 C 16.909 34.94 16.834 35.284 17.291 35.555 C 17.991 35.972 19.762 36.382 20.931 36.539 C 22.009 36.684 22.798 36.611 24.052 36.539 C 25.683 36.445 28.417 36.408 30.032 35.883 C 31.415 35.435 32.642 34.518 33.347 33.863 C 33.868 33.38 34.115 32.905 34.257 32.443 C 34.384 32.033 34.469 31.673 34.257 31.242 C 33.972 30.66 32.981 29.717 32.242 29.332 C 31.6 28.995 31.277 28.94 30.162 28.894 C 27.991 28.806 21.023 29.857 18.851 29.768 C 17.737 29.722 17.434 29.597 16.771 29.332 C 16.065 29.048 15.292 28.57 14.756 28.076 C 14.241 27.6 13.846 27.052 13.586 26.438 C 13.31 25.787 13.15 24.967 13.196 24.254 C 13.241 23.548 13.494 22.781 13.846 22.178 C 14.179 21.608 14.639 21.124 15.211 20.704 C 15.817 20.26 16.325 19.916 17.421 19.612 C 19.139 19.136 22.804 19.369 25.222 18.629 C 27.635 17.893 31.809 16.184 31.917 15.189 C 32.006 14.379 29.148 13.425 27.952 13.06 C 27.007 12.772 26.303 12.777 25.352 12.841 C 24.252 12.915 23.082 13.08 21.712 13.606 C 19.904 14.299 17.169 16.499 15.471 17.1 C 14.289 17.52 13.371 17.559 12.481 17.537 C 11.707 17.519 11.064 17.366 10.401 17.1 C 9.695 16.818 8.922 16.339 8.386 15.845 C 7.87 15.369 7.476 14.821 7.216 14.206 C 6.94 13.556 6.78 12.736 6.826 12.023 C 6.871 11.317 7.123 10.551 7.476 9.948 C 7.809 9.377 8.026 9.078 8.841 8.473 C 10.278 7.406 14.473 5.105 16.511 4.214 C 17.934 3.593 18.742 3.392 20.021 3.123 C 21.41 2.829 22.979 2.637 24.572 2.576 Z" style="fill: rgb(250, 160, 50); fill-opacity: 1; fill-rule: nonzero; stroke: rgb(5, 14, 26); stroke-dasharray: none; stroke-dashoffset: 0px; stroke-linecap: butt; stroke-linejoin: miter; stroke-miterlimit: 4; stroke-opacity: 1; stroke-width: 5px; paint-order: normal; vector-effect: none; opacity: 1; mix-blend-mode: normal; isolation: auto;"/></svg>