<?xml version="1.0" encoding="utf-8"?>
<svg xmlns="http://www.w3.org/2000/svg" viewBox="0 0 50 50" width="50px" height="50px" xmlns:bx="https://boxy-svg.com"><defs><bx:export><bx:file format="svg"/></bx:export></defs><path fill="rgb(255,0,0)" stroke="rgb(255,0,0)" stroke-width="0" opacity="0.9882352941176471" d="M 11.831 2.192 C 12.872 2.062 13.951 2.337 14.821 2.712 C 15.651 3.07 16.392 3.563 16.966 4.337 C 17.633 5.237 18.105 6.24 18.396 7.977 C 18.852 10.7 16.516 18.038 18.396 20.003 C 20.162 21.848 27.157 21.861 28.667 20.133 C 30.223 18.353 27.157 11.408 27.237 9.148 C 27.281 7.891 27.534 7.395 27.887 6.677 C 28.22 5.998 28.68 5.422 29.252 4.922 C 29.858 4.393 30.69 3.881 31.462 3.622 C 32.209 3.372 33.003 3.287 33.802 3.362 C 34.648 3.441 35.677 3.755 36.402 4.142 C 37.06 4.493 37.551 4.88 38.028 5.507 C 38.597 6.257 38.98 7.028 39.458 8.498 C 40.235 10.887 41.311 15.364 41.798 19.418 C 42.352 24.038 42.307 30.697 42.318 34.889 C 42.326 38.098 42.577 40.842 42.058 42.82 C 41.67 44.295 40.837 45.398 40.173 46.135 C 39.673 46.69 39.269 46.92 38.613 47.175 C 37.817 47.484 36.512 47.721 35.622 47.695 C 34.848 47.672 34.205 47.491 33.542 47.175 C 32.836 46.838 32.089 46.42 31.527 45.68 C 30.845 44.78 30.258 43.47 29.967 41.91 C 29.598 39.929 29.92 36.092 29.967 34.499 C 29.994 33.577 30.463 33.01 30.097 32.614 C 29.637 32.117 28.351 32.305 26.782 32.224 C 24.213 32.092 17.962 32.181 15.341 32.224 C 13.707 32.251 12.822 32.45 11.831 32.354 C 11.017 32.275 10.414 32.15 9.751 31.834 C 9.045 31.497 8.297 31.079 7.736 30.339 C 7.053 29.439 6.512 28.574 6.176 26.569 C 5.558 22.89 5.845 11.161 6.176 7.977 C 6.325 6.538 6.473 6.225 6.826 5.507 C 7.159 4.828 7.511 4.261 8.191 3.752 C 9.047 3.111 10.673 2.337 11.831 2.192 Z" style="fill: rgb(250, 160, 50); fill-opacity: 1; fill-rule: nonzero; stroke: rgb(5, 14, 26); stroke-dasharray: none; stroke-dashoffset: 0px; stroke-linecap: butt; stroke-linejoin: miter; stroke-miterlimit: 4; stroke-opacity: 1; stroke-width: 5px; paint-order: normal; vector-effect: none; opacity: 1; mix-blend-mode: normal; isolation: auto;"/></svg>