<?xml version="1.0" encoding="utf-8"?>
<svg xmlns="http://www.w3.org/2000/svg" viewBox="0 0 10 50" width="10px" height="50px" xmlns:bx="https://boxy-svg.com"><defs><bx:export><bx:file format="svg"/></bx:export></defs><path fill="rgb(255,0,0)" stroke="rgb(255,0,0)" stroke-width="0" opacity="0.984313725490196" d="M 4.93 2.787 C 5.338 2.725 6.005 2.711 6.468 2.897 C 6.942 3.088 7.468 3.6 7.731 3.941 C 7.933 4.202 7.981 4.19 8.061 4.71 C 8.276 6.106 8.542 12.801 8.061 14.599 C 7.809 15.542 7.426 15.871 6.907 16.192 C 6.385 16.516 5.527 16.662 4.93 16.522 C 4.337 16.383 3.647 15.739 3.336 15.368 C 3.115 15.105 3.087 15.119 3.007 14.599 C 2.792 13.203 2.525 6.509 3.007 4.71 C 3.259 3.768 3.79 3.428 4.16 3.117 C 4.424 2.896 4.609 2.836 4.93 2.787 Z M 5.039 19.269 C 5.501 19.182 6.029 19.2 6.468 19.379 C 6.931 19.568 7.468 20.082 7.731 20.423 C 7.933 20.683 7.984 20.709 8.061 21.192 C 8.244 22.336 8.458 26.947 8.061 28.444 C 7.821 29.348 7.423 29.81 6.907 30.147 C 6.408 30.473 5.626 30.604 5.039 30.476 C 4.433 30.345 3.663 29.717 3.336 29.323 C 3.098 29.035 3.083 28.974 3.007 28.444 C 2.834 27.243 2.73 22.551 3.007 21.192 C 3.151 20.483 3.335 20.247 3.666 19.928 C 4.006 19.601 4.566 19.358 5.039 19.269 Z M 4.71 33.113 C 5.171 33.026 5.7 33.044 6.138 33.223 C 6.601 33.412 7.138 33.926 7.402 34.267 C 7.604 34.528 7.652 34.522 7.731 35.036 C 7.942 36.393 8.19 42.7 7.731 44.486 C 7.482 45.456 7.094 45.852 6.578 46.189 C 6.078 46.515 5.297 46.646 4.71 46.518 C 4.104 46.387 3.333 45.759 3.007 45.365 C 2.768 45.077 2.756 45.051 2.677 44.486 C 2.479 43.062 2.358 36.653 2.677 35.036 C 2.827 34.278 3.005 34.092 3.336 33.773 C 3.677 33.445 4.237 33.203 4.71 33.113 Z" style="fill: rgb(5, 14, 26); fill-opacity: 1; fill-rule: nonzero; stroke: rgb(5, 14, 26); stroke-dasharray: none; stroke-dashoffset: 0px; stroke-linecap: butt; stroke-linejoin: miter; stroke-miterlimit: 4; stroke-opacity: 1; stroke-width: 0px; paint-order: normal; vector-effect: none; opacity: 1; mix-blend-mode: normal; isolation: auto;"/></svg>