<?xml version="1.0" encoding="utf-8"?>
<svg xmlns="http://www.w3.org/2000/svg" viewBox="0 0 39 50" width="50px" height="50px" xmlns:bx="https://boxy-svg.com" preserveAspectRatio="none"><defs><bx:export><bx:file format="svg"/></bx:export></defs><path stroke="rgb(255,0,0)" opacity="0.984313725490196" d="M 20.088 14.106 C 20.842 14.058 22.36 14.236 24.045 15.005 C 26.737 16.234 33.344 20.792 34.925 22.289 C 35.624 22.95 35.665 23.152 35.825 23.727 C 36.006 24.382 36.026 25.428 35.825 26.065 C 35.649 26.623 35.24 27.098 34.835 27.414 C 34.453 27.713 33.823 27.692 33.487 27.954 C 33.186 28.188 33.312 28.427 32.857 28.853 C 31.838 29.808 27.81 32.125 26.113 33.619 C 24.787 34.786 24.143 36.375 23.146 36.946 C 22.371 37.39 21.446 37.452 20.808 37.306 C 20.251 37.178 19.749 36.82 19.459 36.317 C 19.116 35.721 18.783 34.749 19.099 33.799 C 19.552 32.438 22.272 29.916 23.146 29.033 C 23.609 28.565 24.124 28.354 24.135 28.224 C 24.141 28.152 24.125 28.152 23.865 28.134 C 22.469 28.036 7.572 29.418 4.981 28.853 C 3.999 28.639 3.921 28.356 3.632 27.864 C 3.3 27.299 3.126 26.165 3.273 25.526 C 3.4 24.97 3.702 24.511 4.262 24.177 C 5.029 23.72 6.111 23.608 7.859 23.458 C 10.8 23.204 18.033 23.641 21.347 23.458 C 23.604 23.333 26.454 23.462 26.473 22.828 C 26.496 22.042 19.848 19.952 18.739 18.512 C 18.048 17.613 18.214 16.52 18.38 15.814 C 18.516 15.234 19.044 14.75 19.369 14.465 C 19.611 14.253 19.694 14.131 20.088 14.106 Z" style="fill-opacity: 1; fill-rule: nonzero; stroke: rgb(5, 14, 26); stroke-dasharray: none; stroke-dashoffset: 0px; stroke-linecap: butt; stroke-linejoin: miter; stroke-miterlimit: 4; stroke-opacity: 1; paint-order: normal; vector-effect: none; opacity: 1; mix-blend-mode: normal; isolation: auto; stroke-width: 0px; fill: rgb(5, 14, 26);"/></svg>