<?xml version="1.0" encoding="utf-8"?>
<svg xmlns="http://www.w3.org/2000/svg" viewBox="0 0 40 50" width="40px" height="50px" xmlns:bx="https://boxy-svg.com"><defs><bx:export><bx:file format="svg"/></bx:export></defs><path opacity="0.9921568627450981" d="M 33.243 6.163 C 33.659 6.741 33.926 7.362 34.089 8.278 C 34.31 9.523 33.968 11.52 34.089 13.185 C 34.214 14.902 34.723 16.662 34.85 18.43 C 34.979 20.215 34.939 22.249 34.85 23.845 C 34.774 25.21 34.508 25.97 34.427 27.483 C 34.318 29.529 34.354 32.716 34.427 35.267 C 34.498 37.763 35.002 41.158 34.85 42.627 C 34.767 43.426 34.61 43.684 34.343 44.15 C 34.066 44.632 33.649 45.129 33.2 45.462 C 32.759 45.788 32.155 46.016 31.677 46.138 C 31.26 46.245 31.025 46.235 30.493 46.223 C 29.683 46.204 28.638 45.953 27.109 45.885 C 24.773 45.78 19.259 46.022 17.295 45.885 C 16.243 45.811 16.099 45.61 15.264 45.546 C 14.159 45.461 11.883 45.507 11.119 45.546 C 10.747 45.565 10.739 45.665 10.442 45.631 C 9.988 45.579 9.083 45.326 8.58 45.039 C 8.136 44.785 7.823 44.503 7.523 44.066 C 7.167 43.547 6.852 43.043 6.677 42.035 C 6.387 40.371 6.82 36.743 6.677 34.336 C 6.545 32.114 6.06 30.636 5.915 28.075 C 5.725 24.698 5.861 19.153 5.915 15.469 C 5.961 12.366 5.909 8.742 6.169 7.263 C 6.296 6.54 6.427 6.387 6.677 5.994 C 6.73 5.911 6.785 5.828 6.843 5.745 C 6.844 5.743 6.845 5.742 6.846 5.74 C 7.117 5.278 7.432 4.903 7.904 4.598 C 8.449 4.243 8.739 4.002 10.019 3.836 C 12.951 3.457 25.065 4.115 27.87 4.09 C 29.006 4.08 29.161 3.954 29.732 4.005 C 30.252 4.052 30.707 4.11 31.17 4.344 C 31.61 4.566 32.112 4.981 32.478 5.375 C 32.765 5.605 33.035 5.875 33.243 6.163 Z" style="fill-opacity: 1; fill-rule: nonzero; stroke-dasharray: none; stroke-dashoffset: 0px; stroke-linecap: butt; stroke-linejoin: miter; stroke-miterlimit: 4; stroke-opacity: 1; paint-order: normal; vector-effect: none; opacity: 1; mix-blend-mode: normal; isolation: auto; fill: rgb(242, 242, 218); stroke-width: 5px; stroke: rgb(5, 14, 26);"/><path fill="rgb(255,0,0)" stroke="rgb(255,0,0)" stroke-width="0" opacity="0.9764705882352941" d="M 22.367 31.667 C 22.341 32.558 22.449 33.824 22.198 34.629 C 21.985 35.31 21.631 35.933 21.14 36.278 C 20.655 36.62 19.864 36.793 19.279 36.701 C 18.694 36.61 17.99 36.116 17.629 35.728 C 17.329 35.406 17.22 35.12 17.122 34.629 C 16.984 33.942 17.078 32.749 17.122 31.837 C 17.152 31.218 17.148 30.527 17.222 29.932 C 17.064 28.925 16.934 27.155 17.071 26.125 C 17.062 25.76 17.114 25.351 17.122 24.645 C 17.131 23.763 17.174 21.981 17.215 20.168 C 16.953 20.482 16.899 20.698 16.572 20.88 C 16.1 21.144 15.229 21.399 14.626 21.303 C 14.032 21.209 13.336 20.809 12.976 20.33 C 12.609 19.842 12.447 18.925 12.468 18.385 C 12.485 17.948 12.627 17.697 12.892 17.285 C 13.259 16.711 13.974 16.033 14.711 15.296 C 15.614 14.393 17.19 12.808 18.01 12.251 C 18.508 11.913 18.762 11.805 19.195 11.743 C 19.576 11.688 20.059 11.715 20.467 11.828 C 20.911 11.863 21.408 11.989 21.902 12.251 C 22.822 12.739 24.015 14.046 24.905 14.916 C 25.716 15.707 26.444 16.664 27.063 17.242 C 27.529 17.679 28.014 17.765 28.29 18.215 C 28.593 18.711 28.82 19.56 28.713 20.161 C 28.606 20.758 28.16 21.465 27.655 21.811 C 27.138 22.165 26.329 22.375 25.624 22.234 C 24.802 22.069 23.922 21.316 23.044 20.584 C 22.841 20.414 22.628 20.214 22.411 19.995 C 22.458 22.24 22.499 24.904 22.267 26.26 C 22.415 27.293 22.569 29.066 22.414 30.071 C 22.428 30.551 22.384 31.106 22.367 31.667 Z" style="fill: rgb(5, 14, 26); fill-opacity: 1; fill-rule: nonzero; stroke: rgb(5, 14, 26); stroke-dasharray: none; stroke-dashoffset: 0px; stroke-linecap: butt; stroke-linejoin: miter; stroke-miterlimit: 4; stroke-opacity: 1; stroke-width: 0px; paint-order: normal; vector-effect: none; opacity: 1; mix-blend-mode: normal; isolation: auto;"/></svg>