<?xml version="1.0" encoding="utf-8"?>
<svg xmlns="http://www.w3.org/2000/svg" viewBox="0 0 50 50" width="50px" height="50px" xmlns:bx="https://boxy-svg.com"><defs><bx:export><bx:file format="svg"/></bx:export></defs><path stroke="rgb(255,0,0)" stroke-width="0" opacity="0.9725490196078431" d="M 28.023 13.08 C 28.237 13.323 28.082 13.307 28.293 13.53 C 28.79 14.055 30.989 15.553 31.8 16.317 C 32.361 16.846 32.405 17.115 32.969 17.666 C 33.81 18.489 35.9 19.657 36.656 20.813 C 37.309 21.812 37.819 22.704 37.555 24.051 C 37.158 26.081 34.419 29.406 32.52 31.964 C 30.565 34.596 26.843 38.785 25.955 39.607 C 25.683 39.859 25.751 39.638 25.506 39.877 C 24.808 40.557 22.503 44.512 21.099 45.542 C 20.108 46.27 19.176 46.528 18.222 46.441 C 17.228 46.351 15.899 45.705 15.254 44.913 C 14.64 44.158 14.336 42.831 14.35 41.83 C 14.18 40.939 14.243 40.275 14.355 38.798 C 14.466 37.332 14.716 34.481 15.055 31.821 C 13.9 30.064 12.822 28.333 12.287 27.737 C 11.871 27.274 11.832 27.472 11.478 27.108 C 10.846 26.459 9.269 24.824 8.78 23.691 C 8.364 22.728 7.978 22.284 8.42 20.813 C 9.246 18.069 14.971 9.137 17.958 5.464 C 18.306 4.764 18.836 4.39 19.301 3.998 C 19.912 3.482 20.637 3.225 21.459 3.278 C 22.472 3.344 23.928 3.494 24.966 4.807 C 26.066 6.197 27.018 9.542 27.824 12.857 C 27.903 12.944 27.97 13.019 28.023 13.08 Z" style="fill-opacity: 1; fill-rule: nonzero; stroke: rgb(5, 14, 26); stroke-dasharray: none; stroke-dashoffset: 0px; stroke-linecap: butt; stroke-linejoin: miter; stroke-miterlimit: 4; stroke-opacity: 1; stroke-width: 5px; paint-order: normal; vector-effect: none; opacity: 1; mix-blend-mode: normal; isolation: auto; fill: rgb(250, 217, 55);"/></svg>