<?xml version="1.0" encoding="utf-8"?>
<svg xmlns="http://www.w3.org/2000/svg" viewBox="0 0 41 50" width="50px" height="50px" xmlns:bx="https://boxy-svg.com" preserveAspectRatio="none"><defs><bx:export><bx:file format="svg"/></bx:export></defs><path stroke="rgb(255,0,0)" stroke-width="0" opacity="0.9764705882352941" d="M 11.987 3.099 C 12.999 3.165 14.714 3.746 15.494 4.628 C 16.29 5.528 15.511 7.546 16.663 8.494 C 18.3 9.842 23.738 9.551 26.195 10.473 C 28.094 11.185 29.332 11.857 30.601 13.08 C 31.974 14.404 33.333 16.456 34.018 18.296 C 34.675 20.061 35.158 21.815 34.737 23.871 C 34.211 26.441 29.885 30.56 30.061 32.504 C 30.184 33.853 32.183 34.192 32.939 35.201 C 33.669 36.177 34.268 37.396 34.557 38.439 C 34.815 39.367 34.937 40.251 34.737 41.136 C 34.524 42.081 34.084 43.111 33.209 43.924 C 32.108 44.946 30.155 45.968 28.173 46.442 C 25.881 46.99 22.66 47.133 20.08 46.622 C 17.505 46.111 14.404 44.416 12.706 43.384 C 11.534 42.672 10.795 41.844 10.278 41.316 C 9.95 40.981 9.889 40.747 9.649 40.507 C 9.409 40.267 9.171 40.255 8.84 39.877 C 8.253 39.207 7.014 37.687 6.502 36.28 C 5.938 34.733 5.417 32.57 5.782 30.885 C 6.152 29.18 7.531 27.366 8.75 26.119 C 9.896 24.947 11.733 24.814 12.796 23.511 C 14.003 22.032 15.876 19.051 15.314 17.397 C 14.72 15.649 10.028 14.76 8.84 13.44 C 8.03 12.541 7.942 11.691 7.76 10.742 C 7.575 9.775 7.484 8.749 7.76 7.685 C 8.08 6.456 9 4.555 9.829 3.818 C 10.466 3.252 11.164 3.046 11.987 3.099 Z" style="fill-opacity: 1; fill-rule: nonzero; stroke: rgb(5, 14, 26); stroke-dasharray: none; stroke-dashoffset: 0px; stroke-linecap: butt; stroke-linejoin: miter; stroke-miterlimit: 4; stroke-opacity: 1; stroke-width: 5px; paint-order: normal; vector-effect: none; opacity: 1; mix-blend-mode: normal; isolation: auto; fill: rgb(255, 112, 112);"/></svg>