<?xml version="1.0" encoding="utf-8"?>
<svg xmlns="http://www.w3.org/2000/svg" viewBox="0 0 50 50" width="50px" height="50px" xmlns:bx="https://boxy-svg.com"><defs><bx:export><bx:file format="svg"/></bx:export></defs><path stroke="rgb(255,0,0)" stroke-width="0" opacity="0.996078431372549" d="M 15.237 3.901 C 16.203 3.763 17.262 3.81 18.16 3.901 C 18.978 3.983 19.644 4.125 20.424 4.372 C 21.274 4.642 22.288 5.024 23.064 5.504 C 23.803 5.961 24.444 6.608 24.998 7.155 C 25.495 7.645 26.066 8.56 26.271 8.616 C 26.354 8.639 26.308 8.57 26.413 8.475 C 26.748 8.169 28.362 6.646 29.195 6.07 C 29.851 5.616 30.378 5.364 30.987 5.127 C 31.574 4.898 32.002 4.747 32.779 4.655 C 33.87 4.526 35.909 4.525 37.117 4.655 C 38.088 4.76 38.804 4.865 39.569 5.221 C 40.364 5.591 41.136 6.166 41.785 6.872 C 42.487 7.634 43.095 8.67 43.577 9.701 C 44.078 10.77 44.47 11.905 44.709 13.191 C 44.973 14.613 45.286 15.945 44.992 17.906 C 44.575 20.68 42.786 25.744 41.408 28.563 C 40.301 30.829 39.188 32.014 37.73 33.939 C 36.044 36.166 33.233 39.596 31.741 41.154 C 30.803 42.134 30.214 42.384 29.525 43.087 C 28.829 43.798 28.218 44.901 27.591 45.398 C 27.11 45.78 26.677 45.932 26.177 46.058 C 25.671 46.186 25.259 46.291 24.573 46.153 C 23.536 45.943 21.614 45.151 20.424 44.361 C 19.29 43.608 18.568 42.742 17.547 41.578 C 16.29 40.145 14.854 38.348 13.492 36.203 C 11.872 33.652 9.825 29.95 8.588 27.054 C 7.488 24.481 6.755 21.748 6.23 19.698 C 5.821 18.103 5.586 16.775 5.475 15.643 C 5.388 14.752 5.306 14.259 5.475 13.379 C 5.694 12.238 6.29 10.5 6.984 9.324 C 7.644 8.206 8.565 7.221 9.484 6.447 C 10.351 5.717 11.338 5.176 12.313 4.75 C 13.257 4.336 14.254 4.041 15.237 3.901 Z" style="fill-opacity: 1; fill-rule: nonzero; stroke: rgb(5, 14, 26); stroke-dasharray: none; stroke-dashoffset: 0px; stroke-linecap: butt; stroke-linejoin: miter; stroke-miterlimit: 4; stroke-opacity: 1; stroke-width: 5px; paint-order: normal; vector-effect: none; opacity: 1; mix-blend-mode: normal; isolation: auto; fill: rgb(245, 49, 65);"/></svg>