<?xml version="1.0" encoding="utf-8"?>
<svg xmlns="http://www.w3.org/2000/svg" viewBox="0 0 50 50" width="50px" height="50px" xmlns:bx="https://boxy-svg.com"><defs><bx:export><bx:file format="svg"/></bx:export></defs><path stroke="rgb(255,0,0)" stroke-width="0" opacity="0.9882352941176471" d="M 9.642 8.04 C 10.887 7.8 12.432 7.728 13.946 8.327 C 15.853 9.082 18.804 11.876 20.044 12.99 C 20.772 13.644 21.038 14.148 21.407 14.496 C 21.663 14.738 21.786 14.686 22.052 14.999 C 22.546 15.577 22.815 18.106 24.061 18.227 C 26.073 18.422 32.843 12.339 34.606 11.34 C 35.341 10.924 35.342 10.875 35.897 10.766 C 36.634 10.621 37.694 10.409 38.767 10.766 C 40.207 11.246 42.684 12.928 43.717 14.138 C 44.528 15.089 44.761 15.847 45.008 17.151 C 45.34 18.905 45.166 21.691 45.008 24.037 C 44.843 26.469 44.64 29.54 44.003 31.498 C 43.499 33.05 42.949 34.124 41.923 35.156 C 40.795 36.292 38.748 37.313 37.332 37.882 C 36.153 38.357 35.283 38.471 34.032 38.6 C 32.566 38.751 30.445 38.87 29.011 38.6 C 27.782 38.368 26.689 37.828 25.854 37.308 C 25.149 36.87 24.752 36.488 24.204 35.802 C 23.507 34.929 22.948 32.426 22.124 32.287 C 21.335 32.154 20.627 33.853 19.398 34.726 C 17.736 35.907 14.594 37.971 12.655 38.6 C 11.186 39.076 9.922 39.147 8.781 38.887 C 7.719 38.645 6.753 38.091 5.983 37.237 C 5.098 36.253 4.458 34.439 3.975 33.076 C 3.527 31.812 3.279 30.908 3.114 29.346 C 2.893 27.244 2.85 24.075 3.114 21.311 C 3.393 18.394 4.03 14.314 4.836 12.273 C 5.377 10.902 5.958 10.183 6.773 9.475 C 7.568 8.783 8.536 8.254 9.642 8.04 Z M 12.44 17.079 C 11.899 17.41 11.351 21.248 11.148 23.105 C 10.968 24.755 10.991 26.548 11.148 27.696 C 11.26 28.511 11.204 29.451 11.722 29.561 C 12.506 29.727 15.187 27.484 16.313 26.548 C 17.167 25.839 18.207 25.498 18.179 24.539 C 18.134 23.068 14.416 19.247 13.444 18.083 C 12.957 17.501 12.74 16.895 12.44 17.079 Z M 36.973 19.661 C 35.957 19.355 30.595 23.686 29.226 24.826 C 28.528 25.408 28.103 25.489 28.078 26.118 C 28.04 27.06 29.842 29.702 30.374 30.278 C 30.612 30.537 30.596 30.544 30.948 30.565 C 31.746 30.614 34.803 30.666 35.826 29.561 C 36.986 28.306 36.811 24.596 36.973 22.818 C 37.092 21.513 37.633 19.86 36.973 19.661 Z" style="fill-opacity: 1; fill-rule: nonzero; stroke: rgb(5, 14, 26); stroke-dasharray: none; stroke-dashoffset: 0px; stroke-linecap: butt; stroke-linejoin: miter; stroke-miterlimit: 4; stroke-opacity: 1; stroke-width: 5px; paint-order: normal; vector-effect: none; opacity: 1; mix-blend-mode: normal; isolation: auto; fill: rgb(250, 160, 50);"/></svg>