<?xml version="1.0" encoding="utf-8"?>
<svg xmlns="http://www.w3.org/2000/svg" viewBox="0 0 50 50" width="50px" height="50px" xmlns:bx="https://boxy-svg.com"><defs><bx:export><bx:file format="svg"/></bx:export></defs><path fill="rgb(255,0,0)" stroke="rgb(255,0,0)" stroke-width="0" opacity="0.9686274509803922" d="M 44.933 3.353 C 45.638 3.652 46.283 4.167 46.651 4.884 C 47.075 5.71 47.646 6.678 47.109 8.184 C 46.967 8.582 46.682 9.095 46.293 9.688 C 46.199 9.884 46.078 10.073 45.909 10.25 C 43.198 14.101 37.123 20.464 36.229 21.497 C 35.965 21.801 36.004 21.701 35.885 21.851 C 35.739 22.037 35.387 22.247 35.427 22.558 C 35.49 23.043 36.662 24.186 37.03 24.561 C 37.234 24.767 37.193 24.576 37.489 24.914 C 38.616 26.2 45.778 35.222 47.109 38.346 C 47.864 40.117 47.835 41.235 47.567 42.352 C 47.329 43.35 46.647 44.331 45.849 44.826 C 45.023 45.338 43.591 45.532 42.643 45.297 C 42.456 45.251 42.287 45.198 42.129 45.134 C 39.448 45.72 34.26 45.36 30.502 45.297 C 26.089 45.225 19.744 45.316 16.987 44.355 C 15.308 43.77 15.242 43.38 13.894 41.881 C 11.395 39.098 4.569 29.961 3.128 26.564 C 2.351 24.732 2.145 24.507 2.67 22.558 C 3.699 18.743 11.77 5.93 13.551 4.059 C 14.124 3.458 14.185 3.657 14.696 3.588 C 15.133 3.529 15.826 3.504 16.485 3.567 C 18.862 3.389 22.018 3.582 23.63 3.588 C 25.166 3.594 26.323 3.951 27.066 3.824 C 27.524 3.745 27.311 3.47 27.982 3.353 C 29.719 3.047 38.195 2.698 42.263 3.107 C 42.969 3.026 44.2 3.04 44.933 3.353 Z" style="fill: rgb(23, 147, 230); fill-opacity: 1; fill-rule: nonzero; stroke: rgb(5, 14, 26); stroke-dasharray: none; stroke-dashoffset: 0px; stroke-linecap: butt; stroke-linejoin: miter; stroke-miterlimit: 4; stroke-opacity: 1; stroke-width: 5px; paint-order: normal; vector-effect: none; opacity: 1; mix-blend-mode: normal; isolation: auto;"/><path stroke="rgb(255,0,0)" opacity="0.9411764705882353" d="M 26.934 4.603 C 27.669 4.542 29.131 4.737 29.664 5.315 C 30.194 5.889 30.534 6.663 30.139 8.046 C 29.303 10.982 20.569 20.429 20.166 23.244 C 19.973 24.589 21.165 25.302 21.591 25.737 C 21.846 25.998 22.113 25.888 22.303 26.093 C 22.525 26.332 22.556 26.923 22.778 27.162 C 22.968 27.367 23.191 27.185 23.49 27.518 C 24.186 28.294 25.993 32.575 26.577 33.336 C 26.801 33.627 26.804 33.354 27.052 33.692 C 27.878 34.819 32.469 42.403 32.514 44.378 C 32.537 45.382 31.786 45.824 31.208 46.159 C 30.636 46.491 29.737 46.614 29.071 46.397 C 28.342 46.158 27.922 45.748 27.052 44.616 C 25.309 42.346 21.766 34.805 19.453 31.318 C 17.659 28.611 15.199 26.624 14.467 24.906 C 13.984 23.774 13.961 23.13 14.229 22.056 C 14.581 20.647 16.527 17.865 17.079 17.188 C 17.303 16.913 17.343 17.077 17.554 16.832 C 17.996 16.319 19.181 14.14 19.572 13.626 C 19.747 13.397 19.808 13.431 19.928 13.27 C 20.084 13.063 20.227 12.643 20.403 12.439 C 20.549 12.271 20.681 12.326 20.878 12.083 C 21.275 11.595 22.144 9.603 22.541 9.115 C 22.738 8.872 22.788 9.003 23.015 8.758 C 23.514 8.22 24.754 5.988 25.509 5.315 C 26.019 4.861 26.348 4.651 26.934 4.603 Z" style="fill-opacity: 1; fill-rule: nonzero; stroke: rgb(5, 14, 26); stroke-dasharray: none; stroke-dashoffset: 0px; stroke-linecap: butt; stroke-linejoin: miter; stroke-miterlimit: 4; stroke-opacity: 1; paint-order: normal; vector-effect: none; opacity: 1; mix-blend-mode: normal; isolation: auto; fill: rgb(5, 14, 26); stroke-width: 0px;"/></svg>