<?xml version="1.0" encoding="utf-8"?>
<svg xmlns="http://www.w3.org/2000/svg" viewBox="0 0 50 50" width="50px" height="50px" xmlns:bx="https://boxy-svg.com"><defs><bx:export><bx:file format="svg"/></bx:export></defs><path stroke="rgb(255,0,0)" stroke-width="0" opacity="0.984313725490196" d="M 12.751 5.095 C 15.828 5.047 22.28 5.377 25.592 5.377 C 27.975 5.378 30.037 5.054 31.235 5.237 C 31.945 5.344 32.091 5.417 32.647 5.801 C 33.503 6.393 34.527 7.426 35.822 8.976 C 37.806 11.35 41.742 16.95 43.441 19.559 C 44.556 21.272 45.3 22.332 45.699 23.509 C 46.016 24.444 46.273 24.901 45.981 26.05 C 45.479 28.025 42.892 31.807 41.043 34.657 C 39.122 37.618 36.003 42.273 34.622 43.477 C 33.995 44.024 33.849 43.929 33.211 44.041 C 32.29 44.201 30.627 44.066 29.401 44.041 C 28.232 44.017 27.11 43.801 26.014 43.9 C 24.947 43.996 24.167 44.474 22.91 44.605 C 21.299 44.775 19.04 44.627 16.984 44.605 C 14.816 44.582 11.822 44.922 10.211 44.464 C 9.055 44.135 8.248 43.6 7.742 42.842 C 7.231 42.076 6.819 41.324 7.177 39.878 C 7.875 37.058 15.589 30.304 15.503 26.191 C 15.425 22.486 10.076 19.009 8.306 16.172 C 6.947 13.994 5.774 11.932 5.342 10.528 C 5.064 9.624 5.006 9.124 5.201 8.412 C 5.425 7.597 6.242 6.438 6.824 5.942 C 7.27 5.562 7.568 5.515 8.236 5.377 C 9.269 5.164 10.724 5.127 12.751 5.095 Z" style="fill-opacity: 1; fill-rule: nonzero; stroke: rgb(5, 14, 26); stroke-dasharray: none; stroke-dashoffset: 0px; stroke-linecap: butt; stroke-linejoin: miter; stroke-miterlimit: 4; stroke-opacity: 1; stroke-width: 5px; paint-order: normal; vector-effect: none; opacity: 1; mix-blend-mode: normal; isolation: auto; fill: rgb(23, 147, 230);"/><path fill="rgb(255,0,0)" stroke="rgb(255,0,0)" stroke-width="0" opacity="0.9647058823529412" d="M 18.886 5.008 C 19.336 4.949 20.201 4.966 20.678 5.157 C 21.093 5.324 21.451 5.755 21.648 5.979 C 21.777 6.124 21.75 6.214 21.872 6.352 C 22.048 6.549 22.218 6.477 22.694 7.024 C 24.146 8.694 31.056 18.416 32.699 21.061 C 33.478 22.315 33.71 22.705 33.893 23.45 C 34.049 24.085 34.21 24.37 33.893 25.242 C 33.251 27.005 29.49 31.393 28.069 33.902 C 26.95 35.879 26.71 37.255 25.68 39.129 C 24.48 41.314 22.517 45.227 21.126 46.222 C 20.283 46.824 19.416 46.686 18.737 46.52 C 18.116 46.369 17.482 45.92 17.169 45.4 C 16.844 44.861 16.529 44.511 16.87 43.31 C 17.746 40.222 28.129 29.137 28.219 24.047 C 28.287 20.201 24.025 17.388 22.096 14.789 C 20.474 12.602 18.214 10.734 17.467 9.264 C 16.984 8.312 16.876 7.555 17.019 6.875 C 17.15 6.255 17.778 5.606 18.139 5.307 C 18.394 5.096 18.56 5.051 18.886 5.008 Z" style="fill: rgb(5, 14, 26); fill-opacity: 1; fill-rule: nonzero; stroke: rgb(5, 14, 26); stroke-dasharray: none; stroke-dashoffset: 0px; stroke-linecap: butt; stroke-linejoin: miter; stroke-miterlimit: 4; stroke-opacity: 1; stroke-width: 0px; paint-order: normal; vector-effect: none; opacity: 1; mix-blend-mode: normal; isolation: auto;"/></svg>