<?xml version="1.0" encoding="utf-8"?>
<svg xmlns="http://www.w3.org/2000/svg" viewBox="0 0 90 50" width="90px" height="50px" xmlns:bx="https://boxy-svg.com"><defs><bx:export><bx:file format="svg"/></bx:export></defs><path opacity="0.9921568627450981" d="M 80.27 5.943 C 80.686 6.521 80.953 7.142 81.116 8.058 C 81.337 9.303 80.995 11.3 81.116 12.965 C 81.241 14.682 81.75 16.442 81.877 18.21 C 82.006 19.995 81.966 22.029 81.877 23.625 C 81.801 24.99 81.535 25.75 81.454 27.263 C 81.345 29.309 81.381 32.496 81.454 35.047 C 81.525 37.543 82.029 40.938 81.877 42.407 C 81.794 43.206 81.637 43.464 81.37 43.93 C 81.093 44.412 80.676 44.909 80.227 45.242 C 79.786 45.568 79.182 45.796 78.704 45.918 C 78.287 46.025 78.052 46.015 77.52 46.003 C 76.71 45.984 75.665 45.733 74.136 45.665 C 71.8 45.56 66.286 45.802 64.322 45.665 C 63.27 45.591 63.126 45.39 62.291 45.326 C 61.186 45.241 58.91 45.287 58.146 45.326 C 57.774 45.345 57.766 45.445 57.469 45.411 C 57.015 45.359 56.11 45.106 55.607 44.819 C 55.163 44.565 54.85 44.283 54.55 43.846 C 54.194 43.327 53.879 42.823 53.704 41.815 C 53.414 40.151 53.847 36.523 53.704 34.116 C 53.572 31.894 53.087 30.416 52.942 27.855 C 52.752 24.478 52.888 18.933 52.942 15.249 C 52.988 12.146 52.936 8.522 53.196 7.043 C 53.323 6.32 53.454 6.167 53.704 5.774 C 53.757 5.691 53.812 5.608 53.87 5.525 C 53.871 5.523 53.872 5.522 53.873 5.52 C 54.144 5.058 54.459 4.683 54.931 4.378 C 55.476 4.023 55.766 3.782 57.046 3.616 C 59.978 3.237 72.092 3.895 74.897 3.87 C 76.033 3.86 76.188 3.734 76.759 3.785 C 77.279 3.832 77.734 3.89 78.197 4.124 C 78.637 4.346 79.139 4.761 79.505 5.155 C 79.792 5.385 80.062 5.655 80.27 5.943 Z" style="fill-opacity: 1; fill-rule: nonzero; stroke-dasharray: none; stroke-dashoffset: 0px; stroke-linecap: butt; stroke-linejoin: miter; stroke-miterlimit: 4; stroke-opacity: 1; paint-order: normal; vector-effect: none; opacity: 1; mix-blend-mode: normal; isolation: auto; fill: rgb(242, 242, 218); stroke-width: 5px; stroke: rgb(5, 14, 26);"/><path fill="rgb(255,0,0)" stroke="rgb(255,0,0)" stroke-width="0" opacity="0.9764705882352941" d="M 69.394 31.447 C 69.368 32.338 69.476 33.604 69.225 34.409 C 69.012 35.09 68.658 35.713 68.167 36.058 C 67.682 36.4 66.891 36.573 66.306 36.481 C 65.721 36.39 65.017 35.896 64.656 35.508 C 64.356 35.186 64.247 34.9 64.149 34.409 C 64.011 33.722 64.105 32.529 64.149 31.617 C 64.179 30.998 64.175 30.307 64.249 29.712 C 64.091 28.705 63.961 26.935 64.098 25.905 C 64.089 25.54 64.141 25.131 64.149 24.425 C 64.158 23.543 64.201 21.761 64.242 19.948 C 63.98 20.262 63.926 20.478 63.599 20.66 C 63.127 20.924 62.256 21.179 61.653 21.083 C 61.059 20.989 60.363 20.589 60.003 20.11 C 59.636 19.622 59.474 18.705 59.495 18.165 C 59.512 17.728 59.654 17.477 59.919 17.065 C 60.286 16.491 61.001 15.813 61.738 15.076 C 62.641 14.173 64.217 12.588 65.037 12.031 C 65.535 11.693 65.789 11.585 66.222 11.523 C 66.603 11.468 67.086 11.495 67.494 11.608 C 67.938 11.643 68.435 11.769 68.929 12.031 C 69.849 12.519 71.042 13.826 71.932 14.696 C 72.743 15.487 73.471 16.444 74.09 17.022 C 74.556 17.459 75.041 17.545 75.317 17.995 C 75.62 18.491 75.847 19.34 75.74 19.941 C 75.633 20.538 75.187 21.245 74.682 21.591 C 74.165 21.945 73.356 22.155 72.651 22.014 C 71.829 21.849 70.949 21.096 70.071 20.364 C 69.868 20.194 69.655 19.994 69.438 19.775 C 69.485 22.02 69.526 24.684 69.294 26.04 C 69.442 27.073 69.596 28.846 69.441 29.851 C 69.455 30.331 69.411 30.886 69.394 31.447 Z" style="fill: rgb(5, 14, 26); fill-opacity: 1; fill-rule: nonzero; stroke: rgb(5, 14, 26); stroke-dasharray: none; stroke-dashoffset: 0px; stroke-linecap: butt; stroke-linejoin: miter; stroke-miterlimit: 4; stroke-opacity: 1; stroke-width: 0px; paint-order: normal; vector-effect: none; opacity: 1; mix-blend-mode: normal; isolation: auto;"/><path stroke="rgb(255,0,0)" stroke-width="0" opacity="0.984313725490196" d="M 11.564 4.858 C 14.641 4.81 21.093 5.14 24.405 5.14 C 26.788 5.141 28.85 4.817 30.048 5 C 30.758 5.107 30.904 5.18 31.46 5.564 C 32.316 6.156 33.34 7.189 34.635 8.739 C 36.619 11.113 40.555 16.713 42.254 19.322 C 43.369 21.035 44.113 22.095 44.512 23.272 C 44.829 24.207 45.086 24.664 44.794 25.813 C 44.292 27.788 41.705 31.57 39.856 34.42 C 37.935 37.381 34.816 42.036 33.435 43.24 C 32.808 43.787 32.662 43.692 32.024 43.804 C 31.103 43.964 29.44 43.829 28.214 43.804 C 27.045 43.78 25.923 43.564 24.827 43.663 C 23.76 43.759 22.98 44.237 21.723 44.368 C 20.112 44.538 17.853 44.39 15.797 44.368 C 13.629 44.345 10.635 44.685 9.024 44.227 C 7.868 43.898 7.061 43.363 6.555 42.605 C 6.044 41.839 5.632 41.087 5.99 39.641 C 6.688 36.821 14.402 30.067 14.316 25.954 C 14.238 22.249 8.889 18.772 7.119 15.935 C 5.76 13.757 4.587 11.695 4.155 10.291 C 3.877 9.387 3.819 8.887 4.014 8.175 C 4.238 7.36 5.055 6.201 5.637 5.705 C 6.083 5.325 6.381 5.278 7.049 5.14 C 8.082 4.927 9.537 4.89 11.564 4.858 Z" style="fill-opacity: 1; fill-rule: nonzero; stroke: rgb(5, 14, 26); stroke-dasharray: none; stroke-dashoffset: 0px; stroke-linecap: butt; stroke-linejoin: miter; stroke-miterlimit: 4; stroke-opacity: 1; stroke-width: 5px; paint-order: normal; vector-effect: none; opacity: 1; mix-blend-mode: normal; isolation: auto; fill: rgb(23, 147, 230);"/><path fill="rgb(255,0,0)" stroke="rgb(255,0,0)" stroke-width="0" opacity="0.9647058823529412" d="M 17.699 4.771 C 18.149 4.712 19.014 4.729 19.491 4.92 C 19.906 5.087 20.264 5.518 20.461 5.742 C 20.59 5.887 20.563 5.977 20.685 6.115 C 20.861 6.312 21.031 6.24 21.507 6.787 C 22.959 8.457 29.869 18.179 31.512 20.824 C 32.291 22.078 32.523 22.468 32.706 23.213 C 32.862 23.848 33.023 24.133 32.706 25.005 C 32.064 26.768 28.303 31.156 26.882 33.665 C 25.763 35.642 25.523 37.018 24.493 38.892 C 23.293 41.077 21.33 44.99 19.939 45.985 C 19.096 46.587 18.229 46.449 17.55 46.283 C 16.929 46.132 16.295 45.683 15.982 45.163 C 15.657 44.624 15.342 44.274 15.683 43.073 C 16.559 39.985 26.942 28.9 27.032 23.81 C 27.1 19.964 22.838 17.151 20.909 14.552 C 19.287 12.365 17.027 10.497 16.28 9.027 C 15.797 8.075 15.689 7.318 15.832 6.638 C 15.963 6.018 16.591 5.369 16.952 5.07 C 17.207 4.859 17.373 4.814 17.699 4.771 Z" style="fill: rgb(5, 14, 26); fill-opacity: 1; fill-rule: nonzero; stroke: rgb(5, 14, 26); stroke-dasharray: none; stroke-dashoffset: 0px; stroke-linecap: butt; stroke-linejoin: miter; stroke-miterlimit: 4; stroke-opacity: 1; stroke-width: 0px; paint-order: normal; vector-effect: none; opacity: 1; mix-blend-mode: normal; isolation: auto;"/></svg>