<?xml version="1.0" encoding="utf-8"?>
<svg xmlns="http://www.w3.org/2000/svg" viewBox="0 0 50 50" width="50px" height="50px" xmlns:bx="https://boxy-svg.com"><defs><bx:export><bx:file format="svg"/></bx:export></defs><path stroke="rgb(255,0,0)" stroke-width="0" opacity="0.9921568627450981" d="M 24.42 2.875 C 26.441 2.672 29.211 2.666 30.732 2.875 C 31.767 3.018 31.937 3.021 33.028 3.593 C 35.091 4.674 40.951 8.717 42.712 10.408 C 43.699 11.355 43.851 11.811 44.29 12.703 C 44.779 13.694 45.131 14.6 45.438 16.146 C 45.887 18.405 46.492 22.725 46.299 25.472 C 46.132 27.847 45.599 29.611 44.721 31.785 C 43.732 34.231 41.692 37.537 40.417 39.389 C 39.497 40.725 39.062 41.407 37.906 42.33 C 36.479 43.47 34.418 44.749 32.167 45.486 C 29.596 46.328 25.443 46.599 23.128 46.778 C 21.486 46.904 20.585 47.082 19.255 46.778 C 17.773 46.438 16.328 45.751 14.663 44.626 C 12.519 43.175 9.245 40.283 7.562 38.241 C 6.215 36.608 5.353 35.33 4.836 33.506 C 4.268 31.506 4.765 28.896 4.549 26.62 C 4.333 24.353 2.818 22.494 3.544 19.877 C 4.577 16.153 10.119 8.983 13.085 6.462 C 15.097 4.752 16.902 4.624 18.824 4.023 C 20.68 3.443 22.478 3.07 24.42 2.875 Z" style="fill-opacity: 1; fill-rule: nonzero; stroke: rgb(5, 14, 26); stroke-dasharray: none; stroke-dashoffset: 0px; stroke-linecap: butt; stroke-linejoin: miter; stroke-miterlimit: 4; stroke-opacity: 1; stroke-width: 5px; paint-order: normal; vector-effect: none; opacity: 1; mix-blend-mode: normal; isolation: auto; fill: rgb(250, 160, 50);"/></svg>