<?xml version="1.0" encoding="utf-8"?>
<svg xmlns="http://www.w3.org/2000/svg" viewBox="0 0 50 50" width="50px" height="50px" xmlns:bx="https://boxy-svg.com"><defs><bx:export><bx:file format="svg"/></bx:export></defs><path opacity="0.9882352941176471" d="M 41.126 19.755 C 41.43 20.092 41.589 20.537 41.679 20.941 C 41.766 21.328 41.744 21.563 41.679 22.126 C 41.571 23.073 41.008 24.767 40.81 26.393 C 40.576 28.32 40.731 30.832 40.494 33.031 C 40.257 35.231 39.847 38.232 39.388 39.591 C 39.116 40.394 38.945 40.688 38.479 41.132 C 37.936 41.648 37.139 42.049 36.187 42.396 C 35.003 42.828 33.611 43.163 31.762 43.344 C 29.276 43.588 24.306 43.373 22.279 43.344 C 21.114 43.327 20.81 43.387 19.908 43.265 C 18.809 43.117 17.381 42.947 16.115 42.396 C 14.707 41.783 12.606 40.364 11.887 39.591 C 11.469 39.141 11.51 39.106 11.334 38.405 C 10.956 36.906 10.796 32.419 10.306 29.712 C 9.853 27.203 8.786 24.269 8.568 22.679 C 8.436 21.719 8.388 21.253 8.568 20.624 C 8.577 20.593 8.587 20.561 8.598 20.529 C 8.604 20.43 8.62 20.33 8.647 20.229 C 8.788 19.707 9.326 18.873 9.714 18.53 C 10.011 18.268 9.972 18.218 10.662 18.135 C 12.779 17.882 23.527 18.491 27.573 18.767 C 30.239 18.95 31.575 19.42 33.5 19.4 C 35.365 19.38 37.821 18.625 38.953 18.688 C 39.391 18.713 39.66 18.792 39.896 18.906 C 40.37 19.064 40.834 19.432 41.126 19.755 Z" style="fill-opacity: 1; fill-rule: nonzero; stroke: rgb(5, 14, 26); stroke-dasharray: none; stroke-dashoffset: 0px; stroke-linecap: butt; stroke-linejoin: miter; stroke-miterlimit: 4; stroke-opacity: 1; paint-order: normal; vector-effect: none; opacity: 1; mix-blend-mode: normal; isolation: auto; stroke-width: 5px; fill: rgb(245, 49, 65);" stroke="rgb(255,0,0)"/><path stroke="rgb(255,0,0)" opacity="0.9921568627450981" d="M 17.63 8.615 C 20.488 8.237 24.14 8.571 26.801 8.713 C 29.029 8.831 30.776 8.947 32.655 9.298 C 34.479 9.639 36.349 10.07 37.923 10.762 C 39.401 11.411 40.996 12.323 41.874 13.249 C 42.584 13.999 42.943 14.899 43.142 15.688 C 43.319 16.39 43.382 16.992 43.142 17.737 C 42.836 18.692 41.853 20.102 41.045 20.908 C 40.32 21.63 39.595 22.012 38.606 22.469 C 37.426 23.014 36.164 23.571 34.313 23.835 C 31.762 24.198 26.551 23.899 24.264 23.835 C 22.849 23.794 22.207 23.653 21.24 23.639 C 20.325 23.626 19.837 23.873 18.606 23.737 C 16.575 23.513 11.691 22.657 9.63 21.688 C 8.172 21.002 7.254 19.968 6.655 19.2 C 6.224 18.648 6.085 18.179 5.972 17.64 C 5.86 17.106 5.853 16.533 5.972 15.981 C 6.098 15.395 6.395 14.763 6.752 14.225 C 7.121 13.671 7.757 13.088 8.167 12.713 C 8.479 12.427 8.707 12.356 8.996 12.079 C 9.351 11.739 9.392 11.184 10.118 10.762 C 11.446 9.99 14.951 8.97 17.63 8.615 Z" style="fill-opacity: 1; fill-rule: nonzero; stroke: rgb(5, 14, 26); stroke-dasharray: none; stroke-dashoffset: 0px; stroke-linecap: butt; stroke-linejoin: miter; stroke-miterlimit: 4; stroke-opacity: 1; paint-order: normal; vector-effect: none; opacity: 1; mix-blend-mode: normal; isolation: auto; stroke-width: 5px; fill: rgb(245, 49, 65);"/><path fill="rgb(255,0,0)" stroke="rgb(255,0,0)" stroke-width="0" opacity="0.9803921568627451" d="M 22.519 2.508 C 23.596 2.335 24.983 2.371 26.16 2.63 C 27.35 2.891 29.188 3.794 29.618 4.086 C 29.775 4.192 29.688 4.187 29.8 4.328 C 30.063 4.661 31.02 5.617 31.438 6.33 C 31.84 7.016 32.106 7.495 32.287 8.515 C 32.563 10.065 32.778 13.793 32.409 15.188 C 32.181 16.051 31.774 16.493 31.256 16.826 C 30.741 17.158 29.91 17.32 29.315 17.19 C 28.716 17.06 28.003 16.423 27.676 16.038 C 27.437 15.755 27.393 15.662 27.312 15.188 C 27.155 14.261 27.491 11.4 27.312 10.213 C 27.192 9.412 27.188 8.88 26.706 8.454 C 26.107 7.924 24.354 7.509 23.612 7.605 C 23.079 7.673 22.816 7.949 22.459 8.393 C 21.961 9.012 21.463 10.23 21.124 11.305 C 20.756 12.475 20.783 14.299 20.396 15.188 C 20.124 15.814 19.832 16.188 19.365 16.462 C 18.861 16.758 18.018 16.956 17.423 16.826 C 16.825 16.696 16.127 16.265 15.785 15.674 C 15.387 14.984 15.284 13.961 15.421 12.762 C 15.611 11.098 16.608 8.071 17.484 6.452 C 18.19 5.146 19.063 4.139 19.971 3.479 C 20.761 2.906 21.561 2.662 22.519 2.508 Z M 16.574 27.747 C 17.255 27.707 18.449 28.072 18.94 28.475 C 19.332 28.797 19.41 29.091 19.547 29.749 C 19.781 30.88 19.996 33.991 19.668 35.21 C 19.449 36.025 19.033 36.514 18.515 36.848 C 18 37.179 17.169 37.342 16.574 37.212 C 15.975 37.081 15.262 36.444 14.936 36.059 C 14.696 35.776 14.66 35.694 14.572 35.21 C 14.393 34.224 14.245 30.88 14.45 29.749 C 14.569 29.091 14.725 28.804 15.057 28.475 C 15.413 28.122 15.99 27.782 16.574 27.747 Z M 24.582 28.111 C 25.264 28.071 26.457 28.436 26.948 28.839 C 27.341 29.161 27.408 29.404 27.555 30.113 C 27.84 31.481 28.171 35.914 27.798 37.394 C 27.575 38.277 27.163 38.699 26.645 39.032 C 26.13 39.364 25.299 39.526 24.704 39.396 C 24.105 39.266 23.44 38.848 23.066 38.243 C 22.613 37.513 22.569 36.295 22.459 35.088 C 22.328 33.651 22.25 31.176 22.459 30.113 C 22.585 29.471 22.734 29.168 23.066 28.839 C 23.422 28.486 23.998 28.146 24.582 28.111 Z M 31.863 27.869 C 32.545 27.828 33.738 28.193 34.229 28.597 C 34.621 28.919 34.711 29.242 34.836 29.871 C 35.036 30.881 35.148 33.396 34.836 34.482 C 34.612 35.259 34.201 35.786 33.683 36.12 C 33.168 36.451 32.337 36.613 31.741 36.484 C 31.143 36.353 30.43 35.716 30.103 35.331 C 29.864 35.048 29.819 34.946 29.739 34.482 C 29.588 33.599 29.539 30.881 29.739 29.871 C 29.864 29.242 30.014 28.926 30.346 28.597 C 30.702 28.244 31.279 27.903 31.863 27.869 Z" style="fill: rgb(5, 14, 26); fill-opacity: 1; fill-rule: nonzero; stroke: rgb(5, 14, 26); stroke-dasharray: none; stroke-dashoffset: 0px; stroke-linecap: butt; stroke-linejoin: miter; stroke-miterlimit: 4; stroke-opacity: 1; stroke-width: 0px; paint-order: normal; vector-effect: none; opacity: 1; mix-blend-mode: normal; isolation: auto;"/></svg>