<?xml version="1.0" encoding="utf-8"?>
<svg xmlns="http://www.w3.org/2000/svg" viewBox="0 0 50 50" width="50px" height="50px" xmlns:bx="https://boxy-svg.com"><defs><bx:export><bx:file format="svg"/></bx:export></defs><path stroke="rgb(255,0,0)" stroke-width="0" opacity="0.984313725490196" d="M 16.064 19.464 C 17.417 19.232 17.945 19.402 19.121 19.644 C 20.609 19.951 22.826 20.584 24.337 21.443 C 25.771 22.258 27.033 23.278 28.023 24.59 C 29.069 25.975 29.879 27.81 30.361 29.626 C 30.863 31.516 31.068 34.049 30.901 35.74 C 30.767 37.105 30.501 37.918 29.822 39.158 C 28.945 40.758 27.171 43.045 25.596 44.463 C 24.122 45.789 22.602 46.966 20.74 47.52 C 18.742 48.115 16.117 48.086 13.906 47.7 C 11.68 47.312 9.096 46.053 7.431 45.182 C 6.149 44.512 5.223 44.034 4.464 43.114 C 3.678 42.162 3.113 40.758 2.845 39.517 C 2.582 38.298 2.664 37.381 2.845 35.74 C 3.112 33.328 3.876 28.291 4.823 26.029 C 5.49 24.437 5.897 23.671 7.251 22.702 C 9.135 21.353 13.945 19.828 16.064 19.464 Z M 36.027 5.257 C 37.3 5.209 39.442 5.986 40.523 6.516 C 41.319 6.906 41.809 7.142 42.231 7.864 C 42.791 8.823 43.318 10.795 43.13 12.181 C 42.94 13.584 42.105 15.408 41.062 16.227 C 40.066 17.01 38.224 17.153 37.106 17.127 C 36.192 17.105 35.537 16.84 34.768 16.407 C 33.885 15.911 32.745 15.158 32.16 14.159 C 31.525 13.074 31.066 11.327 31.261 10.023 C 31.456 8.719 32.449 7.129 33.329 6.336 C 34.087 5.653 34.973 5.296 36.027 5.257 Z" style="fill-opacity: 1; fill-rule: nonzero; stroke: rgb(5, 14, 26); stroke-dasharray: none; stroke-dashoffset: 0px; stroke-linecap: butt; stroke-linejoin: miter; stroke-miterlimit: 4; stroke-opacity: 1; stroke-width: 5px; paint-order: normal; vector-effect: none; opacity: 1; mix-blend-mode: normal; isolation: auto; fill: rgb(73, 194, 242);"/></svg>