<?xml version="1.0" encoding="utf-8"?>
<svg xmlns="http://www.w3.org/2000/svg" viewBox="0 0 40 50" width="40px" height="50px" xmlns:bx="https://boxy-svg.com"><defs><bx:export><bx:file format="svg"/></bx:export></defs><path fill="rgb(255,0,0)" stroke="rgb(255,0,0)" stroke-width="0" opacity="0.9607843137254902" d="M 16.791 18.68 C 17.292 18.591 18.981 18.821 19.378 19.013 C 19.569 19.106 19.549 19.218 19.628 19.347 C 19.717 19.492 19.773 19.72 19.879 19.848 C 19.973 19.962 20.062 19.979 20.213 20.098 C 20.45 20.287 20.918 20.634 21.214 20.933 C 21.499 21.22 21.619 21.507 21.965 21.85 C 22.259 22.142 22.817 22.555 23.271 22.91 C 23.972 21.903 24.634 20.959 24.886 20.682 C 25.073 20.475 25.031 20.607 25.219 20.432 C 25.697 19.989 27.518 17.836 28.14 17.344 C 28.45 17.099 28.472 17.054 28.808 17.011 C 29.362 16.938 30.956 17.092 31.394 17.344 C 31.649 17.491 31.622 17.625 31.728 17.928 C 31.91 18.446 32.663 19.152 32.229 20.432 C 31.813 21.656 29.991 24.334 27.845 27.144 C 27.861 27.161 27.876 27.177 27.89 27.191 C 28.068 27.38 28.061 27.396 28.14 27.525 C 28.229 27.67 28.218 27.842 28.39 28.026 C 28.665 28.318 29.592 28.72 29.892 29.027 C 30.095 29.234 30.068 29.447 30.226 29.611 C 30.395 29.785 30.725 29.854 30.894 30.028 C 31.052 30.192 31.011 30.331 31.228 30.612 C 31.654 31.166 33.315 32.37 33.731 33.283 C 34.079 34.046 34.108 34.978 33.898 35.619 C 33.705 36.208 33.179 36.772 32.646 37.038 C 32.1 37.31 31.279 37.379 30.643 37.205 C 29.968 37.019 29.106 36.253 28.724 35.87 C 28.477 35.621 28.432 35.362 28.307 35.202 C 28.216 35.086 28.199 35.101 28.057 34.952 C 27.729 34.607 26.967 33.662 26.137 32.865 C 25.713 32.457 25.086 31.929 24.434 31.389 C 22.541 33.628 20.819 35.46 19.962 36.036 C 19.018 36.671 18.557 36.383 17.96 36.203 C 17.361 36.023 16.674 35.535 16.374 34.952 C 16.047 34.315 16.054 33.134 16.207 32.448 C 16.336 31.869 16.818 31.294 17.042 31.03 C 17.171 30.877 17.198 30.974 17.375 30.779 C 17.789 30.326 19.285 28.066 19.972 27.157 C 19.825 26.959 19.687 26.744 19.462 26.523 C 19.024 26.094 18.112 25.508 17.709 25.105 C 17.424 24.82 17.332 24.554 17.125 24.354 C 16.94 24.175 16.683 24.088 16.541 23.937 C 16.419 23.807 16.38 23.635 16.291 23.519 C 16.212 23.418 16.151 23.403 16.04 23.269 C 15.846 23.035 15.352 22.569 15.206 22.101 C 15.045 21.585 15.09 20.75 15.206 20.265 C 15.299 19.878 15.504 19.559 15.707 19.347 C 15.876 19.17 16.106 19.127 16.291 19.013 C 16.467 18.904 16.513 18.729 16.791 18.68 Z" style="fill: rgb(5, 14, 26); fill-opacity: 1; fill-rule: nonzero; stroke: rgb(5, 14, 26); stroke-dasharray: none; stroke-dashoffset: 0px; stroke-linecap: butt; stroke-linejoin: miter; stroke-miterlimit: 4; stroke-opacity: 1; stroke-width: 0px; paint-order: normal; vector-effect: none; opacity: 1; mix-blend-mode: normal; isolation: auto;"/></svg>